<svg id="Group_740" data-name="Group 740" xmlns="http://www.w3.org/2000/svg" width="78.069" height="49.583" viewBox="0 0 78.069 49.583">
  <rect id="Rectangle_269" data-name="Rectangle 269" width="69.243" height="49.583" rx="4.52" transform="translate(69.243 49.583) rotate(180)" fill="#c3ecfe"/>
  <path id="Path_4152" data-name="Path 4152" d="M407.086,217.231l16.6-4.687-14.8-3.864" transform="translate(-345.621 -183.711)" fill="#c3ecfe"/>
  <g id="Group_739" data-name="Group 739" transform="translate(9.225 8.496)">
    <rect id="Rectangle_270" data-name="Rectangle 270" width="10.332" height="2.372" transform="translate(25.736 15.964) rotate(180)" fill="#0964af" opacity="0.25"/>
    <rect id="Rectangle_271" data-name="Rectangle 271" width="17.63" height="2.372" transform="translate(25.736 12.419) rotate(180)" fill="#0964af" opacity="0.25"/>
    <rect id="Rectangle_272" data-name="Rectangle 272" width="50.695" height="2.932" transform="translate(50.695 26.376) rotate(180)" fill="#0964af" opacity="0.25"/>
    <rect id="Rectangle_273" data-name="Rectangle 273" width="50.695" height="2.932" transform="translate(50.695 30.756) rotate(180)" fill="#0964af" opacity="0.25"/>
    <rect id="Rectangle_274" data-name="Rectangle 274" width="17.63" height="2.372" transform="translate(25.736 8.875) rotate(180)" fill="#0964af" opacity="0.25"/>
    <rect id="Rectangle_275" data-name="Rectangle 275" width="6.472" height="2.372" transform="translate(25.736 5.331) rotate(180)" fill="#0964af" opacity="0.25"/>
    <path id="Path_4153" data-name="Path 4153" d="M391.719,207.7a10.373,10.373,0,1,0,10.373-10.374A10.373,10.373,0,0,0,391.719,207.7Z" transform="translate(-361.77 -197.324)" fill="#0964af" opacity="0.25"/>
    <path id="Path_4154" data-name="Path 4154" d="M398.723,206.714a3.737,3.737,0,1,1,4.082,0,5.269,5.269,0,0,1,4.056,5.121v3.1a10.321,10.321,0,0,1-12.194,0v-3.1A5.269,5.269,0,0,1,398.723,206.714Z" transform="translate(-360.442 -196.184)" fill="#0964af" opacity="0.19"/>
  </g>
</svg>
