<svg id="Group_689" data-name="Group 689" xmlns="http://www.w3.org/2000/svg" width="116.81" height="146.74" viewBox="0 0 116.81 146.74">
  <path id="Path_3996" data-name="Path 3996" d="M369.454,256.722c10.283,56.2,49.463,106.305,101.524,129.836" transform="translate(-354.386 -240.3)" fill="none" stroke="#c3ecfe" stroke-miterlimit="10" stroke-width="1.056"/>
  <g id="Group_688" data-name="Group 688" transform="translate(0 0)">
    <path id="Path_3997" data-name="Path 3997" d="M373.372,273.584a33.7,33.7,0,0,1-6.763-22.455c.131-1.954.56-4.114,2.154-5.251a2.191,2.191,0,0,1,1.507-.466,2.809,2.809,0,0,1,1.874,1.655c2.212,4.025,2.187,8.889,1.681,13.454s-.28,8.054-.454,13.062" transform="translate(-355.7 -245.401)" fill="#c3ecfe"/>
    <path id="Path_3998" data-name="Path 3998" d="M375.018,283.969a33.684,33.684,0,0,1,2.7-23.295c.895-1.742,2.147-3.555,4.06-3.967a2.2,2.2,0,0,1,1.568.17,2.808,2.808,0,0,1,1.065,2.263c.434,4.574-1.519,9.028-3.793,13.019s-3.451,7.28-5.6,11.811" transform="translate(-352.316 -240.337)" fill="#c3ecfe"/>
    <path id="Path_3999" data-name="Path 3999" d="M381.017,297.6a33.693,33.693,0,0,1-.17-23.451c.674-1.836,1.7-3.79,3.544-4.433a2.2,2.2,0,0,1,1.577-.023,2.813,2.813,0,0,1,1.335,2.116c.989,4.485-.4,9.146-2.174,13.384s-2.534,7.647-4.111,12.407" transform="translate(-350.164 -234.516)" fill="#c3ecfe"/>
    <path id="Path_4000" data-name="Path 4000" d="M388.2,309.868a33.681,33.681,0,0,1-.171-23.45c.675-1.838,1.7-3.79,3.544-4.434a2.191,2.191,0,0,1,1.577-.022,2.8,2.8,0,0,1,1.335,2.115c.989,4.487-.4,9.146-2.174,13.384s-2.534,7.649-4.109,12.407" transform="translate(-346.929 -228.989)" fill="#c3ecfe"/>
    <path id="Path_4001" data-name="Path 4001" d="M400.179,324.863a33.692,33.692,0,0,1-2.6-23.306c.48-1.9,1.294-3.946,3.066-4.777a2.186,2.186,0,0,1,1.565-.186,2.808,2.808,0,0,1,1.546,1.966c1.449,4.359.547,9.139-.776,13.538s-1.728,7.869-2.8,12.765" transform="translate(-342.165 -222.368)" fill="#c3ecfe"/>
    <path id="Path_4002" data-name="Path 4002" d="M409.862,334.775a35.973,35.973,0,0,1-4.056-22.5c.27-1.936.815-4.07,2.288-5.154a1.813,1.813,0,0,1,1.343-.421c.737.132,1.191.931,1.491,1.7,1.594,4.063,1.181,8.893.376,13.415s-.888,7.99-1.442,12.962" transform="translate(-338.168 -217.789)" fill="#c3ecfe"/>
    <path id="Path_4003" data-name="Path 4003" d="M384.477,285.559a36.509,36.509,0,0,1-22.488-9.891c-1.506-1.423-2.993-3.22-2.92-5.235a2.156,2.156,0,0,1,.564-1.491,2.8,2.8,0,0,1,2.52-.348c4.658.992,8.6,4.3,11.99,7.781s6.37,5.662,10.334,9.185" transform="translate(-359.066 -235.01)" fill="#c3ecfe"/>
    <path id="Path_4004" data-name="Path 4004" d="M390.065,293.956a36.5,36.5,0,0,1-24.2-4.237c-1.8-1.023-3.676-2.412-4.085-4.385a2.155,2.155,0,0,1,.191-1.584,2.794,2.794,0,0,1,2.364-.94c4.759-.148,9.372,2.124,13.5,4.7s7.537,3.976,12.227,6.451" transform="translate(-357.872 -228.548)" fill="#c3ecfe"/>
    <path id="Path_4005" data-name="Path 4005" d="M398.114,304.858a36.5,36.5,0,0,1-24.557.691c-1.97-.641-4.083-1.628-4.881-3.48a2.161,2.161,0,0,1-.128-1.591,2.8,2.8,0,0,1,2.128-1.393c4.633-1.1,9.609.206,14.166,1.9s8.181,2.389,13.271,3.874" transform="translate(-354.839 -221.394)" fill="#c3ecfe"/>
    <path id="Path_4006" data-name="Path 4006" d="M408.893,321.509a36.5,36.5,0,0,1-24.1-4.775c-1.778-1.062-3.621-2.492-3.986-4.475a2.153,2.153,0,0,1,.226-1.58,2.8,2.8,0,0,1,2.385-.886c4.762-.042,9.323,2.331,13.393,4.994s7.447,4.143,12.08,6.722" transform="translate(-349.294 -216.388)" fill="#c3ecfe"/>
    <path id="Path_4007" data-name="Path 4007" d="M419.129,327.452a36.5,36.5,0,0,1-23.668,6.586c-2.067-.148-4.356-.6-5.575-2.2a2.154,2.154,0,0,1-.508-1.514c.1-.86.93-1.452,1.729-1.864,4.233-2.182,9.375-2.115,14.207-1.57s8.516.347,13.814.563" transform="translate(-345.413 -208.829)" fill="#c3ecfe"/>
  </g>
</svg>
