<svg xmlns="http://www.w3.org/2000/svg" width="15.319" height="7.82" viewBox="0 0 15.319 7.82">
  <path id="Path_4151" data-name="Path 4151" d="M340.967,251.744c.1.187.693.141.807.167.244.058.145.1,1.316,1.362.863.928,2.172,1.079,4.482.026,1.765-.8,1.374-2.16,1.438-2.843s.209-.817.495-.9.448-.048.882.483a2.867,2.867,0,0,0,3.149,1.445c1.49-.351,1.99-1.079,2.076-2.028.155-1.7.162-1.68.332-1.864s.055-.857-.1-1.208-1.252-.106-2.367.235a13.417,13.417,0,0,0-3.409,1.349c-.574.485-.483.718-.8.82s-.406-.142-1.155-.223a25.454,25.454,0,0,0-4.839,1.166c-1.115.339-2.634.943-2.565,1.32A2.558,2.558,0,0,0,340.967,251.744Zm9.775-3c.007-.47.435-.622,1.722-1.078s1.826-.686,2.109-.538.579.788.5,1.774c-.087,1.131-.36,1.7-1.419,2.021a1.9,1.9,0,0,1-2.341-.75A3.889,3.889,0,0,1,350.743,248.749Zm-7.98,1.986a11.339,11.339,0,0,1,3.2-1.082c1.31-.335,1.746-.448,2.012-.065a3.863,3.863,0,0,1,.318,1.493c.042.769-.061,1.461-2.092,2.089-1.432.444-2.173.184-2.871-.7C342.723,251.7,342.612,251.012,342.763,250.734Z" transform="translate(-340.708 -246.21)" fill="#170d54"/>
</svg>
