<svg id="Group_725" data-name="Group 725" xmlns="http://www.w3.org/2000/svg" width="97.386" height="211.531" viewBox="0 0 97.386 211.531">
  <path id="Path_4062" data-name="Path 4062" d="M388.485,382.348c0,1.314-13.715,2.38-30.635,2.38s-30.633-1.066-30.633-2.38,13.715-2.379,30.633-2.379S388.485,381.034,388.485,382.348Z" transform="translate(-313.317 -173.197)" fill="#bdeeff" opacity="0.35"/>
  <path id="Path_4063" data-name="Path 4063" d="M376.361,298.838s3.391,3.937,4.015,4.167c.383.142,2.978.634,3.834.788a3.364,3.364,0,0,1,.93.264,2.99,2.99,0,0,1,.773.625,24.238,24.238,0,0,1,1.765,2.138,3.827,3.827,0,0,1,.409.614,3.668,3.668,0,0,1,.263.854q.553,2.5.947,5.029a.45.45,0,0,1-.012.267c-.094.193-.39.145-.553.006s-.284-.342-.486-.408l-.007.429a1.011,1.011,0,0,1-.94-.135,7.75,7.75,0,0,1-2.958-2.862,3.306,3.306,0,0,0-.469-.685c-.522-.516-1.339-.508-2.045-.689a11.666,11.666,0,0,1-1.919-.622c-1.1-.5-1.236-1.826-1.34-2.076a1.008,1.008,0,0,0-.284-.342c-.721-.651-3.59-2.816-3.59-2.816" transform="translate(-291.926 -209.753)" fill="#ffbe9d"/>
  <path id="Path_4064" data-name="Path 4064" d="M349.57,240.528c1.6.461,2.443,2.524,2.985,3.935a21.968,21.968,0,0,1,1.2,5.311,7.29,7.29,0,0,1-.261,3.735,7.858,7.858,0,0,1-1.041,1.625,3.43,3.43,0,0,1-.753.792,1.161,1.161,0,0,1-1.039.177c-.5-.191-.7-.776-.84-1.291A34.009,34.009,0,0,0,346,245.15" transform="translate(-304.856 -236.025)" fill="#170d54"/>
  <path id="Path_4065" data-name="Path 4065" d="M349.682,248.228c.032-1.068,1.156-1.764,2.129-.659.807.915,1.02,2.653,1.066,3.937.055,1.538-1.137,1.839-2.118,2.055" transform="translate(-303.195 -233.105)" fill="#f2a181"/>
  <g id="Group_719" data-name="Group 719" transform="translate(52.385 195.842)">
    <path id="Path_4066" data-name="Path 4066" d="M359.147,373.947a35.62,35.62,0,0,1-.2,4.439c-.232,1.163-3.98.788-4.34.126s.088-6.078.088-6.078" transform="translate(-353.425 -372.434)" fill="#ffccb0"/>
    <path id="Path_4067" data-name="Path 4067" d="M353.844,378.109c-.1,1.229-.1,3.548-.1,3.548l3.843.927.489-.653a6.735,6.735,0,0,0,2.259,1.23,15.064,15.064,0,0,0,3.624.35c3.175-.213,5.366-1.2,5.474-1.667.456-1.941-3.764-1.7-4.623-1.768a5.566,5.566,0,0,1-4.607-3.235c-.348-.914-.144-1.121-.667-1a1.278,1.278,0,0,0-.818.576,2.29,2.29,0,0,1-2.433,1.036,2.731,2.731,0,0,1-1.451-.83A1.581,1.581,0,0,0,353.844,378.109Z" transform="translate(-353.748 -370.913)" fill="#e8505b"/>
  </g>
  <path id="Path_4068" data-name="Path 4068" d="M353.966,352.743c.364-5.757-4.286-13.463-4.286-13.463s12.556-6.9,12.745-9.044c0,0,1.719,11.847,2.335,16.027,1.072,7.26-2.55,48.674-2.55,48.674a14.94,14.94,0,0,1-6.118.084s-.651-16-3.268-26.833C351.585,363.051,353.533,354.166,353.966,352.743Z" transform="translate(-303.196 -195.606)" fill="#3e89cc"/>
  <path id="Path_4069" data-name="Path 4069" d="M359.073,300.648c4.714,10.52,9.833,44.461,11.061,56.179.521,4.968-3.618,10.791-8.437,6.3-5.751-5.363-13.843-29.931-16.735-34.268s-13.709-8.313-6.32-30.317" transform="translate(-309.313 -209.887)" fill="#3e89cc"/>
  <g id="Group_720" data-name="Group 720" transform="translate(22.597 197.559)">
    <path id="Path_4070" data-name="Path 4070" d="M338.961,373.618s-.424,4.62-.59,5.794-3.931,1.01-4.326.368-.251-6.074-.251-6.074" transform="translate(-332.962 -373.618)" fill="#ffccb0"/>
    <path id="Path_4071" data-name="Path 4071" d="M333.232,379.284a25.145,25.145,0,0,0,.125,3.257l4.33.292.261-.709a6.821,6.821,0,0,0,2.459.892l3.655.245c2.675.18,4.217-.059,4.315-.525.415-1.948-2.786-2.074-3.619-2.129-2.389-.161-4.9-1.453-5.383-2.7-.351-.908-.155-1.118-.66-.986a1.238,1.238,0,0,0-.785.59,2.2,2.2,0,0,1-2.341,1.079,2.612,2.612,0,0,1-1.416-.8A1.584,1.584,0,0,0,333.232,379.284Z" transform="translate(-333.213 -372.149)" fill="#e8505b"/>
  </g>
  <path id="Path_4072" data-name="Path 4072" d="M350.1,366c-.8,4.094-11.491,2.565-11.261-1.06.328-5.154-3.284-11.815-4.668-36.347-.158-2.8-2.966-3.214-4.072-10.836s3.431-16.087,3.431-16.087l16.452-2.356S356.308,313.579,355,327.8,351.048,361.176,350.1,366Z" transform="translate(-312.094 -209.539)" fill="#3e89cc"/>
  <path id="Path_4073" data-name="Path 4073" d="M337.47,345.674s-3.741,7.409-4.179,12.765c-.643,7.837.151,33.631.151,33.631s4.047.878,6.207.242c0,0,9.5-45.766,9.845-50.686S337.47,345.674,337.47,345.674Z" transform="translate(-310.694 -191.138)" fill="#3e89cc"/>
  <path id="Path_4074" data-name="Path 4074" d="M368.343,267.479c-1.86-2.134-7.763-5.65-15.653-5.4-5.435.171-20.238,1.069-21.893,4.706-.846,1.858-1.754,20.894-.515,27.458.931,4.935,3.312,17.162,3.312,20.112s-1.584,4.215-.844,5.073c1.657,1.919,12.983,2.724,18.3,2.724,4.735,0,12.791-1.262,13.2-2.778.608-2.251-.923-2.167-1.13-4.527s-1.323-17.92.062-20.182c2.2-3.59,4.385-13.046,4.553-15.752S370.2,269.613,368.343,267.479Z" transform="translate(-312.21 -226.321)" fill="#57c6f2"/>
  <path id="Path_4075" data-name="Path 4075" d="M334.374,276.451c-.564,1.174-4.4,7.334-4.4,7.334l-.155.737a30.641,30.641,0,0,0,.39,3.293c.931,4.935,3.312,17.162,3.312,20.112s-1.584,4.215-.844,5.073c.661.766,2.878,1.352,5.628,1.784a7.125,7.125,0,0,1-1.272-1.831c-.221-.866,1.227-.646,1.493-1.374s-3.288-14.992-4.156-21.844S334.939,275.278,334.374,276.451Z" transform="translate(-312.143 -219.894)" fill="#5ab5e2" opacity="0.45"/>
  <path id="Path_4076" data-name="Path 4076" d="M352.265,258.74s.052,6.565.318,6.829a10.256,10.256,0,0,0,1.561.878s-.924,5.707-2.354,5.283-10.871-5.192-10.871-5.192,1.339-.545,1.339-1.075-1.271-10.853-1.271-10.853" transform="translate(-307.144 -229.68)" fill="#ffbe9d"/>
  <path id="Path_4077" data-name="Path 4077" d="M347.562,241.017c1.375.376,5-.376,6,1.126s1.877,5.128,2.251,6.129c.747,1.992,1.234,4.12,1.777,6.174.706,2.676,1.873,7.578-.746,9.816a3.481,3.481,0,0,1-2.019,1.024c-1.239.225-2.473.479-3.712.7-1.921.345-4.049.747-5.956.128-2.549-.828-3.947-4.331-4.6-6.712l-3.753-13.632Z" transform="translate(-308.997 -235.805)" fill="#ffbe9d"/>
  <path id="Path_4078" data-name="Path 4078" d="M350.1,267.492s.521,24.162,1.5,38.861l-3.553,4.9-2.443-6.136a186.883,186.883,0,0,1,2.311-37.457Z" transform="translate(-305.099 -223.876)" fill="#1b227a"/>
  <path id="Path_4079" data-name="Path 4079" d="M350.676,266.5l-.083.332a6.771,6.771,0,0,1-.735,1.79h0l-2.18.168s-1.482-.776-1.678-1.612,2.434-2.2,2.434-2.2l.319.126a4.742,4.742,0,0,1,1.9,1.365Z" transform="translate(-304.859 -225.009)" fill="#1b227a"/>
  <path id="Path_4080" data-name="Path 4080" d="M342.6,260.518a13.563,13.563,0,0,0-2.974,3,27.936,27.936,0,0,0,7.247,9,12.6,12.6,0,0,1,4.426-5.532S343.381,265.35,342.6,260.518Z" transform="translate(-307.726 -227.019)" fill="#eaeaea"/>
  <path id="Path_4081" data-name="Path 4081" d="M347.674,266.854a9.378,9.378,0,0,1,4.336,4.121,20.767,20.767,0,0,0-.589-7.649s-1.467-2.463-2.085-2.509C349.592,263.728,347.674,266.854,347.674,266.854Z" transform="translate(-304.1 -226.884)" fill="#eaeaea"/>
  <path id="Path_4082" data-name="Path 4082" d="M356.677,264.915c4.809,2.673,13.035,30.152,13.95,30.452s19.549,22.247,19.549,22.247l-2.955,4s-18.811-13.679-24.211-19.668c-3.8-4.215-11-23.044-11-23.044S351.869,262.243,356.677,264.915Z" transform="translate(-302.144 -225.168)" fill="#57c6f2"/>
  <path id="Path_4083" data-name="Path 4083" d="M363.668,295.519c-1.861-1.646-7.765-19.105-7.765-19.105l-1.42,5.976c2.357,5.512,5.374,11.982,7.415,14.245,5.4,5.989,24.211,19.668,24.211,19.668l1.15-1.556S365.529,297.166,363.668,295.519Z" transform="translate(-301.032 -219.856)" fill="#5ab5e2" opacity="0.45"/>
  <g id="Group_722" data-name="Group 722" transform="translate(0.408 85.476)">
    <path id="Path_4084" data-name="Path 4084" d="M347.58,296.373l-28.559,5.392a1.355,1.355,0,0,0-1.056,1.691l3.825,19.752a1.355,1.355,0,0,0,1.559.973l28.559-5.39a1.356,1.356,0,0,0,1.056-1.691l-3.825-19.752A1.357,1.357,0,0,0,347.58,296.373Z" transform="translate(-317.916 -296.35)" fill="#fe7d90"/>
    <path id="Path_4085" data-name="Path 4085" d="M346.627,297.412l-27.343,5.161,3.788,19.614,27.343-5.161Z" transform="translate(-317.3 -295.871)" fill="#e5f8ff"/>
    <g id="Group_721" data-name="Group 721" transform="translate(5.434 3.43)">
      <line id="Line_69" data-name="Line 69" x1="2.987" y1="16.697" transform="translate(21.631)" fill="none" stroke="#a1d2f0" stroke-linecap="round" stroke-linejoin="round" stroke-width="0.528"/>
      <line id="Line_70" data-name="Line 70" x1="2.987" y1="16.697" transform="translate(19.052 0.5)" fill="none" stroke="#a1d2f0" stroke-linecap="round" stroke-linejoin="round" stroke-width="0.528"/>
      <line id="Line_71" data-name="Line 71" x1="2.987" y1="16.697" transform="translate(15.342 1.26)" fill="none" stroke="#a1d2f0" stroke-linecap="round" stroke-linejoin="round" stroke-width="0.528"/>
      <line id="Line_72" data-name="Line 72" x1="2.987" y1="16.697" transform="translate(11.631 2.02)" fill="none" stroke="#a1d2f0" stroke-linecap="round" stroke-linejoin="round" stroke-width="0.528"/>
      <line id="Line_73" data-name="Line 73" x1="3.349" y1="16.697" transform="translate(7.558 2.78)" fill="none" stroke="#a1d2f0" stroke-linecap="round" stroke-linejoin="round" stroke-width="0.528"/>
      <line id="Line_74" data-name="Line 74" x1="3.349" y1="16.697" transform="translate(3.848 3.54)" fill="none" stroke="#a1d2f0" stroke-linecap="round" stroke-linejoin="round" stroke-width="0.528"/>
      <line id="Line_75" data-name="Line 75" x1="3.486" y1="16.697" transform="translate(0 4.3)" fill="none" stroke="#a1d2f0" stroke-linecap="round" stroke-linejoin="round" stroke-width="0.528"/>
    </g>
  </g>
  <g id="Group_723" data-name="Group 723" transform="translate(0 38.122)">
    <path id="Path_4086" data-name="Path 4086" d="M328.911,306.265s1.13,2.3,1.735,3.474c.395.763,3.394,3.319,4.6,5.354a5.2,5.2,0,0,1,.943,3.223,2.16,2.16,0,0,1-2.327,1.964c-.318-.068-.68-.223-.937-.025a1.236,1.236,0,0,0-.268.41,1.268,1.268,0,0,1-2.34-.322,2.143,2.143,0,0,1-2.853-.03,1.706,1.706,0,0,0,.689-1.51,3.42,3.42,0,0,0-.872-1.406,4.359,4.359,0,0,1-.9-2.752c.019-.7.209-1.385.286-2.083a6.625,6.625,0,0,0-.92-4.138" transform="translate(-313.98 -244.529)" fill="#ffbe9d"/>
    <path id="Path_4087" data-name="Path 4087" d="M341.169,279.3c-.863,3.077-14.008,23.311-14.008,23.311L334.2,328.26l-4.012,2.511s-12.511-20.79-12.55-26.66,9.153-27.391,15.872-36.19c2.138-2.8,6.426-4.215,6.426-4.215" transform="translate(-317.635 -263.705)" fill="#57c6f2"/>
  </g>
  <path id="Path_4088" data-name="Path 4088" d="M340.782,258.656c.866-.5,1.529-1.039,2.092-.21.3.44.479,1.046.988,1.2a1.022,1.022,0,0,0,1.159-.82,2.956,2.956,0,0,0-.191-1.555q-.52-1.678-1.042-3.355a5.05,5.05,0,0,1-.244-3.358A3.7,3.7,0,0,1,344.6,249.2a11.238,11.238,0,0,1,5.15-2.2,55.339,55.339,0,0,0,5.543-1.137,6.012,6.012,0,0,0,2.111-1.063,4.555,4.555,0,0,0,1.5-3.412,7.067,7.067,0,0,0-1.082-3.638,6.085,6.085,0,0,1-.554,1.263,4.672,4.672,0,0,0-1.01-1.584c-.538,3-13.183,2-16.138,3.325-2.047.917-3.741,1.517-3.679,4.836a1.2,1.2,0,0,1-.4.526c-1.815,1.668-2.6,3.7-2.829,6.706-.278,3.683,1.867,7.672,3.969,10.708a6.873,6.873,0,0,0,1.561,1.868,4.148,4.148,0,0,0,2.939.663c.912-.174,2.708-.1,2.726-1.024.013-.664-1.407-1.849-1.8-2.385" transform="translate(-310.628 -237.424)" fill="#1b227a"/>
  <path id="Path_4089" data-name="Path 4089" d="M342.046,255.894a1.16,1.16,0,0,1-1.733,1.316,4,4,0,0,1-2.524-3.1c-.3-1.593.558-3.185,2.016-2.772a2.151,2.151,0,0,1,1.377,2.1" transform="translate(-308.581 -231.183)" fill="#ffbe9d"/>
  <path id="Path_4090" data-name="Path 4090" d="M350,257.844l-4.057.746a5.654,5.654,0,0,0,4.109,1.517" transform="translate(-304.881 -228.223)" fill="#f2a181"/>
  <path id="Path_4091" data-name="Path 4091" d="M358.891,356.249c.734-2.406-1.332-6.14-2.348-8.922s-8.661-25.046-8.661-25.046l-1.687,8.98c1.587,3.85,3.319,7.968,5.057,11.6h0v0c.67,1.4,1.339,2.726,2,3.938,1.208,2.726,2.48,6.4,2.283,9.522-.434,1.423-2.382,10.308-1.143,15.446,2.615,10.836,3.268,26.833,3.268,26.833a15.616,15.616,0,0,0,1.876.222c-.221-3.95-.6-10.923-.647-12.3-.061-1.947-2.524-13.16-2.348-17.6A59.69,59.69,0,0,1,358.891,356.249Z" transform="translate(-304.767 -199.19)" fill="#2679c4"/>
  <g id="Group_724" data-name="Group 724" transform="translate(30.479 91.183)">
    <path id="Path_4092" data-name="Path 4092" d="M342.9,309.464l-2.472.585-1.785-9.242,2.478-.524Z" transform="translate(-338.647 -300.284)" fill="#fe7d90"/>
    <path id="Path_4093" data-name="Path 4093" d="M345.649,303.41a2.249,2.249,0,0,0-2.627-1.793l-2.833.535.836,4.42,2.831-.535A2.249,2.249,0,0,0,345.649,303.41Zm-3.479.657a1.262,1.262,0,1,1,1.474,1.005A1.261,1.261,0,0,1,342.17,304.067Z" transform="translate(-337.952 -299.701)" fill="#fe7d90"/>
  </g>
</svg>
