<svg id="Group_732" data-name="Group 732" xmlns="http://www.w3.org/2000/svg" width="72.536" height="213.993" viewBox="0 0 72.536 213.993">
  <ellipse id="Ellipse_321" data-name="Ellipse 321" cx="31.828" cy="2.866" rx="31.828" ry="2.866" transform="translate(0 208.26)" fill="#bdeeff" opacity="0.35"/>
  <g id="Group_727" data-name="Group 727" transform="translate(39.297 33.187)">
    <path id="Path_4094" data-name="Path 4094" d="M435.779,275.861l-19.532-2.626v39.151l10.594,1.424a1.773,1.773,0,0,0,1.981-1.275l8.434-34.664A1.67,1.67,0,0,0,435.779,275.861Z" transform="translate(-404.061 -270.252)" fill="#5ab5e2" opacity="0.45"/>
    <path id="Path_4095" data-name="Path 4095" d="M414.917,272.329l-7.034,30.9a1.478,1.478,0,0,0,1.232,1.791l21.893,3.145a1.48,1.48,0,0,0,1.652-1.136l7.034-30.9a1.477,1.477,0,0,0-1.232-1.791l-21.893-3.145A1.479,1.479,0,0,0,414.917,272.329Z" transform="translate(-407.846 -271.179)" fill="#57c6f2"/>
    <path id="Path_4096" data-name="Path 4096" d="M415.757,272.659l-6.734,29.581,21.738,3.122,6.734-29.581Z" transform="translate(-407.316 -270.512)" fill="#e5f8ff"/>
    <g id="Group_726" data-name="Group 726" transform="translate(6.378 4.795)">
      <line id="Line_76" data-name="Line 76" x1="18.473" y1="2.653" transform="translate(3.025)" fill="none" stroke="#a1d2f0" stroke-linecap="round" stroke-linejoin="round" stroke-width="0.528"/>
      <line id="Line_77" data-name="Line 77" x1="18.473" y1="2.653" transform="translate(2.403 2.796)" fill="none" stroke="#a1d2f0" stroke-linecap="round" stroke-linejoin="round" stroke-width="0.528"/>
      <line id="Line_78" data-name="Line 78" x1="11.544" y1="1.658" transform="translate(1.641 6.109)" fill="none" stroke="#a1d2f0" stroke-linecap="round" stroke-linejoin="round" stroke-width="0.528"/>
      <line id="Line_79" data-name="Line 79" x1="11.544" y1="1.658" transform="translate(0.821 8.512)" fill="none" stroke="#a1d2f0" stroke-linecap="round" stroke-linejoin="round" stroke-width="0.528"/>
      <line id="Line_80" data-name="Line 80" x1="11.544" y1="1.658" transform="translate(0 10.915)" fill="none" stroke="#a1d2f0" stroke-linecap="round" stroke-linejoin="round" stroke-width="0.528"/>
      <line id="Line_81" data-name="Line 81" x1="11.544" y1="1.658" transform="translate(4.233 24.196)" fill="none" stroke="#a1d2f0" stroke-linecap="round" stroke-linejoin="round" stroke-width="0.528"/>
    </g>
  </g>
  <path id="Path_4097" data-name="Path 4097" d="M408.256,297.849a9.573,9.573,0,0,0,3.043-2.716l2.61-3.106a2.6,2.6,0,0,0,.741-1.388c-1.458-.117-2.4,1.775-3.856,1.889a30.473,30.473,0,0,1,2.9-6.883,2.117,2.117,0,0,0,.418-1.715,11.108,11.108,0,0,0-4.051,2.959,21.717,21.717,0,0,0-2.2,2.794,30.04,30.04,0,0,0-3.928,9.651" transform="translate(-370.313 -232.246)" fill="#f2a181"/>
  <g id="Group_728" data-name="Group 728" transform="translate(10.81 77.301)">
    <path id="Path_4098" data-name="Path 4098" d="M409.043,314.779,393.41,301.59s-7.275,9.867-4.534,19.385c1.348,4.681,3.039,7,3.774,9.223.686,2.076,5.392,31.448,5.039,33.6s-2.876,8.157-3.841,14.475c-1.159,7.6-.963,32.361-1.863,38.925s5.164,7.676,5.5,5.456c2.849-18.984,10.376-48.568,11.429-58.058S409.538,337.719,409.043,314.779Z" transform="translate(-388.185 -301.59)" fill="#ffbe9d"/>
    <path id="Path_4099" data-name="Path 4099" d="M404.73,323.583l-6.8,15.6a34.937,34.937,0,0,1,4.743,16.351c.115,3.01-.151,6.026-.068,9.037a2.972,2.972,0,0,0,.091.654c.911-4.462,1.591-8.141,1.857-10.535.744-6.706.747-17.363.512-31.123A2.92,2.92,0,0,0,404.73,323.583Z" transform="translate(-383.827 -291.688)" fill="#f2a181"/>
    <path id="Path_4100" data-name="Path 4100" d="M398.348,381.29s-1.456,6.887-1.065,7.766,1.8,3.429,3.242,4.352c1.514.968,4.865,2.118,5.134,2.537a1.04,1.04,0,0,1-.193,1.407,6.936,6.936,0,0,1-4.778,1.211c-4.545-.75-5.015-2.759-7.662-3.081-.457-.055-1.3.621-2.567-.026a3,3,0,0,1-1.77-2.916,12.992,12.992,0,0,1,2.01-4.865c.759-1.4,1.292-7.824,1.292-7.824" transform="translate(-387.996 -266.328)" fill="#ffbe9d"/>
    <path id="Path_4101" data-name="Path 4101" d="M406.031,394.908c.332-.567.416-1.424.109-1.633a26.267,26.267,0,0,0-2.83-1.7c-.88-.406-2.279-.764-1.786-.5s-.415,1.261-1.24,1.21c-2.847-.174-4.948-2.067-6.571-2.473-2.341-.585-3.322-3.349-3.425-3.8a10.907,10.907,0,0,0-1.683,3.206,5.6,5.6,0,0,0-.347,2.449,5.683,5.683,0,0,1,.26,2.335,4.478,4.478,0,0,0,1.684.606,6.586,6.586,0,0,0,1.812.026l.2-1.471a6.653,6.653,0,0,1,1.449.144,7.816,7.816,0,0,1,2.212,1.033c.325.389.586,1.1,1.017,1.313a9.07,9.07,0,0,0,3.735.931C403.684,396.763,405.466,395.877,406.031,394.908Z" transform="translate(-388.208 -263.551)" fill="#1b227a"/>
  </g>
  <g id="Group_729" data-name="Group 729" transform="translate(16.157 75.775)">
    <path id="Path_4102" data-name="Path 4102" d="M428.75,433.135c-.335-.371-3.957-.962-5.656-1.671a9.771,9.771,0,0,1-3.96-3.771c-.381-.923-.293-5.6-.245-7.559.339-13.518,2.837-46.552,3.2-54.462.628-13.75-1.156-27.942-6.446-50.016l-19.7-15.118s-5.518,10.256-3.67,20.061c1.07,5.689,5.791,6.565,6.588,8.776s12.716,37.861,12.716,37.861a67.118,67.118,0,0,0-2.453,16.151c-.115,7.208,3.154,28.95,3.76,37.235.071,1.619.35,5.493-.126,6.726-.585,1.511-2.074,3.287-2,5.193A2.933,2.933,0,0,0,413,435.135c1.4.434,2.174-.373,2.655-.393,2.776-.115,3.547,1.794,8.341,1.793a7.587,7.587,0,0,0,4.759-1.979A1.011,1.011,0,0,0,428.75,433.135Z" transform="translate(-391.894 -300.538)" fill="#ffbe9d"/>
    <path id="Path_4103" data-name="Path 4103" d="M423.47,395.046c.263-.615.228-1.477-.119-1.632a27.443,27.443,0,0,0-3.161-1.221c-.966-.257-2.459-.381-1.913-.2s-.25,1.313-1.107,1.4c-2.965.293-5.4-1.236-7.131-1.371-2.5-.2-3.416-2.769-3.586-3.2a11.5,11.5,0,0,0-1.768,3.447,5.417,5.417,0,0,0-.012,2.478,5.418,5.418,0,0,1,.6,2.264,4.717,4.717,0,0,0,1.823.325,7.253,7.253,0,0,0,1.874-.27v-1.487a7.212,7.212,0,0,1,1.514-.1,5.01,5.01,0,0,1,2.443.863c.408.308.836.824,1.316.944a10.056,10.056,0,0,0,3.892.295C421.31,397.265,423.023,396.1,423.47,395.046Z" transform="translate(-386.202 -260.758)" fill="#1b227a"/>
  </g>
  <path id="Path_4104" data-name="Path 4104" d="M394.005,300.908c-1.336,1.468-6.1,9.407-6.152,15.869s2.248,10.605,2.454,11.954c1.511,9.871,2.972,21.776,2.972,22.423s5.6,4.384,13.139,3.909c13.924-.876,19.338-4.523,19.338-4.523s-.66-23.913-2.805-35.7c-1.076-5.908-5.76-15.418-5.76-15.418" transform="translate(-377.558 -225.267)" fill="#1b227a"/>
  <path id="Path_4105" data-name="Path 4105" d="M383.337,282.99s2.243,11.142,2.83,13.125,3.5,14.574,6.255,14.355,17.861-12.829,17.861-12.829l-2.14-4.278L394.85,299.7s-1.2-14.391-2.254-17.819" transform="translate(-379.593 -233.169)" fill="#ffbe9d"/>
  <path id="Path_4106" data-name="Path 4106" d="M386.88,287.375c1.407,4.974,4.292,10.216,5.154,14.073.173.775,9.379-2.572,9.4-6.03" transform="translate(-377.996 -230.694)" fill="#f2a181"/>
  <path id="Path_4107" data-name="Path 4107" d="M392.514,272s-4.408.47-6.644,2.18c-5.7,4.362-1.288,20.192-1.288,20.192s-.281.844,3.545.63a27.565,27.565,0,0,0,6.894-1.3l-1.107-12.971" transform="translate(-379.765 -237.622)" fill="#e8505b"/>
  <path id="Path_4108" data-name="Path 4108" d="M386.086,278.178s-.483,9.305,1.2,14a15.183,15.183,0,0,0,3.12-.41Z" transform="translate(-378.383 -234.838)" fill="#b03d44"/>
  <path id="Path_4109" data-name="Path 4109" d="M410.214,252.14c2.656,3.444,2.129,8.287,1.475,12.588q-.5,3.259-.994,6.522a3.274,3.274,0,0,1-4.2,3.442q.017,2.7.032,5.4-4.615.113-9.236.038a8.9,8.9,0,0,0-.8-3.666c-1.506-.029-2.512-1.539-3.1-2.924a42.628,42.628,0,0,1-1.654-4.939,27.344,27.344,0,0,1-1.3-6.773,9.8,9.8,0,0,1,1.954-6.481,11.807,11.807,0,0,1,3.751-2.8c1.91-1,4.2-1.781,6.172-.91" transform="translate(-376.395 -246.969)" fill="#ffbe9d"/>
  <path id="Path_4110" data-name="Path 4110" d="M408.6,269.879a5.623,5.623,0,0,1,.255-4.034,2.65,2.65,0,0,1,.808-1.024,1.71,1.71,0,0,1,1.646-.171,1.823,1.823,0,0,1,.827.772,23.621,23.621,0,0,0,.577-7.543,9.808,9.808,0,0,0-6.222-8.541c-6.52-2.679-15.89-.032-18.537,6.368-2,4.835-.986,11.812,2.842,15.865,3.39,3.589,8.267,4.115,12.766,3.375,2.3-.377,5.856-.151,7.048-3.283a.35.35,0,0,0-.36-.464C409.315,271.271,408.665,270.212,408.6,269.879Z" transform="translate(-377.965 -248.3)" fill="#1b227a"/>
  <path id="Path_4111" data-name="Path 4111" d="M404.265,260.963c.242.38.184.891.412,1.279a3.009,3.009,0,0,0,1.577,1.207c1.107.514.847,2.124.815,2.845.836-.556.97-2.066,1.172-2.833.226-.863.371-1.746.622-2.6a13.11,13.11,0,0,0,.746-2.491,10.224,10.224,0,0,0-3.919-8.274,5.448,5.448,0,0,0-6.1.073,4.764,4.764,0,0,0-1.742,2.215,1.469,1.469,0,0,0-.068,1.189" transform="translate(-373.131 -247.896)" fill="#1b227a"/>
  <path id="Path_4112" data-name="Path 4112" d="M392,273.058c.157-1.053.441-2.283,1.423-2.7a3.076,3.076,0,0,1,.866-.184,71.68,71.68,0,0,1,9.047-.426,8.414,8.414,0,0,1,3.661.643c1.754.876,2.718,2.766,3.565,4.533" transform="translate(-375.688 -238.64)" fill="#b03d44"/>
  <path id="Path_4113" data-name="Path 4113" d="M420.121,311.141a25.16,25.16,0,0,1-1.738-2.048c-.834-1.639-1.564-8.547-1.276-10.311.308-1.892,1.981-2.908,2.736-7.118a15.562,15.562,0,0,0-2.493-11.442c-1.757-2.553-.715-2.539-1.316-5.666a2.976,2.976,0,0,0-.621-1.556,15.017,15.017,0,0,0-3.513-1.665c-4.884-.756-7.753-.165-12.691.051a42.372,42.372,0,0,0-7.279.921c-2.653.585-4.965,1.29-5.511,4.891a36.268,36.268,0,0,0,1.558,16.483c1.123,3.5,7.824,15.617,6.164,17.961a8.014,8.014,0,0,0-1.443,2.222c-.421,2.449,5.112,3.309,7.479,3.5a92.8,92.8,0,0,0,11.362-.071c2.739-.128,8.731-1.085,9.156-4.469A2.444,2.444,0,0,0,420.121,311.141Z" transform="translate(-378.365 -238.089)" fill="#e8505b"/>
  <path id="Path_4114" data-name="Path 4114" d="M411.294,287.966a9.809,9.809,0,0,1-.728,2.824c-.688.354-3.412.94-4.976.225a72.342,72.342,0,0,0-2.25-9.52S411.293,287.055,411.294,287.966Z" transform="translate(-370.579 -233.343)" fill="#b03d44"/>
  <path id="Path_4115" data-name="Path 4115" d="M395.167,265.166c-1.88-.531-3.9.527-5.157,2.025-1.446,1.732-2.071,4.423-.721,6.229a6.031,6.031,0,0,0,1.961,1.562,10.385,10.385,0,0,0,7.379,1.369c2.488-.611,4.672-2.837,4.642-5.4-.026-2.318-1.719-4.253-3.431-5.817" transform="translate(-377.247 -240.763)" fill="#1b227a"/>
  <g id="Group_731" data-name="Group 731" transform="translate(37.216 36.285)">
    <path id="Path_4116" data-name="Path 4116" d="M406.412,286.784s9.021,21.8,12.935,21.8c2.848,0,9.828-20.125,9.828-20.125l-4.411-2.087-4.919,8.428-4.98-15.72" transform="translate(-406.412 -270.716)" fill="#ffbe9d"/>
    <path id="Path_4117" data-name="Path 4117" d="M418.46,289.031s1.462-2.3,1.355-3.935c-.041-.624-.411-3.587-.1-4.17a17.436,17.436,0,0,1,1.475-2.861c.424-.37,1.99-.966,2.373-.7s.86-.953,1.5-.847a1.347,1.347,0,0,1,1.166,1.218c0,.583.847.689.953,1.113a6.014,6.014,0,0,0,.212,1.113c.16.318.628.161.795.953.154.725-.054.795,0,1.165s.371.337.265,1.043a8.867,8.867,0,0,1-1.014,2.417,6.979,6.979,0,0,1-2.46,2.492,4.694,4.694,0,0,0-1.435,1.982" transform="translate(-400.984 -271.875)" fill="#ffbe9d"/>
    <path id="Path_4118" data-name="Path 4118" d="M420.451,273.624a.539.539,0,0,0-.779-.21.7.7,0,0,0-.173.866c.078.176,2.668,6.034,2.668,6.034s.216.248.628-.115c.448-.395.3-.592.3-.592S420.563,273.8,420.451,273.624Z" transform="translate(-400.551 -273.314)" fill="#1b227a"/>
    <g id="Group_730" data-name="Group 730" transform="translate(20.263 5.82)">
      <path id="Path_4119" data-name="Path 4119" d="M422.828,277.413a6.2,6.2,0,0,1-1.626,1.7c-.415.39-.364.641-.821,1.043.8-.061.664-.534,1.7-1.284a2.2,2.2,0,0,0,1.075-1.316.182.182,0,0,0-.332-.139Z" transform="translate(-420.381 -277.326)" fill="#f2a181"/>
    </g>
  </g>
  <path id="Path_4120" data-name="Path 4120" d="M400.692,271.013c2.349.122,9.189-1.078,12.99,2.9,3.184,3.331,5.007,12.063,6.29,15.6-3.19,3.251-6.262,5.873-11.1,4.817-.183-.135-2.581-7.682-4.327-8.354" transform="translate(-371.773 -238.102)" fill="#e8505b"/>
  <path id="Path_4121" data-name="Path 4121" d="M406.443,347.157c-.888-5.736-6.381-23.52-6.615-24.008a21.446,21.446,0,0,1-5.96-6.647c-.676,3.9,1.1,7.752,2.766,11.341,2.911,6.268,4.636,13.084,7.141,19.525" transform="translate(-374.914 -217.57)" fill="#170d54"/>
</svg>
