<svg xmlns="http://www.w3.org/2000/svg" width="19.715" height="19.715" viewBox="0 0 19.715 19.715">
  <g id="Group_822" data-name="Group 822" transform="translate(-593.388 -90.848)">
    <circle id="Ellipse_333" data-name="Ellipse 333" cx="9.857" cy="9.857" r="9.857" transform="translate(593.387 90.848)" fill="#568bff"/>
    <g id="Group_821" data-name="Group 821" transform="translate(599.714 93.483)">
      <path id="Path_4259" data-name="Path 4259" d="M608.667,97.339a2.9,2.9,0,1,1-2.9-2.9A2.9,2.9,0,0,1,608.667,97.339Z" transform="translate(-602.237 -94.439)" fill="#fff"/>
      <path id="Path_4260" data-name="Path 4260" d="M607.586,111.148h-4.094a1.483,1.483,0,0,1-1.483-1.483v-3.182a3.53,3.53,0,0,1,3.531-3.53h0a3.53,3.53,0,0,1,3.53,3.53v3.182A1.483,1.483,0,0,1,607.586,111.148Z" transform="translate(-602.008 -96.704)" fill="#fff"/>
    </g>
  </g>
</svg>
