<svg id="Group_691" data-name="Group 691" xmlns="http://www.w3.org/2000/svg" width="165.945" height="90.024" viewBox="0 0 165.945 90.024">
  <path id="Path_4008" data-name="Path 4008" d="M299.592,310.873c57.073-2.6,114.7,24.32,149.323,69.764" transform="translate(-283.39 -290.932)" fill="none" stroke="#c3ecfe" stroke-miterlimit="10" stroke-width="1.056"/>
  <g id="Group_690" data-name="Group 690" transform="translate(0 0)">
    <path id="Path_4009" data-name="Path 4009" d="M316.67,311.663a33.693,33.693,0,0,0-23.4-1.545c-1.876.566-3.883,1.469-4.635,3.278a2.191,2.191,0,0,0-.115,1.572,2.812,2.812,0,0,0,2.034,1.456c4.42,1.25,9.153.133,13.489-1.385s7.784-2.082,12.626-3.377" transform="translate(-288.422 -291.827)" fill="#c3ecfe"/>
    <path id="Path_4010" data-name="Path 4010" d="M326.833,311.735a33.687,33.687,0,0,0-22.094,7.861c-1.5,1.263-2.982,2.89-2.953,4.848a2.2,2.2,0,0,0,.518,1.49,2.811,2.811,0,0,0,2.444.529c4.553-.6,8.455-3.507,11.834-6.622s6.319-5,10.251-8.106" transform="translate(-282.401 -290.468)" fill="#c3ecfe"/>
    <path id="Path_4011" data-name="Path 4011" d="M341.593,314.3a33.69,33.69,0,0,0-22.889,5.1c-1.639,1.071-3.313,2.5-3.525,4.45a2.2,2.2,0,0,0,.332,1.542,2.811,2.811,0,0,0,2.362.824c4.594-.044,8.821-2.447,12.553-5.125s6.884-4.188,11.166-6.793" transform="translate(-276.374 -289.455)" fill="#c3ecfe"/>
    <path id="Path_4012" data-name="Path 4012" d="M355.158,318.536a33.676,33.676,0,0,0-22.889,5.1c-1.639,1.07-3.313,2.5-3.525,4.449a2.2,2.2,0,0,0,.332,1.542,2.814,2.814,0,0,0,2.362.825c4.594-.045,8.821-2.449,12.555-5.126s6.883-4.186,11.165-6.792" transform="translate(-270.262 -287.545)" fill="#c3ecfe"/>
    <path id="Path_4013" data-name="Path 4013" d="M372.552,326.641a33.693,33.693,0,0,0-23.295,2.7c-1.741.9-3.554,2.147-3.966,4.062a2.2,2.2,0,0,0,.171,1.568,2.808,2.808,0,0,0,2.263,1.065c4.574.432,9.027-1.52,13.017-3.8s7.28-3.451,11.809-5.6" transform="translate(-262.829 -284.186)" fill="#c3ecfe"/>
    <path id="Path_4014" data-name="Path 4014" d="M384.473,333.71a35.969,35.969,0,0,0-22.835,1.1c-1.826.7-3.783,1.71-4.51,3.387a1.822,1.822,0,0,0-.107,1.4c.294.689,1.175.953,1.99,1.073,4.315.64,8.93-.847,13.155-2.647s7.586-2.662,12.307-4.317" transform="translate(-257.558 -281.179)" fill="#c3ecfe"/>
    <path id="Path_4015" data-name="Path 4015" d="M330.951,319.16a36.5,36.5,0,0,0-14.69-19.69c-1.725-1.149-3.809-2.195-5.756-1.671a2.16,2.16,0,0,0-1.327.886,2.8,2.8,0,0,0,.226,2.533c2.013,4.315,6.12,7.41,10.276,9.935s6.948,4.936,11.271,8.007" transform="translate(-279.172 -296.807)" fill="#c3ecfe"/>
    <path id="Path_4016" data-name="Path 4016" d="M340.356,322.7a36.506,36.506,0,0,0-9.565-22.629c-1.4-1.526-3.175-3.039-5.19-3a2.155,2.155,0,0,0-1.5.544,2.8,2.8,0,0,0-.384,2.514c.925,4.671,4.175,8.656,7.608,12.1s5.569,6.452,9.033,10.466" transform="translate(-272.573 -297.072)" fill="#c3ecfe"/>
    <path id="Path_4017" data-name="Path 4017" d="M352.658,328.116a36.5,36.5,0,0,0-4.845-24.084c-1.066-1.775-2.5-3.613-4.487-3.973a2.144,2.144,0,0,0-1.578.232,2.788,2.788,0,0,0-.879,2.386c-.029,4.762,2.359,9.317,5.032,13.377s4.166,7.436,6.757,12.062" transform="translate(-264.791 -295.75)" fill="#c3ecfe"/>
    <path id="Path_4018" data-name="Path 4018" d="M371.44,334.854a36.5,36.5,0,0,0-10.065-22.41c-1.435-1.494-3.242-2.968-5.257-2.879a2.162,2.162,0,0,0-1.488.576,2.8,2.8,0,0,0-.328,2.523c1.028,4.649,4.366,8.561,7.875,11.928s5.711,6.327,9.263,10.263" transform="translate(-258.802 -291.445)" fill="#c3ecfe"/>
    <path id="Path_4019" data-name="Path 4019" d="M379.125,343.623a36.5,36.5,0,0,0,1.1-24.541c-.608-1.982-1.558-4.111-3.4-4.939a2.15,2.15,0,0,0-1.587-.154,2.791,2.791,0,0,0-1.429,2.1c-1.175,4.616.044,9.611,1.661,14.2s2.251,8.22,3.653,13.334" transform="translate(-250.159 -289.491)" fill="#c3ecfe"/>
  </g>
</svg>
