<svg id="Group_549" data-name="Group 549" xmlns="http://www.w3.org/2000/svg" width="80.622" height="229.835" viewBox="0 0 80.622 229.835">
  <ellipse id="Ellipse_327" data-name="Ellipse 327" cx="38.52" cy="5.064" rx="38.52" ry="5.064" transform="translate(3.581 216.192)" fill="#bdeeff" opacity="0.35"/>
  <path id="Path_2336" data-name="Path 2336" d="M487.335,182.973s-9.57,2.809-8.985,15.818S487.335,182.973,487.335,182.973Z" transform="translate(-449.824 -144.947)" fill="#eea886"/>
  <g id="Group_543" data-name="Group 543" transform="translate(17.537 38.026)">
    <path id="Path_2337" data-name="Path 2337" d="M497.846,182.973s-.739,1,.185,7.476-.827,9.18-1.035,11.873-3.368,20.091-3.454,20.86-.51,10.029-1.742,12.486-10.289,16.383-10.411,17.077-4.4-2.425-4.4-2.425,8.133-16.92,8.659-18.588c.655-2.071,2.658-7.2,2.78-9.887.3-6.564-.294-21.806-.064-25.126C488.8,190.5,493.7,183.961,497.846,182.973Z" transform="translate(-476.991 -182.973)" fill="#eea886"/>
  </g>
  <g id="Group_546" data-name="Group 546" transform="translate(14.507 93.571)">
    <g id="Group_545" data-name="Group 545" transform="translate(0)">
      <g id="Group_544" data-name="Group 544" transform="translate(0)">
        <path id="Path_2338" data-name="Path 2338" d="M496.491,238.518s-1.425,3.13-2.267,3.325-1.845,1.237-2.567,1.557-2.991.5-3.6,1.087a22.712,22.712,0,0,1-1.764,2.769c-.56.438-1.8,1.189-1.416,1.66s1.671.1,1.671.1a.919.919,0,0,0-.278.949c.4,1.012,1.083,1.057,1.083,1.057s-.218.759.057,1.136a1.828,1.828,0,0,0,1.263.856,1.739,1.739,0,0,0,.583,1.044,1.549,1.549,0,0,0,1.508.253s.674.931,1.3.75a5.551,5.551,0,0,0,1.429-.917,21.247,21.247,0,0,0,4.7-7.191,25.63,25.63,0,0,1,3.139-6.062Z" transform="translate(-484.803 -238.518)" fill="#eea987"/>
      </g>
    </g>
  </g>
  <rect id="Rectangle_236" data-name="Rectangle 236" width="26.962" height="44.994" transform="matrix(-0.63, 0.777, -0.777, -0.63, 51.929, 96.732)" fill="#214361"/>
  <g id="Group_548" data-name="Group 548" transform="translate(15.88 100.703)">
    <g id="Group_547" data-name="Group 547" transform="translate(0)">
      <path id="Path_2339" data-name="Path 2339" d="M491.205,248.6s2.709-3.009,4.058-2.952.43,1.2.43,1.2.892-1.143,1.851-.538-.185,1.883-.185,1.883a1.116,1.116,0,0,1,1.612.265c.71.952-.474,1.8-.474,1.8s1.788-.264,1.4,1.2a6.4,6.4,0,0,1-3.307,3.667s-.743.207-1.364-.757a1.56,1.56,0,0,1-2.129-1.3s-1.954-.45-1.333-2.01A1.4,1.4,0,0,1,491.205,248.6Z" transform="translate(-490.661 -245.649)" fill="#db9c7c"/>
    </g>
  </g>
  <path id="Path_2340" data-name="Path 2340" d="M455.828,144.968s13.84-1.152,13.461,13.407-2.686,16.748.009,27.035-13.494-5.843-13.494-5.843Z" transform="translate(-409.569 -144.947)" fill="#fccca2"/>
  <path id="Path_2341" data-name="Path 2341" d="M467.711,234.928s5.1,6.494,6.894,10.793,4.8,13.714,4.4,21.007-2.8,20.985-2.1,24.082,1.4,9.495,2.147,11.692,3.747,8.593,4.049,15.188-4.2,35.574-4,38.271-5.1,1.1-5.1,1.1-1.8-26.179-2.8-30.676-2.2-19.784-3.1-20.884-3.358-12.49-2.976-14.289-9.813-28.779-10.412-34.175-15.629-22.108-15.629-22.108A46.708,46.708,0,0,1,467.711,234.928Z" transform="translate(-406.373 -144.947)" fill="#eea987"/>
  <path id="Path_2342" data-name="Path 2342" d="M472.56,234.928a30.371,30.371,0,0,1-.56,3.721c-.3,1-7.2,26.482-7.894,36.275a193.583,193.583,0,0,1-2.8,20.189,43.348,43.348,0,0,0,.9,10.887c.6,1.8-3,44.266-3.3,45.266s2.4,1.3,4.3,1S474.7,321.088,474.1,315.893s-1.2-16.276.5-20.78,16.987-37.078,17.087-39.076S498.3,219.615,472.56,234.928Z" transform="translate(-435.543 -144.947)" fill="#eea987"/>
  <path id="Path_2343" data-name="Path 2343" d="M446,353.875a21.39,21.39,0,0,1-1.031,4.391c-.539.941-2.015,5.734-2.689,6.631s-2.151,7.615,0,8.421,7.215,2.151,8.916-.537a11.057,11.057,0,0,0,1.658-7.437c-.27-2.061-2.313-11.52-2.285-12.455S446,353.875,446,353.875Z" transform="translate(-378.271 -144.947)" fill="#eea987"/>
  <path id="Path_2344" data-name="Path 2344" d="M443.6,363.034s-.23,5.222,3.712,5.222,5.691-4.752,5.691-4.752,1.342,2.333,0,7.306-6.946,3.942-8.2,3.762S437.605,372.82,443.6,363.034Z" transform="translate(-378.735 -144.947)" fill="#fff"/>
  <path id="Path_2345" data-name="Path 2345" d="M502.214,349.185s-2.787,4.985-4.441,5.995c-2.063,1.26-6.065,5.3-7.463,5.483s-6.425,1.077-5.454,3.915c.8,2.324,12.783,1.992,14.135.827s5.395-5.348,7.027-5.256,1.024,6.034,1.024,6.034h1.772s.62-5.78.694-6.773c.221-2.94-1.877-5.105-1.97-6.781s-.188-2.931-.188-2.931Z" transform="translate(-478.422 -144.947)" fill="#fff"/>
  <path id="Path_2346" data-name="Path 2346" d="M485.613,360.526s3.953,1.366,6.993-.381,8.878-4.4,10.942-4.422c0,0-1.123-3.443-1.148-3.828s-.146-2.2-.146-2.2l-5.1-.817s-3.309,4.857-4.767,6A82.652,82.652,0,0,0,485.613,360.526Z" transform="translate(-473.326 -144.947)" fill="#eea987"/>
  <path id="Path_2347" data-name="Path 2347" d="M448.568,234.479s-1.422,5.919-1.947,7.644-3.893,28.465-4.721,45.192c0,0,20.159,7.642,47.888,6.369,0,0,.674-30.727-1.872-39.42s-7.163-16.829-10.644-19.336C474.175,232.695,448.568,234.479,448.568,234.479Z" transform="translate(-415.934 -144.947)" fill="#5779d4"/>
  <path id="Path_2348" data-name="Path 2348" d="M449.227,199.473c.225,3.523,1.667,5.777,1.967,7.05s0,4.2.374,7.122,1.5,16.861,1.123,20.834,27.265,2.177,29.361.978c0,0-4.654-8.323-4.779-11.772-.042-1.183-.75-4.87,1.2-7.568,1.028-1.424,2.937-5.957,4.841-9.271h0c.738-1.286,1.511-2.567,2.051-3.521h0a13.272,13.272,0,0,0,1.1-2.721s1.23-15.289-2.141-17.012a17.171,17.171,0,0,0-8.47-2.174,23.991,23.991,0,0,1-5.472-.824l-7.717.824a17.258,17.258,0,0,1-4.673,1.427c-1.948.149-4.329,4.382-5.508,7.448C451.507,192.82,449,195.95,449.227,199.473Z" transform="translate(-420.057 -144.947)" fill="#e8e8e8"/>
  <path id="Path_2349" data-name="Path 2349" d="M442.64,182s6.109.507,8.408,6.122,2.1,11.316,2.6,13.389,1.227,14.087,1.75,15.863a100.211,100.211,0,0,1,2.724,16.661c.4,6.655-.59,20.69-.59,20.69l-3.385-1.645s-3.015-20.81-4.32-25.211c-1.117-3.761-1.117-10.161-1.745-12.471s-4.463-16.216-5.08-17.625C442.052,195.609,437.39,181.926,442.64,182Z" transform="translate(-382.569 -144.947)" fill="#eea886"/>
  <path id="Path_2350" data-name="Path 2350" d="M472.677,146.442a11.763,11.763,0,0,0-13.5,9.3,28.653,28.653,0,0,0,.374,4.5c.375,2-2.012,7.516-1.592,7.849a12.629,12.629,0,0,0,2.251.907s1.3,6.467,3.495,6.664,10.679-.566,15.469-7.879S486.529,148.709,472.677,146.442Z" transform="translate(-425.065 -144.947)" fill="#eea886"/>
  <path id="Path_2351" data-name="Path 2351" d="M462.855,173.161s.168.9.326,2.237c.08.682.158,1.473.208,2.311.136,2.322.067,5.008-.725,6.712,0,0,4.3,2.618,8.91-3.786,0,0-.455-7.947,2.191-12.172S462.855,173.161,462.855,173.161Z" transform="translate(-420.936 -144.947)" fill="#eea886"/>
  <path id="Path_2352" data-name="Path 2352" d="M457.021,155.747s5.166,4.458,10.633,5.864,8.364,7.549,8.364,7.549,9.675-9.65,3.836-19.015S457.032,144.955,457.021,155.747Z" transform="translate(-422.913 -144.947)" fill="#fccca2"/>
  <path id="Path_2353" data-name="Path 2353" d="M465.9,175.4c.08.682.158,1.473.208,2.311a24.159,24.159,0,0,0,7.481-5.547C470.756,174.191,465.9,175.4,465.9,175.4Z" transform="translate(-423.656 -144.947)" fill="#a77860"/>
  <path id="Path_2354" data-name="Path 2354" d="M456.932,161.932s5.6,15.042,4.924,18.662c0,0,2.962-.51,8.233,1.1C470.089,181.695,467.541,154.861,456.932,161.932Z" transform="translate(-411.186 -144.947)" fill="#fccca2"/>
  <path id="Path_2355" data-name="Path 2355" d="M475.485,181.079s-1.842,11.28-8.662,10.007-1.647-9.54-1.647-9.54S468.205,179.008,475.485,181.079Z" transform="translate(-422.947 -144.947)" fill="#eea886"/>
  <path id="Path_2356" data-name="Path 2356" d="M442.921,252.506a29.682,29.682,0,0,1-1.379,3.583c-.41.878-1.025,6.787-1.048,7.556-.019.644.435.3.685-.11.143-.234.684-2.252,1.146-3.312.387-.89.687-1.211.826-.9a20.035,20.035,0,0,1-.326,5.737c-.471,1.6-.388,5.375.508,4.9s3.408-7.1,3.433-9.668a50.307,50.307,0,0,0-.37-5.664Z" transform="translate(-371.425 -144.947)" fill="#eea886"/>
</svg>
