<svg xmlns="http://www.w3.org/2000/svg" width="32.399" height="32.399" viewBox="0 0 32.399 32.399">
  <g id="Group_820" data-name="Group 820" transform="translate(-626.95 -154.572)">
    <g id="Group_819" data-name="Group 819" transform="translate(626.95 154.572)">
      <circle id="Ellipse_332" data-name="Ellipse 332" cx="11.477" cy="11.477" r="11.477" transform="matrix(0.662, -0.749, 0.749, 0.662, 0, 17.197)" fill="#568bff"/>
      <path id="Path_4258" data-name="Path 4258" d="M642.422,161.31c1.365.33.285,3.483-.68,4l3.249.02a1.257,1.257,0,0,1,1.219,1.516l-.8,3.8a2.676,2.676,0,0,1-2.639,2.12l-4.573-.037.057-7.173C640.658,164.967,641.074,160.984,642.422,161.31Zm-5.244,10.51v-5.3a.938.938,0,0,0-.938-.938h-1.2a.937.937,0,0,0-.938.938v5.3a.938.938,0,0,0,.938.938h1.2A.939.939,0,0,0,637.178,171.819Z" transform="translate(-623.969 -151.77)" fill="#fff"/>
    </g>
  </g>
</svg>
