<svg xmlns="http://www.w3.org/2000/svg" xmlns:xlink="http://www.w3.org/1999/xlink" width="565.059" height="309.544" viewBox="0 0 565.059 309.544">
  <defs>
    <clipPath id="clip-path">
      <path id="Path_4372" data-name="Path 4372" d="M211.448,139.7s-4.788,1.232-4.243,5.119,5.324,5.041,7.668,4.665,5.257-3.707,4.193-6.637A5.781,5.781,0,0,0,211.448,139.7Z" transform="translate(-207.161 -139.209)" fill="none"/>
    </clipPath>
    <linearGradient id="linear-gradient" x1="445.07" y1="-2048.87" x2="446.007" y2="-2048.87" gradientUnits="objectBoundingBox">
      <stop offset="0.13" stop-color="#8ea644"/>
      <stop offset="1" stop-color="#b0c851"/>
    </linearGradient>
    <clipPath id="clip-path-2">
      <path id="Path_4377" data-name="Path 4377" d="M215.016,140.624s-4.184,1.076-3.707,4.472,4.652,4.4,6.7,4.076,4.594-3.239,3.663-5.8A5.05,5.05,0,0,0,215.016,140.624Z" transform="translate(-211.271 -140.193)" fill="none"/>
    </clipPath>
    <linearGradient id="linear-gradient-2" x1="509.082" y1="-2343.672" x2="510.02" y2="-2343.672" xlink:href="#linear-gradient"/>
    <clipPath id="clip-path-3">
      <path id="Path_4382" data-name="Path 4382" d="M199.949,142.33s-3.236.832-2.867,3.458,3.6,3.406,5.18,3.153,3.554-2.505,2.835-4.486A3.906,3.906,0,0,0,199.949,142.33Z" transform="translate(-197.052 -141.996)" fill="none"/>
    </clipPath>
    <linearGradient id="linear-gradient-3" x1="658.927" y1="-3037.009" x2="659.865" y2="-3037.009" xlink:href="#linear-gradient"/>
    <linearGradient id="linear-gradient-4" x1="0.233" y1="0.26" x2="1.756" y2="1.598" gradientUnits="objectBoundingBox">
      <stop offset="0" stop-color="#fff"/>
      <stop offset="1" stop-color="#eee8e7" stop-opacity="0"/>
    </linearGradient>
    <linearGradient id="linear-gradient-5" x1="0.175" y1="0.085" x2="0.953" y2="1.087" xlink:href="#linear-gradient-4"/>
    <linearGradient id="linear-gradient-6" x1="0.361" y1="0.34" x2="1.145" y2="1.241" xlink:href="#linear-gradient-4"/>
    <clipPath id="clip-path-4">
      <path id="Path_4618" data-name="Path 4618" d="M205.632,142.1s-3.115,2.991-1.033,5.716,6.214,1.551,7.836.26,2.412-5.077.343-6.851A5.05,5.05,0,0,0,205.632,142.1Z" transform="translate(-203.882 -140.125)" fill="none"/>
    </clipPath>
    <linearGradient id="linear-gradient-7" x1="1167.045" y1="-2397.336" x2="1168.169" y2="-2397.336" xlink:href="#linear-gradient"/>
    <clipPath id="clip-path-5">
      <path id="Path_4623" data-name="Path 4623" d="M195.338,140.4s-4.575,1.177-4.054,4.892,5.086,4.815,7.325,4.456,5.024-3.541,4.005-6.341A5.521,5.521,0,0,0,195.338,140.4Z" transform="translate(-191.243 -139.929)" fill="none"/>
    </clipPath>
    <linearGradient id="linear-gradient-8" x1="466.594" y1="-2149.583" x2="467.532" y2="-2149.583" xlink:href="#linear-gradient"/>
    <linearGradient id="linear-gradient-9" x1="187.526" y1="-39.348" x2="187.778" y2="-41.919" gradientUnits="objectBoundingBox">
      <stop offset="0.071" stop-color="#dadfbd"/>
      <stop offset="1" stop-color="#637252"/>
    </linearGradient>
  </defs>
  <g id="Group_1282" data-name="Group 1282" transform="translate(10395 9600.885)">
    <path id="Path_4362" data-name="Path 4362" d="M186.419,46.575l38.108,157.888H179.3Z" transform="translate(-10451.313 -9620.515)" fill="#1f1535" opacity="0.13"/>
    <g id="Group_848" data-name="Group 848" transform="translate(-10211.281 -9459.104)">
      <g id="Group_846" data-name="Group 846" transform="translate(3.128 3.128)" opacity="0.15">
        <path id="Path_4363" data-name="Path 4363" d="M220.116,133.793c-.136.406,0,29.7,0,29.7h24V134.335l-7.73-.542a8.579,8.579,0,0,1-2.034-6.374c.406-3.8.481-5.559-2.269-5.559s-1.8,4.746-1.529,5.967,1.357,5.017-2.034,6.1Z" transform="translate(-220.055 -121.859)"/>
      </g>
      <g id="Group_847" data-name="Group 847">
        <path id="Path_4364" data-name="Path 4364" d="M218.12,131.8c-.136.407,0,29.7,0,29.7h24V132.339l-7.73-.542a8.577,8.577,0,0,1-2.034-6.373c.406-3.8.483-5.561-2.267-5.561s-1.8,4.746-1.529,5.967,1.355,5.017-2.035,6.1Z" transform="translate(-218.059 -119.863)" fill="#877358"/>
      </g>
    </g>
    <path id="Path_4365" data-name="Path 4365" d="M294.35,130.417l-3.243-7.619,1.881-1.458,3.207,7.723Z" transform="translate(-10387.929 -9578.129)" fill="#24182c"/>
    <path id="Path_4366" data-name="Path 4366" d="M295.777,137.893l3.157,16.064c7.82,2.028,14.083,1.7,22.413-.2l3.847-15.862A46.042,46.042,0,0,0,295.777,137.893Z" transform="translate(-10385.281 -9570.113)" fill="#bbbbbc"/>
    <path id="Path_4367" data-name="Path 4367" d="M295.777,137.936s11.208,7.587,29.417,0C325.194,137.936,310.815,132.238,295.777,137.936Z" transform="translate(-10385.281 -9570.156)" fill="#42424c"/>
    <path id="Path_4368" data-name="Path 4368" d="M299.1,149.19a5.867,5.867,0,0,1-2.6-1.305c-.523-.526-.5-1.612.2-1.855a1.679,1.679,0,0,1,1.167.183l5.588,2.344a31.171,31.171,0,0,1-1.52-4.166c-.15-.523-.191-1.254.32-1.445.426-.16.848.221,1.144.566l4.251,4.945a23.4,23.4,0,0,0,.968-2.567c.409-.82,1.529-1.456,2.22-.852s.266,1.717.434,2.614a2.632,2.632,0,0,0,1.951,1.869,5.25,5.25,0,0,0,4.293-.877c1.249-.848,1.62-4.171,3.015-3.858,1.007-.564.279,1.918.392,2.593,1.161-.978,2.772-4.195,3.485-2.932.317,2.139-1.286,4.2-3.253,5.1a14.1,14.1,0,0,1-6.376.823c-5.237-.179-10.456-.677-15.674-1.177" transform="translate(-10385.081 -9565.902)" fill="#cc8c46"/>
    <g id="Group_853" data-name="Group 853" transform="translate(-10228.357 -9430.453)">
      <g id="Group_852" data-name="Group 852" transform="translate(0 1.663)">
        <g id="Group_851" data-name="Group 851" clip-path="url(#clip-path)">
          <path id="Path_4369" data-name="Path 4369" d="M211.448,139.7s-4.788,1.232-4.243,5.119,5.324,5.041,7.668,4.665,5.257-3.707,4.193-6.637A5.781,5.781,0,0,0,211.448,139.7Z" transform="translate(-207.161 -139.209)" fill="#b74e39"/>
          <g id="Group_849" data-name="Group 849" transform="translate(-2.878 4.327)" opacity="0.1">
            <path id="Path_4370" data-name="Path 4370" d="M223.843,141.981c.323.063.6.456.641,1.192a4.066,4.066,0,0,1-.175,1.307,6.1,6.1,0,0,1-.738,1.572,9.328,9.328,0,0,1-3.217,2.94,11.647,11.647,0,0,1-5.06,1.536l-.367.024c-.122,0-.246,0-.368,0-.244-.008-.486-.009-.727-.027a10.824,10.824,0,0,1-1.409-.223l-.337-.078c-.056-.014-.113-.027-.168-.044l-.163-.052c-.218-.069-.431-.141-.641-.213s-.406-.169-.6-.254a5.844,5.844,0,0,1-.572-.277,10.2,10.2,0,0,1-3.251-2.717,7.048,7.048,0,0,1-1.279-2.43c-.157-.657-.1-1.1.172-1.307.552-.423,1.75.268,3.389,1.138a16.78,16.78,0,0,0,2.775,1.188,3.661,3.661,0,0,0,.384.1c.13.031.257.075.389.1s.265.049.4.075l.1.022.1.013c.067.008.136.016.2.025.27.047.547.045.824.074.139,0,.282,0,.425,0,.072,0,.141,0,.215,0l.218-.019c.144-.013.288-.011.434-.031s.288-.041.434-.058.293-.044.439-.069.295-.06.442-.092a15.537,15.537,0,0,0,1.667-.472,13.315,13.315,0,0,0,2.62-1.221,17.281,17.281,0,0,0,1.669-1.2C223.143,142.16,223.506,141.915,223.843,141.981Z" transform="translate(-205.325 -141.97)" fill="#454d73"/>
          </g>
          <g id="Group_850" data-name="Group 850" transform="translate(0.418 1.554)" opacity="0.2">
            <path id="Path_4371" data-name="Path 4371" d="M210.612,140.538c-.013.174-.285.288-.575.5a4.006,4.006,0,0,0-.957,1c-.332.47-.6.962-.819,1.321s-.4.6-.572.572-.284-.331-.255-.818a3.563,3.563,0,0,1,.65-1.782,3,3,0,0,1,.8-.782,2.053,2.053,0,0,1,.9-.331,1.211,1.211,0,0,1,.636.088C210.554,140.369,210.618,140.455,210.612,140.538Z" transform="translate(-207.428 -140.201)" fill="#f9f3eb"/>
          </g>
        </g>
      </g>
      <path id="Path_4373" data-name="Path 4373" d="M211.557,141.059c-.462-.027-.666-.243-1.119-.327-.26-.045-.888-.161-.979-.5-.2-.749,1.65.058,1.932.111-.1-.259-1.97-1.066-1.255-1.644.379-.306,1.7.865,1.943,1.174a5.064,5.064,0,0,1-.075-.837c.028-.213.219-.909.536-.893.583.03.248,1.465.3,1.752a1.676,1.676,0,0,1,1.17-.733c.812.013.3.614-.05.859-.506.353-1.742,1.517-2.38,1" transform="translate(-205.868 -138.148)" fill="url(#linear-gradient)"/>
    </g>
    <g id="Group_858" data-name="Group 858" transform="translate(-10221.918 -9428.701)">
      <g id="Group_857" data-name="Group 857" transform="translate(0 1.453)">
        <g id="Group_856" data-name="Group 856" clip-path="url(#clip-path-2)">
          <path id="Path_4374" data-name="Path 4374" d="M215.016,140.624s-4.184,1.076-3.707,4.472,4.652,4.4,6.7,4.076,4.594-3.239,3.663-5.8A5.05,5.05,0,0,0,215.016,140.624Z" transform="translate(-211.271 -140.193)" fill="#9a4934"/>
          <g id="Group_854" data-name="Group 854" transform="translate(-2.514 3.78)" opacity="0.1">
            <path id="Path_4375" data-name="Path 4375" d="M225.843,142.614c.284.055.525.4.563,1.042a3.584,3.584,0,0,1-.154,1.141,5.288,5.288,0,0,1-.646,1.374,8.135,8.135,0,0,1-2.809,2.568,10.185,10.185,0,0,1-4.422,1.341l-.32.022c-.107,0-.215,0-.321,0-.213-.006-.426-.008-.636-.023a9.493,9.493,0,0,1-1.23-.193c-.1-.024-.2-.047-.295-.069-.049-.013-.1-.024-.146-.038l-.143-.045c-.19-.061-.378-.124-.559-.186s-.356-.147-.528-.223a4.921,4.921,0,0,1-.5-.243,8.867,8.867,0,0,1-2.839-2.374,6.145,6.145,0,0,1-1.117-2.122c-.138-.573-.083-.965.15-1.142.483-.37,1.529.233,2.961.995a14.727,14.727,0,0,0,2.424,1.037c.11.039.223.064.335.092s.224.064.338.086.232.042.348.066l.086.019c.03,0,.06.006.088.011.06.006.119.014.177.022.235.042.478.039.721.064.122,0,.246,0,.37,0,.063,0,.124,0,.186,0s.127-.009.191-.016c.127-.013.252-.009.379-.027s.252-.038.379-.052.257-.038.385-.061.257-.052.384-.078a13.457,13.457,0,0,0,1.456-.414,11.685,11.685,0,0,0,2.289-1.066,14.938,14.938,0,0,0,1.459-1.051C225.232,142.771,225.55,142.558,225.843,142.614Z" transform="translate(-209.666 -142.605)" fill="#454d73"/>
          </g>
          <g id="Group_855" data-name="Group 855" transform="translate(0.365 1.358)" opacity="0.2">
            <path id="Path_4376" data-name="Path 4376" d="M214.287,141.355c-.014.15-.251.251-.5.432a3.476,3.476,0,0,0-.835.868c-.29.41-.522.841-.716,1.153s-.353.523-.5.5-.249-.288-.224-.715a3.111,3.111,0,0,1,.569-1.557,2.605,2.605,0,0,1,.7-.683,1.79,1.79,0,0,1,.782-.288,1.048,1.048,0,0,1,.556.077C214.235,141.206,214.29,141.281,214.287,141.355Z" transform="translate(-211.504 -141.06)" fill="#f9f3eb"/>
          </g>
        </g>
      </g>
      <path id="Path_4378" data-name="Path 4378" d="M215.11,141.811c-.4-.025-.58-.215-.976-.287-.227-.041-.777-.141-.856-.432-.177-.653,1.442.049,1.688.1-.086-.227-1.72-.931-1.1-1.437.329-.266,1.484.757,1.7,1.026a4.335,4.335,0,0,1-.067-.732c.025-.186.193-.794.47-.78.508.027.215,1.28.26,1.531a1.464,1.464,0,0,1,1.023-.641c.708.009.26.536-.044.751-.443.307-1.523,1.326-2.079.876" transform="translate(-210.141 -139.266)" fill="url(#linear-gradient-2)"/>
    </g>
    <g id="Group_863" data-name="Group 863" transform="translate(-10244.197 -9425.547)">
      <g id="Group_862" data-name="Group 862" transform="translate(0 1.124)">
        <g id="Group_861" data-name="Group 861" clip-path="url(#clip-path-3)">
          <path id="Path_4379" data-name="Path 4379" d="M199.949,142.33s-3.236.832-2.867,3.458,3.6,3.406,5.18,3.153,3.554-2.505,2.835-4.486A3.906,3.906,0,0,0,199.949,142.33Z" transform="translate(-197.052 -141.996)" fill="#9a4934"/>
          <g id="Group_859" data-name="Group 859" transform="translate(-1.944 2.923)" opacity="0.1">
            <path id="Path_4380" data-name="Path 4380" d="M208.322,143.869c.219.042.406.309.434.805a2.756,2.756,0,0,1-.118.882,4.116,4.116,0,0,1-.5,1.064,6.315,6.315,0,0,1-2.173,1.985,7.861,7.861,0,0,1-3.419,1.037c-.083.006-.166.013-.248.016s-.166,0-.249,0c-.165,0-.329-.006-.492-.019a7.177,7.177,0,0,1-.95-.149l-.229-.055c-.038-.008-.077-.017-.113-.028l-.111-.034c-.146-.047-.291-.1-.432-.144s-.274-.114-.407-.172a3.648,3.648,0,0,1-.385-.186,6.885,6.885,0,0,1-2.2-1.836,4.749,4.749,0,0,1-.865-1.642c-.105-.443-.064-.746.117-.882.373-.287,1.183.18,2.289.768a11.2,11.2,0,0,0,1.876.8,2.426,2.426,0,0,0,.259.072c.088.02.174.05.263.067s.179.033.268.052l.066.014.069.008c.045,0,.091.011.136.017.182.031.37.03.558.05l.287,0c.047,0,.1,0,.144,0l.147-.013c.1-.009.194-.008.293-.02s.2-.028.293-.041.2-.028.3-.047.2-.039.3-.061a10.684,10.684,0,0,0,1.127-.318,8.973,8.973,0,0,0,1.769-.826,11.69,11.69,0,0,0,1.13-.812C207.849,143.989,208.1,143.825,208.322,143.869Z" transform="translate(-195.812 -143.861)" fill="#454d73"/>
          </g>
          <g id="Group_860" data-name="Group 860" transform="translate(0.282 1.05)" opacity="0.2">
            <path id="Path_4381" data-name="Path 4381" d="M199.385,142.893c-.009.118-.194.2-.39.335a2.724,2.724,0,0,0-.646.672c-.224.317-.4.65-.553.893s-.274.4-.387.385-.193-.223-.174-.553a2.416,2.416,0,0,1,.44-1.2,2.011,2.011,0,0,1,.541-.528,1.373,1.373,0,0,1,.6-.223.805.805,0,0,1,.429.058C199.346,142.78,199.388,142.838,199.385,142.893Z" transform="translate(-197.232 -142.666)" fill="#f9f3eb"/>
          </g>
        </g>
      </g>
      <path id="Path_4383" data-name="Path 4383" d="M200.021,143.247c-.312-.019-.448-.165-.755-.221-.175-.033-.6-.11-.661-.335-.136-.506,1.114.038,1.305.075-.067-.175-1.332-.721-.848-1.111.255-.207,1.147.584,1.313.793a3.243,3.243,0,0,1-.052-.566c.019-.144.147-.614.362-.6.393.02.168.99.2,1.185a1.118,1.118,0,0,1,.79-.5c.548.006.2.414-.034.578-.342.24-1.177,1.026-1.608.678" transform="translate(-196.178 -141.279)" fill="url(#linear-gradient-3)"/>
    </g>
    <g id="Group_864" data-name="Group 864" transform="translate(-10046.95 -9600.885)">
      <rect id="Rectangle_328" data-name="Rectangle 328" width="196.012" height="140.119" transform="translate(3.446 3.851)" fill="#f3e1cf"/>
      <path id="Path_4384" data-name="Path 4384" d="M323.656,58.3l73.732,13.841V102.3h18.562V79.355h15.469v37.922h76.051V96.825h15.349v61.641H323.656Z" transform="translate(-322.526 -12.985)" fill="#e8c2a6"/>
      <path id="Path_4385" data-name="Path 4385" d="M322.935,103.931l65.31-73.041h34.837l-99.017,107.9Z" transform="translate(-322.935 -28.523)" opacity="0.6" fill="url(#linear-gradient-4)"/>
      <path id="Path_4386" data-name="Path 4386" d="M325.134,175.251l138.56-143.99,57.453.9-116.025,141.6Z" transform="translate(-321.688 -28.312)" opacity="0.6" fill="url(#linear-gradient-5)"/>
      <rect id="Rectangle_329" data-name="Rectangle 329" width="2.633" height="143.087" transform="translate(65.31 2.367)" fill="#72676a"/>
      <rect id="Rectangle_330" data-name="Rectangle 330" width="2.632" height="143.087" transform="translate(131.435 2.393)" fill="#72676a"/>
      <rect id="Rectangle_331" data-name="Rectangle 331" width="200.292" height="2.632" transform="translate(0 75.409)" fill="#72676a"/>
      <path id="Path_4387" data-name="Path 4387" d="M322.935,29.379V177.252H525.893V29.379Zm199.458,143.97H326.381V33.23H522.393Z" transform="translate(-322.934 -29.379)" fill="#72676a"/>
    </g>
    <path id="Path_4392" data-name="Path 4392" d="M264.224,146.479l107.687,1.634-.368,123.779L259.916,269.38Z" transform="translate(-10405.611 -9563.877)" fill="#616166"/>
    <path id="Path_4393" data-name="Path 4393" d="M269.233,168.721v58.2h84.8V166.714Z" transform="translate(-10400.329 -9552.406)" fill="#434349"/>
    <g id="Group_866" data-name="Group 866" transform="translate(-10145.557 -9310.981)">
      <path id="Path_4394" data-name="Path 4394" d="M260.634,215.7H371.385a.651.651,0,0,0,0-1.3H260.634a.651.651,0,0,0,0,1.3Z" transform="translate(-260.004 -214.394)" fill="#454c4b"/>
    </g>
    <g id="Group_867" data-name="Group 867" transform="translate(-10142.909 -9393.324)">
      <path id="Path_4395" data-name="Path 4395" d="M262.322,163.408l107.182-.263a.651.651,0,0,0,0-1.3q-53.591.132-107.182.262a.652.652,0,0,0,0,1.3Z" transform="translate(-261.694 -161.843)" fill="#454c4b"/>
    </g>
    <path id="Path_4396" data-name="Path 4396" d="M275.96,156.291a3.855,3.855,0,1,1-3.856-3.855A3.855,3.855,0,0,1,275.96,156.291Z" transform="translate(-10400.888 -9560.501)" fill="#434349"/>
    <path id="Path_4397" data-name="Path 4397" d="M284.815,156.291a3.855,3.855,0,1,1-3.855-3.855A3.855,3.855,0,0,1,284.815,156.291Z" transform="translate(-10395.867 -9560.501)" fill="#434349"/>
    <path id="Path_4398" data-name="Path 4398" d="M313.092,156.291a3.855,3.855,0,1,1-3.856-3.855A3.854,3.854,0,0,1,313.092,156.291Z" transform="translate(-10379.837 -9560.501)" fill="#434349"/>
    <path id="Path_4399" data-name="Path 4399" d="M322,156.291a3.855,3.855,0,1,1-3.856-3.855A3.855,3.855,0,0,1,322,156.291Z" transform="translate(-10374.785 -9560.501)" fill="#434349"/>
    <path id="Path_4400" data-name="Path 4400" d="M330.556,156.291a3.855,3.855,0,1,1-3.855-3.855A3.854,3.854,0,0,1,330.556,156.291Z" transform="translate(-10369.936 -9560.501)" fill="#434349"/>
    <g id="Group_868" data-name="Group 868" transform="translate(-10129.635 -9405.557)">
      <path id="Path_4401" data-name="Path 4401" d="M270.166,154.666v6.066a.651.651,0,0,0,1.3,0v-6.066a.651.651,0,0,0-1.3,0Z" transform="translate(-270.166 -154.036)" fill="#454c4b"/>
    </g>
    <g id="Group_869" data-name="Group 869" transform="translate(-10115.559 -9405.557)">
      <path id="Path_4402" data-name="Path 4402" d="M279.149,154.666v6.066a.651.651,0,0,0,1.3,0v-6.066a.651.651,0,0,0-1.3,0Z" transform="translate(-279.149 -154.036)" fill="#454c4b"/>
    </g>
    <g id="Group_870" data-name="Group 870" transform="translate(-10071.251 -9405.557)">
      <path id="Path_4403" data-name="Path 4403" d="M307.426,154.666v6.066a.651.651,0,0,0,1.3,0v-6.066a.651.651,0,0,0-1.3,0Z" transform="translate(-307.426 -154.036)" fill="#454c4b"/>
    </g>
    <g id="Group_871" data-name="Group 871" transform="translate(-10057.29 -9405.557)">
      <path id="Path_4404" data-name="Path 4404" d="M316.336,154.666v6.066a.652.652,0,0,0,1.3,0v-6.066a.652.652,0,0,0-1.3,0Z" transform="translate(-316.336 -154.036)" fill="#454c4b"/>
    </g>
    <g id="Group_872" data-name="Group 872" transform="translate(-10043.887 -9405.557)">
      <path id="Path_4405" data-name="Path 4405" d="M324.89,154.666v6.066a.652.652,0,0,0,1.3,0v-6.066a.652.652,0,0,0-1.3,0Z" transform="translate(-324.89 -154.036)" fill="#454c4b"/>
    </g>
    <g id="Group_873" data-name="Group 873" transform="translate(-10131.347 -9373.588)">
      <path id="Path_4406" data-name="Path 4406" d="M269.7,175.741h84.241a.651.651,0,0,0,0-1.3H269.7a.651.651,0,0,0,0,1.3Z" transform="translate(-269.073 -174.439)" fill="#616166"/>
    </g>
    <g id="Group_874" data-name="Group 874" transform="translate(-10132.165 -9367.044)">
      <path id="Path_4407" data-name="Path 4407" d="M269.181,179.917h83.968a.651.651,0,0,0,0-1.3H269.181a.651.651,0,0,0,0,1.3Z" transform="translate(-268.551 -178.615)" fill="#616166"/>
    </g>
    <path id="Path_4408" data-name="Path 4408" d="M265.867,162.479l-.89,6.666,96.81-1.151v-5.568Z" transform="translate(-10402.742 -9554.837)" fill="#93908d"/>
    <g id="Group_919" data-name="Group 919" transform="translate(-9991.567 -9443.961)">
      <g id="Group_917" data-name="Group 917" transform="translate(3.126 3.128)" opacity="0.15">
        <path id="Path_4510" data-name="Path 4510" d="M360.745,134.96v21.622l2.62,2.292h13.1l2.621-2.949V134.96l-2.292-1.639H362.71Z" transform="translate(-360.009 -130.504)"/>
        <path id="Path_4511" data-name="Path 4511" d="M376.835,149.151H364.724v-9.6l12.111-1.581Z" transform="translate(-357.753 -127.87)"/>
        <path id="Path_4512" data-name="Path 4512" d="M360.275,134.34h19.287v-2.067l-19.287-.751Z" transform="translate(-360.275 -131.523)"/>
      </g>
      <g id="Group_918" data-name="Group 918">
        <path id="Path_4513" data-name="Path 4513" d="M358.749,132.963v21.622l2.621,2.292h13.1l2.62-2.949V132.963l-2.292-1.637H360.715Z" transform="translate(-358.014 -128.507)" fill="#bcb2ac"/>
        <path id="Path_4514" data-name="Path 4514" d="M374.839,147.156H362.728v-9.605l12.111-1.58Z" transform="translate(-355.758 -125.874)" fill="#d4775f"/>
        <path id="Path_4515" data-name="Path 4515" d="M358.28,132.346h19.286v-2.068l-19.286-.751Z" transform="translate(-358.28 -129.527)" fill="#e4b264"/>
      </g>
    </g>
    <g id="Group_931" data-name="Group 931" transform="translate(-10231.353 -9571.738)">
      <rect id="Rectangle_338" data-name="Rectangle 338" width="47.342" height="70.461" transform="translate(0.549 0.549)" fill="#e1d4cb"/>
      <g id="Group_921" data-name="Group 921">
        <path id="Path_4519" data-name="Path 4519" d="M253.69,119.538H205.25V47.98h48.44Zm-47.343-1.1h46.244V49.077H206.347Z" transform="translate(-205.25 -47.98)" fill="#a1948c"/>
      </g>
      <rect id="Rectangle_339" data-name="Rectangle 339" width="37.891" height="61.721" transform="translate(5.316 4.895)" fill="#fdfdfd"/>
      <g id="Group_492" data-name="Group 492" transform="translate(13.02 17.573)">
        <g id="Group_491" data-name="Group 491">
          <g id="Group_490" data-name="Group 490">
            <path id="Path_2288" data-name="Path 2288" d="M543.608,141.1a7.072,7.072,0,0,1,7.2,4.556c1.906,5.11,3.7,6.782,3.925,9.467.909,10.856,5.979,8.4,4.553,14.658s-2.414,7.206-2.414,7.206l-12.12-2.377-12.28.039s4.8-2.4,3.735-7.508-3.735-13.484-2.23-19.189S540.446,141.541,543.608,141.1Z" transform="translate(-532.47 -141.086)" fill="#464240"/>
          </g>
        </g>
      </g>
      <path id="Intersection_14" data-name="Intersection 14" d="M33.845,21.712c-.941-2.271-1.927-4.446-1.927-4.446a21.872,21.872,0,0,1-.449,4.446H5.777A22.9,22.9,0,0,1,5.3,17.33S4.727,19.4,4.087,21.712H0V13.733A25.366,25.366,0,0,1,1.984,8.267c1.193-1.244,8.081-6.008,13-7.563S22.7.653,22.7.653s10.2,3.575,14.088,7.77a7.218,7.218,0,0,1,1.1,2.068V21.712Z" transform="translate(5.316 44.905)" fill="#eb4747" stroke="rgba(0,0,0,0)" stroke-width="1"/>
      <g id="Group_512" data-name="Group 512" transform="translate(18.988 45.036)">
        <g id="Group_511" data-name="Group 511">
          <path id="Path_2298" data-name="Path 2298" d="M551.607,178.432s-3.469,7.159-6.367,9.257c0,0-5.216-7.816-4.949-9.618C540.291,178.07,546.069,175.508,551.607,178.432Z" transform="translate(-540.281 -177.031)" fill="#eea886"/>
        </g>
      </g>
      <g id="Group_525" data-name="Group 525" transform="translate(16.507 20.522)">
        <g id="Group_524" data-name="Group 524">
          <g id="Group_523" data-name="Group 523">
            <path id="Path_2307" data-name="Path 2307" d="M545.382,145s7.008,1.012,5.982,11.355-7.21,9.524-7.624,9.515-6.2.215-6.705-12.407C537.035,153.466,536.8,144.132,545.382,145Z" transform="translate(-537.034 -144.946)" fill="#eea886"/>
          </g>
        </g>
      </g>
      <g id="Group_528" data-name="Group 528" transform="translate(19.991 39.145)">
        <g id="Group_527" data-name="Group 527">
          <g id="Group_526" data-name="Group 526">
            <path id="Path_2308" data-name="Path 2308" d="M549.571,169.79s-.432,5.382.6,6.993-.885,3.8-4.848,3.052-3.729-2.993-3.729-2.993a16.432,16.432,0,0,0,.784-5.979C542.055,168.2,549.571,169.79,549.571,169.79Z" transform="translate(-541.594 -169.32)" fill="#eea886"/>
          </g>
        </g>
      </g>
      <g id="Group_531" data-name="Group 531" transform="translate(15.812 18.887)">
        <g id="Group_530" data-name="Group 530">
          <g id="Group_529" data-name="Group 529">
            <path id="Path_2309" data-name="Path 2309" d="M544.365,148.248s3.275,3.442,4.8,5.185,1.694,5.109,1.694,5.109,2.563-3.129,1.491-6.773-3.606-10.734-10.023-8.556-6.654,11.764-5.9,16.518C536.423,159.73,539.3,149.237,544.365,148.248Z" transform="translate(-536.123 -142.805)" fill="#464240"/>
          </g>
        </g>
      </g>
      <g id="Group_533" data-name="Group 533" transform="translate(21.294 40.308)">
        <g id="Group_532" data-name="Group 532">
          <path id="Path_2310" data-name="Path 2310" d="M543.3,171.516a6.12,6.12,0,0,0,5.891-.674,3.79,3.79,0,0,1-2.946,1.9A2.9,2.9,0,0,1,543.3,171.516Z" transform="translate(-543.298 -170.842)" fill="#a77860"/>
        </g>
      </g>
      <g id="Group_534" data-name="Group 534" transform="translate(12.722 42.858)">
        <path id="Path_2311" data-name="Path 2311" d="M539.633,174.18s-9.641,8.577-7.139,13.929c2.135,4.567,9.707,1.766,8.458-3.019A53.847,53.847,0,0,1,539.633,174.18Z" transform="translate(-532.08 -174.18)" fill="#464240"/>
      </g>
      <path id="Path_4530" data-name="Path 4530" d="M205.971,103.812c.622,0,27.8-13.533,27.8-13.533l.226-41.6H205.971Z" transform="translate(-204.841 -47.582)" opacity="0.6" fill="url(#linear-gradient-6)"/>
    </g>
    <g id="Group_934" data-name="Group 934" transform="translate(-9956.333 -9467.613)">
      <g id="Group_932" data-name="Group 932" transform="translate(3.128 3.127)" opacity="0.15">
        <rect id="Rectangle_340" data-name="Rectangle 340" width="4.038" height="6.344" transform="translate(5.96)"/>
        <path id="Path_4531" data-name="Path 4531" d="M388,119.642v14.722l-5.241,5.488v27.695h15.47V139.852l-4.242-4.492-.5-15.718Z" transform="translate(-382.762 -114.606)"/>
        <rect id="Rectangle_341" data-name="Rectangle 341" width="10.479" height="16.466" transform="translate(1.588 28.99)"/>
      </g>
      <g id="Group_933" data-name="Group 933">
        <rect id="Rectangle_342" data-name="Rectangle 342" width="4.04" height="6.344" transform="translate(5.96)" fill="#b2a294"/>
        <path id="Path_4532" data-name="Path 4532" d="M386.007,117.646v14.721l-5.241,5.489v27.695h15.47V137.857l-4.242-4.492-.5-15.718Z" transform="translate(-380.766 -112.61)" fill="#679381"/>
        <rect id="Rectangle_343" data-name="Rectangle 343" width="10.48" height="16.466" transform="translate(1.588 28.99)" fill="#f2dcc7"/>
      </g>
    </g>
    <g id="Group_937" data-name="Group 937" transform="translate(-9965.851 -9471.908)">
      <g id="Group_935" data-name="Group 935" transform="translate(3.127 3.127)" opacity="0.15">
        <rect id="Rectangle_344" data-name="Rectangle 344" width="3.409" height="5.358" transform="translate(5.03)"/>
        <path id="Path_4533" data-name="Path 4533" d="M381.11,117.106V127.2l-4.422,17.061v23.38h13.059v-23.38L386.115,127.2l-.4-10.095Z" transform="translate(-376.688 -111.748)"/>
        <rect id="Rectangle_345" data-name="Rectangle 345" width="8.846" height="13.901" transform="translate(4.243 35.672)"/>
      </g>
      <g id="Group_936" data-name="Group 936">
        <rect id="Rectangle_346" data-name="Rectangle 346" width="3.409" height="5.357" transform="translate(5.031)" fill="#b2a294"/>
        <path id="Path_4534" data-name="Path 4534" d="M379.115,115.11v10.1l-4.423,17.061v23.379H387.75V142.267l-3.63-17.061-.4-10.1Z" transform="translate(-374.692 -109.753)" fill="#454c4b"/>
        <rect id="Rectangle_347" data-name="Rectangle 347" width="8.848" height="13.901" transform="translate(4.242 35.672)" fill="#b2a294"/>
      </g>
    </g>
    <g id="Group_994" data-name="Group 994" transform="translate(-10117.238 -9497.141)">
      <path id="Path_4614" data-name="Path 4614" d="M278.246,95.941a.176.176,0,0,0,0-.353.176.176,0,0,0,0,.353Z" transform="translate(-278.077 -95.588)" fill="#193f77"/>
    </g>
    <g id="Group_999" data-name="Group 999" transform="translate(-10233.495 -9428.075)">
      <g id="Group_998" data-name="Group 998" transform="translate(0 0.72)">
        <g id="Group_997" data-name="Group 997" clip-path="url(#clip-path-4)">
          <path id="Path_4615" data-name="Path 4615" d="M205.632,142.1s-3.115,2.991-1.033,5.716,6.214,1.551,7.836.26,2.412-5.077.343-6.851A5.05,5.05,0,0,0,205.632,142.1Z" transform="translate(-203.882 -140.125)" fill="#9a4934"/>
          <g id="Group_995" data-name="Group 995" transform="translate(-1.491 0.003)" opacity="0.1">
            <path id="Path_4616" data-name="Path 4616" d="M216.46,140.15c.274-.092.652.088,1,.631a3.519,3.519,0,0,1,.426,1.069,5.311,5.311,0,0,1,.113,1.514,8.134,8.134,0,0,1-1.186,3.616,10.186,10.186,0,0,1-3.193,3.341l-.268.175c-.091.055-.188.1-.282.155-.188.1-.373.2-.566.291a9.3,9.3,0,0,1-1.166.436c-.1.027-.194.056-.291.085-.047.013-.1.028-.144.039l-.147.03c-.194.041-.389.078-.578.113s-.382.045-.569.066a5.173,5.173,0,0,1-.555.035,8.9,8.9,0,0,1-3.64-.674,6.191,6.191,0,0,1-2.017-1.3c-.4-.432-.545-.8-.428-1.069.238-.558,1.446-.547,3.068-.588a14.689,14.689,0,0,0,2.62-.287c.116-.019.226-.055.338-.085s.227-.053.338-.091.223-.077.334-.113l.085-.027c.028-.009.055-.022.081-.033l.166-.069c.224-.078.436-.2.658-.3l.321-.183c.055-.03.111-.058.165-.091l.157-.107c.1-.074.216-.135.318-.212s.2-.155.306-.23.2-.157.3-.241.2-.172.3-.259a13.512,13.512,0,0,0,1.067-1.075,11.616,11.616,0,0,0,1.47-2.053,15.17,15.17,0,0,0,.755-1.631C216,140.586,216.176,140.244,216.46,140.15Z" transform="translate(-202.931 -140.127)" fill="#454d73"/>
          </g>
          <g id="Group_996" data-name="Group 996" transform="translate(0.224 3.229)" opacity="0.2">
            <path id="Path_4617" data-name="Path 4617" d="M205.631,142.285c.063.139-.1.343-.226.625a3.5,3.5,0,0,0-.3,1.167c-.05.5-.041.989-.056,1.357s-.052.627-.19.68-.359-.129-.547-.512a3.107,3.107,0,0,1-.268-1.636,2.592,2.592,0,0,1,.271-.937,1.808,1.808,0,0,1,.541-.636,1.056,1.056,0,0,1,.522-.207C205.513,142.181,205.6,142.219,205.631,142.285Z" transform="translate(-204.025 -142.186)" fill="#f9f3eb"/>
          </g>
        </g>
      </g>
      <path id="Path_4619" data-name="Path 4619" d="M206.656,142.332a7.189,7.189,0,0,1-.992.23c-.218.075-.746.259-.957.042-.475-.483,1.28-.664,1.517-.743-.185-.157-1.955.033-1.659-.715.157-.395,1.664-.071,1.982.06a4.4,4.4,0,0,1-.417-.6c-.071-.176-.223-.787.025-.91.456-.226.816,1.009.979,1.2a1.46,1.46,0,0,1,.577-1.059c.622-.34.49.338.329.674-.233.486-.675,1.9-1.38,1.785" transform="translate(-203.515 -139.666)" fill="url(#linear-gradient-7)"/>
    </g>
    <g id="Group_1004" data-name="Group 1004" transform="translate(-10253.301 -9429.25)">
      <g id="Group_1003" data-name="Group 1003" transform="translate(0 1.588)">
        <g id="Group_1002" data-name="Group 1002" clip-path="url(#clip-path-5)">
          <path id="Path_4620" data-name="Path 4620" d="M195.338,140.4s-4.575,1.177-4.054,4.892,5.086,4.815,7.325,4.456,5.024-3.541,4.005-6.341A5.521,5.521,0,0,0,195.338,140.4Z" transform="translate(-191.243 -139.929)" fill="#b74e39"/>
          <g id="Group_1000" data-name="Group 1000" transform="translate(-2.751 4.134)" opacity="0.1">
            <path id="Path_4621" data-name="Path 4621" d="M207.179,142.578c.31.06.574.436.614,1.139a3.9,3.9,0,0,1-.168,1.249,5.906,5.906,0,0,1-.705,1.5,8.908,8.908,0,0,1-3.074,2.806,11.11,11.11,0,0,1-4.835,1.468c-.116.009-.234.016-.349.024s-.235,0-.351,0c-.233-.006-.465-.008-.7-.025a10.147,10.147,0,0,1-1.344-.212c-.107-.027-.216-.052-.324-.075-.052-.014-.107-.025-.16-.041l-.155-.05c-.207-.066-.412-.135-.611-.2s-.389-.161-.577-.244a5.343,5.343,0,0,1-.547-.263,9.754,9.754,0,0,1-3.106-2.6,6.722,6.722,0,0,1-1.222-2.322c-.15-.628-.091-1.055.166-1.249.525-.4,1.672.255,3.237,1.087a15.909,15.909,0,0,0,2.651,1.134,3.618,3.618,0,0,0,.367.1c.124.028.244.071.371.094s.252.047.379.072l.094.02c.031.006.064.008.1.013l.193.024c.257.047.522.044.788.071l.406,0c.067,0,.135,0,.2,0l.208-.017c.138-.013.276-.011.415-.028s.276-.041.415-.058.279-.039.42-.066.28-.056.42-.086a14.986,14.986,0,0,0,1.594-.451,12.812,12.812,0,0,0,2.5-1.166,16.358,16.358,0,0,0,1.6-1.15C206.512,142.749,206.858,142.515,207.179,142.578Z" transform="translate(-189.487 -142.568)" fill="#454d73"/>
          </g>
          <g id="Group_1001" data-name="Group 1001" transform="translate(0.398 1.485)" opacity="0.2">
            <path id="Path_4622" data-name="Path 4622" d="M194.539,141.2c-.013.166-.273.274-.55.473a3.833,3.833,0,0,0-.914.95c-.317.448-.569.92-.783,1.261s-.385.57-.547.547-.273-.315-.244-.782a3.414,3.414,0,0,1,.622-1.7,2.884,2.884,0,0,1,.765-.747,1.965,1.965,0,0,1,.856-.315,1.133,1.133,0,0,1,.608.085C194.484,141.037,194.545,141.12,194.539,141.2Z" transform="translate(-191.496 -140.877)" fill="#f9f3eb"/>
          </g>
        </g>
      </g>
      <path id="Path_4624" data-name="Path 4624" d="M195.44,141.7c-.442-.025-.635-.233-1.067-.312-.249-.045-.851-.155-.935-.475-.194-.714,1.576.055,1.844.107-.094-.248-1.882-1.019-1.2-1.57.36-.291,1.622.827,1.855,1.122a4.979,4.979,0,0,1-.074-.8c.028-.205.212-.87.514-.854.556.028.235,1.4.287,1.673a1.6,1.6,0,0,1,1.117-.7c.776.011.285.586-.049.819-.483.337-1.664,1.449-2.274.959" transform="translate(-190.007 -138.916)" fill="url(#linear-gradient-8)"/>
    </g>
    <g id="Group_1005" data-name="Group 1005" transform="translate(-10028.33 -9432.805)">
      <path id="Path_4625" data-name="Path 4625" d="M335.466,145.917l4.876-.4-4.833-2.032.933-3.2,11.513,4.291,2.761,3.652-14.382.965Z" transform="translate(-334.45 -134.584)" fill="#4a5543"/>
      <path id="Path_4626" data-name="Path 4626" d="M335.308,152.828l17.521-2.273,1.982-1.913L339.19,136.925l-2.045,2.74,11.668,9.407-14,1.167Z" transform="translate(-334.818 -136.489)" fill="#566446"/>
      <path id="Path_4627" data-name="Path 4627" d="M355.123,150.2l-14.906-13.554-2.044,2.74,12.863,10.646Z" transform="translate(-332.916 -136.647)" fill="#667652"/>
      <path id="Path_4628" data-name="Path 4628" d="M337.063,153.134l16.211-5.414,11.888,2.4.6-3.739s-11.171-1.655-13.273-1.156-16.884,4.817-16.884,4.817Z" transform="translate(-334.371 -131.838)" fill="url(#linear-gradient-9)"/>
    </g>
    <path id="Path_4629" data-name="Path 4629" d="M294.453,130.273l5.448,13.351,2.493.783-6.507-16.2Z" transform="translate(-10386.032 -9574.234)" fill="#24182c"/>
    <path id="Path_4630" data-name="Path 4630" d="M297.93,138.44s11.111-2.441,21.243,0C319.173,138.44,309.951,142.5,297.93,138.44Z" transform="translate(-10384.061 -9569.051)" fill="#e8c2a6"/>
    <g id="Group_1009" data-name="Group 1009" transform="translate(-10034.487 -9415.765)">
      <g id="Group_1006" data-name="Group 1006" transform="translate(0.419)">
        <path id="Path_4632" data-name="Path 4632" d="M331.156,150.748V269.472l126.683.016,3.809-116.742Z" transform="translate(-331.156 -145.693)" fill="#29abe2"/>
        <path id="Path_4633" data-name="Path 4633" d="M331.156,152.576l130.991,2.645v-6.806l-130.623-.894Z" transform="translate(-331.156 -147.522)" fill="#29abe2"/>
      </g>
      <g id="Group_1007" data-name="Group 1007" transform="translate(0 37.965)">
        <path id="Path_4634" data-name="Path 4634" d="M331.519,173.053H461.736a.651.651,0,0,0,0-1.3H331.519a.651.651,0,0,0,0,1.3Z" transform="translate(-330.889 -171.751)" fill="#2664aa"/>
      </g>
      <g id="Group_1008" data-name="Group 1008" transform="translate(64.99 37.987)">
        <path id="Path_4635" data-name="Path 4635" d="M372.365,172.395l1.039,85.178a.651.651,0,0,0,1.3,0q-.517-42.589-1.037-85.178a.652.652,0,0,0-1.3,0Z" transform="translate(-372.365 -171.765)" fill="#2664aa"/>
      </g>
      <path id="Path_4636" data-name="Path 4636" d="M383.338,181.142a2.754,2.754,0,1,1-2.755-2.753A2.754,2.754,0,0,1,383.338,181.142Z" transform="translate(-304.277 -130.023)" fill="#dededa"/>
      <circle id="Ellipse_343" data-name="Ellipse 343" cx="2.754" cy="2.754" r="2.754" transform="translate(49.809 48.366)" fill="#dededa"/>
      <path id="Path_4637" data-name="Path 4637" d="M364.434,159.979h26.158S379.237,171.942,364.434,159.979Z" transform="translate(-311.871 -140.46)" fill="#dededa"/>
      <path id="Path_4638" data-name="Path 4638" d="M461.648,152.746l-.063,7.342-130.429-9.34Z" transform="translate(-330.737 -145.693)" fill="#1f1535" opacity="0.13"/>
    </g>
    <g id="Group_1013" data-name="Group 1013" transform="translate(-10272.631 -9418.292)">
      <g id="Group_1012" data-name="Group 1012" transform="translate(0)">
        <path id="Path_4639" data-name="Path 4639" d="M179.067,149.135V267.859l126.683.016,3.809-116.742Z" transform="translate(-178.816 -144.08)" fill="#29abe2"/>
        <g id="Group_1010" data-name="Group 1010" transform="translate(0 43.208)">
          <path id="Path_4640" data-name="Path 4640" d="M179.537,174.788H307.38a.652.652,0,0,0,0-1.3H179.537a.652.652,0,0,0,0,1.3Z" transform="translate(-178.907 -173.484)" fill="#2664aa"/>
        </g>
        <g id="Group_1011" data-name="Group 1011" transform="translate(0 83.871)">
          <path id="Path_4641" data-name="Path 4641" d="M179.537,200.739H307.38a.652.652,0,0,0,0-1.3H179.537a.652.652,0,0,0,0,1.3Z" transform="translate(-178.907 -199.435)" fill="#2664aa"/>
        </g>
        <path id="Path_4642" data-name="Path 4642" d="M208.423,160.763h26.16S223.227,172.726,208.423,160.763Z" transform="translate(-162.173 -137.488)" fill="#dededa"/>
        <path id="Path_4643" data-name="Path 4643" d="M208.423,185.971h26.16S223.227,197.934,208.423,185.971Z" transform="translate(-162.173 -123.197)" fill="#dededa"/>
        <path id="Path_4644" data-name="Path 4644" d="M209.043,211.385H235.2S223.847,223.348,209.043,211.385Z" transform="translate(-161.822 -108.789)" fill="#dededa"/>
        <path id="Path_4645" data-name="Path 4645" d="M179.067,150.964l130.991,2.645V146.8l-130.623-.894Z" transform="translate(-178.816 -145.909)" fill="#cf8c26"/>
      </g>
      <path id="Path_4646" data-name="Path 4646" d="M179.067,149.135l118.1,10.623L296.2,151.5Z" transform="translate(-178.816 -144.08)" fill="#1f1535" opacity="0.13"/>
    </g>
    <g id="Group_1021" data-name="Group 1021" transform="translate(-10395 -9573.939)">
      <path id="Path_4647" data-name="Path 4647" d="M68.02,46.575,65.906,327.138H191.125l4.887-280.563Z" transform="translate(-65.906 -46.575)" fill="#616166"/>
      <path id="Path_4649" data-name="Path 4649" d="M107.055,103.133l2.383,113.748h8.933l-5.657-113.748Z" transform="translate(-97.271 -14.512)" fill="#bfbfbf"/>
      <path id="Path_4650" data-name="Path 4650" d="M132.247,122.088v23.569l34.225-1.61-3.053-21.958Z" transform="translate(-82.989 -3.765)" fill="#f7f1b7"/>
      <path id="Path_4651" data-name="Path 4651" d="M139.727,117.929v8.765h5.392l-.891-8.765Z" transform="translate(-78.749 -6.123)" fill="#efedea"/>
      <path id="Path_4652" data-name="Path 4652" d="M153.284,83.7v8.765h5.392l-.891-8.765Z" transform="translate(-71.063 -25.527)" fill="#efedea"/>
      <g id="Group_1015" data-name="Group 1015" transform="translate(51.763 126.478)">
        <path id="Path_4653" data-name="Path 4653" d="M134.476,128.728q12.706-.066,25.414-.133a.651.651,0,0,0,0-1.3l-25.414.132a.652.652,0,0,0,0,1.3Z" transform="translate(-133.846 -127.293)" fill="#454c4b"/>
      </g>
      <g id="Group_1016" data-name="Group 1016" transform="translate(52.576 130.833)">
        <path id="Path_4654" data-name="Path 4654" d="M134.993,131.656q12.441-.141,24.878-.28a.652.652,0,0,0,0-1.3q-12.438.141-24.878.281a.652.652,0,0,0,0,1.3Z" transform="translate(-134.365 -130.072)" fill="#454c4b"/>
      </g>
      <g id="Group_1017" data-name="Group 1017" transform="translate(53.211 135)">
        <path id="Path_4655" data-name="Path 4655" d="M135.4,134.42q6.654-.193,13.309-.384c.837-.025.84-1.329,0-1.3l-13.309.384a.652.652,0,0,0,0,1.3Z" transform="translate(-134.77 -132.732)" fill="#454c4b"/>
      </g>
      <path id="Path_4656" data-name="Path 4656" d="M146.881,86.793v27.254l31.385-1.65-6.159-25.6Z" transform="translate(-74.693 -23.775)" fill="#f7f1b7"/>
      <g id="Group_1018" data-name="Group 1018" transform="translate(74.146 69.196)">
        <path id="Path_4657" data-name="Path 4657" d="M148.759,92.515l18.985-.475a.652.652,0,0,0,0-1.3l-18.985.475a.652.652,0,0,0,0,1.3Z" transform="translate(-148.131 -90.736)" fill="#454c4b"/>
      </g>
      <g id="Group_1019" data-name="Group 1019" transform="translate(75.716 72.737)">
        <path id="Path_4658" data-name="Path 4658" d="M149.762,94.8q9.662-.249,19.328-.5a.651.651,0,0,0,0-1.3q-9.665.249-19.328.5a.651.651,0,0,0,0,1.3Z" transform="translate(-149.132 -92.996)" fill="#454c4b"/>
      </g>
      <g id="Group_1020" data-name="Group 1020" transform="translate(79.654 75.495)">
        <path id="Path_4659" data-name="Path 4659" d="M157.7,97.879c-.733-3.1-5.324-3.6-6-.161-.382,1.948,1.127,3.6,2.459,4.793,1.41,1.258,3.547,3.173,5.5,3.344,1.449.125,2.081-.943,2.487-2.155.627-1.874,1.517-4.527,1.144-6.52a2.75,2.75,0,0,0-2.809-2.419c-1.86.113-2.878,1.822-3.612,3.306-.371.749.752,1.409,1.125.657a5.283,5.283,0,0,1,1.282-1.934q1.241-1.673,2.773,1.277a11.805,11.805,0,0,1-.24,1.59c-.2,1.059-.458,3.668-1.236,4.5-1.125,1.2-4.217-1.5-4.961-2.112a13.382,13.382,0,0,1-1.495-1.379,4.526,4.526,0,0,1-1.116-1.84q2.334-3.925,3.438-.6c.193.815,1.449.47,1.257-.346Z" transform="translate(-151.645 -94.756)" fill="#454c4b"/>
      </g>
    </g>
    <path id="Path_4773" data-name="Path 4773" d="M690.823,177.5c-.951,0-35.748,18.444-39.552,31.566a70.019,70.019,0,0,0-2.471,24.718" transform="translate(-10520.819 -9546.289)" fill="none" stroke="#1e2729" stroke-miterlimit="10" stroke-width="1"/>
    <path id="Path_4774" data-name="Path 4774" d="M650.166,199.451s11.307,2.068,21.03-3.012C671.2,196.439,655.837,193.609,650.166,199.451Z" transform="translate(-10519.917 -9535.942)" fill="#1e2729"/>
    <path id="Path_4775" data-name="Path 4775" d="M653.307,193.454s.2.042.561.108c2.415.453,12.045,2.048,17.724-.108,0,0-9.76-3.676-18.085.042" transform="translate(-10518.137 -9538.166)" fill="#1e2729"/>
    <path id="Path_4776" data-name="Path 4776" d="M657.131,189.568s9.522,4.386,19.27,0C676.4,189.568,664.577,187.547,657.131,189.568Z" transform="translate(-10515.969 -9539.959)" fill="#1e2729"/>
    <path id="Path_4777" data-name="Path 4777" d="M661.72,186.041s7.838,2.831,14.969-.508C676.689,185.533,665.886,184.476,661.72,186.041Z" transform="translate(-10513.367 -9541.935)" fill="#1e2729"/>
    <path id="Path_4778" data-name="Path 4778" d="M667.126,182.16s6.318,2.921,11.733,1.567C678.859,183.727,675.431,182.127,667.126,182.16Z" transform="translate(-10510.303 -9543.649)" fill="#1e2729"/>
    <path id="Path_4779" data-name="Path 4779" d="M659.864,178.505s-6.554,8.339-3.278,18.339C656.586,196.844,660.135,184.1,659.864,178.505Z" transform="translate(-10516.798 -9545.722)" fill="#1e2729"/>
    <path id="Path_4780" data-name="Path 4780" d="M668.743,177.173c-.009-.285-8.485,6.153-7.491,14.629C661.251,191.8,668.833,179.7,668.743,177.173Z" transform="translate(-10513.679 -9546.481)" fill="#1e2729"/>
    <path id="Path_4781" data-name="Path 4781" d="M671.868,175.1c.058-.32-6.086,4.356-5.6,11.069C666.271,186.17,671.146,179.072,671.868,175.1Z" transform="translate(-10510.803 -9547.659)" fill="#1e2729"/>
    <path id="Path_4782" data-name="Path 4782" d="M653.321,181.836s-5.5,10.508,0,18.386C653.321,200.222,654.315,186.167,653.321,181.836Z" transform="translate(-10519.516 -9543.833)" fill="#1e2729"/>
    <path id="Path_4783" data-name="Path 4783" d="M646.344,185.184s-.542,13.1,2.527,16.562l3.068,3.463-1.534-3.463S649.143,186.911,646.344,185.184Z" transform="translate(-10522.104 -9541.935)" fill="#1e2729"/>
    <path id="Path_4784" data-name="Path 4784" d="M650.033,198.6" transform="translate(-10519.993 -9534.328)" fill="#1e2729"/>
    <g id="Group_1074" data-name="Group 1074" transform="translate(-9875.096 -9418.706)">
      <path id="Path_4785" data-name="Path 4785" d="M648.084,253.608a173.707,173.707,0,0,1,9.629-60.5c3.33-9.485,8.449-17.335,14.364-25.373,5.609-7.628,11.9-15.169,19.554-20.838.666-.494.017-1.625-.658-1.125-7.024,5.2-12.911,11.924-18.193,18.848-5.837,7.651-11.573,15.52-15.023,24.569a172.967,172.967,0,0,0-10.973,64.421.651.651,0,0,0,1.3,0Z" transform="translate(-646.755 -145.644)" fill="#454c4b"/>
    </g>
    <path id="Path_4786" data-name="Path 4786" d="M659.694,167.388s6.641,1.393,17.5-10.749C677.2,156.639,662.314,164.34,659.694,167.388Z" transform="translate(-10514.516 -9558.117)" fill="#454c4b"/>
    <path id="Path_4787" data-name="Path 4787" d="M665.118,159.264s6.622.237,12.932-7.255C678.05,152.009,669.692,155.951,665.118,159.264Z" transform="translate(-10511.44 -9560.742)" fill="#454c4b"/>
    <path id="Path_4788" data-name="Path 4788" d="M670.2,147.33s-7.029,9.605-5.837,14.586C664.362,161.916,670.674,150.563,670.2,147.33Z" transform="translate(-10511.946 -9563.395)" fill="#454c4b"/>
    <path id="Path_4789" data-name="Path 4789" d="M666.18,152.261s-9.812,9.861-7.429,20.069C658.751,172.33,666.73,156.282,666.18,152.261Z" transform="translate(-10515.262 -9560.6)" fill="#454c4b"/>
    <path id="Path_4790" data-name="Path 4790" d="M674.939,161.872s-14.85,6.467-19.029,13.4C655.91,175.275,670.395,168.969,674.939,161.872Z" transform="translate(-10516.661 -9555.15)" fill="#454c4b"/>
    <path id="Path_4791" data-name="Path 4791" d="M656.938,159.2s-6.849,14.138-2.2,22.562C654.737,181.767,658.122,163.7,656.938,159.2Z" transform="translate(-10518.242 -9556.663)" fill="#454c4b"/>
    <path id="Path_4792" data-name="Path 4792" d="M653.12,180.6s14.3-6.385,15.92-10.722C669.04,169.873,660.339,171.214,653.12,180.6Z" transform="translate(-10518.242 -9550.615)" fill="#454c4b"/>
    <path id="Path_4793" data-name="Path 4793" d="M649.469,163.654s-3.529,21.511,1.822,26.78,0-.509,0-.509S652.86,166.692,649.469,163.654Z" transform="translate(-10520.96 -9554.141)" fill="#454c4b"/>
    <path id="Path_4794" data-name="Path 4794" d="M643.272,168.943c-.169-.124,1.658,22.573,10.807,26.437v-.989s-2.61-.284-3.228-2.521S648.709,172.922,643.272,168.943Z" transform="translate(-10523.832 -9551.143)" fill="#454c4b"/>
    <path id="Path_4795" data-name="Path 4795" d="M643.816,204.191l2.311,32.344,13.051.477-1.888-27.993Z" transform="translate(-10523.518 -9531.159)" fill="#93908d"/>
  </g>
</svg>
