<svg xmlns="http://www.w3.org/2000/svg" width="50.628" height="124.561" viewBox="0 0 50.628 124.561">
  <g id="Group_845" data-name="Group 845" opacity="0.24">
    <path id="Path_4339" data-name="Path 4339" d="M694.177,177.415c-.951,0-35.748,18.444-39.551,31.564a70.008,70.008,0,0,0-2.473,24.72" transform="translate(-643.604 -127.494)" fill="none" stroke="#000" stroke-miterlimit="10" stroke-width="1"/>
    <path id="Path_4340" data-name="Path 4340" d="M653.52,199.361s11.307,2.068,21.029-3.01C674.549,196.351,659.191,193.52,653.52,199.361Z" transform="translate(-642.701 -117.147)"/>
    <path id="Path_4341" data-name="Path 4341" d="M656.661,193.364s.2.042.561.11c2.413.453,12.045,2.048,17.725-.11,0,0-9.763-3.674-18.087.042" transform="translate(-640.92 -119.37)"/>
    <path id="Path_4342" data-name="Path 4342" d="M660.485,189.479s9.522,4.387,19.27,0C679.755,189.479,667.932,187.458,660.485,189.479Z" transform="translate(-638.752 -121.164)"/>
    <path id="Path_4343" data-name="Path 4343" d="M665.074,185.954s7.838,2.83,14.967-.509C680.041,185.444,669.24,184.387,665.074,185.954Z" transform="translate(-636.151 -123.14)"/>
    <path id="Path_4344" data-name="Path 4344" d="M670.48,182.071s6.316,2.922,11.732,1.567C682.211,183.638,678.785,182.038,670.48,182.071Z" transform="translate(-633.086 -124.854)"/>
    <path id="Path_4345" data-name="Path 4345" d="M663.219,178.416s-6.557,8.339-3.278,18.341C659.941,196.757,663.49,184.011,663.219,178.416Z" transform="translate(-639.581 -126.926)"/>
    <path id="Path_4346" data-name="Path 4346" d="M672.1,177.084c-.011-.285-8.485,6.153-7.492,14.63C664.605,191.715,672.188,179.612,672.1,177.084Z" transform="translate(-636.462 -127.686)"/>
    <path id="Path_4347" data-name="Path 4347" d="M675.221,175.013c.058-.32-6.086,4.356-5.6,11.069C669.625,186.081,674.5,178.985,675.221,175.013Z" transform="translate(-633.586 -128.864)"/>
    <path id="Path_4348" data-name="Path 4348" d="M656.676,181.747s-5.506,10.509,0,18.386C656.676,200.133,657.668,186.08,656.676,181.747Z" transform="translate(-642.299 -125.038)"/>
    <path id="Path_4349" data-name="Path 4349" d="M649.7,185.095s-.541,13.1,2.527,16.562l3.07,3.465-1.534-3.465S652.5,186.822,649.7,185.095Z" transform="translate(-644.889 -123.14)"/>
    <path id="Path_4350" data-name="Path 4350" d="M653.386,198.513" transform="translate(-642.777 -115.533)"/>
    <path id="Path_4351" data-name="Path 4351" d="M651.44,253.52a173.711,173.711,0,0,1,9.627-60.5c3.328-9.483,8.449-17.335,14.362-25.373,5.611-7.628,11.9-15.169,19.555-20.838.666-.494.016-1.625-.658-1.125-7.026,5.205-12.911,11.926-18.194,18.85-5.835,7.65-11.573,15.52-15.023,24.568a172.98,172.98,0,0,0-10.975,64.422.653.653,0,0,0,1.305,0Z" transform="translate(-644.635 -145.555)"/>
    <path id="Path_4352" data-name="Path 4352" d="M663.048,167.3s6.641,1.391,17.5-10.751C680.552,156.55,665.666,164.251,663.048,167.3Z" transform="translate(-637.299 -139.322)"/>
    <path id="Path_4353" data-name="Path 4353" d="M668.472,159.174s6.623.237,12.93-7.253C681.4,151.921,673.044,155.863,668.472,159.174Z" transform="translate(-634.224 -141.947)"/>
    <path id="Path_4354" data-name="Path 4354" d="M673.554,147.241s-7.029,9.605-5.838,14.588C667.715,161.829,674.03,150.474,673.554,147.241Z" transform="translate(-634.731 -144.6)"/>
    <path id="Path_4355" data-name="Path 4355" d="M669.532,152.172s-9.809,9.861-7.429,20.069C662.1,172.241,670.086,156.194,669.532,152.172Z" transform="translate(-638.046 -141.804)"/>
    <path id="Path_4356" data-name="Path 4356" d="M678.295,161.784s-14.853,6.465-19.032,13.4C659.263,175.187,673.748,168.879,678.295,161.784Z" transform="translate(-639.445 -136.355)"/>
    <path id="Path_4357" data-name="Path 4357" d="M660.293,159.117s-6.849,14.137-2.2,22.562C658.09,181.679,661.476,163.611,660.293,159.117Z" transform="translate(-641.026 -137.867)"/>
    <path id="Path_4358" data-name="Path 4358" d="M656.474,180.508s14.3-6.387,15.92-10.724C672.394,169.784,663.694,171.125,656.474,180.508Z" transform="translate(-641.026 -131.82)"/>
    <path id="Path_4359" data-name="Path 4359" d="M652.824,163.565s-3.53,21.511,1.822,26.78,0-.508,0-.508S656.214,166.6,652.824,163.565Z" transform="translate(-643.743 -135.345)"/>
    <path id="Path_4360" data-name="Path 4360" d="M646.626,168.855c-.169-.124,1.656,22.571,10.807,26.437v-.99s-2.612-.282-3.229-2.521S652.061,172.834,646.626,168.855Z" transform="translate(-646.615 -132.347)"/>
    <path id="Path_4361" data-name="Path 4361" d="M647.169,204.1l2.311,32.344,13.052.477-1.888-27.993Z" transform="translate(-646.301 -112.364)"/>
  </g>
</svg>
