<svg id="Group_1072" data-name="Group 1072" xmlns="http://www.w3.org/2000/svg" width="99.414" height="246.211" viewBox="0 0 99.414 246.211">
  <path id="Path_4660" data-name="Path 4660" d="M271.948,129.206a9.717,9.717,0,0,0,11.534-15.63,8.32,8.32,0,0,0,4.931-5.588,11.189,11.189,0,0,0-.747-7.545,13.471,13.471,0,0,0-19.43-5.826c-3.772,2.369-6.138,6.459-7.675,10.641-2.029,5.519-2.824,11.794-.545,17.214s8.272,9.517,14.007,8.212" transform="translate(-221.076 -63.775)" fill="#603432"/>
  <g id="Group_1071" data-name="Group 1071">
    <g id="Group_1022" data-name="Group 1022" transform="translate(3.127 3.127)" opacity="0.15">
      <path id="Path_4661" data-name="Path 4661" d="M269.326,156.434s16.941,39.609,17.286,51.06-16.683,60.818-16.659,59.284-14.116-15.748-14.116-15.748,16.587-37.368,15.39-43.537-21.037-48.028-21.037-48.028Z" transform="translate(-228.991 -30.695)"/>
      <path id="Path_4662" data-name="Path 4662" d="M258.747,125.1c.318.227,15.517,27.161,24.818,27.872s34.256-15.111,34.256-15.111l-4.991-6.634s-21.869,8.839-24.546,7.822-16.063-18.712-16.063-18.712Z" transform="translate(-224.139 -51.158)"/>
      <path id="Path_4663" data-name="Path 4663" d="M275.083,157.229s-2.686,49.181-2.878,55.025-.959,56.492-.959,56.492H258.393s-3.645-52.429-3.261-55.759-7.291-55.759-7.291-55.759Z" transform="translate(-230.322 -30.244)"/>
      <path id="Path_4664" data-name="Path 4664" d="M245.353,187.843s2.676-30.486,4.762-33.1c1.164-1.456-5.834-29.6-2.672-35.849,7.485-14.8,10.1-15.669,10.1-15.669l14.452,8.53,8.182,12.187v63.9Z" transform="translate(-231.733 -60.858)"/>
      <path id="Path_4665" data-name="Path 4665" d="M270.426,130.765s-.349,20.259-12.769,19.8l-1.15,9.959L252.7,214.832l32.487-3.562-5.832-42.427-3.347-34.267Z" transform="translate(-227.567 -45.247)"/>
      <path id="Path_4666" data-name="Path 4666" d="M298.619,92.234s-11.923,28.2-17.238,26.813l-8.927-2.448-6.045,11.5-14.452-8.532S276.1,80.3,275.755,80.13,298.619,92.234,298.619,92.234Z" transform="translate(-227.988 -73.954)"/>
      <path id="Path_4667" data-name="Path 4667" d="M267.428,228.4s8.616,3.463,6.857,4.229c-3.212,1.4-15.39-1.652-19.71-4.229Z" transform="translate(-226.505 10.103)"/>
      <path id="Path_4668" data-name="Path 4668" d="M293.074,145.177l-15.248,8.853L254.58,129.711s-4.145-8.532,2.715-14.1,12.408-5.436,14.376-2.09C273.659,116.9,293.074,145.177,293.074,145.177Z" transform="translate(-227.205 -56.351)"/>
      <path id="Path_4669" data-name="Path 4669" d="M280.026,95.811c-.6,2.438-1.594,4.878-2.2,7.316a4.3,4.3,0,0,1-.832,1.926,1.553,1.553,0,0,1-1.932.389l-.652-.34Z" transform="translate(-215.258 -65.063)"/>
      <path id="Path_4670" data-name="Path 4670" d="M266.528,90.009c-.075.849-.067,1.709-.083,2.562l.675-.091a2.389,2.389,0,0,0-1.163-1.968,1.227,1.227,0,0,0-1.578.533c-.68,1.139-.4,3.579,1.263,3.565.357,0,.465-.586.088-.649-.99-.161-1.086-1.33-.929-2.133.119-.61.616-1.123,1.217-.512a2.525,2.525,0,0,1,.439,1.346c.066.387.68.29.675-.091-.009-.852.008-1.711-.061-2.562a.272.272,0,0,0-.544,0Z" transform="translate(-221.141 -68.501)"/>
      <path id="Path_4671" data-name="Path 4671" d="M262.894,143.981c-6.2-.185-12.255-.932-18.411-1.636-.548-.063-.644.815-.128.951a61.4,61.4,0,0,0,18.54,1.584.45.45,0,0,0,0-.9Z" transform="translate(-232.491 -38.684)"/>
      <path id="Path_4672" data-name="Path 4672" d="M247.275,144.877c-2.092-.342-4.723-1.352-5.531-3.554-.255-.7.263-.5.832-.36a4.366,4.366,0,0,1,1.652.794,4.772,4.772,0,0,1,1.669,3.772.919.919,0,0,0,1.836,0,6.005,6.005,0,0,0-2.493-5.273c-1.222-.9-3.9-2.023-5.092-.5-1.136,1.459.531,3.532,1.6,4.491a7.032,7.032,0,0,0,5.356,1.9c.657-.075.964-1.147.174-1.277Z" transform="translate(-234.9 -40.575)"/>
      <path id="Path_4673" data-name="Path 4673" d="M248.213,143.187a14.134,14.134,0,0,1-4.262,6.127c-2,1.658-4.353,2.169-6.749,2.966a.766.766,0,0,0,.2,1.5c6,.606,10.763-4.961,11.929-10.281a.582.582,0,0,0-1.122-.309Z" transform="translate(-236.661 -38.437)"/>
      <path id="Path_4674" data-name="Path 4674" d="M274.407,118.394c-2.961-3.212-7.012-5.589-10.674-7.918-3.684-2.343-7.537-4.98-11.608-6.575-.823-.323-1.247.924-.575,1.366,3.642,2.394,7.7,4.195,11.4,6.54,3.668,2.325,7.09,5.254,10.931,7.261a.432.432,0,0,0,.522-.675Z" transform="translate(-228.408 -60.506)"/>
      <path id="Path_4675" data-name="Path 4675" d="M252.845,128.694a15.327,15.327,0,0,1,.008-29.859c3.725-.865,8.139-.519,10.752-3.311,2.093-2.236,2.158-5.649,3.352-8.471a11.317,11.317,0,0,1,13.413-6.144,10.734,10.734,0,0,1,19.649,5.984,14.45,14.45,0,0,1,6.438,1.971c1.871,1.28,3.167,3.665,2.512,5.835-.7,2.31-3.234,3.53-5.6,3.989a18.215,18.215,0,0,1-17.236-6.277q-2,1.568-4,3.137a4.618,4.618,0,1,0-4.43,8.082c-.935,3.2-3.834,5.395-6.744,7.014s-6.083,2.951-8.353,5.387a23.29,23.29,0,0,0-2.131,2.811c-2.393,3.508-5.234,6.343-7.625,9.851" transform="translate(-234.206 -76.188)"/>
      <path id="Path_4676" data-name="Path 4676" d="M272.721,93.288a3.342,3.342,0,0,0,2.611,3.342c1.263.208,2.9-.531,3.087-1.9.041-.307-.389-.346-.528-.144-.658.95-1.539,1.7-2.78,1.31a3.247,3.247,0,0,1-2.029-2.654c-.036-.2-.367-.155-.36.049Z" transform="translate(-216.217 -66.595)"/>
      <path id="Path_4677" data-name="Path 4677" d="M264.888,92.9c.125.749.691,2.183-.475,2.418a.844.844,0,0,1-.976-.567.886.886,0,0,1,.548-1.053c.423-.226.13-.968-.334-.79a1.664,1.664,0,0,0,.291,3.2,1.63,1.63,0,0,0,1.7-.943,2.554,2.554,0,0,0-.431-2.4.179.179,0,0,0-.326.138Z" transform="translate(-221.974 -66.836)"/>
      <path id="Path_4678" data-name="Path 4678" d="M293.263,128.8s6.04-5.644,6.872-3.817a9.993,9.993,0,0,1-1.882,10.451Z" transform="translate(-204.572 -48.73)"/>
      <path id="Path_4679" data-name="Path 4679" d="M257.631,123.563c-.53,2.545-1.086,5.086-1.578,7.639-.063.327.436.47.5.139.536-2.545,1.009-5.1,1.507-7.658.055-.282-.374-.4-.434-.121Z" transform="translate(-225.67 -49.421)"/>
      <path id="Path_4680" data-name="Path 4680" d="M252.754,133.281q.754.893,1.5,1.786a12.658,12.658,0,0,0,1.539,1.753c.221.18.594-.045.421-.326a12.269,12.269,0,0,0-1.489-1.7q-.832-.91-1.664-1.821c-.193-.21-.49.1-.312.312Z" transform="translate(-227.568 -44.037)"/>
      <path id="Path_4681" data-name="Path 4681" d="M257.681,135.856c.541-.6,1.086-1.2,1.616-1.818a6.266,6.266,0,0,0,1.252-1.655c.089-.232-.218-.439-.414-.317a6.819,6.819,0,0,0-1.489,1.683c-.462.594-.915,1.2-1.371,1.793-.179.233.212.531.406.313Z" transform="translate(-224.999 -44.529)"/>
      <path id="Path_4682" data-name="Path 4682" d="M258.572,139.462a34.989,34.989,0,0,0,2.8-2.314c.252-.26-.08-.735-.4-.519a35.557,35.557,0,0,0-2.83,2.407c-.3.251.13.671.426.426Z" transform="translate(-224.537 -41.954)"/>
      <path id="Path_4683" data-name="Path 4683" d="M250.722,139.872c1.247.707,2.48,1.482,3.779,2.09a.347.347,0,0,0,.349-.6c-1.222-.752-2.549-1.355-3.825-2.01-.342-.176-.642.327-.3.519Z" transform="translate(-228.773 -40.399)"/>
      <path id="Path_4684" data-name="Path 4684" d="M248.127,147.965a44.648,44.648,0,0,0,4.624,2.2c.356.124.558-.409.251-.594a43.67,43.67,0,0,0-4.566-2.129c-.354-.161-.666.354-.309.528Z" transform="translate(-230.25 -35.813)"/>
      <path id="Path_4685" data-name="Path 4685" d="M253.887,151.52c-.912.874-1.81,1.753-2.65,2.7a9.431,9.431,0,0,0-1.926,2.562.263.263,0,0,0,.384.295,16.494,16.494,0,0,0,2.15-2.5c.783-.912,1.6-1.8,2.463-2.631.276-.266-.146-.688-.421-.421Z" transform="translate(-229.496 -33.529)"/>
      <path id="Path_4686" data-name="Path 4686" d="M254.414,146.962l-.132-.052c-.638-.251-.641,1.02,0,.768l.132-.052a.348.348,0,0,0,0-.664Z" transform="translate(-226.942 -36.113)"/>
      <path id="Path_4687" data-name="Path 4687" d="M256.77,141.142l-.053-.116a.339.339,0,0,0-.581,0l-.053.116c-.343.751,1.031.751.688,0Z" transform="translate(-225.682 -39.523)"/>
      <path id="Path_4688" data-name="Path 4688" d="M250.733,135.943l.006-.146c.027-.5-.8-.5-.771,0l.008.146a.379.379,0,0,0,.757,0Z" transform="translate(-229.117 -42.606)"/>
      <path id="Path_4689" data-name="Path 4689" d="M255.943,132.9a.369.369,0,0,0,0-.738.369.369,0,0,0,0,.738Z" transform="translate(-225.931 -44.456)"/>
      <path id="Path_4690" data-name="Path 4690" d="M250.626,133.085a41.4,41.4,0,0,0,4.152-4.154c.191-.257-.19-.641-.448-.448a41.26,41.26,0,0,0-4.143,4.165.31.31,0,0,0,.439.437Z" transform="translate(-229.044 -46.57)"/>
      <path id="Path_4691" data-name="Path 4691" d="M252.577,127.734a.347.347,0,0,0,0-.693.347.347,0,0,0,0,.693Z" transform="translate(-227.828 -47.358)"/>
      <path id="Path_4692" data-name="Path 4692" d="M248.419,124.008c.91,1.691,1.669,3.551,2.717,5.155a.3.3,0,0,0,.523-.306c-.774-1.753-1.919-3.4-2.839-5.085-.144-.262-.544-.028-.4.235Z" transform="translate(-230.012 -49.276)"/>
      <path id="Path_4693" data-name="Path 4693" d="M252.678,122.168a.372.372,0,0,0,0-.744.372.372,0,0,0,0,.744Z" transform="translate(-227.784 -50.543)"/>
      <path id="Path_4694" data-name="Path 4694" d="M247.653,118.994a27.568,27.568,0,0,0,3.032,2.114c.32.163.711-.268.406-.526a27.64,27.64,0,0,0-3.178-2.034c-.285-.18-.53.257-.26.447Z" transform="translate(-230.495 -52.198)"/>
      <path id="Path_4695" data-name="Path 4695" d="M251.022,119.4c.79-.52,1.561-1.075,2.3-1.666a7.518,7.518,0,0,0,2.035-1.981.338.338,0,0,0-.459-.459,13.758,13.758,0,0,0-1.851,1.755,20.171,20.171,0,0,1-2.327,1.832c-.318.215-.022.732.3.519Z" transform="translate(-228.768 -54.046)"/>
      <path id="Path_4696" data-name="Path 4696" d="M251.086,114.306a.357.357,0,0,0,0-.713.357.357,0,0,0,0,.713Z" transform="translate(-228.678 -54.982)"/>
      <path id="Path_4697" data-name="Path 4697" d="M254.19,110.309l2,1.217a8.027,8.027,0,0,0,1.86,1.017.278.278,0,0,0,.27-.461,8.092,8.092,0,0,0-1.813-1.1l-2.056-1.12a.259.259,0,0,0-.262.447Z" transform="translate(-226.794 -57.117)"/>
      <path id="Path_4698" data-name="Path 4698" d="M261.256,114.853a.347.347,0,0,0,0-.694.347.347,0,0,0,0,.694Z" transform="translate(-222.907 -54.661)"/>
      <path id="Path_4699" data-name="Path 4699" d="M258.42,116.268a40.255,40.255,0,0,0-.563,4.826.312.312,0,0,0,.61.083,40.758,40.758,0,0,0,.617-4.909c.05-.425-.613-.418-.664,0Z" transform="translate(-224.644 -53.645)"/>
      <path id="Path_4700" data-name="Path 4700" d="M254.063,119.777a.33.33,0,0,0,0-.66.33.33,0,0,0,0,.66Z" transform="translate(-226.975 -51.85)"/>
      <path id="Path_4701" data-name="Path 4701" d="M261.436,120.877l-.075-.1a.314.314,0,0,0-.531,0l-.077.1a.4.4,0,1,0,.683,0Z" transform="translate(-223.038 -50.994)"/>
      <path id="Path_4702" data-name="Path 4702" d="M259.693,125.786a43.071,43.071,0,0,0,4.517,2.8c.339.157.783-.295.436-.566a43.049,43.049,0,0,0-4.622-2.8.328.328,0,0,0-.331.566Z" transform="translate(-223.691 -48.418)"/>
      <path id="Path_4703" data-name="Path 4703" d="M267.343,120.85c-.313,1.667-.749,3.363-.907,5.053-.035.368.547.434.638.086.422-1.614.586-3.331.859-4.978.063-.382-.516-.552-.589-.161Z" transform="translate(-219.782 -50.994)"/>
      <path id="Path_4704" data-name="Path 4704" d="M263.679,119.317a.335.335,0,0,0,0-.669.335.335,0,0,0,0,.669Z" transform="translate(-221.527 -52.116)"/>
      <path id="Path_4705" data-name="Path 4705" d="M265.678,128.991a.448.448,0,0,0,0-.895.448.448,0,0,0,0,.895Z" transform="translate(-220.455 -46.76)"/>
      <path id="Path_4706" data-name="Path 4706" d="M267.614,133.932a26.847,26.847,0,0,0,2.27-3.728c.147-.356-.411-.669-.649-.378a26.486,26.486,0,0,0-2.223,3.753.349.349,0,0,0,.6.353Z" transform="translate(-219.482 -45.844)"/>
      <path id="Path_4707" data-name="Path 4707" d="M268.054,124.758c1.5,1.29,2.905,2.969,4.632,3.952.307.174.553-.212.356-.461-1.222-1.534-3.074-2.648-4.561-3.917-.293-.249-.719.172-.426.426Z" transform="translate(-218.919 -48.937)"/>
      <path id="Path_4708" data-name="Path 4708" d="M275.153,131.934l.132-.052a.441.441,0,0,0,0-.843l-.132-.052c-.785-.309-.79,1.257,0,.946Z" transform="translate(-215.174 -45.144)"/>
      <path id="Path_4709" data-name="Path 4709" d="M271.243,133.6l-.146,0a.463.463,0,0,0,0,.924c.049,0,.1,0,.146-.006a.457.457,0,0,0,0-.913Z" transform="translate(-217.391 -43.643)"/>
      <path id="Path_4710" data-name="Path 4710" d="M253.511,122.35c7.869,8.718,15.276,17.758,23.958,25.71.367.335.915-.212.547-.547-8.662-7.875-16.393-16.743-24.377-25.292-.08-.085-.205.042-.128.128Z" transform="translate(-227.122 -50.106)"/>
      <path id="Path_4711" data-name="Path 4711" d="M268.738,142c2.4-.092,4.478-1.866,6.446-3.077,3.171-1.951,6.36-3.884,9.485-5.912.343-.222.033-.766-.324-.552-2.659,1.6-5.273,3.278-7.9,4.934-2.462,1.553-4.92,3.582-7.73,4.448a.081.081,0,0,0,.022.158Z" transform="translate(-218.52 -44.312)"/>
      <path id="Path_4712" data-name="Path 4712" d="M248.207,136.285c.619.472,1.216.971,1.833,1.449a8.6,8.6,0,0,0,1.592,1.133.292.292,0,0,0,.353-.456,9.189,9.189,0,0,0-1.658-1.269c-.619-.436-1.254-.846-1.868-1.288-.265-.19-.5.24-.252.431Z" transform="translate(-230.175 -42.389)"/>
      <path id="Path_4713" data-name="Path 4713" d="M248.364,136.078c1.451.5,3.529,1.186,5.066.758a.234.234,0,0,0,0-.447,13.667,13.667,0,0,0-2.211-.2,15.849,15.849,0,0,1-2.737-.542.223.223,0,0,0-.118.429Z" transform="translate(-230.114 -42.484)"/>
      <path id="Path_4714" data-name="Path 4714" d="M271.972,98.866c-1.059,1.683.2,4.472,2.391,4.094.284-.05.244-.464,0-.537a2.892,2.892,0,0,1-1.778-1.017,2.378,2.378,0,0,1-.116-2.332c.122-.291-.338-.458-.5-.208Z" transform="translate(-216.858 -63.4)"/>
      <path id="Path_4715" data-name="Path 4715" d="M271.2,100.272a2.034,2.034,0,0,1,2.025-.694.3.3,0,0,0,.161-.584,2.1,2.1,0,0,0-2.537,1.073.2.2,0,0,0,.351.205Z" transform="translate(-217.294 -63.325)"/>
      <path id="Path_4716" data-name="Path 4716" d="M270.767,96.611a.8.8,0,0,0-.942.631,1.194,1.194,0,0,0,.479,1.119,2.5,2.5,0,0,0,1.186.443c.787.114,1.788-.08,2.013-.843a1.363,1.363,0,0,0-1.048-1.539,3.951,3.951,0,0,0-2.043.165" transform="translate(-217.869 -64.761)"/>
    </g>
    <g id="Group_1070" data-name="Group 1070">
      <path id="Path_4717" data-name="Path 4717" d="M267.329,154.438s16.941,39.609,17.286,51.06-16.683,60.82-16.659,59.284-14.116-15.746-14.116-15.746,16.589-37.369,15.392-43.538-21.037-48.026-21.037-48.026Z" transform="translate(-226.995 -28.7)" fill="#aa8159"/>
      <path id="Path_4718" data-name="Path 4718" d="M256.751,123.108c.318.227,15.517,27.159,24.818,27.872s34.258-15.113,34.258-15.113l-4.991-6.634s-21.871,8.839-24.547,7.822-16.062-18.712-16.062-18.712Z" transform="translate(-222.144 -49.162)" fill="#e0b6a9"/>
      <path id="Path_4719" data-name="Path 4719" d="M273.087,155.233s-2.686,49.182-2.877,55.025-.96,56.492-.96,56.492H256.4s-3.645-52.427-3.261-55.759-7.291-55.759-7.291-55.759Z" transform="translate(-228.327 -28.249)" fill="#d4a673"/>
      <path id="Path_4720" data-name="Path 4720" d="M243.357,185.847s2.676-30.486,4.762-33.095c1.166-1.457-5.832-29.6-2.672-35.851,7.487-14.8,10.1-15.669,10.1-15.669L270,109.762l8.182,12.189v63.9Z" transform="translate(-229.737 -58.863)" fill="#9fbdc4"/>
      <path id="Path_4721" data-name="Path 4721" d="M268.432,128.769s-.351,20.259-12.77,19.8l-1.149,9.959-3.808,54.3,32.487-3.563-5.832-42.424-3.347-34.267Z" transform="translate(-225.571 -43.252)" fill="#ede0d1"/>
      <path id="Path_4722" data-name="Path 4722" d="M296.623,90.238s-11.921,28.2-17.236,26.813l-8.928-2.448-6.045,11.5-14.452-8.532s24.146-39.264,23.8-39.438S296.623,90.238,296.623,90.238Z" transform="translate(-225.992 -71.958)" fill="#e0b6a9"/>
      <path id="Path_4723" data-name="Path 4723" d="M265.432,226.4s8.616,3.463,6.858,4.231c-3.214,1.4-15.392-1.653-19.712-4.231Z" transform="translate(-224.509 12.099)" fill="#2d283d"/>
      <path id="Path_4724" data-name="Path 4724" d="M291.08,143.18l-15.249,8.855-23.247-24.32s-4.144-8.532,2.715-14.1,12.41-5.436,14.377-2.09C271.664,114.9,291.08,143.18,291.08,143.18Z" transform="translate(-225.21 -54.355)" fill="#9fbdc4"/>
      <g id="Group_1023" data-name="Group 1023" transform="translate(59.155 30.747)">
        <path id="Path_4725" data-name="Path 4725" d="M278.03,93.815c-.6,2.438-1.6,4.879-2.2,7.316a4.316,4.316,0,0,1-.834,1.927,1.554,1.554,0,0,1-1.932.387l-.652-.34Z" transform="translate(-272.417 -93.815)" fill="#e0b6a9"/>
      </g>
      <g id="Group_1024" data-name="Group 1024" transform="translate(42.894 21.246)">
        <path id="Path_4726" data-name="Path 4726" d="M264.533,88.013c-.077.851-.067,1.71-.085,2.562.226-.03.451-.06.677-.091a2.392,2.392,0,0,0-1.164-1.966,1.225,1.225,0,0,0-1.578.533c-.68,1.139-.4,3.577,1.263,3.563.357,0,.467-.586.088-.649-.989-.16-1.086-1.329-.929-2.131.119-.611.617-1.125,1.219-.514a2.538,2.538,0,0,1,.437,1.348c.066.387.68.288.677-.092-.009-.852.006-1.711-.063-2.562a.271.271,0,0,0-.542,0Z" transform="translate(-262.039 -87.751)" fill="#e08d85"/>
      </g>
      <g id="Group_1025" data-name="Group 1025" transform="translate(11.525 103.659)">
        <path id="Path_4727" data-name="Path 4727" d="M260.9,141.986c-6.2-.186-12.256-.934-18.411-1.636-.548-.063-.646.815-.128.95a61.391,61.391,0,0,0,18.54,1.584.449.449,0,0,0,0-.9Z" transform="translate(-242.02 -140.347)" fill="#ede0d1"/>
      </g>
      <g id="Group_1026" data-name="Group 1026" transform="translate(4.866 98.431)">
        <path id="Path_4728" data-name="Path 4728" d="M245.278,142.882c-2.092-.343-4.723-1.354-5.53-3.555-.257-.7.262-.494.831-.359a4.347,4.347,0,0,1,1.653.793,4.773,4.773,0,0,1,1.667,3.772.919.919,0,0,0,1.836,0,6.011,6.011,0,0,0-2.491-5.273c-1.224-.9-3.906-2.023-5.094-.494-1.134,1.457.531,3.53,1.6,4.489a7.034,7.034,0,0,0,5.357,1.9c.655-.075.962-1.147.172-1.275Z" transform="translate(-237.77 -137.011)" fill="#ede0d1"/>
      </g>
      <g id="Group_1027" data-name="Group 1027" transform="translate(0 104.342)">
        <path id="Path_4729" data-name="Path 4729" d="M246.216,141.191a14.125,14.125,0,0,1-4.262,6.127c-2,1.658-4.353,2.169-6.747,2.966a.767.767,0,0,0,.2,1.5c6,.6,10.763-4.961,11.927-10.281a.582.582,0,0,0-1.12-.31Z" transform="translate(-234.665 -140.783)" fill="#ede0d1"/>
      </g>
      <g id="Group_1028" data-name="Group 1028" transform="translate(22.809 43.344)">
        <path id="Path_4730" data-name="Path 4730" d="M272.411,116.4c-2.961-3.212-7.01-5.589-10.674-7.918-3.684-2.343-7.537-4.978-11.606-6.573-.824-.324-1.249.924-.577,1.365,3.643,2.4,7.7,4.195,11.4,6.54,3.668,2.325,7.09,5.255,10.931,7.261a.432.432,0,0,0,.522-.675Z" transform="translate(-249.222 -101.854)" fill="#ede0d1"/>
      </g>
      <g id="Group_1029" data-name="Group 1029" transform="translate(6.785)">
        <path id="Path_4731" data-name="Path 4731" d="M250.849,126.7a15.328,15.328,0,0,1,.008-29.859c3.726-.863,8.14-.519,10.752-3.309,2.095-2.238,2.158-5.649,3.35-8.472a11.322,11.322,0,0,1,13.414-6.144A10.735,10.735,0,0,1,298.022,84.9a14.469,14.469,0,0,1,6.438,1.971c1.871,1.28,3.168,3.667,2.513,5.835-.7,2.31-3.236,3.53-5.6,3.989a18.211,18.211,0,0,1-17.236-6.277q-2,1.57-4,3.137a4.619,4.619,0,1,0-4.43,8.084c-.934,3.195-3.834,5.393-6.744,7.012s-6.083,2.952-8.352,5.387a23.141,23.141,0,0,0-2.133,2.811c-2.391,3.508-5.234,6.343-7.625,9.851" transform="translate(-238.995 -74.192)" fill="#603432"/>
      </g>
      <g id="Group_1030" data-name="Group 1030" transform="translate(56.505 26.513)">
        <path id="Path_4732" data-name="Path 4732" d="M270.726,91.293a3.341,3.341,0,0,0,2.61,3.342c1.261.208,2.9-.533,3.085-1.9.041-.306-.387-.346-.528-.143-.658.95-1.539,1.7-2.78,1.308a3.252,3.252,0,0,1-2.029-2.653c-.034-.205-.367-.157-.359.049Z" transform="translate(-270.726 -91.113)" fill="#603432"/>
      </g>
      <g id="Group_1031" data-name="Group 1031" transform="translate(40.593 25.846)">
        <path id="Path_4733" data-name="Path 4733" d="M262.892,90.908c.125.749.691,2.183-.475,2.419a.847.847,0,0,1-.976-.569.884.884,0,0,1,.548-1.051c.423-.226.132-.97-.332-.791a1.664,1.664,0,0,0,.29,3.2,1.628,1.628,0,0,0,1.7-.943,2.56,2.56,0,0,0-.432-2.4.179.179,0,0,0-.326.138Z" transform="translate(-260.571 -90.687)" fill="#0f1a2e"/>
      </g>
      <path id="Path_4734" data-name="Path 4734" d="M291.268,126.806s6.039-5.644,6.871-3.819a10,10,0,0,1-1.88,10.453Z" transform="translate(-202.575 -46.735)" fill="#e0b6a9"/>
      <g id="Group_1032" data-name="Group 1032" transform="translate(30.379 73.98)">
        <path id="Path_4735" data-name="Path 4735" d="M255.634,121.569c-.53,2.545-1.084,5.086-1.576,7.639-.064.327.434.47.5.139.536-2.546,1.009-5.107,1.507-7.659.055-.282-.373-.4-.434-.119Z" transform="translate(-254.052 -121.406)" fill="#7d71db"/>
      </g>
      <g id="Group_1033" data-name="Group 1033" transform="translate(25.131 88.862)">
        <path id="Path_4736" data-name="Path 4736" d="M250.759,131.285l1.5,1.788a12.624,12.624,0,0,0,1.537,1.752c.223.18.594-.047.422-.324a12,12,0,0,0-1.489-1.706l-1.664-1.819c-.193-.212-.49.1-.31.31Z" transform="translate(-250.703 -130.904)" fill="#7d71db"/>
      </g>
      <g id="Group_1034" data-name="Group 1034" transform="translate(32.23 87.501)">
        <path id="Path_4737" data-name="Path 4737" d="M255.685,133.861c.541-.6,1.086-1.2,1.616-1.819a6.26,6.26,0,0,0,1.252-1.653c.091-.233-.216-.44-.412-.318a6.787,6.787,0,0,0-1.489,1.683c-.464.594-.915,1.2-1.373,1.793-.179.233.212.533.406.315Z" transform="translate(-255.234 -130.035)" fill="#7d71db"/>
      </g>
      <g id="Group_1035" data-name="Group 1035" transform="translate(33.51 94.621)">
        <path id="Path_4738" data-name="Path 4738" d="M256.576,137.465a34.066,34.066,0,0,0,2.8-2.314c.252-.26-.08-.733-.4-.517a35.183,35.183,0,0,0-2.828,2.407c-.3.251.13.671.425.425Z" transform="translate(-256.051 -134.579)" fill="#7d71db"/>
      </g>
      <g id="Group_1036" data-name="Group 1036" transform="translate(21.801 98.918)">
        <path id="Path_4739" data-name="Path 4739" d="M248.727,137.877c1.247.705,2.48,1.481,3.778,2.089a.348.348,0,0,0,.351-.6c-1.222-.749-2.549-1.354-3.826-2.007-.342-.177-.641.326-.3.519Z" transform="translate(-248.578 -137.321)" fill="#7d71db"/>
      </g>
      <g id="Group_1037" data-name="Group 1037" transform="translate(17.72 111.593)">
        <path id="Path_4740" data-name="Path 4740" d="M246.131,145.969a44.967,44.967,0,0,0,4.624,2.2c.356.124.558-.407.251-.594a43.832,43.832,0,0,0-4.566-2.129c-.354-.16-.664.354-.309.528Z" transform="translate(-245.974 -145.411)" fill="#7d71db"/>
      </g>
      <g id="Group_1038" data-name="Group 1038" transform="translate(19.802 117.905)">
        <path id="Path_4741" data-name="Path 4741" d="M251.891,149.524c-.912.874-1.81,1.753-2.648,2.7a9.406,9.406,0,0,0-1.927,2.562c-.078.2.207.432.384.3a16.6,16.6,0,0,0,2.151-2.5c.782-.91,1.6-1.8,2.462-2.631.277-.266-.144-.688-.421-.422Z" transform="translate(-247.302 -149.439)" fill="#7d71db"/>
      </g>
      <g id="Group_1039" data-name="Group 1039" transform="translate(26.861 110.764)">
        <path id="Path_4742" data-name="Path 4742" d="M252.418,144.965l-.132-.052c-.636-.249-.641,1.02,0,.768l.132-.052a.348.348,0,0,0,0-.664Z" transform="translate(-251.807 -144.881)" fill="#7d71db"/>
      </g>
      <g id="Group_1040" data-name="Group 1040" transform="translate(30.345 101.339)">
        <path id="Path_4743" data-name="Path 4743" d="M254.774,139.146l-.052-.114a.339.339,0,0,0-.583,0c-.017.038-.036.075-.053.114-.343.751,1.031.751.688,0Z" transform="translate(-254.031 -138.866)" fill="#7d71db"/>
      </g>
      <g id="Group_1041" data-name="Group 1041" transform="translate(20.851 92.819)">
        <path id="Path_4744" data-name="Path 4744" d="M248.737,133.948l.008-.146c.025-.5-.8-.5-.773,0l.008.146a.379.379,0,0,0,.757,0Z" transform="translate(-247.972 -133.429)" fill="#7d71db"/>
      </g>
      <g id="Group_1042" data-name="Group 1042" transform="translate(29.657 87.703)">
        <path id="Path_4745" data-name="Path 4745" d="M253.948,130.9a.369.369,0,0,0,0-.738.369.369,0,0,0,0,.738Z" transform="translate(-253.592 -130.164)" fill="#7d71db"/>
      </g>
      <g id="Group_1043" data-name="Group 1043" transform="translate(21.052 81.86)">
        <path id="Path_4746" data-name="Path 4746" d="M248.63,131.09a41.577,41.577,0,0,0,4.152-4.155c.191-.257-.19-.641-.447-.448a41.6,41.6,0,0,0-4.144,4.165.31.31,0,0,0,.439.439Z" transform="translate(-248.1 -126.435)" fill="#7d71db"/>
      </g>
      <g id="Group_1044" data-name="Group 1044" transform="translate(24.413 79.68)">
        <path id="Path_4747" data-name="Path 4747" d="M250.58,125.738a.347.347,0,0,0,0-.694.347.347,0,0,0,0,.694Z" transform="translate(-250.245 -125.044)" fill="#7d71db"/>
      </g>
      <g id="Group_1045" data-name="Group 1045" transform="translate(18.377 74.383)">
        <path id="Path_4748" data-name="Path 4748" d="M246.423,122.012c.912,1.691,1.669,3.551,2.717,5.155a.3.3,0,0,0,.523-.306c-.774-1.753-1.919-3.4-2.839-5.083-.144-.263-.542-.03-.4.233Z" transform="translate(-246.393 -121.663)" fill="#7d71db"/>
      </g>
      <g id="Group_1046" data-name="Group 1046" transform="translate(24.536 70.882)">
        <path id="Path_4749" data-name="Path 4749" d="M250.682,120.17a.371.371,0,0,0,0-.741.371.371,0,0,0,0,.741Z" transform="translate(-250.323 -119.429)" fill="#7d71db"/>
      </g>
      <g id="Group_1047" data-name="Group 1047" transform="translate(17.042 66.307)">
        <path id="Path_4750" data-name="Path 4750" d="M245.657,117a27.225,27.225,0,0,0,3.034,2.114c.318.165.711-.268.406-.526a27.99,27.99,0,0,0-3.178-2.034c-.287-.18-.53.259-.262.447Z" transform="translate(-245.541 -116.509)" fill="#7d71db"/>
      </g>
      <g id="Group_1048" data-name="Group 1048" transform="translate(21.815 61.198)">
        <path id="Path_4751" data-name="Path 4751" d="M249.027,117.4c.79-.52,1.559-1.073,2.3-1.666a7.473,7.473,0,0,0,2.035-1.981.337.337,0,0,0-.458-.458,13.572,13.572,0,0,0-1.852,1.753,20.036,20.036,0,0,1-2.327,1.832c-.318.215-.022.733.3.519Z" transform="translate(-248.587 -113.248)" fill="#7d71db"/>
      </g>
      <g id="Group_1049" data-name="Group 1049" transform="translate(22.063 58.61)">
        <path id="Path_4752" data-name="Path 4752" d="M249.09,112.312a.357.357,0,0,0,0-.715.357.357,0,0,0,0,.715Z" transform="translate(-248.745 -111.597)" fill="#7d71db"/>
      </g>
      <g id="Group_1050" data-name="Group 1050" transform="translate(27.272 52.71)">
        <path id="Path_4753" data-name="Path 4753" d="M252.194,108.315q1,.609,2,1.216a8,8,0,0,0,1.862,1.017.278.278,0,0,0,.268-.461,8.054,8.054,0,0,0-1.811-1.1q-1.029-.559-2.057-1.122a.26.26,0,0,0-.262.448Z" transform="translate(-252.069 -107.832)" fill="#7d71db"/>
      </g>
      <g id="Group_1051" data-name="Group 1051" transform="translate(38.014 59.499)">
        <path id="Path_4754" data-name="Path 4754" d="M259.26,112.857a.346.346,0,0,0,0-.693.346.346,0,0,0,0,.693Z" transform="translate(-258.925 -112.164)" fill="#7d71db"/>
      </g>
      <g id="Group_1052" data-name="Group 1052" transform="translate(33.213 62.308)">
        <path id="Path_4755" data-name="Path 4755" d="M256.423,114.274a40.193,40.193,0,0,0-.562,4.826.312.312,0,0,0,.609.083,41.115,41.115,0,0,0,.619-4.909c.05-.425-.614-.42-.666,0Z" transform="translate(-255.861 -113.957)" fill="#7d71db"/>
      </g>
      <g id="Group_1053" data-name="Group 1053" transform="translate(26.769 67.267)">
        <path id="Path_4756" data-name="Path 4756" d="M252.067,117.78a.329.329,0,0,0,0-.658.329.329,0,0,0,0,.658Z" transform="translate(-251.749 -117.122)" fill="#7d71db"/>
      </g>
      <g id="Group_1054" data-name="Group 1054" transform="translate(37.651 69.634)">
        <path id="Path_4757" data-name="Path 4757" d="M259.44,118.882c-.024-.034-.05-.069-.075-.1a.312.312,0,0,0-.531,0l-.077.1c-.185.248.067.594.343.594s.526-.346.34-.594Z" transform="translate(-258.694 -118.632)" fill="#7d71db"/>
      </g>
      <g id="Group_1055" data-name="Group 1055" transform="translate(35.848 76.753)">
        <path id="Path_4758" data-name="Path 4758" d="M257.7,123.79a42.391,42.391,0,0,0,4.519,2.8c.338.158.78-.295.436-.563a43.235,43.235,0,0,0-4.624-2.806.328.328,0,0,0-.331.566Z" transform="translate(-257.543 -123.176)" fill="#7d71db"/>
      </g>
      <g id="Group_1056" data-name="Group 1056" transform="translate(46.652 69.634)">
        <path id="Path_4759" data-name="Path 4759" d="M265.348,118.854c-.315,1.667-.749,3.363-.909,5.053-.034.37.547.434.638.086.423-1.614.588-3.331.859-4.978.064-.382-.516-.552-.588-.161Z" transform="translate(-264.438 -118.632)" fill="#7d71db"/>
      </g>
      <g id="Group_1057" data-name="Group 1057" transform="translate(41.829 66.531)">
        <path id="Path_4760" data-name="Path 4760" d="M261.683,117.321a.335.335,0,0,0,0-.669.335.335,0,0,0,0,.669Z" transform="translate(-261.36 -116.652)" fill="#7d71db"/>
      </g>
      <g id="Group_1058" data-name="Group 1058" transform="translate(44.792 81.337)">
        <path id="Path_4761" data-name="Path 4761" d="M263.682,126.994a.447.447,0,0,0,0-.893.447.447,0,0,0,0,.893Z" transform="translate(-263.251 -126.101)" fill="#7d71db"/>
      </g>
      <g id="Group_1059" data-name="Group 1059" transform="translate(47.479 83.867)">
        <path id="Path_4762" data-name="Path 4762" d="M265.62,131.936a26.8,26.8,0,0,0,2.269-3.728c.147-.356-.41-.668-.649-.378a26.638,26.638,0,0,0-2.223,3.753.35.35,0,0,0,.6.353Z" transform="translate(-264.966 -127.716)" fill="#7d71db"/>
      </g>
      <g id="Group_1060" data-name="Group 1060" transform="translate(49.036 75.318)">
        <path id="Path_4763" data-name="Path 4763" d="M266.058,122.761c1.5,1.29,2.905,2.971,4.632,3.952.307.174.555-.212.356-.461-1.222-1.534-3.074-2.648-4.563-3.916-.291-.251-.718.171-.425.425Z" transform="translate(-265.959 -122.26)" fill="#7d71db"/>
      </g>
      <g id="Group_1061" data-name="Group 1061" transform="translate(59.388 85.803)">
        <path id="Path_4764" data-name="Path 4764" d="M273.157,129.94l.133-.052a.443.443,0,0,0,0-.845l-.133-.052c-.785-.309-.79,1.258,0,.948Z" transform="translate(-272.566 -128.951)" fill="#7d71db"/>
      </g>
      <g id="Group_1062" data-name="Group 1062" transform="translate(53.26 89.95)">
        <path id="Path_4765" data-name="Path 4765" d="M269.247,131.6l-.146-.006a.463.463,0,0,0,0,.924l.146,0a.457.457,0,0,0,0-.913Z" transform="translate(-268.655 -131.598)" fill="#7d71db"/>
      </g>
      <g id="Group_1063" data-name="Group 1063" transform="translate(26.366 72.086)">
        <path id="Path_4766" data-name="Path 4766" d="M251.516,120.354c7.869,8.718,15.276,17.758,23.958,25.71.365.334.913-.212.545-.547-8.66-7.875-16.393-16.743-24.377-25.292-.078-.085-.2.042-.127.128Z" transform="translate(-251.492 -120.197)" fill="#193f77"/>
      </g>
      <g id="Group_1064" data-name="Group 1064" transform="translate(50.14 88.103)">
        <path id="Path_4767" data-name="Path 4767" d="M266.742,140.009c2.4-.094,4.478-1.866,6.446-3.076,3.173-1.951,6.362-3.884,9.485-5.912.345-.222.033-.766-.323-.553-2.661,1.6-5.274,3.278-7.9,4.934-2.463,1.554-4.922,3.582-7.731,4.448a.081.081,0,0,0,.022.158Z" transform="translate(-266.664 -130.419)" fill="#193f77"/>
      </g>
      <g id="Group_1065" data-name="Group 1065" transform="translate(17.927 93.418)">
        <path id="Path_4768" data-name="Path 4768" d="M246.211,134.289c.62.472,1.217.973,1.833,1.449a8.79,8.79,0,0,0,1.592,1.134.293.293,0,0,0,.353-.458,9.109,9.109,0,0,0-1.658-1.268c-.617-.437-1.254-.848-1.868-1.29-.263-.188-.5.241-.252.431Z" transform="translate(-246.106 -133.811)" fill="#193f77"/>
      </g>
      <g id="Group_1066" data-name="Group 1066" transform="translate(18.096 93.156)">
        <path id="Path_4769" data-name="Path 4769" d="M246.368,134.081c1.453.5,3.529,1.188,5.066.76a.235.235,0,0,0,0-.448,13.449,13.449,0,0,0-2.209-.2,16.109,16.109,0,0,1-2.739-.542.222.222,0,0,0-.117.428Z" transform="translate(-246.214 -133.644)" fill="#193f77"/>
      </g>
      <g id="Group_1067" data-name="Group 1067" transform="translate(54.734 35.344)">
        <path id="Path_4770" data-name="Path 4770" d="M269.977,96.87c-1.059,1.683.2,4.474,2.39,4.094.285-.05.244-.464,0-.537a2.9,2.9,0,0,1-1.778-1.015,2.385,2.385,0,0,1-.116-2.333c.122-.291-.34-.458-.5-.208Z" transform="translate(-269.596 -96.748)" fill="#e08d85"/>
      </g>
      <g id="Group_1068" data-name="Group 1068" transform="translate(53.529 35.552)">
        <path id="Path_4771" data-name="Path 4771" d="M269.2,98.276a2.037,2.037,0,0,1,2.024-.693.3.3,0,0,0,.161-.584,2.1,2.1,0,0,0-2.535,1.073.2.2,0,0,0,.349.2Z" transform="translate(-268.827 -96.881)" fill="#e08d85"/>
      </g>
      <g id="Group_1069" data-name="Group 1069" transform="translate(51.94 31.581)" opacity="0.57">
        <path id="Path_4772" data-name="Path 4772" d="M268.772,94.615a.8.8,0,0,0-.943.633,1.193,1.193,0,0,0,.481,1.117,2.469,2.469,0,0,0,1.186.442c.787.116,1.788-.078,2.012-.841a1.36,1.36,0,0,0-1.048-1.539,3.945,3.945,0,0,0-2.042.165" transform="translate(-267.812 -94.347)" fill="#e08d85"/>
      </g>
    </g>
  </g>
</svg>
