<svg id="Group_825" data-name="Group 825" xmlns="http://www.w3.org/2000/svg" width="206.933" height="331.2" viewBox="0 0 206.933 331.2">
  <path id="Path_4263" data-name="Path 4263" d="M209.065,212.232a.805.805,0,0,1,1.36.862c-.091.144-31.985,49.7-6.793,78.591a.8.8,0,0,1-1.209,1.058C176.429,262.936,208.972,212.379,209.065,212.232Z" transform="translate(-157.645 -122.45)" fill="#000618" fill-rule="evenodd"/>
  <path id="Path_4264" data-name="Path 4264" d="M284.508,206.583a.8.8,0,1,1,1.358-.856c.052.081,18.271,28.359-.945,50.084a.8.8,0,1,1-1.2-1.064C302.126,233.936,284.557,206.662,284.508,206.583Z" transform="translate(-140.081 -123.704)" fill="#000618" fill-rule="evenodd"/>
  <path id="Path_4265" data-name="Path 4265" d="M214.211,184.228,200.776,199a53.91,53.91,0,0,1,5.793,26.314c-.639,14.929-50.972,97.679,42.014,97.253s41.252-48.4,41.252-48.4,30.673-9.933,15.184-54.345S214.211,184.228,214.211,184.228Z" transform="translate(-157.637 -127.911)" fill="#000618" fill-rule="evenodd"/>
  <path id="Path_4266" data-name="Path 4266" d="M288.1,271.235c-.54-.541-.856-.835-.856-.835a20,20,0,0,0,2.784-1.239,83.782,83.782,0,0,0,7.944-10.492c12.682-19.714-.815-46.817-.815-46.817l-7.176-2.143s-14.291-5.118-18.129-6.4-48.2,1.492-60.782,25.165,1.434,57.992,1.434,57.992,52.311-1.689,55.3-1.9C270.025,284.408,278.625,281.059,288.1,271.235Z" transform="translate(-155.049 -124.147)" fill="#01020e" fill-rule="evenodd"/>
  <path id="Path_4267" data-name="Path 4267" d="M302.643,271.046c14.939,6.523,16.878,20.181,18.819,35.381,1.721,13.48,2.26,33.819-1.289,64.718s-60.021-40.761-60.021-40.761Z" transform="translate(-144.583 -111.046)" fill="#ef8871" fill-rule="evenodd"/>
  <path id="Path_4268" data-name="Path 4268" d="M233.463,271.905l-14.5-7.418s-15.321,3.813-23.16,13.666-31.577,94.064-32.473,104.365,6.083,49.548,18.849,49.548,19.116-85.8,19.116-85.8l10.426-32.16Z" transform="translate(-163.253 -112.31)" fill="#f4ad85" fill-rule="evenodd"/>
  <path id="Path_4269" data-name="Path 4269" d="M232.948,271.905l-14.5-7.418a57.39,57.39,0,0,0-10.587,4.067c1.878.908,3.347,3.227,3.175,8.369-.447,13.439-20.941,64.724-25.419,79.057s-8.062,22.843-8.062,22.843l-9.334-19.575c-.843,3.163-1.611,6.127-2.291,8.827,3.492,18.816,7.835,44.609,8.425,59.354,2.165,2.872,4.606,4.636,7.31,4.636,12.765,0,19.116-85.8,19.116-85.8l10.426-32.16Z" transform="translate(-162.737 -112.31)" fill="#ef8871" fill-rule="evenodd"/>
  <path id="Path_4270" data-name="Path 4270" d="M265.207,255.194s38.533,13.734,49.415,18.906c-.019.02-2.08,2.173-4.42,13.985-2.351,11.871,0,29.115-2.462,46.136-1.781,12.3-10.108,74.518-14.592,108.1l-94.987-7.663c-.029-1.5-.089-3.3-.177-5.335,7.8,6.074,15.278,6.345,10.651-11.4-8.064-30.907-6.5-84.657-3.808-100.782s6.691-33.1,2.884-49.445C210.266,265.4,265.207,255.194,265.207,255.194Z" transform="translate(-156.561 -114.101)" fill="#d84f50" fill-rule="evenodd"/>
  <path id="Path_4271" data-name="Path 4271" d="M289.759,262.958c9.64,3.616,19.43,7.422,24.107,9.646-.019.02-2.08,2.173-4.42,13.985-2.351,11.871,0,29.115-2.462,46.136-.357,2.463-.977,6.929-1.775,12.762-21.461,3.344-84.851,10.605-100.063,9.258a27.083,27.083,0,0,1-3.248-.49c0-16.771.974-31.423,2.172-38.607.068-.413.138-.827.209-1.239,5.369,15.847,72.969,24.705,72.969,24.705s11.21-24.793,8.3-33.976-16.354-8.926-16.354-8.926l.341-8.207s13.44-18.2,16.669-23.735C286.608,263.573,287.864,263.155,289.759,262.958Z" transform="translate(-155.806 -112.605)" fill="#c23e3e" fill-rule="evenodd"/>
  <path id="Path_4272" data-name="Path 4272" d="M294.975,265.151l.794.3c-1.711,6.906-4.005,15.006-7.207,19.779-2.887,4.3-6.259,8.266-11.156,11.1s-11.29,4.538-20.223,4.311a29.911,29.911,0,0,1-18.885-7.142,39.3,39.3,0,0,1-11.966-18.783c-2.46-8.585-4.778-11.446-5.567-12.221l.94-.208c1.1,1.29,3.258,4.582,5.441,12.2a38.439,38.439,0,0,0,11.7,18.371,29.086,29.086,0,0,0,18.362,6.943c8.759.222,15.013-1.436,19.779-4.2s8.053-6.636,10.878-10.844c3.145-4.688,5.418-12.752,7.114-19.612Zm15.828,6.312c.241.1.475.206.7.307-1.853,3.283-4.464,10.179-6.866,24.608-2.877,17.294.42,25.093,2.943,28.375-.027.395-.056.79-.088,1.184-2.706-3.071-6.8-11.012-3.688-29.7,2.358-14.175,5.025-21.253,7-24.775Zm-107.622,49.1q.089-.814.182-1.566c2.166-4.261,10.407-23.01,5.709-53.619.256-.08.525-.159.818-.242,5.4,35.006-6.025,54.751-6.293,55.206a.429.429,0,0,1-.092.117A.424.424,0,0,1,203.181,320.567Z" transform="translate(-155.56 -112.733)" fill="#b23539" fill-rule="evenodd"/>
  <path id="Path_4273" data-name="Path 4273" d="M257.976,220.633l.29,0a15.231,15.231,0,0,1,15.387,15.035l.193,30.851c5.594,2.044,12.286,4.523,18.553,6.916-9.862,21.3-21.492,35.367-40.08,31.336-25.461-5.522-24.555-26.9-32.309-34.783,7.243-1.57,15.741-3.276,23.115-4.718l-.184-29.248A15.284,15.284,0,0,1,257.976,220.633Z" transform="translate(-152.317 -120.76)" fill="#ef8871" fill-rule="evenodd"/>
  <path id="Path_4274" data-name="Path 4274" d="M269.441,229.952a14.905,14.905,0,0,1,.945,5.137l.193,30.851c5.594,2.044,12.286,4.523,18.553,6.916-7.253,15.662-15.464,27.417-26.7,30.936,17.86-12.045,12.37-26.922,8.563-28.491s-34.033-10.043-34.033-10.043l2.891-.567-.184-29.248a15.318,15.318,0,0,1,5.464-11.821C253.192,223.547,261.214,226.045,269.441,229.952Z" transform="translate(-149.05 -120.184)" fill="#ea745d" fill-rule="evenodd"/>
  <path id="Path_4275" data-name="Path 4275" d="M282.609,196.13c.3,0,.592.011.884.031l.008,0h0a11.893,11.893,0,1,1-9.52,3.679c.163,3.518,1.289,7.751,5.787,7.591l-1.033-6.777C278.317,197.912,280.714,196.305,282.609,196.13Z" transform="translate(-142.547 -125.481)" fill="#ea745d" fill-rule="evenodd"/>
  <path id="Path_4276" data-name="Path 4276" d="M210.879,207.376c-.286.079-.568.165-.844.262l-.008,0h0a11.892,11.892,0,1,0,10.152,1.06c.762,3.44.782,7.819-3.6,8.842l-.776-6.813C215.49,207.972,212.757,207.049,210.879,207.376Z" transform="translate(-155.768 -123.326)" fill="#ea745d" fill-rule="evenodd"/>
  <path id="Path_4277" data-name="Path 4277" d="M245.955,152.425h0A40.827,40.827,0,0,1,291.676,187.4l4.884,36.7a40.826,40.826,0,0,1-34.98,45.72h0a40.824,40.824,0,0,1-45.716-34.979l-4.885-36.7A40.824,40.824,0,0,1,245.955,152.425Z" transform="translate(-154.126 -133.97)" fill="#f4ad85" fill-rule="evenodd"/>
  <path id="Path_4278" data-name="Path 4278" d="M245.955,152.425h0a40.842,40.842,0,0,1,45.122,31.6A16.956,16.956,0,0,1,289.219,190l-18.807-1.1s-12.379,23.665-37.8,29.415c-6.835,1.546-8.98,8.435-7.583,14.979,3.4,15.939,17.083,38.78,50.779,31.842a40.353,40.353,0,0,1-14.224,4.688h0a40.825,40.825,0,0,1-45.716-34.979l-4.885-36.7A40.824,40.824,0,0,1,245.955,152.425Z" transform="translate(-154.126 -133.97)" fill="#ef8871" fill-rule="evenodd"/>
  <path id="Path_4279" data-name="Path 4279" d="M234.795,220.192a5.354,5.354,0,1,1-4.486,6.1A5.354,5.354,0,0,1,234.795,220.192Z" transform="translate(-150.345 -120.856)" fill="#ea745d" fill-rule="evenodd"/>
  <path id="Path_4280" data-name="Path 4280" d="M271.584,214.371a5.354,5.354,0,1,1-4.486,6.1A5.356,5.356,0,0,1,271.584,214.371Z" transform="translate(-143.256 -121.978)" fill="#ea745d" fill-rule="evenodd"/>
  <path id="Path_4281" data-name="Path 4281" d="M229.085,202.948a1.529,1.529,0,0,0-.379,3.034,15.506,15.506,0,0,0,4.383-.124,12.278,12.278,0,0,0,7.655-4.205,1.53,1.53,0,0,0-2.359-1.948C236.153,202.414,232.444,203.3,229.085,202.948Z" transform="translate(-150.899 -124.898)" fill="#01020e" fill-rule="evenodd"/>
  <path id="Path_4282" data-name="Path 4282" d="M287.694,278.027s1.554-.224,1.9.994-4.8,7.769-5.138,7.993-10.553-1.064-10.553-1.064-.539-.5-.425-.892a1.9,1.9,0,0,1,.494-.728Z" transform="translate(-142.017 -109.705)" fill="#000618" fill-rule="evenodd"/>
  <path id="Path_4283" data-name="Path 4283" d="M273.514,192.923c-3.341-.6-7.083-.06-9.544,2.475a1.53,1.53,0,1,1-2.193-2.132,12.273,12.273,0,0,1,7.972-3.571,15.519,15.519,0,0,1,4.375.233,1.529,1.529,0,0,1-.609,3Z" transform="translate(-144.353 -126.732)" fill="#01020e" fill-rule="evenodd"/>
  <path id="Path_4284" data-name="Path 4284" d="M224.014,219.445s.359,2.7.692,5.2-4.473,9.206-6.393,9.46l-1.217-9.141s-1.373-4.084-6.548-3.393c-18.312-16.146-20.075-45.407-5.123-62.692s51.237-23.093,57.876-21.82,14.625,11.187,14.625,11.187,4.754-5.534,10.1-3.7,26.308,31.2,27.36,39.1-12.156,25.586-12.156,25.586c-5.176.688-5.433,4.988-5.433,4.988l.756,5.683c-1.92.256-3.337-2.174-3.67-4.679s-.693-5.2-.693-5.2c-16.889-4.959-26.049-25.578-26.049-25.578S250.539,219.794,224.014,219.445Z" transform="translate(-157.063 -136.894)" fill="#000618" fill-rule="evenodd"/>
  <path id="Path_4285" data-name="Path 4285" d="M195.381,187.061A44.614,44.614,0,0,1,200.6,165.68c16.559,12.828,43.307,21.418,65.586-27.793a24.249,24.249,0,0,1,4.222,2.738C261.783,165.651,239.739,209.354,195.381,187.061Z" transform="translate(-157.062 -136.702)" fill="#0f1630" fill-rule="evenodd"/>
  <path id="Path_4286" data-name="Path 4286" d="M223.807,212.582s.359,2.7.692,5.2-4.473,9.206-6.393,9.46l-1.217-9.141s-1.373-4.084-6.548-3.393a44.942,44.942,0,0,1-13.886-23.479c.024.017,31.368,21.788,69.956-18.719,0,0,17.655,27.534,43.485,19.332a118.7,118.7,0,0,1-6.877,10.53c-5.176.688-5.433,4.988-5.433,4.988l.757,5.683c-1.921.256-3.338-2.174-3.671-4.679s-.693-5.2-.693-5.2c-16.889-4.959-26.049-25.578-26.049-25.578S250.332,212.931,223.807,212.582Z" transform="translate(-156.855 -130.031)" fill="#01020e" fill-rule="evenodd"/>
  <path id="Path_4287" data-name="Path 4287" d="M285.29,256.745l2.642.72s1.547-13.786,1.534-15.122a15.978,15.978,0,0,0-1.716-5.508c-1.019-2.252-4.755-10.763-4.956-11.035s-2.617,1.825-1.528,5.553,2.934,8.776,2.917,9.855-2.484,10.629-2.484,10.629Z" transform="translate(-140.569 -119.768)" fill="#ef8871" fill-rule="evenodd"/>
  <path id="Path_4288" data-name="Path 4288" d="M291.57,253.872a5.873,5.873,0,0,0-3.078-5.118c-2.648-1.607-8.9-6.559-10.234-7.138a4.662,4.662,0,0,0-4.444.693,78.463,78.463,0,0,0-7.64,5.544c-1.053,1.095-3.679,7.841-4,8.549s2.32,1.35,4.427-.246c0,0-1.1,2.214-1.457,2.964s-.842,6.454-.885,7.61,3.153.578,4.238-2.08c0,0-.174,1.914-.175,2.509s1.828.371,1.828.371,2.109,11.439,2.582,12.867,18.633,66.729,18.633,66.729l26.27-1.586s-28.657-64.091-28.847-65.033C287.16,272.442,291.6,260.65,291.57,253.872Z" transform="translate(-144.199 -116.775)" fill="#f4ad85" fill-rule="evenodd"/>
  <path id="Path_4289" data-name="Path 4289" d="M268.854,264.952l.112.6h0l.041.219,0,.021,0,.01.006.031.006.032.006.032.006.027v0l.007.033.011.067.007.035v0l.02.1.007.037c.562,3.013,1.971,10.472,2.347,11.607.349,1.059,10.426,37.24,15.611,55.871a75.331,75.331,0,0,0,10.032-4.938s-20.324-47.31-20.8-49.174.643-3.343.25-3.846-1.961-1.232-2.352-2.576-1.344-6.1-.728-8.006c.475-1.469,2.018-1.289,2.7-1.131a17.871,17.871,0,0,0,1.993.5c1.019.135.942-.488.942-.488.224-2.106,2.27-5.106,2.27-5.106-1.114-.606-2.84-3.477-2.84-3.477-1.138-.491-2.031-1.124-2.92-.5a22,22,0,0,0-3.369,3.422,33.3,33.3,0,0,1-.683,4.428C271.119,264.489,268.854,264.952,268.854,264.952Z" transform="translate(-142.906 -114.198)" fill="#ef8871" fill-rule="evenodd"/>
  <g id="Group_824" data-name="Group 824" transform="translate(0.39 209.821)">
    <path id="Path_4290" data-name="Path 4290" d="M171.187,416.439H361.634a5.547,5.547,0,0,0,5.319-5.722h0a5.547,5.547,0,0,0-5.319-5.721H171.187a5.548,5.548,0,0,0-5.319,5.721h0A5.548,5.548,0,0,0,171.187,416.439Z" transform="translate(-163.139 -295.06)" fill="#000618" fill-rule="evenodd"/>
    <path id="Path_4291" data-name="Path 4291" d="M365.529,312.819H168.173a4.491,4.491,0,0,0-4.533,5.336l15.084,100.182a6.451,6.451,0,0,0,6.14,5.337H348.838a6.453,6.453,0,0,0,6.141-5.337l15.084-100.182A4.491,4.491,0,0,0,365.529,312.819Z" transform="translate(-163.58 -312.819)" fill="#000618" fill-rule="evenodd"/>
    <path id="Path_4292" data-name="Path 4292" d="M360.4,316.789H171.82a4.292,4.292,0,0,0-4.332,5.1L181.9,417.613a6.164,6.164,0,0,0,5.867,5.1h156.68a6.164,6.164,0,0,0,5.868-5.1l14.413-95.725A4.291,4.291,0,0,0,360.4,316.789Z" transform="translate(-162.838 -312.054)" fill="#0f1630" fill-rule="evenodd"/>
    <path id="Path_4293" data-name="Path 4293" d="M176.465,393.021l3.7,24.551a6.164,6.164,0,0,0,5.867,5.1h156.68a6.164,6.164,0,0,0,5.868-5.1l14.413-95.725A4.285,4.285,0,0,0,360.2,317C338.616,354.237,285.572,415.228,176.465,393.021Z" transform="translate(-161.097 -312.013)" fill="#000618" fill-rule="evenodd"/>
    <path id="Path_4294" data-name="Path 4294" d="M253.556,389.922c11.553,0,20.976-7.866,20.976-17.51S265.11,354.9,253.556,354.9s-20.974,7.866-20.974,17.508S242,389.922,253.556,389.922Z" transform="translate(-150.285 -304.71)" fill="#000618" fill-rule="evenodd"/>
    <path id="Path_4295" data-name="Path 4295" d="M252.743,358.429c5.868,0,10.994,2.647,13.76,6.588l-24.385,16.631a12.437,12.437,0,0,1-5.312-9.915c0-7.347,7.136-13.3,15.938-13.3Zm12.948,21.063-7.323-4.031-12.213,8.39a18.546,18.546,0,0,0,6.588,1.187A17.054,17.054,0,0,0,265.69,379.492Z" transform="translate(-149.471 -304.031)" fill="#fff" fill-rule="evenodd"/>
  </g>
  <path id="Path_4296" data-name="Path 4296" d="M268.424,201.641h0a3.41,3.41,0,0,0-2.825,3.893l.7,4.383a3.411,3.411,0,0,0,3.894,2.825h0a3.411,3.411,0,0,0,2.825-3.9l-.7-4.382A3.412,3.412,0,0,0,268.424,201.641Z" transform="translate(-143.542 -124.427)" fill="#01020e" fill-rule="evenodd"/>
  <path id="Path_4297" data-name="Path 4297" d="M234.241,206.82h0a3.41,3.41,0,0,0-2.825,3.894l.7,4.382a3.412,3.412,0,0,0,3.9,2.825h0a3.41,3.41,0,0,0,2.823-3.9l-.7-4.382A3.41,3.41,0,0,0,234.241,206.82Z" transform="translate(-150.128 -123.429)" fill="#01020e" fill-rule="evenodd"/>
  <path id="Path_4298" data-name="Path 4298" d="M267.358,227.188a1.238,1.238,0,0,1,.241,1.706,1.18,1.18,0,0,1-1.686.1c-.012-.011-4.078-3.558-11.324,3.115a1.26,1.26,0,0,1-1.711-1.839C261.625,222.217,267.341,227.175,267.358,227.188Z" transform="translate(-146.052 -119.79)" fill="#ef8871" fill-rule="evenodd"/>
  <path id="Path_4299" data-name="Path 4299" d="M288.693,278.264a.767.767,0,0,1,.612.735c.083.671-3.978,5.949-15.342,6.349,0,0-.272-.085-.314-.259s.137-.37.137-.37l-.058-.212s-.409.293-.409.644,1.68,7.37,2.017,9.133,3.789,1.356,6.71.649,9.882-3.144,11.711-6.919a3.651,3.651,0,0,0-.056-1.765c-.28-.812-3.807-7.348-3.989-7.74a1.091,1.091,0,0,0-1.133-.509Z" transform="translate(-142.046 -109.71)" fill="#0f1630" fill-rule="evenodd"/>
  <path id="Path_4300" data-name="Path 4300" d="M279.358,283.668a32.088,32.088,0,0,1-5.4.625s-.272-.085-.314-.259.137-.37.137-.37l-.058-.212s-.409.293-.409.644,1.68,7.37,2.017,9.133,3.789,1.356,6.71.649c.414-.1.912-.235,1.466-.405l-4.153-9.8Z" transform="translate(-142.046 -108.656)" fill="#000618" fill-rule="evenodd"/>
</svg>
