<svg xmlns="http://www.w3.org/2000/svg" width="78.471" height="67.386" viewBox="0 0 78.471 67.386">
  <g id="Group_829" data-name="Group 829" transform="translate(0 0.001)">
    <path id="Path_4306" data-name="Path 4306" d="M97.07,264.051a89.932,89.932,0,0,1,20.855-2.445h0A18.228,18.228,0,0,0,136.1,243.432h0a18,18,0,0,0-.182-2.564h28.741a7.908,7.908,0,0,1,7.885,7.885v55.618a.881.881,0,0,1-1.5.624L157.6,291.558H104.955a7.907,7.907,0,0,1-7.885-7.885Z" transform="translate(-94.072 -237.87)" fill="#a6cae4" fill-rule="evenodd"/>
    <path id="Path_4307" data-name="Path 4307" d="M102.441,238.354h59.7a7.907,7.907,0,0,1,7.885,7.884v55.619a.88.88,0,0,1-1.5.623L155.09,289.043H102.441a7.907,7.907,0,0,1-7.885-7.884V246.238A7.907,7.907,0,0,1,102.441,238.354Z" transform="translate(-94.556 -238.354)" fill="#dc5645" fill-rule="evenodd"/>
    <g id="surface1" transform="translate(21.894 7.714)">
      <path id="Path_4337" data-name="Path 4337" d="M32.239,13.661s-2.559-4.3-4.107-6.88a6.266,6.266,0,0,0-3.39-2.465L20.221,3.025a.349.349,0,0,0-.088-.008A.548.548,0,0,0,20.044,3H12.285a.548.548,0,0,0-.088.018.349.349,0,0,0-.088.008L7.587,4.316A6.266,6.266,0,0,0,4.2,6.781C2.649,9.36.091,13.661.091,13.661a.646.646,0,0,0,.222.884L4.6,17.132a.645.645,0,0,0,.881-.21l1.634-2.614V30.8a.648.648,0,0,0,.647.647H24.571a.648.648,0,0,0,.647-.647v-16.5l1.634,2.614a.647.647,0,0,0,.548.3.641.641,0,0,0,.333-.093l4.284-2.586A.646.646,0,0,0,32.239,13.661ZM19.865,4.293a3.72,3.72,0,0,1-3.7,2.586,3.72,3.72,0,0,1-3.7-2.586Z" transform="translate(0)" fill="#fff"/>
    </g>
  </g>
</svg>
