<svg id="Group_834" data-name="Group 834" xmlns="http://www.w3.org/2000/svg" width="82.085" height="66.986" viewBox="0 0 82.085 66.986">
  <path id="Path_4311" data-name="Path 4311" d="M391.377,119.184H329.261a8.225,8.225,0,0,0-8.2,8.2v57.865a.915.915,0,0,0,1.562.648L336.6,171.92h54.776a8.226,8.226,0,0,0,8.2-8.2V127.386A8.226,8.226,0,0,0,391.377,119.184Z" transform="translate(-317.493 -119.184)" fill="#a6cae4" fill-rule="evenodd"/>
  <path id="Path_4312" data-name="Path 4312" d="M388.385,119.184H326.272a8.226,8.226,0,0,0-8.2,8.2v57.865a.916.916,0,0,0,1.564.648l13.978-13.978h54.775a8.226,8.226,0,0,0,8.2-8.2V127.386A8.225,8.225,0,0,0,388.385,119.184Z" transform="translate(-318.069 -119.184)" fill="#29abe2" fill-rule="evenodd"/>
  <g id="surface1" transform="translate(25.326 8.863)">
    <path id="Path_4338" data-name="Path 4338" d="M17.684,2a6.527,6.527,0,0,0-6.518,6.518v1.3a.652.652,0,1,0,1.3,0v-1.3a5.214,5.214,0,1,1,10.428,0v1.3a.652.652,0,1,0,1.3,0v-1.3A6.527,6.527,0,0,0,17.684,2Zm-5.866,9.125a1.3,1.3,0,0,0-1.3,1.3H7.255a.648.648,0,0,0-.631.509L4.954,20.29a.743.743,0,0,0,.53.9,50.693,50.693,0,0,0,12.2,1.67,50.631,50.631,0,0,0,12.2-1.67.743.743,0,0,0,.53-.9l-1.67-7.353a.646.646,0,0,0-.631-.509H24.853a1.3,1.3,0,1,0-2.607,0H13.121A1.3,1.3,0,0,0,11.818,11.125ZM5.2,22.47,4,30.576a.677.677,0,0,0,.163.53.647.647,0,0,0,.489.224H6.6v.652H8.559V31.33h18.25v.652h1.955V31.33h1.955a.647.647,0,0,0,.489-.224.677.677,0,0,0,.163-.53l-1.2-8.106a52.726,52.726,0,0,1-10.632,1.65,1.95,1.95,0,0,1-3.707,0A52.725,52.725,0,0,1,5.2,22.47Z" fill="#fff"/>
  </g>
</svg>
