<svg id="Group_835" data-name="Group 835" xmlns="http://www.w3.org/2000/svg" width="81.294" height="34.825" viewBox="0 0 81.294 34.825">
  <rect id="Rectangle_313" data-name="Rectangle 313" width="6.719" height="6.719" rx="1.314" transform="translate(0 13.549)" fill="#fff"/>
  <rect id="Rectangle_314" data-name="Rectangle 314" width="6.719" height="6.719" rx="1.314" transform="translate(12.429 13.549)" fill="#a6cae4"/>
  <path id="Rectangle_315" data-name="Rectangle 315" d="M1.314,0H5.4A1.314,1.314,0,0,1,6.718,1.314V5.4A1.314,1.314,0,0,1,5.4,6.719H1.313A1.313,1.313,0,0,1,0,5.406V1.314A1.314,1.314,0,0,1,1.314,0Z" transform="translate(24.859 13.549)" fill="#fff"/>
  <rect id="Rectangle_316" data-name="Rectangle 316" width="6.719" height="6.719" rx="1.314" transform="translate(37.287 13.549)" fill="#a6cae4"/>
  <rect id="Rectangle_317" data-name="Rectangle 317" width="6.718" height="6.719" rx="1.314" transform="translate(49.717 13.549)" fill="#fff"/>
  <rect id="Rectangle_318" data-name="Rectangle 318" width="6.719" height="6.719" rx="1.314" transform="translate(62.146 13.549)" fill="#fff"/>
  <rect id="Rectangle_319" data-name="Rectangle 319" width="6.719" height="6.719" rx="1.314" transform="translate(74.575 13.549)" fill="#fff"/>
  <rect id="Rectangle_320" data-name="Rectangle 320" width="6.719" height="6.718" rx="1.314" transform="translate(37.737)" fill="#fff"/>
  <rect id="Rectangle_321" data-name="Rectangle 321" width="6.719" height="6.718" rx="1.314" transform="translate(50.167)" fill="#a6cae4"/>
  <rect id="Rectangle_322" data-name="Rectangle 322" width="6.719" height="6.718" rx="1.314" transform="translate(62.595)" fill="#fff"/>
  <path id="Rectangle_323" data-name="Rectangle 323" d="M1.314,0H5.4A1.314,1.314,0,0,1,6.718,1.314V5.4A1.314,1.314,0,0,1,5.4,6.718H1.313A1.313,1.313,0,0,1,0,5.4V1.314A1.314,1.314,0,0,1,1.314,0Z" transform="translate(49.717 28.107)" fill="#fff"/>
  <path id="Rectangle_324" data-name="Rectangle 324" d="M1.313,0H5.4A1.314,1.314,0,0,1,6.718,1.314V5.4A1.313,1.313,0,0,1,5.4,6.718H1.314A1.314,1.314,0,0,1,0,5.4V1.313A1.313,1.313,0,0,1,1.313,0Z" transform="translate(62.146 28.107)" fill="#a6cae4"/>
</svg>
