<svg xmlns="http://www.w3.org/2000/svg" width="230.094" height="295.389" viewBox="0 0 230.094 295.389">
  <path id="Path_4262" data-name="Path 4262" d="M199.989,124.265a1.271,1.271,0,0,0-1.016-2.205,1.254,1.254,0,0,0-.674.309q-.961.859-1.9,1.742a1.269,1.269,0,1,0,1.742,1.846q.909-.859,1.844-1.692ZM314.891,414.9a1.27,1.27,0,0,0-.729,2.289,1.256,1.256,0,0,0,.782.249l1.054-.017,1.325-.035.187-.007a1.27,1.27,0,1,0-.11-2.537l-1.456.039-1.054.018Zm10.028-.55a1.27,1.27,0,0,0,.275,2.525l1.156-.119,1.4-.162a1.27,1.27,0,0,0-.334-2.519l-1.339.156-1.156.119Zm9.931-1.45a1.27,1.27,0,0,0,.506,2.489l.753-.148,1.177-.247.586-.13a1.27,1.27,0,1,0-.563-2.476l-.557.123-1.149.241-.753.148Zm9.721-2.418a1.269,1.269,0,1,0,.768,2.42l1.028-.318,1.094-.355.327-.111a1.27,1.27,0,0,0-.828-2.4l-.3.1-1.064.345-1.027.32Zm9.4-3.446a1.269,1.269,0,1,0,1.03,2.32l.858-.373,1.007-.456.482-.224a1.27,1.27,0,1,0-1.089-2.295l-.453.211-.978.442-.856.375Zm8.941-4.5a1.271,1.271,0,0,0,.747,2.36,1.251,1.251,0,0,0,.538-.172l.378-.217.921-.547.906-.556a1.271,1.271,0,0,0-.766-2.345,1.258,1.258,0,0,0-.574.188l-.88.538-.892.531-.378.219Zm8.327-5.524a1.269,1.269,0,0,0,1.547,2.013l.553-.419.823-.64.651-.521a1.27,1.27,0,1,0-1.6-1.974l-.626.5-.8.62-.553.42Zm7.59-6.5a1.269,1.269,0,1,0,1.783,1.807l.513-.5.725-.723.58-.594a1.269,1.269,0,1,0-1.826-1.764l-.559.573-.7.7-.513.5Zm6.739-7.387a1.269,1.269,0,1,0,1.988,1.579l.369-.459.626-.8.588-.768a1.27,1.27,0,1,0-2.025-1.531l-.57.743-.607.774-.369.459Zm5.8-8.151a1.27,1.27,0,1,0,2.16,1.337l.205-.326.525-.86.608-1.023a1.27,1.27,0,0,0-2.205-1.262l-.577.973-.51.835-.205.326Zm4.805-8.779a1.27,1.27,0,1,0,2.3,1.085l.491-1.053.416-.917.166-.378a1.27,1.27,0,1,0-2.33-1.008l-.155.353-.4.892-.481,1.026Zm3.775-9.26a1.27,1.27,0,1,0,2.409.8l.3-.884.314-.96.188-.6a1.27,1.27,0,0,0-2.427-.75l-.18.569-.305.934-.3.884Zm2.744-9.636a1.27,1.27,0,1,0,2.481.544l.167-.739.214-.992.156-.775a1.269,1.269,0,1,0-2.49-.494l-.153.75-.208.966-.167.741Zm1.714-9.875a1.269,1.269,0,1,0,2.522.287l.075-.638.111-1.015.088-.9a1.27,1.27,0,1,0-2.528-.235l-.086.873-.107.989-.075.637Zm.689-10a1.271,1.271,0,0,0,2.446.5,1.3,1.3,0,0,0,.093-.465l.011-.593.007-1.027,0-.945a1.269,1.269,0,1,0-2.538.02l0,.918-.007,1-.011.593Zm-.318-10.021a1.27,1.27,0,0,0,2.53-.223l-.051-.613-.1-1.03-.094-.909a1.27,1.27,0,1,0-2.525.272l.092.884.093,1.005.051.614Zm-1.311-9.94a1.269,1.269,0,1,0,2.494-.475l-.13-.7-.2-1.025-.163-.788a1.269,1.269,0,1,0-2.484.522l.156.764.2,1,.131.7Zm-2.286-9.762a1.269,1.269,0,1,0,2.434-.722l-.252-.867-.305-1.008-.181-.582a1.27,1.27,0,1,0-2.42.772l.175.557.3.984.252.866Zm-3.244-9.5a1.269,1.269,0,1,0,2.357-.942l-.448-1.112-.409-.982-.125-.29a1.27,1.27,0,0,0-2.328,1.015l.115.266.4.957.44,1.088Zm-4.166-9.114a1.27,1.27,0,0,0,2.248-1.182l-.243-.465-.5-.949-.463-.848a1.269,1.269,0,1,0-2.222,1.228l.451.825.491.924.242.466Zm-5.053-8.652a1.27,1.27,0,0,0,2.111-1.412l-.582-.88-.612-.905-.238-.343a1.27,1.27,0,1,0-2.08,1.456l.223.322.6.883.582.88Zm-5.9-8.109a1.27,1.27,0,0,0,1.966-1.61l-.423-.521-.708-.855-.506-.6a1.271,1.271,0,0,0-2.23.719,1.257,1.257,0,0,0,.3.931l.489.577.691.834.422.524Zm-6.684-7.478a1.27,1.27,0,0,0,2.133-1.2,1.256,1.256,0,0,0-.335-.6l-.333-.338-.805-.8-.688-.668a1.271,1.271,0,0,0-2.116,1.207,1.257,1.257,0,0,0,.358.625l.669.65.785.778.333.336Zm-7.392-6.774a1.27,1.27,0,0,0,1.613-1.962l-.389-.323-.9-.733-.7-.559a1.27,1.27,0,1,0-1.568,2l.682.541.88.716.389.323Zm-8.015-6.027a1.268,1.268,0,1,0,1.409-2.11l-.681-.462-1-.661-.459-.3a1.27,1.27,0,1,0-1.363,2.142l.434.28.978.645.682.46Zm-8.562-5.25a1.269,1.269,0,1,0,1.221-2.226l-.235-.131-1.087-.589-.94-.495a1.269,1.269,0,0,0-1.172,2.252l.915.483,1.063.575.235.131Zm-9-4.458a1.269,1.269,0,1,0,1.026-2.322l-1.211-.527-1.147-.485a1.27,1.27,0,0,0-1.584,1.813,1.256,1.256,0,0,0,.608.531l1.122.476,1.185.515Zm-9.353-3.67a1.269,1.269,0,1,0,.827-2.4l-.184-.064q-1.12-.381-2.243-.751a1.271,1.271,0,0,0-1.529,1.776,1.255,1.255,0,0,0,.742.638c.738.242,1.471.49,2.205.738l.182.063Zm-9.627-3.013a1.27,1.27,0,0,0,.7-2.443q-1.229-.349-2.461-.687a1.27,1.27,0,0,0-.668,2.451c.812.222,1.621.448,2.432.679ZM314.4,223.1a1.271,1.271,0,0,0,1.143-2.18,1.251,1.251,0,0,0-.553-.29c-.793-.144-1.684-.4-2.486-.58a1.269,1.269,0,1,0-.564,2.475c.791.181,1.676.432,2.46.575Zm-9.874-2.156a1.27,1.27,0,0,0,.494-2.491q-1.252-.249-2.5-.485a1.269,1.269,0,0,0-.475,2.494q1.243.236,2.484.483Zm-9.954-1.807a1.271,1.271,0,0,0,1.077-2.177,1.257,1.257,0,0,0-.664-.328q-1.259-.209-2.517-.406a1.269,1.269,0,1,0-.394,2.508q1.249.2,2.5.4Zm-10.008-1.5a1.27,1.27,0,0,0,.338-2.517q-1.261-.17-2.525-.333a1.27,1.27,0,0,0-.323,2.519c.837.109,1.673.217,2.511.33Zm-10.052-1.228a1.269,1.269,0,1,0,.277-2.524c-.844-.092-1.688-.185-2.532-.271a1.271,1.271,0,0,0-.951,2.231,1.24,1.24,0,0,0,.689.293l2.517.27Zm-10.08-.991a1.272,1.272,0,0,0,.916-2.248,1.251,1.251,0,0,0-.694-.281c-.846-.075-1.691-.146-2.537-.216a1.27,1.27,0,0,0-.209,2.531q1.263.1,2.524.215Zm-10.145-.905a1.269,1.269,0,1,0,.277-2.524q-1.256-.134-2.511-.281a1.27,1.27,0,1,0-.3,2.521c.844.1,1.69.193,2.536.284Zm-10.132-1.324a1.27,1.27,0,0,0,.4-2.508c-.828-.13-1.666-.256-2.488-.407a1.27,1.27,0,1,0-.438,2.5c.836.15,1.684.28,2.525.414ZM234.1,211.314a1.271,1.271,0,0,0,1.249-2.054,1.254,1.254,0,0,0-.7-.426q-1.231-.27-2.456-.559a1.27,1.27,0,1,0-.587,2.471q1.247.292,2.5.568Zm-9.928-2.542a1.269,1.269,0,1,0,.725-2.433c-.8-.237-1.6-.484-2.4-.739a1.27,1.27,0,1,0-.782,2.416q1.224.394,2.456.756Zm-9.71-3.349a1.269,1.269,0,1,0,.946-2.356q-1.165-.465-2.315-.959a1.271,1.271,0,0,0-1.443,2.02,1.31,1.31,0,0,0,.435.31q1.181.508,2.377.984Zm-9.34-4.338a1.27,1.27,0,1,0,1.211-2.233q-1.1-.59-2.174-1.219a1.27,1.27,0,1,0-1.29,2.187c.742.434,1.5.856,2.254,1.264Zm-8.727-5.542a1.272,1.272,0,0,0,1.969-1.419,1.252,1.252,0,0,0-.439-.607c-.664-.5-1.314-1.01-1.958-1.534a1.269,1.269,0,0,0-1.611,1.962c.671.546,1.348,1.078,2.039,1.6Zm-7.706-6.956a1.27,1.27,0,1,0,1.883-1.7c-.557-.612-1.092-1.234-1.616-1.872a1.27,1.27,0,1,0-1.969,1.6c.552.671,1.115,1.329,1.7,1.973Zm-6.109-8.456a1.27,1.27,0,0,0,2.227-1.22c-.4-.72-.772-1.446-1.126-2.189a1.27,1.27,0,1,0-2.3,1.082c.374.788.773,1.561,1.2,2.327Zm-3.855-9.721a1.27,1.27,0,1,0,2.466-.607q-.3-1.191-.518-2.4a1.27,1.27,0,0,0-2.472-.123,1.248,1.248,0,0,0-.029.563c.155.861.341,1.716.552,2.565Zm-1.171-10.4a1.269,1.269,0,1,0,2.538.064c.019-.819.06-1.636.13-2.453a1.269,1.269,0,1,0-2.528-.229c-.079.867-.12,1.747-.14,2.618Zm1.675-10.339a1.27,1.27,0,1,0,2.425.756c.227-.741.5-1.617.8-2.325a1.27,1.27,0,1,0-2.372-.909c-.312.809-.6,1.651-.852,2.477Zm4.217-9.526a1.27,1.27,0,1,0,2.2,1.271q.619-1.077,1.287-2.122a1.27,1.27,0,0,0-2.138-1.37q-.7,1.1-1.346,2.221Zm5.912-8.5a1.271,1.271,0,0,0,1.071,2.07,1.253,1.253,0,0,0,.895-.463c.527-.645,1.066-1.274,1.613-1.9a1.27,1.27,0,1,0-1.908-1.677C190.463,130.322,189.907,130.984,189.362,131.649Z" transform="translate(-177.558 -122.048)" fill="#fff" fill-rule="evenodd"/>
</svg>
