<svg id="Group_842" data-name="Group 842" xmlns="http://www.w3.org/2000/svg" width="51.701" height="66.285" viewBox="0 0 51.701 66.285">
  <path id="Path_4332" data-name="Path 4332" d="M383.962,384.49a10.249,10.249,0,1,1-7.249,3,10.223,10.223,0,0,1,7.249-3Zm4.42,5.832a6.251,6.251,0,1,0,1.83,4.419A6.236,6.236,0,0,0,388.382,390.322Z" transform="translate(-345.264 -348.53)" fill="#a62a34" fill-rule="evenodd"/>
  <path id="Path_4333" data-name="Path 4333" d="M371.218,415.45h0A16.123,16.123,0,0,0,387.3,399.371V382.616a1.426,1.426,0,0,0-1.424-1.422H356.565a1.425,1.425,0,0,0-1.423,1.422v16.756A16.122,16.122,0,0,0,371.218,415.45Z" transform="translate(-348.842 -349.165)" fill="#d84f50" fill-rule="evenodd"/>
  <path id="Path_4334" data-name="Path 4334" d="M380.509,397.363a15.947,15.947,0,0,1-.776,4.928,15.777,15.777,0,0,1-1.07,2.53,16.23,16.23,0,0,1-8.085,7.392,16.03,16.03,0,0,1-8.78,1.01,15.994,15.994,0,0,0,17.788-1.01,16.27,16.27,0,0,0,4.323-4.909,15.943,15.943,0,0,0,2.106-7.932V382.616a1.426,1.426,0,0,0-1.424-1.422h-4.081v16.169Z" transform="translate(-347.56 -349.165)" fill="#a62a34" fill-rule="evenodd"/>
  <path id="Path_4335" data-name="Path 4335" d="M357.284,410.609h27.869a2.149,2.149,0,0,0,2.143-2.143h0a2.15,2.15,0,0,0-2.143-2.144H357.284a2.149,2.149,0,0,0-2.142,2.144h0A2.149,2.149,0,0,0,357.284,410.609Z" transform="translate(-348.842 -344.324)" fill="#d84f50" fill-rule="evenodd"/>
  <path id="Rectangle_326" data-name="Rectangle 326" d="M2.271,0h.876a2.27,2.27,0,0,1,2.27,2.27V12.845a2.27,2.27,0,0,1-2.27,2.27H2.271A2.271,2.271,0,0,1,0,12.845V2.271A2.271,2.271,0,0,1,2.271,0Z" transform="translate(8.74 35.085)" fill="#de7272"/>
  <path id="Path_4336" data-name="Path 4336" d="M358.5,366.545h12.257a1.7,1.7,0,0,0,1.69-1.69h0a1.7,1.7,0,0,0-1.69-1.689H354.274a4.428,4.428,0,0,1-4.414-4.414h0a4.426,4.426,0,0,1,4.414-4.413h42.874a4.426,4.426,0,0,1,4.413,4.413h0a4.427,4.427,0,0,1-4.413,4.414H382.195a1.694,1.694,0,0,0-1.69,1.689h0a1.7,1.7,0,0,0,1.69,1.69h5.753a3.416,3.416,0,0,1,3.406,3.406h0a3.416,3.416,0,0,1-3.406,3.405h-9.516a6.792,6.792,0,0,0-6.771,6.772v3.1a1.6,1.6,0,0,1-1.6,1.6h0a1.6,1.6,0,0,1-1.6-1.6v-5.906a3.982,3.982,0,0,0-3.969-3.97H358.5a3.415,3.415,0,0,1-3.405-3.405h0A3.416,3.416,0,0,1,358.5,366.545Z" transform="translate(-349.86 -354.339)" fill="#fff" fill-rule="evenodd"/>
</svg>
