<svg xmlns="http://www.w3.org/2000/svg" width="507" height="413.755" viewBox="0 0 507 413.755">
  <path id="Path_4261" data-name="Path 4261" d="M501.095,368.71a38.32,38.32,0,0,0-38.208,38.208h0a69.918,69.918,0,0,1-69.713,69.713H129.019c-49.81,0-90.562-40.752-90.562-90.562h0c0-49.808,40.752-90.562,90.562-90.562h0a18.228,18.228,0,0,0,18.175-18.174h0a18.229,18.229,0,0,0-18.175-18.175H81.632a44.31,44.31,0,0,1-44.18-44.18h0a44.311,44.311,0,0,1,44.1-44.18h43.109a38.32,38.32,0,0,0,38.207-38.208h0a69.919,69.919,0,0,1,69.714-69.713H453.707c49.81,0,90.562,40.754,90.562,90.562h0c0,49.808-40.752,90.562-90.562,90.562h0a18.228,18.228,0,0,0-18.174,18.175h0a18.228,18.228,0,0,0,18.174,18.174h47.387C558.9,280.35,558.9,368.71,501.095,368.71Z" transform="translate(-37.452 -62.877)" fill="#c6e3f1" fill-rule="evenodd"/>
</svg>
