<svg id="Group_826" data-name="Group 826" xmlns="http://www.w3.org/2000/svg" width="363.506" height="25.515" viewBox="0 0 363.506 25.515">
  <path id="Path_4301" data-name="Path 4301" d="M119.282,419.136h314.59a7.206,7.206,0,0,1,7.183,7.185h0a7.206,7.206,0,0,1-7.183,7.185H119.282a7.205,7.205,0,0,1-7.185-7.185h0A7.206,7.206,0,0,1,119.282,419.136Z" transform="translate(-94.823 -407.99)" fill="#000618" fill-rule="evenodd"/>
  <path id="Rectangle_304" data-name="Rectangle 304" d="M7.684,0H355.822a7.684,7.684,0,0,1,7.684,7.684v2.963a7.684,7.684,0,0,1-7.684,7.684H7.685A7.685,7.685,0,0,1,0,10.646V7.684A7.684,7.684,0,0,1,7.684,0Z" fill="#be865e"/>
  <rect id="Rectangle_305" data-name="Rectangle 305" width="19.069" height="18.33" transform="translate(218.383)" fill="#915e40"/>
  <rect id="Rectangle_306" data-name="Rectangle 306" width="9.906" height="18.33" transform="translate(247.358)" fill="#915e40"/>
  <rect id="Rectangle_307" data-name="Rectangle 307" width="4.954" height="18.33" transform="translate(267.666)" fill="#915e40"/>
  <rect id="Rectangle_308" data-name="Rectangle 308" width="21.331" height="18.33" transform="translate(289.582)" fill="#915e40"/>
  <rect id="Rectangle_309" data-name="Rectangle 309" width="10.665" height="18.33" transform="translate(326.994)" fill="#915e40"/>
  <rect id="Rectangle_310" data-name="Rectangle 310" width="178.657" height="10.896" rx="4.567" transform="translate(4.457 2.976)" fill="#d49d80"/>
</svg>
