<svg xmlns="http://www.w3.org/2000/svg" width="30.806" height="30.664" viewBox="0 0 30.806 30.664">
  <path id="Path_4320" data-name="Path 4320" d="M77.781,185.684a7.675,7.675,0,0,1,3.032-3.159,4.688,4.688,0,0,0,2.294-3.077,19.869,19.869,0,0,0,.468-5.156,1.182,1.182,0,0,1,1.182-1.182h2.023a2.1,2.1,0,0,1,.608.1,4.371,4.371,0,0,1,2.195,2.045A7.672,7.672,0,0,1,90.538,179a8.576,8.576,0,0,1-.4,2.558,6.8,6.8,0,0,0-.446,2.828.926.926,0,0,0,.345.048h5.075a6.656,6.656,0,0,1,1.722.213,4.061,4.061,0,0,1,2.039,1.213,3.925,3.925,0,0,1,.923,2.667,6.918,6.918,0,0,1-.184,1.524c.732,1.884.879,4.227-.607,5.77A4.69,4.69,0,0,1,97.4,200.03a4.977,4.977,0,0,1-4.878,3.622h-9.3a7.825,7.825,0,0,1-4.468-1.818,2.681,2.681,0,0,1-.7,1.183l-.042.038a2.617,2.617,0,0,1-1.8.719H71.981a2.635,2.635,0,0,1-2.632-2.632V187.791a2.633,2.633,0,0,1,.79-1.875l.038-.036a2.625,2.625,0,0,1,1.8-.719h4.228a2.624,2.624,0,0,1,1.572.524ZM78.84,198.8c1.066,1.076,2.854,2.486,4.376,2.486h9.3a2.726,2.726,0,0,0,2.711-2.257,1.181,1.181,0,0,1,.629-.817c.858-.429.884-1.841.761-2.63a1.171,1.171,0,0,1,.456-1.194c1.122-.825.742-2.62.262-3.687a1.16,1.16,0,0,1-.1-.862,5.165,5.165,0,0,0,.2-1.313,1.678,1.678,0,0,0-.333-1.112,1.786,1.786,0,0,0-.878-.487,4.3,4.3,0,0,0-1.11-.13H90.041a2.429,2.429,0,0,1-2.511-1.485c-.53-1.28-.035-3.2.357-4.458a6.238,6.238,0,0,0,.29-1.856,5.27,5.27,0,0,0-.648-2.585,2.678,2.678,0,0,0-.812-.942h-.788a18.487,18.487,0,0,1-.549,4.611,6.959,6.959,0,0,1-3.447,4.519c-1.75.942-2.793,3.231-3.093,5.133V198.8Zm-2.631-11.278H71.981a.247.247,0,0,0-.162.051l-.026.03a.261.261,0,0,0-.08.186v13.352a.269.269,0,0,0,.08.19.265.265,0,0,0,.188.079h4.228a.24.24,0,0,0,.159-.049l.029-.03a.271.271,0,0,0,.08-.19V187.791a.268.268,0,0,0-.081-.188A.265.265,0,0,0,76.209,187.523Z" transform="translate(-69.349 -173.11)" fill="#fff" fill-rule="evenodd"/>
</svg>
