<svg xmlns="http://www.w3.org/2000/svg" width="42.207" height="42.207" viewBox="0 0 42.207 42.207">
  <path id="Path_4319" data-name="Path 4319" d="M426.834,264.583a21.105,21.105,0,1,1-14.923,6.182,21.042,21.042,0,0,1,14.923-6.182Zm18.818,22.23H437.04a41.8,41.8,0,0,1-.718,6.84,25.7,25.7,0,0,1,6.32,2.311,18.748,18.748,0,0,0,3.01-9.151Zm-10.864,0H427.96v5.8a42.114,42.114,0,0,1,6.158.593,39.51,39.51,0,0,0,.67-6.39Zm-9.08,0h-6.827a39.246,39.246,0,0,0,.669,6.39,42.13,42.13,0,0,1,6.158-.593v-5.8Zm-9.08,0h-8.613a18.761,18.761,0,0,0,3.012,9.151,25.662,25.662,0,0,1,6.32-2.311,41.792,41.792,0,0,1-.718-6.84Zm-8.613-2.253h8.613a42.5,42.5,0,0,1,.534-5.81,24.956,24.956,0,0,1-6.628-2.542,18.75,18.75,0,0,0-2.52,8.351Zm11.353-5.348a40.188,40.188,0,0,0-.487,5.348h6.827v-4.723a42.152,42.152,0,0,1-6.34-.625Zm14.932,0a42.152,42.152,0,0,1-6.34.625v4.723h6.828a39.982,39.982,0,0,0-.488-5.348Zm2.738,5.348h8.614a18.748,18.748,0,0,0-2.518-8.351,25,25,0,0,1-6.63,2.542,42.306,42.306,0,0,1,.534,5.81Zm-9.079-17.52v10.546a40.3,40.3,0,0,0,5.913-.582,25.861,25.861,0,0,0-1.632-4.977c-.8-1.758-2.278-4.26-4.282-4.987Zm0,27.824v9.47c2-.728,3.48-3.229,4.282-4.988a24.692,24.692,0,0,0,1.379-3.945,40.2,40.2,0,0,0-5.66-.537Zm-2.252,9.47v-9.47a40.232,40.232,0,0,0-5.662.537,24.466,24.466,0,0,0,1.381,3.945c.8,1.76,2.278,4.261,4.28,4.988Zm0-26.748V267.04c-2,.726-3.481,3.229-4.282,4.987A25.866,25.866,0,0,0,419.794,277a40.3,40.3,0,0,0,5.914.582Zm-13.923-3.254a22.939,22.939,0,0,0,5.808,2.208,28.161,28.161,0,0,1,1.789-5.446,16.634,16.634,0,0,1,2.084-3.484,18.922,18.922,0,0,0-9.681,6.722Zm24.29,2.208a22.939,22.939,0,0,0,5.808-2.208,19.054,19.054,0,0,0-1.719-1.975,18.854,18.854,0,0,0-7.961-4.747,16.741,16.741,0,0,1,2.085,3.484,28.4,28.4,0,0,1,1.787,5.446Zm5.211,21.253a23.7,23.7,0,0,0-5.458-1.945,27.313,27.313,0,0,1-1.54,4.431,16.641,16.641,0,0,1-2.086,3.485,18.855,18.855,0,0,0,7.962-4.746q.587-.589,1.121-1.225Zm-23.446-1.945a23.527,23.527,0,0,0-5.458,1.945q.533.635,1.122,1.225a18.83,18.83,0,0,0,7.961,4.746,16.691,16.691,0,0,1-2.085-3.484A27.26,27.26,0,0,1,417.84,295.848Z" transform="translate(-405.73 -264.583)" fill="#fff" fill-rule="evenodd"/>
</svg>
