<svg xmlns="http://www.w3.org/2000/svg" xmlns:xlink="http://www.w3.org/1999/xlink" width="598.968" height="430.803" viewBox="0 0 598.968 430.803"><defs><style>.a,.ab,.ad,.aq,.ax,.bb{fill:none;}.ac,.b{fill:#c3ecfe;}.ae,.b{opacity:0.35;}.c{fill:#555993;}.d{fill:url(#a);}.e,.h,.u,.z{fill:#79d6fe;}.e{opacity:0.13;}.f{fill:#7879a9;}.g{fill:#212048;}.g,.h,.m,.s,.w{opacity:0.2;}.i{fill:#fffeff;}.j{fill:#2664aa;}.k{fill:url(#b);}.l{fill:#fe7d90;}.m{fill:#ffd176;}.n{fill:url(#c);}.o{fill:#d2f1ff;}.p{fill:#b5e5f9;}.p,.y,.z{opacity:0.4;}.q{fill:#ff791f;}.r{fill:#ffbd77;opacity:0.7;}.s{fill:#ffc563;}.t{fill:url(#d);}.v{fill:#29abe2;}.w{fill:#d7eef9;}.x{fill:url(#e);}.y{fill:#b5e9ff;}.aa{fill:#ffdc8a;}.ab{stroke:#c3ecfe;}.ab,.ad,.bb{stroke-miterlimit:10;}.ab,.ad,.ax,.bb{stroke-width:1.056px;}.ad{stroke:#a1dbff;stroke-dasharray:2.641;}.ae{fill:#bdeeff;}.af{fill:#ffbe9d;}.ag{fill:#170d54;}.ah{fill:#f2a181;}.ai{fill:#ffccb0;}.aj{fill:#e8505b;}.ak{fill:#3e89cc;}.al{fill:#57c6f2;}.am{fill:#5ab5e2;opacity:0.45;}.an{fill:#1b227a;}.ao{fill:#eaeaea;}.ap{fill:#e5f8ff;}.aq{stroke:#a1d2f0;stroke-width:0.528px;}.aq,.ax{stroke-linecap:round;stroke-linejoin:round;}.ar{fill:#2679c4;}.as{fill:#b03d44;}.at{fill:#80cfff;}.au{fill:#a4e1ff;}.av,.aw{fill:#0964af;}.av{opacity:0.25;}.aw{opacity:0.19;}.ax{stroke:#fff;}.ay{fill:#9bdfff;}.az{fill:#fff;}.ba{fill:#c2ebff;}.bb{stroke:#9bdfff;}.bc{fill:#eea886;}.bd{fill:#eea987;}.be{fill:#214361;}.bf{fill:#db9c7c;}.bg{fill:#fccca2;}.bh{fill:#5779d4;}.bi{fill:#e8e8e8;}.bj{fill:#a77860;}.bk{fill:#ff6066;}.bl{fill:#ffe340;}.bm{fill:#2d2d2c;}.bn{clip-path:url(#f);}.bo{fill:#568bff;}</style><linearGradient id="a" x1="0.717" y1="0.629" x2="0.092" y2="0.255" gradientUnits="objectBoundingBox"><stop offset="0" stop-color="#eef3f6"/><stop offset="1" stop-color="#fff"/></linearGradient><linearGradient id="b" x1="-0.052" y1="1.09" x2="0.717" y2="0.38" gradientUnits="objectBoundingBox"><stop offset="0" stop-color="#79d6fe"/><stop offset="1" stop-color="#1ab1f2"/></linearGradient><linearGradient id="c" x1="0.718" y1="0.038" x2="0.065" y2="1.055" xlink:href="#b"/><linearGradient id="d" x1="-0.13" y1="0.128" x2="0.602" y2="0.56" gradientUnits="objectBoundingBox"><stop offset="0" stop-color="#fff5de"/><stop offset="1" stop-color="#fff"/></linearGradient><linearGradient id="e" x1="0.917" y1="0.098" x2="0.333" y2="1.039" xlink:href="#b"/><clipPath id="f"><path class="a" d="M578.574,112.765a10.325,10.325,0,1,1-20.649,0Z" transform="translate(-557.925 -112.765)"/></clipPath></defs><g transform="translate(-648 -259.979)"><path class="b" d="M812.509,386.941c-8.145-29.214,17.745-30.342,18.313-67.987.233-15.4-8.2-31.077-28.5-38.27-9.974-3.535-19.916-5.963-28.791-11.584-20.222-12.809-19.857-37.18-25.375-57.958-12.117-45.633-58.745-81.885-105.945-80.705-34.026.849-64.788,1.892-95.81,30.772-21.225,19.763-35.02,44.079-54.727,64.452-20.868,21.576-46.3,31.926-74.852,38.856-27.005,6.557-56.382,14.356-77.053,34.014C320.35,317,323.182,336.326,331.51,359.009c9.184,25.012-10.73,42.03-31.495,51.769-17.484,8.2-40.757,7.486-48.874,27.105-8.8,21.27,17.342,21.635,41.65,21.635s339.054-1.87,427.025.731c23.676.7,99.221,7.15,109.905-22.366C836.995,417.793,818.2,407.343,812.509,386.941Z" transform="translate(398.603 153.855)"/><g transform="translate(844.287 353.618)"><g transform="translate(24.4 27.09)"><path class="c" d="M8.833,0H319.266A8.833,8.833,0,0,1,328.1,8.833v202.8a0,0,0,0,1,0,0H0a0,0,0,0,1,0,0V8.833A8.833,8.833,0,0,1,8.833,0Z" transform="translate(25.091 0)"/><rect class="d" width="185.647" height="302.113" transform="translate(340.198 12.993) rotate(90)"/><path class="e" d="M659.9,222.477c-61.743,61.886-116.955,123.81-178.748,185.648h-81.98q70.555-70.553,141.107-141.107,22.271-22.269,44.541-44.541Zm-99.215,0H537.43L365.15,394.759v13.366H375.4Q468.042,315.3,560.685,222.477Zm106.578,78.385V247.477L513.112,408.125H560Zm-257.6-78.385L365.15,266.993v45.619l90.134-90.136ZM601.76,408.125h29.132Q649.134,390,667.263,371.759v-29.3Q634.489,375.269,601.76,408.125Z" transform="translate(-327.065 -209.485)"/><path class="f" d="M698.967,391.688H350.433a14.874,14.874,0,0,1-14.874-14.873H713.84A14.873,14.873,0,0,1,698.967,391.688Z" transform="translate(-335.559 -165.182)"/><path class="g" d="M464.768,380.47h54.28a3.655,3.655,0,0,0,3.655-3.655h-61.59A3.655,3.655,0,0,0,464.768,380.47Z" transform="translate(-299.519 -165.182)"/></g><g transform="translate(195.054 85.818)"><path class="h" d="M4.461,0h97.2a4.461,4.461,0,0,1,4.461,4.461v97.2a4.46,4.46,0,0,1-4.46,4.46H4.461A4.461,4.461,0,0,1,0,101.662V4.461A4.461,4.461,0,0,1,4.461,0Z" transform="translate(0 3.105)"/><path class="i" d="M4.461,0h97.2a4.461,4.461,0,0,1,4.461,4.461v97.2a4.46,4.46,0,0,1-4.46,4.46H4.46A4.46,4.46,0,0,1,0,101.662V4.461A4.461,4.461,0,0,1,4.461,0Z" transform="translate(2.396 0)"/><g transform="translate(20.394 18.021)"><path class="j" d="M511.985,272.014A34.894,34.894,0,0,1,535.1,281.6L511.985,304.72Z" transform="translate(-475.964 -272.014)"/><path class="k" d="M519.062,342.094a35.046,35.046,0,0,1-.958-70.08v35.017a.946.946,0,0,0,.144.475c.018.03.031.057.05.084s.026.053.046.076l23.214,26.222A34.885,34.885,0,0,1,519.062,342.094Z" transform="translate(-483.998 -272.014)"/><path class="l" d="M512.262,304.63l24.113-24.114a34.891,34.891,0,0,1-1.512,49.644Z" transform="translate(-475.885 -269.574)"/></g></g><g transform="translate(0 0)"><path class="m" d="M483.307,329.416a4.349,4.349,0,0,0,4.349-4.349V212.382H366.424a11.37,11.37,0,0,0-11.37,11.37V329.416Z" transform="translate(-305.562 -185.293)"/><rect class="n" width="185.355" height="141.814" rx="3.379" transform="translate(0 0)"/><g transform="translate(129.202 84.202)"><path class="o" d="M429.649,259.657H418.436a1.45,1.45,0,0,1,0-2.9h11.213a1.45,1.45,0,0,1,0,2.9Z" transform="translate(-416.987 -256.757)"/></g><g transform="translate(144.68 84.221)"><path class="o" d="M430.464,259.654a1.452,1.452,0,0,1-1.03-.435,1.409,1.409,0,0,1-.421-1.014.967.967,0,0,1,.03-.291,1.8,1.8,0,0,1,.073-.261,1.751,1.751,0,0,1,.318-.479,1.519,1.519,0,0,1,2.058,0l.175.219a1.092,1.092,0,0,1,.13.26.906.906,0,0,1,.087.261,2.006,2.006,0,0,1,.028.291,1.461,1.461,0,0,1-1.449,1.449Z" transform="translate(-429.013 -256.772)"/></g><g transform="translate(149.158 84.202)"><path class="o" d="M447.378,259.657H433.942a1.45,1.45,0,1,1,0-2.9h13.436a1.45,1.45,0,0,1,0,2.9Z" transform="translate(-432.492 -256.757)"/></g><g transform="translate(129.202 91.453)"><path class="o" d="M441.59,265.291H418.436a1.45,1.45,0,0,1,0-2.9H441.59a1.45,1.45,0,1,1,0,2.9Z" transform="translate(-416.987 -262.391)"/></g><g transform="translate(157.261 91.453)"><path class="o" d="M445.571,265.291h-5.332a1.45,1.45,0,1,1,0-2.9h5.332a1.45,1.45,0,0,1,0,2.9Z" transform="translate(-438.788 -262.391)"/></g><path class="p" d="M468.955,208.6a9.262,9.262,0,0,0-9.231,10.571l-16.1,7.855a9.314,9.314,0,0,0-14.3,11.851L407.9,267.624a9.2,9.2,0,0,0-6.969.447l-19.72-20.443a9.324,9.324,0,1,0-16.5,0L345,268.069a9.325,9.325,0,1,0,4.219,4.061l19.718-20.442a9.2,9.2,0,0,0,8.061,0l19.719,20.443a9.326,9.326,0,1,0,15.88-1.006l21.427-28.748a9.306,9.306,0,0,0,12.264-8.842,9.5,9.5,0,0,0-.093-1.247l16.1-7.856a9.32,9.32,0,1,0,6.664-15.832Z" transform="translate(-312.283 -186.378)"/><circle class="q" cx="2.125" cy="2.125" r="2.125" transform="translate(7.867 6.346)"/><circle class="r" cx="2.125" cy="2.125" r="2.125" transform="translate(15.731 6.346)"/><circle class="i" cx="2.125" cy="2.125" r="2.125" transform="translate(23.595 6.346)"/></g><g transform="translate(30.809 109.613)"><path class="h" d="M355.054,374.232h79.825a4.349,4.349,0,0,0,4.349-4.349V282.971a4.349,4.349,0,0,0-4.349-4.349H355.054Z" transform="translate(-336.371 -275.892)"/><path class="s" d="M439.046,278.622h-94.16a4.348,4.348,0,0,0-4.348,4.349v25.122H443.395V282.971A4.349,4.349,0,0,0,439.046,278.622Z" transform="translate(-340.538 -275.892)"/><rect class="t" width="102.857" height="95.609" rx="3.379" transform="translate(2.73 0)"/><g transform="translate(13.964 10.207)"><g transform="translate(0 17.883)"><path class="u" d="M432.181,354.61H352.114a.725.725,0,0,1-.726-.725V299.051a.725.725,0,0,1,1.451,0v54.11h79.343a.725.725,0,1,1,0,1.449Z" transform="translate(-351.388 -298.326)"/></g><rect class="u" width="9.067" height="11.607" transform="translate(7.472 55.088)"/><rect class="u" width="9.067" height="20.35" transform="translate(24.736 46.345)"/><rect class="u" width="9.067" height="17.478" transform="translate(42 49.217)"/><rect class="u" width="9.067" height="27.53" transform="translate(59.265 39.165)"/><rect class="v" width="9.067" height="7.184" transform="translate(7.472 47.904)"/><rect class="v" width="9.067" height="12.595" transform="translate(24.736 33.75)"/><rect class="v" width="9.067" height="10.817" transform="translate(42 38.4)"/><rect class="v" width="9.067" height="17.039" transform="translate(59.265 22.126)"/><rect class="u" width="8.686" height="3.412" transform="translate(0.725)"/><rect class="u" width="8.686" height="3.412" transform="translate(0.725 7.251)"/><g transform="translate(15.089 0.257)"><path class="u" d="M375.774,287.531H364.563a1.45,1.45,0,1,1,0-2.9h11.212a1.45,1.45,0,0,1,0,2.9Z" transform="translate(-363.112 -284.631)"/></g><g transform="translate(30.569 0.275)"><path class="u" d="M376.588,287.528a1.453,1.453,0,0,1-1.03-.436,1.4,1.4,0,0,1-.42-1.014.961.961,0,0,1,.03-.29,1.866,1.866,0,0,1,.072-.263,1.721,1.721,0,0,1,.318-.477,1.518,1.518,0,0,1,2.059,0l.174.218a1.091,1.091,0,0,1,.13.26.928.928,0,0,1,.088.263,1.988,1.988,0,0,1,.028.29,1.461,1.461,0,0,1-1.449,1.451Z" transform="translate(-375.139 -284.645)"/></g><g transform="translate(35.046 0.257)"><path class="u" d="M393.5,287.531H380.067a1.45,1.45,0,0,1,0-2.9H393.5a1.45,1.45,0,1,1,0,2.9Z" transform="translate(-378.618 -284.631)"/></g><g transform="translate(15.089 7.508)"><path class="u" d="M387.717,293.163H364.563a1.449,1.449,0,1,1,0-2.9h23.154a1.449,1.449,0,1,1,0,2.9Z" transform="translate(-363.112 -290.265)"/></g><g transform="translate(43.15 7.508)"><path class="u" d="M391.7,293.163h-5.332a1.449,1.449,0,1,1,0-2.9H391.7a1.449,1.449,0,1,1,0,2.9Z" transform="translate(-384.914 -290.265)"/></g></g></g><g transform="translate(291.369 139.473)"><rect class="w" width="59.776" height="71.697" rx="2.065" transform="translate(0 3.957)"/><rect class="x" width="59.776" height="71.697" rx="2.065" transform="translate(2.951 0)"/><rect class="y" width="20.3" height="43.987" transform="translate(54.832 7.482) rotate(90)"/><path class="o" d="M594.548,326.37H552.053a.934.934,0,0,1-.934-.934h0a.934.934,0,0,1,.934-.934h42.494a.935.935,0,0,1,.936.934h0A.935.935,0,0,1,594.548,326.37Z" transform="translate(-540.651 -292.582)"/><path class="o" d="M578.91,329.434H552.053a.934.934,0,0,1-.934-.934h0a.934.934,0,0,1,.934-.934H578.91a.934.934,0,0,1,.934.934h0A.934.934,0,0,1,578.91,329.434Z" transform="translate(-540.651 -291.702)"/><path class="o" d="M587.645,329.434H576.1a.934.934,0,0,1-.934-.934h0a.934.934,0,0,1,.934-.934h11.546a.935.935,0,0,1,.936.934h0A.935.935,0,0,1,587.645,329.434Z" transform="translate(-533.749 -291.702)"/><path class="o" d="M586.322,332.5H552.053a.934.934,0,0,1-.934-.934h0a.934.934,0,0,1,.934-.934h34.269a.935.935,0,0,1,.936.934h0A.935.935,0,0,1,586.322,332.5Z" transform="translate(-540.651 -290.823)"/><path class="o" d="M586.094,332.5h-4.588a.935.935,0,0,1-.936-.934h0a.936.936,0,0,1,.936-.934h4.588a.935.935,0,0,1,.936.934h0A.935.935,0,0,1,586.094,332.5Z" transform="translate(-532.197 -290.823)"/><path class="o" d="M560.83,335.562h-8.776a.934.934,0,0,1-.934-.934h0a.934.934,0,0,1,.934-.934h8.776a.935.935,0,0,1,.936.934h0A.935.935,0,0,1,560.83,335.562Z" transform="translate(-540.651 -289.943)"/><path class="o" d="M569.161,344.754h5.658a.934.934,0,0,0,.934-.934h0a.934.934,0,0,0-.934-.934h-5.658a.934.934,0,0,0-.934.934h0A.934.934,0,0,0,569.161,344.754Z" transform="translate(-535.74 -287.305)"/><path class="o" d="M552.053,344.754h18.383a.934.934,0,0,0,.934-.934h0a.934.934,0,0,0-.934-.934H552.053a.934.934,0,0,0-.934.934h0A.934.934,0,0,0,552.053,344.754Z" transform="translate(-540.651 -287.305)"/><path class="o" d="M569.991,350.883h4.59a.935.935,0,0,0,.934-.936h0a.934.934,0,0,0-.934-.934h-4.59a.934.934,0,0,0-.934.934h0A.935.935,0,0,0,569.991,350.883Z" transform="translate(-535.502 -285.545)"/><path class="o" d="M552.053,347.818H559.7a.934.934,0,0,0,.934-.934h0a.934.934,0,0,0-.934-.934h-7.643a.934.934,0,0,0-.934.934h0A.934.934,0,0,0,552.053,347.818Z" transform="translate(-540.651 -286.425)"/><path class="o" d="M557.711,341.69h-5.658a.934.934,0,0,1-.934-.934h0a.934.934,0,0,1,.934-.934h5.658a.934.934,0,0,1,.934.934h0A.934.934,0,0,1,557.711,341.69Z" transform="translate(-540.651 -288.184)"/><path class="o" d="M577.657,341.69H559.274a.934.934,0,0,1-.934-.934h0a.934.934,0,0,1,.934-.934h18.383a.934.934,0,0,1,.934.934h0A.934.934,0,0,1,577.657,341.69Z" transform="translate(-538.578 -288.184)"/><rect class="z" width="11.079" height="13.674" transform="translate(43.753 51.663)"/></g><g transform="translate(27.771 220.143)"><g transform="translate(2.394 0)"><path class="aa" d="M340.682,368.453a.643.643,0,0,1-.643-.644v-4.786a.644.644,0,1,1,1.287,0v4.786A.644.644,0,0,1,340.682,368.453Z" transform="translate(-340.038 -362.379)"/></g><g transform="translate(0 2.393)"><path class="aa" d="M343.608,365.525h-4.787a.644.644,0,0,1,0-1.287h4.787a.644.644,0,0,1,0,1.287Z" transform="translate(-338.178 -364.238)"/></g></g></g><g transform="translate(807.084 451.068)"><path class="ab" d="M369.454,256.722c10.283,56.2,49.463,106.305,101.524,129.836" transform="translate(-354.386 -240.3)"/><g transform="translate(0 0)"><path class="ac" d="M373.372,273.584a33.7,33.7,0,0,1-6.763-22.455c.131-1.954.56-4.114,2.154-5.251a2.191,2.191,0,0,1,1.507-.466,2.809,2.809,0,0,1,1.874,1.655c2.212,4.025,2.187,8.889,1.681,13.454s-.28,8.054-.454,13.062" transform="translate(-355.7 -245.401)"/><path class="ac" d="M375.018,283.969a33.684,33.684,0,0,1,2.7-23.295c.895-1.742,2.147-3.555,4.06-3.967a2.2,2.2,0,0,1,1.568.17,2.808,2.808,0,0,1,1.065,2.263c.434,4.574-1.519,9.028-3.793,13.019s-3.451,7.28-5.6,11.811" transform="translate(-352.316 -240.337)"/><path class="ac" d="M381.017,297.6a33.693,33.693,0,0,1-.17-23.451c.674-1.836,1.7-3.79,3.544-4.433a2.2,2.2,0,0,1,1.577-.023,2.813,2.813,0,0,1,1.335,2.116c.989,4.485-.4,9.146-2.174,13.384s-2.534,7.647-4.111,12.407" transform="translate(-350.164 -234.516)"/><path class="ac" d="M388.2,309.868a33.681,33.681,0,0,1-.171-23.45c.675-1.838,1.7-3.79,3.544-4.434a2.191,2.191,0,0,1,1.577-.022,2.8,2.8,0,0,1,1.335,2.115c.989,4.487-.4,9.146-2.174,13.384s-2.534,7.649-4.109,12.407" transform="translate(-346.929 -228.989)"/><path class="ac" d="M400.179,324.863a33.692,33.692,0,0,1-2.6-23.306c.48-1.9,1.294-3.946,3.066-4.777a2.186,2.186,0,0,1,1.565-.186,2.808,2.808,0,0,1,1.546,1.966c1.449,4.359.547,9.139-.776,13.538s-1.728,7.869-2.8,12.765" transform="translate(-342.165 -222.368)"/><path class="ac" d="M409.862,334.775a35.973,35.973,0,0,1-4.056-22.5c.27-1.936.815-4.07,2.288-5.154a1.813,1.813,0,0,1,1.343-.421c.737.132,1.191.931,1.491,1.7,1.594,4.063,1.181,8.893.376,13.415s-.888,7.99-1.442,12.962" transform="translate(-338.168 -217.789)"/><path class="ac" d="M384.477,285.559a36.509,36.509,0,0,1-22.488-9.891c-1.506-1.423-2.993-3.22-2.92-5.235a2.156,2.156,0,0,1,.564-1.491,2.8,2.8,0,0,1,2.52-.348c4.658.992,8.6,4.3,11.99,7.781s6.37,5.662,10.334,9.185" transform="translate(-359.066 -235.01)"/><path class="ac" d="M390.065,293.956a36.5,36.5,0,0,1-24.2-4.237c-1.8-1.023-3.676-2.412-4.085-4.385a2.155,2.155,0,0,1,.191-1.584,2.794,2.794,0,0,1,2.364-.94c4.759-.148,9.372,2.124,13.5,4.7s7.537,3.976,12.227,6.451" transform="translate(-357.872 -228.548)"/><path class="ac" d="M398.114,304.858a36.5,36.5,0,0,1-24.557.691c-1.97-.641-4.083-1.628-4.881-3.48a2.161,2.161,0,0,1-.128-1.591,2.8,2.8,0,0,1,2.128-1.393c4.633-1.1,9.609.206,14.166,1.9s8.181,2.389,13.271,3.874" transform="translate(-354.839 -221.394)"/><path class="ac" d="M408.893,321.509a36.5,36.5,0,0,1-24.1-4.775c-1.778-1.062-3.621-2.492-3.986-4.475a2.153,2.153,0,0,1,.226-1.58,2.8,2.8,0,0,1,2.385-.886c4.762-.042,9.323,2.331,13.393,4.994s7.447,4.143,12.08,6.722" transform="translate(-349.294 -216.388)"/><path class="ac" d="M419.129,327.452a36.5,36.5,0,0,1-23.668,6.586c-2.067-.148-4.356-.6-5.575-2.2a2.154,2.154,0,0,1-.508-1.514c.1-.86.93-1.452,1.729-1.864,4.233-2.182,9.375-2.115,14.207-1.57s8.516.347,13.814.563" transform="translate(-345.413 -208.829)"/></g></g><g transform="translate(704.61 526.022)"><path class="ab" d="M299.592,310.873c57.073-2.6,114.7,24.32,149.323,69.764" transform="translate(-283.39 -290.932)"/><g transform="translate(0 0)"><path class="ac" d="M316.67,311.663a33.693,33.693,0,0,0-23.4-1.545c-1.876.566-3.883,1.469-4.635,3.278a2.191,2.191,0,0,0-.115,1.572,2.812,2.812,0,0,0,2.034,1.456c4.42,1.25,9.153.133,13.489-1.385s7.784-2.082,12.626-3.377" transform="translate(-288.422 -291.827)"/><path class="ac" d="M326.833,311.735a33.687,33.687,0,0,0-22.094,7.861c-1.5,1.263-2.982,2.89-2.953,4.848a2.2,2.2,0,0,0,.518,1.49,2.811,2.811,0,0,0,2.444.529c4.553-.6,8.455-3.507,11.834-6.622s6.319-5,10.251-8.106" transform="translate(-282.401 -290.468)"/><path class="ac" d="M341.593,314.3a33.69,33.69,0,0,0-22.889,5.1c-1.639,1.071-3.313,2.5-3.525,4.45a2.2,2.2,0,0,0,.332,1.542,2.811,2.811,0,0,0,2.362.824c4.594-.044,8.821-2.447,12.553-5.125s6.884-4.188,11.166-6.793" transform="translate(-276.374 -289.455)"/><path class="ac" d="M355.158,318.536a33.676,33.676,0,0,0-22.889,5.1c-1.639,1.07-3.313,2.5-3.525,4.449a2.2,2.2,0,0,0,.332,1.542,2.814,2.814,0,0,0,2.362.825c4.594-.045,8.821-2.449,12.555-5.126s6.883-4.186,11.165-6.792" transform="translate(-270.262 -287.545)"/><path class="ac" d="M372.552,326.641a33.693,33.693,0,0,0-23.295,2.7c-1.741.9-3.554,2.147-3.966,4.062a2.2,2.2,0,0,0,.171,1.568,2.808,2.808,0,0,0,2.263,1.065c4.574.432,9.027-1.52,13.017-3.8s7.28-3.451,11.809-5.6" transform="translate(-262.829 -284.186)"/><path class="ac" d="M384.473,333.71a35.969,35.969,0,0,0-22.835,1.1c-1.826.7-3.783,1.71-4.51,3.387a1.822,1.822,0,0,0-.107,1.4c.294.689,1.175.953,1.99,1.073,4.315.64,8.93-.847,13.155-2.647s7.586-2.662,12.307-4.317" transform="translate(-257.558 -281.179)"/><path class="ac" d="M330.951,319.16a36.5,36.5,0,0,0-14.69-19.69c-1.725-1.149-3.809-2.195-5.756-1.671a2.16,2.16,0,0,0-1.327.886,2.8,2.8,0,0,0,.226,2.533c2.013,4.315,6.12,7.41,10.276,9.935s6.948,4.936,11.271,8.007" transform="translate(-279.172 -296.807)"/><path class="ac" d="M340.356,322.7a36.506,36.506,0,0,0-9.565-22.629c-1.4-1.526-3.175-3.039-5.19-3a2.155,2.155,0,0,0-1.5.544,2.8,2.8,0,0,0-.384,2.514c.925,4.671,4.175,8.656,7.608,12.1s5.569,6.452,9.033,10.466" transform="translate(-272.573 -297.072)"/><path class="ac" d="M352.658,328.116a36.5,36.5,0,0,0-4.845-24.084c-1.066-1.775-2.5-3.613-4.487-3.973a2.144,2.144,0,0,0-1.578.232,2.788,2.788,0,0,0-.879,2.386c-.029,4.762,2.359,9.317,5.032,13.377s4.166,7.436,6.757,12.062" transform="translate(-264.791 -295.75)"/><path class="ac" d="M371.44,334.854a36.5,36.5,0,0,0-10.065-22.41c-1.435-1.494-3.242-2.968-5.257-2.879a2.162,2.162,0,0,0-1.488.576,2.8,2.8,0,0,0-.328,2.523c1.028,4.649,4.366,8.561,7.875,11.928s5.711,6.327,9.263,10.263" transform="translate(-258.802 -291.445)"/><path class="ac" d="M379.125,343.623a36.5,36.5,0,0,0,1.1-24.541c-.608-1.982-1.558-4.111-3.4-4.939a2.15,2.15,0,0,0-1.587-.154,2.791,2.791,0,0,0-1.429,2.1c-1.175,4.616.044,9.611,1.661,14.2s2.251,8.22,3.653,13.334" transform="translate(-250.159 -289.491)"/></g></g><path class="ac" d="M475.346,330.8a40.389,40.389,0,0,0-31.2-10.537c-7.627.772-15.943,4.846-17.621,12.326-.8,3.563-.519,8.289-3.892,9.688-3.3,1.369-6.487-2.031-9.874-3.167-5.64-1.892-12.074,4.556-10.173,10.192.866,2.562,3.035,4.794,2.853,7.494-.245,3.674-4.787,5.591-8.426,5.02s-6.851-2.7-10.419-3.6-8.193,0-9.446,3.465c-1.124,3.1.815,7.276-1.623,9.5a6.655,6.655,0,0,1-3.964,1.284c-30.906,2.935-64.942,8.479-61.484,13.969.946,1.5,3.362,1.024,5.136,1,65.782-1.03,125.535-2.01,191.294.006" transform="translate(425.832 239.311)"/><path class="ad" d="M465.673,283.04c-4.6,13.088-18.27,27.736-33.875,27.736-17.719,0-22.043-14.365-27.21-18.908-12.708-11.174-20.653-13.775-36.826-16.532-10.524-1.8-21.773-16.563-19.047-31.219,4.973-26.73,53.176-39.473,65.38-59.03,9.944-15.935,9.422-25.455,26.82-36.889" transform="translate(443.167 161.871)"/><path class="ad" d="M507.283,188.028c3.284-15.409,19.623-34.046,46.027-27.968,16.988,3.909,21.5,19.9,30.62,30.185,6.755,7.617,16.357,13.873,19.506,24.638,7.262,24.829-2.626,51.717-20.295,60.167-10.828,5.177-39.383,2.093-50.177-3.175" transform="translate(514.8 166.684)"/><g transform="translate(746.985 439.497)"><path class="ae" d="M388.485,382.348c0,1.314-13.715,2.38-30.635,2.38s-30.633-1.066-30.633-2.38,13.715-2.379,30.633-2.379S388.485,381.034,388.485,382.348Z" transform="translate(-313.317 -173.197)"/><path class="af" d="M376.361,298.838s3.391,3.937,4.015,4.167c.383.142,2.978.634,3.834.788a3.364,3.364,0,0,1,.93.264,2.99,2.99,0,0,1,.773.625,24.238,24.238,0,0,1,1.765,2.138,3.827,3.827,0,0,1,.409.614,3.668,3.668,0,0,1,.263.854q.553,2.5.947,5.029a.45.45,0,0,1-.012.267c-.094.193-.39.145-.553.006s-.284-.342-.486-.408l-.007.429a1.011,1.011,0,0,1-.94-.135,7.75,7.75,0,0,1-2.958-2.862,3.306,3.306,0,0,0-.469-.685c-.522-.516-1.339-.508-2.045-.689a11.666,11.666,0,0,1-1.919-.622c-1.1-.5-1.236-1.826-1.34-2.076a1.008,1.008,0,0,0-.284-.342c-.721-.651-3.59-2.816-3.59-2.816" transform="translate(-291.926 -209.753)"/><path class="ag" d="M349.57,240.528c1.6.461,2.443,2.524,2.985,3.935a21.968,21.968,0,0,1,1.2,5.311,7.29,7.29,0,0,1-.261,3.735,7.858,7.858,0,0,1-1.041,1.625,3.43,3.43,0,0,1-.753.792,1.161,1.161,0,0,1-1.039.177c-.5-.191-.7-.776-.84-1.291A34.009,34.009,0,0,0,346,245.15" transform="translate(-304.856 -236.025)"/><path class="ah" d="M349.682,248.228c.032-1.068,1.156-1.764,2.129-.659.807.915,1.02,2.653,1.066,3.937.055,1.538-1.137,1.839-2.118,2.055" transform="translate(-303.195 -233.105)"/><g transform="translate(52.385 195.842)"><path class="ai" d="M359.147,373.947a35.62,35.62,0,0,1-.2,4.439c-.232,1.163-3.98.788-4.34.126s.088-6.078.088-6.078" transform="translate(-353.425 -372.434)"/><path class="aj" d="M353.844,378.109c-.1,1.229-.1,3.548-.1,3.548l3.843.927.489-.653a6.735,6.735,0,0,0,2.259,1.23,15.064,15.064,0,0,0,3.624.35c3.175-.213,5.366-1.2,5.474-1.667.456-1.941-3.764-1.7-4.623-1.768a5.566,5.566,0,0,1-4.607-3.235c-.348-.914-.144-1.121-.667-1a1.278,1.278,0,0,0-.818.576,2.29,2.29,0,0,1-2.433,1.036,2.731,2.731,0,0,1-1.451-.83A1.581,1.581,0,0,0,353.844,378.109Z" transform="translate(-353.748 -370.913)"/></g><path class="ak" d="M353.966,352.743c.364-5.757-4.286-13.463-4.286-13.463s12.556-6.9,12.745-9.044c0,0,1.719,11.847,2.335,16.027,1.072,7.26-2.55,48.674-2.55,48.674a14.94,14.94,0,0,1-6.118.084s-.651-16-3.268-26.833C351.585,363.051,353.533,354.166,353.966,352.743Z" transform="translate(-303.196 -195.606)"/><path class="ak" d="M359.073,300.648c4.714,10.52,9.833,44.461,11.061,56.179.521,4.968-3.618,10.791-8.437,6.3-5.751-5.363-13.843-29.931-16.735-34.268s-13.709-8.313-6.32-30.317" transform="translate(-309.313 -209.887)"/><g transform="translate(22.597 197.559)"><path class="ai" d="M338.961,373.618s-.424,4.62-.59,5.794-3.931,1.01-4.326.368-.251-6.074-.251-6.074" transform="translate(-332.962 -373.618)"/><path class="aj" d="M333.232,379.284a25.145,25.145,0,0,0,.125,3.257l4.33.292.261-.709a6.821,6.821,0,0,0,2.459.892l3.655.245c2.675.18,4.217-.059,4.315-.525.415-1.948-2.786-2.074-3.619-2.129-2.389-.161-4.9-1.453-5.383-2.7-.351-.908-.155-1.118-.66-.986a1.238,1.238,0,0,0-.785.59,2.2,2.2,0,0,1-2.341,1.079,2.612,2.612,0,0,1-1.416-.8A1.584,1.584,0,0,0,333.232,379.284Z" transform="translate(-333.213 -372.149)"/></g><path class="ak" d="M350.1,366c-.8,4.094-11.491,2.565-11.261-1.06.328-5.154-3.284-11.815-4.668-36.347-.158-2.8-2.966-3.214-4.072-10.836s3.431-16.087,3.431-16.087l16.452-2.356S356.308,313.579,355,327.8,351.048,361.176,350.1,366Z" transform="translate(-312.094 -209.539)"/><path class="ak" d="M337.47,345.674s-3.741,7.409-4.179,12.765c-.643,7.837.151,33.631.151,33.631s4.047.878,6.207.242c0,0,9.5-45.766,9.845-50.686S337.47,345.674,337.47,345.674Z" transform="translate(-310.694 -191.138)"/><path class="al" d="M368.343,267.479c-1.86-2.134-7.763-5.65-15.653-5.4-5.435.171-20.238,1.069-21.893,4.706-.846,1.858-1.754,20.894-.515,27.458.931,4.935,3.312,17.162,3.312,20.112s-1.584,4.215-.844,5.073c1.657,1.919,12.983,2.724,18.3,2.724,4.735,0,12.791-1.262,13.2-2.778.608-2.251-.923-2.167-1.13-4.527s-1.323-17.92.062-20.182c2.2-3.59,4.385-13.046,4.553-15.752S370.2,269.613,368.343,267.479Z" transform="translate(-312.21 -226.321)"/><path class="am" d="M334.374,276.451c-.564,1.174-4.4,7.334-4.4,7.334l-.155.737a30.641,30.641,0,0,0,.39,3.293c.931,4.935,3.312,17.162,3.312,20.112s-1.584,4.215-.844,5.073c.661.766,2.878,1.352,5.628,1.784a7.125,7.125,0,0,1-1.272-1.831c-.221-.866,1.227-.646,1.493-1.374s-3.288-14.992-4.156-21.844S334.939,275.278,334.374,276.451Z" transform="translate(-312.143 -219.894)"/><path class="af" d="M352.265,258.74s.052,6.565.318,6.829a10.256,10.256,0,0,0,1.561.878s-.924,5.707-2.354,5.283-10.871-5.192-10.871-5.192,1.339-.545,1.339-1.075-1.271-10.853-1.271-10.853" transform="translate(-307.144 -229.68)"/><path class="af" d="M347.562,241.017c1.375.376,5-.376,6,1.126s1.877,5.128,2.251,6.129c.747,1.992,1.234,4.12,1.777,6.174.706,2.676,1.873,7.578-.746,9.816a3.481,3.481,0,0,1-2.019,1.024c-1.239.225-2.473.479-3.712.7-1.921.345-4.049.747-5.956.128-2.549-.828-3.947-4.331-4.6-6.712l-3.753-13.632Z" transform="translate(-308.997 -235.805)"/><path class="an" d="M350.1,267.492s.521,24.162,1.5,38.861l-3.553,4.9-2.443-6.136a186.883,186.883,0,0,1,2.311-37.457Z" transform="translate(-305.099 -223.876)"/><path class="an" d="M350.676,266.5l-.083.332a6.771,6.771,0,0,1-.735,1.79h0l-2.18.168s-1.482-.776-1.678-1.612,2.434-2.2,2.434-2.2l.319.126a4.742,4.742,0,0,1,1.9,1.365Z" transform="translate(-304.859 -225.009)"/><path class="ao" d="M342.6,260.518a13.563,13.563,0,0,0-2.974,3,27.936,27.936,0,0,0,7.247,9,12.6,12.6,0,0,1,4.426-5.532S343.381,265.35,342.6,260.518Z" transform="translate(-307.726 -227.019)"/><path class="ao" d="M347.674,266.854a9.378,9.378,0,0,1,4.336,4.121,20.767,20.767,0,0,0-.589-7.649s-1.467-2.463-2.085-2.509C349.592,263.728,347.674,266.854,347.674,266.854Z" transform="translate(-304.1 -226.884)"/><path class="al" d="M356.677,264.915c4.809,2.673,13.035,30.152,13.95,30.452s19.549,22.247,19.549,22.247l-2.955,4s-18.811-13.679-24.211-19.668c-3.8-4.215-11-23.044-11-23.044S351.869,262.243,356.677,264.915Z" transform="translate(-302.144 -225.168)"/><path class="am" d="M363.668,295.519c-1.861-1.646-7.765-19.105-7.765-19.105l-1.42,5.976c2.357,5.512,5.374,11.982,7.415,14.245,5.4,5.989,24.211,19.668,24.211,19.668l1.15-1.556S365.529,297.166,363.668,295.519Z" transform="translate(-301.032 -219.856)"/><g transform="translate(0.408 85.476)"><path class="l" d="M347.58,296.373l-28.559,5.392a1.355,1.355,0,0,0-1.056,1.691l3.825,19.752a1.355,1.355,0,0,0,1.559.973l28.559-5.39a1.356,1.356,0,0,0,1.056-1.691l-3.825-19.752A1.357,1.357,0,0,0,347.58,296.373Z" transform="translate(-317.916 -296.35)"/><path class="ap" d="M346.627,297.412l-27.343,5.161,3.788,19.614,27.343-5.161Z" transform="translate(-317.3 -295.871)"/><g transform="translate(5.434 3.43)"><line class="aq" x1="2.987" y1="16.697" transform="translate(21.631)"/><line class="aq" x1="2.987" y1="16.697" transform="translate(19.052 0.5)"/><line class="aq" x1="2.987" y1="16.697" transform="translate(15.342 1.26)"/><line class="aq" x1="2.987" y1="16.697" transform="translate(11.631 2.02)"/><line class="aq" x1="3.349" y1="16.697" transform="translate(7.558 2.78)"/><line class="aq" x1="3.349" y1="16.697" transform="translate(3.848 3.54)"/><line class="aq" x1="3.486" y1="16.697" transform="translate(0 4.3)"/></g></g><g transform="translate(0 38.122)"><path class="af" d="M328.911,306.265s1.13,2.3,1.735,3.474c.395.763,3.394,3.319,4.6,5.354a5.2,5.2,0,0,1,.943,3.223,2.16,2.16,0,0,1-2.327,1.964c-.318-.068-.68-.223-.937-.025a1.236,1.236,0,0,0-.268.41,1.268,1.268,0,0,1-2.34-.322,2.143,2.143,0,0,1-2.853-.03,1.706,1.706,0,0,0,.689-1.51,3.42,3.42,0,0,0-.872-1.406,4.359,4.359,0,0,1-.9-2.752c.019-.7.209-1.385.286-2.083a6.625,6.625,0,0,0-.92-4.138" transform="translate(-313.98 -244.529)"/><path class="al" d="M341.169,279.3c-.863,3.077-14.008,23.311-14.008,23.311L334.2,328.26l-4.012,2.511s-12.511-20.79-12.55-26.66,9.153-27.391,15.872-36.19c2.138-2.8,6.426-4.215,6.426-4.215" transform="translate(-317.635 -263.705)"/></g><path class="an" d="M340.782,258.656c.866-.5,1.529-1.039,2.092-.21.3.44.479,1.046.988,1.2a1.022,1.022,0,0,0,1.159-.82,2.956,2.956,0,0,0-.191-1.555q-.52-1.678-1.042-3.355a5.05,5.05,0,0,1-.244-3.358A3.7,3.7,0,0,1,344.6,249.2a11.238,11.238,0,0,1,5.15-2.2,55.339,55.339,0,0,0,5.543-1.137,6.012,6.012,0,0,0,2.111-1.063,4.555,4.555,0,0,0,1.5-3.412,7.067,7.067,0,0,0-1.082-3.638,6.085,6.085,0,0,1-.554,1.263,4.672,4.672,0,0,0-1.01-1.584c-.538,3-13.183,2-16.138,3.325-2.047.917-3.741,1.517-3.679,4.836a1.2,1.2,0,0,1-.4.526c-1.815,1.668-2.6,3.7-2.829,6.706-.278,3.683,1.867,7.672,3.969,10.708a6.873,6.873,0,0,0,1.561,1.868,4.148,4.148,0,0,0,2.939.663c.912-.174,2.708-.1,2.726-1.024.013-.664-1.407-1.849-1.8-2.385" transform="translate(-310.628 -237.424)"/><path class="af" d="M342.046,255.894a1.16,1.16,0,0,1-1.733,1.316,4,4,0,0,1-2.524-3.1c-.3-1.593.558-3.185,2.016-2.772a2.151,2.151,0,0,1,1.377,2.1" transform="translate(-308.581 -231.183)"/><path class="ah" d="M350,257.844l-4.057.746a5.654,5.654,0,0,0,4.109,1.517" transform="translate(-304.881 -228.223)"/><path class="ar" d="M358.891,356.249c.734-2.406-1.332-6.14-2.348-8.922s-8.661-25.046-8.661-25.046l-1.687,8.98c1.587,3.85,3.319,7.968,5.057,11.6h0v0c.67,1.4,1.339,2.726,2,3.938,1.208,2.726,2.48,6.4,2.283,9.522-.434,1.423-2.382,10.308-1.143,15.446,2.615,10.836,3.268,26.833,3.268,26.833a15.616,15.616,0,0,0,1.876.222c-.221-3.95-.6-10.923-.647-12.3-.061-1.947-2.524-13.16-2.348-17.6A59.69,59.69,0,0,1,358.891,356.249Z" transform="translate(-304.767 -199.19)"/><g transform="translate(30.479 91.183)"><path class="l" d="M342.9,309.464l-2.472.585-1.785-9.242,2.478-.524Z" transform="translate(-338.647 -300.284)"/><path class="l" d="M345.649,303.41a2.249,2.249,0,0,0-2.627-1.793l-2.833.535.836,4.42,2.831-.535A2.249,2.249,0,0,0,345.649,303.41Zm-3.479.657a1.262,1.262,0,1,1,1.474,1.005A1.261,1.261,0,0,1,342.17,304.067Z" transform="translate(-337.952 -299.701)"/></g></g><g transform="translate(838.546 455.274)"><ellipse class="ae" cx="31.828" cy="2.866" rx="31.828" ry="2.866" transform="translate(0 208.26)"/><g transform="translate(39.297 33.187)"><path class="am" d="M435.779,275.861l-19.532-2.626v39.151l10.594,1.424a1.773,1.773,0,0,0,1.981-1.275l8.434-34.664A1.67,1.67,0,0,0,435.779,275.861Z" transform="translate(-404.061 -270.252)"/><path class="al" d="M414.917,272.329l-7.034,30.9a1.478,1.478,0,0,0,1.232,1.791l21.893,3.145a1.48,1.48,0,0,0,1.652-1.136l7.034-30.9a1.477,1.477,0,0,0-1.232-1.791l-21.893-3.145A1.479,1.479,0,0,0,414.917,272.329Z" transform="translate(-407.846 -271.179)"/><path class="ap" d="M415.757,272.659l-6.734,29.581,21.738,3.122,6.734-29.581Z" transform="translate(-407.316 -270.512)"/><g transform="translate(6.378 4.795)"><line class="aq" x1="18.473" y1="2.653" transform="translate(3.025)"/><line class="aq" x1="18.473" y1="2.653" transform="translate(2.403 2.796)"/><line class="aq" x1="11.544" y1="1.658" transform="translate(1.641 6.109)"/><line class="aq" x1="11.544" y1="1.658" transform="translate(0.821 8.512)"/><line class="aq" x1="11.544" y1="1.658" transform="translate(0 10.915)"/><line class="aq" x1="11.544" y1="1.658" transform="translate(4.233 24.196)"/></g></g><path class="ah" d="M408.256,297.849a9.573,9.573,0,0,0,3.043-2.716l2.61-3.106a2.6,2.6,0,0,0,.741-1.388c-1.458-.117-2.4,1.775-3.856,1.889a30.473,30.473,0,0,1,2.9-6.883,2.117,2.117,0,0,0,.418-1.715,11.108,11.108,0,0,0-4.051,2.959,21.717,21.717,0,0,0-2.2,2.794,30.04,30.04,0,0,0-3.928,9.651" transform="translate(-370.313 -232.246)"/><g transform="translate(10.81 77.301)"><path class="af" d="M409.043,314.779,393.41,301.59s-7.275,9.867-4.534,19.385c1.348,4.681,3.039,7,3.774,9.223.686,2.076,5.392,31.448,5.039,33.6s-2.876,8.157-3.841,14.475c-1.159,7.6-.963,32.361-1.863,38.925s5.164,7.676,5.5,5.456c2.849-18.984,10.376-48.568,11.429-58.058S409.538,337.719,409.043,314.779Z" transform="translate(-388.185 -301.59)"/><path class="ah" d="M404.73,323.583l-6.8,15.6a34.937,34.937,0,0,1,4.743,16.351c.115,3.01-.151,6.026-.068,9.037a2.972,2.972,0,0,0,.091.654c.911-4.462,1.591-8.141,1.857-10.535.744-6.706.747-17.363.512-31.123A2.92,2.92,0,0,0,404.73,323.583Z" transform="translate(-383.827 -291.688)"/><path class="af" d="M398.348,381.29s-1.456,6.887-1.065,7.766,1.8,3.429,3.242,4.352c1.514.968,4.865,2.118,5.134,2.537a1.04,1.04,0,0,1-.193,1.407,6.936,6.936,0,0,1-4.778,1.211c-4.545-.75-5.015-2.759-7.662-3.081-.457-.055-1.3.621-2.567-.026a3,3,0,0,1-1.77-2.916,12.992,12.992,0,0,1,2.01-4.865c.759-1.4,1.292-7.824,1.292-7.824" transform="translate(-387.996 -266.328)"/><path class="an" d="M406.031,394.908c.332-.567.416-1.424.109-1.633a26.267,26.267,0,0,0-2.83-1.7c-.88-.406-2.279-.764-1.786-.5s-.415,1.261-1.24,1.21c-2.847-.174-4.948-2.067-6.571-2.473-2.341-.585-3.322-3.349-3.425-3.8a10.907,10.907,0,0,0-1.683,3.206,5.6,5.6,0,0,0-.347,2.449,5.683,5.683,0,0,1,.26,2.335,4.478,4.478,0,0,0,1.684.606,6.586,6.586,0,0,0,1.812.026l.2-1.471a6.653,6.653,0,0,1,1.449.144,7.816,7.816,0,0,1,2.212,1.033c.325.389.586,1.1,1.017,1.313a9.07,9.07,0,0,0,3.735.931C403.684,396.763,405.466,395.877,406.031,394.908Z" transform="translate(-388.208 -263.551)"/></g><g transform="translate(16.157 75.775)"><path class="af" d="M428.75,433.135c-.335-.371-3.957-.962-5.656-1.671a9.771,9.771,0,0,1-3.96-3.771c-.381-.923-.293-5.6-.245-7.559.339-13.518,2.837-46.552,3.2-54.462.628-13.75-1.156-27.942-6.446-50.016l-19.7-15.118s-5.518,10.256-3.67,20.061c1.07,5.689,5.791,6.565,6.588,8.776s12.716,37.861,12.716,37.861a67.118,67.118,0,0,0-2.453,16.151c-.115,7.208,3.154,28.95,3.76,37.235.071,1.619.35,5.493-.126,6.726-.585,1.511-2.074,3.287-2,5.193A2.933,2.933,0,0,0,413,435.135c1.4.434,2.174-.373,2.655-.393,2.776-.115,3.547,1.794,8.341,1.793a7.587,7.587,0,0,0,4.759-1.979A1.011,1.011,0,0,0,428.75,433.135Z" transform="translate(-391.894 -300.538)"/><path class="an" d="M423.47,395.046c.263-.615.228-1.477-.119-1.632a27.443,27.443,0,0,0-3.161-1.221c-.966-.257-2.459-.381-1.913-.2s-.25,1.313-1.107,1.4c-2.965.293-5.4-1.236-7.131-1.371-2.5-.2-3.416-2.769-3.586-3.2a11.5,11.5,0,0,0-1.768,3.447,5.417,5.417,0,0,0-.012,2.478,5.418,5.418,0,0,1,.6,2.264,4.717,4.717,0,0,0,1.823.325,7.253,7.253,0,0,0,1.874-.27v-1.487a7.212,7.212,0,0,1,1.514-.1,5.01,5.01,0,0,1,2.443.863c.408.308.836.824,1.316.944a10.056,10.056,0,0,0,3.892.295C421.31,397.265,423.023,396.1,423.47,395.046Z" transform="translate(-386.202 -260.758)"/></g><path class="an" d="M394.005,300.908c-1.336,1.468-6.1,9.407-6.152,15.869s2.248,10.605,2.454,11.954c1.511,9.871,2.972,21.776,2.972,22.423s5.6,4.384,13.139,3.909c13.924-.876,19.338-4.523,19.338-4.523s-.66-23.913-2.805-35.7c-1.076-5.908-5.76-15.418-5.76-15.418" transform="translate(-377.558 -225.267)"/><path class="af" d="M383.337,282.99s2.243,11.142,2.83,13.125,3.5,14.574,6.255,14.355,17.861-12.829,17.861-12.829l-2.14-4.278L394.85,299.7s-1.2-14.391-2.254-17.819" transform="translate(-379.593 -233.169)"/><path class="ah" d="M386.88,287.375c1.407,4.974,4.292,10.216,5.154,14.073.173.775,9.379-2.572,9.4-6.03" transform="translate(-377.996 -230.694)"/><path class="aj" d="M392.514,272s-4.408.47-6.644,2.18c-5.7,4.362-1.288,20.192-1.288,20.192s-.281.844,3.545.63a27.565,27.565,0,0,0,6.894-1.3l-1.107-12.971" transform="translate(-379.765 -237.622)"/><path class="as" d="M386.086,278.178s-.483,9.305,1.2,14a15.183,15.183,0,0,0,3.12-.41Z" transform="translate(-378.383 -234.838)"/><path class="af" d="M410.214,252.14c2.656,3.444,2.129,8.287,1.475,12.588q-.5,3.259-.994,6.522a3.274,3.274,0,0,1-4.2,3.442q.017,2.7.032,5.4-4.615.113-9.236.038a8.9,8.9,0,0,0-.8-3.666c-1.506-.029-2.512-1.539-3.1-2.924a42.628,42.628,0,0,1-1.654-4.939,27.344,27.344,0,0,1-1.3-6.773,9.8,9.8,0,0,1,1.954-6.481,11.807,11.807,0,0,1,3.751-2.8c1.91-1,4.2-1.781,6.172-.91" transform="translate(-376.395 -246.969)"/><path class="an" d="M408.6,269.879a5.623,5.623,0,0,1,.255-4.034,2.65,2.65,0,0,1,.808-1.024,1.71,1.71,0,0,1,1.646-.171,1.823,1.823,0,0,1,.827.772,23.621,23.621,0,0,0,.577-7.543,9.808,9.808,0,0,0-6.222-8.541c-6.52-2.679-15.89-.032-18.537,6.368-2,4.835-.986,11.812,2.842,15.865,3.39,3.589,8.267,4.115,12.766,3.375,2.3-.377,5.856-.151,7.048-3.283a.35.35,0,0,0-.36-.464C409.315,271.271,408.665,270.212,408.6,269.879Z" transform="translate(-377.965 -248.3)"/><path class="an" d="M404.265,260.963c.242.38.184.891.412,1.279a3.009,3.009,0,0,0,1.577,1.207c1.107.514.847,2.124.815,2.845.836-.556.97-2.066,1.172-2.833.226-.863.371-1.746.622-2.6a13.11,13.11,0,0,0,.746-2.491,10.224,10.224,0,0,0-3.919-8.274,5.448,5.448,0,0,0-6.1.073,4.764,4.764,0,0,0-1.742,2.215,1.469,1.469,0,0,0-.068,1.189" transform="translate(-373.131 -247.896)"/><path class="as" d="M392,273.058c.157-1.053.441-2.283,1.423-2.7a3.076,3.076,0,0,1,.866-.184,71.68,71.68,0,0,1,9.047-.426,8.414,8.414,0,0,1,3.661.643c1.754.876,2.718,2.766,3.565,4.533" transform="translate(-375.688 -238.64)"/><path class="aj" d="M420.121,311.141a25.16,25.16,0,0,1-1.738-2.048c-.834-1.639-1.564-8.547-1.276-10.311.308-1.892,1.981-2.908,2.736-7.118a15.562,15.562,0,0,0-2.493-11.442c-1.757-2.553-.715-2.539-1.316-5.666a2.976,2.976,0,0,0-.621-1.556,15.017,15.017,0,0,0-3.513-1.665c-4.884-.756-7.753-.165-12.691.051a42.372,42.372,0,0,0-7.279.921c-2.653.585-4.965,1.29-5.511,4.891a36.268,36.268,0,0,0,1.558,16.483c1.123,3.5,7.824,15.617,6.164,17.961a8.014,8.014,0,0,0-1.443,2.222c-.421,2.449,5.112,3.309,7.479,3.5a92.8,92.8,0,0,0,11.362-.071c2.739-.128,8.731-1.085,9.156-4.469A2.444,2.444,0,0,0,420.121,311.141Z" transform="translate(-378.365 -238.089)"/><path class="as" d="M411.294,287.966a9.809,9.809,0,0,1-.728,2.824c-.688.354-3.412.94-4.976.225a72.342,72.342,0,0,0-2.25-9.52S411.293,287.055,411.294,287.966Z" transform="translate(-370.579 -233.343)"/><path class="an" d="M395.167,265.166c-1.88-.531-3.9.527-5.157,2.025-1.446,1.732-2.071,4.423-.721,6.229a6.031,6.031,0,0,0,1.961,1.562,10.385,10.385,0,0,0,7.379,1.369c2.488-.611,4.672-2.837,4.642-5.4-.026-2.318-1.719-4.253-3.431-5.817" transform="translate(-377.247 -240.763)"/><g transform="translate(37.216 36.285)"><path class="af" d="M406.412,286.784s9.021,21.8,12.935,21.8c2.848,0,9.828-20.125,9.828-20.125l-4.411-2.087-4.919,8.428-4.98-15.72" transform="translate(-406.412 -270.716)"/><path class="af" d="M418.46,289.031s1.462-2.3,1.355-3.935c-.041-.624-.411-3.587-.1-4.17a17.436,17.436,0,0,1,1.475-2.861c.424-.37,1.99-.966,2.373-.7s.86-.953,1.5-.847a1.347,1.347,0,0,1,1.166,1.218c0,.583.847.689.953,1.113a6.014,6.014,0,0,0,.212,1.113c.16.318.628.161.795.953.154.725-.054.795,0,1.165s.371.337.265,1.043a8.867,8.867,0,0,1-1.014,2.417,6.979,6.979,0,0,1-2.46,2.492,4.694,4.694,0,0,0-1.435,1.982" transform="translate(-400.984 -271.875)"/><path class="an" d="M420.451,273.624a.539.539,0,0,0-.779-.21.7.7,0,0,0-.173.866c.078.176,2.668,6.034,2.668,6.034s.216.248.628-.115c.448-.395.3-.592.3-.592S420.563,273.8,420.451,273.624Z" transform="translate(-400.551 -273.314)"/><g transform="translate(20.263 5.82)"><path class="ah" d="M422.828,277.413a6.2,6.2,0,0,1-1.626,1.7c-.415.39-.364.641-.821,1.043.8-.061.664-.534,1.7-1.284a2.2,2.2,0,0,0,1.075-1.316.182.182,0,0,0-.332-.139Z" transform="translate(-420.381 -277.326)"/></g></g><path class="aj" d="M400.692,271.013c2.349.122,9.189-1.078,12.99,2.9,3.184,3.331,5.007,12.063,6.29,15.6-3.19,3.251-6.262,5.873-11.1,4.817-.183-.135-2.581-7.682-4.327-8.354" transform="translate(-371.773 -238.102)"/><path class="ag" d="M406.443,347.157c-.888-5.736-6.381-23.52-6.615-24.008a21.446,21.446,0,0,1-5.96-6.647c-.676,3.9,1.1,7.752,2.766,11.341,2.911,6.268,4.636,13.084,7.141,19.525" transform="translate(-374.914 -217.57)"/></g><g transform="translate(879.963 284.879)"><path class="at" d="M421.908,138.245c.062-.148-7.717,4.672-7.717,4.672l2.021,13.1,3.816-9.8,10.051-1.918,14.323-13.47Z" transform="translate(-407.108 -130.832)"/><path class="au" d="M443.775,130.833l-28.19,25.19,3.816-9.8Z" transform="translate(-406.48 -130.833)"/><path class="ac" d="M446.6,130.833l-37.294,7.92,7.083,4.166L446.6,130.833,422.229,146.22l12.046,7.438Z" transform="translate(-409.308 -130.833)"/></g><path class="ag" d="M340.967,251.744c.1.187.693.141.807.167.244.058.145.1,1.316,1.362.863.928,2.172,1.079,4.482.026,1.765-.8,1.374-2.16,1.438-2.843s.209-.817.495-.9.448-.048.882.483a2.867,2.867,0,0,0,3.149,1.445c1.49-.351,1.99-1.079,2.076-2.028.155-1.7.162-1.68.332-1.864s.055-.857-.1-1.208-1.252-.106-2.367.235a13.417,13.417,0,0,0-3.409,1.349c-.574.485-.483.718-.8.82s-.406-.142-1.155-.223a25.454,25.454,0,0,0-4.839,1.166c-1.115.339-2.634.943-2.565,1.32A2.558,2.558,0,0,0,340.967,251.744Zm9.775-3c.007-.47.435-.622,1.722-1.078s1.826-.686,2.109-.538.579.788.5,1.774c-.087,1.131-.36,1.7-1.419,2.021a1.9,1.9,0,0,1-2.341-.75A3.889,3.889,0,0,1,350.743,248.749Zm-7.98,1.986a11.339,11.339,0,0,1,3.2-1.082c1.31-.335,1.746-.448,2.012-.065a3.863,3.863,0,0,1,.318,1.493c.042.769-.061,1.461-2.092,2.089-1.432.444-2.173.184-2.871-.7C342.723,251.7,342.612,251.012,342.763,250.734Z" transform="translate(439.746 206.032)"/><g transform="translate(815.275 372.834)"><rect class="ac" width="69.243" height="49.583" rx="4.52" transform="translate(69.243 49.583) rotate(180)"/><path class="ac" d="M407.086,217.231l16.6-4.687-14.8-3.864" transform="translate(-345.621 -183.711)"/><g transform="translate(9.225 8.496)"><rect class="av" width="10.332" height="2.372" transform="translate(25.736 15.964) rotate(180)"/><rect class="av" width="17.63" height="2.372" transform="translate(25.736 12.419) rotate(180)"/><rect class="av" width="50.695" height="2.932" transform="translate(50.695 26.376) rotate(180)"/><rect class="av" width="50.695" height="2.932" transform="translate(50.695 30.756) rotate(180)"/><rect class="av" width="17.63" height="2.372" transform="translate(25.736 8.875) rotate(180)"/><rect class="av" width="6.472" height="2.372" transform="translate(25.736 5.331) rotate(180)"/><path class="av" d="M391.719,207.7a10.373,10.373,0,1,0,10.373-10.374A10.373,10.373,0,0,0,391.719,207.7Z" transform="translate(-361.77 -197.324)"/><path class="aw" d="M398.723,206.714a3.737,3.737,0,1,1,4.082,0,5.269,5.269,0,0,1,4.056,5.121v3.1a10.321,10.321,0,0,1-12.194,0v-3.1A5.269,5.269,0,0,1,398.723,206.714Z" transform="translate(-360.442 -196.184)"/></g></g><g transform="translate(807.877 346.958)"><path class="l" d="M373.527,183.513a7.212,7.212,0,1,1-4.028-9.369A7.213,7.213,0,0,1,373.527,183.513Z" transform="translate(-359.613 -173.629)"/><path class="ax" d="M362.468,178.008l1.619,3.61,5.419-3.351" transform="translate(-358.327 -171.656)"/></g><g transform="translate(1087.507 293.487)"><path class="l" d="M566.228,141.14a7.212,7.212,0,1,1-9.469-3.789A7.21,7.21,0,0,1,566.228,141.14Z" transform="translate(-552.385 -136.767)"/><path class="ax" d="M555.439,144.3l3.7,1.412,1.47-6.2" transform="translate(-551.01 -135.529)"/></g><path class="l" d="M291.9,264.529a2.652,2.652,0,1,1-2.653-2.653A2.652,2.652,0,0,1,291.9,264.529Z" transform="translate(415.364 213.091)"/><path class="l" d="M636.959,224.332a2.652,2.652,0,1,1-2.653-2.652A2.652,2.652,0,0,1,636.959,224.332Z" transform="translate(570.838 194.98)"/><path class="l" d="M465.082,155.57a2.652,2.652,0,1,1-2.652-2.653A2.653,2.653,0,0,1,465.082,155.57Z" transform="translate(493.395 163.997)"/><g transform="translate(866.306 363.105)"><g transform="translate(2.984)"><path class="l" d="M402.8,192.418a.846.846,0,0,1-.846-.846v-5.966a.846.846,0,1,1,1.691,0v5.966A.846.846,0,0,1,402.8,192.418Z" transform="translate(-401.95 -184.76)"/></g><g transform="translate(0 2.982)"><path class="l" d="M406.706,188.507h-5.968a.846.846,0,1,1,0-1.691h5.968a.846.846,0,1,1,0,1.691Z" transform="translate(-399.893 -186.816)"/></g></g><g transform="translate(720.164 590.427)"><g transform="translate(2.984 0)"><path class="l" d="M302.048,349.131a.847.847,0,0,1-.846-.846v-5.968a.846.846,0,0,1,1.691,0v5.968A.848.848,0,0,1,302.048,349.131Z" transform="translate(-301.202 -341.472)"/></g><g transform="translate(0 2.984)"><path class="l" d="M305.958,345.22h-5.968a.846.846,0,0,1,0-1.691h5.968a.846.846,0,0,1,0,1.691Z" transform="translate(-299.145 -343.529)"/></g></g><g transform="translate(1226.146 501.171)"><g transform="translate(2.982 0)"><path class="l" d="M650.863,287.6a.846.846,0,0,1-.846-.846v-5.966a.846.846,0,1,1,1.691,0v5.966A.846.846,0,0,1,650.863,287.6Z" transform="translate(-650.017 -279.941)"/></g><g transform="translate(0 2.982)"><path class="l" d="M654.773,283.69h-5.966a.846.846,0,0,1,0-1.693h5.966a.846.846,0,1,1,0,1.693Z" transform="translate(-647.961 -281.997)"/></g></g><g transform="translate(1024.568 259.979)"><g transform="translate(0)"><rect class="ay" width="38.771" height="25.207" transform="matrix(0.949, 0.316, -0.316, 0.949, 7.97, 8.991)"/><path class="ay" d="M551.272,134.916,514.49,122.657l23.43-8.991Z" transform="translate(-506.52 -113.667)"/><rect class="az" width="31.037" height="26.217" transform="translate(12.157 8.323) rotate(18.433)"/><path class="ba" d="M516.966,119.865,509,143.778,531.09,138.8Z" transform="translate(-508.996 -110.874)"/><path class="ba" d="M546.885,128.316l-7.97,23.913-14.687-17.241Z" transform="translate(-502.133 -107.066)"/><path class="ba" d="M545.778,151.4,509,139.143l23.43-8.991Z" transform="translate(-508.996 -106.239)"/></g><path class="bb" d="M509,139.143l23.43-8.991L545.778,151.4" transform="translate(-508.996 -106.239)"/></g><g transform="translate(1085.093 460.947)"><ellipse class="ae" cx="38.52" cy="5.064" rx="38.52" ry="5.064" transform="translate(3.581 216.192)"/><path class="bc" d="M487.335,182.973s-9.57,2.809-8.985,15.818S487.335,182.973,487.335,182.973Z" transform="translate(-449.824 -144.947)"/><g transform="translate(17.537 38.026)"><path class="bc" d="M497.846,182.973s-.739,1,.185,7.476-.827,9.18-1.035,11.873-3.368,20.091-3.454,20.86-.51,10.029-1.742,12.486-10.289,16.383-10.411,17.077-4.4-2.425-4.4-2.425,8.133-16.92,8.659-18.588c.655-2.071,2.658-7.2,2.78-9.887.3-6.564-.294-21.806-.064-25.126C488.8,190.5,493.7,183.961,497.846,182.973Z" transform="translate(-476.991 -182.973)"/></g><g transform="translate(14.507 93.571)"><g transform="translate(0)"><g transform="translate(0)"><path class="bd" d="M496.491,238.518s-1.425,3.13-2.267,3.325-1.845,1.237-2.567,1.557-2.991.5-3.6,1.087a22.712,22.712,0,0,1-1.764,2.769c-.56.438-1.8,1.189-1.416,1.66s1.671.1,1.671.1a.919.919,0,0,0-.278.949c.4,1.012,1.083,1.057,1.083,1.057s-.218.759.057,1.136a1.828,1.828,0,0,0,1.263.856,1.739,1.739,0,0,0,.583,1.044,1.549,1.549,0,0,0,1.508.253s.674.931,1.3.75a5.551,5.551,0,0,0,1.429-.917,21.247,21.247,0,0,0,4.7-7.191,25.63,25.63,0,0,1,3.139-6.062Z" transform="translate(-484.803 -238.518)"/></g></g></g><rect class="be" width="26.962" height="44.994" transform="matrix(-0.63, 0.777, -0.777, -0.63, 51.929, 96.732)"/><g transform="translate(15.88 100.703)"><g transform="translate(0)"><path class="bf" d="M491.205,248.6s2.709-3.009,4.058-2.952.43,1.2.43,1.2.892-1.143,1.851-.538-.185,1.883-.185,1.883a1.116,1.116,0,0,1,1.612.265c.71.952-.474,1.8-.474,1.8s1.788-.264,1.4,1.2a6.4,6.4,0,0,1-3.307,3.667s-.743.207-1.364-.757a1.56,1.56,0,0,1-2.129-1.3s-1.954-.45-1.333-2.01A1.4,1.4,0,0,1,491.205,248.6Z" transform="translate(-490.661 -245.649)"/></g></g><path class="bg" d="M455.828,144.968s13.84-1.152,13.461,13.407-2.686,16.748.009,27.035-13.494-5.843-13.494-5.843Z" transform="translate(-409.569 -144.947)"/><path class="bd" d="M467.711,234.928s5.1,6.494,6.894,10.793,4.8,13.714,4.4,21.007-2.8,20.985-2.1,24.082,1.4,9.495,2.147,11.692,3.747,8.593,4.049,15.188-4.2,35.574-4,38.271-5.1,1.1-5.1,1.1-1.8-26.179-2.8-30.676-2.2-19.784-3.1-20.884-3.358-12.49-2.976-14.289-9.813-28.779-10.412-34.175-15.629-22.108-15.629-22.108A46.708,46.708,0,0,1,467.711,234.928Z" transform="translate(-406.373 -144.947)"/><path class="bd" d="M472.56,234.928a30.371,30.371,0,0,1-.56,3.721c-.3,1-7.2,26.482-7.894,36.275a193.583,193.583,0,0,1-2.8,20.189,43.348,43.348,0,0,0,.9,10.887c.6,1.8-3,44.266-3.3,45.266s2.4,1.3,4.3,1S474.7,321.088,474.1,315.893s-1.2-16.276.5-20.78,16.987-37.078,17.087-39.076S498.3,219.615,472.56,234.928Z" transform="translate(-435.543 -144.947)"/><path class="bd" d="M446,353.875a21.39,21.39,0,0,1-1.031,4.391c-.539.941-2.015,5.734-2.689,6.631s-2.151,7.615,0,8.421,7.215,2.151,8.916-.537a11.057,11.057,0,0,0,1.658-7.437c-.27-2.061-2.313-11.52-2.285-12.455S446,353.875,446,353.875Z" transform="translate(-378.271 -144.947)"/><path class="az" d="M443.6,363.034s-.23,5.222,3.712,5.222,5.691-4.752,5.691-4.752,1.342,2.333,0,7.306-6.946,3.942-8.2,3.762S437.605,372.82,443.6,363.034Z" transform="translate(-378.735 -144.947)"/><path class="az" d="M502.214,349.185s-2.787,4.985-4.441,5.995c-2.063,1.26-6.065,5.3-7.463,5.483s-6.425,1.077-5.454,3.915c.8,2.324,12.783,1.992,14.135.827s5.395-5.348,7.027-5.256,1.024,6.034,1.024,6.034h1.772s.62-5.78.694-6.773c.221-2.94-1.877-5.105-1.97-6.781s-.188-2.931-.188-2.931Z" transform="translate(-478.422 -144.947)"/><path class="bd" d="M485.613,360.526s3.953,1.366,6.993-.381,8.878-4.4,10.942-4.422c0,0-1.123-3.443-1.148-3.828s-.146-2.2-.146-2.2l-5.1-.817s-3.309,4.857-4.767,6A82.652,82.652,0,0,0,485.613,360.526Z" transform="translate(-473.326 -144.947)"/><path class="bh" d="M448.568,234.479s-1.422,5.919-1.947,7.644-3.893,28.465-4.721,45.192c0,0,20.159,7.642,47.888,6.369,0,0,.674-30.727-1.872-39.42s-7.163-16.829-10.644-19.336C474.175,232.695,448.568,234.479,448.568,234.479Z" transform="translate(-415.934 -144.947)"/><path class="bi" d="M449.227,199.473c.225,3.523,1.667,5.777,1.967,7.05s0,4.2.374,7.122,1.5,16.861,1.123,20.834,27.265,2.177,29.361.978c0,0-4.654-8.323-4.779-11.772-.042-1.183-.75-4.87,1.2-7.568,1.028-1.424,2.937-5.957,4.841-9.271h0c.738-1.286,1.511-2.567,2.051-3.521h0a13.272,13.272,0,0,0,1.1-2.721s1.23-15.289-2.141-17.012a17.171,17.171,0,0,0-8.47-2.174,23.991,23.991,0,0,1-5.472-.824l-7.717.824a17.258,17.258,0,0,1-4.673,1.427c-1.948.149-4.329,4.382-5.508,7.448C451.507,192.82,449,195.95,449.227,199.473Z" transform="translate(-420.057 -144.947)"/><path class="bc" d="M442.64,182s6.109.507,8.408,6.122,2.1,11.316,2.6,13.389,1.227,14.087,1.75,15.863a100.211,100.211,0,0,1,2.724,16.661c.4,6.655-.59,20.69-.59,20.69l-3.385-1.645s-3.015-20.81-4.32-25.211c-1.117-3.761-1.117-10.161-1.745-12.471s-4.463-16.216-5.08-17.625C442.052,195.609,437.39,181.926,442.64,182Z" transform="translate(-382.569 -144.947)"/><path class="bc" d="M472.677,146.442a11.763,11.763,0,0,0-13.5,9.3,28.653,28.653,0,0,0,.374,4.5c.375,2-2.012,7.516-1.592,7.849a12.629,12.629,0,0,0,2.251.907s1.3,6.467,3.495,6.664,10.679-.566,15.469-7.879S486.529,148.709,472.677,146.442Z" transform="translate(-425.065 -144.947)"/><path class="bc" d="M462.855,173.161s.168.9.326,2.237c.08.682.158,1.473.208,2.311.136,2.322.067,5.008-.725,6.712,0,0,4.3,2.618,8.91-3.786,0,0-.455-7.947,2.191-12.172S462.855,173.161,462.855,173.161Z" transform="translate(-420.936 -144.947)"/><path class="bg" d="M457.021,155.747s5.166,4.458,10.633,5.864,8.364,7.549,8.364,7.549,9.675-9.65,3.836-19.015S457.032,144.955,457.021,155.747Z" transform="translate(-422.913 -144.947)"/><path class="bj" d="M465.9,175.4c.08.682.158,1.473.208,2.311a24.159,24.159,0,0,0,7.481-5.547C470.756,174.191,465.9,175.4,465.9,175.4Z" transform="translate(-423.656 -144.947)"/><path class="bg" d="M456.932,161.932s5.6,15.042,4.924,18.662c0,0,2.962-.51,8.233,1.1C470.089,181.695,467.541,154.861,456.932,161.932Z" transform="translate(-411.186 -144.947)"/><path class="bc" d="M475.485,181.079s-1.842,11.28-8.662,10.007-1.647-9.54-1.647-9.54S468.205,179.008,475.485,181.079Z" transform="translate(-422.947 -144.947)"/><path class="bc" d="M442.921,252.506a29.682,29.682,0,0,1-1.379,3.583c-.41.878-1.025,6.787-1.048,7.556-.019.644.435.3.685-.11.143-.234.684-2.252,1.146-3.312.387-.89.687-1.211.826-.9a20.035,20.035,0,0,1-.326,5.737c-.471,1.6-.388,5.375.508,4.9s3.408-7.1,3.433-9.668a50.307,50.307,0,0,0-.37-5.664Z" transform="translate(-371.425 -144.947)"/></g><g transform="matrix(0.978, 0.208, -0.208, 0.978, 525.882, 111.62)"><path class="bk" d="M533.856,104.61a13.547,13.547,0,1,1-13.548-13.548A13.547,13.547,0,0,1,533.856,104.61Z" transform="translate(0)"/><path class="az" d="M528.163,101.78c-.008,5.286-8.567,9.572-8.567,9.572s-8.537-4.285-8.566-9.572c-.037-6.748,8.8-4.987,8.879-1.957C519.833,96.793,528.173,95.459,528.163,101.78Z" transform="translate(0.712 1.012)"/></g><g transform="translate(338.006 381.213) rotate(-16)"><circle class="bl" cx="13.857" cy="13.857" r="13.857" transform="matrix(0.229, -0.973, 0.973, 0.229, 553.679, 128.576)"/><path class="bm" d="M578.574,112.765a10.325,10.325,0,1,1-20.649,0Z" transform="translate(2.089 5.493)"/><g transform="translate(560.014 118.258)"><g class="bn"><path class="bk" d="M574.113,121.346c0,2.67-3.12,4.835-6.969,4.835s-6.97-2.165-6.97-4.835,3.121-4.837,6.97-4.837S574.113,118.674,574.113,121.346Z" transform="translate(-556.819 -110.923)"/></g></g><g transform="translate(561.376 111.497)"><path class="bm" d="M559.315,112.6a.477.477,0,0,1-.115-.94l3.081-.77-2.885-1.772a.477.477,0,1,1,.5-.813l3.852,2.366a.477.477,0,0,1-.134.868l-4.183,1.046A.435.435,0,0,1,559.315,112.6Z" transform="translate(-558.838 -108.233)"/><g transform="translate(12.789)"><path class="bm" d="M572.07,112.6a.445.445,0,0,1-.116-.015l-4.182-1.046a.476.476,0,0,1-.134-.868l3.852-2.366a.477.477,0,1,1,.5.813L569.1,110.89l3.081.77a.477.477,0,0,1-.115.94Z" transform="translate(-567.41 -108.233)"/></g></g></g><g transform="translate(493.207 171.618)"><g transform="translate(626.95 154.572)"><circle class="bo" cx="11.477" cy="11.477" r="11.477" transform="matrix(0.662, -0.749, 0.749, 0.662, 0, 17.197)"/><path class="az" d="M642.422,161.31c1.365.33.285,3.483-.68,4l3.249.02a1.257,1.257,0,0,1,1.219,1.516l-.8,3.8a2.676,2.676,0,0,1-2.639,2.12l-4.573-.037.057-7.173C640.658,164.967,641.074,160.984,642.422,161.31Zm-5.244,10.51v-5.3a.938.938,0,0,0-.938-.938h-1.2a.937.937,0,0,0-.938.938v5.3a.938.938,0,0,0,.938.938h1.2A.939.939,0,0,0,637.178,171.819Z" transform="translate(-623.969 -151.77)"/></g></g><g transform="translate(374.207 190.152)"><circle class="bo" cx="9.857" cy="9.857" r="9.857" transform="translate(593.387 90.848)"/><g transform="translate(599.714 93.483)"><path class="az" d="M608.667,97.339a2.9,2.9,0,1,1-2.9-2.9A2.9,2.9,0,0,1,608.667,97.339Z" transform="translate(-602.237 -94.439)"/><path class="az" d="M607.586,111.148h-4.094a1.483,1.483,0,0,1-1.483-1.483v-3.182a3.53,3.53,0,0,1,3.531-3.53h0a3.53,3.53,0,0,1,3.53,3.53v3.182A1.483,1.483,0,0,1,607.586,111.148Z" transform="translate(-602.008 -96.704)"/></g></g></g></svg>