<svg xmlns="http://www.w3.org/2000/svg" xmlns:xlink="http://www.w3.org/1999/xlink" width="416" height="741" viewBox="0 0 416 741">
  <defs>
    <style>
      .cls-1 {
        clip-path: url(#clip-iPhone_6_7_8_1);
      }

      .cls-2 {
        fill: #bdeeff;
        opacity: 0.35;
      }

      .cls-3 {
        fill: #a7adaf;
      }

      .cls-4 {
        fill: #d9d9d9;
      }

      .cls-5 {
        opacity: 0.33;
        fill: url(#linear-gradient);
      }

      .cls-6 {
        fill: #29abe2;
      }

      .cls-7 {
        opacity: 0.9;
      }

      .cls-8 {
        fill: #eef3f6;
      }

      .cls-9 {
        fill: #2488b2;
      }

      .cls-10 {
        fill: #ffbe9d;
      }

      .cls-11 {
        fill: #170d54;
      }

      .cls-12 {
        fill: #f2a181;
      }

      .cls-13 {
        fill: #ffccb0;
      }

      .cls-14 {
        fill: #1b227a;
      }

      .cls-15 {
        fill: #90218a;
      }

      .cls-16 {
        fill: #57c6f2;
      }

      .cls-17 {
        fill: #5ab5e2;
        opacity: 0.45;
      }

      .cls-18 {
        fill: #eaeaea;
      }

      .cls-19 {
        fill: #700d6a;
      }

      .cls-20 {
        fill: #11044c;
        font-size: 14px;
        font-family: Cairo-Regular, Cairo;
        letter-spacing: 0.065em;
      }

      .cls-21 {
        fill: none;
        stroke: #29abe2;
      }

      .cls-22 {
        fill: #e65100;
      }

      .cls-23 {
        fill: #fff;
      }
    </style>
    <linearGradient id="linear-gradient" x1="0.927" y1="0.5" x2="0.062" y2="0.5" gradientUnits="objectBoundingBox">
      <stop offset="0" stop-color="#072254" stop-opacity="0"/>
      <stop offset="0.154" stop-color="#384d75" stop-opacity="0.196"/>
      <stop offset="0.382" stop-color="#7b89a4" stop-opacity="0.463"/>
      <stop offset="0.589" stop-color="#809fdc" stop-opacity="0.675"/>
      <stop offset="0.768" stop-color="#a8bbe1" stop-opacity="0.827"/>
      <stop offset="0.911" stop-color="#bec8f1" stop-opacity="0.922"/>
      <stop offset="1" stop-color="#dfdff6" stop-opacity="0.957"/>
    </linearGradient>
    <clipPath id="clip-iPhone_6_7_8_1">
      <rect width="416" height="741"/>
    </clipPath>
  </defs>
  <g id="iPhone_6_7_8_1" data-name="iPhone 6/7/8 – 1" class="cls-1">
    <rect class="cls-23" width="416" height="741"/>
    <g id="Group_1" data-name="Group 1" transform="translate(-870 -2147.428)">
      <path id="Path_4941" data-name="Path 4941" class="cls-2" d="M327.217,403.11c0,12.784,23.122,23.154,51.647,23.154s51.644-10.37,51.644-23.154-23.122-23.141-51.644-23.141S327.217,390.326,327.217,403.11Z" transform="translate(636.59 2311.343)"/>
      <path id="Path_4938" data-name="Path 4938" class="cls-3" d="M325.495,586.594l68.168-31.252c1.356-.623,2.454-4.279,2.452-8.165l-.164-355.716c0-3.887-1.1-7.587-2.454-8.264l-68.34-33.584c-2.476-.33-7.291-.412-7.291,4.262l-.032,422.542C317.834,581.091,324.138,587.216,325.495,586.594Z" transform="translate(658.397 2147.949)"/>
      <path id="Path_1419" data-name="Path 1419" class="cls-4" d="M320.351,580.747l73.34-33.226c1.356-.615,2.454-4.224,2.452-8.061l-.164-351.175c0-3.837-1.1-7.49-2.454-8.158l-73.18-36.1c-1.353-.667-2.45,2.533-2.45,7.148V573.5C317.895,578.118,318.995,581.362,320.351,580.747Z" transform="translate(663.668 2153.559)"/>
      <path id="Path_1542" data-name="Path 1542" class="cls-5" d="M361.18,390.128,228.51,366.616v5.266L361.18,506.521Z" transform="translate(796.549 1961.977)"/>
      <path id="Path_4939" data-name="Path 4939" class="cls-6" d="M320.019,398.375l63.406-19.354c1.173-.358,2.122-2.46,2.12-4.7L385.4,169.772c0-2.235-.951-4.363-2.122-4.752l-63.268-21.025c-1.17-.388-2.119,1.476-2.119,4.163v246C317.895,396.844,318.846,398.733,320.019,398.375Z" transform="translate(668.968 2252.71)"/>
      <g id="Group_214" data-name="Group 214" class="cls-7" transform="translate(998.717 2439.942)">
        <g id="Group_211" data-name="Group 211">
          <g id="Group_210" data-name="Group 210">
            <g id="Group_207" data-name="Group 207" transform="translate(0 0.996)">
              <path id="Path_1421" data-name="Path 1421" class="cls-8" d="M337.795,275.636l-.011,2.283,5.08.331.01-2.283Z" transform="translate(-297.145 -189.79)"/>
              <path id="Path_1422" data-name="Path 1422" class="cls-8" d="M338.068,284.226l-.087,2.26,5.029,2.747.087-2.26Z" transform="translate(-297.562 -189.913)"/>
              <path id="Path_1423" data-name="Path 1423" class="cls-8" d="M338.708,292.678l-.162,2.2,4.9,5.119.162-2.2Z" transform="translate(-298.627 -190.034)"/>
              <path id="Path_1424" data-name="Path 1424" class="cls-8" d="M339.7,300.858l-.234,2.106,4.686,7.409.234-2.106Z" transform="translate(-300.323 -190.152)"/>
              <path id="Path_1425" data-name="Path 1425" class="cls-8" d="M341.041,308.634l-.3,1.977,4.4,9.58.3-1.977Z" transform="translate(-302.624 -190.263)"/>
              <path id="Path_1426" data-name="Path 1426" class="cls-8" d="M342.7,315.882l-.366,1.818,4.045,11.6.366-1.818Z" transform="translate(-305.493 -190.367)"/>
              <path id="Path_1427" data-name="Path 1427" class="cls-8" d="M344.645,322.486l-.424,1.629,3.625,13.431.424-1.629Z" transform="translate(-308.884 -190.461)"/>
              <path id="Path_1428" data-name="Path 1428" class="cls-8" d="M346.854,328.341l-.475,1.414,3.146,15.049L350,343.39Z" transform="translate(-312.742 -190.545)"/>
              <path id="Path_1429" data-name="Path 1429" class="cls-8" d="M349.289,333.353l-.519,1.176,2.618,16.427.519-1.176Z" transform="translate(-317.006 -190.617)"/>
              <path id="Path_1430" data-name="Path 1430" class="cls-8" d="M351.911,337.441l-.554.92L353.4,355.9l.554-.92Z" transform="translate(-321.607 -190.675)"/>
              <path id="Path_1431" data-name="Path 1431" class="cls-8" d="M354.678,340.542l-.58.649,1.444,18.375.58-.649Z" transform="translate(-326.473 -190.72)"/>
              <path id="Path_1432" data-name="Path 1432" class="cls-8" d="M357.546,342.6l-.6.367.818,18.916.6-.367Z" transform="translate(-331.525 -190.749)"/>
              <path id="Path_1433" data-name="Path 1433" class="cls-8" d="M360.469,343.594l-.6.08.178,19.154.6-.08Z" transform="translate(-336.682 -190.763)"/>
              <path id="Path_1434" data-name="Path 1434" class="cls-8" d="M363.394,343.495l-.6-.209-.464,19.086.6.208Z" transform="translate(-341.856 -190.759)"/>
              <path id="Path_1435" data-name="Path 1435" class="cls-8" d="M366.278,342.309l-.591-.494-1.1,18.712.591.494Z" transform="translate(-346.968 -190.738)"/>
              <path id="Path_1436" data-name="Path 1436" class="cls-8" d="M369.077,340.057l-.57-.771-1.716,18.039.57.771Z" transform="translate(-351.938 -190.702)"/>
              <path id="Path_1437" data-name="Path 1437" class="cls-8" d="M371.746,336.774l-.539-1.036L368.9,352.816l.539,1.036Z" transform="translate(-356.687 -190.651)"/>
              <path id="Path_1438" data-name="Path 1438" class="cls-8" d="M374.243,332.514l-.5-1.285-2.859,15.844.5,1.285Z" transform="translate(-361.14 -190.586)"/>
              <path id="Path_1439" data-name="Path 1439" class="cls-8" d="M376.529,327.344l-.453-1.513-3.366,14.356.453,1.513Z" transform="translate(-365.224 -190.509)"/>
              <path id="Path_1440" data-name="Path 1440" class="cls-8" d="M378.566,321.346l-.4-1.716-3.82,12.639.4,1.716Z" transform="translate(-368.875 -190.42)"/>
              <path id="Path_1441" data-name="Path 1441" class="cls-8" d="M380.322,314.617l-.338-1.892-4.212,10.72.339,1.893Z" transform="translate(-372.034 -190.322)"/>
              <path id="Path_1442" data-name="Path 1442" class="cls-8" d="M381.768,307.265l-.273-2.039-4.537,8.629.272,2.039Z" transform="translate(-374.651 -190.214)"/>
              <path id="Path_1443" data-name="Path 1443" class="cls-8" d="M382.882,299.407l-.2-2.152-4.789,6.4.2,2.152Z" transform="translate(-376.685 -190.1)"/>
              <path id="Path_1444" data-name="Path 1444" class="cls-8" d="M383.646,291.168l-.129-2.231-4.965,4.07.129,2.231Z" transform="translate(-378.101 -189.981)"/>
              <path id="Path_1445" data-name="Path 1445" class="cls-8" d="M384.048,282.681,384,280.406l-5.062,1.673.053,2.275Z" transform="translate(-378.878 -189.859)"/>
              <path id="Path_1446" data-name="Path 1446" class="cls-8" d="M384.081,274.07l.024-2.282-5.077-.749L379,273.32Z" transform="translate(-379.003 -189.725)"/>
              <path id="Path_1447" data-name="Path 1447" class="cls-8" d="M358.058,207.586l.6.258.574-19.043-.6-.258Z" transform="translate(-333.487 -188.543)"/>
              <path id="Path_1448" data-name="Path 1448" class="cls-8" d="M355.177,208.96l.588.542,1.207-18.617-.588-.542Z" transform="translate(-328.385 -188.569)"/>
              <path id="Path_1449" data-name="Path 1449" class="cls-8" d="M352.388,211.4l.565.818,1.82-17.894-.565-.818Z" transform="translate(-323.438 -188.614)"/>
              <path id="Path_1450" data-name="Path 1450" class="cls-8" d="M349.737,214.865l.533,1.08,2.4-16.884-.533-1.08Z" transform="translate(-318.727 -188.678)"/>
              <path id="Path_1451" data-name="Path 1451" class="cls-8" d="M347.266,219.3l.493,1.326,2.95-15.6-.493-1.326Z" transform="translate(-314.326 -188.76)"/>
              <path id="Path_1452" data-name="Path 1452" class="cls-8" d="M345.015,224.641l.445,1.549,3.448-14.076-.445-1.55Z" transform="translate(-310.305 -188.859)"/>
              <path id="Path_1453" data-name="Path 1453" class="cls-8" d="M343.019,230.794l.389,1.749,3.892-12.322-.389-1.749Z" transform="translate(-306.729 -188.972)"/>
              <path id="Path_1454" data-name="Path 1454" class="cls-8" d="M341.31,237.664l.327,1.92,4.273-10.371-.327-1.92Z" transform="translate(-303.655 -189.098)"/>
              <path id="Path_1455" data-name="Path 1455" class="cls-8" d="M339.915,245.141l.261,2.061,4.586-8.254-.261-2.061Z" transform="translate(-301.133 -189.236)"/>
              <path id="Path_1456" data-name="Path 1456" class="cls-8" d="M338.858,253.105l.19,2.168,4.825-6-.19-2.168Z" transform="translate(-299.201 -189.382)"/>
              <path id="Path_1457" data-name="Path 1457" class="cls-8" d="M338.154,261.43l.116,2.241,4.988-3.66-.116-2.241Z" transform="translate(-297.892 -189.535)"/>
              <path id="Path_1458" data-name="Path 1458" class="cls-8" d="M337.816,269.98l.04,2.278,5.07-1.257-.04-2.278Z" transform="translate(-297.227 -189.691)"/>
            </g>
            <g id="Group_208" data-name="Group 208" transform="translate(0 2.201)">
              <path id="Path_1459" data-name="Path 1459" class="cls-8" d="M337.795,276.857l-.011,2.283,5.081.331.01-2.283Z" transform="translate(-297.145 -191.012)"/>
              <path id="Path_1460" data-name="Path 1460" class="cls-8" d="M338.068,285.448l-.087,2.26,5.029,2.747.087-2.26Z" transform="translate(-297.562 -191.135)"/>
              <path id="Path_1461" data-name="Path 1461" class="cls-8" d="M338.709,293.9l-.162,2.2,4.9,5.119.162-2.2Z" transform="translate(-298.627 -191.256)"/>
              <path id="Path_1462" data-name="Path 1462" class="cls-8" d="M339.7,302.08l-.234,2.106,4.686,7.409.234-2.106Z" transform="translate(-300.323 -191.373)"/>
              <path id="Path_1463" data-name="Path 1463" class="cls-8" d="M341.041,309.856l-.3,1.977,4.4,9.58.3-1.977Z" transform="translate(-302.624 -191.485)"/>
              <path id="Path_1464" data-name="Path 1464" class="cls-8" d="M342.7,317.1l-.366,1.818,4.045,11.6.366-1.818Z" transform="translate(-305.493 -191.589)"/>
              <path id="Path_1465" data-name="Path 1465" class="cls-8" d="M344.645,323.708l-.424,1.629,3.625,13.431.424-1.629Z" transform="translate(-308.884 -191.683)"/>
              <path id="Path_1466" data-name="Path 1466" class="cls-8" d="M346.854,329.563l-.475,1.414,3.146,15.049.475-1.414Z" transform="translate(-312.742 -191.767)"/>
              <path id="Path_1467" data-name="Path 1467" class="cls-8" d="M349.289,334.575l-.519,1.176,2.618,16.426.519-1.176Z" transform="translate(-317.006 -191.839)"/>
              <path id="Path_1468" data-name="Path 1468" class="cls-8" d="M351.911,338.663l-.554.92,2.047,17.541.554-.92Z" transform="translate(-321.607 -191.897)"/>
              <path id="Path_1469" data-name="Path 1469" class="cls-8" d="M354.678,341.763l-.58.649,1.444,18.375.58-.649Z" transform="translate(-326.473 -191.942)"/>
              <path id="Path_1470" data-name="Path 1470" class="cls-8" d="M357.547,343.825l-.6.367.818,18.916.6-.367Z" transform="translate(-331.525 -191.971)"/>
              <path id="Path_1471" data-name="Path 1471" class="cls-8" d="M360.47,344.816l-.605.08.178,19.154.6-.08Z" transform="translate(-336.682 -191.985)"/>
              <path id="Path_1472" data-name="Path 1472" class="cls-8" d="M363.394,344.717l-.6-.209-.464,19.085.6.208Z" transform="translate(-341.856 -191.981)"/>
              <path id="Path_1473" data-name="Path 1473" class="cls-8" d="M366.278,343.531l-.591-.494-1.1,18.712.591.494Z" transform="translate(-346.968 -191.96)"/>
              <path id="Path_1474" data-name="Path 1474" class="cls-8" d="M369.077,341.279l-.57-.771-1.716,18.039.57.771Z" transform="translate(-351.938 -191.924)"/>
              <path id="Path_1475" data-name="Path 1475" class="cls-8" d="M371.746,338l-.539-1.036L368.9,354.038l.539,1.036Z" transform="translate(-356.687 -191.873)"/>
              <path id="Path_1476" data-name="Path 1476" class="cls-8" d="M374.244,333.736l-.5-1.285-2.859,15.844.5,1.285Z" transform="translate(-361.14 -191.808)"/>
              <path id="Path_1477" data-name="Path 1477" class="cls-8" d="M376.529,328.565l-.453-1.513-3.366,14.356.453,1.513Z" transform="translate(-365.224 -191.731)"/>
              <path id="Path_1478" data-name="Path 1478" class="cls-8" d="M378.566,322.568l-.4-1.716-3.82,12.639.4,1.716Z" transform="translate(-368.875 -191.642)"/>
              <path id="Path_1479" data-name="Path 1479" class="cls-8" d="M380.322,315.839l-.339-1.892-4.212,10.72.339,1.893Z" transform="translate(-372.034 -191.543)"/>
              <path id="Path_1480" data-name="Path 1480" class="cls-8" d="M381.768,308.487l-.273-2.039-4.537,8.629.273,2.039Z" transform="translate(-374.652 -191.436)"/>
              <path id="Path_1481" data-name="Path 1481" class="cls-8" d="M382.882,300.629l-.2-2.152-4.789,6.4.2,2.152Z" transform="translate(-376.685 -191.322)"/>
              <path id="Path_1482" data-name="Path 1482" class="cls-8" d="M383.646,292.39l-.129-2.231-4.965,4.07.128,2.231Z" transform="translate(-378.101 -191.203)"/>
              <path id="Path_1483" data-name="Path 1483" class="cls-8" d="M384.048,283.9,384,281.628l-5.062,1.674.053,2.274Z" transform="translate(-378.878 -191.081)"/>
              <path id="Path_1484" data-name="Path 1484" class="cls-8" d="M384.081,275.291l.024-2.281-5.077-.749L379,274.542Z" transform="translate(-379.003 -190.946)"/>
              <path id="Path_1485" data-name="Path 1485" class="cls-8" d="M358.058,208.808l.6.258.574-19.043-.6-.258Z" transform="translate(-333.487 -189.765)"/>
              <path id="Path_1486" data-name="Path 1486" class="cls-8" d="M355.176,210.182l.588.542,1.207-18.617-.588-.542Z" transform="translate(-328.385 -189.791)"/>
              <path id="Path_1487" data-name="Path 1487" class="cls-8" d="M352.388,212.621l.565.818,1.82-17.894-.565-.818Z" transform="translate(-323.438 -189.836)"/>
              <path id="Path_1488" data-name="Path 1488" class="cls-8" d="M349.737,216.087l.533,1.08,2.4-16.884-.533-1.08Z" transform="translate(-318.727 -189.9)"/>
              <path id="Path_1489" data-name="Path 1489" class="cls-8" d="M347.266,220.525l.493,1.326,2.95-15.6-.493-1.326Z" transform="translate(-314.326 -189.982)"/>
              <path id="Path_1490" data-name="Path 1490" class="cls-8" d="M345.015,225.863l.445,1.549,3.448-14.076-.445-1.55Z" transform="translate(-310.305 -190.081)"/>
              <path id="Path_1491" data-name="Path 1491" class="cls-8" d="M343.019,232.016l.389,1.749,3.892-12.322-.389-1.749Z" transform="translate(-306.729 -190.194)"/>
              <path id="Path_1492" data-name="Path 1492" class="cls-8" d="M341.31,238.886l.328,1.92,4.273-10.371-.327-1.92Z" transform="translate(-303.655 -190.32)"/>
              <path id="Path_1493" data-name="Path 1493" class="cls-8" d="M339.915,246.363l.261,2.061,4.586-8.254-.261-2.061Z" transform="translate(-301.133 -190.457)"/>
              <path id="Path_1494" data-name="Path 1494" class="cls-8" d="M338.858,254.327l.19,2.168,4.825-6.005-.19-2.168Z" transform="translate(-299.201 -190.604)"/>
              <path id="Path_1495" data-name="Path 1495" class="cls-8" d="M338.154,262.651l.116,2.241,4.988-3.66-.115-2.241Z" transform="translate(-297.893 -190.756)"/>
              <path id="Path_1496" data-name="Path 1496" class="cls-8" d="M337.816,271.2l.04,2.278,5.07-1.257-.04-2.278Z" transform="translate(-297.227 -190.913)"/>
            </g>
            <g id="Group_209" data-name="Group 209">
              <path id="Path_1497" data-name="Path 1497" class="cls-8" d="M337.795,274.625l-.011,2.283,5.08.331.01-2.283Z" transform="translate(-297.145 -188.78)"/>
              <path id="Path_1498" data-name="Path 1498" class="cls-8" d="M338.068,283.215l-.087,2.26,5.029,2.747.087-2.26Z" transform="translate(-297.562 -188.903)"/>
              <path id="Path_1499" data-name="Path 1499" class="cls-8" d="M338.708,291.667l-.162,2.2,4.9,5.119.162-2.2Z" transform="translate(-298.627 -189.024)"/>
              <path id="Path_1500" data-name="Path 1500" class="cls-8" d="M339.7,299.847l-.234,2.106,4.686,7.409.234-2.106Z" transform="translate(-300.323 -189.141)"/>
              <path id="Path_1501" data-name="Path 1501" class="cls-8" d="M341.041,307.623l-.3,1.978,4.4,9.58.3-1.978Z" transform="translate(-302.624 -189.252)"/>
              <path id="Path_1502" data-name="Path 1502" class="cls-8" d="M342.7,314.871l-.366,1.818,4.045,11.6.366-1.818Z" transform="translate(-305.493 -189.356)"/>
              <path id="Path_1503" data-name="Path 1503" class="cls-8" d="M344.645,321.475l-.424,1.629,3.625,13.431.424-1.629Z" transform="translate(-308.884 -189.45)"/>
              <path id="Path_1504" data-name="Path 1504" class="cls-8" d="M346.854,327.33l-.475,1.414,3.146,15.049.475-1.414Z" transform="translate(-312.742 -189.534)"/>
              <path id="Path_1505" data-name="Path 1505" class="cls-8" d="M349.289,332.342l-.519,1.176,2.618,16.427.519-1.176Z" transform="translate(-317.006 -189.606)"/>
              <path id="Path_1506" data-name="Path 1506" class="cls-8" d="M351.911,336.431l-.554.92,2.047,17.541.554-.92Z" transform="translate(-321.607 -189.665)"/>
              <path id="Path_1507" data-name="Path 1507" class="cls-8" d="M354.678,339.531l-.58.649,1.444,18.375.58-.649Z" transform="translate(-326.473 -189.709)"/>
              <path id="Path_1508" data-name="Path 1508" class="cls-8" d="M357.547,341.592l-.6.367.818,18.916.6-.367Z" transform="translate(-331.525 -189.739)"/>
              <path id="Path_1509" data-name="Path 1509" class="cls-8" d="M360.47,342.583l-.6.08.178,19.154.605-.08Z" transform="translate(-336.682 -189.753)"/>
              <path id="Path_1510" data-name="Path 1510" class="cls-8" d="M363.394,342.484l-.6-.208-.464,19.085.6.209Z" transform="translate(-341.856 -189.748)"/>
              <path id="Path_1511" data-name="Path 1511" class="cls-8" d="M366.278,341.3l-.591-.494-1.1,18.712.591.494Z" transform="translate(-346.968 -189.727)"/>
              <path id="Path_1512" data-name="Path 1512" class="cls-8" d="M369.077,339.046l-.57-.771-1.716,18.039.57.771Z" transform="translate(-351.938 -189.691)"/>
              <path id="Path_1513" data-name="Path 1513" class="cls-8" d="M371.746,335.763l-.539-1.036L368.9,351.805l.539,1.036Z" transform="translate(-356.687 -189.64)"/>
              <path id="Path_1514" data-name="Path 1514" class="cls-8" d="M374.243,331.5l-.5-1.285-2.859,15.844.5,1.285Z" transform="translate(-361.139 -189.576)"/>
              <path id="Path_1515" data-name="Path 1515" class="cls-8" d="M376.529,326.333l-.454-1.513-3.366,14.356.454,1.513Z" transform="translate(-365.224 -189.498)"/>
              <path id="Path_1516" data-name="Path 1516" class="cls-8" d="M378.566,320.335l-.4-1.716-3.82,12.639.4,1.716Z" transform="translate(-368.875 -189.41)"/>
              <path id="Path_1517" data-name="Path 1517" class="cls-8" d="M380.322,313.606l-.339-1.893-4.212,10.72.339,1.893Z" transform="translate(-372.034 -189.311)"/>
              <path id="Path_1518" data-name="Path 1518" class="cls-8" d="M381.768,306.254l-.273-2.039-4.537,8.629.273,2.039Z" transform="translate(-374.652 -189.203)"/>
              <path id="Path_1519" data-name="Path 1519" class="cls-8" d="M382.882,298.4l-.2-2.152-4.789,6.4.2,2.152Z" transform="translate(-376.685 -189.089)"/>
              <path id="Path_1520" data-name="Path 1520" class="cls-8" d="M383.646,290.157l-.129-2.231L378.552,292l.129,2.231Z" transform="translate(-378.101 -188.97)"/>
              <path id="Path_1521" data-name="Path 1521" class="cls-8" d="M384.048,281.67,384,279.4l-5.062,1.674.053,2.274Z" transform="translate(-378.878 -188.848)"/>
              <path id="Path_1522" data-name="Path 1522" class="cls-8" d="M384.081,273.059l.024-2.281-5.077-.749L379,272.31Z" transform="translate(-379.003 -188.714)"/>
              <path id="Path_1523" data-name="Path 1523" class="cls-8" d="M358.058,206.575l.6.258.574-19.043-.6-.258Z" transform="translate(-333.487 -187.533)"/>
              <path id="Path_1524" data-name="Path 1524" class="cls-8" d="M355.177,207.949l.588.542,1.207-18.617-.588-.542Z" transform="translate(-328.385 -187.558)"/>
              <path id="Path_1525" data-name="Path 1525" class="cls-8" d="M352.388,210.388l.565.818,1.82-17.894-.565-.818Z" transform="translate(-323.438 -187.604)"/>
              <path id="Path_1526" data-name="Path 1526" class="cls-8" d="M349.737,213.854l.533,1.08,2.4-16.884-.533-1.08Z" transform="translate(-318.727 -187.668)"/>
              <path id="Path_1527" data-name="Path 1527" class="cls-8" d="M347.266,218.292l.493,1.326,2.95-15.6-.493-1.326Z" transform="translate(-314.326 -187.749)"/>
              <path id="Path_1528" data-name="Path 1528" class="cls-8" d="M345.015,223.63l.445,1.549,3.448-14.076-.445-1.549Z" transform="translate(-310.305 -187.848)"/>
              <path id="Path_1529" data-name="Path 1529" class="cls-8" d="M343.019,229.784l.389,1.749L347.3,219.21l-.389-1.749Z" transform="translate(-306.729 -187.961)"/>
              <path id="Path_1530" data-name="Path 1530" class="cls-8" d="M341.31,236.654l.328,1.92L345.91,228.2l-.327-1.92Z" transform="translate(-303.655 -188.087)"/>
              <path id="Path_1531" data-name="Path 1531" class="cls-8" d="M339.915,244.13l.261,2.061,4.586-8.254-.261-2.061Z" transform="translate(-301.133 -188.225)"/>
              <path id="Path_1532" data-name="Path 1532" class="cls-8" d="M338.858,252.094l.19,2.168,4.825-6.005-.19-2.168Z" transform="translate(-299.201 -188.371)"/>
              <path id="Path_1533" data-name="Path 1533" class="cls-8" d="M338.154,260.419l.116,2.241,4.987-3.66-.115-2.241Z" transform="translate(-297.893 -188.524)"/>
              <path id="Path_1534" data-name="Path 1534" class="cls-8" d="M337.816,268.97l.04,2.278,5.07-1.257-.04-2.278Z" transform="translate(-297.227 -188.681)"/>
            </g>
          </g>
        </g>
      </g>
      <g id="surface1" class="cls-7" transform="translate(1018.67 2514.499)">
        <path id="Path_1350" data-name="Path 1350" class="cls-8" d="M9.375,2.734V28.279l1.476-.934,9.763-11.408ZM11.292,7.62,18.2,15.937l-6.909,7.449Z" transform="translate(-9.375 -2.734)"/>
      </g>
      <path id="Path_4940" data-name="Path 4940" class="cls-9" d="M2.12,0A2.447,2.447,0,0,1,4.24,2.675,2.447,2.447,0,0,1,2.12,5.35,2.447,2.447,0,0,1,0,2.675,2.447,2.447,0,0,1,2.12,0Z" transform="translate(1022.951 2328.424)"/>
      <ellipse id="Ellipse_344" data-name="Ellipse 344" class="cls-6" cx="1.87" cy="2.618" rx="1.87" ry="2.618" transform="translate(1022.562 2328.474)"/>
      <g id="Group_1250" data-name="Group 1250" transform="translate(1103.401 2358.939)">
        <path id="Path_4062" data-name="Path 4062" class="cls-2" d="M327.217,383.98c0,2.216,23.122,4.013,51.647,4.013s51.644-1.8,51.644-4.013-23.122-4.011-51.644-4.011S327.217,381.764,327.217,383.98Z" transform="translate(-289.76 -25.533)"/>
        <path id="Path_4063" data-name="Path 4063" class="cls-10" d="M396.527,298.838s-5.718,6.637-6.769,7.026c-.646.24-5.021,1.069-6.464,1.328a5.671,5.671,0,0,0-1.568.445,5.041,5.041,0,0,0-1.3,1.054,40.879,40.879,0,0,0-2.976,3.6,6.457,6.457,0,0,0-.69,1.035,6.189,6.189,0,0,0-.443,1.44q-.932,4.211-1.6,8.479a.759.759,0,0,0,.02.45c.159.325.658.245.932.01s.479-.577.819-.687l.012.724a1.7,1.7,0,0,0,1.585-.227,13.066,13.066,0,0,0,4.986-4.825,5.577,5.577,0,0,1,.79-1.154c.88-.871,2.257-.856,3.448-1.162a19.669,19.669,0,0,0,3.235-1.049c1.854-.851,2.084-3.079,2.26-3.5a1.7,1.7,0,0,1,.479-.577c1.216-1.1,6.053-4.747,6.053-4.747" transform="translate(-374.694 -142.809)"/>
        <path id="Path_4064" data-name="Path 4064" class="cls-11" d="M7.244,0C4.552.778,3.126,4.255,2.211,6.635A37.037,37.037,0,0,0,.2,15.588a12.291,12.291,0,0,0,.44,6.3,13.248,13.248,0,0,0,1.756,2.739,5.783,5.783,0,0,0,1.269,1.335,1.958,1.958,0,0,0,1.751.3c.841-.323,1.179-1.308,1.416-2.177,1.553-5.654,3.25-11.372,6.442-16.29" transform="translate(71.709 23.07) rotate(-21)"/>
        <path id="Path_4065" data-name="Path 4065" class="cls-12" d="M5.391,2.054C5.337.255,3.441-.919,1.8.944.441,2.487.081,5.417,0,7.581c-.093,2.592,1.917,3.1,3.57,3.465" transform="translate(76.329 38.273) rotate(-21)"/>
        <g id="Group_719" data-name="Group 719" transform="translate(49.361 336.009)">
          <path id="Path_4066" data-name="Path 4066" class="cls-13" d="M354.468,374.985a60.044,60.044,0,0,0,.34,7.483c.391,1.961,6.71,1.328,7.317.213s-.149-10.247-.149-10.247" transform="translate(-337.609 -372.434)"/>
          <path id="Path_4067" data-name="Path 4067" class="cls-14" d="M380.093,379.686c.171,2.071.161,5.982.161,5.982l-6.478,1.563-.824-1.1a11.355,11.355,0,0,1-3.808,2.074,25.4,25.4,0,0,1-6.109.589c-5.353-.359-9.046-2.027-9.229-2.81-.768-3.272,6.346-2.861,7.794-2.981a9.384,9.384,0,0,0,7.767-5.453c.587-1.541.242-1.89,1.125-1.685a2.154,2.154,0,0,1,1.379.971,3.861,3.861,0,0,0,4.1,1.746,4.6,4.6,0,0,0,2.445-1.4A2.666,2.666,0,0,1,380.093,379.686Z" transform="translate(-353.748 -367.554)"/>
        </g>
        <path id="Path_4068" data-name="Path 4068" class="cls-15" d="M368.212,368.18c-.614-9.706,7.226-22.7,7.226-22.7s-21.168-11.628-21.486-15.248c0,0-2.9,19.973-3.937,27.021-1.807,12.24,4.3,82.059,4.3,82.059a25.189,25.189,0,0,0,10.315.142s1.1-26.969,5.51-45.237C372.227,385.558,368.943,370.58,368.212,368.18Z" transform="translate(-289.623 -97.423)"/>
        <path id="Path_4069" data-name="Path 4069" class="cls-15" d="M354.827,302.093c-7.948,17.735-16.578,74.957-18.647,94.712-.878,8.376,6.1,18.192,14.223,10.619,9.7-9.041,23.338-50.461,28.214-57.773s23.113-14.015,10.655-51.111" transform="translate(-274.536 -143.24)"/>
        <g id="Group_720" data-name="Group 720" transform="translate(100.458 338.904)">
          <path id="Path_4070" data-name="Path 4070" class="cls-13" d="M333.768,373.618s.714,7.789,1,9.767,6.627,1.7,7.293.621.423-10.239.423-10.239" transform="translate(-318.253 -373.618)"/>
          <path id="Path_4071" data-name="Path 4071" class="cls-14" d="M358.808,380.933a42.4,42.4,0,0,1-.21,5.49l-7.3.492-.44-1.2a11.5,11.5,0,0,1-4.145,1.5l-6.163.413c-4.51.3-7.109-.1-7.275-.885-.7-3.284,4.7-3.5,6.1-3.59,4.028-.271,8.263-2.45,9.075-4.558.592-1.531.262-1.886,1.113-1.663a2.086,2.086,0,0,1,1.323,1,3.71,3.71,0,0,0,3.947,1.819,4.4,4.4,0,0,0,2.387-1.355A2.67,2.67,0,0,1,358.808,380.933Z" transform="translate(-333.213 -368.904)"/>
        </g>
        <path id="Path_4072" data-name="Path 4072" class="cls-15" d="M338.49,411.736c1.345,6.9,19.374,4.324,18.985-1.788-.553-8.689,5.537-19.919,7.87-61.277.267-4.725,5-5.419,6.865-18.268,1.842-12.873-5.784-27.121-5.784-27.121l-27.737-3.971s-10.66,24.054-8.457,48.035S336.9,403.61,338.49,411.736Z" transform="translate(-238.386 -142.125)"/>
        <path id="Path_4073" data-name="Path 4073" class="cls-15" d="M353.323,349.462s6.307,12.492,7.046,21.521c1.083,13.213-.254,56.7-.254,56.7s-6.823,1.479-10.464.408c0,0-16.011-77.156-16.6-85.451S353.323,349.462,353.323,349.462Z" transform="translate(-234.283 -83.089)"/>
        <path id="Path_4074" data-name="Path 4074" class="cls-16" d="M330.892,271.192c3.135-3.6,13.088-9.525,26.39-9.1,9.163.288,34.12,1.8,36.91,7.933,1.426,3.133,2.957,35.225.868,46.291-1.57,8.32-5.583,28.933-5.583,33.907s2.671,7.106,1.423,8.552c-2.793,3.236-21.887,4.593-30.853,4.593-7.982,0-21.564-2.128-22.252-4.683-1.025-3.8,1.555-3.654,1.905-7.632s2.23-30.212-.105-34.024c-3.71-6.053-7.393-21.995-7.676-26.556S327.757,274.79,330.892,271.192Z" transform="translate(-261.345 -195.963)"/>
        <path id="Path_4075" data-name="Path 4075" class="cls-17" d="M336.854,276.534c.951,1.978,7.41,12.364,7.41,12.364l.262,1.242a51.653,51.653,0,0,1-.658,5.551c-1.57,8.32-5.583,28.933-5.583,33.907s2.671,7.107,1.423,8.552c-1.115,1.291-4.852,2.279-9.489,3.008a12.013,12.013,0,0,0,2.145-3.086c.372-1.46-2.069-1.088-2.516-2.316s5.544-25.274,7.006-36.827S335.9,274.556,336.854,276.534Z" transform="translate(-210.153 -175.343)"/>
        <path id="Path_4076" data-name="Path 4076" class="cls-10" d="M344.086,261.572s-.088,11.068-.536,11.513a17.286,17.286,0,0,1-2.631,1.479s1.558,9.621,3.969,8.907,18.327-8.752,18.327-8.752-2.257-.92-2.257-1.812,2.142-18.3,2.142-18.3" transform="translate(-255.974 -206.741)"/>
        <path id="Path_4090" data-name="Path 4090" class="cls-12" d="M346.028,257.517l7.116-.368s-2.56,4.183-7.2,4.183" transform="translate(-257.907 -197.5)"/>
        <path id="Path_4077" data-name="Path 4077" class="cls-10" d="M18.392,0C16.074.633,9.958-.633,8.273,1.9s-3.164,8.645-3.8,10.332c-1.259,3.358-2.081,6.945-3,10.408C.291,27.15-1.676,35.413,2.739,39.187a5.869,5.869,0,0,0,3.4,1.727c2.088.379,4.17.807,6.258,1.181,3.238.582,6.825,1.259,10.041.215,4.3-1.4,6.654-7.3,7.757-11.315L36.526,8.011Z" transform="translate(71.408 24.466) rotate(-21)"/>
        <path id="Path_4078" data-name="Path 4078" class="cls-14" d="M347.992,267.492s-.878,40.735-2.536,65.515l5.989,8.261,4.118-10.344a315.069,315.069,0,0,0-3.9-63.148Z" transform="translate(-259.673 -188.12)"/>
        <path id="Path_4079" data-name="Path 4079" class="cls-14" d="M345.989,267.547l.139.56a11.416,11.416,0,0,0,1.24,3.018h0l3.676.284s2.5-1.308,2.829-2.717-4.1-3.712-4.1-3.712l-.538.213a7.994,7.994,0,0,0-3.2,2.3Z" transform="translate(-259.049 -191.753)"/>
        <path id="Path_4080" data-name="Path 4080" class="cls-18" d="M354.293,260.518a22.867,22.867,0,0,1,5.013,5.06c-1.89,4.326-7.513,11.677-12.218,15.177a21.247,21.247,0,0,0-7.461-9.327S352.977,268.664,354.293,260.518Z" transform="translate(-248.906 -198.201)"/>
        <path id="Path_4081" data-name="Path 4081" class="cls-18" d="M355.189,271a15.811,15.811,0,0,0-7.31,6.948,35.011,35.011,0,0,1,.993-12.9s2.472-4.152,3.514-4.231C351.956,265.725,355.189,271,355.189,271Z" transform="translate(-264.468 -197.769)"/>
        <path id="Path_4082" data-name="Path 4082" class="cls-16" d="M408.492,265.114c-8.107,4.507-21.975,50.832-23.519,51.339s-32.958,37.507-32.958,37.507L357,360.7s31.713-23.061,40.818-33.159c6.412-7.107,18.537-38.849,18.537-38.849S416.6,260.609,408.492,265.114Z" transform="translate(-336.246 -192.264)"/>
        <path id="Path_4083" data-name="Path 4083" class="cls-17" d="M394.257,308.624c3.137-2.776,13.091-32.21,13.091-32.21l2.394,10.075c-3.974,9.293-9.061,20.2-12.5,24.015-9.1,10.1-40.818,33.159-40.818,33.159l-1.939-2.624S391.119,311.4,394.257,308.624Z" transform="translate(-335.673 -175.223)"/>
        <g id="Group_723" data-name="Group 723" transform="translate(124.506 70.111)">
          <path id="Path_4086" data-name="Path 4086" class="cls-10" d="M338.055,306.265s-1.905,3.883-2.925,5.857c-.665,1.286-5.723,5.6-7.75,9.026a8.773,8.773,0,0,0-1.59,5.434c.249,1.908,2.042,3.715,3.923,3.311.536-.115,1.147-.377,1.58-.042a2.084,2.084,0,0,1,.452.692,2.137,2.137,0,0,0,3.945-.543,3.613,3.613,0,0,0,4.81-.051,2.876,2.876,0,0,1-1.162-2.546,5.765,5.765,0,0,1,1.47-2.37,7.348,7.348,0,0,0,1.511-4.639c-.032-1.181-.352-2.336-.482-3.512a11.17,11.17,0,0,1,1.55-6.977" transform="translate(-323.551 -202.184)"/>
          <path id="Path_4087" data-name="Path 4087" class="cls-16" d="M317.635,290c1.455,5.187,23.617,39.3,23.617,39.3l-11.863,43.242,6.764,4.233s21.093-35.049,21.159-44.946-15.431-46.179-26.759-61.013c-3.6-4.722-10.834-7.107-10.834-7.107" transform="translate(-317.635 -263.705)"/>
        </g>
        <path id="Path_4088" data-name="Path 4088" class="cls-14" d="M30.547,35.795c-1.46-.851-2.578-1.751-3.526-.355-.5.741-.807,1.763-1.665,2.017A1.722,1.722,0,0,1,23.4,36.076a4.983,4.983,0,0,1,.323-2.622Q24.6,30.626,25.48,27.8c.575-1.846,1.142-3.874.411-5.661a6.238,6.238,0,0,0-1.785-2.289,18.946,18.946,0,0,0-8.682-3.712A93.3,93.3,0,0,1,6.08,14.218a10.135,10.135,0,0,1-3.558-1.793A7.678,7.678,0,0,1,0,6.674,11.915,11.915,0,0,1,1.825.541a10.257,10.257,0,0,0,.934,2.13A7.876,7.876,0,0,1,4.461,0c.907,5.062,22.225,3.372,27.206,5.605,3.451,1.546,6.307,2.558,6.2,8.153a2.025,2.025,0,0,0,.675.888c3.059,2.812,4.385,6.231,4.769,11.306.469,6.209-3.147,12.934-6.691,18.053a11.587,11.587,0,0,1-2.631,3.15,6.994,6.994,0,0,1-4.955,1.118c-1.538-.294-4.566-.161-4.6-1.727-.022-1.12,2.372-3.118,3.035-4.02" transform="translate(70.151 15.537) rotate(-21)"/>
        <path id="Path_4089" data-name="Path 4089" class="cls-10" d="M.047,7.786a2.364,2.364,0,0,0,.4,1.861A2.353,2.353,0,0,0,2.969,10,6.739,6.739,0,0,0,7.225,4.785c.5-2.685-.941-5.37-3.4-4.673A3.627,3.627,0,0,0,1.5,3.648" transform="translate(105.553 38.233) rotate(-21)"/>
        <path id="Path_4091" data-name="Path 4091" class="cls-19" d="M347.285,379.548c-1.238-4.057,2.245-10.352,3.959-15.042s14.6-42.224,14.6-42.224l2.844,15.14c-2.675,6.49-5.6,13.433-8.525,19.562h0l0,0c-1.13,2.362-2.257,4.6-3.375,6.64-2.037,4.6-4.182,10.8-3.849,16.052.731,2.4,4.016,17.378,1.927,26.04-4.409,18.268-5.51,45.237-5.51,45.237a26.335,26.335,0,0,1-3.162.374c.372-6.659,1.02-18.415,1.091-20.743.1-3.282,4.255-22.186,3.959-29.664S348.525,383.6,347.285,379.548Z" transform="translate(-274.35 -108.922)"/>
        <path id="Path_4151" data-name="Path 4151" class="cls-11" d="M371.5,257.523c-.214.383-1.418.288-1.649.341-.5.118-.3.213-2.69,2.784-1.765,1.9-4.439,2.206-9.163.053-3.609-1.643-2.808-4.415-2.939-5.812s-.427-1.669-1.011-1.844-.916-.1-1.8.987-2.568,3.864-6.438,2.953c-3.046-.717-4.069-2.206-4.244-4.145-.317-3.469-.332-3.434-.679-3.81s-.113-1.752.2-2.47,2.559-.216,4.84.48,5.792,1.767,6.969,2.758.987,1.468,1.637,1.675.83-.291,2.361-.457,7.61,1.687,9.893,2.384,5.385,1.927,5.243,2.7A5.227,5.227,0,0,1,371.5,257.523ZM351.512,251.4c-.015-.961-.89-1.272-3.52-2.2s-3.734-1.4-4.312-1.1-1.183,1.61-1.029,3.627c.178,2.313.736,3.472,2.9,4.131,2.322.709,3.974-.169,4.786-1.533A7.948,7.948,0,0,0,351.512,251.4Zm16.314,4.059c-.305-.569-3.864-1.524-6.539-2.212s-3.571-.916-4.113-.133a7.9,7.9,0,0,0-.65,3.051c-.086,1.572.125,2.986,4.276,4.27,2.927.907,4.442.377,5.869-1.429C367.909,257.437,368.134,256.026,367.826,255.459Z" transform="matrix(0.951, -0.309, 0.309, 0.951, -328.658, -92.377)"/>
      </g>
      <text id="Adult_Male_Surprised_Glasses" data-name="Adult
Male
Surprised
Glasses" class="cls-20" transform="translate(889 2428)"><tspan x="0" y="0">Adult</tspan><tspan x="0" y="26">Male</tspan><tspan x="0" y="52">Surprised</tspan><tspan x="0" y="78">Glasses</tspan></text>
      <path id="Path_4942" data-name="Path 4942" class="cls-21" d="M-13992.19,11718.1h-28.665v55.027" transform="translate(14915.855 -9369)"/>
      <g id="surface1-2" data-name="surface1" transform="translate(931.704 2331.774)">
        <path id="Path_4943" data-name="Path 4943" class="cls-16" d="M19.184,30.226a4.47,4.47,0,0,0,.07-1,4.8,4.8,0,0,0-.07-1l1.992-1.425a.467.467,0,0,0,.145-.643L19.4,22.892a.473.473,0,0,0-.568-.214l-2.209,1.068a6.759,6.759,0,0,0-1.708-1L14.7,20.327a.461.461,0,0,0-.429-.429H10.492a.46.46,0,0,0-.426.429L9.779,22.82a6.028,6.028,0,0,0-1.708,1l-2.209-1a.445.445,0,0,0-.568.214L3.369,26.309a.466.466,0,0,0,.145.643l1.992,1.425a4.467,4.467,0,0,0-.07,1,4.829,4.829,0,0,0,.07,1L3.513,31.8a.463.463,0,0,0-.145.64l1.925,3.278a.475.475,0,0,0,.568.211l2.209-1a6.668,6.668,0,0,0,1.708,1l.214,2.423a.458.458,0,0,0,.429.426H14.2a.458.458,0,0,0,.426-.426l.214-2.423a5.859,5.859,0,0,0,1.708-1l2.209,1a.45.45,0,0,0,.57-.211l1.923-3.278a.462.462,0,0,0-.142-.64Zm-6.839,2.565a3.561,3.561,0,1,1,3.561-3.561A3.526,3.526,0,0,1,12.345,32.792Z" transform="translate(0 -5.15)"/>
        <path id="Path_4944" data-name="Path 4944" class="cls-22" d="M35.942,11.474a4.324,4.324,0,0,0,.072-.927,4.324,4.324,0,0,0-.072-.927l1.781-1.283a.446.446,0,0,0,.145-.568L36.087,4.707a.384.384,0,0,0-.57-.142l-2.067.924a11.144,11.144,0,0,0-1.566-.924l-.214-2.209C31.741,2.142,31.6,2,31.385,2H27.9a.4.4,0,0,0-.429.356l-.214,2.209a5.021,5.021,0,0,0-1.566.924l-2.064-.924a.553.553,0,0,0-.57.142L21.271,7.771a.383.383,0,0,0,.142.568l1.781,1.283v.927a4.324,4.324,0,0,0,.072.927l-1.781,1.283a.446.446,0,0,0-.145.568l1.781,3.063a.384.384,0,0,0,.57.142l2.067-.924a11.141,11.141,0,0,0,1.566.924l.214,2.209a.4.4,0,0,0,.426.356h3.492a.4.4,0,0,0,.426-.356l.214-2.209a5.02,5.02,0,0,0,1.566-.924l2.067.924a.55.55,0,0,0,.568-.142l1.781-3.063a.381.381,0,0,0-.142-.568ZM29.6,14.109a3.561,3.561,0,1,1,3.561-3.561A3.526,3.526,0,0,1,29.6,14.109Z" transform="translate(-5.151)"/>
      </g>
    </g>
  </g>
</svg>
