<svg xmlns="http://www.w3.org/2000/svg" xmlns:xlink="http://www.w3.org/1999/xlink" width="464.726" height="540.341" viewBox="0 0 464.726 540.341"><defs><style>.a{fill:#87aedd;opacity:0.25;}.b{fill:#adcdfc;}.c{fill:#e2edff;}.d{fill:#c7d8f2;}.e{fill:#7baeff;}.f{fill:#4da5dc;}.g{fill:#3aaeef;}.h{fill:#e1e8f2;}.i{fill:#e16b40;}.j{fill:#ff8654;}.k{fill:#0046a6;}.l{fill:#003783;}.m{fill:#ff9f75;}.n{fill:#cfdae4;}.o{fill:#00a5ff;}.p{fill:#382747;}.q{fill:#94a3c0;}.r{fill:#fff;}.s{fill:#ff5668;}.t{fill:#b391ff;}.u{fill:#d4d9df;}.v{fill:#f2f8fd;}.w{fill:url(#a);}.x{fill:url(#b);}.y{fill:#05ccff;}.z{fill:#540cc7;}.aa{fill:#3f0995;}.ab{fill:#7974f5;}.ac{fill:#2689fd;}.ad{fill:#3548db;}.ae{fill:#58affb;}.af{fill:#ee2c6a;}.ag{fill:#ee428c;}.ah{fill:#ff3d9d;}.ai{fill:#7cccff;}.aj{fill:#3eabff;}.ak{fill:#cc096a;}.al,.at{fill:none;}.am{fill:#3278cc;}.an{fill:#e2a029;}.ao{fill:#ffbe3d;}.ap{fill:url(#c);}.aq{fill:url(#d);}.ar{fill:#343996;}.as{fill:#1ae5ff;}.at{stroke:#16c5dc;stroke-miterlimit:10;}.au{fill:#f1f1f1;}.av{fill:#fdb913;}.aw{opacity:0.53;}.ax{fill:#ff4272;}.ay{fill:#212973;}.az{fill:#1ce5ff;}.ba{fill:#00a935;}.bb{fill:#61e041;}.bc{fill:#00cc41;}.bd{fill:#14347c;}.be{fill:#18388f;}.bf{fill:#ce7c56;}.bg{fill:#ffaa83;}.bh{fill:#4d2c63;}</style><linearGradient id="a" x1="0.849" y1="-3.15" x2="0.723" y2="-0.46" gradientUnits="objectBoundingBox"><stop offset="0" stop-color="#c6e6ff"/><stop offset="1" stop-color="#8d9fff"/></linearGradient><linearGradient id="b" x1="3.851" y1="1.526" x2="4.26" y2="-0.056" gradientUnits="objectBoundingBox"><stop offset="0" stop-color="#1ae5ff"/><stop offset="1" stop-color="#eaeeee"/></linearGradient><linearGradient id="c" x1="-2.333" y1="2.414" x2="-2.125" y2="-0.334" gradientUnits="objectBoundingBox"><stop offset="0" stop-color="#1ae5ff"/><stop offset="0.259" stop-color="#63e8f8"/><stop offset="0.704" stop-color="#eaeeee"/></linearGradient><linearGradient id="d" x1="-44.413" y1="0.5" x2="-43.413" y2="0.5" gradientUnits="objectBoundingBox"><stop offset="0" stop-color="#5155d4"/><stop offset="1" stop-color="#45f7ff"/></linearGradient></defs><g transform="translate(-76.974 -52.183)"><path class="a" d="M498.708,444.488c-19.19-11.08-46.114-14.9-70.588-11.472l86.852-50.472c9.487-5.514,9.437-14.452-.112-19.964L316.06,247.8c-9.549-5.513-24.979-5.513-34.466,0l-67.935,39.478C184.266,274.3,142.2,275.568,115.48,291.1s-28.8,39.915-6.3,56.9L84.085,362.582c-9.487,5.514-9.436,14.452.112,19.964L283,497.324c9.548,5.512,24.979,5.512,34.465,0L373.251,464.9c-5.855,14.194.817,29.784,20.009,40.865,29.307,16.92,76.711,16.92,105.828,0S528.015,461.409,498.708,444.488Z" transform="translate(0.011 74.065)"/><g transform="translate(99.588 146.585)"><g transform="translate(16.741 204.383)"><g transform="translate(0 15.556)"><path class="b" d="M187.9,297.477c-.784,8.71-8.982,14.626-16.378,17.815a62.9,62.9,0,0,1-25.652,4.759,61.043,61.043,0,0,1-26.07-5.779c-7.019-3.455-14.468-9.719-14.445-18.239-.017,6.2.417,11.332,4.888,16.176,5.757,6.236,14.423,9.594,22.574,11.277,15.905,3.284,37.56,1.7,49.642-10.547,4.861-4.926,5.525-10.119,5.543-16.671Q187.976,296.876,187.9,297.477Z" transform="translate(-105.353 -272.204)"/><g transform="translate(0)"><path class="c" d="M175.792,285.86c16.189,9.347,16.293,24.5.209,33.852s-42.271,9.347-58.46,0-16.256-24.5-.172-33.85S159.6,276.513,175.792,285.86Z" transform="translate(-105.353 -278.85)"/></g></g><g transform="translate(35.904)"><g transform="translate(6.361 3.672)"><path class="d" d="M142.251,270.281l-.1,36.123-6.32,3.672.1-36.122Z" transform="translate(-135.829 -270.281)"/></g><g transform="translate(0 3.673)"><path class="e" d="M137.706,273.954l-.1,36.122-6.361-3.672.1-36.123Z" transform="translate(-131.243 -270.281)"/></g><g transform="translate(0.102)"><path class="f" d="M144,271.305l-6.319,3.673-6.361-3.672,6.32-3.673Z" transform="translate(-131.317 -267.633)"/></g></g></g><path class="g" d="M111.289,189.349S98.336,192.8,94.883,200.575s-2.591,66.487,15.542,90.666,51.809,27.63,59.581,24.177,52.672-25.905,56.126-37.13-13.815-19.86-23.315-24.177-15.542-10.362-20.723-25.905-7.772-42.31-13.815-46.628S147.555,170.353,111.289,189.349Z" transform="translate(-93.281 -98.416)"/><g transform="translate(16.795)"><path class="h" d="M173.056,179.595s-21.248-17.589-25.568-18c-5.184-.4-11.65,1.356-13.338,8.7a13.554,13.554,0,0,0,6.124,15.079c3.9,2.138,38.09,18.364,44.135,18.332s9.9-5.232,5.983-11.688S173.056,179.595,173.056,179.595Z" transform="translate(-94.424 -104.286)"/><g transform="translate(0 3.461)"><g transform="translate(5.452)"><path class="i" d="M141.317,161.259a2.174,2.174,0,0,0,.043.7c.316,1.577,1.308,5.6,1.539,7.293.221,1.62-1.487,4.529-5.884,4.657s-11.942-1.342-14.681-6.456a121.5,121.5,0,0,0-1.494-15.423Z" transform="translate(-104.868 -111.426)"/><path class="j" d="M155.22,140.606c-3.177-13.313-14.2-20.416-26.1-17.006,0,0-12.987,1.95-18.221,13.7s3.758,20.97,9.512,26.779c2.423,2.383,4.255,4.223,5.411,5.4.42.442.833.893,1.269,1.294l.123.126.012-.012a27.324,27.324,0,0,0,11.49,6.224c5.328,1.3,11.494.1,14.668-3.636S158.4,153.919,155.22,140.606Z" transform="translate(-109.323 -122.751)"/></g><path class="k" d="M129.291,159.6s-20.918,16.561-22.809,21.818-1.642,19.625,3.3,28.965,5.041,44.6,6.989,51.4,20.612,8.057,31.985,5.271,29.439-12.308,25.808-25.219c-5.363-19.067-4.088-38.274-3.657-44.341S169.8,176.32,166.5,166.3c-.7-2.113-8.147-5.066-8.147-5.066S150.621,157.643,129.291,159.6Z" transform="translate(-105.391 -108.723)"/><path class="l" d="M133.084,233.73c-8.634-10.938,4.03-48.355-10.938-58.717-4.564-3.161-8.482-3.958-11.73-3.549-2.007,2.105-3.493,3.952-3.934,5.18-1.89,5.26-1.642,19.625,3.3,28.965s5.041,44.6,6.989,51.4c1.774,6.191,17.383,7.776,28.751,5.911l16.346-17.1S141.719,244.668,133.084,233.73Z" transform="translate(-105.391 -103.947)"/><path class="h" d="M124.341,161.6c18.186-1.671,26.557,1.458,28.636,2.419a53.822,53.822,0,0,1-.265,12.917c-1.423,8.6-4.847,32.207-4.847,32.207s-11.221-19.4-18.608-27.384c-5.2-5.618-10.318-10.913-12.9-13.563C120.716,164.471,124.341,161.6,124.341,161.6Z" transform="translate(-101.15 -107.912)"/><path class="j" d="M141.317,161.259a2.174,2.174,0,0,0,.043.7c.316,1.577,1.308,5.6,1.539,7.293.221,1.62-1.487,4.529-5.884,4.657s-11.942-1.342-14.681-6.456a121.5,121.5,0,0,0-1.494-15.423Z" transform="translate(-99.415 -111.426)"/><g transform="translate(5.452)"><path class="m" d="M155.22,140.606c-3.177-13.313-14.2-20.416-26.1-17.006,0,0-12.987,1.95-18.221,13.7s3.758,20.97,9.512,26.779c2.423,2.383,4.255,4.223,5.411,5.4.42.442.833.893,1.269,1.294l.123.126.012-.012a27.324,27.324,0,0,0,11.49,6.224c5.328,1.3,11.494.1,14.668-3.636S158.4,153.919,155.22,140.606Z" transform="translate(-109.323 -122.751)"/></g><path class="n" d="M146.8,177.985l-8.106-7.179-6.485,11.348-6.539-4.128c7.387,7.995,18.591,27.364,18.591,27.364s2.855-19.7,4.435-29.658Z" transform="translate(-97.547 -104.163)"/><path class="o" d="M143.488,191.892l-3.611-12.749.546-4.367-4.484-3.97-3.147,5.506,3.61,3.295.98,18.928c2.462,3.983,4.124,6.855,4.124,6.855S142.415,199.134,143.488,191.892Z" transform="translate(-94.792 -104.163)"/></g><path class="i" d="M109.926,136.93a19.8,19.8,0,0,0,1.3,19.428c6.476,9.931,13.417,14.349,15.127,14.083s2.574-.7,2.143-1.994-2.591-5.612-2.591-5.612-7.339-.864-7.339-5.612,2.589-5.612,5.612-4.318,3.453,3.455,5.181,5.181,2.158,6.045,3.453,5.614,2.159-1.728,2.159-3.886,0-4.75-2.59-7.34.431-6.908-2.159-10.362a25.4,25.4,0,0,0-4.317-4.748s1.727,2.591,10.362.863,12.52-1.294,15.975-3.453,2.591-6.908.431-8.636-7.339-2.591-13.384-4.748-9.5-.864-16.838.864S108.2,131.749,109.926,136.93Z" transform="translate(-104.396 -120.255)"/></g><path class="p" d="M201.619,319.7s-.287,4.318,4.318,7.485,5.468,5.18,9.21,6.619,7.2,6.332,5.469,9.787-9.787,4.03-14.968,2.591-6.045-6.045-10.938-7.772a18.078,18.078,0,0,1-8.059-5.181c-1.44-1.44-.864-7.2-.864-7.2l17.558-5.755" transform="translate(-57.543 -43.113)"/><path class="p" d="M217.808,307.657s-.287,4.318,4.317,7.484,5.47,5.181,9.211,6.619,7.2,6.334,5.468,9.787-9.785,4.03-14.966,2.591-6.045-6.044-10.938-7.772a18.069,18.069,0,0,1-8.059-5.181c-1.439-1.438-.864-7.195-.864-7.195l17.557-5.757" transform="translate(-51.282 -47.769)"/><path class="q" d="M114.568,235.205a31.543,31.543,0,0,1,.863,6.476c0,3.022-2.158,11.657,2.159,22.019s33.244,12.52,42.742,16.837a94.594,94.594,0,0,1,16.838,9.5c1.727,1.3,4.173,19.573,11.656,30.511s20.149,32.812,23.026,42.023a21.778,21.778,0,0,0,15.543-2.879c3.85-2.518,3.455-4.029,3.455-4.029s-14.968-32.813-18.422-46.63-7.483-29.934-13.815-33.963-26.479-18.421-31.085-21.3-17.015-11.978-19.446-17.5S122.051,221.821,114.568,235.205Z" transform="translate(-85.047 -78.503)"/><path class="q" d="M131.691,224.931a31.543,31.543,0,0,1,.863,6.476c0,3.023-2.158,11.657,2.159,22.02s33.244,12.52,42.742,16.837a94.648,94.648,0,0,1,16.838,9.5c1.727,1.3,4.173,19.572,11.656,30.509S226.1,343.085,228.976,352.3a21.781,21.781,0,0,0,15.543-2.878c3.85-2.52,3.453-4.03,3.453-4.03s-14.966-32.813-18.421-46.628-7.483-29.934-13.815-33.964-26.481-18.421-31.085-21.3-17.016-11.978-19.446-17.5S139.174,211.547,131.691,224.931Z" transform="translate(-78.424 -82.477)"/></g><g transform="translate(76.974 208.94)"><g transform="translate(161.373 180.341)"><g transform="translate(15.462 8.927)"><path class="d" d="M220.1,301.7l-.249,87.807-15.361,8.927.249-87.807Z" transform="translate(-204.487 -301.697)"/></g><g transform="translate(0 8.927)"><path class="e" d="M209.048,310.624l-.249,87.807L193.338,389.5l.249-87.807Z" transform="translate(-193.338 -301.697)"/></g><g transform="translate(0.249)"><path class="f" d="M224.34,304.187l-15.361,8.927-15.462-8.927,15.361-8.927Z" transform="translate(-193.517 -295.26)"/></g></g><path class="b" d="M460.7,258.526c-.022.255-.04.51-.087.766-.039.209-.1.416-.157.625-.064.243-.122.485-.208.725-.071.2-.165.4-.251.595-.111.255-.22.509-.355.759-.1.183-.216.362-.327.542-.176.286-.363.57-.573.85s-.41.539-.643.8c-.054.062-.1.126-.159.187-.315.343-.66.678-1.026,1.008-.234.211-.5.415-.75.618-.225.18-.44.363-.681.538-.276.2-.58.392-.878.585s-.6.4-.925.595L256.17,382.5a27.572,27.572,0,0,1-5.341,2.348,35.328,35.328,0,0,1-4.614,1.15q-1.533.275-3.108.433c-.9.089-1.8.148-2.7.18q-1.246.042-2.5.011-1.2-.029-2.4-.129l-.04,14.077q1.2.1,2.4.129,1.248.031,2.5-.011,1.358-.046,2.7-.18c1.048-.1,2.087-.248,3.108-.433a35.263,35.263,0,0,0,4.614-1.15,27.494,27.494,0,0,0,5.341-2.348L453.639,281.8c.1-.058.2-.117.3-.176.222-.133.412-.277.623-.415.3-.2.606-.388.883-.589.24-.175.455-.356.678-.537.257-.205.517-.409.752-.62.047-.043.1-.082.15-.125.313-.288.6-.584.875-.882.058-.062.107-.126.162-.19.162-.183.327-.366.474-.553.065-.08.107-.166.168-.248.209-.28.4-.564.573-.85.075-.121.172-.236.241-.358.033-.06.053-.123.086-.184.134-.25.244-.5.355-.757.065-.148.151-.294.208-.444.018-.05.025-.1.043-.151.086-.243.146-.485.209-.729.043-.164.108-.326.141-.491.008-.043.007-.087.014-.13.047-.257.065-.512.089-.768.014-.166.051-.333.057-.5,0-.072,0-.143,0-.215l.04-14.077C460.761,258.049,460.722,258.287,460.7,258.526Z" transform="translate(-15.669 -129.405)"/><path class="b" d="M294.443,386.268c-.814-.115-1.621-.255-2.416-.42q-1.294-.268-2.542-.623c-1.017-.29-2.005-.623-2.959-1a26.525,26.525,0,0,1-3.516-1.686L84.209,267.762c-4.805-2.774-7.2-6.415-7.195-10.051l-.04,14.077c-.01,3.636,2.389,7.278,7.195,10.053l198.8,114.777a26.533,26.533,0,0,0,3.516,1.686c.954.376,1.943.709,2.959,1q1.246.356,2.542.624,1.192.245,2.417.42c.782.111,1.574.2,2.369.263l.04-14.077Q295.619,386.435,294.443,386.268Z" transform="translate(-76.974 -129.443)"/><g transform="translate(0.04)"><path class="c" d="M514.86,284.13c9.549,5.514,9.6,14.452.112,19.964L317.463,418.874c-9.486,5.512-24.917,5.512-34.465,0L84.2,304.1c-9.548-5.513-9.6-14.45-.112-19.963L281.594,169.353c9.487-5.513,24.917-5.513,34.466,0Z" transform="translate(-77.003 -165.219)"/></g></g><g transform="translate(127.161 264.428)"><g transform="translate(174.044 82.895)"><path class="r" d="M238.664,287.107l54.423,31.627,38.283-22.1L276.947,265Z" transform="translate(-238.664 -265.004)"/><g transform="translate(23.127 12.17)"><g transform="translate(3.722)"><path class="s" d="M277.43,275.841l-8.562,4.976-10.843-3.194c3.027-3.463,10.334-4.84,16.324-3.074A13.434,13.434,0,0,1,277.43,275.841Z" transform="translate(-258.025 -273.779)"/></g><g transform="translate(0 2.709)"><path class="t" d="M280.432,275.733c5.754,3.323,5.783,8.709.067,12.032s-15.018,3.323-20.773,0c-4.6-2.658-5.684-6.529-2.757-9.878l13.109,3.862Z" transform="translate(-255.341 -275.733)"/></g></g><g transform="translate(39.986 24.293)"><path class="b" d="M267.856,296.755c-.477.276-.478.714-.006.99a1.867,1.867,0,0,0,1.709,0l24.3-14.026c.477-.276.48-.714.006-.99a1.866,1.866,0,0,0-1.709,0Z" transform="translate(-267.497 -282.522)"/><g transform="translate(16.791 1.629)"><path class="u" d="M279.959,289.855a.524.524,0,0,0-.006.989,1.9,1.9,0,0,0,1.717.006l10.31-5.952a.526.526,0,0,0,0-1,1.887,1.887,0,0,0-1.709,0Z" transform="translate(-279.605 -283.697)"/></g><g transform="translate(13.583 3.153)"><path class="u" d="M277.655,294.315c-.477.276-.488.72-.014.994a1.888,1.888,0,0,0,1.717,0l16.131-9.314c.477-.276.48-.714.006-.99a1.875,1.875,0,0,0-1.709,0Z" transform="translate(-277.292 -284.795)"/></g></g></g><g transform="translate(166.398 133.816)"><g transform="translate(0.01)"><path class="v" d="M304.872,317.95c1.323.764,1.329,2,.015,2.764l-38.847,22.555a5.245,5.245,0,0,1-4.772,0l-27.115-15.654c-1.322-.763-1.331-2-.015-2.764L272.986,302.3a5.254,5.254,0,0,1,4.772,0Z" transform="translate(-233.157 -301.723)"/></g><g transform="translate(0 2.433)"><path class="w" d="M305.862,314.527c0,.035-.006.071-.011.105s-.015.058-.022.086-.018.068-.029.1-.022.054-.035.082a1.033,1.033,0,0,1-.05.105c-.012.025-.029.05-.044.075-.025.04-.05.079-.079.118-.018.024-.036.046-.055.068a1.629,1.629,0,0,1-.143.154c-.018.018-.036.037-.055.055s-.068.057-.1.085-.061.05-.094.075-.08.054-.122.082-.082.056-.128.082l-38.847,22.555a3.6,3.6,0,0,1-.471.225l-.132.05c-.1.036-.209.067-.318.1s-.222.06-.337.083c-.135.028-.27.054-.409.071-.033,0-.067.011-.1.014a5.475,5.475,0,0,1-.566.032h-.09c-.187,0-.374-.011-.56-.03l-.083-.01a5.327,5.327,0,0,1-.542-.093c-.032-.007-.064-.017-.1-.024a4.851,4.851,0,0,1-.467-.143l-.083-.028a3.749,3.749,0,0,1-.514-.244L234.157,322.7a1.947,1.947,0,0,1-.935-1.017,1.174,1.174,0,0,1-.062-.376l-.01,1.556a1.225,1.225,0,0,0,.015.189,1.809,1.809,0,0,0,.982,1.2l27.115,15.654a3.594,3.594,0,0,0,.488.234l.026.01.083.028c.1.036.2.072.3.1.055.015.112.028.168.042l.1.024c.03.007.058.015.089.021.11.024.222.043.334.058l.119.014.083.01.125.014c.11.008.22.014.331.017.035,0,.069,0,.1,0h.09c.05,0,.1,0,.151,0,.125,0,.25-.012.373-.024l.043-.007.1-.014c.1-.012.193-.024.287-.04.042-.007.08-.022.122-.03.115-.024.227-.053.338-.083.058-.017.121-.026.177-.044s.092-.036.139-.053l.132-.05a3.607,3.607,0,0,0,.471-.225l38.847-22.555.042-.025c.031-.018.058-.039.087-.058s.083-.053.121-.08.064-.05.094-.075.072-.057.1-.085l.021-.018c.014-.012.022-.025.036-.037.051-.05.1-.1.143-.154.008-.011.022-.022.031-.033s.015-.024.024-.035c.029-.039.056-.079.079-.118.01-.017.024-.033.033-.05l.013-.025c.018-.035.033-.069.049-.105.01-.019.021-.04.029-.061l.006-.021a.9.9,0,0,0,.029-.1.539.539,0,0,0,.019-.068l0-.018c.006-.035.008-.071.011-.105a.644.644,0,0,0,.008-.069v-.031l.008-1.556C305.871,314.46,305.865,314.494,305.862,314.527Z" transform="translate(-233.15 -299.242)"/><g transform="translate(4.57)"><path class="x" d="M299.6,317.764a.47.47,0,0,1,0,.889L262.726,340.08a1.694,1.694,0,0,1-1.534,0l-24.426-14.1a.47.47,0,0,1-.006-.89l36.872-21.426a1.687,1.687,0,0,1,1.537,0Z" transform="translate(-236.445 -303.478)"/></g></g></g><g transform="translate(53.157)"><path class="r" d="M151.493,227.332l54.423,31.627,38.283-22.1L189.776,205.23Z" transform="translate(-151.493 -205.23)"/><g transform="translate(23.128 12.169)"><g transform="translate(3.723)"><path class="t" d="M190.259,216.067l-8.562,4.976-10.842-3.2c3.026-3.461,10.334-4.839,16.323-3.075A13.47,13.47,0,0,1,190.259,216.067Z" transform="translate(-170.855 -214.005)"/></g><g transform="translate(0 2.71)"><path class="y" d="M193.261,215.959c5.755,3.323,5.784,8.709.067,12.032s-15.016,3.323-20.771,0c-4.6-2.658-5.686-6.529-2.757-9.88l13.108,3.864Z" transform="translate(-168.17 -215.959)"/></g></g><g transform="translate(39.986 24.294)"><path class="b" d="M180.686,236.981c-.477.276-.48.714-.006.99a1.872,1.872,0,0,0,1.707,0l24.3-14.027c.477-.275.48-.713.006-.989a1.866,1.866,0,0,0-1.708,0Z" transform="translate(-180.327 -222.748)"/><g transform="translate(16.791 1.629)"><path class="u" d="M192.787,230.079a.525.525,0,0,0-.006.99,1.9,1.9,0,0,0,1.717.006l10.309-5.954c.477-.275.472-.718,0-.994a1.887,1.887,0,0,0-1.709,0Z" transform="translate(-192.435 -223.923)"/></g><g transform="translate(13.582 3.152)"><path class="y" d="M190.484,234.541c-.477.275-.488.718-.014.994a1.883,1.883,0,0,0,1.717-.006l16.131-9.314c.477-.275.48-.713.006-.989a1.863,1.863,0,0,0-1.707,0Z" transform="translate(-190.121 -225.021)"/></g></g></g><g transform="translate(0 53.39)"><g transform="translate(39.53 29.18)"><g transform="translate(29.486)"><g transform="translate(64.116 37.017)"><path class="z" d="M216.712,291.463l-.009,3.27-7.541,4.382.009-3.269Z" transform="translate(-209.162 -291.463)"/></g><g transform="translate(0 4.382)"><path class="aa" d="M227.054,304.947l-.009,3.269L162.929,271.2l.009-3.269Z" transform="translate(-162.929 -267.93)"/></g><g transform="translate(0.009)"><path class="ab" d="M234.592,301.787l-7.541,4.382-64.116-37.017,7.541-4.382Z" transform="translate(-162.936 -264.77)"/></g></g><g transform="translate(14.746 8.569)"><g transform="translate(50.364 29.078)"><path class="ac" d="M196.162,291.917l-.009,3.269-7.536,4.379.009-3.269Z" transform="translate(-188.617 -291.917)"/></g><g transform="translate(0 4.379)"><path class="ad" d="M202.674,303.185l-.009,3.269L152.3,277.377l.009-3.269Z" transform="translate(-152.3 -274.107)"/></g><g transform="translate(0.009)"><path class="ae" d="M210.207,300.027l-7.536,4.379-50.364-29.078,7.536-4.379Z" transform="translate(-152.307 -270.949)"/></g></g><g transform="translate(0 17.138)"><g transform="translate(23.047 13.306)"><path class="af" d="M165.831,286.723l-.009,3.27-7.536,4.379.009-3.27Z" transform="translate(-158.286 -286.723)"/></g><g transform="translate(0 4.379)"><path class="ag" d="M164.723,293.592l-.009,3.27-23.047-13.306.009-3.269Z" transform="translate(-141.667 -280.286)"/></g><g transform="translate(0.009)"><path class="ah" d="M172.256,290.434l-7.536,4.379-23.047-13.306,7.536-4.379Z" transform="translate(-141.674 -277.129)"/></g></g></g><g transform="translate(18.689 19.131)"><path class="b" d="M127.206,279.958c-.752.434-.756,1.126-.008,1.56a2.945,2.945,0,0,0,2.692,0l38.294-22.11c.753-.434.756-1.125.01-1.559a2.948,2.948,0,0,0-2.693,0Z" transform="translate(-126.64 -257.524)"/><g transform="translate(26.466 2.567)"><path class="b" d="M146.28,269.081a.826.826,0,0,0-.008,1.559,3,3,0,0,0,2.707.008l16.25-9.382a.828.828,0,0,0-.006-1.568,2.973,2.973,0,0,0-2.693,0Z" transform="translate(-145.724 -259.375)"/></g><g transform="translate(21.409 4.969)"><path class="b" d="M142.651,276.112c-.752.434-.77,1.134-.022,1.568a2.974,2.974,0,0,0,2.706-.008l25.428-14.681c.752-.434.754-1.125.008-1.559a2.947,2.947,0,0,0-2.693,0Z" transform="translate(-142.078 -261.107)"/></g></g><g transform="translate(6.263)"><path class="ai" d="M149.79,247.415l-6.085,3.536c-5.524-3.015-14.2-2.964-19.577.159-.111.065-.215.132-.322.2l-6.127-3.538c.108-.065.215-.13.326-.2C126.739,242.5,140.886,242.448,149.79,247.415Z" transform="translate(-117.679 -243.729)"/><g transform="translate(26.957 4.24)"><path class="ai" d="M143.211,246.786c7.229,4.527,7.977,11.27,2.223,16.234l-6.315-3.646c2.534-2.9,1.865-6.5-2-9.047Z" transform="translate(-137.117 -246.786)"/></g><g transform="translate(1.109 17.524)"><path class="aj" d="M151.855,259.953a19.694,19.694,0,0,1-1.98,1.315c-8.608,5-22.47,5.126-31.4.374l6.092-3.539c5.535,2.8,13.935,2.679,19.182-.37a10.972,10.972,0,0,0,1.887-1.367Z" transform="translate(-118.479 -256.365)"/></g></g><g transform="translate(0 4.617)"><path class="aj" d="M124.686,250.612c-4.158,3.131-3.828,7.619.976,10.552l-6.087,3.536c-8.181-4.89-8.54-12.539-1.046-17.643Z" transform="translate(-113.163 -247.058)"/></g></g></g><g transform="translate(247.035 137.799)"><path class="ae" d="M238.657,134.2a11.149,11.149,0,0,1,5.053,8.753l-.055,48.941c-.008,3.212-2.291,4.513-5.087,2.9l-13.647-7.88-.664.925-2.663,3.75-2.642-6.812-.656-1.688-13.647-7.88a11.135,11.135,0,0,1-5.045-8.748l.054-48.941c.01-3.213,2.283-4.518,5.078-2.9Z" transform="translate(-199.603 -113.92)"/><g transform="translate(6.763 15.974)"><g transform="translate(0.019)"><path class="r" d="M213.1,130.267l0,1.377a1.055,1.055,0,0,1-1.584.91l-6.5-3.769a1.054,1.054,0,0,1-.524-.915l0-1.377a1.055,1.055,0,0,1,1.585-.91l6.5,3.769A1.054,1.054,0,0,1,213.1,130.267Z" transform="translate(-204.494 -125.438)"/></g><g transform="translate(0 6.852)"><path class="b" d="M233.658,147.065l0,1.38a1.055,1.055,0,0,1-1.582.911l-27.065-15.626a1.056,1.056,0,0,1-.527-.917l0-1.38a1.055,1.055,0,0,1,1.582-.911l27.066,15.626A1.053,1.053,0,0,1,233.658,147.065Z" transform="translate(-204.48 -130.379)"/></g></g><g transform="translate(7.376 35.294)"><path class="r" d="M211.3,143.047l0,1.579-3.665,12.514-1.57-.906,3.649-12.488-4.786-2.763,0-1.613Z" transform="translate(-204.922 -139.369)"/><g transform="translate(7.79 4.777)"><path class="r" d="M216.567,146.012l-.006,1.613-4.135-2.388-.241,4.848c.456-.623,1.151-.673,2.1-.125,1.811,1.047,2.607,3.036,2.6,5.342l-.008,3.158c-.007,2.481-1.039,3.5-3.181,2.263a6.5,6.5,0,0,1-3.159-5.924l0-1.075,1.48.854,0,1.2a3.533,3.533,0,0,0,1.639,3.291c1.118.645,1.649.065,1.653-1.391l.008-3.14a3.55,3.55,0,0,0-1.639-3.292c-.86-.5-1.451-.282-1.589.82v.365l-1.48-.854.419-8.759Z" transform="translate(-210.539 -142.814)"/></g><g transform="translate(22.475 19.794)"><path class="r" d="M223.172,153.979a4.1,4.1,0,0,1,2,3.744l-.014,5.083c-.006,1.578-.627,2.262-2.016,1.46a4.169,4.169,0,0,1-2.015-3.787l.014-5.083C221.147,153.852,221.8,153.185,223.172,153.979Zm.975,8.347.015-5.256a2.189,2.189,0,0,0-.993-2.033c-.709-.409-1.012-.011-1.015.874l-.015,5.256a2.235,2.235,0,0,0,1.008,2.058c.693.4,1-.032,1-.9" transform="translate(-221.128 -153.643)"/></g><g transform="translate(15.578 9.749)"><path class="r" d="M220.185,155.614c0,1.56-.656,2.227-2.03,1.434a4.15,4.15,0,0,1-2-3.762l.014-5.117c0-1.544.656-2.227,2.015-1.442A4.176,4.176,0,0,1,220.2,150.5Zm-1.011-.5.014-5.274a2.237,2.237,0,0,0-1.007-2.058c-.725-.419-1,.032-1,.9l-.015,5.273a2.148,2.148,0,0,0,.992,2.033c.71.409,1.014.011,1.017-.874" transform="translate(-216.155 -146.399)"/></g><g transform="translate(17.727 13.466)"><path class="r" d="M223.306,149.08l.936.54-5.586,12.986-.951-.549Z" transform="translate(-217.705 -149.08)"/></g></g></g><g transform="translate(277.514 242.893)"><g transform="translate(0 9.651)"><path class="b" d="M292.02,203.671c16.189,9.347,16.293,24.5.209,33.852s-42.271,9.347-58.46,0-16.256-24.5-.172-33.852S275.831,194.324,292.02,203.671Z" transform="translate(-221.581 -196.661)"/></g><g transform="translate(4.009)"><g transform="translate(56.504 6.648)"><path class="ak" d="M275.523,194.5l-.017,5.951-10.29,5.98.017-5.951Z" transform="translate(-265.217 -194.495)"/></g><path class="ak" d="M245.825,204.439c.072-.028.14-.058.211-.086.576-.219,1.166-.416,1.765-.6.413-.13.839-.245,1.262-.361.323-.087.642-.182.969-.261.447-.108.9-.2,1.355-.29.333-.067.66-.143,1-.2.137-.024.276-.043.413-.065q.847-.139,1.7-.241c.166-.019.331-.042.5-.06.661-.071,1.327-.128,2-.166l.37-.019c.449-.022.9-.029,1.348-.037s.9-.011,1.348-.006c.376,0,.752.017,1.126.031q.624.025,1.247.067.568.042,1.134.1.618.058,1.229.137c.368.046.734.1,1.1.155.438.068.871.144,1.3.226.452.086.906.172,1.351.273l.32.072c.627.15,1.244.318,1.851.5.175.051.345.107.519.161q.757.239,1.492.51c.143.053.288.1.43.157.444.172.874.363,1.3.553.212.094.43.179.638.277.62.294,1.223.606,1.8.942l.017-6.941c-.58-.336-1.183-.648-1.8-.942-.205-.1-.422-.183-.632-.276-.367-.164-.729-.333-1.109-.483-.065-.026-.133-.047-.2-.073-.14-.054-.284-.1-.427-.155q-.734-.273-1.494-.51c-.173-.054-.344-.11-.519-.161-.116-.035-.229-.075-.347-.108-.5-.141-1-.268-1.5-.39-.105-.025-.214-.047-.32-.072-.245-.055-.491-.115-.739-.166-.2-.042-.409-.068-.612-.107-.433-.082-.865-.158-1.3-.226-.175-.028-.345-.067-.521-.092-.191-.026-.386-.04-.577-.064-.408-.053-.817-.1-1.227-.137-.2-.019-.39-.05-.587-.065-.182-.015-.366-.018-.549-.031-.415-.028-.829-.05-1.247-.067-.208-.008-.416-.028-.625-.033-.166,0-.333.006-.5,0-.449-.006-.9,0-1.347.006-.223,0-.447,0-.67,0s-.453.022-.68.033c-.123.007-.247.011-.37.019-.56.033-1.12.073-1.677.129-.107.01-.212.026-.319.037-.166.018-.331.04-.5.06q-.857.1-1.7.241c-.139.022-.279.042-.416.067-.067.011-.135.019-.2.032-.268.047-.526.115-.79.168-.456.093-.913.183-1.359.291-.327.079-.645.172-.965.259-.426.117-.851.232-1.268.362-.089.028-.182.049-.27.078-.506.164-1,.341-1.494.527-.071.028-.139.058-.211.086-.537.209-1.059.435-1.573.671-.151.071-.3.141-.451.214-.569.275-1.126.56-1.659.871-.1.058-.2.118-.3.176s-.179.115-.269.171c-.151.094-.3.189-.448.284s-.262.175-.39.263-.282.194-.417.293-.244.183-.365.275-.259.2-.386.3-.227.187-.338.281-.239.207-.355.311c-.047.042-.1.083-.146.126s-.079.082-.122.122c-.194.183-.379.367-.556.555-.061.062-.123.125-.182.187-.225.245-.438.494-.637.743l-.028.032c-.046.058-.083.118-.128.175-.119.158-.237.316-.347.476-.06.087-.115.176-.172.265-.094.144-.184.288-.269.434-.024.04-.051.079-.073.119-.033.06-.061.119-.093.179-.065.123-.13.247-.19.37-.05.1-.1.205-.144.309-.055.123-.108.248-.158.373-.022.055-.049.111-.069.166s-.032.1-.05.15c-.043.119-.082.239-.118.358s-.065.215-.1.323-.06.24-.087.359c-.014.065-.033.129-.047.194-.008.043-.012.087-.019.132-.024.122-.042.244-.058.368-.015.108-.031.215-.042.323-.012.123-.019.247-.026.372,0,.072-.012.144-.015.216s0,1.133,0,1.205L235,216.192c0-.144.01-.288.018-.433.007-.125.014-.248.026-.372.011-.108.026-.216.042-.323.017-.123.035-.245.057-.368s.044-.218.068-.326.055-.24.087-.359.062-.216.1-.324.075-.237.116-.355.079-.212.121-.319c.05-.123.1-.248.157-.372.047-.1.094-.207.146-.311.06-.123.123-.245.19-.369.054-.1.108-.2.166-.3.085-.146.176-.29.269-.434.057-.089.112-.178.172-.265.11-.16.226-.318.347-.474.051-.069.1-.139.155-.208.2-.25.412-.5.637-.743.058-.062.121-.125.18-.187.179-.187.363-.372.558-.555.087-.083.176-.166.268-.248.115-.1.234-.207.354-.309s.225-.19.341-.283.254-.2.384-.3.24-.183.365-.275.275-.194.416-.291.258-.179.392-.266.3-.189.447-.283c.187-.117.373-.233.569-.347.533-.311,1.09-.6,1.659-.871.148-.072.3-.143.449-.212C244.765,204.875,245.288,204.649,245.825,204.439Z" transform="translate(-220.399 -187.616)"/><g transform="translate(11.567 32.763)"><path class="ak" d="M243.119,213.327l-.017,5.951-10.29,5.98.017-5.951Z" transform="translate(-232.813 -213.327)"/></g><path class="al" d="M224.472,211.938l.017-5.951c-.017,5.844,3.841,11.7,11.567,16.158l-.017,5.952C228.313,223.635,224.455,217.782,224.472,211.938Z" transform="translate(-224.472 -183.403)"/><g transform="translate(0 22.584)"><path class="ak" d="M236.056,222.145l-.017,5.952c-7.726-4.461-11.584-10.315-11.567-16.159l.017-5.951c-.017,5.844,3.841,11.7,11.567,16.158" transform="translate(-224.472 -205.987)"/></g><g transform="translate(0.018)"><path class="s" d="M291.277,196.349l-10.289,5.98c-9.63-5.56-25.194-5.56-34.761,0s-9.516,14.575.114,20.136l-10.29,5.978c-15.353-8.864-15.429-23.232-.18-32.093S275.924,187.485,291.277,196.349Z" transform="translate(-224.485 -189.702)"/></g><path class="am" d="M265.234,200.121l-.017,4.13c4.843,2.8,7.261,6.467,7.252,10.133l.017-5.951C272.495,204.767,270.076,202.917,265.234,200.121Z" transform="translate(-208.712 -185.672)"/><g transform="translate(56.308 34.754)"><path class="am" d="M275.448,220.742l-.017,4.129-10.357-5.98.017-4.129Z" transform="translate(-265.075 -214.762)"/></g><path class="am" d="M284.221,206.834c-.01.2-.022.4-.042.592-.018.172-.042.343-.065.513-.028.2-.056.392-.092.588-.032.173-.069.345-.108.517-.043.191-.089.383-.14.573-.046.173-.1.345-.151.517-.058.189-.121.379-.187.567-.061.169-.125.338-.191.506-.079.2-.162.4-.251.594-.074.165-.15.33-.23.5q-.146.3-.3.588c-.086.158-.173.318-.265.474-.135.233-.28.465-.43.7-.09.139-.178.28-.272.419-.175.255-.363.508-.555.759-.083.11-.159.22-.247.329-.316.4-.656.795-1.015,1.186-.093.1-.193.2-.288.3q-.424.445-.888.883c-.14.133-.282.265-.427.4-.184.166-.373.33-.566.494-.178.151-.355.3-.539.449-.2.162-.406.322-.614.481-.191.146-.384.293-.582.435-.215.158-.438.312-.663.467-.205.141-.412.283-.624.422-.232.153-.471.3-.711.451-.3.187-.595.373-.908.555-.1.06-.2.114-.305.173l-.017,5.951c.1-.06.2-.114.305-.173.161-.093.32-.187.478-.282s.283-.182.427-.27c.241-.151.481-.3.714-.453.212-.139.417-.28.623-.42.225-.155.448-.311.666-.469.2-.144.39-.29.581-.435.208-.159.415-.319.614-.481.183-.148.362-.3.539-.448.191-.165.381-.329.566-.5.075-.068.158-.133.232-.2s.128-.13.2-.194q.464-.437.888-.883c.1-.1.2-.2.287-.3.359-.391.7-.786,1.017-1.187.014-.017.03-.033.044-.05.072-.092.132-.186.2-.279.191-.251.379-.5.553-.759.1-.139.183-.28.273-.42.15-.23.294-.462.43-.693.038-.064.082-.126.118-.19.053-.094.1-.191.147-.286.105-.2.207-.39.3-.587.08-.165.158-.331.232-.5.089-.2.172-.4.25-.594.036-.089.079-.176.112-.266s.051-.16.08-.24c.067-.189.128-.377.187-.566.053-.173.105-.345.151-.519.051-.19.1-.381.139-.571.024-.1.055-.207.076-.309.014-.069.019-.14.032-.209.036-.194.065-.391.093-.587.024-.172.047-.343.065-.514.019-.2.031-.394.042-.591.007-.115.022-.232.025-.347s.006-.229.006-.344l.017-5.951C284.252,206.374,284.234,206.6,284.221,206.834Z" transform="translate(-205.878 -183.342)"/><g transform="translate(56.325 8.469)"><path class="ae" d="M275.573,195.809c15.35,8.862,15.427,23.23.176,32.092-.1.06-.2.114-.305.172l-10.357-5.98c.1-.058.2-.112.305-.172,9.567-5.56,9.516-14.575-.108-20.132Z" transform="translate(-265.087 -195.809)"/></g><path class="an" d="M270.929,225.136c.429-.164.85-.336,1.27-.51.251-.105.5-.209.749-.318.445-.2.881-.4,1.313-.607.207-.1.416-.2.62-.3.628-.315,1.247-.641,1.849-.982l.017-1.327c-.6.341-1.219.667-1.847.982-.205.1-.416.2-.624.3-.431.208-.867.412-1.31.607-.247.108-.5.212-.749.318-.419.175-.843.347-1.27.51q-.393.152-.792.3-.657.239-1.329.46c-.281.093-.56.189-.845.279-.214.067-.43.13-.646.2q-.591.177-1.19.341c-.222.061-.444.122-.667.18-.422.11-.847.214-1.273.315-.2.047-.392.1-.591.14-.623.141-1.266.275-1.9.4v1.327c.632-.121,1.258-.254,1.882-.4.2-.044.391-.093.587-.139q.641-.152,1.276-.316c.223-.058.445-.119.667-.18.4-.11.795-.223,1.188-.341.216-.065.433-.129.648-.2.111-.036.225-.067.334-.1.172-.054.338-.119.51-.176q.67-.223,1.329-.46Q270.535,225.287,270.929,225.136Z" transform="translate(-210.066 -177.559)"/><g transform="translate(46.879 37.556)"><path class="ao" d="M278.078,222.763a49.3,49.3,0,0,1-15.013,5.317l-4.789-8a31.114,31.114,0,0,0,9.445-3.3Z" transform="translate(-258.276 -216.783)"/></g><path class="ab" d="M271.224,225.917c-.392.065-.783.132-1.179.189-.46.067-.924.121-1.387.178-.394.049-.788.1-1.184.141-.731.075-1.466.14-2.2.191-.067.006-.132.012-.2.017-.815.055-1.635.092-2.455.117-.208.007-.417.008-.625.012q-.907.019-1.815.015c-.251,0-.5,0-.752-.008-.668-.011-1.337-.031-2.005-.062-.126-.006-.254-.008-.381-.015-.788-.04-1.574-.1-2.356-.165-.207-.018-.413-.04-.619-.06q-.911-.089-1.814-.2c-.218-.028-.437-.054-.655-.083-.781-.105-1.557-.22-2.328-.355l-.015,0c-.765-.132-1.523-.284-2.276-.444-.268-.058-.534-.121-.8-.182-.517-.118-1.03-.24-1.538-.372q-.418-.106-.833-.219c-.44-.121-.875-.25-1.309-.38-.4-.121-.8-.241-1.188-.37s-.8-.269-1.191-.408-.772-.276-1.152-.42c-.578-.222-1.152-.448-1.714-.688l-.169-.069c-.657-.286-1.3-.588-1.932-.9-.153-.075-.305-.151-.456-.229-.634-.322-1.258-.652-1.862-1l-.017,2.48c.6.348,1.229.68,1.862,1,.151.078.3.154.456.23.632.311,1.274.613,1.932.9l.168.069c.415.178.833.354,1.258.52.15.06.305.11.456.166.381.147.768.286,1.157.423s.786.276,1.186.406.793.251,1.193.37c.244.074.481.155.725.226.191.054.388.1.581.154q.416.112.836.221c.508.13,1.019.252,1.535.37.266.061.533.123.8.182.118.025.232.054.349.079q.955.2,1.925.365l.024,0q.955.166,1.919.3c.133.019.269.033.4.051.218.029.435.055.655.083q.9.112,1.813.2c.207.019.412.042.62.06.105.008.211.022.318.031q1.015.083,2.037.135c.129.007.258.01.388.015.476.022.953.044,1.43.057.19,0,.38,0,.569.006q.377.006.753.008.907,0,1.814-.015c.209,0,.417-.006.627-.012.083,0,.168,0,.251,0q1.1-.037,2.2-.112c.067,0,.132-.011.2-.017.649-.044,1.3-.1,1.941-.161.089-.008.175-.021.262-.031.4-.042.79-.093,1.184-.141.463-.057.926-.111,1.385-.178.4-.057.788-.123,1.18-.187.338-.055.68-.1,1.016-.162l.673-.126.017-2.478C272.355,225.736,271.789,225.825,271.224,225.917Z" transform="translate(-221.246 -177.928)"/><g transform="translate(11.584 36.229)"><path class="t" d="M268.12,219.292l4.789,8c-13.6,2.614-29.214.789-40.084-5.486l10.29-5.98C249.9,219.741,259.622,220.893,268.12,219.292Z" transform="translate(-232.825 -215.826)"/></g></g></g><g transform="translate(333.874 52.183)"><path class="ap" d="M278,53.528l-.312-.175c-.135-.072-.269-.141-.4-.208s-.266-.129-.4-.187-.262-.114-.391-.166-.265-.1-.4-.148c-.025-.01-.05-.017-.075-.025l-.029-.01c-.1-.032-.193-.065-.288-.094-.136-.042-.27-.078-.4-.111s-.269-.064-.4-.09-.287-.051-.429-.071c-.1-.012-.193-.019-.289-.029l-.043,0-.105-.011c-.155-.01-.308-.015-.459-.015-.172,0-.341.01-.509.025a4.962,4.962,0,0,0-.563.082l-.014,0-.018.006a5.093,5.093,0,0,0-.653.179,4.671,4.671,0,0,0-.792.367l-6.493,3.773a4.808,4.808,0,0,1,1.444-.546l.019,0a5.814,5.814,0,0,1,1.649-.085l.044,0a7.955,7.955,0,0,1,1.81.4l.029.01a11.374,11.374,0,0,1,1.975.91L452.9,162.028l6.493-3.773Z" transform="translate(-261.326 -52.183)"/><path class="aq" d="M416.611,145.138c-.006-.158-.013-.316-.022-.474s-.022-.318-.037-.477-.033-.32-.054-.481-.044-.327-.069-.491l0-.014v-.011c-.025-.157-.053-.313-.082-.471s-.067-.34-.1-.51-.078-.343-.119-.513-.089-.347-.137-.52c-.037-.135-.076-.269-.118-.4l-.008-.032-.025-.082q-.077-.254-.162-.508c-.056-.166-.114-.333-.173-.5s-.118-.319-.18-.477-.125-.318-.191-.476c-.05-.122-.1-.243-.155-.365l-.01-.022-.036-.082q-.1-.239-.216-.474c-.081-.173-.164-.344-.248-.514-.1-.2-.2-.391-.3-.587s-.232-.415-.35-.62c-.021-.037-.039-.073-.061-.11s-.047-.087-.072-.13c-.232-.392-.474-.779-.727-1.157-.2-.3-.406-.595-.62-.883-.143-.193-.287-.384-.435-.571-.123-.157-.25-.313-.377-.466s-.251-.3-.379-.442-.252-.284-.38-.423c-.026-.028-.053-.053-.078-.08l-.028-.029c-.1-.1-.2-.208-.3-.309q-.2-.208-.412-.408c-.143-.137-.286-.27-.431-.4s-.288-.257-.435-.38c-.073-.062-.147-.121-.222-.18l-.05-.042c-.054-.044-.11-.092-.165-.135-.141-.112-.286-.222-.43-.329s-.283-.205-.426-.3-.277-.187-.417-.276-.276-.172-.415-.254l-.1-.057-6.493,3.773a15.077,15.077,0,0,1,1.95,1.354l.049.039a18.672,18.672,0,0,1,1.8,1.679l.028.029a22.859,22.859,0,0,1,3.069,4.153c.021.036.04.074.061.11a23.467,23.467,0,0,1,1.15,2.276l.012.028a21.565,21.565,0,0,1,.886,2.4l.01.032a18.638,18.638,0,0,1,.559,2.419v.01a15.075,15.075,0,0,1,.193,2.38l-.352,123.938a10.988,10.988,0,0,1-.2,2.111l-.012.06a7.793,7.793,0,0,1-.552,1.725l-.014.033a5.794,5.794,0,0,1-.735,1.137c-.09.112-.176.233-.272.337a4.828,4.828,0,0,1-1.071.882l6.493-3.773a4.8,4.8,0,0,0,1.071-.883c.1-.1.182-.222.272-.336a5.515,5.515,0,0,0,.354-.437,6.331,6.331,0,0,0,.369-.671l.014-.031.013-.03c.073-.16.144-.323.209-.5s.118-.338.171-.516c.047-.162.092-.329.13-.5.015-.069.029-.143.043-.215l.012-.06c.014-.069.029-.136.042-.205.026-.153.049-.309.069-.469s.036-.311.049-.472.022-.306.029-.463.01-.313.011-.473v-.029l.351-123.938C416.617,145.434,416.615,145.287,416.611,145.138Z" transform="translate(-208.79 -22.598)"/><g transform="translate(0 3.774)"><path class="ar" d="M453.791,160.977c5.411,3.124,9.78,10.691,9.763,16.909L463.2,301.824c-.017,6.22-4.414,8.726-9.827,5.6L271.983,202.7c-5.411-3.124-9.78-10.691-9.762-16.909l.351-123.939c.018-6.218,4.414-8.724,9.827-5.6Z" transform="translate(-262.221 -54.904)"/></g><g transform="translate(78.792 25.687)"><path class="ac" d="M379.252,104.046a6.759,6.759,0,0,1,3.069,5.316l-.11,38.956c-.006,1.954-1.388,2.742-3.09,1.76L322.106,117.16a6.758,6.758,0,0,1-3.069-5.314l.111-38.958c.006-1.954,1.387-2.742,3.088-1.76Z" transform="translate(-319.037 -70.705)"/></g><g transform="translate(19.991 35.54)"><g transform="translate(0.025)"><path class="r" d="M287.71,84.011l0,1.768a1.355,1.355,0,0,1-2.034,1.168l-8.342-4.84a1.354,1.354,0,0,1-.675-1.176l.006-1.768A1.355,1.355,0,0,1,278.694,78l8.342,4.84A1.353,1.353,0,0,1,287.71,84.011Z" transform="translate(-276.654 -77.811)"/></g><g transform="translate(0 8.799)"><path class="as" d="M314.1,105.581l-.006,1.772a1.354,1.354,0,0,1-2.032,1.169L277.314,88.457a1.352,1.352,0,0,1-.678-1.176l.006-1.772a1.354,1.354,0,0,1,2.032-1.169L313.428,104.4A1.356,1.356,0,0,1,314.1,105.581Z" transform="translate(-276.636 -84.156)"/></g></g><path class="at" d="M273.1,143.333l13.836-7.057,9.05,14.619,10.094,10.268,10.094-6.091,21.581-6.962,9.746,13.923,9.746,8.006,8.876,13.053,12.009-25.235,14.619,6.961,7.658-6.265,15.837,4.177,23.5-2.088" transform="translate(-258.015 -19.656)"/><g transform="translate(83.682 42.226)"><path class="au" d="M335.775,84.431c-5.253-3.032-10.225-2.258-12.279,2.521-2.571,5.974.352,16.038,6.54,23l1.437-3.342c-4.192-4.891-6.145-11.8-4.367-15.936,1.451-3.369,4.954-3.912,8.656-1.775a15.018,15.018,0,0,1,2.715,2.04l1.435-3.342A21.639,21.639,0,0,0,335.775,84.431Z" transform="translate(-322.563 -82.632)"/><g transform="translate(7.473 4.965)"><path class="av" d="M337.829,86.212l-1.434,3.339c.226.211.452.431.675.663,4.765,4.909,7.092,12.451,5.2,16.851-.071.157-.143.308-.222.458-.026.053-.057.1-.087.157-1.378,2.426-4.019,3.018-6.946,1.844a10.767,10.767,0,0,1-1.391-.68c-.125-.072-.25-.148-.376-.226-.229-.143-.4-.261-.574-.377l-.079-.055c-.376-.266-.749-.553-1.125-.875l-.141-.123c-.139-.121-.276-.245-.415-.374-.051-.047-.1-.093-.154-.144-.18-.169-.361-.347-.538-.528-.288-.3-.564-.6-.835-.915l-1.437,3.342c.275.306.551.612.836.906.255.261.51.513.77.756.072.069.144.139.219.207.2.182.394.359.592.533.067.058.133.118.2.173.533.452,1.069.87,1.6,1.243.042.031.083.058.126.086.243.172.487.33.728.484l.085.051c.165.1.331.2.5.3q.591.341,1.177.62c.294.139.571.258.849.369,4.465,1.771,8.464.653,10.251-3.507,2.683-6.239-.621-16.944-7.376-23.906Q338.169,86.534,337.829,86.212Z" transform="translate(-327.952 -86.212)"/></g></g><g transform="translate(115.135 62.027)"><g transform="translate(0.044)"><path class="r" d="M351.664,100.492l0,1.022a.783.783,0,0,1-1.176.675l-4.82-2.8a.78.78,0,0,1-.39-.68l0-1.022a.783.783,0,0,1,1.176-.674l4.821,2.8A.783.783,0,0,1,351.664,100.492Z" transform="translate(-345.275 -96.91)"/></g><g transform="translate(0.029 5.085)"><path class="r" d="M366.92,112.96l0,1.025a.783.783,0,0,1-1.175.675l-20.086-11.6a.784.784,0,0,1-.392-.681l0-1.023a.784.784,0,0,1,1.175-.677l20.088,11.6A.781.781,0,0,1,366.92,112.96Z" transform="translate(-345.264 -100.577)"/></g><g class="aw" transform="translate(0 15.263)"><path class="r" d="M358.617,115.519l0,1.023a.782.782,0,0,1-1.173.675L345.635,110.4a.784.784,0,0,1-.392-.681l0-1.023a.783.783,0,0,1,1.173-.677l11.806,6.816A.781.781,0,0,1,358.617,115.519Z" transform="translate(-345.243 -107.916)"/></g><g transform="translate(0.015 10.174)"><path class="ae" d="M363.794,114.831l0,1.025a.782.782,0,0,1-1.173.675l-16.973-9.8a.781.781,0,0,1-.391-.68l0-1.025a.783.783,0,0,1,1.175-.675l16.972,9.8A.781.781,0,0,1,363.794,114.831Z" transform="translate(-345.254 -104.246)"/></g></g><g transform="translate(171.124 126.682)"><path class="ax" d="M396.261,144.983c-5.851-3.378-10.626-.657-10.645,6.067s4.725,14.911,10.576,18.289,10.6.671,10.62-6.052S402.113,148.362,396.261,144.983Z" transform="translate(-385.616 -143.531)"/><g transform="translate(5.807 7.469)"><path class="ay" d="M394.615,149.573c-2.645-1.527-4.8-.3-4.812,2.743a10.526,10.526,0,0,0,4.782,8.268c2.646,1.527,4.793.3,4.8-2.736A10.529,10.529,0,0,0,394.615,149.573Z" transform="translate(-389.803 -148.917)"/></g></g><g transform="translate(20.389 58.279)"><path class="az" d="M288.336,100.571v1.824a1.4,1.4,0,0,1-2.094,1.212l-8.619-4.966a1.4,1.4,0,0,1-.7-1.211V95.606a1.4,1.4,0,0,1,2.094-1.211l8.62,4.965A1.4,1.4,0,0,1,288.336,100.571Z" transform="translate(-276.923 -94.207)"/><g transform="translate(0.001 9.075)"><path class="az" d="M315.631,122.737v1.828a1.4,1.4,0,0,1-2.093,1.212L277.627,105.19a1.4,1.4,0,0,1-.7-1.211V102.15a1.4,1.4,0,0,1,2.093-1.212l35.911,20.587A1.4,1.4,0,0,1,315.631,122.737Z" transform="translate(-276.924 -100.751)"/></g><g class="aw" transform="translate(0.007 27.239)"><path class="az" d="M300.827,127.347v1.828a1.4,1.4,0,0,1-2.093,1.212l-21.106-12.1a1.4,1.4,0,0,1-.7-1.212v-1.828a1.4,1.4,0,0,1,2.091-1.212l21.106,12.1A1.4,1.4,0,0,1,300.827,127.347Z" transform="translate(-276.928 -113.849)"/></g><g transform="translate(0.004 18.157)"><path class="az" d="M310.063,126.092v1.829a1.4,1.4,0,0,1-2.093,1.212l-30.343-17.395a1.4,1.4,0,0,1-.7-1.212V108.7a1.4,1.4,0,0,1,2.091-1.212l30.343,17.395A1.4,1.4,0,0,1,310.063,126.092Z" transform="translate(-276.926 -107.3)"/></g></g><g transform="translate(128.484 186.346)"><g transform="translate(27.131 29.974)"><path class="ba" d="M374.528,211.014l4.9-2.845-.094,33.242-4.9,2.845Z" transform="translate(-374.433 -208.169)"/></g><path class="bb" d="M387.737,218.487v-.08l0-.04,0-.04-.007-.042-.007-.043-.008-.043,0-.01v0l-.008-.032-.011-.043-.012-.046-.015-.044-.014-.042-.017-.043-.017-.043-.019-.043-.019-.044-.022-.044h0L372.3,187.416l-.019-.036c-.012-.025-.026-.05-.04-.075l-.075-.118-.05-.069-.036-.047-.033-.04-.032-.039-.018-.019v0l-.014-.015-.036-.036-.036-.036-.039-.036-.039-.035-.039-.032-.037-.028-.037-.028-.037-.024-.036-.022-.008,0-.028-.017-.035-.018-.035-.017-.036-.014-.035-.014-.035-.011-.036-.01-.036-.008-.037-.006-.014,0h-.108l-.049.007a.369.369,0,0,0-.06.017.478.478,0,0,0-.072.032l-4.9,2.846a.467.467,0,0,1,.287-.054h0a.854.854,0,0,1,.326.115,1.516,1.516,0,0,1,.359.3v0a2.017,2.017,0,0,1,.3.444l15.242,30.344a1.923,1.923,0,0,1,.155.426h0a1.263,1.263,0,0,1,.032.372h0a.748.748,0,0,1-.078.288l0,.006a.458.458,0,0,1-.171.184l4.9-2.846a.438.438,0,0,0,.147-.143c.008-.012.015-.028.024-.042l0-.006.008-.014c.008-.018.015-.035.022-.054l.015-.044.012-.046.008-.042.006-.043,0-.039v-.007h0v-.072Z" transform="translate(-350.514 -186.555)"/><g transform="translate(0 2.845)"><path class="bc" d="M371.1,188.725a1.805,1.805,0,0,1,.664.743l15.242,30.344c.451.9.048,1.631-.67,1.216l-4.241-2.448L382,251.823l-22.266-12.856.094-33.243-4.1-2.366c-.728-.42-1.125-1.609-.661-1.985L370.433,188.7A.582.582,0,0,1,371.1,188.725Z" transform="translate(-354.869 -188.607)"/></g></g></g><g transform="translate(320.548 282.596)"><g transform="translate(0 18.647)"><path class="r" d="M252.612,242.9l44.05,44.964,42.782-11.123-44.05-44.964Z" transform="translate(-252.612 -231.776)"/><g transform="translate(21.989 9.553)"><g transform="translate(3.705)"><g transform="translate(1.272)"><path class="c" d="M292.387,242.989l-4.217,1.6a14.07,14.07,0,0,0-12.39-1.958c-.076.029-.148.06-.223.09l-3.5-2.879c.075-.031.15-.061.227-.089C278.336,237.46,287.283,238.915,292.387,242.989Z" transform="translate(-272.057 -238.665)"/></g><g transform="translate(17.913 4.773)"><path class="c" d="M288.281,242.107c4.092,3.621,3.855,7.962-.3,10.492l-3.607-2.968c1.907-1.567,1.862-3.914-.313-5.929Z" transform="translate(-284.057 -242.107)"/></g><g transform="translate(0 11.548)"><path class="aj" d="M292.409,251.03a12.626,12.626,0,0,1-1.39.623c-5.966,2.255-14.74.876-19.88-3.065l4.223-1.6a14.124,14.124,0,0,0,12.159,1.783,7.03,7.03,0,0,0,1.337-.666Z" transform="translate(-271.14 -246.992)"/></g></g><g transform="translate(0 1.441)"><path class="aj" d="M276.335,242.6c-2.957,1.542-3.22,4.411-.494,6.77l-4.217,1.6c-4.657-3.951-4.079-8.823,1.194-11.261Z" transform="translate(-268.468 -239.704)"/></g></g></g><g transform="translate(41.324 153.474)"><g transform="translate(0 95.165)"><path class="q" d="M284.012,400.173s-3.454,2.374-.216,7.987,6.045,2.159,13.384,7.772,9.929,6.691,13.815,6.26,6.261-2.374,6.909-4.533-1.3-5.829-1.3-5.829Z" transform="translate(-282.41 -396.634)"/><path class="p" d="M314.829,401.375s1.512,7.34,2.374,12.953c.216,2.591-3.238,6.116-8.2,5.9s-7.772-1.728-9.5-3.886-12.52-6.332-14.463-8.06-2.376-6.908-1.512-8.2a6.517,6.517,0,0,1,7.555-1.943c3.454,1.512,6.26,4.317,13.169,4.75S314.829,401.375,314.829,401.375Z" transform="translate(-282.142 -397.621)"/></g><g transform="translate(34.251 0.956)"><g transform="translate(0 75.5)"><path class="q" d="M308.71,386.682s-3.455,2.374-.216,7.987,6.045,2.159,13.384,7.772,9.931,6.693,13.817,6.26,6.26-2.374,6.908-4.533-1.3-5.827-1.3-5.827Z" transform="translate(-307.108 -383.143)"/><path class="p" d="M339.526,387.884s1.512,7.34,2.376,12.953c.215,2.591-3.238,6.117-8.2,5.9s-7.77-1.727-9.5-3.886-12.52-6.332-14.463-8.059-2.374-6.909-1.512-8.2a6.517,6.517,0,0,1,7.557-1.943c3.453,1.51,6.26,4.317,13.168,4.748S339.526,387.884,339.526,387.884Z" transform="translate(-306.84 -384.13)"/></g><path class="bd" d="M311.564,349.218c1.728,13.815,8.636,50.083,9.787,62.747,0,0,2.879,4.606,11.513,3.453l4.1-1.707a3.972,3.972,0,0,0,2.421-4.159c-.868-6.984-2.822-24.57-1.914-35.006,1.151-13.24-2.3-21.3-2.3-21.3.289-4.317.864-19.285-7.77-23.315,0,0-21.156-3.886-15.832,19.285" transform="translate(-305.717 -329.688)"/></g><path class="be" d="M338.518,336.532l-2.3,4.606s-35.4,1.727-44.9,12.089c0,0-6.332,1.151-4.606,14.968s8.634,50.081,9.787,62.746c0,0,2.878,4.606,11.513,3.454l4.1-1.707a3.972,3.972,0,0,0,2.421-4.159c-.868-6.984-2.822-24.57-1.915-35.006,1.152-13.24-2.3-21.3-2.3-21.3a180.953,180.953,0,0,1,32.237,9.787c16.693,6.908,31.085-1.151,37.417-4.605s8.634-5.757,8.634-5.757a26.326,26.326,0,0,0,15.543-6.332c7.483-6.332,8.636-23.026.576-32.812S338.518,336.532,338.518,336.532Z" transform="translate(-280.863 -328.999)"/></g><g transform="translate(97.465 50.195)"><path class="bf" d="M333.117,277.838s5.721-2.12,5.345-9.762c-1.736-7.525-3.836-8.032-3.836-8.032s8-7.394,17.657-5.065c0,0,5.962,12.1,12.706,17.279C364.988,272.259,359.6,286.474,333.117,277.838Z" transform="translate(-318.938 -254.526)"/><g transform="translate(0 9.209)"><path class="an" d="M347.4,279.525s21.156-17.7,25.474-18.134c5.18-.431,11.656,1.3,13.384,8.636a13.556,13.556,0,0,1-6.045,15.111c-3.886,2.159-37.993,18.565-44.038,18.565s-9.929-5.181-6.045-11.657S347.4,279.525,347.4,279.525Z" transform="translate(-320.698 -261.103)"/><path class="ao" d="M356.068,266.819s-22.451,7.483-28.783,17.845-5.181,21.875-.576,37.994-4.606,30.509-2.3,39.144,18.421,16.694,42.023,12.666,25.328-13.241,27.056-18.422-4.606-29.934,1.151-50.081S388.881,272,384.275,268.545,370.46,260.487,356.068,266.819Z" transform="translate(-322.893 -260.198)"/><path class="an" d="M383.98,268.545c-4.606-3.453-13.815-8.059-28.207-1.727,0,0-22.451,7.483-28.783,17.845a29.077,29.077,0,0,0-3.334,7.787c9.09-11.815,21.992-17,30.39,3.151,7.838,18.811-12.1,74.1-29.525,56.716-.734,3.626-1.118,6.83-.409,9.484,2.3,8.635,18.421,16.694,42.023,12.666s25.328-13.241,27.056-18.422-4.605-29.934,1.151-50.081S388.586,272,383.98,268.545Z" transform="translate(-322.598 -260.198)"/><path class="r" d="M331.353,277.573s6.044,3.886,21.156,1.727,15.974-12.953,14.679-13.815-3.886-4.319-3.886-4.319-15.974,7.34-21.587,9.5-8.636,3.453-8.636,3.453Z" transform="translate(-319.62 -261.166)"/></g></g><g transform="translate(96.931)"><path class="bg" d="M324.213,245.491s-1.3,15.542,6.909,25.9,16.406,4.317,21.587,1.727,7.339-6.908,9.067-19.428,1.727-24.61-7.34-28.5-19-4.748-24.609,4.75S324.213,245.491,324.213,245.491Z" transform="translate(-321.877 -216.739)"/><path class="bh" d="M330.888,228.517s-7.34,5.612-6.908,13.815-2.159,9.5-1.3,13.815,7.772,5.614,8.2,11.657,9.5,8.2,14.248,9.929,12.52-3.884,14.679-6.908,1.727-10.793,4.317-17.7,1.3-15.543-.864-21.587-6.476-7.34-6.476-7.34a10.527,10.527,0,0,0-7.339-5.612C344.272,217.722,328.3,218.586,330.888,228.517Z" transform="translate(-322.508 -218.331)"/></g><g transform="translate(65.788 97.824)"><g transform="translate(26.169 126.839)"><g transform="translate(0 15.556)"><path class="b" d="M401.466,410.176c-.784,8.712-8.982,14.628-16.378,17.815a62.874,62.874,0,0,1-25.652,4.76,61.044,61.044,0,0,1-26.07-5.779c-7.019-3.453-14.468-9.719-14.445-18.239-.017,6.2.417,11.332,4.888,16.176,5.757,6.236,14.423,9.6,22.574,11.277,15.905,3.284,37.56,1.7,49.642-10.547,4.861-4.926,5.525-10.118,5.543-16.671Q401.544,409.575,401.466,410.176Z" transform="translate(-318.921 -384.904)"/><g transform="translate(0)"><path class="c" d="M389.36,398.559c16.189,9.347,16.294,24.5.209,33.852s-42.271,9.347-58.46,0-16.256-24.5-.171-33.85S373.171,389.213,389.36,398.559Z" transform="translate(-318.921 -391.55)"/></g></g><g transform="translate(35.904)"><g transform="translate(6.361 3.672)"><path class="d" d="M355.819,382.98l-.1,36.123-6.319,3.672.1-36.122Z" transform="translate(-349.397 -382.98)"/></g><g transform="translate(0 3.673)"><path class="e" d="M351.274,386.653l-.1,36.122-6.361-3.672.1-36.123Z" transform="translate(-344.811 -382.98)"/></g><g transform="translate(0.102)"><path class="f" d="M357.565,384l-6.32,3.673L344.885,384l6.32-3.672Z" transform="translate(-344.885 -380.332)"/></g></g></g><path class="am" d="M448.578,296.047a7.429,7.429,0,0,0-9.879-6.752c-20.651,7.245-67.979,24.4-71.021,30.479-2.9,5.8-12.261,38.169-16.87,54.386a7.428,7.428,0,0,1-10.928,4.357l-28.607-16.87a7.438,7.438,0,0,0-11.115,7.63l4.593,27.557a7.442,7.442,0,0,0,3.632,5.227l30.608,17.583a58.853,58.853,0,0,0,55.64,1.607l23.6-11.8a58.857,58.857,0,0,0,32.5-54.8Z" transform="translate(-300.051 -288.87)"/><path class="g" d="M367.678,311.528c-2.9,5.8-12.261,38.169-16.87,54.386a7.428,7.428,0,0,1-10.928,4.357L311.273,353.4a7.438,7.438,0,0,0-11.115,7.63l4.593,27.557a7.362,7.362,0,0,0,.582,1.831q.547.861,1.105,1.717a7.372,7.372,0,0,0,1.944,1.679L338.991,411.4a58.784,58.784,0,0,0,20.7,7.181c24.828-19.264,21.7-99.679,12.695-106.431a12.435,12.435,0,0,0-3.546-1.96A4.86,4.86,0,0,0,367.678,311.528Z" transform="translate(-300.051 -280.624)"/></g><g transform="translate(21.704 53.265)"><path class="ao" d="M314.19,298.619s21.154-17.7,25.473-18.132c5.181-.433,11.656,1.3,13.384,8.634A13.554,13.554,0,0,1,347,304.231c-3.886,2.159-37.993,18.565-44.038,18.565s-9.929-5.181-6.044-11.656S314.19,298.619,314.19,298.619Z" transform="translate(-257.781 -247.578)"/><path class="bg" d="M294.88,279.717a15.535,15.535,0,0,1-1.3-3.669c-.215-1.512.648-3.454-.215-6.908s-2.376-6.476-3.023-8.851c-1.727-2.159-3.238,1.727-1.943,4.965s.864,5.181-.431,5.4-6.691-3.022-8.2-4.748-10.146-10.146-11.01-9.067-.864,2.159,2.159,5.4,4.1,4.748,4.317,5.612a14.3,14.3,0,0,0,1.079,4.317c1.08,2.591.216,4.317,2.159,6.691s5.612,2.807,7.339,4.319l1.728,1.51Z" transform="translate(-268.263 -256.739)"/><path class="ao" d="M308.75,326.073s-9.067,1.728-13.959-8.347-13.24-37.13-14.391-39.719c0,0,2.878-6.332,10.074-6.045,0,0,8.059,15.83,12.664,23.026S324.149,323.2,308.75,326.073Z" transform="translate(-263.568 -250.855)"/></g></g><g transform="translate(110.339 221.115)"><g transform="translate(88.089 3.234)"><path class="m" d="M204.711,191.448s2.814-1.79,4.478-1.279A72.718,72.718,0,0,0,218.4,191.7c1.792.128,5.372-3.07,6.012-3.582s1.023-1.663,1.792-2.43,1.151-.639,1.151-2.047,1.406-2.686,2.047-3.326,3.2-2.174,2.941-3.326-1.535-.512-2.3-.257-3.71,2.943-4.988,3.71a15.925,15.925,0,0,1-5.884,1.919,12.639,12.639,0,0,1-2.943-.384s-.383,0,1.151-.512,2.431-.128,3.71-.384,1.919-1.022,1.792-1.663-1.792-.639-2.431-.639a50.441,50.441,0,0,1-6.012-.128c-1.535-.255-4.092,2.3-4.6,2.814s-3.2,1.279-4.606,1.408S204.711,191.448,204.711,191.448Z" transform="translate(-149.128 -176.33)"/><path class="h" d="M165.088,189.244s2.677,8.833,13.871,8.493,39.034-5.5,41.863-5.679c0,0,4.274-5.488.681-11.728,0,0-17.763.205-26.274-.537S160.494,174.267,165.088,189.244Z" transform="translate(-164.553 -175.497)"/></g><path class="h" d="M130.405,208.665s-4.679-27.185-7.691-30.308c-3.671-3.681-9.727-6.554-15.793-2.075a13.558,13.558,0,0,0-5.167,15.434c1.566,4.159,16.959,38.736,21.567,42.647s10.924,2.474,12.151-4.979S130.405,208.665,130.405,208.665Z" transform="translate(-101.033 -173.998)"/><path class="m" d="M156.414,209.616s3.671.216,4.965.216,11.226-.864,12.953-.864,1.727,1.943,1.727,1.943,1.728,2.805,1.728,3.886a10.7,10.7,0,0,0,.431,3.669c.431,1.079-.216,1.943-.648,2.807s-1.512,1.3-2.591,1.943a3.487,3.487,0,0,1-3.238.215c-.863-.431-.863-.648.216-1.3a11.481,11.481,0,0,0,1.943-1.51,5.925,5.925,0,0,1-3.238,1.51c-1.943.216-4.965.216-6.693-.648l-4.748-2.374-3.454-.431Z" transform="translate(-79.862 -160.471)"/><path class="h" d="M116.729,217.886s2.677,8.832,13.871,8.493,39.034-5.5,41.863-5.68c0,0,4.274-5.488.681-11.728,0,0-17.763.205-26.274-.535S112.135,202.909,116.729,217.886Z" transform="translate(-95.169 -161.184)"/></g></g></svg>