<svg xmlns="http://www.w3.org/2000/svg" xmlns:xlink="http://www.w3.org/1999/xlink" width="160.652" height="36.379" viewBox="0 0 160.652 36.379"><defs><style>.a{fill:#90218a;}.b{fill:#11044c;}.c{fill:#29abe2;}.d{fill:url(#a);}</style><linearGradient id="a" x1="-674.439" y1="-474.336" x2="1081.859" y2="760.806" gradientUnits="objectBoundingBox"><stop offset="0" stop-color="#29abe2"/><stop offset="1" stop-color="#ed1e79"/></linearGradient></defs><g transform="translate(-229.651 -240.689)"><g transform="translate(326.345 269.811)"><g transform="translate(0 0)"><path class="a" d="M575.552,341.853l-1.774,4.861-1.746-4.861h-1.494l-1.733,4.861-1.747-4.861h-1.507l2.633,7.257h1.268l1.846-5.129,1.86,5.129h1.255l2.649-7.257Z" transform="translate(-565.551 -341.853)"/></g><g transform="translate(12.991 0)"><path class="a" d="M617.514,341.853h-4.791a2.11,2.11,0,0,0-2.042,2.241v5.017h1.408v-5.017c0-.492.226-.831.634-.831h4.791c.395,0,.648.339.648.831v1.155h-5.017v1.408h5.017v2.453h1.41v-5.017A2.131,2.131,0,0,0,617.514,341.853Z" transform="translate(-610.681 -341.853)"/></g><g transform="translate(24.137 0)"><path class="a" d="M653.372,345.488l3.593-3.635h-1.959l-3.563,3.635,3.8,3.622H657.2Zm-3.974-3.635v7.257h1.411v-7.257Z" transform="translate(-649.398 -341.853)"/></g><g transform="translate(33.705 0)"><path class="a" d="M685.1,344.771v1.408h4.874v-1.408Zm5.269-1.508v-1.41h-7.736v7.257h7.736V347.7h-6.325v-4.437Z" transform="translate(-682.636 -341.853)"/></g><g transform="translate(43.697 0)"><path class="a" d="M725.533,345.432a1.881,1.881,0,0,0,.747-1.578,1.94,1.94,0,0,0-2.029-2h-6.9v7.257h7.029a1.958,1.958,0,0,0,2.042-2A1.843,1.843,0,0,0,725.533,345.432Zm-1.156,2.268h-5.621v-4.437h5.495c.366,0,.618.266.618.774s-.253.733-.618.733h-4.439v1.408h4.565c.381,0,.634.239.634.76S724.759,347.7,724.377,347.7Z" transform="translate(-717.348 -341.853)"/></g></g><g transform="translate(305.859 240.795)"><g transform="translate(0 11.403)"><path class="b" d="M504.188,295.8v5.921h6.043V295.8Zm16.724-6.912a1.661,1.661,0,0,1-.941-3.031v-5.186h-6.046v7.388H500.43v-7.388h-6.043v13.617H521.71v-5.606A1.647,1.647,0,0,1,520.911,288.885Z" transform="translate(-494.387 -280.668)"/></g><g transform="translate(25.583 8.259)"><path class="b" d="M591.2,272.77v-3.022h-6.167v8.259a1.645,1.645,0,0,1,.632.647h24.509a1.662,1.662,0,1,1,.007,1.6H585.656a1.661,1.661,0,0,1-2.4.564v5.693h35.6V272.77Z" transform="translate(-583.26 -269.748)"/></g><g transform="translate(63.059 0)"><path class="b" d="M713.444,241.057v25.035h6.043V241.057Z" transform="translate(-713.444 -241.057)"/></g><g transform="translate(70.797 11.556)"><path class="b" d="M753.957,294.77V281.2H740.325l.016.122V294.7h5.919v-5.17a1.663,1.663,0,1,1,1.58,0v12.526h6.134v-3.4Z" transform="translate(-740.325 -281.201)"/></g></g><g transform="translate(229.651 240.689)"><g transform="translate(0 0)"><path class="b" d="M260.194,269.826l-5.35-8.465-.129-.2-6.567-10.317-2.913-4.579h-5.021a1.661,1.661,0,1,1,0-1.579h4.015l-2.541-3.994H229.651l6.461,10.152,2.044,3.211h5.224a1.662,1.662,0,0,1,3.125.79,1.635,1.635,0,0,1-.214.815l7.332,11.6a1.662,1.662,0,1,1-1.336.844l-7.332-11.6a.989.989,0,0,1-.113.007,1.662,1.662,0,0,1-1.462-.873h-4.22l13.355,20.984H256.7l3.475-5.2A1.663,1.663,0,0,1,260.194,269.826Z" transform="translate(-229.651 -240.689)"/><path class="b" d="M341.124,315.009l-4.965,7.8H330.2l2.891-4.321a1.629,1.629,0,0,0,1.043-.248,1.662,1.662,0,0,0-1-3.064l-2.071-3.274,4.039-6.345Z" transform="translate(-301.258 -286.884)"/></g></g><g transform="translate(255.995 240.689)"><g transform="translate(0 0)"><path class="c" d="M377.586,281.437l2.229,3.5-2.4,3.773-4.371-7.228-.029-.05Z" transform="translate(-358.089 -269.707)"/><path class="c" d="M329.421,246.177l-2.561,3.457-5.693-8.945H346.3l-2.1,3.132a1.654,1.654,0,0,0-1.537.729,1.525,1.525,0,0,0-.081.133h-10.2a1.663,1.663,0,0,0-3.126.79A1.634,1.634,0,0,0,329.421,246.177Z" transform="translate(-321.166 -240.689)"/><path class="c" d="M349.353,251.629a1.663,1.663,0,0,0,1.663,1.663.51.51,0,0,0,.081,0l4.775,7.9-2.667,4.19-6.018-9.451-3.092-4.861,2.925-3.945a1.587,1.587,0,0,0,.235.018,1.662,1.662,0,0,0,1.462-.873h10.2a1.663,1.663,0,0,0,2.934-1.566l2.683-4.008h4.384l-6.459,10.15h-9.976a1.662,1.662,0,0,0-3.126.79Z" transform="translate(-337.495 -240.689)"/></g></g><g transform="translate(269.128 240.689)"><g transform="translate(0 0)"><path class="a" d="M394.148,260.051a1.655,1.655,0,0,1-1.46.873c-.047,0-.095,0-.142-.007l-2.43,3.707a1.665,1.665,0,0,1-2.929,1.582h-5l-4.515,7.1-6.018,9.457-4.866,7.641h5.227l10.773-16.929a1.663,1.663,0,1,1,1.331.848L373.888,290.4h4.937l4.865-7.641,11.538-18.134,2.913-4.579Z" transform="translate(-366.789 -254.477)"/><path class="a" d="M442.275,240.689l-2.541,3.994h-5a1.662,1.662,0,1,0-2.922,1.582l-2.432,3.705a1.665,1.665,0,0,0-1.532.745,1.431,1.431,0,0,0-.075.124H423.78l6.459-10.15Z" transform="translate(-407.374 -240.689)"/></g></g><g transform="translate(270.92 252.419)"><path class="d" d="M373.073,281.437a.306.306,0,0,1-.029.049l-.029-.049Z" transform="translate(-373.014 -281.437)"/></g></g></svg>