<svg xmlns="http://www.w3.org/2000/svg" width="75.827" height="73.885" viewBox="0 0 75.827 73.885"><defs><style>.a{fill:#90218a;}.b{fill:#29abe2;}.c{fill:#7f7a97;}.d{fill:#11044c;}</style></defs><g transform="translate(0 -6.558)"><path class="a" d="M129.4,90.466a3.707,3.707,0,1,0-2.958-1.479l-6.083,8.5a3.692,3.692,0,0,0-3.673.809L112.634,96a3.7,3.7,0,1,0-7.239,0l-4.055,2.3a3.7,3.7,0,1,0,1.1,1.931l4.055-2.3a3.693,3.693,0,0,0,5.04,0l4.055,2.3a3.7,3.7,0,1,0,6.578-1.445l6.083-8.5A3.691,3.691,0,0,0,129.4,90.466Zm0-5.184a1.481,1.481,0,1,1-1.481,1.481A1.483,1.483,0,0,1,129.4,85.283Zm-30.584,17.2a1.481,1.481,0,1,1,1.481-1.481A1.483,1.483,0,0,1,98.82,102.487ZM109.015,96.7a1.481,1.481,0,1,1,1.481-1.481A1.483,1.483,0,0,1,109.015,96.7Zm10.195,5.789a1.481,1.481,0,1,1,1.481-1.481A1.483,1.483,0,0,1,119.209,102.487Z" transform="translate(-81.031 -65.173)"/><path class="b" d="M62.024,90H3.142a.921.921,0,0,1-.92-.92V43.258a.921.921,0,0,1,.92-.92H8.378a1.111,1.111,0,1,0,0-2.222H3.142A3.146,3.146,0,0,0,0,43.258V89.083a3.146,3.146,0,0,0,3.142,3.142H10.8V94.67A2.528,2.528,0,0,0,13.326,97.2H24.445l-5.234,10.219a1.111,1.111,0,1,0,1.977,1.013L26.941,97.2H39.221l5.753,11.231a1.111,1.111,0,1,0,1.977-1.013L41.717,97.2H52.836a2.528,2.528,0,0,0,2.526-2.526V92.225h6.662a1.111,1.111,0,1,0,0-2.222ZM53.14,94.67a.3.3,0,0,1-.3.3H13.326a.3.3,0,0,1-.3-.3V92.225H53.14Z" transform="translate(0 -28.588)"/><path class="b" d="M80.182,13.749h50.2a.921.921,0,0,1,.92.92V25.231a1.111,1.111,0,1,0,2.221,0V14.67a3.145,3.145,0,0,0-3.142-3.142H106.606V9.345a2.79,2.79,0,0,0-2.787-2.787H97.064a2.79,2.79,0,0,0-2.787,2.787v2.183h-14.1a1.111,1.111,0,0,0,0,2.222ZM96.5,9.345a.566.566,0,0,1,.565-.565h6.756a.566.566,0,0,1,.565.565v2.183H96.5V9.345Z" transform="translate(-67.361)"/><path class="c" d="M98.513,267.576a1.111,1.111,0,0,0-1.111,1.111V278.5a1.111,1.111,0,0,0,1.111,1.111h4.506a1.111,1.111,0,0,0,1.111-1.111v-9.815a1.111,1.111,0,0,0-1.111-1.111Zm3.4,9.815H99.624V269.8h2.285Z" transform="translate(-82.977 -222.361)"/><path class="d" d="M167.348,229.248a1.111,1.111,0,0,0-1.111,1.111V245.85a1.111,1.111,0,0,0,1.111,1.111h4.506a1.111,1.111,0,0,0,1.111-1.111V230.359a1.111,1.111,0,0,0-1.111-1.111Zm3.4,15.491h-2.285v-13.27h2.285Z" transform="translate(-141.617 -189.71)"/><path class="c" d="M236.184,267.576a1.111,1.111,0,0,0-1.111,1.111V278.5a1.111,1.111,0,0,0,1.111,1.111h4.506A1.111,1.111,0,0,0,241.8,278.5v-9.815a1.111,1.111,0,0,0-1.111-1.111Zm3.4,9.815h-2.285V269.8h2.285Z" transform="translate(-200.259 -222.361)"/><path class="c" d="M305.02,311.832a1.111,1.111,0,0,0-1.111,1.111V316.2a1.111,1.111,0,0,0,1.111,1.111h4.506a1.111,1.111,0,0,0,0-2.222h-3.4v-2.15A1.111,1.111,0,0,0,305.02,311.832Z" transform="translate(-258.9 -260.063)"/><path class="a" d="M327.025,179.951l-6.372-11.037a14.525,14.525,0,1,0-14.363,4.1,14.6,14.6,0,0,0,3.781.5,14.336,14.336,0,0,0,3.27-.378l6.371,11.038a4.222,4.222,0,1,0,7.313-4.222Zm-20.16-9.084a12.3,12.3,0,1,1,9.33-1.229A12.217,12.217,0,0,1,306.865,170.867Zm17.5,12.928a2,2,0,0,1-2.733-.732l-6.13-10.619a14.58,14.58,0,0,0,3.464-2l6.131,10.62a2,2,0,0,1-.732,2.733Z" transform="translate(-251.764 -117.491)"/><path class="a" d="M342.922,184.922a10.512,10.512,0,0,0-.526-7.615,1.111,1.111,0,1,0-2.01.947,8.32,8.32,0,1,1-2.508-3.1,1.111,1.111,0,1,0,1.34-1.771,10.548,10.548,0,1,0,3.7,11.539Z" transform="translate(-274.567 -140.294)"/></g></svg>