<svg xmlns="http://www.w3.org/2000/svg" width="83.669" height="74" viewBox="0 0 83.669 74"><defs><style>.a{fill:#29abe2;}.b{fill:#90218a;}.c{fill:#7f7a97;}</style></defs><g transform="translate(0 -0.5)"><path class="a" d="M236.789,48.6H223.7l7.818-8.7a2.431,2.431,0,0,0-.184-3.435l-3.362-3.019a2.434,2.434,0,0,0-3.434.184L211.084,48.6H187.675a1.226,1.226,0,1,0,0,2.451h21.207l-5.468,6.087a2.418,2.418,0,0,0-.619,1.755c0,.077.012.152.023.227L200.939,64.2a1.948,1.948,0,0,0,2.7,2.422l4.856-2.414c.031,0,.061,0,.092,0s.088,0,.133,0a2.418,2.418,0,0,0,1.679-.8l11.1-12.357h15.294a.409.409,0,0,1,.409.409V98.675a.409.409,0,0,1-.409.409h-8.916a1.226,1.226,0,1,0,0,2.451h8.916a2.863,2.863,0,0,0,2.86-2.86V51.455a2.863,2.863,0,0,0-2.86-2.86Zm-7.11-10.327-1.456,1.62-3.333-2.994,1.456-1.621Zm-6.427.45.755.678-18,20.039-.755-.679Zm-18.68,22.724,1.416,1.272-2.311,1.148Zm4.013.31-.755-.678,18-20.039.755.678Zm0,0" transform="translate(-155.981 -27.035)"/><path class="a" d="M66.555,72.049H11.43A8.989,8.989,0,0,1,2.451,63.07v-.648a8.988,8.988,0,0,1,8.978-8.978h2.519a2.863,2.863,0,0,0,2.86-2.86V24.011h9.549a1.226,1.226,0,0,0,0-2.451H16.808V17.3a1.226,1.226,0,0,0-2.451,0v33.28a.409.409,0,0,1-.409.409H11.429a11.415,11.415,0,0,0-8.978,4.364V11.93A8.989,8.989,0,0,1,11.43,2.951h2.518a.409.409,0,0,1,.409.409v8.607a1.226,1.226,0,1,0,2.451,0V3.36A2.863,2.863,0,0,0,13.948.5H11.43A11.443,11.443,0,0,0,0,11.93V63.07A11.443,11.443,0,0,0,11.43,74.5H66.555a1.226,1.226,0,1,0,0-2.451Zm0,0"/><path class="b" d="M316.886,208.555a9.435,9.435,0,0,0-9.405,8.858h-5.642a1.226,1.226,0,0,0-1.226,1.226v14a1.226,1.226,0,0,0,1.226,1.226h14a1.225,1.225,0,0,0,1.226-1.226V227.4a9.423,9.423,0,0,0-.178-18.844Zm-2.272,16.015a7,7,0,0,1-4.439-4.706h4.439Zm-11.549,6.843V219.864h4.588a9.454,9.454,0,0,0,6.962,7.26v4.288Zm14-6.465v-6.309a1.226,1.226,0,0,0-1.226-1.226h-5.9a6.972,6.972,0,1,1,7.126,7.535Zm0,0" transform="translate(-251.489 -174.056)"/><path class="c" d="M421.785,329.078a1.226,1.226,0,1,0,0,2.451h2.726a1.226,1.226,0,1,0,0-2.451Zm0,0" transform="translate(-351.834 -274.883)"/><path class="c" d="M425.736,349.66a1.226,1.226,0,0,0-1.226-1.226h-2.726a1.226,1.226,0,0,0,0,2.451h2.726A1.225,1.225,0,0,0,425.736,349.66Zm0,0" transform="translate(-351.833 -291.076)"/><path class="c" d="M130.726,193.017h1.961a1.226,1.226,0,1,0,0-2.451h-1.961a1.226,1.226,0,1,0,0,2.451Zm0,0" transform="translate(-108.338 -159.006)"/><path class="c" d="M130.726,214.869h9.461a1.226,1.226,0,0,0,0-2.451h-9.461a1.226,1.226,0,1,0,0,2.451Zm0,0" transform="translate(-108.338 -177.287)"/><path class="c" d="M176.621,193.017h1.961a1.226,1.226,0,1,0,0-2.451h-1.961a1.226,1.226,0,1,0,0,2.451Zm0,0" transform="translate(-146.733 -159.006)"/><path class="c" d="M224.476,190.566h-1.961a1.226,1.226,0,1,0,0,2.451h1.961a1.226,1.226,0,1,0,0-2.451Zm0,0" transform="translate(-185.127 -159.006)"/><path class="b" d="M130.726,236.556h9.461a1.226,1.226,0,0,0,0-2.451h-9.461a1.226,1.226,0,1,0,0,2.451Zm0,0" transform="translate(-108.338 -195.43)"/><path class="b" d="M129.5,257.015a1.226,1.226,0,0,0,1.226,1.226h15a1.226,1.226,0,0,0,0-2.451h-15A1.226,1.226,0,0,0,129.5,257.015Zm0,0" transform="translate(-108.338 -213.571)"/><path class="c" d="M148.912,278.7a1.225,1.225,0,0,0-1.226-1.226H130.726a1.226,1.226,0,1,0,0,2.451h16.961A1.225,1.225,0,0,0,148.912,278.7Zm0,0" transform="translate(-108.338 -231.715)"/><path class="b" d="M135.329,313.644a1.226,1.226,0,0,0-1.226-1.226h-3.377a1.226,1.226,0,0,0-1.226,1.226v3.377a1.226,1.226,0,0,0,1.226,1.226H134.1a1.226,1.226,0,0,0,1.226-1.226Zm-2.451,2.152h-.926v-.926h.926Zm0,0" transform="translate(-108.338 -260.946)"/><path class="b" d="M184.915,313.644a1.226,1.226,0,0,0-1.226-1.226h-3.377a1.226,1.226,0,0,0-1.226,1.226v3.377a1.226,1.226,0,0,0,1.226,1.226h3.377a1.226,1.226,0,0,0,1.226-1.226Zm-2.451,2.152h-.926v-.926h.926Zm0,0" transform="translate(-149.821 -260.946)"/><path class="c" d="M234.5,313.644a1.226,1.226,0,0,0-1.226-1.226H229.9a1.225,1.225,0,0,0-1.226,1.226v3.377a1.225,1.225,0,0,0,1.226,1.226h3.377a1.226,1.226,0,0,0,1.226-1.226Zm-2.451,2.152h-.926v-.926h.926Zm0,0" transform="translate(-191.307 -260.946)"/><path class="c" d="M134.1,365.086h-3.377a1.225,1.225,0,0,0-1.226,1.226v3.377a1.226,1.226,0,0,0,1.226,1.226H134.1a1.226,1.226,0,0,0,1.226-1.226v-3.377A1.226,1.226,0,0,0,134.1,365.086Zm-1.226,3.377h-.926v-.926h.926Zm0,0" transform="translate(-108.338 -305.007)"/><path class="c" d="M183.689,365.086h-3.377a1.225,1.225,0,0,0-1.226,1.226v3.377a1.226,1.226,0,0,0,1.226,1.226h3.377a1.226,1.226,0,0,0,1.226-1.226v-3.377A1.226,1.226,0,0,0,183.689,365.086Zm-1.226,3.377h-.926v-.926h.926Zm0,0" transform="translate(-149.821 -305.007)"/><path class="c" d="M229.9,370.911h3.377a1.226,1.226,0,0,0,1.226-1.226v-3.377a1.226,1.226,0,0,0-1.226-1.226H229.9a1.226,1.226,0,0,0-1.226,1.226v3.377A1.225,1.225,0,0,0,229.9,370.911Zm1.226-3.377h.926v.926h-.926Zm0,0" transform="translate(-191.307 -305.004)"/></g></svg>