<svg xmlns="http://www.w3.org/2000/svg" width="74.08" height="74" viewBox="0 0 74.08 74"><defs><style>.a{fill:#90218a;}.b{fill:#7f7a97;}.c{fill:#11044c;}.d{fill:#29abe2;}</style></defs><g transform="translate(0.001 -0.5)"><path class="a" d="M36.99,135.92a1.084,1.084,0,1,0,1.533-1.533l-2.633-2.633,2.633-2.632a1.084,1.084,0,0,0-1.533-1.533l-3.4,3.4a1.084,1.084,0,0,0,0,1.533Zm0,0" transform="translate(-28.459 -108.428)"/><path class="a" d="M115.881,131.75l-2.633,2.633a1.084,1.084,0,1,0,1.533,1.533l3.4-3.4a1.084,1.084,0,0,0,0-1.533l-3.4-3.4a1.084,1.084,0,1,0-1.533,1.533Zm0,0" transform="translate(-96.592 -108.425)"/><path class="a" d="M77.105,136.157a1.084,1.084,0,0,0,1.406-.613l2.671-6.8a1.084,1.084,0,1,0-2.018-.793l-2.671,6.8a1.084,1.084,0,0,0,.613,1.406Zm0,0" transform="translate(-65.361 -108.424)"/><path class="b" d="M38.6,220.383h7.3a1.084,1.084,0,0,0,0-2.169H38.6a1.084,1.084,0,0,0,0,2.169Zm0,0" transform="translate(-32.088 -186.214)"/><path class="b" d="M129.437,218.215H116.6a1.084,1.084,0,0,0,0,2.169h12.841a1.084,1.084,0,1,0,0-2.169Zm0,0" transform="translate(-98.799 -186.214)"/><path class="b" d="M38.6,251.989h3.111a1.084,1.084,0,0,0,0-2.169H38.6a1.084,1.084,0,0,0,0,2.169Zm0,0" transform="translate(-32.088 -213.247)"/><path class="b" d="M177.932,249.82a1.084,1.084,0,0,0,0,2.169h1.895a1.084,1.084,0,1,0,0-2.169Zm0,0" transform="translate(-151.26 -213.246)"/><path class="b" d="M96.787,250.9a1.084,1.084,0,0,0-1.084-1.084H86.4a1.084,1.084,0,0,0,0,2.169H95.7A1.084,1.084,0,0,0,96.787,250.9Zm0,0" transform="translate(-72.969 -213.247)"/><path class="b" d="M213.7,250.9a1.084,1.084,0,0,0,1.084,1.085h3.549a1.084,1.084,0,1,0,0-2.169h-3.549A1.084,1.084,0,0,0,213.7,250.9Zm0,0" transform="translate(-182.783 -213.247)"/><path class="a" d="M166.484,151.446h3.743a1.084,1.084,0,1,0,0-2.169h-3.743a1.084,1.084,0,1,0,0,2.169Zm0,0" transform="translate(-141.468 -127.251)"/><path class="a" d="M221.331,151.446h22.84a1.084,1.084,0,0,0,0-2.169H221.33a1.084,1.084,0,1,0,0,2.169Zm0,0" transform="translate(-188.379 -127.251)"/><path class="b" d="M300.52,182.246h-9.252a1.084,1.084,0,0,0,0,2.169h9.252a1.084,1.084,0,0,0,0-2.169Zm0,0" transform="translate(-248.198 -155.45)"/><path class="b" d="M248.491,182.246h-3.18a1.084,1.084,0,0,0,0,2.169h3.18a1.084,1.084,0,0,0,0-2.169Zm0,0" transform="translate(-208.89 -155.45)"/><path class="a" d="M166.484,184.414h7.791a1.084,1.084,0,0,0,0-2.169h-7.791a1.084,1.084,0,1,0,0,2.169Zm0,0" transform="translate(-141.468 -155.449)"/><path class="b" d="M107.634,281.16h-7.3a1.084,1.084,0,1,0,0,2.168h7.3a1.084,1.084,0,1,0,0-2.168Zm0,0" transform="translate(-84.887 -240.052)"/><path class="b" d="M44.211,281.16H38.6a1.084,1.084,0,1,0,0,2.168h5.611a1.084,1.084,0,1,0,0-2.168Zm0,0" transform="translate(-32.088 -240.052)"/><path class="b" d="M185.914,281.16h-9.541a1.084,1.084,0,1,0,0,2.168h9.541a1.084,1.084,0,1,0,0-2.168Zm0,0" transform="translate(-149.928 -240.052)"/><path class="c" d="M300.648,242.668h-5.217a1.084,1.084,0,0,0,0,2.169h5.217a1.084,1.084,0,0,0,0-2.169Zm0,0" transform="translate(-251.759 -207.129)"/><path class="c" d="M394.061,244.836h7.365a1.084,1.084,0,1,0,0-2.169h-7.365a1.084,1.084,0,0,0,0,2.169Zm0,0" transform="translate(-336.118 -207.129)"/><path class="c" d="M358.628,242.668H356.94a1.084,1.084,0,1,0,0,2.169h1.688a1.084,1.084,0,0,0,0-2.169Zm0,0" transform="translate(-304.368 -207.129)"/><path class="c" d="M295.432,326.5h5.217a1.084,1.084,0,0,0,0-2.168h-5.217a1.084,1.084,0,0,0,0,2.168Zm0,0" transform="translate(-251.76 -276.975)"/><path class="c" d="M394.061,326.5h7.365a1.084,1.084,0,1,0,0-2.168h-7.365a1.084,1.084,0,0,0,0,2.168Zm0,0" transform="translate(-336.118 -276.975)"/><path class="c" d="M356.944,326.5h1.688a1.084,1.084,0,1,0,0-2.168h-1.688a1.084,1.084,0,0,0,0,2.168Zm0,0" transform="translate(-304.371 -276.975)"/><path class="c" d="M300.648,405.988h-5.217a1.084,1.084,0,0,0,0,2.168h5.217a1.084,1.084,0,1,0,0-2.168Zm0,0" transform="translate(-251.759 -346.819)"/><path class="c" d="M401.426,405.988h-7.365a1.084,1.084,0,1,0,0,2.168h7.365a1.084,1.084,0,1,0,0-2.168Zm0,0" transform="translate(-336.118 -346.819)"/><path class="c" d="M358.628,405.988H356.94a1.084,1.084,0,1,0,0,2.168h1.688a1.084,1.084,0,0,0,0-2.168Zm0,0" transform="translate(-304.368 -346.819)"/><path class="d" d="M69.309.5H4.771A4.777,4.777,0,0,0,0,5.272V57.731A4.777,4.777,0,0,0,4.771,62.5h4.08a1.084,1.084,0,1,0,0-2.168H4.771a2.606,2.606,0,0,1-2.6-2.6V53.618h39.5v1.869h-.86a2.134,2.134,0,0,0-2.132,2.132v2.715H15.443a1.084,1.084,0,1,0,0,2.168H25.868v3.889H22.594a3.965,3.965,0,0,0-3.96,3.96v2.342A1.809,1.809,0,0,0,20.441,74.5H53.556a1.809,1.809,0,0,0,1.807-1.807V70.351a3.965,3.965,0,0,0-3.96-3.96H48.129V65.02H68.173A2.134,2.134,0,0,0,70.3,62.888v-.51A4.778,4.778,0,0,0,74,57.731l.082-52.46A4.776,4.776,0,0,0,69.309.5ZM40.844,51.037v-5.2H68.136v5.2Zm2.992-7.366V41.39H65.144v2.281ZM65.144,53.2v2.282H43.836V53.2ZM28.036,62.5h10.64v.386a2.134,2.134,0,0,0,2.132,2.132h5.153v1.371H28.036ZM51.4,68.559A1.794,1.794,0,0,1,53.2,70.351v1.981H20.8V70.351a1.794,1.794,0,0,1,1.792-1.792Zm16.733-5.708H40.844v-5.2H68.136Zm3.693-5.121A2.6,2.6,0,0,1,70.3,60.1V57.618a2.135,2.135,0,0,0-2.132-2.132h-.86V53.618h4.516Zm0-6.281h-1.56c.022-.123.036-5.646.036-5.646a2.135,2.135,0,0,0-2.132-2.132h-.86V41.39h.86A2.135,2.135,0,0,0,70.3,39.258V33.988a2.135,2.135,0,0,0-2.132-2.132H62.049a1.084,1.084,0,0,0,0,2.169h6.088v5.2H40.844v-5.2H55.3a1.084,1.084,0,0,0,0-2.169H40.808a2.135,2.135,0,0,0-2.132,2.132v5.269a2.135,2.135,0,0,0,2.132,2.132h.86v2.281h-.86A2.135,2.135,0,0,0,38.675,45.8s.014,5.524.036,5.646H2.168v-36.2H71.829Zm0-38.371H2.248V5.271a2.606,2.606,0,0,1,2.6-2.6H69.226a2.606,2.606,0,0,1,2.6,2.6Zm0,0"/><path class="a" d="M36.455,29.262a3.182,3.182,0,1,0,3.182,3.181A3.185,3.185,0,0,0,36.455,29.262Zm0,4.195a1.013,1.013,0,1,1,1.013-1.013A1.015,1.015,0,0,1,36.455,33.457Zm0,0" transform="translate(-28.46 -24.6)"/><path class="c" d="M92.44,29.262a3.182,3.182,0,1,0,3.181,3.181A3.185,3.185,0,0,0,92.44,29.262Zm0,4.195a1.013,1.013,0,1,1,1.013-1.013A1.014,1.014,0,0,1,92.44,33.457Zm0,0" transform="translate(-76.344 -24.6)"/><path class="c" d="M148.427,29.262a3.182,3.182,0,1,0,3.182,3.181A3.185,3.185,0,0,0,148.427,29.262Zm0,4.195a1.013,1.013,0,1,1,1.013-1.013A1.015,1.015,0,0,1,148.427,33.457Zm0,0" transform="translate(-124.231 -24.6)"/></g></svg>