<svg xmlns="http://www.w3.org/2000/svg" width="127.889" height="163.289" viewBox="0 0 127.889 163.289">
  <g id="Group_302" data-name="Group 302" transform="translate(0 0)">
    <g id="Group_300" data-name="Group 300" transform="translate(0)">
      <g id="Group_295" data-name="Group 295" transform="translate(10.071 3.088)">
        <path id="Path_1858" data-name="Path 1858" d="M256.225,242.152c-31.466-18.166-57.066-62.506-57.066-98.839,0-27.752,15.194-43.914,37.808-40.217a47.81,47.81,0,0,1,7.1,1.751,5.03,5.03,0,0,1,2.829,3.734c.278,1.642-.536,2.634-1.819,2.215a43.761,43.761,0,0,0-6.5-1.6c-20.73-3.389-34.657,11.427-34.657,36.867,0,33.305,23.467,73.95,52.31,90.6s52.311,3.105,52.311-30.2c0-1.517,1.065-2.132,2.377-1.373a5.255,5.255,0,0,1,2.379,4.117C313.292,245.541,287.691,260.319,256.225,242.152Z" transform="translate(-199.159 -102.572)" fill="#79d6fe"/>
      </g>
      <g id="Group_296" data-name="Group 296" opacity="0.3">
        <path id="Path_1859" data-name="Path 1859" d="M271.035,254.7C234.016,233.326,203.9,181.162,203.9,138.418c0-16.057,4.215-29.03,12.188-37.513.755-.8,2.239-.246,3.312,1.247s1.334,3.353.578,4.158c-7.408,7.88-11.322,19.933-11.322,34.854,0,39.718,27.985,88.186,62.38,108.045,17.306,9.992,33.983,11.211,45.756,3.348.892-.6,2.4.2,3.36,1.793s1.019,3.357.126,3.954C307.608,266.766,289.661,265.453,271.035,254.7Z" transform="translate(-203.899 -100.537)" fill="#79d6fe"/>
      </g>
      <g id="Group_297" data-name="Group 297" transform="translate(76.726 18.986)">
        <path id="Path_1860" data-name="Path 1860" d="M236.113,139.174a4.52,4.52,0,0,1-1.338-1.252,117.538,117.538,0,0,0-9.13-11.019,101.4,101.4,0,0,0-8.877-8.4,5.009,5.009,0,0,1-1.8-4.319c.285-1.314,1.56-1.51,2.839-.443a111,111,0,0,1,9.69,9.172,128.812,128.812,0,0,1,9.961,12.025c1.085,1.481,1.364,3.351.624,4.175A1.513,1.513,0,0,1,236.113,139.174Z" transform="translate(-214.908 -113.051)" fill="#79d6fe"/>
      </g>
      <g id="Group_298" data-name="Group 298" transform="translate(106.384 57.512)">
        <path id="Path_1861" data-name="Path 1861" d="M212.729,143.444c0,1.705-1.2,2.4-2.675,1.544a5.914,5.914,0,0,1-2.676-4.633c0-1.705,1.2-2.4,2.676-1.544A5.914,5.914,0,0,1,212.729,143.444Z" transform="translate(-207.378 -138.445)" fill="#79d6fe"/>
      </g>
      <g id="Group_299" data-name="Group 299" transform="translate(111.958 70.038)">
        <path id="Path_1862" data-name="Path 1862" d="M209.054,151.7c0,1.705-1.2,2.4-2.675,1.544a5.914,5.914,0,0,1-2.675-4.633c0-1.707,1.2-2.4,2.675-1.544A5.91,5.91,0,0,1,209.054,151.7Z" transform="translate(-203.705 -146.702)" fill="#79d6fe"/>
      </g>
    </g>
    <g id="Group_301" data-name="Group 301" transform="translate(32.36 29.35)">
      <path id="Path_1863" data-name="Path 1863" d="M263.368,128.81,252.6,122.593v-2.711l10.768,6.217Z" transform="translate(-252.6 -119.882)" fill="#79d6fe"/>
      <path id="Path_1864" data-name="Path 1864" d="M251.927,131.248l-5.384-3.108v-2.711l5.384,3.108Z" transform="translate(-231.971 -117.015)" fill="#79d6fe"/>
      <path id="Path_1865" data-name="Path 1865" d="M255.094,132.994l-4.588-2.649v-2.711l4.588,2.649Z" transform="translate(-241.148 -115.874)" fill="#79d6fe"/>
      <path id="Path_1866" data-name="Path 1866" d="M250.824,136.075l-5.384-3.108v-2.711l5.384,3.108Z" transform="translate(-229.194 -114.519)" fill="#79d6fe"/>
      <path id="Path_1867" data-name="Path 1867" d="M260.742,146.75l-21.158-12.215v-2.711l21.158,12.216Z" transform="translate(-230.226 -113.708)" fill="#79d6fe"/>
      <path id="Path_1868" data-name="Path 1868" d="M255.094,141.374l-4.588-2.649v-2.711l4.588,2.649Z" transform="translate(-241.148 -111.541)" fill="#79d6fe"/>
      <path id="Path_1869" data-name="Path 1869" d="M250.824,144.455l-5.384-3.108v-2.711l5.384,3.108Z" transform="translate(-229.194 -110.185)" fill="#79d6fe"/>
      <path id="Path_1870" data-name="Path 1870" d="M257.495,149.631l-11.632-6.715V140.2l11.632,6.715Z" transform="translate(-236.505 -109.374)" fill="#79d6fe"/>
      <path id="Path_1871" data-name="Path 1871" d="M246.115,151.364l-5.384-3.109v-2.711l5.384,3.108Z" transform="translate(-217.34 -106.612)" fill="#79d6fe"/>
      <path id="Path_1872" data-name="Path 1872" d="M240.956,154.342l-5.384-3.108v-2.711l5.384,3.108Z" transform="translate(-204.355 -105.072)" fill="#79d6fe"/>
      <path id="Path_1873" data-name="Path 1873" d="M237.435,160.094l-10.188-5.882V151.5l10.188,5.882Z" transform="translate(-188.204 -103.532)" fill="#79d6fe"/>
      <path id="Path_1874" data-name="Path 1874" d="M236.656,165.206l-5.384-3.108v-2.711l5.384,3.108Z" transform="translate(-193.531 -99.455)" fill="#79d6fe"/>
      <path id="Path_1875" data-name="Path 1875" d="M233.135,170.957l-10.188-5.882v-2.711l10.188,5.882Z" transform="translate(-177.379 -97.915)" fill="#79d6fe"/>
      <path id="Path_1876" data-name="Path 1876" d="M255.365,154.4l-5.384-3.108v-2.711l5.384,3.108Z" transform="translate(-240.624 -105.041)" fill="#79d6fe"/>
      <path id="Path_1877" data-name="Path 1877" d="M250.206,157.382l-5.384-3.109v-2.711l5.384,3.108Z" transform="translate(-227.639 -103.5)" fill="#79d6fe"/>
      <path id="Path_1878" data-name="Path 1878" d="M246.685,163.134,236.5,157.252v-2.711l10.188,5.882Z" transform="translate(-211.487 -101.96)" fill="#79d6fe"/>
      <path id="Path_1879" data-name="Path 1879" d="M231.617,163.924l-5.384-3.108V158.1l5.384,3.108Z" transform="translate(-180.848 -100.117)" fill="#79d6fe"/>
      <path id="Path_1880" data-name="Path 1880" d="M226.459,166.9l-5.384-3.108v-2.711l5.384,3.108Z" transform="translate(-167.863 -98.577)" fill="#79d6fe"/>
      <path id="Path_1881" data-name="Path 1881" d="M222.937,172.655l-10.188-5.882v-2.711l10.188,5.882Z" transform="translate(-151.712 -97.037)" fill="#79d6fe"/>
      <path id="Path_1882" data-name="Path 1882" d="M255.365,162.784l-5.384-3.108v-2.711l5.384,3.108Z" transform="translate(-240.624 -100.707)" fill="#79d6fe"/>
      <path id="Path_1883" data-name="Path 1883" d="M251.844,168.536l-10.188-5.882v-2.711l10.188,5.882Z" transform="translate(-224.472 -99.167)" fill="#79d6fe"/>
      <path id="Path_1884" data-name="Path 1884" d="M234.359,149.771l-5.384-3.108v-2.711l5.384,3.108Z" transform="translate(-187.749 -107.436)" fill="#79d6fe"/>
      <path id="Path_1885" data-name="Path 1885" d="M239.724,146.673l-5.384-3.108v-2.711l5.384,3.108Z" transform="translate(-201.255 -109.038)" fill="#79d6fe"/>
      <path id="Path_1886" data-name="Path 1886" d="M230.838,155.523l-10.188-5.882V146.93l10.188,5.882Z" transform="translate(-171.598 -105.896)" fill="#79d6fe"/>
      <path id="Path_1887" data-name="Path 1887" d="M255.186,149.91l-4.858-2.8v-2.711l4.858,2.8Z" transform="translate(-240.97 -107.207)" fill="#79d6fe"/>
      <path id="Path_1888" data-name="Path 1888" d="M252.64,156.759l-11.807-6.817v-2.711l11.807,6.817Z" transform="translate(-224.021 -105.74)" fill="#79d6fe"/>
      <path id="Path_1889" data-name="Path 1889" d="M243.146,162.241l-11.807-6.817v-2.711l11.807,6.817Z" transform="translate(-200.122 -102.906)" fill="#79d6fe"/>
      <path id="Path_1890" data-name="Path 1890" d="M220.576,157.321l-4.858-2.8v-2.711l4.858,2.8Z" transform="translate(-153.854 -103.375)" fill="#79d6fe"/>
      <path id="Path_1891" data-name="Path 1891" d="M218.03,164.171l-11.807-6.817v-2.711l11.807,6.817Z" transform="translate(-136.904 -101.908)" fill="#79d6fe"/>
      <path id="Path_1892" data-name="Path 1892" d="M208.536,169.652l-11.807-6.817v-2.711l11.807,6.817Z" transform="translate(-113.005 -99.073)" fill="#79d6fe"/>
      <path id="Path_1893" data-name="Path 1893" d="M257.485,162.342l-11.807-6.817v-2.711l11.807,6.817Z" transform="translate(-236.216 -102.853)" fill="#79d6fe"/>
      <path id="Path_1894" data-name="Path 1894" d="M245.2,163.1l-3.626-2.094V158.3l3.626,2.094Z" transform="translate(-217.709 -100.019)" fill="#79d6fe"/>
      <path id="Path_1895" data-name="Path 1895" d="M241.091,165.474l-3.626-2.094V160.67l3.626,2.094Z" transform="translate(-207.361 -98.791)" fill="#79d6fe"/>
      <path id="Path_1896" data-name="Path 1896" d="M238.784,170.9l-8.921-5.151v-2.711l8.921,5.15Z" transform="translate(-193.522 -97.564)" fill="#79d6fe"/>
      <path id="Path_1897" data-name="Path 1897" d="M237.187,171.827l-8.921-5.151v-2.711l8.921,5.15Z" transform="translate(-189.501 -97.087)" fill="#79d6fe"/>
      <path id="Path_1898" data-name="Path 1898" d="M226.9,161.095,223.278,159V156.29l3.626,2.094Z" transform="translate(-171.652 -101.056)" fill="#79d6fe"/>
      <path id="Path_1899" data-name="Path 1899" d="M224.6,166.525l-8.921-5.15v-2.711l8.921,5.15Z" transform="translate(-157.813 -99.829)" fill="#79d6fe"/>
      <path id="Path_1900" data-name="Path 1900" d="M223,167.447l-8.921-5.15v-2.711l8.921,5.15Z" transform="translate(-153.792 -99.352)" fill="#79d6fe"/>
      <path id="Path_1901" data-name="Path 1901" d="M260.865,162.438l-3.626-2.094v-2.711l3.626,2.094Z" transform="translate(-257.134 -100.361)" fill="#79d6fe"/>
      <path id="Path_1902" data-name="Path 1902" d="M258.558,167.869l-8.921-5.15v-2.711l8.921,5.15Z" transform="translate(-243.296 -99.134)" fill="#79d6fe"/>
      <path id="Path_1903" data-name="Path 1903" d="M250.793,172.352l-8.921-5.15v-2.711l8.921,5.15Z" transform="translate(-223.748 -96.815)" fill="#79d6fe"/>
    </g>
  </g>
</svg>
