<svg xmlns="http://www.w3.org/2000/svg" width="19.787" height="23.777" viewBox="0 0 19.787 23.777">
  <g id="Group_419" data-name="Group 419" transform="translate(16989.516 -91.812)">
    <path id="Path_1821" data-name="Path 1821" d="M264.962,192.843a1.521,1.521,0,1,0,1.485,1.557A1.521,1.521,0,0,0,264.962,192.843Z" transform="translate(-17236.176 -90.414)" fill="#29abe2" opacity="0.6"/>
    <path id="Path_1822" data-name="Path 1822" d="M275.314,185.845a3.846,3.846,0,1,0,3.755,3.934A3.846,3.846,0,0,0,275.314,185.845Z" transform="translate(-17260.893 -94.033)" fill="#29abe2"/>
    <path id="Path_1826" data-name="Path 1826" d="M272.933,197.777a2.134,2.134,0,1,0,2.084,2.183A2.134,2.134,0,0,0,272.933,197.777Z" transform="translate(-17255.889 -87.862)" fill="#29abe2" opacity="0.6"/>
    <path id="Path_1827" data-name="Path 1827" d="M269.071,197.31a3.191,3.191,0,1,0,3.118,3.265A3.192,3.192,0,0,0,269.071,197.31Z" transform="translate(-17245.561 -88.104)" fill="#29abe2"/>
  </g>
</svg>
