<svg xmlns="http://www.w3.org/2000/svg" width="14.467" height="28.843" viewBox="0 0 14.467 28.843">
  <g id="Group_417" data-name="Group 417" transform="translate(16769.6 -175.958)">
    <path id="Path_1852" data-name="Path 1852" d="M128.434,247.961a3.847,3.847,0,1,0-5.437-.173A3.846,3.846,0,0,0,128.434,247.961Z" transform="translate(-16884.781 -65.351)" fill="#29abe2"/>
    <path id="Path_1853" data-name="Path 1853" d="M132.279,261.206a2.154,2.154,0,1,0-3.043-.1A2.153,2.153,0,0,0,132.279,261.206Z" transform="translate(-16898.252 -56.988)" fill="#29abe2" opacity="0.6"/>
    <path id="Path_1854" data-name="Path 1854" d="M128.018,256.024a1.474,1.474,0,1,0-2.083-.065A1.473,1.473,0,0,0,128.018,256.024Z" transform="translate(-16889.047 -59.06)" fill="#29abe2"/>
    <path id="Path_1855" data-name="Path 1855" d="M126.57,258.058a1.008,1.008,0,1,0-1.426-.046A1.009,1.009,0,0,0,126.57,258.058Z" transform="translate(-16886.443 -57.592)" fill="#29abe2"/>
  </g>
</svg>
