<svg xmlns="http://www.w3.org/2000/svg" xmlns:xlink="http://www.w3.org/1999/xlink" width="890.139" height="535.288" viewBox="0 0 890.139 535.288"><defs><style>.a{opacity:0.8;}.a,.b{fill:url(#a);}.b{opacity:0.1;}</style><linearGradient id="a" x1="0.478" y1="0.398" x2="0.445" y2="0.977" gradientUnits="objectBoundingBox"><stop offset="0" stop-color="#29abe2"/><stop offset="1" stop-color="#29abe2" stop-opacity="0"/></linearGradient></defs><g transform="translate(0 -39.188)"><path class="a" d="M865.462,39.985a7.364,7.364,0,0,0-6.663,0c-1.381.8-1.724,1.97-1.029,2.952L754.625,102.489l0,75.172L729.5,192.167l0,81.765-86.075,49.695-13.413-7.743,66.376-38.322V232.741l-.264-.153-75.464-43.569v-15.2l42.678-24.641a7.444,7.444,0,0,0,6.081-.274c1.84-1.062,1.84-2.785,0-3.845a7.356,7.356,0,0,0-6.661,0c-1.66.957-1.808,2.446-.476,3.51L619.6,173.21v16.417l.263.153,75.466,43.569v43.6l-50.152,28.955V287.235l22.991-13.273a7.444,7.444,0,0,0,6.081-.274c1.84-1.062,1.84-2.785,0-3.847a7.364,7.364,0,0,0-6.663,0c-1.659.958-1.807,2.448-.473,3.512l-22.991,13.275v19.89l-15.168,8.758L611.016,304.92V272.4l33.831-19.534v-22.48l-.264-.153-71.219-41.118c1.332-1.064,1.184-2.553-.475-3.512a7.363,7.363,0,0,0-6.663,0c-1.84,1.062-1.84,2.785,0,3.847a7.444,7.444,0,0,0,6.081.274l71.484,41.27v21.264L611.018,271.18V248.767l-.264-.154L567.18,223.457c1.334-1.064,1.185-2.553-.473-3.512a7.363,7.363,0,0,0-6.663,0c-1.84,1.062-1.84,2.785,0,3.847a7.45,7.45,0,0,0,6.081.273l43.838,25.31,0,54.936-12.6-7.274-20.757,11.984-18.8-10.854V271.792l-.263-.153-49.7-28.7V218.078a6.512,6.512,0,0,0,2.8-.767c1.84-1.062,1.84-2.785,0-3.847a7.363,7.363,0,0,0-6.663,0c-1.84,1.062-1.84,2.785,0,3.847a6.507,6.507,0,0,0,2.8.767V243.55l.264.153,49.7,28.7v25.158l-80.891-46.7V201.35l43.872-25.329h40.259l.122-.07L629.2,136.066a7.45,7.45,0,0,0,6.081-.274c1.84-1.062,1.84-2.785,0-3.847a7.363,7.363,0,0,0-6.663,0c-1.659.958-1.807,2.448-.475,3.512l-68.432,39.509h-38.15L648.47,101.695a7.444,7.444,0,0,0,6.081-.274c1.84-1.062,1.84-2.785,0-3.847a7.36,7.36,0,0,0-6.661,0c-1.66.958-1.808,2.448-.475,3.512l-172.61,99.655v50.723l.263.153,100.483,58.015-20.225,11.676L383.771,222.258v-59.1l-.264-.154L325.168,129.32c1.332-1.064,1.184-2.553-.475-3.512a7.363,7.363,0,0,0-6.663,0c-1.84,1.062-1.84,2.785,0,3.847a7.444,7.444,0,0,0,6.081.274l58.607,33.836v59.1l.263.153,171.294,98.9-19.255,11.116L365.362,235.081H264.184l-63.235-36.509V142.466a5.915,5.915,0,0,0,1.829-.644c1.84-1.061,1.84-2.783,0-3.845a7.363,7.363,0,0,0-6.663,0c-1.84,1.062-1.84,2.785,0,3.845a7,7,0,0,0,3.779.773V199.18l.264.153,63.743,36.8H365.077L508.3,318.822l-28.806,0L430.61,290.6H392.958l-.122.071L340.617,320.82a7.45,7.45,0,0,0-6.081.274c-1.84,1.062-1.84,2.785,0,3.847a7.363,7.363,0,0,0,6.663,0c1.659-.958,1.807-2.449.473-3.512l51.569-29.774h37.086l48.88,28.222,30.915,0,23.842,13.764-51.392,29.671-14.615-8.437V332.73L430.834,311.3c1.334-1.064,1.185-2.553-.473-3.512a7.364,7.364,0,0,0-6.663,0c-1.84,1.062-1.84,2.785,0,3.847a7.447,7.447,0,0,0,6.083.273L466.9,333.339v20.927l-39.589-22.857H408.566l-.122.071-22.35,12.9a7.453,7.453,0,0,0-6.083.273c-1.84,1.062-1.84,2.785,0,3.847a7.363,7.363,0,0,0,6.663,0c1.659-.958,1.807-2.448.473-3.512l21.7-12.529h18.181l54.487,31.458-9.9,5.716,31.588,18.237-14.79,8.538H466.048l-16.006-9.24c1.276-1.061,1.1-2.525-.533-3.47a7.373,7.373,0,0,0-6.663,0c-1.84,1.062-1.84,2.785,0,3.847a7.426,7.426,0,0,0,6.154.239l16.764,9.68h20.826L448.87,419.246l-88.751-51.241-63.861,0-.122.071-35.954,20.758a7.448,7.448,0,0,0-6.083.274c-1.84,1.062-1.84,2.783,0,3.845a7.36,7.36,0,0,0,6.661,0c1.66-.957,1.808-2.448.475-3.51l35.307-20.384h63.293l68.452,39.521h-29.3l-28.64-16.534c1.334-1.062,1.185-2.553-.473-3.512a7.363,7.363,0,0,0-6.663,0c-1.84,1.062-1.84,2.785,0,3.847a7.45,7.45,0,0,0,6.081.274l29.41,16.979h31.41l17.7,10.22L402.757,445.87h-144L146.88,381.28c1.334-1.062,1.185-2.553-.473-3.512a7.368,7.368,0,0,0-6.663,0c-1.84,1.062-1.84,2.785,0,3.847a7.447,7.447,0,0,0,6.083.274l112.644,65.035H400.93l-17.875,10.321h-106.6l-.122.071-52.569,30.351a7.453,7.453,0,0,0-6.083.273c-1.84,1.062-1.84,2.785,0,3.847a7.363,7.363,0,0,0,6.663,0c1.659-.958,1.807-2.448.473-3.512l51.92-29.975h106.6l.122-.071,120.8-69.744,13.411,7.744-127,73.325H297.787l-.122.071L185.474,534.4l-155.429,0L0,517.053v1.218l29.762,17.183h156l.122-.071,70.406-40.648v24.059l-46.407,26.795a7.448,7.448,0,0,0-6.083.273c-1.84,1.062-1.84,2.785,0,3.847a7.364,7.364,0,0,0,6.663,0c1.659-.958,1.807-2.448.475-3.512L257.338,519.4l0-25.136H257.1l40.973-23.657h92.883l.122-.071,127.653-73.7,15.233,8.8L286.267,548.637v25.839h1.053V549.245L535.016,406.24l18.823,10.867L426.069,490.875v13.189l-22.653,13.079v30.331a9.42,9.42,0,0,1,1.055.608V517.752l21.6-12.471,0,48.573,12.748,7.36-22.97,13.262h2.108l21.917-12.653,21.917,12.653H463.9l-36.773-21.231V491.485l127.771-73.77,17.135,9.894-90.42,52.2a7.454,7.454,0,0,0-6.083.273c-1.84,1.062-1.84,2.785,0,3.847a7.363,7.363,0,0,0,6.663,0c1.659-.958,1.807-2.448.475-3.512l90.42-52.2,16.542,9.551L481.467,500.213h-29.4a2.7,2.7,0,0,0-1.289-1.395,7.364,7.364,0,0,0-6.663,0c-1.84,1.062-1.84,2.785,0,3.845a7.355,7.355,0,0,0,6.663,0,2.711,2.711,0,0,0,1.291-1.4h29.677l.123-.071,108.807-62.82,6.679,3.856,5.141-2.967,25.915,14.962,0,20.822L607,487.41v-.056h-33.6l-.123.071L536.42,508.709a7.448,7.448,0,0,0-6.083.274c-1.84,1.061-1.84,2.783,0,3.845a7.363,7.363,0,0,0,6.663,0c1.659-.957,1.807-2.448.473-3.512l36.215-20.909h31.585l-62.942,36.34a7.425,7.425,0,0,0-6.213.212c-1.84,1.062-1.84,2.783,0,3.845a7.363,7.363,0,0,0,6.663,0c1.619-.935,1.81-2.378.58-3.436l78.509-45.326v10.019l-46.707,26.968v19.04l-38.03,21.957a7.438,7.438,0,0,0-6.081.273c-1.84,1.062-1.841,2.785,0,3.847a7.361,7.361,0,0,0,6.661,0c1.66-.958,1.808-2.449.475-3.512l38.028-21.957v-19.04l46.709-26.967V479.436l6.543-3.777v-22.04l-25.915-14.962,17.03-9.833,53.325,30.787v35l-36.208,20.9a7.425,7.425,0,0,0-6.213.212c-1.84,1.061-1.84,2.783,0,3.845a7.363,7.363,0,0,0,6.663,0c1.619-.933,1.81-2.378.58-3.436l35.178-20.309V524.1l-27.792,16.045v34.33h1.055V540.754l26.737-15.436v49.158h1.055l0-115.473-53.325-30.787,19.123-11.041,69.695,40.239,0,95.831,33.5,19.343v1.889h1.055v-2.5l-33.5-19.343,0-95.831-69.695-40.239,14.172-8.183,94.06,54.3v81.767l52,30.021h2.11L751.1,543.846V462.079l-94.059-54.3,22.972-13.263,156.494,90.352v40.685l53.632,30.965V555.3l-52.578-30.357V484.256l-88.026-50.821h69.615l70.987,40.983V473.2L819.433,432.38H747.71L681.067,393.9l26.7-15.414,57.285,33.075h91.981l33.107,19.116V429.46l-7.258-4.19,7.258,0v-1.055h-9.084l-23.74-13.708-91.981,0-16.03-9.256h39.1l.122-.071,19.616-11.324h81.722l.272.156V388.8H809.973l22.081-12.75a7.448,7.448,0,0,0,6.083-.274c1.84-1.061,1.84-2.783,0-3.845a7.363,7.363,0,0,0-6.663,0c-1.66.958-1.807,2.448-.473,3.512L788.124,400.2H747.476l-38.657-22.319,14.285-8.247-9.192-5.307h26.722l34.927,20.165c-1.334,1.064-1.185,2.555.475,3.512a7.361,7.361,0,0,0,6.661,0c1.84-1.062,1.84-2.785,0-3.847a7.45,7.45,0,0,0-6.081-.273l-35.7-20.611h-28.83l-19.549-11.287,12.021-6.942h21.326l18.746-10.823h13.992l31.6,18.24c-1.418,1.067-1.3,2.595.39,3.572a7.372,7.372,0,0,0,6.663,0c1.84-1.064,1.84-2.785,0-3.847a7.47,7.47,0,0,0-5.98-.323l-32.385-18.7H744.349L725.6,343.991H706.386l38.433-22.19h20.752l43.256,24.973h81.311v-1.055H809.109l-43.256-24.974H744.536l-.122.07-52.931,30.561-13.889-8.019,59.811-34.533h42.187l34.8,20.093h75.743v-1.055H814.677L781.7,308.826H890.139v-1.055H737.124l-.123.071L676.539,342.75,660.76,333.64l83.406-48.154H890.139V284.43H783.765l106.373-61.415V221.8L781.657,284.432H744.933l79.08-45.657V228.712l37.838-21.845a7.444,7.444,0,0,0,6.081-.274c1.84-1.062,1.84-2.783,0-3.845a7.36,7.36,0,0,0-6.661,0c-1.66.957-1.808,2.448-.475,3.512l-20.6,11.9,0-27.577,49.944-28.836v-1.218l-51,29.446,0,28.793-16.18,9.342v10.063L743.232,284.2l.266.458-83.79,48.376-15.235-8.8,86.076-49.695,0-81.765,159.587-92.137V99.421l-134.46,77.63,0-73.953L858.59,43.683c.073.049.129.1.209.148a7.364,7.364,0,0,0,6.663,0C867.3,42.769,867.3,41.047,865.462,39.985ZM720.994,369.634,597.359,441.016,473.727,369.637l123.636-71.382Z"/><path class="b" d="M858.466,145.14l-21.978,12.69v40.884L641.256,311.429l-14.836-8.565,100.707-58.145V234.325l17.855-10.309V200.11l34.625-19.991a5.875,5.875,0,0,0,4.793-.215c1.451-.838,1.451-2.2,0-3.032a5.8,5.8,0,0,0-5.25,0c-1.308.755-1.424,1.93-.374,2.767l-34.625,19.991v23.908l-17.022,9.829V195.082l-.208-.12-9.84-5.681L776.116,155.2V116.866l41.939-24.213a5.864,5.864,0,0,0,4.793-.217c1.451-.837,1.451-2.194,0-3.031a5.8,5.8,0,0,0-5.25,0c-1.307.755-1.424,1.93-.374,2.767l-41.939,24.215v38.329L716.248,188.8l-95.979-55.414V90.509a5.146,5.146,0,0,0,2.21-.6c1.449-.838,1.449-2.194,0-3.032a5.808,5.808,0,0,0-5.252,0c-1.449.838-1.449,2.194,0,3.032a5.14,5.14,0,0,0,2.209.6v43.357l.208.12,57.73,33.331H635.305l-34.02-19.641c1.05-.838.933-2.012-.374-2.767a5.807,5.807,0,0,0-5.252,0c-1.449.837-1.449,2.194,0,3.032a5.87,5.87,0,0,0,4.793.215l34.628,19.993H678.8v-.012l47.5,27.424V244.24L625.588,302.384l-13.5-7.8L683.35,253.44a5.873,5.873,0,0,0,4.795-.215c1.449-.837,1.449-2.194,0-3.032a5.808,5.808,0,0,0-5.252,0c-1.307.755-1.424,1.93-.374,2.768l-71.269,41.147-13.038-7.528,85.252-49.219h23.169a2.13,2.13,0,0,0,1.016,1.1,5.8,5.8,0,0,0,5.25,0c1.451-.837,1.451-2.2,0-3.032a5.8,5.8,0,0,0-5.25,0,2.136,2.136,0,0,0-1.016,1.1H683.241l-.1.056L597.379,286.1l-5.262-3.038-.208.119-3.842,2.219-20.426-11.793V257.2l16.876-9.744v.044H611l29.154-16.831a5.87,5.87,0,0,0,4.793-.217c1.451-.837,1.451-2.194,0-3.031a5.8,5.8,0,0,0-5.25,0c-1.308.755-1.426,1.929-.375,2.767l-28.544,16.481H585.883l49.607-28.642a5.849,5.849,0,0,0,4.9-.168c1.451-.837,1.451-2.194,0-3.031a5.8,5.8,0,0,0-5.252,0c-1.276.736-1.427,1.874-.458,2.707L572.8,253.257v-7.9L609.614,224.1V209.1l29.974-17.306a5.873,5.873,0,0,0,4.795-.215c1.45-.837,1.45-2.194,0-3.032a5.808,5.808,0,0,0-5.252,0c-1.307.755-1.424,1.93-.374,2.768l-29.974,17.306v15.006L571.967,244.88v8.858l-5.157,2.976v17.373l20.424,11.793-13.42,7.749-42.031-24.267V241.776L560.323,225.3a5.858,5.858,0,0,0,4.9-.168c1.451-.837,1.451-2.194,0-3.031a5.8,5.8,0,0,0-5.25,0c-1.276.736-1.427,1.874-.458,2.707l-27.726,16.008V218.531l21.9-12.646,0-41.92a5.168,5.168,0,0,0,2.21-.605c1.449-.838,1.449-2.2,0-3.032a5.808,5.808,0,0,0-5.252,0c-1.449.838-1.449,2.194,0,3.032a5.162,5.162,0,0,0,2.209.605V205.4l-21.074,12.167V143.654h-.831l0,126.188,42.028,24.267-15.072,8.7-54.932-31.716,0-75.533-26.4-15.247V151.9l-23.314-13.46c1.05-.838.933-2.013-.374-2.768a5.808,5.808,0,0,0-5.252,0c-1.449.838-1.449,2.2,0,3.032a5.87,5.87,0,0,0,4.793.215l23.316,13.462v28.41l26.406,15.247,0,75.534,54.93,31.716-11.17,6.449-74.137-42.8V202.491l-.208-.12-65.623-37.887c1.05-.838.935-2.013-.374-2.768a5.8,5.8,0,0,0-5.25,0c-1.451.838-1.451,2.194,0,3.032a5.869,5.869,0,0,0,4.793.215l65.83,38.007v64.446l.208.12,73.927,42.684-18.1,10.452L403.624,249.458V217.391l-.208-.12L300.153,157.65c1.05-.838.933-2.013-.374-2.767a5.8,5.8,0,0,0-5.252,0c-1.449.837-1.449,2.194,0,3.031a5.87,5.87,0,0,0,4.793.215l103.473,59.74v32.067l.208.12,69.17,39.936H417.3l-63.517-36.671c1.052-.838.935-2.013-.374-2.768a5.8,5.8,0,0,0-5.25,0c-1.451.837-1.451,2.194,0,3.032a5.87,5.87,0,0,0,4.793.215l64.124,37.022h56.53l52.529,30.329L505.1,333.3l-45.151-26.068h-72.5L304.99,259.625H259.245L240.6,248.858c1.05-.838.933-2.012-.374-2.767a5.807,5.807,0,0,0-5.252,0c-1.449.837-1.449,2.194,0,3.031a5.87,5.87,0,0,0,4.793.217l19.258,11.119h45.744l62.308,35.973H313.256l-25.918-14.963c1.05-.838.933-2.013-.374-2.768a5.807,5.807,0,0,0-5.252,0c-1.449.837-1.449,2.194,0,3.032a5.869,5.869,0,0,0,4.793.215l26.528,15.315h55.481l18.709,10.8h72.5l12.634,7.295H441.535l-.1.055-15.459,8.925H361.567l-18.172-10.49H306.958a2.128,2.128,0,0,0-1.016-1.1,5.8,5.8,0,0,0-5.25,0c-1.451.837-1.451,2.194,0,3.031a5.8,5.8,0,0,0,5.25,0,2.128,2.128,0,0,0,1.016-1.1h36.214l18.171,10.49,63.2,0-17.405,10.05a5.872,5.872,0,0,0-4.795.215c-1.449.838-1.449,2.194,0,3.032a5.808,5.808,0,0,0,5.252,0c1.307-.755,1.424-1.929.375-2.767l33.793-19.512H473.8l30.466,17.591-11.257,6.5.625.361,6.62,3.822-21.059,0L451.662,328.57c1.049-.838.933-2.013-.375-2.768a5.8,5.8,0,0,0-5.25,0c-1.451.838-1.451,2.2,0,3.032a5.872,5.872,0,0,0,4.792.217l28.14,16.245,22.722,0,15.408,8.9-9.476,5.471H490.816l-.1.055-14.68,8.476H465.013l-24.9-14.379c1.117-.84,1.025-2.044-.309-2.813a5.8,5.8,0,0,0-5.25,0c-1.451.837-1.451,2.194,0,3.031a5.888,5.888,0,0,0,4.712.255l25.528,14.738h11.472l.1-.056,14.68-8.474h15.144l-30.291,17.488H459.537l-34.1-19.684H322.625L258.852,321.48c1.1-.84,1.007-2.038-.32-2.805a5.808,5.808,0,0,0-5.252,0c-1.449.838-1.449,2.194,0,3.032a5.885,5.885,0,0,0,4.728.246L322.4,359.132H425.218l34.1,19.682h16.8l.1-.055,41.722-24.087,10.944,6.318L481.735,388.21h-33.25l-27.433-15.839h-70.4a2.127,2.127,0,0,0-1.016-1.1,5.8,5.8,0,0,0-5.25,0c-1.451.837-1.451,2.194,0,3.031a5.807,5.807,0,0,0,5.252,0,2.134,2.134,0,0,0,1.016-1.1h70.18L446.82,388.21H347.612l-.095.055-94.543,54.586a5.869,5.869,0,0,0-4.793.215c-1.451.838-1.451,2.194,0,3.032a5.8,5.8,0,0,0,5.25,0c1.307-.755,1.426-1.929.375-2.767l94.03-54.289H481.958l.1-.055,47.655-27.516,12.435,7.179-65.738,37.957H360.651l-.095.055L259.193,465.184H141.088L72.212,425.419c1.05-.838.932-2.012-.375-2.767a5.8,5.8,0,0,0-5.25,0c-1.451.837-1.451,2.194,0,3.032a5.875,5.875,0,0,0,4.793.215l69.486,40.117h118.55l.1-.055,101.363-58.522h84.317L321.384,478.919v18.816L272,526.249a5.876,5.876,0,0,0-4.793.215c-1.449.838-1.449,2.2,0,3.032a5.807,5.807,0,0,0,5.252,0c1.307-.755,1.424-1.93.374-2.767l49.386-28.513V479.4l124.643-71.962H475.8l-62.326,35.985v7.931l-29.824,17.22a5.869,5.869,0,0,0-4.793.215c-1.451.837-1.451,2.194,0,3.031a5.8,5.8,0,0,0,5.25,0c1.308-.754,1.426-1.929.375-2.767l16.238-9.375v21.733L306.9,535.577a5.866,5.866,0,0,0-4.792.215c-1.451.837-1.451,2.194,0,3.032a5.8,5.8,0,0,0,5.25,0c1.307-.755,1.424-1.93.374-2.768l93.815-54.162V459.2l12.753-7.363V443.9l62.839-36.281-.208-.361,66.042-38.131,12.005,6.93-67.843,39.171v64.446l-124.78,72.042h1.665l103.311-59.645v58.286l-2.354,1.359h1.665l1.521-.878V491.595l19.806-11.434,0-64.448,67.843-39.171,10.57,6.1-52.315,30.2V448.18l.209.12,59.481,34.342v11.98l-33.64,19.42a5.878,5.878,0,0,0-4.792.217c-1.45.838-1.45,2.194,0,3.032a5.8,5.8,0,0,0,5.25,0c1.308-.755,1.426-1.93.375-2.768l33.637-19.42,0-12.943-.208-.12L514.9,447.7V413.331l39.529-22.822,0,14.718L536.307,415.69a5.866,5.866,0,0,0-4.792.217c-1.451.837-1.451,2.194,0,3.031a5.8,5.8,0,0,0,5.25,0c1.307-.755,1.424-1.929.375-2.767l18.12-10.462V390.03l11.956-6.9,14.137,8.161v25.633l-26.666,15.395v17.721l.208.12,56.135,32.408c-1.05.838-.933,2.012.374,2.767a5.8,5.8,0,0,0,5.252,0c1.449-.837,1.449-2.194,0-3.031a5.87,5.87,0,0,0-4.793-.217l-56.343-32.529V432.8l25.833-14.914v17.666L615.9,455.5c-1.049.838-.932,2.012.375,2.767a5.808,5.808,0,0,0,5.252,0c1.449-.837,1.449-2.194,0-3.032a5.87,5.87,0,0,0-4.793-.215l-34.552-19.949,0-43.3,9.928,5.733.209-.119,16.153-9.327,14.818,8.556,0,20.791,39.384,22.737,0,19.6a5.16,5.16,0,0,0-2.209.6c-1.449.838-1.449,2.2,0,3.032a5.808,5.808,0,0,0,5.252,0c1.449-.837,1.449-2.194,0-3.032a5.161,5.161,0,0,0-2.211-.6V439.658l-39.383-22.737V397.092l63.756,36.81,0,39.019L653.3,492.886H621.57l-.1.055-54.45,31.438a5.87,5.87,0,0,0-4.794.215c-1.449.838-1.449,2.194,0,3.032a5.807,5.807,0,0,0,5.252,0c1.307-.755,1.424-1.93.374-2.767l53.938-31.143h30.067L551.832,551.469a5.869,5.869,0,0,0-4.793.217c-.019.01-.031.024-.051.036h6.074L688.713,473.4v-39.98l-.208-.12-79.2-45.726,15.938-9.2,135.219,78.068v46.584l46.192,26.67c-1.05.837-.933,2.012.374,2.765a5.8,5.8,0,0,0,5.252,0c1.449-.837,1.449-2.194,0-3.031a5.875,5.875,0,0,0-4.793-.217L761.3,502.544V455.961l-.208-.12-135.01-77.948,15.175-8.762,133.723,77.2h79.746l3.743,2.16v-.96l-3.52-2.033H775.2L662.318,380.332h22.7l38.528,22.243h29.676l.1-.055,41.158-23.762a5.876,5.876,0,0,0,4.793-.217c1.449-.837,1.449-2.194,0-3.032a5.808,5.808,0,0,0-5.252,0c-1.307.755-1.424,1.93-.374,2.768L753,401.741H723.771L685.245,379.5H660.877L642.086,368.65l40.506-23.385,11.518,6.649V369.37l29.259,16.893c-1.049.838-.932,2.012.375,2.767a5.808,5.808,0,0,0,5.252,0c1.449-.838,1.449-2.194,0-3.032a5.87,5.87,0,0,0-4.793-.215l-29.262-16.893V352.395l31.2,18.015h14.776l.1-.055,17.617-10.171a5.866,5.866,0,0,0,4.792-.217c1.451-.837,1.451-2.194,0-3.031a5.8,5.8,0,0,0-5.25,0c-1.309.755-1.424,1.93-.374,2.767l-17.1,9.875H726.369l-42.943-24.795,7.8-4.5-.623-.36L666.328,325.9l11.659-6.731h17.629l12.615,7.284c-1,.835-.869,1.989.421,2.734a5.8,5.8,0,0,0,5.25,0c1.451-.837,1.451-2.194,0-3.031a5.856,5.856,0,0,0-4.848-.19l-13.216-7.63H679.428l29.729-17.163,69.952,40.387h50.334l.1-.055,28.34-16.362a5.47,5.47,0,0,0,.586.163v-3.826a4.435,4.435,0,0,0-1.044.414c-1.307.755-1.424,1.929-.374,2.767L829.22,340.733H779.332l-53.948-31.147h23.089l22.572,13.033c-1.05.838-.933,2.012.374,2.767a5.8,5.8,0,0,0,5.252,0c1.449-.837,1.449-2.194,0-3.031a5.869,5.869,0,0,0-4.794-.217L748.7,308.751H723.944L709.989,300.7l35.514-20.5H858.466v-.832H746.943l14.086-8.133,84.019,0,.1-.056,13.321-7.691v-.96l-13.64,7.875H760.807l-.1.055L665.5,325.424l-10.569-6.1,100.1-57.8h73.209l.1-.055,30.131-17.4v-.96l-30.45,17.58H754.806l-.1.055-100.617,58.09-12-6.931,195.23-112.717,0-40.884,21.147-12.21Zm-168.9,195.139-97.449,56.263-97.445-56.26,97.448-56.261Z" transform="translate(31.673 22.755)"/></g></svg>