<svg xmlns="http://www.w3.org/2000/svg" xmlns:xlink="http://www.w3.org/1999/xlink" width="79.277" height="39.222" viewBox="0 0 79.277 39.222"><defs><style>.a,.b{fill-rule:evenodd;}.a{fill:url(#a);}.b{fill:#fff;}.c{fill:#225fbc;}</style><linearGradient id="a" x1="0.5" y1="1.001" x2="0.5" y2="0.001" gradientUnits="objectBoundingBox"><stop offset="0" stop-color="#225fbc"/><stop offset="1" stop-color="#1fb2f0"/></linearGradient></defs><path class="a" d="M153.5,341.83h40.063l39.214-39.216H153.5V341.83" transform="translate(-153.5 -302.614)"/><path class="b" d="M204.08,332.149l-7.8,0V350.7l-6.818-18.552H182.7l-5.822,15.513c-.616-3.909-4.664-5.263-7.849-6.276-2.106-.674-4.331-1.668-4.311-2.766.014-.9,1.2-1.737,3.531-1.61a12.749,12.749,0,0,1,5.708,1.539l2.717-4.722a21.126,21.126,0,0,0-8.84-2.092h-.019a10.739,10.739,0,0,0-7.8,2.851,6.591,6.591,0,0,0-1.868,4.551,6.112,6.112,0,0,0,2.682,5.45,18.311,18.311,0,0,0,5.3,2.429c2.165.669,3.934,1.252,3.912,2.5a1.792,1.792,0,0,1-.51,1.216,3.429,3.429,0,0,1-2.515.791,10.806,10.806,0,0,1-6.462-1.844l-2.411,4.786a18.024,18.024,0,0,0,8.833,2.35l.405,0a10.676,10.676,0,0,0,6.718-2.253c.1-.078.191-.163.284-.246l-.78,2.092h7.086l1.191-3.618a13.531,13.531,0,0,0,8.234.033l1.146,3.585h11.559v-7.494h2.521c6.094,0,9.7-3.1,9.7-8.3C215.042,334.808,211.539,332.149,204.08,332.149Zm-18.035,15.879a7.077,7.077,0,0,1-2.5-.442l2.475-7.8h.051l2.424,7.824A7.205,7.205,0,0,1,186.045,348.028Zm18.494-4.485h-1.72v-6.29h1.72c2.293,0,4.118.761,4.118,3.109,0,2.42-1.825,3.181-4.118,3.181" transform="translate(-157.033 -324.777)"/><path class="c" d="M359.707,448.038a2.065,2.065,0,1,1,2.071,2.125A2.06,2.06,0,0,1,359.707,448.038Zm2.071,2.55a2.544,2.544,0,1,0-2.583-2.55A2.542,2.542,0,0,0,361.779,450.588Zm-.54-2.349h.511l.772,1.27h.5l-.837-1.291a.761.761,0,0,0,.761-.806c0-.578-.342-.834-1.033-.834H360.8v2.931h.443Zm0-.378v-.906h.608c.3,0,.631.065.631.43,0,.452-.334.476-.706.476Z" transform="translate(-310.055 -411.365)"/></svg>