<svg xmlns="http://www.w3.org/2000/svg" width="112.286" height="55.279" viewBox="0 0 112.286 55.279"><defs><style>.a{fill:#fff;}.b{fill:#005ba2;}.c{fill:#1a1818;}</style></defs><g transform="translate(40.421 15.513)"><rect class="a" width="70.207" height="38.108" transform="translate(0.829 0.829)"/><path class="b" d="M350.131,159.242v36.45H281.582v-36.45h68.549m1.658-1.658H279.924V197.35h71.865V157.584Z" transform="translate(-279.924 -157.584)"/></g><rect class="b" width="71.865" height="39.766" transform="translate(0 0)"/><g transform="translate(9.622 8.595)"><path class="a" d="M320.838,117.124h-7.265l.448-1.253h6.817Z" transform="translate(-277.195 -115.869)"/><path class="a" d="M240.595,115.863l6.745,0,.441,1.256s-7.185,0-7.185,0S240.593,115.863,240.595,115.863Z" transform="translate(-216.317 -115.861)"/><path class="a" d="M161.379,115.871a4.843,4.843,0,0,1,2.9,1.254s-12.224,0-12.224,0v-1.254Z" transform="translate(-142.459 -115.869)"/><g transform="translate(0.001 0.002)"><rect class="a" width="8.494" height="1.252"/><path class="a" d="M119.805,119.648" transform="translate(-115.557 -119.022)"/></g><path class="a" d="M316.659,131.328h-8.1s.441-1.246.438-1.246h7.658Z" transform="translate(-273.016 -127.724)"/><path class="a" d="M248.617,131.327H240.6v-1.249h7.581Z" transform="translate(-216.319 -127.72)"/><path class="a" d="M165.24,130.077a3.235,3.235,0,0,1,.353,1.247H152.064v-1.247Z" transform="translate(-142.466 -127.72)"/><g transform="translate(0.001 2.357)"><rect class="a" width="8.494" height="1.247"/><path class="a" d="M119.805,133.84" transform="translate(-115.557 -133.216)"/></g><path class="a" d="M303.561,145.5l.444-1.253,6.08,0V145.5Z" transform="translate(-268.843 -139.543)"/><path class="a" d="M261.036,144.25l.444,1.253h-6.463V144.25Z" transform="translate(-228.349 -139.543)"/><path class="a" d="M214.757,144.25a4.064,4.064,0,0,1-.179,1.253h-3.7V144.25Z" transform="translate(-191.524 -139.543)"/><g transform="translate(2.37 4.714)"><rect class="a" width="3.65" height="1.247"/><path class="a" d="M119.475,148.052" transform="translate(-117.651 -147.428)"/></g><g transform="translate(12.055 4.707)"><rect class="a" width="3.644" height="1.253"/><path class="a" d="M177.876,148.027" transform="translate(-176.053 -147.401)"/></g><path class="a" d="M258.607,158.471s0,.948,0,.949h-3.591v-1.245h6.841l.425,1.162s.409-1.165.409-1.162h6.9v1.245h-3.573s0-.949,0-.949l-.33.949-6.747,0Z" transform="translate(-228.349 -151.159)"/><path class="a" d="M166.883,158.167h10.461v0a4.683,4.683,0,0,1-1.037,1.247s-9.424,0-9.424,0Z" transform="translate(-154.828 -151.15)"/><g transform="translate(2.37 7.015)"><rect class="a" width="3.65" height="1.247"/><path class="a" d="M119.475,161.933" transform="translate(-117.651 -161.308)"/></g><g transform="translate(37.668 9.366)"><rect class="a" width="3.573" height="1.246"/><path class="a" d="M332.121,176.11" transform="translate(-330.335 -175.486)"/></g><path class="a" d="M258.607,172.349h-3.589V173.6s3.591,0,3.591,0S258.614,172.349,258.607,172.349Z" transform="translate(-228.349 -162.983)"/><path class="a" d="M286.956,172.349c-.016,0-.419,1.244-.435,1.246l-5.09,0s-.448-1.25-.448-1.248Z" transform="translate(-250.01 -162.983)"/><path class="a" d="M166.883,172.349h9.407a6.09,6.09,0,0,1,1.121,1.246c.018,0-10.527,0-10.527,0Z" transform="translate(-154.828 -162.983)"/><path class="a" d="M112.147,173.6v-1.246H108.5s0,1.244,0,1.244Z" transform="translate(-106.127 -162.983)"/><g transform="translate(37.668 11.716)"><rect class="a" width="3.573" height="1.246"/><path class="a" d="M332.121,190.278" transform="translate(-330.335 -189.655)"/></g><g transform="translate(26.669 11.716)"><rect class="a" width="3.589" height="1.246"/><path class="a" d="M265.845,190.278" transform="translate(-264.05 -189.655)"/></g><path class="a" d="M289.824,187.772c0-.006.44-1.254.446-1.252h-4.325c-.008,0,.443,1.246.443,1.246S289.823,187.778,289.824,187.772Z" transform="translate(-254.148 -174.804)"/><path class="a" d="M166.883,187.759v-1.248h3.7s0,1.248,0,1.248Z" transform="translate(-154.828 -174.796)"/><path class="a" d="M214.966,186.511a3.635,3.635,0,0,1,.232,1.254H211.28v-1.254Z" transform="translate(-191.864 -174.796)"/><g transform="translate(2.375 11.715)"><rect class="a" width="3.645" height="1.247"/><path class="a" d="M119.494,190.274" transform="translate(-117.671 -189.65)"/></g><g transform="translate(37.668 14.018)"><rect class="a" width="5.975" height="1.248"/><path class="a" d="M339.365,204.161" transform="translate(-336.378 -203.538)"/></g><g transform="translate(24.278 14.018)"><rect class="a" width="5.98" height="1.248"/><path class="a" d="M258.63,204.161" transform="translate(-255.64 -203.538)"/></g><path class="a" d="M293.1,201.65h-1.824l-.438-1.248h2.684Z" transform="translate(-258.231 -186.384)"/><path class="a" d="M94.188,200.4v1.247h8.489s0-1.247,0-1.247Z" transform="translate(-94.187 -186.384)"/><path class="a" d="M165.646,200.4a2.689,2.689,0,0,1-.472,1.248h-13.11V200.4Z" transform="translate(-142.466 -186.384)"/><path class="a" d="M296.511,215.825h-.167l-.425-1.25h1.03Z" transform="translate(-262.468 -198.207)"/><g transform="translate(37.668 16.368)"><rect class="a" width="5.975" height="1.254"/><path class="a" d="M339.365,218.352" transform="translate(-336.378 -217.726)"/></g><path class="a" d="M152.055,215.833v-1.249l12.3,0a4.665,4.665,0,0,1-3.169,1.25l-9.126,0" transform="translate(-142.459 -198.214)"/><g transform="translate(24.278 16.368)"><rect class="a" width="5.98" height="1.254"/><path class="a" d="M258.63,218.352" transform="translate(-255.64 -217.726)"/></g><path class="a" d="M102.671,214.588s0,1.245,0,1.245-8.485,0-8.489,0,0-1.25,0-1.25S102.666,214.591,102.671,214.588Z" transform="translate(-94.181 -198.214)"/></g><rect class="a" width="52.728" height="35.981" transform="translate(57.824 17.405)"/><g transform="translate(62.751 24.55)"><path class="c" d="M419.484,213.314a2.66,2.66,0,0,1,.3,1.306,2.307,2.307,0,0,1-.3,1.26,1.691,1.691,0,0,1-.5.488,1.589,1.589,0,0,1,.76.755,2.8,2.8,0,0,1,.256,1.254,3.086,3.086,0,0,1-.293,1.365,2.267,2.267,0,0,1-.466.674,1.651,1.651,0,0,1-.744.429,3.543,3.543,0,0,1-.93.116H414.6V212.4h3.181A1.843,1.843,0,0,1,419.484,213.314Zm-3.574.575v1.887h1.6a1.088,1.088,0,0,0,.7-.212.91.91,0,0,0,.267-.752.816.816,0,0,0-.354-.79,1.951,1.951,0,0,0-.778-.133Zm0,3.3v2.281h1.6a1.242,1.242,0,0,0,.666-.151,1.176,1.176,0,0,0,.433-1.068.978.978,0,0,0-.419-.917,1.33,1.33,0,0,0-.658-.145Z" transform="translate(-414.597 -212.35)"/><path class="c" d="M454.761,225.848v3.814a2.548,2.548,0,0,0,.1.813.666.666,0,0,0,.68.482.893.893,0,0,0,.889-.685,3.171,3.171,0,0,0,.124-.981v-3.443h1.291v6.328H456.6v-.894c-.012.019-.042.077-.089.174a1.12,1.12,0,0,1-.169.255,1.768,1.768,0,0,1-.577.476,1.549,1.549,0,0,1-.652.128,1.424,1.424,0,0,1-1.452-1.01,4.923,4.923,0,0,1-.209-1.643v-3.814Z" transform="translate(-447.013 -223.566)"/><path class="c" d="M486.82,229.25a1.31,1.31,0,0,0,.175.627,1.016,1.016,0,0,0,.879.331,1.083,1.083,0,0,0,.6-.145.486.486,0,0,0,.222-.436.514.514,0,0,0-.179-.424,6.092,6.092,0,0,0-1.331-.5,2.525,2.525,0,0,1-1.169-.668,1.7,1.7,0,0,1-.339-1.138,2.263,2.263,0,0,1,.53-1.507,1.843,1.843,0,0,1,1.492-.63,2.264,2.264,0,0,1,1.488.473,2.238,2.238,0,0,1,.66,1.634h-1.273a1.168,1.168,0,0,0-.139-.5.778.778,0,0,0-.716-.337.846.846,0,0,0-.593.168.528.528,0,0,0-.177.395.462.462,0,0,0,.188.412,6.7,6.7,0,0,0,1.329.459,2.268,2.268,0,0,1,1.14.7,1.863,1.863,0,0,1,.375,1.19,2.2,2.2,0,0,1-.539,1.535,2.617,2.617,0,0,1-3.365-.035,2.357,2.357,0,0,1-.548-1.605Z" transform="translate(-473.768 -222.66)"/><path class="c" d="M519.432,213.613h-1.29v-1.527h1.29Zm-1.29.755h1.29V220.7h-1.29Z" transform="translate(-500.973 -212.086)"/><path class="c" d="M537.328,225.45a2.466,2.466,0,0,1,.478,1.7v4.262h-1.3v-3.849a2.243,2.243,0,0,0-.1-.766.7.7,0,0,0-.709-.488.9.9,0,0,0-.882.714,3.141,3.141,0,0,0-.124.964v3.425h-1.273V225.1h1.232v.923a2.726,2.726,0,0,1,.462-.7,1.359,1.359,0,0,1,.992-.383A1.6,1.6,0,0,1,537.328,225.45Z" transform="translate(-513.711 -222.805)"/><path class="c" d="M568.286,225.128a2.23,2.23,0,0,1,.841.936,3.707,3.707,0,0,1,.388,1.308,10.47,10.47,0,0,1,.042,1.256h-3.545a1.692,1.692,0,0,0,.509,1.335,1.073,1.073,0,0,0,.7.238.924.924,0,0,0,.707-.29,1.393,1.393,0,0,0,.262-.436h1.3a2.319,2.319,0,0,1-.472,1.144,2.116,2.116,0,0,1-1.831.923,2.3,2.3,0,0,1-1.714-.778,3.591,3.591,0,0,1-.743-2.534,4.089,4.089,0,0,1,.671-2.522,2.092,2.092,0,0,1,1.74-.877A2.232,2.232,0,0,1,568.286,225.128Zm-1.9,1.429a1.985,1.985,0,0,0-.339.979h2.193a1.589,1.589,0,0,0-.339-1,.971.971,0,0,0-.755-.341A.893.893,0,0,0,566.383,226.558Z" transform="translate(-539.837 -222.719)"/><path class="c" d="M597.178,229.25a1.313,1.313,0,0,0,.175.627,1.017,1.017,0,0,0,.879.331,1.082,1.082,0,0,0,.6-.145.485.485,0,0,0,.222-.436.514.514,0,0,0-.179-.424,6.1,6.1,0,0,0-1.331-.5,2.525,2.525,0,0,1-1.169-.668,1.7,1.7,0,0,1-.339-1.138,2.263,2.263,0,0,1,.53-1.507,1.843,1.843,0,0,1,1.492-.63,2.265,2.265,0,0,1,1.488.473,2.238,2.238,0,0,1,.66,1.634h-1.273a1.167,1.167,0,0,0-.139-.5.778.778,0,0,0-.716-.337.846.846,0,0,0-.593.168.528.528,0,0,0-.177.395.462.462,0,0,0,.188.412,6.692,6.692,0,0,0,1.329.459,2.267,2.267,0,0,1,1.14.7,1.864,1.864,0,0,1,.375,1.19,2.2,2.2,0,0,1-.539,1.535,2.617,2.617,0,0,1-3.365-.035,2.357,2.357,0,0,1-.548-1.605Z" transform="translate(-565.828 -222.66)"/><path class="c" d="M627.852,229.25a1.309,1.309,0,0,0,.175.627,1.016,1.016,0,0,0,.879.331,1.082,1.082,0,0,0,.6-.145.486.486,0,0,0,.222-.436.514.514,0,0,0-.179-.424,6.1,6.1,0,0,0-1.331-.5,2.523,2.523,0,0,1-1.169-.668,1.7,1.7,0,0,1-.339-1.138,2.263,2.263,0,0,1,.53-1.507,1.844,1.844,0,0,1,1.493-.63,2.265,2.265,0,0,1,1.488.473,2.238,2.238,0,0,1,.66,1.634h-1.273a1.166,1.166,0,0,0-.139-.5.778.778,0,0,0-.716-.337.846.846,0,0,0-.593.168.528.528,0,0,0-.177.395.462.462,0,0,0,.188.412,6.7,6.7,0,0,0,1.329.459,2.266,2.266,0,0,1,1.14.7,1.864,1.864,0,0,1,.375,1.19,2.2,2.2,0,0,1-.539,1.535,2.617,2.617,0,0,1-3.365-.035,2.357,2.357,0,0,1-.548-1.605Z" transform="translate(-591.415 -222.66)"/><path class="c" d="M419.038,303.3a2.132,2.132,0,0,1-1.651.627h-1.371v3.077h-1.366V298.45h2.826a1.97,1.97,0,0,1,1.558.662,3.046,3.046,0,0,1,.581,2.049A3.143,3.143,0,0,1,419.038,303.3Zm-1.05-3.083a.945.945,0,0,0-.732-.284h-1.239v2.52h1.239a.908.908,0,0,0,.732-.308,1.493,1.493,0,0,0,.261-.976A1.4,1.4,0,0,0,417.989,300.221Z" transform="translate(-414.642 -284.13)"/><path class="c" d="M450.894,313.615a1.628,1.628,0,0,0,.508-.145.5.5,0,0,0,.274-.47.613.613,0,0,0-.21-.537,1.07,1.07,0,0,0-.618-.148.714.714,0,0,0-.647.291,1.408,1.408,0,0,0-.181.58h-1.228a2.913,2.913,0,0,1,.359-1.364,1.869,1.869,0,0,1,1.74-.836,2.528,2.528,0,0,1,1.426.412,1.732,1.732,0,0,1,.623,1.556v2.9q0,.3.009.731a1.151,1.151,0,0,0,.076.441.5.5,0,0,0,.188.191v.244h-1.384a2.267,2.267,0,0,1-.08-.36q-.023-.169-.036-.383a2.888,2.888,0,0,1-.611.633,1.526,1.526,0,0,1-.934.308,1.4,1.4,0,0,1-1.1-.491,2.031,2.031,0,0,1-.434-1.39,1.974,1.974,0,0,1,.7-1.69,2.6,2.6,0,0,1,1.125-.406Zm.778.772a1.29,1.29,0,0,1-.247.16,1.708,1.708,0,0,1-.342.113l-.29.07a1.6,1.6,0,0,0-.585.226.822.822,0,0,0-.3.7.856.856,0,0,0,.184.613.6.6,0,0,0,.447.189,1.132,1.132,0,0,0,.769-.313,1.528,1.528,0,0,0,.365-1.144Z" transform="translate(-442.992 -294.586)"/><path class="c" d="M483.938,310.988l.109.009v1.7c-.08-.012-.152-.019-.214-.023s-.113-.006-.152-.006a1.009,1.009,0,0,0-1.032.65,3.213,3.213,0,0,0-.147,1.126v3.024h-1.282v-6.328h1.215v1.1a3.526,3.526,0,0,1,.514-.865,1.2,1.2,0,0,1,.929-.389A.553.553,0,0,1,483.938,310.988Z" transform="translate(-470.174 -294.586)"/><path class="c" d="M499.75,304.546v-1.179h.679V301.6h1.259v1.765h.79v1.179h-.79v3.344a.936.936,0,0,0,.076.485q.076.1.464.1l.123,0c.043,0,.086,0,.127-.009V309.7l-.6.029a1.365,1.365,0,0,1-1.232-.406,1.457,1.457,0,0,1-.214-.877v-3.9Z" transform="translate(-485.631 -286.759)"/><path class="c" d="M525.1,311.5a2.466,2.466,0,0,1,.478,1.7v4.261h-1.3v-3.849a2.237,2.237,0,0,0-.1-.766.7.7,0,0,0-.709-.488.9.9,0,0,0-.882.714,3.14,3.14,0,0,0-.124.964v3.425h-1.273v-6.316h1.232v.923a2.738,2.738,0,0,1,.462-.7,1.359,1.359,0,0,1,.991-.383A1.6,1.6,0,0,1,525.1,311.5Z" transform="translate(-503.512 -294.586)"/><path class="c" d="M556.06,311.176a2.233,2.233,0,0,1,.841.936,3.712,3.712,0,0,1,.388,1.308,10.514,10.514,0,0,1,.042,1.256h-3.545a1.692,1.692,0,0,0,.509,1.335,1.074,1.074,0,0,0,.7.238.923.923,0,0,0,.707-.29,1.4,1.4,0,0,0,.262-.435h1.3a2.32,2.32,0,0,1-.472,1.144,2.116,2.116,0,0,1-1.831.923,2.306,2.306,0,0,1-1.714-.779,3.592,3.592,0,0,1-.743-2.534,4.089,4.089,0,0,1,.671-2.522,2.093,2.093,0,0,1,1.74-.878A2.235,2.235,0,0,1,556.06,311.176Zm-1.9,1.43a1.986,1.986,0,0,0-.339.979h2.193a1.589,1.589,0,0,0-.339-1,.97.97,0,0,0-.755-.341A.892.892,0,0,0,554.156,312.605Z" transform="translate(-529.637 -294.498)"/><path class="c" d="M588.131,310.988l.109.009v1.7c-.08-.012-.152-.019-.214-.023s-.113-.006-.152-.006a1.009,1.009,0,0,0-1.031.65,3.209,3.209,0,0,0-.147,1.126v3.024h-1.281v-6.328h1.215v1.1a3.529,3.529,0,0,1,.513-.865,1.2,1.2,0,0,1,.929-.389A.55.55,0,0,1,588.131,310.988Z" transform="translate(-557.09 -294.586)"/></g></svg>