<svg xmlns="http://www.w3.org/2000/svg" width="157.174" height="36.938" viewBox="0 0 157.174 36.938"><path d="M69.854,237.336h0a2.354,2.354,0,0,1-2.354-2.354v-6.211a2.354,2.354,0,0,1,2.354-2.354h0a2.354,2.354,0,0,1,2.354,2.354v6.211A2.354,2.354,0,0,1,69.854,237.336Zm9.306-.227V226.358A2.354,2.354,0,0,0,76.806,224h0a2.354,2.354,0,0,0-2.354,2.354V237.11a2.354,2.354,0,0,0,2.354,2.354h0A2.354,2.354,0,0,0,79.16,237.11Zm6.952,2.38V224.113a2.354,2.354,0,0,0-2.354-2.354h0a2.354,2.354,0,0,0-2.354,2.354V239.49a2.354,2.354,0,0,0,2.354,2.354h0A2.354,2.354,0,0,0,86.112,239.49Zm6.951,2.2V221.655a2.354,2.354,0,0,0-2.354-2.354h0a2.354,2.354,0,0,0-2.354,2.354v20.039a2.354,2.354,0,0,0,2.354,2.354h0A2.354,2.354,0,0,0,93.063,241.694Zm10.315-25.314-31.4-9.169a2.477,2.477,0,0,0-3.177,2.382v14.821h1.861V209.593a.621.621,0,0,1,.617-.622.65.65,0,0,1,.178.026l31.4,9.169a.624.624,0,0,1,.447.6v19.772a.62.62,0,0,1-.616.622.633.633,0,0,1-.179-.026l-7.161-2.091v1.939l6.64,1.939a2.476,2.476,0,0,0,3.177-2.382V218.762A2.482,2.482,0,0,0,103.378,216.38Zm20-.348a29.66,29.66,0,0,1,4.912-.382c2.529,0,4.382.588,5.559,1.647a5.329,5.329,0,0,1,1.735,4.147,5.836,5.836,0,0,1-1.529,4.236A8.214,8.214,0,0,1,128,227.855a8.8,8.8,0,0,1-2.059-.176v7.941h-2.559Zm2.559,9.558a8.57,8.57,0,0,0,2.118.206c3.088,0,4.97-1.5,4.97-4.235,0-2.618-1.852-3.882-4.676-3.882a10.748,10.748,0,0,0-2.412.206Zm25.147,2.794c0,5.265-3.647,7.559-7.088,7.559-3.853,0-6.823-2.823-6.823-7.323,0-4.764,3.117-7.559,7.058-7.559C148.323,221.061,151.088,224.032,151.088,228.384Zm-11.294.147c0,3.118,1.794,5.471,4.323,5.471,2.47,0,4.323-2.324,4.323-5.53,0-2.411-1.206-5.471-4.264-5.471S139.794,225.826,139.794,228.531Zm15.382-7.146,1.882,7.235c.412,1.589.794,3.059,1.059,4.529h.088c.323-1.441.794-2.97,1.265-4.5l2.324-7.264h2.176l2.206,7.118c.529,1.706.941,3.205,1.265,4.646h.088a42.779,42.779,0,0,1,1.088-4.617l2.029-7.146H173.2l-4.588,14.235h-2.353l-2.176-6.794a47.411,47.411,0,0,1-1.265-4.676h-.059a42,42,0,0,1-1.294,4.706l-2.294,6.764h-2.353l-4.294-14.235Zm21.764,7.588c.059,3.5,2.294,4.941,4.882,4.941a9.358,9.358,0,0,0,3.941-.735l.441,1.853a11.526,11.526,0,0,1-4.735.882c-4.382,0-7-2.882-7-7.176s2.529-7.677,6.677-7.677c4.647,0,5.882,4.088,5.882,6.706a9.789,9.789,0,0,1-.088,1.206Zm7.588-1.853c.029-1.647-.677-4.205-3.588-4.205-2.618,0-3.765,2.411-3.971,4.205Zm5.706-1.294c0-1.676-.029-3.118-.118-4.441h2.264l.088,2.794h.118a4.272,4.272,0,0,1,3.941-3.118,2.808,2.808,0,0,1,.735.088v2.441a3.875,3.875,0,0,0-.882-.088c-1.823,0-3.118,1.382-3.47,3.323a7.27,7.27,0,0,0-.118,1.206v7.588h-2.559Zm15.94-9.765a24.813,24.813,0,0,1,4.676-.412c2.558,0,4.206.441,5.441,1.441a4.156,4.156,0,0,1,1.648,3.5,4.708,4.708,0,0,1-3.353,4.353V225a5.109,5.109,0,0,1,4.088,4.97A5.343,5.343,0,0,1,217,233.943c-1.382,1.265-3.617,1.852-6.852,1.852a30.031,30.031,0,0,1-3.971-.235Zm2.559,8.117h2.323c2.706,0,4.294-1.412,4.294-3.323,0-2.323-1.765-3.235-4.353-3.235a11,11,0,0,0-2.264.177Zm0,9.5a13.659,13.659,0,0,0,2.147.118c2.647,0,5.088-.971,5.088-3.853,0-2.706-2.324-3.823-5.117-3.823h-2.117Zm15.94-17.882V235.62h-2.559V215.8Z" transform="translate(-67.5 -207.11)"/></svg>