<svg xmlns="http://www.w3.org/2000/svg" width="116" height="28.071" viewBox="0 0 116 28.071"><defs><style>.a{fill:#125cb3;}</style></defs><path class="a" d="M102.141,165.76h6.153c.7-4.425,1.424-8.938,2.15-13.386a2.186,2.186,0,0,1,.935-1.576,2.063,2.063,0,0,1,1.36-.445h4.577l2.277-3.832h-8.577a7.866,7.866,0,0,0-4.575,1.726,6.883,6.883,0,0,0-2.361,4.044L102.141,164.4Zm0-17.877v-1.362h.216Zm-.234,17.877h.234V164.4Zm.234-19.239v1.362L99.248,165.76H85.479a4.8,4.8,0,0,1-3.81-1.809,4.926,4.926,0,0,1-.915-4.148c.724-4.47,1.408-8.832,2.13-13.282h6.384l-2.084,12.9c-.193,1.085-.129,1.467.188,1.894a1.75,1.75,0,0,0,1.3.62c1.619-.026,3.235,0,4.834,0l2.486-15.389ZM68.328,165.76v-3.828h1.126a2.111,2.111,0,0,0,.638-.089,2.479,2.479,0,0,0,.79-.4,2.382,2.382,0,0,0,.872-1.383c.4-2.511.808-5,1.212-7.49a2.592,2.592,0,0,0-.021-1.149,1.708,1.708,0,0,0-.318-.534,1.435,1.435,0,0,0-1.215-.531H68.328v-3.832h5.98a4.77,4.77,0,0,1,3.914,1.6,4.359,4.359,0,0,1,.958,1.576,5.007,5.007,0,0,1,.191,2.427c-.425,2.745-.87,5.34-1.319,8.108A6.712,6.712,0,0,1,75.882,164a7.268,7.268,0,0,1-1.617,1.083,7.174,7.174,0,0,1-3,.681Zm0-19.239v3.832H65.518l-1.871,11.579h4.681v3.828H65.84a7.027,7.027,0,0,1-2.747-.447c-.341,2.384-.7,4.788-1.065,7.17l-5.81,1.832V168.7l2.214-13.767,4.237-2.214-3.533-2.361.638-3.832Zm-12.11,3.832h.32l.615-3.832h-.935Zm0-3.832v3.832H44.792A2.292,2.292,0,0,0,42.9,151.5a2.58,2.58,0,0,0-.32,1.106,1.6,1.6,0,0,0,1.617,1.617h6.791a4.726,4.726,0,0,1,3.106,1.237A4.6,4.6,0,0,1,55.5,157.95a5.046,5.046,0,0,1,.041,1.894,6.846,6.846,0,0,1-.656,2.127,7.14,7.14,0,0,1-1.916,2.32,7.068,7.068,0,0,1-4.13,1.469H34.6l.618-3.828H46.964a2.144,2.144,0,0,0,1.467-.62,2.392,2.392,0,0,0,.745-1.426,1.756,1.756,0,0,0-.531-1.469,1.6,1.6,0,0,0-1.087-.361c-2.275-.026-4.339,0-6.616,0a4.751,4.751,0,0,1-4.407-2.958,5.445,5.445,0,0,1-.341-2.384,6.9,6.9,0,0,1,.938-2.831A7.056,7.056,0,0,1,43,146.521Zm0,22.175v5.619l-.956.277ZM12.809,165.76v-1.553l2.829-17.686H29.6a4.805,4.805,0,0,1,4.638,5.279Q33.119,158.791,32,165.76H25.641l2.148-13.406a1.7,1.7,0,0,0-.341-1.469,1.634,1.634,0,0,0-1.256-.531H21.384L18.916,165.76Zm0-17.663.234-1.576h-.234Zm0-1.576V148.1L9.957,165.76H3.593l1.723-10.832,4.257-2.214-3.512-2.361.618-3.832Zm0,17.686-.257,1.553h.257Z" transform="translate(-3.593 -146.52)"/></svg>