<svg xmlns="http://www.w3.org/2000/svg" width="50.331" height="50.331" viewBox="0 0 50.331 50.331"><defs><style>.a{fill:#ffe52b;}.b{fill:gray;}.c{fill:#231f20;}</style></defs><path class="a" d="M0,50.331H50.331V0H0Z"/><path class="b" d="M52.3,22.4a.865.865,0,1,0,.865.865A.873.873,0,0,0,52.3,22.4Zm-.55,10.459h1.18v-7h-1.18Zm-5.9-6.055a2.313,2.313,0,0,1,2.359,2.517,2.343,2.343,0,1,1-4.64,0A2.34,2.34,0,0,1,45.849,26.8Zm3.46-.944h-1.18v1.022a3.057,3.057,0,0,0-2.438-1.18,3.434,3.434,0,0,0-3.382,3.7,3.482,3.482,0,0,0,3.382,3.7,2.946,2.946,0,0,0,2.438-1.18v.944h1.18v-7Zm-9.044,5.5a.861.861,0,0,0-.865.786.865.865,0,1,0,1.73,0A.861.861,0,0,0,40.265,31.365Z" transform="translate(-8.415 -4.784)"/><path d="M9.359,27.939V24.4H7v9.123H9.359v-3.7h3.382v3.7H15.1V24.4H12.741v3.539Z" transform="translate(-1.495 -5.211)"/><g transform="translate(14.806 18.874)"><path class="c" d="M3.146,14.226l1.022-.944A2.764,2.764,0,0,0,5.19,11.159,2.4,2.4,0,0,0,2.674,8.8,2.353,2.353,0,0,0,.157,11.317H2.045V11c0-.472.236-.786.708-.786a.793.793,0,0,1,.708.865,3.131,3.131,0,0,1-.708,1.651L0,15.642H5.269V14.226H3.146" transform="translate(0 -1.879)"/><path class="c" d="M12.033,2.281a2.592,2.592,0,0,1,2.6,2.438,2.6,2.6,0,1,1-5.19,0,2.592,2.592,0,0,1,2.6-2.438m0-2.281A4.9,4.9,0,0,0,7,4.719a4.831,4.831,0,0,0,5.033,5.033,4.878,4.878,0,1,0,0-9.752" transform="translate(-1.495 0)"/></g></svg>