<svg xmlns="http://www.w3.org/2000/svg" xmlns:xlink="http://www.w3.org/1999/xlink" width="543.517" height="514.936" viewBox="0 0 543.517 514.936"><defs><style>.a{fill:url(#a);}.b{fill:#eef3f6;}.c{fill:#3c357f;}.aa,.ab,.d,.q{fill:#29abe2;}.e{fill:url(#c);}.f{fill:url(#d);}.g{fill:#fff;}.h{fill:#24126a;}.i{fill:#555993;}.aa,.i,.z{opacity:0.5;}.j,.k,.l{fill:#79d6fe;}.k{opacity:0.2;}.l,.o,.q{opacity:0.6;}.m{opacity:0.3;}.n{fill:url(#e);}.p{fill:url(#f);}.r{fill:#bcbeff;}.s{fill:url(#g);}.t{fill:url(#h);}.u{fill:#2664aa;}.v{fill:url(#i);}.w{fill:url(#j);}.x{fill:url(#k);}.y{fill:#2f79c1;}.ab{opacity:0.8;}</style><linearGradient id="a" x1="1.211" y1="-0.829" x2="0.421" y2="1.219" gradientUnits="objectBoundingBox"><stop offset="0" stop-color="#79d6fe"/><stop offset="1" stop-color="#1ab1f2"/></linearGradient><linearGradient id="c" x1="-8.652" y1="15.276" x2="-7.446" y2="14.297" gradientUnits="objectBoundingBox"><stop offset="0" stop-color="#5786d7"/><stop offset="0.178" stop-color="#5b91d8"/><stop offset="0.388" stop-color="#6aa4de"/><stop offset="0.613" stop-color="#81b8e8"/><stop offset="0.849" stop-color="#a2ccf5"/><stop offset="1" stop-color="#bcceff"/></linearGradient><linearGradient id="d" x1="548.69" y1="74.561" x2="548.69" y2="73.983" gradientUnits="objectBoundingBox"><stop offset="0" stop-color="#c0bff6"/><stop offset="0.294" stop-color="#c4c3f6"/><stop offset="0.64" stop-color="#d2d2f9"/><stop offset="1" stop-color="#e9e9fd"/></linearGradient><radialGradient id="e" cx="101.041" cy="1029.895" r="46.312" gradientTransform="matrix(0.981, 0.194, -0.194, 0.981, 159.269, 89.067)" gradientUnits="userSpaceOnUse"><stop offset="0" stop-color="#c0bff6"/><stop offset="1" stop-color="#393091"/></radialGradient><radialGradient id="f" cx="1105.287" cy="988.832" r="84.244" gradientTransform="translate(-117.033 -493.111) scale(1.169 1.592)" xlink:href="#e"/><radialGradient id="g" cx="94.937" cy="49.796" r="98.802" gradientTransform="matrix(1, 0, 0, 1, 0, 0)" xlink:href="#e"/><radialGradient id="h" cx="1368.521" cy="381.717" r="38.333" gradientTransform="translate(-203.281 -56.113) scale(1.224 1.224)" xlink:href="#e"/><radialGradient id="i" cx="143.145" cy="942.896" r="46.312" gradientTransform="matrix(0.981, 0.194, -0.194, 0.981, 143.175, 79.236)" xlink:href="#e"/><radialGradient id="j" cx="2569.664" cy="4235.042" r="24.072" gradientTransform="matrix(1.624, 0.194, -0.319, 2.675, -14.267, -7130.327)" xlink:href="#e"/><radialGradient id="k" cx="-3204.022" cy="1545.899" r="51.719" gradientTransform="matrix(0.366, 0.668, -1.1, 0.603, -755.243, 2918.651)" xlink:href="#e"/></defs><g transform="translate(-763.432 -215.891)"><g transform="translate(763.432 313.892)"><path class="a" d="M11,42.827a11,11,0,0,1-11-11V11A11,11,0,0,1,11,0H168.251l-5.1,9.652V31.828a11,11,0,0,1-11,11Z" transform="translate(0 0)"/><rect class="b" width="134.601" height="5.099" rx="2.549" transform="translate(13.256 12.236)"/><rect class="b" width="86.675" height="4.079" rx="2.039" transform="translate(13.256 26.512)"/></g><g transform="translate(763.432 215.892)"><path class="a" d="M11,42.827a11,11,0,0,1-11-11V11A11,11,0,0,1,11,0H168.251l-5.1,9.652V31.828a11,11,0,0,1-11,11Z" transform="translate(0 0)"/><rect class="b" width="134.601" height="5.099" rx="2.549" transform="translate(13.256 12.236)"/><rect class="b" width="86.675" height="4.079" rx="2.039" transform="translate(13.256 26.512)"/></g><g transform="translate(947.999 265.828)"><path class="c" d="M152.227,42.827H11a11,11,0,0,1-11-11V11A11,11,0,0,1,11,0H152.152a11,11,0,0,1,11,11V33.176l5.1,9.651Z" transform="translate(168.251 42.827) rotate(180)"/><rect class="b" width="134.601" height="5.099" rx="2.549" transform="translate(20.394 12.236)"/><rect class="b" width="87.695" height="4.079" rx="2.039" transform="translate(67.301 26.512)"/></g><g transform="translate(792.333 313.854)"><circle class="d" cx="3.934" cy="3.934" r="3.934" transform="translate(42.65 76)"/><path class="d" d="M477.125,58.171a5.433,5.433,0,1,1-7.683,0A5.433,5.433,0,0,1,477.125,58.171Z" transform="translate(-98.297 -49.157)"/><g transform="translate(0 13.236)"><g transform="translate(0 95.244)"><path class="e" d="M292.831,339.918l.052,11.253.029-.015a2.8,2.8,0,0,0,1.6,2.266l160.5,92.41c2.413,1.389,6.626,1.21,9.409-.4L805.15,248.169c1.534-.888,2.283-2.024,2.269-3.1l.028.016-.05-11.24-17.76,9.81-144.32-83.093c-2.413-1.389-6.626-1.21-9.409.4L309.645,349.85c.837-.917,1.441-1.6,1.444-1.646C311.1,348.039,292.831,339.918,292.831,339.918Z" transform="translate(-292.83 -138.275)"/><path class="f" d="M401.138,355.97l-.068-45.724-7.324-4.217.073,50.162A10.88,10.88,0,0,0,401.138,355.97Z" transform="translate(-230.767 -48.237)"/><path class="b" d="M645.268,147.341l160.5,92.41c2.413,1.389,2.114,3.823-.669,5.433L464.372,442.447c-2.783,1.61-7,1.791-9.409.4l-160.5-92.41c-2.413-1.389-2.114-3.823.67-5.433L635.859,147.742C638.642,146.132,642.856,145.951,645.268,147.341Z" transform="translate(-292.83 -146.406)"/><path class="g" d="M454.956,406.616l-160.5-92.41c-1.436-.827-1.89-2.022-1.453-3.194a3.054,3.054,0,0,0,1.542,1.8l160.5,92.412c2.414,1.389,6.626,1.21,9.411-.4L805.182,207.56a4.6,4.6,0,0,0,2.122-2.24c.328,1.221-.418,2.6-2.209,3.632L464.365,406.215C461.583,407.825,457.369,408.006,454.956,406.616Z" transform="translate(-292.823 -110.173)"/><path class="h" d="M611.121,153.428l169.242,97.443L474.2,428.123,304.956,330.68Z" transform="translate(-285.373 -142.087)"/><path class="h" d="M611.121,153.428l169.242,97.443L474.2,428.123,304.956,330.68Z" transform="translate(-285.373 -142.087)"/><path class="i" d="M611.121,153.428l169.242,97.443L474.2,428.123,304.956,330.68Z" transform="translate(-285.373 -142.087)"/><path class="d" d="M346.175,291.722l30.669,17.6c.893.514,1.408,1.095.846,1.8a2.85,2.85,0,0,1-.806.665h0a5.177,5.177,0,0,1-4.658.2l-30.938-17.813c-.092-.053-.231-.076-.255-.17-.252-.98-.169-1.214,1.1-1.949l.426-.087A3.245,3.245,0,0,1,346.175,291.722Z" transform="translate(-263.256 -57.309)"/><path class="j" d="M341.2,294.164a2.841,2.841,0,0,1,.8-.662,5.176,5.176,0,0,1,4.658-.2L377.6,311.117a2.016,2.016,0,0,1,.249.181,1.259,1.259,0,0,0-.472-2.028L346.44,291.457a5.176,5.176,0,0,0-4.658.2C340.516,292.389,340.3,293.461,341.2,294.164Z" transform="translate(-263.419 -57.483)"/></g><g transform="translate(110.688 261.451)"><path class="k" d="M373.786,260.169l-11.1-6.407c-1.76-1.016-1.76-2.663,0-3.679h0a7.034,7.034,0,0,1,6.373,0l11.1,6.407c1.76,1.016,1.76,2.663,0,3.681h0A7.039,7.039,0,0,1,373.786,260.169Z" transform="translate(-361.367 -249.32)"/><path class="l" d="M388.006,268.379l-11.1-6.407c-1.76-1.016-1.76-2.663,0-3.679h0a7.035,7.035,0,0,1,6.373,0l11.1,6.407c1.76,1.016,1.76,2.663,0,3.681h0A7.039,7.039,0,0,1,388.006,268.379Z" transform="translate(-352.622 -244.271)"/><path class="j" d="M402.226,276.589l-11.1-6.407c-1.759-1.016-1.759-2.663,0-3.679h0a7.042,7.042,0,0,1,6.374,0l11.1,6.407c1.76,1.016,1.76,2.663,0,3.681h0A7.043,7.043,0,0,1,402.226,276.589Z" transform="translate(-343.876 -239.222)"/><path class="l" d="M416.446,284.8l-11.1-6.407c-1.76-1.016-1.76-2.663,0-3.679h0a7.037,7.037,0,0,1,6.374,0l11.1,6.407c1.759,1.016,1.759,2.663,0,3.679h0A7.038,7.038,0,0,1,416.446,284.8Z" transform="translate(-335.131 -234.173)"/><path class="k" d="M430.667,293.01l-11.1-6.408c-1.76-1.016-1.76-2.663,0-3.679h0a7.045,7.045,0,0,1,6.373,0l11.1,6.407c1.76,1.016,1.76,2.663,0,3.681h0A7.044,7.044,0,0,1,430.667,293.01Z" transform="translate(-326.386 -229.123)"/></g><g transform="translate(71.147)"><g transform="translate(87.772 189.674)"><ellipse class="k" cx="93.562" cy="54.018" rx="93.562" ry="54.018"/><ellipse class="j" cx="53.079" cy="30.645" rx="53.079" ry="30.645" transform="translate(40.484 23.373)"/></g><g class="m"><path class="j" d="M523.816,130.688c1.163,6.576,6.042,23.106,26.167,34.538,28.648,13.23,48.492,30.62,55.141,50.038a44.752,44.752,0,0,0,1.728,4.183c.714-1.177.714-1.177.717-4.025v-32.6c-.013-19.143-1.085-23.361-2.445-28.705-6.649-19.417-26.492-36.808-55.141-50.038C527.129,96.7,521.6,118.13,523.816,130.688Z" transform="translate(-222.198 -78.12)"/><path class="j" d="M404.1,100.884c30.331-8.8,66.212-13.752,104.508-13.438q7.58.063,15.007.394c33.628,3.072,45.588,38.586,25.313,54.122-9.306,7.132-20.523,7.056-25.313,7.025q-7.422-.332-15.007-.394c-38.3-.315-74.177,4.638-104.508,13.438-30.625,7.46-32.434-23.663-21.723-42.7,3.6-6.4,10.294-14.8,21.723-18.447Z" transform="translate(-312.562 -87.431)"/><path class="j" d="M336.884,217.686c.835-9.692,1.5-17.348,11.363-30.708,20.8-30.695,16.6-66.37,5.11-64.723-1.852.266-3.778,2.263-5.11,3.576-6.985,9.1-10.953,18.887-11.332,29.1-.021.538-.031,1.076-.031,1.61v61.147Z" transform="translate(-336.884 -66.048)"/></g><g transform="translate(30.328 20.47)"><rect class="j" width="7.146" height="60.988" transform="translate(212.909 141.376) rotate(-22.035)"/><g transform="translate(71.492)"><g transform="translate(0.181 90.427)"><path class="n" d="M519.776,199.583a22.2,22.2,0,1,1-17.465-26.089A22.2,22.2,0,0,1,519.776,199.583Z" transform="translate(-475.798 -173.068)"/></g><g class="o" transform="translate(0 90.162)"><circle class="d" cx="22.199" cy="22.199" r="22.199"/></g><g transform="translate(22.199 89.193)"><path class="p" d="M528.307,211.339c0,43.091-25.662,78.024-57.317,78.024s-57.315-34.933-57.315-78.024,25.661-56.005,57.315-56.005S528.307,168.248,528.307,211.339Z" transform="translate(-413.676 -155.334)"/></g><g class="o" transform="translate(22.199 89.193)"><path class="d" d="M528.307,211.339c0,43.091-25.662,78.024-57.317,78.024s-57.315-34.933-57.315-78.024,25.661-56.005,57.315-56.005S528.307,168.248,528.307,211.339Z" transform="translate(-413.676 -155.334)"/></g><ellipse class="q" cx="39.117" cy="22.584" rx="39.117" ry="22.584" transform="translate(40.397 89.777)"/><path class="j" d="M436.4,168.326c15.276-8.82,40.044-8.818,55.32,0,6.31,3.642,10,8.22,11.1,12.962,1.559-6.738-2.137-13.8-11.1-18.978-15.276-8.82-40.044-8.821-55.32,0-8.967,5.178-12.662,12.242-11.1,18.978C426.393,176.547,430.088,171.969,436.4,168.326Z" transform="translate(-384.544 -65.919)"/><path class="q" d="M427.118,154.6l7.077-12.192a39.477,39.477,0,0,0,9.18-15.816l7.166-12.348-10.307-5.917a7.807,7.807,0,0,0-1.035-.594l0,0h0c-2.931-1.387-6.827-1.016-11.1,1.454-9.112,5.26-16.5,18.054-16.5,28.574,0,5.258,1.844,8.954,4.827,10.678h0l0,0h0Z" transform="translate(-392.757 -95.909)"/><ellipse class="r" cx="23.332" cy="13.471" rx="23.332" ry="13.471" transform="translate(22.618 51.914) rotate(-59.999)"/><g transform="translate(23.332)"><circle class="s" cx="58.456" cy="58.456" r="58.456"/></g><g class="o" transform="translate(23.332)"><circle class="d" cx="58.456" cy="58.456" r="58.456"/></g><path class="t" d="M476.739,178.935l7.077-12.193A39.438,39.438,0,0,0,493,150.926l7.166-12.347-10.307-5.917a7.719,7.719,0,0,0-1.034-.594l-.007,0h0c-2.931-1.387-6.825-1.016-11.1,1.452-9.112,5.26-16.5,18.054-16.5,28.576,0,5.258,1.844,8.952,4.827,10.677v0l0,0v0Z" transform="translate(-362.24 -80.945)"/><path class="q" d="M476.739,178.935l7.077-12.193A39.438,39.438,0,0,0,493,150.926l7.166-12.347-10.307-5.917a7.719,7.719,0,0,0-1.034-.594l-.007,0h0c-2.931-1.387-6.825-1.016-11.1,1.452-9.112,5.26-16.5,18.054-16.5,28.576,0,5.258,1.844,8.952,4.827,10.677v0l0,0v0Z" transform="translate(-362.24 -80.945)"/><ellipse class="d" cx="23.332" cy="13.471" rx="23.332" ry="13.471" transform="translate(102.757 91.209) rotate(-59.999)"/><path class="d" d="M468.547,166.014c0-10.522,7.385-23.314,16.5-28.576a13.892,13.892,0,0,1,8.614-2.172c-2.662-.588-5.89.027-9.372,2.037-9.112,5.262-16.5,18.056-16.5,28.576,0,6.877,3.156,11.077,7.886,11.7C471.368,176.623,468.547,172.514,468.547,166.014Z" transform="translate(-358.198 -78.614)"/><path class="u" d="M494.289,147.232c0,7.521-5.281,16.665-11.794,20.427s-11.793.712-11.793-6.809,5.279-16.665,11.793-20.427S494.289,139.713,494.289,147.232Z" transform="translate(-356.406 -76.302)"/><path class="j" d="M488.535,138.921a9.671,9.671,0,0,1,1.932,6.35c0,7.521-5.279,16.665-11.793,20.427a9.425,9.425,0,0,1-6.775,1.437c2.108,2.485,5.735,2.838,9.86.457,6.513-3.761,11.794-12.905,11.794-20.427C493.553,142.558,491.568,139.633,488.535,138.921Z" transform="translate(-355.67 -76.236)"/><g transform="translate(23.295 43.957)"><ellipse class="u" cx="14.842" cy="25.707" rx="14.842" ry="25.707" transform="translate(0 11.407) rotate(-22.6)"/><path class="j" d="M439.217,152.426c-.543,4.178-3.7,5.491-7.042,2.931a14.6,14.6,0,0,1-5.078-12.2c.543-4.178,3.7-5.489,7.043-2.931A14.6,14.6,0,0,1,439.217,152.426Z" transform="translate(-406.566 -120.193)"/><path class="j" d="M437.107,173.969c-9.209-7.041-15.464-22.069-13.97-33.565.609-4.687,2.411-8.062,4.958-9.939-4.816.452-8.461,4.535-9.38,11.615-1.494,11.494,4.761,26.522,13.97,33.563,5.455,4.172,10.722,4.6,14.422,1.875C444.1,177.8,440.645,176.674,437.107,173.969Z" transform="translate(-411.808 -125.393)"/><path class="j" d="M433.478,175.031c-9.209-7.041-15.464-22.067-13.97-33.563.691-5.321,2.923-8.95,6.034-10.615-3.522,1.449-6.077,5.226-6.827,10.99-1.494,11.5,4.761,26.522,13.97,33.563,4.945,3.781,9.73,4.48,13.338,2.547C442.522,179.393,438.068,178.541,433.478,175.031Z" transform="translate(-411.808 -125.155)"/></g><g transform="translate(122.526 117.833)"><path class="v" d="M519.776,199.583a22.2,22.2,0,1,1-17.465-26.089A22.2,22.2,0,0,1,519.776,199.583Z" transform="translate(-475.798 -173.068)"/></g><g class="o" transform="translate(122.526 117.833)"><path class="d" d="M519.776,199.583a22.2,22.2,0,1,1-17.465-26.089A22.2,22.2,0,0,1,519.776,199.583Z" transform="translate(-475.798 -173.068)"/></g></g><path class="w" d="M523.177,240.359c-1.258,10.548-10.575,30.527-19.007,29.521s-12.784-22.617-11.526-33.164,9.115-18.285,17.545-17.279S524.436,229.81,523.177,240.359Z" transform="translate(-271.551 -26.772)"/><path class="q" d="M523.177,240.359c-1.258,10.548-10.575,30.527-19.007,29.521s-12.784-22.617-11.526-33.164,9.115-18.285,17.545-17.279S524.436,229.81,523.177,240.359Z" transform="translate(-271.551 -26.772)"/><path class="j" d="M378.666,202.19a3.573,3.573,0,0,1-1.66-6.738l45.835-23.986a3.572,3.572,0,1,1,3.312,6.331l-45.835,23.984A3.56,3.56,0,0,1,378.666,202.19Z" transform="translate(-343.716 -56.47)"/><path class="x" d="M391.419,209.939c-9.315,5.107-30.989,9.138-35.07,1.691s10.974-23.548,20.289-28.655,20.176-3.209,24.257,4.236S400.736,204.834,391.419,209.939Z" transform="translate(-355.663 -50.906)"/><path class="y" d="M391.419,209.939c-9.315,5.107-30.989,9.138-35.07,1.691s10.974-23.548,20.289-28.655,20.176-3.209,24.257,4.236S400.736,204.834,391.419,209.939Z" transform="translate(-355.663 -50.906)"/></g><g class="z" transform="translate(0 90.491)"><path class="j" d="M359.284,222.535c-1.4,11.224-7.217,17.9-13.337,9.542-7.846-10.722-8.608-21.2-9.063-27.466V143.463c0,9.566,3.175,18.8,9.063,27.466,12.933,21.392,14.469,42.5,13.337,51.606Z" transform="translate(-336.884 -143.463)"/><path class="j" d="M518.477,205.6q-7.238.2-14.611.136c-38.445-.315-74.064-5.895-103.791-15.25-29.7-7.933-31.489,23.138-21.126,42.329,7.38,13.664,17.366,17.408,21.126,18.818,29.727,9.356,65.346,14.936,103.791,15.25q7.367.061,14.611-.136c34.891-2.573,44.028-36.082,27.722-51.722-4.551-4.365-13.054-9.545-27.722-9.425Z" transform="translate(-314.543 -115.324)"/><path class="j" d="M609.757,179.847c-.17,26.442-1.722,31.257-3.687,37.35-8.172,19.281-29.367,36.315-59.037,49.04-25.974,7.663-33.148-19.327-22.584-39.338a51.933,51.933,0,0,1,22.584-21.809c29.669-12.723,50.865-29.758,59.037-49.04a32.1,32.1,0,0,1,2.245-4.141l.666-.087c.5,1.415.711,2,.777,9.217v18.808Z" transform="translate(-224.416 -138.322)"/></g></g><circle class="aa" cx="2.966" cy="2.966" r="2.966" transform="translate(330.836 60.614)"/><circle class="aa" cx="2.966" cy="2.966" r="2.966" transform="translate(114.034 210.082)"/><path class="ab" d="M404.325,147a1.548,1.548,0,1,1-1.549-1.549A1.548,1.548,0,0,1,404.325,147Z" transform="translate(-226.165 -51.752)"/></g></g></g></svg>