<svg xmlns="http://www.w3.org/2000/svg" xmlns:xlink="http://www.w3.org/1999/xlink" width="584.838" height="306" viewBox="0 0 584.838 306"><defs><style>.a{fill:url(#a);}.b{fill:url(#b);}.am,.c{fill:#fff;}.d{fill:url(#f);}.e{fill:url(#g);}.f{fill:#eb4747;}.g{fill:#b7ceff;}.h{fill:#eea886;}.i{fill:#e8e8e8;}.j{fill:#303669;}.k{fill:#3a3f47;}.l{fill:#a77860;}.m{fill:#b0b0b0;}.n{fill:#444c94;}.o{fill:#518afa;}.p{fill:#faa146;}.q{fill:#5478b3;}.r{fill:#e55353;}.s{fill:#5779d4;}.t{fill:#434343;}.u{fill:#b57433;}.v{fill:#525252;}.w{fill:#6e6e6e;}.x{fill:#5c5049;}.y{fill:#fab46c;}.z{fill:#fccca2;}.aa{fill:#d4c3bd;}.ab{fill:#de9673;}.ac{fill:#2f4563;}.ad{fill:#e6d3cc;}.ae{fill:#ded1c5;}.af{fill:#bc8551;}.ag{fill:#23344a;}.ah{fill:#807066;}.ai,.aj,.ak,.aq{fill:none;}.ai{stroke:#29abe2;}.ai,.aj,.ak{stroke-width:2px;}.aj{stroke:#7f7a97;}.ak{stroke:#90218a;}.al{fill:#29abe2;}.am{font-size:9px;font-family:Cairo-Regular, Cairo;}.an{fill:#7f7a97;}.ao{fill:#90218a;}.ap{stroke:none;}</style><linearGradient id="a" x1="0.502" y1="0.452" x2="0.499" y2="-0.078" gradientUnits="objectBoundingBox"><stop offset="0" stop-color="#ffebe3"/><stop offset="1" stop-color="#eddad4"/></linearGradient><linearGradient id="b" y1="0.5" x2="1" y2="0.5" gradientUnits="objectBoundingBox"><stop offset="0" stop-color="#40d5e6"/><stop offset="1" stop-color="#57f"/></linearGradient><linearGradient id="f" y1="0.5" x2="1" y2="0.5" gradientUnits="objectBoundingBox"><stop offset="0" stop-color="#ff9340"/><stop offset="1" stop-color="#ffce45"/></linearGradient><linearGradient id="g" y1="0.5" x2="1" y2="0.5" gradientUnits="objectBoundingBox"><stop offset="0" stop-color="#c97332"/><stop offset="1" stop-color="#ffce45"/></linearGradient></defs><g transform="translate(15596.907 -9953)"><path class="a" d="M89.317,346.407h548.6s43.2-2.731,20.864,26.083-159.461-.981-212.749,40.278-193.89-5.914-263.834-9.35-83.153.175-85.082-25.036S66.065,346.993,89.317,346.407Z" transform="translate(-15677.265 9829.407)"/><g transform="translate(-15439.657 9989.136)"><path class="b" d="M214.826,178.415c5.907-2.824,11.787,15.982,11.787,15.982,10.042,13.268,24.074-4.382,22.7,15.452-2.4,34.707,39.948,10.914,20.41,47.148s17.252,20.489,5.111,49.706,3.594,64.065-14.674,49.744c0,0-16.087-35.275-32.676-46.189s9.939-23.865,4.749-38.689c-7.539-21.531-25.7-20.684-12.607-43.823S194.743,188.018,214.826,178.415Z" transform="translate(-208.84 -178.125)"/><g transform="translate(23.781 36.795)"><path class="c" d="M263.6,339.544c-7.92-5.568-17.186-44.378-17.74-67.5-.284-11.841-3.783-16.775-6.873-21.128-2.951-4.16-5.5-7.753-4.017-16,2.84-15.769-4.623-22.575-4.7-22.639l.863-.986c.333.291,8.1,7.311,5.125,23.857-1.389,7.708.9,10.932,3.8,15.013,3.037,4.282,6.822,9.613,7.112,21.852.595,24.81,10.07,61.454,17.185,66.458Z" transform="translate(-230.276 -211.293)"/></g><g transform="translate(50.26 90.182)"><path class="b" d="M263.955,337.158a16.815,16.815,0,0,1-3.348-.364c-3.052-.616-5.053-2.227-5.947-4.786-2.135-6.1,2.811-16.022,6.825-20.8a30.524,30.524,0,0,0,6.069-19.675c-.121-1.907-.317-3.674-.493-5.231-.5-4.505-.871-7.76,1.065-9.933,1.705-1.916,5-2.746,11-2.775,10.539-.05,14.707-4.413,18.055-7.919a19.12,19.12,0,0,1,4.4-3.786h0c5.252-2.868,10.815-3.288,13.228-1,1.146,1.087,2.113,3.215.215,7.183a27.711,27.711,0,0,1-5.793,7.766c-2.432,2.483-4.038,4.122-3.2,7.391.194.767.422,1.541.649,2.319,1.625,5.558,3.467,11.856-6.045,16.131-2.018.905-3.855,1.629-5.478,2.265-6.64,2.6-10.647,4.178-15.171,13.727-.875,1.848-1.649,3.6-2.4,5.294C274.025,331.043,271.326,337.157,263.955,337.158Zm38.257-74.121a17.936,17.936,0,0,0-4.078,3.541c-3.52,3.685-7.9,8.271-19,8.326-5.525.026-8.619.746-10.033,2.333-1.545,1.738-1.209,4.749-.743,8.917.177,1.572.377,3.356.5,5.3a31.279,31.279,0,0,1-6.372,20.6c-3.976,4.733-8.476,14.15-6.594,19.532a6.079,6.079,0,0,0,4.972,3.935c8.956,1.809,11.428-3.794,15.526-13.079.751-1.7,1.529-3.462,2.411-5.327,4.746-10.019,9.173-11.757,15.876-14.385,1.609-.632,3.431-1.348,5.42-2.241,8.47-3.807,6.942-9.035,5.325-14.568-.232-.791-.461-1.582-.662-2.362-1.021-3.983.992-6.035,3.534-8.632a26.206,26.206,0,0,0,5.547-7.415c.861-1.8,1.57-4.24.067-5.666-1.979-1.877-7.009-1.361-11.7,1.2Z" transform="translate(-254.145 -259.417)"/></g><g transform="translate(55.555 100.64)"><path class="b" d="M260.226,343.688l-1.308-.068c.065-1.228,1.715-30.194,13.345-38.669,12.758-9.3,16.78-19.3,18.7-26,2.258-7.9,13.747-10.017,14.235-10.1l.227,1.291c-.11.019-11.171,2.058-13.2,9.172-1.968,6.894-6.1,17.162-19.184,26.7C261.9,314.121,260.241,343.394,260.226,343.688Z" transform="translate(-258.918 -268.844)"/></g><path class="b" d="M288.471,204.767c-8.265-2.834-6.547,13.1-10.041,24.883s-38.855,5.143-24.01,34.659-18.773,9.872-8.733,35.63.874,53.3,11.789,46.3,6.132-39.444,17.48-43.3,13.2-8.348,1.966-18.826,29.448-20.882,19.406-42.037S298.02,208.04,288.471,204.767Z" transform="translate(-205.018 -175.248)"/><g transform="translate(52.386 66.466)"><path class="c" d="M261.2,341.328c-1.041-4.411-9.917-43.216-1.635-47.906,7.3-4.135,7.122-20.215,5.983-35.4-1.007-13.441,16.254-19.723,16.99-19.985l.438,1.235c-.17.061-17.055,6.21-16.121,18.653,1.169,15.593,1.295,32.141-6.643,36.634-6.291,3.563-.5,34.749,2.263,46.466Z" transform="translate(-256.061 -238.039)"/></g><path class="d" d="M282.553,318.689l-11.8,44.772H244.38l-11.8-44.772Z" transform="translate(-206.243 -162.752)"/><path class="e" d="M282.554,318.689s-25.98,4.878-25.98,44.772H244.379l-11.8-44.772Z" transform="translate(-206.243 -162.752)"/></g><g transform="translate(-15206.246 9993.314)"><g transform="translate(0.205 15.205)"><path class="f" d="M768.627,267.964c-.028,70.265-2,84.019-19.64,99.762-6.91,6.166-19.618,18.972-56.285,25.349a274.693,274.693,0,0,1-39.983,3.653,133.249,133.249,0,0,1-17.79-.66,92.766,92.766,0,0,1-12.575-2.2c-40.3-10.1-43.31-44.626-25.684-73.671a167.4,167.4,0,0,1,15.594-21.355c8.632-10.182,17.886-19.225,26.267-27.667,7.724-7.779,14.708-15.047,19.785-22.223a55.917,55.917,0,0,0,5.318-9.052c.325-.714.656-1.423.986-2.123,1.086-2.283,2.2-4.479,3.327-6.579,2.117-3.943,4.272-7.547,6.352-10.773,1.657-2.576,3.267-4.909,4.765-6.98a114.991,114.991,0,0,1,8.968-11.106s.476-.224,1.358-.589c.467-.2,1.054-.433,1.743-.7.277-.106.568-.217.879-.331s.628-.23.966-.351c.31-.108.632-.222.963-.334.391-.135.8-.27,1.22-.408.249-.08.5-.162.761-.242l.464-.145.179-.054a79.982,79.982,0,0,1,20.218-3.553C739.941,194.813,768.655,206.232,768.627,267.964Z" transform="translate(-586.424 -195.599)"/></g><g transform="translate(75.051 189.797)"><path class="g" d="M667.5,356.535a43.575,43.575,0,0,0,1.341,6.786c.767,2.078,4.922,6.873,3.166,11.48-1.9,5-10.211.182-13.6-1.343s-2.617-4.289-2.977-7.677-2.016-3.478-1.4-5.861,4.315-6.941,4.315-6.941Z" transform="translate(-653.891 -352.978)"/></g><g transform="translate(79.032 187.333)"><path class="h" d="M659.549,350.757s-2.128,2.976-2.068,3.059,9.11,5.592,9.74,3.8a18.436,18.436,0,0,0,.711-3.477Z" transform="translate(-657.48 -350.757)"/></g><g transform="translate(35.825 196.532)"><path class="g" d="M633.124,359.2a34.235,34.235,0,0,0-5.241,6.14c-2.479,3.719-9.064,3.916-9.344,8.995s8.949,5.233,13.8,3.58,5.579-6.611,8.51-7.852,4.454-2.243,4.228-4.664a29.479,29.479,0,0,0-1.847-6.35,20.3,20.3,0,0,1-2.891.7A24.021,24.021,0,0,1,633.124,359.2Z" transform="translate(-618.532 -359.049)"/></g><g transform="translate(49.358 44.301)"><path class="i" d="M665.013,236.641s-1.857,11.047-3.355,18.343h0a43.828,43.828,0,0,1-1.5,6.038c-.429.929-3.916,4.672-8.182,9.067C644.493,277.8,634.6,287.5,634.6,287.5l-3.87-7.342s8.787-10.3,14.745-17.174c2.758-3.179,4.909-5.627,5.3-5.979,1.245-1.114,2.691-12.092,4.724-21.137s6.1-14.045,6.1-14.045Z" transform="translate(-630.731 -221.826)"/></g><g transform="translate(49.358 85.462)"><path class="h" d="M651.981,266.031c-7.488,7.707-17.38,17.414-17.38,17.414l-3.87-7.342s8.787-10.3,14.745-17.174A12.5,12.5,0,0,1,651.981,266.031Z" transform="translate(-630.731 -258.929)"/></g><g transform="translate(50.416 193.3)"><path class="h" d="M632.12,356.135l-.435,3.384a16.684,16.684,0,0,0,10.1-.151l.109-3.008Z" transform="translate(-631.685 -356.135)"/></g><g transform="translate(68.172 38.009)"><path class="i" d="M698.592,286.63c.277.983-50.9,0-50.9,0s14.157-10.3,15.074-13.057-3.605-19.271-4.195-24.645c-.471-4.3-1.654-23.542,1.179-26.482,2.963-3.072,13.633-6.292,13.633-6.292l15.558.579a24.322,24.322,0,0,1,4.4,1.388c1.835.852,12.331,4.591,14.035,9.833s-10.472,22.1-10.472,22.1-.023.758-.06,2h0c-.047,1.655-.116,4.171-.181,6.9-.081,3.536-.152,7.427-.152,10.269A101.777,101.777,0,0,0,698.592,286.63Z" transform="translate(-647.69 -216.154)"/></g><g transform="translate(32.143 105.836)"><path class="j" d="M702.147,279.945s6.962,10.224,7.06,17.2-12.355,30.361-14.239,33.7c-5.666,10.055-21.2,31.742-21.2,31.742s-2.678-.068-11.034-3.313c0,0,10.335-28.647,11.644-31.621,5.556-12.614,8.657-21.56,6.79-23.724s-6.961-4.332-8.437-5.61-27.165,4.856-29.856,5.554c-6.971,1.807-3.793,13.936-2.252,19.375,2.58,9.1,4.837,41.947,4.837,41.947s-4.966,2.117-13.284.33c0,0-16.33-59.32-16.852-65.219s-.783-15.627,39.459-23.021Z" transform="translate(-615.213 -277.294)"/></g><g transform="translate(87.256 3.999)"><path class="h" d="M675.769,185.709s-13.5-3.046-10.418,13.948,6.333,18.329,14.477,14.812,7.419-14.4,7.828-19.743S680.078,185.894,675.769,185.709Z" transform="translate(-664.893 -185.497)"/></g><g transform="translate(94.56 20.961)"><path class="h" d="M671.477,222.2s5.981,6.34,15.431.577c0,0-2.115-13.741-1-20.431s-12.332,10.368-12.332,10.368c.175.093.293.732.319,1.642a17.87,17.87,0,0,1-.14,2.722C673.478,219.3,672.786,221.651,671.477,222.2Z" transform="translate(-671.477 -200.787)"/></g><g transform="translate(86.47 0)"><path class="k" d="M687.076,203.841s-.347-5.355-2.3-5.522-2.255,1.989-2.255,1.989l-1.975.373s.623-4.693-1.33-5.512-12.652,2.584-14.219,1.2-.831-10.9,2.006-12.2,10.663-4.221,16.4-.338c0,0,4.473-.51,5.135,3.1S688.292,201.157,687.076,203.841Z" transform="translate(-664.185 -181.892)"/></g><g transform="translate(96.839 28.281)"><path class="l" d="M673.531,216.354c9.75-3.006,10.485-8.878,10.5-8.969-3.21,5.516-10.356,6.247-10.356,6.247A17.87,17.87,0,0,1,673.531,216.354Z" transform="translate(-673.531 -207.385)"/></g><g transform="translate(89.642 37.094)"><path class="h" d="M691.385,218.285s-7.141,14.214-18.677,13.3-1.966-15.206-1.442-15.338C671.842,216.1,683.1,213.3,691.385,218.285Z" transform="translate(-667.044 -215.329)"/></g><g transform="translate(62.315 103.373)"><path class="i" d="M642.411,279.466s35.346,4.358,56.761.722l-40.917-5.114S658.012,276.118,642.411,279.466Z" transform="translate(-642.411 -275.074)"/></g><g transform="translate(86.12 101.763)"><path class="h" d="M666.5,273.623l-2.633,1.335s.6,4.182,2.041,5.449l2.955-.753S668.249,275.066,666.5,273.623Z" transform="translate(-663.869 -273.623)"/></g><g transform="translate(88.753 48.463)"><path class="i" d="M707.142,270.312c-.526.61-7.475,3.406-15.326,6.429h0c-10.723,4.131-22.82,8.04-22.82,8.04l-2.753-5.9s12.667-6.884,21.228-11.712c4.044-2.279,7.17-4.1,7.612-4.522,1.377-1.31,1.734-3.412.722-7.079s-3.346-20.517-3.607-22.482.653-7.21,5.57-7.473,7.419,1.127,7.419,1.127,1.234.513,2.151,12.442S708.386,268.871,707.142,270.312Z" transform="translate(-666.242 -225.577)"/></g><g transform="translate(114.328 59.51)"><path class="m" d="M692.294,249.938h0c-.047,1.655-.116,4.171-.181,6.9-4.8-11.759-2.025-21.146-1.978-21.3C689.617,238.727,692.257,249.782,692.294,249.938Z" transform="translate(-689.296 -235.535)"/></g><g transform="translate(78.016 65.414)"><path class="m" d="M658.833,252.9h0a43.828,43.828,0,0,1-1.5,6.038c-1.639-7.93-.164-18.084-.164-18.084A102.144,102.144,0,0,0,658.833,252.9Z" transform="translate(-656.564 -240.857)"/></g><g transform="translate(88.753 90.052)"><path class="h" d="M691.816,272.641h0c-10.723,4.131-23.209,8.166-23.209,8.166l-2.364-6.031s12.667-6.884,21.228-11.712C687.47,263.066,690.585,264.585,691.816,272.641Z" transform="translate(-666.242 -263.066)"/></g><g transform="translate(37.751 107.404)"><path class="n" d="M670.508,279.448l-50.239-.74,25.364,12.878Z" transform="translate(-620.269 -278.708)"/></g><g transform="translate(61.15 108.144)"><path class="j" d="M643.326,291.513l24.875-9.634v-2.5l-26.84,9.681Z" transform="translate(-641.36 -279.375)"/></g><g transform="translate(69.178 102.068)"><path class="h" d="M666.107,275.018s-3.138-.488-5.306-.993c-1.68-.392-5.853.148-6.916,1.224s-4.445,8.583-5.084,9.041.328,1.519,1.451.985c0,0,1.032,3.285,3.574,2.056s4.272-3.915,5.606-4.386,9.092-2.858,9.092-2.858S668.106,274.22,666.107,275.018Z" transform="translate(-648.597 -273.898)"/></g><g transform="translate(69.405 102.928)"><path class="h" d="M654.63,274.673a21.868,21.868,0,0,0-2.542,1.407c-.527.435-2.662,2.031-3.178,2.407s.781,1.443,4.594-.207S654.63,274.673,654.63,274.673Z" transform="translate(-648.802 -274.673)"/></g><g transform="translate(0 79.483)"><path class="j" d="M649.354,294.339l-14.941-40.8-48.174.786,14.24,37.6Z" transform="translate(-586.239 -253.539)"/></g><g transform="translate(24.584 93.732)"><path class="o" d="M616.575,270.185c1.469,2.939,1.024,6.139-.993,7.149s-4.845-.556-6.316-3.5-1.025-6.138.992-7.148S615.1,267.245,616.575,270.185Z" transform="translate(-608.4 -266.384)"/></g><g transform="translate(104.719 14.838)"><path class="h" d="M680.759,196.576c.176-1.5,3.14-2.049,3.379.2s-1.346,6.194-2.472,5.805S680.514,198.643,680.759,196.576Z" transform="translate(-680.635 -195.267)"/></g></g><g transform="translate(-15353.855 10061.932)"><path class="p" d="M424.616,344.486c-.341,2.388-14.691,12.438-17.517,14.447-2.269,1.612-4.24,2.351-7.669,3.639h0c-7.792,2.049-56.681,16.637-56.681,16.637a6.262,6.262,0,0,0-.485-1.485c-1.826.728-3.7,1.2-4.9,1.573-1.819.567-16.267,1.022-19.225,1.592s-8.873,1.478-11.262-.8,1.48-7.165,4.779-8.418,15.357-1.592,17.518-1.819,5.005-1.024,6.371-.57c.43.144,2.336-.415,4.743-1.247-.058-.886-.072-1.444-.072-1.444l12.835-3.7-2.376-22.73s5.585-21.046,27.9-4.99c0,0,4.978,1.463,6.685,1.918a1.88,1.88,0,0,0,.57.017c3.4-.256,18.032-4.68,23.318-4.68,5.689,0,7.508-.342,9.556.683S424.958,342.1,424.616,344.486Z" transform="translate(-284 -234.406)"/><path class="p" d="M403.942,380.037c-2.391,2.275-8.306,1.366-11.262.8s-17.4-1.025-19.225-1.592-5.233-1.366-7.621-2.96a7.772,7.772,0,0,0-1.277-.559l0,0-3.613,2.6-50.231-15.989a17.984,17.984,0,0,1-6.988-3.462C301.1,356.6,286.542,346.82,286.2,344.431s3.866-10.353,5.914-11.375,3.868-.683,9.556-.683,22.183,5.12,23.889,4.664a25.126,25.126,0,0,0,3.9-1.855c1.824-1,3.527-2.012,3.527-2.012,24.432-10.906,27.152,6.939,27.152,6.939L358.7,362.139s2.037,1.011,4.686,2.269l12.109,3.422-1.585,1.144a3.1,3.1,0,0,0,1.368.255c1.365-.454,4.209.343,6.37.57s14.219.569,17.519,1.819S406.33,377.762,403.942,380.037Z" transform="translate(-286.182 -234.351)"/><path class="q" d="M325.584,334.635c1.684.116,13.068,6.711,15.77,8.286-4.106-2.143-19.675-6.431-19.675-6.431A25.124,25.124,0,0,0,325.584,334.635Z" transform="translate(-282.3 -233.805)"/><path class="q" d="M380.259,336.532s-19.613,4.758-23.2,6.752c.163-.119,10.336-7.849,15.675-8.879,0,0,5.246,1.656,6.954,2.111a1.88,1.88,0,0,0,.57.017Z" transform="translate(-278.431 -233.83)"/><path class="h" d="M396.215,376.159c-2.391,2.275-8.306,1.366-11.262.8s-17.4-1.025-19.225-1.592c-.525-.165-1.177-.347-1.9-.561h0a21.714,21.714,0,0,1-5.718-2.4,7.765,7.765,0,0,0-1.277-.559l9.09-6.561.261-.189a3.094,3.094,0,0,0,1.368.255c1.365-.454,4.209.343,6.37.57s14.219.569,17.519,1.819S398.6,373.884,396.215,376.159Z" transform="translate(-278.456 -230.473)"/><path class="c" d="M395.526,376.159c-2.391,2.275-8.306,1.366-11.262.8s-17.4-1.025-19.225-1.592c-.525-.165-1.177-.347-1.9-.561h0l0,0a9.608,9.608,0,0,0,2.1-9.516l.261-.189a3.094,3.094,0,0,0,1.368.255c1.365-.454,4.209.343,6.37.57s14.219.569,17.519,1.819S397.914,373.884,395.526,376.159Z" transform="translate(-277.766 -230.473)"/><path class="r" d="M329.711,339.16c.026.061.02.107-.019.134C329.466,339.465,329.5,339.392,329.711,339.16Z" transform="translate(-281.441 -233.31)"/><path class="s" d="M398.255,319.162c-.19-.384-10.552-16.685-13.359-24.118s-9.556-10.845-12.741-11.906c-1.136-.379-3.161-1.04-5.3-1.731-3.847-1.244-8.05-2.593-8.05-2.593H345.536s-4.6,1.54-9.482,3.252l0,0c-4.5,1.58-9.238,3.3-10.839,4.1-3.337,1.666-8.949,13.574-10.086,14.939s-9.886,17.58-11.148,23.814c-.981,4.84,27.749,19.019,28.533,20.835.91-1.01,5.094-5.02,5.094-5.02s-1.34-.843-3.227-2.085c7.7.353,26.5-.312,29.2-.175a14.017,14.017,0,0,0,1.737-.038h0c.834.608,6.22,5.364,6.22,5.364S384.8,338.3,390.906,332.13C399.574,323.371,399.21,321.1,398.255,319.162Zm-75.462,10.785c-2.844-3.412-6.759-5.477-5.774-6.993s9.329-15.927,9.329-15.927,4.323,9.48,5.537,14.41,1.118,7.188.606,8.722a22.967,22.967,0,0,0-1.24,6.405C327.85,334.239,324.1,331.511,322.794,329.947Zm58.679-1.629c-1.116,1.267-5.528,4.07-9.5,6.379-.3-2.75-.759-7.079-.808-8.635-.075-2.351.91-9.1,2.123-11.678s2.048-9.633,2.048-9.633,10.048,13.652,11.641,15.093S385.241,324.038,381.473,328.318Z" transform="translate(-284.239 -239.91)"/><g transform="translate(57.095 2.33)"><path class="h" d="M350.067,245.944s10.38,1.633,8.8,17.873-10.741,14.908-11.353,14.892-9.2.3-9.865-19.532C337.649,259.177,337.355,244.517,350.067,245.944Z" transform="translate(-337.648 -245.846)"/></g><g transform="translate(77.87 15.179)"><path class="h" d="M356.979,257.963s1.137-1.214,1.554.016-1.551,6.711-1.622,6.967c0,0-.207.477-.48.214S356.979,257.963,356.979,257.963Z" transform="translate(-356.375 -257.428)"/></g><g transform="translate(55.752 14.955)"><path class="h" d="M338.06,257.781s-1.113-1.237-1.554-.016,1.4,6.737,1.487,7c0,0,.2.479.477.224S338.06,257.781,338.06,257.781Z" transform="translate(-336.438 -257.226)"/></g><g transform="translate(55.895 0)"><path class="t" d="M359.14,261.951l-1.485,1.985a39.82,39.82,0,0,0-.2-5.037c-.24-.682-.6-2.769-.8-3.26s-8.913-2.935-16.608.712c0,0,.337,3.133-.4,3.41s-.375,5.1-.375,5.1l-1.221-1.378s-1.87-12.494-1.409-13.8,1.935-9.131,17.724-4.484c0,0,4.922-1.043,5.911,2.356S359.14,261.951,359.14,261.951Z" transform="translate(-336.567 -243.745)"/></g><path class="u" d="M338.211,355.228s-15.888-9.522-22.828-11.018c-6.559-1.417-8.949-3.869-8.949-3.869s10.428,0,17.367,4.93C328.513,348.617,338.211,355.228,338.211,355.228Z" transform="translate(-283.967 -233.181)"/><path class="u" d="M347.8,361.866s27.634-14.511,38.918-17.657c6.462-1.8,8.949-3.869,8.949-3.869s-17.085,1.67-27.475,7.925C363.241,351.247,347.8,361.866,347.8,361.866Z" transform="translate(-279.443 -233.181)"/><path class="h" d="M342.262,373.889c-1.826.728-3.7,1.2-4.9,1.573-1.819.567-16.267,1.022-19.225,1.592s-8.873,1.478-11.262-.8,1.48-7.165,4.779-8.418,15.357-1.592,17.518-1.819,5.005-1.024,6.371-.57c.43.144,2.336-.415,4.743-1.247C340.362,365.646,342.262,373.889,342.262,373.889Z" transform="translate(-284 -230.571)"/><path class="p" d="M347.8,372.647l27.167-8.038-5.372-1.64S347.885,370.839,347.8,372.647Z" transform="translate(-279.443 -230.706)"/><path class="u" d="M347.8,372.076l12.713-3.877-8.814,5.119Z" transform="translate(-279.443 -230.134)"/><path class="v" d="M339.985,342.441l-.571-.337A5.714,5.714,0,0,1,339.985,342.441Z" transform="translate(-280.36 -232.988)"/><path class="c" d="M337.365,375.353c-1.819.567-16.267,1.022-19.225,1.592s-8.873,1.478-11.262-.8,1.48-7.165,4.779-8.418,15.357-1.592,17.518-1.819,5.005-1.024,6.371-.57A7.494,7.494,0,0,0,337.365,375.353Z" transform="translate(-284 -230.462)"/><path class="v" d="M326.6,342.811,322.417,319l54.127-1.25-3.487,23.433s-17.276,6.322-23.14,10.013C349.917,351.194,335.1,345.105,326.6,342.811Z" transform="translate(-282.219 -235.652)"/><path class="w" d="M350.677,332.171a3.073,3.073,0,1,1-3.035-3.564A3.332,3.332,0,0,1,350.677,332.171Z" transform="translate(-279.792 -234.464)"/><path class="h" d="M355.6,279.869c0-.014-.009-.029-.014-.043-.648-1.445-.331-8.5-.331-8.5s-13.22-3.365-12.842-.792-1.139,9.6-1.139,9.6l-6.78,2.32s7.224,19.4,15.53,16.9,11.439-17.6,11.439-17.6Z" transform="translate(-280.898 -240.921)"/><path class="l" d="M341.858,273.1a7.7,7.7,0,0,0,5.769,2.688c2.431,0,4.091-.6,6.513-2.96,0,0-.963,4.4-6.5,4.819C347.643,277.649,343.687,278.222,341.858,273.1Z" transform="translate(-280.093 -240.564)"/></g><g transform="translate(-15545.365 9993.175)"><g transform="translate(90.275 131.329)"><path class="x" d="M205.142,368.379,194.928,300.45l1.966-.3,10.214,67.927Z" transform="translate(-194.928 -300.148)"/></g><g transform="translate(77.802 131.329)"><path class="x" d="M193.9,368.379,183.685,300.45l1.968-.3,10.213,67.927Z" transform="translate(-183.685 -300.148)"/></g><g transform="translate(24.616 131.329)"><path class="x" d="M137.71,368.379l-1.967-.3,10.214-67.927,1.966.3Z" transform="translate(-135.743 -300.148)"/></g><path class="y" d="M200.486,309.487l8-84.178s-13.992-1.829-22.448-1.379L173.33,309.487Z" transform="translate(-107.015 -177.163)"/><rect class="y" width="27.157" height="4.279" transform="translate(66.314 128.044)"/><path class="y" d="M157.734,306.047l-4.246-80.216s35.417-3.846,57.169-.531Z" transform="translate(-109.186 -177.153)"/><path class="z" d="M186.2,204.468s5.469-16.037-4.967-21.008-19.3,2.215-20.97,6.1-1.231,10.959.2,15.891,1.22,12.439-1.881,14.949-6.946,6.68-6.756,15.168c.118,5.265,20.72-13.47,20.72-13.47Z" transform="translate(-109.369 -181.767)"/><path class="aa" d="M170.666,359.572s-.325,11.334,1.294,12.014,7.743-3.258,10.445-7.157-3.385-12.969-4.384-17.971c-.418-2.1-5.177-5.865-7.5-4.787a11.348,11.348,0,0,0-4.016,3.848S172.413,349.569,170.666,359.572Z" transform="translate(-107.762 -164.299)"/><g transform="translate(58.745 177.374)"><path class="ab" d="M166.507,345.5a62.583,62.583,0,0,1,3.044,6.869c1.033,3,1.226,11.311,1.877,11.888s5.784-2.012,6.469-5.12-1.4-9.319-3.378-12.585a20.335,20.335,0,0,0-4-4.9S167.022,342.335,166.507,345.5Z" transform="translate(-166.507 -341.654)"/></g><path class="aa" d="M176.885,345.969l5.516,8.049-1.045.715-4.263-6.222Z" transform="translate(-106.627 -163.808)"/><path class="ab" d="M161.03,266.037s2.7,4.554,0,7.87-20.832,12.425-20.7,17.686,3.455,13.5,4.648,15.586,5.6,10.759,7.885,15.833,15.519,29.344,18.106,34.814.994-21.882.994-21.882l-13.23-38.8,30.914-30.115S185.905,258.7,161.03,266.037Z" transform="translate(-110.625 -172.881)"/><path class="ac" d="M171.851,219.47s-8.577,1.9-11.98,3.892-10.965,11.143-10.965,15.076,33.063,7.612,33.063,7.612l6.268,22.881s16.712-4.08,18.7-7.463-6.581-27.455-7.776-32.529-7.445-8.493-14.407-9.47A47.905,47.905,0,0,0,171.851,219.47Z" transform="translate(-109.687 -177.691)"/><path class="h" d="M191.551,266.417s-.6,3.912.994,5.57,8.924,11.327,5.041,20.825c-3.566,8.722-10.479,8.555-10.479,8.555h-10.7s3.106,15.7,2.1,26.044-5.723,33.972-5.822,35.165-4.524,4.927-5.818,3.036c0,0-.12-14.225-.818-19.6s-3.659-26.859-4.555-30.042-6.167-12.833-6.167-13.828-5.15-16.568,6.093-20.547S176.638,266.5,191.551,266.417Z" transform="translate(-109.113 -172.509)"/><path class="ad" d="M161.468,367.123s-7.38,8.606-6.55,10.155,8.07,2.335,12.622,1,5.522-12.213,7.893-16.732c.993-1.89-.338-7.816-2.821-8.436a11.339,11.339,0,0,0-5.541.468S169.117,360.442,161.468,367.123Z" transform="translate(-109.036 -163.047)"/><g transform="translate(50.063 189.446)"><path class="h" d="M166.653,353.625a62.528,62.528,0,0,1-1.955,7.254c-1.084,2.983-6.158,9.565-6.015,10.423s5.762,2.072,8.249.088,4.774-8.123,5.287-11.909a20.363,20.363,0,0,0-.026-6.323S169.045,351.487,166.653,353.625Z" transform="translate(-158.68 -352.536)"/></g><path class="ad" d="M173.605,360.7l-.774,9.728-1.262-.1.6-7.517Z" transform="translate(-107.208 -162.197)"/><path class="ac" d="M199.1,293.184c-3.366,8.837-10.479,8.555-10.479,8.555h-10.7s-4.464-7.072-15.394-8.288a32.39,32.39,0,0,0-8.242.2c-.037.006-.074.01-.112.017-14.522,2.151-11.716,7.482-11.673,7.62-1.206-2.948-2.474-7.634-2.169-10.157,1.392-11.494,18-13.9,20.7-17.221s0-7.87,0-7.87c24.877-7.334,28.618.994,28.618.994,1.089-.151,3.885-1.761,5.073-1.768,0,0,1.245,2.719,2.121,5.174C197.62,272.6,202.754,283.595,199.1,293.184Z" transform="translate(-110.629 -172.881)"/><path class="ae" d="M188.777,233.164l3.68,34.221H144.012l-3.681-34.221Z" transform="translate(-110.625 -176.146)"/><rect class="ae" width="8.092" height="3.079" transform="translate(77.596 88.161)"/><rect class="af" width="133.44" height="4.657" transform="translate(0 91.24)"/><path class="h" d="M175.612,185.779s10.854,3.211,9.3,18.274-8.64,14.288-9.3,14.4-9.081.666-11.74-17.609S175.612,185.779,175.612,185.779Z" transform="translate(-108.086 -181.352)"/><path class="h" d="M180.292,213.049s-.574,4.987.386,8.088-12.642,3.186-12.635.636c.008-2.9,1.391-5.317.089-10.281S180.292,213.049,180.292,213.049Z" transform="translate(-107.594 -178.72)"/><path class="z" d="M172.887,192.588s5.9,9.382,12.105,11.556c0,0,3.389-15.741-10.609-19.041s-11.807,15.9-10.762,21.021A41.577,41.577,0,0,1,172.887,192.588Z" transform="translate(-108.163 -181.443)"/><path class="l" d="M169.574,213.285a7.344,7.344,0,0,0,9.787.466s-.454,2.86-4.4,3.23S169.574,213.285,169.574,213.285Z" transform="translate(-107.426 -178.32)"/><path class="ag" d="M164.766,191.24s3.105-6.012,8.347-6.28,8.359,4.279,8.359,4.279a8.913,8.913,0,0,0-8.354-5.12C166.813,184.119,164.766,191.24,164.766,191.24Z" transform="translate(-107.952 -181.51)"/><path class="h" d="M182.178,219.415s-.193,10.427-8.46,10.736-6.547-10-6.547-10S173.219,217.7,182.178,219.415Z" transform="translate(-107.705 -177.716)"/><rect class="ah" width="3.428" height="106.997" transform="translate(130.012 95.897)"/><rect class="ah" width="3.427" height="106.997" transform="translate(0 95.897)"/></g><g class="ai" transform="translate(-15508.07 9986)"><rect class="ap" width="54" height="54"/><rect class="aq" x="1" y="1" width="52" height="52"/></g><g class="ai" transform="translate(-15133.07 9989)"><rect class="ap" width="54" height="54"/><rect class="aq" x="1" y="1" width="52" height="52"/></g><g class="ai" transform="translate(-15310.07 10056)"><rect class="ap" width="54" height="54"/><rect class="aq" x="1" y="1" width="52" height="52"/></g><g class="aj" transform="translate(-15213.07 10065)"><rect class="ap" width="54" height="54"/><rect class="aq" x="1" y="1" width="52" height="52"/></g><g class="aj" transform="translate(-15310.07 10133)"><rect class="ap" width="54" height="54"/><rect class="aq" x="1" y="1" width="52" height="52"/></g><g class="aj" transform="translate(-15521.07 10044)"><rect class="ap" width="54" height="54"/><rect class="aq" x="1" y="1" width="52" height="52"/></g><g class="ai" transform="translate(-15431.07 10119)"><rect class="ap" width="82" height="82"/><rect class="aq" x="1" y="1" width="80" height="80"/></g><g class="ak" transform="translate(-15448.07 10006)"><rect class="ap" width="130" height="130"/><rect class="aq" x="1" y="1" width="128" height="128"/></g><g class="ak" transform="translate(-15149.07 10026)"><rect class="ap" width="116" height="116"/><rect class="aq" x="1" y="1" width="114" height="114"/></g><g transform="translate(-16169.07 9634)"><rect class="al" width="50" height="21" transform="translate(727 319)"/><text class="am" transform="translate(752 333)"><tspan x="-14.706" y="0">Woman</tspan></text></g><g transform="translate(-16221.07 9895)"><rect class="al" width="50" height="21" transform="translate(727 319)"/><text class="am" transform="translate(752 333)"><tspan x="-9.117" y="0">Vase</tspan></text></g><g transform="translate(-15924.07 9635)"><rect class="al" width="50" height="21" transform="translate(727 319)"/><text class="am" transform="translate(752 333)"><tspan x="-8.451" y="0">Man</tspan></text></g><g transform="translate(-15968.07 9701)"><rect class="al" width="50" height="21" transform="translate(727 319)"/><text class="am" transform="translate(752 333)"><tspan x="-8.451" y="0">Man</tspan></text></g><g transform="translate(-16314.07 9688)"><rect class="an" width="50" height="21" transform="translate(727 319)"/><text class="am" transform="translate(752 333)"><tspan x="-13.095" y="0">Laptop</tspan></text></g><g transform="translate(-15872.07 9814)"><rect class="an" width="50" height="21" transform="translate(727 319)"/><text class="am" transform="translate(752 333)"><tspan x="-13.095" y="0">Laptop</tspan></text></g><g transform="translate(-16103.07 9884)"><rect class="an" width="50" height="21" transform="translate(727 319)"/><text class="am" transform="translate(752 333)"><tspan x="-13.095" y="0">Laptop</tspan></text></g><g transform="translate(-16036.07 9655)"><rect class="ao" width="50" height="21" transform="translate(727 319)"/><text class="am" transform="translate(752 333)"><tspan x="-12.037" y="0">Plants</tspan></text></g><g transform="translate(-15940.07 9672)"><rect class="ao" width="50" height="21" transform="translate(727 319)"/><text class="am" transform="translate(752 333)"><tspan x="-16.623" y="0">Beanbag</tspan></text></g><path class="aj" d="M-15521.07,10044l-17.324-17.324"/><path class="aj" d="M-15521.07,10044l-17.324-17.324" transform="translate(378 91)"/><path class="aj" d="M-15521.07,10026.676l-17.324,17.324" transform="translate(212 159)"/><path class="ai" d="M-15538.395,10044l17.324-17.324" transform="translate(82 -56)"/><path class="ai" d="M-15538.395,10044l17.324-17.324" transform="translate(91 173)"/><path class="ai" d="M-15538.395,10044l17.324-17.324" transform="translate(280 14)"/><path class="ai" d="M-15521.07,10044l-17.324-17.324" transform="translate(390 -53)"/><path class="ak" d="M-15538.395,10044l17.324-17.324" transform="translate(218 -36)"/><path class="ak" d="M-15521.07,10044l-17.324-17.324" transform="translate(374 -16)"/></g></svg>