<svg xmlns="http://www.w3.org/2000/svg" xmlns:xlink="http://www.w3.org/1999/xlink" width="618.313" height="362.885" viewBox="0 0 618.313 362.885"><defs><style>.a,.bu,.bw,.bx,.c{fill:none;}.b{opacity:0.24;}.c{stroke:#000;}.bu,.c{stroke-miterlimit:10;}.d{fill:#1f1535;opacity:0.13;}.e{opacity:0.15;}.f{fill:#877358;}.g{fill:#24182c;}.h{fill:#bbbbbc;}.i{fill:#42424c;}.j{fill:#cc8c46;}.k{clip-path:url(#a);}.l{fill:#b74e39;}.m{opacity:0.1;}.n{fill:#454d73;}.o{opacity:0.2;}.p{fill:#f9f3eb;}.q{fill:url(#b);}.r{clip-path:url(#c);}.s{fill:#9a4934;}.t{fill:url(#d);}.u{clip-path:url(#e);}.v{fill:url(#f);}.w{fill:#f3e1cf;}.x{fill:#e8c2a6;}.ap,.y,.z{opacity:0.6;}.y{fill:url(#g);}.z{fill:url(#h);}.aa{fill:#72676a;}.ab{fill:#616166;}.ac{fill:#434349;}.ad{fill:#454c4b;}.ae{fill:#93908d;}.af{fill:#bcb2ac;}.ag{fill:#d4775f;}.ah{fill:#e4b264;}.ai{fill:#e1d4cb;}.aj{fill:#a1948c;}.ak{fill:#fdfdfd;}.al{fill:#464240;}.am{fill:#eb4747;stroke:rgba(0,0,0,0);}.an{fill:#eea886;}.ao{fill:#a77860;}.ap{fill:url(#i);}.aq{fill:#b2a294;}.ar{fill:#679381;}.as{fill:#f2dcc7;}.at{fill:#193f77;}.au{clip-path:url(#j);}.av{fill:url(#k);}.aw{clip-path:url(#l);}.ax{fill:url(#m);}.ay{fill:#4a5543;}.az{fill:#566446;}.ba{fill:#667652;}.bb{fill:url(#n);}.bc{fill:#29abe2;}.bd{fill:#2664aa;}.be{fill:#dededa;}.bf{fill:#cf8c26;}.bg{fill:#bfbfbf;}.bh{fill:#f7f1b7;}.bi{fill:#efedea;}.bj{fill:#603432;}.bk{fill:#aa8159;}.bl{fill:#e0b6a9;}.bm{fill:#d4a673;}.bn{fill:#9fbdc4;}.bo{fill:#ede0d1;}.bp{fill:#2d283d;}.bq{fill:#e08d85;}.br{fill:#0f1a2e;}.bs{fill:#7d71db;}.bt{opacity:0.57;}.bu{stroke:#1e2729;}.bv{fill:#1e2729;}.bw{stroke:#29abe2;}.bw,.bx{stroke-width:2px;}.bx{stroke:#90218a;}.by{fill:#fff;font-size:9px;font-family:Cairo-Regular, Cairo;}.bz{fill:#90218a;}.ca{stroke:none;}</style><clipPath id="a"><path class="a" d="M211.448,139.7s-4.788,1.232-4.243,5.119,5.324,5.041,7.668,4.665,5.257-3.707,4.193-6.637A5.781,5.781,0,0,0,211.448,139.7Z" transform="translate(-207.161 -139.209)"/></clipPath><linearGradient id="b" x1="445.07" y1="-2048.87" x2="446.007" y2="-2048.87" gradientUnits="objectBoundingBox"><stop offset="0.13" stop-color="#8ea644"/><stop offset="1" stop-color="#b0c851"/></linearGradient><clipPath id="c"><path class="a" d="M215.016,140.624s-4.184,1.076-3.707,4.472,4.652,4.4,6.7,4.076,4.594-3.239,3.663-5.8A5.05,5.05,0,0,0,215.016,140.624Z" transform="translate(-211.271 -140.193)"/></clipPath><linearGradient id="d" x1="509.082" y1="-2343.672" x2="510.02" y2="-2343.672" xlink:href="#b"/><clipPath id="e"><path class="a" d="M199.949,142.33s-3.236.832-2.867,3.458,3.6,3.406,5.18,3.153,3.554-2.505,2.835-4.486A3.906,3.906,0,0,0,199.949,142.33Z" transform="translate(-197.052 -141.996)"/></clipPath><linearGradient id="f" x1="658.927" y1="-3037.009" x2="659.865" y2="-3037.009" xlink:href="#b"/><linearGradient id="g" x1="0.233" y1="0.26" x2="1.756" y2="1.598" gradientUnits="objectBoundingBox"><stop offset="0" stop-color="#fff"/><stop offset="1" stop-color="#eee8e7" stop-opacity="0"/></linearGradient><linearGradient id="h" x1="0.175" y1="0.085" x2="0.953" y2="1.087" xlink:href="#g"/><linearGradient id="i" x1="0.361" y1="0.34" x2="1.145" y2="1.241" xlink:href="#g"/><clipPath id="j"><path class="a" d="M205.632,142.1s-3.115,2.991-1.033,5.716,6.214,1.551,7.836.26,2.412-5.077.343-6.851A5.05,5.05,0,0,0,205.632,142.1Z" transform="translate(-203.882 -140.125)"/></clipPath><linearGradient id="k" x1="1167.045" y1="-2397.336" x2="1168.169" y2="-2397.336" xlink:href="#b"/><clipPath id="l"><path class="a" d="M195.338,140.4s-4.575,1.177-4.054,4.892,5.086,4.815,7.325,4.456,5.024-3.541,4.005-6.341A5.521,5.521,0,0,0,195.338,140.4Z" transform="translate(-191.243 -139.929)"/></clipPath><linearGradient id="m" x1="466.594" y1="-2149.583" x2="467.532" y2="-2149.583" xlink:href="#b"/><linearGradient id="n" x1="187.526" y1="-39.348" x2="187.778" y2="-41.919" gradientUnits="objectBoundingBox"><stop offset="0.071" stop-color="#dadfbd"/><stop offset="1" stop-color="#637252"/></linearGradient></defs><g transform="translate(-72.925 -31.58)"><g class="b" transform="translate(640.61 213.619)"><path class="c" d="M694.177,177.415c-.951,0-35.748,18.444-39.551,31.564a70.008,70.008,0,0,0-2.473,24.72" transform="translate(-643.604 -127.494)"/><path d="M653.52,199.361s11.307,2.068,21.029-3.01C674.549,196.351,659.191,193.52,653.52,199.361Z" transform="translate(-642.701 -117.147)"/><path d="M656.661,193.364s.2.042.561.11c2.413.453,12.045,2.048,17.725-.11,0,0-9.763-3.674-18.087.042" transform="translate(-640.92 -119.37)"/><path d="M660.485,189.479s9.522,4.387,19.27,0C679.755,189.479,667.932,187.458,660.485,189.479Z" transform="translate(-638.752 -121.164)"/><path d="M665.074,185.954s7.838,2.83,14.967-.509C680.041,185.444,669.24,184.387,665.074,185.954Z" transform="translate(-636.151 -123.14)"/><path d="M670.48,182.071s6.316,2.922,11.732,1.567C682.211,183.638,678.785,182.038,670.48,182.071Z" transform="translate(-633.086 -124.854)"/><path d="M663.219,178.416s-6.557,8.339-3.278,18.341C659.941,196.757,663.49,184.011,663.219,178.416Z" transform="translate(-639.581 -126.926)"/><path d="M672.1,177.084c-.011-.285-8.485,6.153-7.492,14.63C664.605,191.715,672.188,179.612,672.1,177.084Z" transform="translate(-636.462 -127.686)"/><path d="M675.221,175.013c.058-.32-6.086,4.356-5.6,11.069C669.625,186.081,674.5,178.985,675.221,175.013Z" transform="translate(-633.586 -128.864)"/><path d="M656.676,181.747s-5.506,10.509,0,18.386C656.676,200.133,657.668,186.08,656.676,181.747Z" transform="translate(-642.299 -125.038)"/><path d="M649.7,185.095s-.541,13.1,2.527,16.562l3.07,3.465-1.534-3.465S652.5,186.822,649.7,185.095Z" transform="translate(-644.889 -123.14)"/><path d="M653.386,198.513" transform="translate(-642.777 -115.533)"/><path d="M651.44,253.52a173.711,173.711,0,0,1,9.627-60.5c3.328-9.483,8.449-17.335,14.362-25.373,5.611-7.628,11.9-15.169,19.555-20.838.666-.494.016-1.625-.658-1.125-7.026,5.205-12.911,11.926-18.194,18.85-5.835,7.65-11.573,15.52-15.023,24.568a172.98,172.98,0,0,0-10.975,64.422.653.653,0,0,0,1.305,0Z" transform="translate(-644.635 -145.555)"/><path d="M663.048,167.3s6.641,1.391,17.5-10.751C680.552,156.55,665.666,164.251,663.048,167.3Z" transform="translate(-637.299 -139.322)"/><path d="M668.472,159.174s6.623.237,12.93-7.253C681.4,151.921,673.044,155.863,668.472,159.174Z" transform="translate(-634.224 -141.947)"/><path d="M673.554,147.241s-7.029,9.605-5.838,14.588C667.715,161.829,674.03,150.474,673.554,147.241Z" transform="translate(-634.731 -144.6)"/><path d="M669.532,152.172s-9.809,9.861-7.429,20.069C662.1,172.241,670.086,156.194,669.532,152.172Z" transform="translate(-638.046 -141.804)"/><path d="M678.295,161.784s-14.853,6.465-19.032,13.4C659.263,175.187,673.748,168.879,678.295,161.784Z" transform="translate(-639.445 -136.355)"/><path d="M660.293,159.117s-6.849,14.137-2.2,22.562C658.09,181.679,661.476,163.611,660.293,159.117Z" transform="translate(-641.026 -137.867)"/><path d="M656.474,180.508s14.3-6.387,15.92-10.724C672.394,169.784,663.694,171.125,656.474,180.508Z" transform="translate(-641.026 -131.82)"/><path d="M652.824,163.565s-3.53,21.511,1.822,26.78,0-.508,0-.508S656.214,166.6,652.824,163.565Z" transform="translate(-643.743 -135.345)"/><path d="M646.626,168.855c-.169-.124,1.656,22.571,10.807,26.437v-.99s-2.612-.282-3.229-2.521S652.061,172.834,646.626,168.855Z" transform="translate(-646.615 -132.347)"/><path d="M647.169,204.1l2.311,32.344,13.052.477-1.888-27.993Z" transform="translate(-646.301 -112.364)"/></g><g transform="translate(120.924 31.58)"><path class="d" d="M186.419,46.575l38.108,157.888H179.3Z" transform="translate(-56.313 -19.63)"/><g transform="translate(183.719 141.781)"><g class="e" transform="translate(3.128 3.128)"><path d="M220.116,133.793c-.136.406,0,29.7,0,29.7h24V134.335l-7.73-.542a8.579,8.579,0,0,1-2.034-6.374c.406-3.8.481-5.559-2.269-5.559s-1.8,4.746-1.529,5.967,1.357,5.017-2.034,6.1Z" transform="translate(-220.055 -121.859)"/></g><path class="f" d="M218.12,131.8c-.136.407,0,29.7,0,29.7h24V132.339l-7.73-.542a8.577,8.577,0,0,1-2.034-6.373c.406-3.8.483-5.561-2.267-5.561s-1.8,4.746-1.529,5.967,1.355,5.017-2.035,6.1Z" transform="translate(-218.059 -119.863)"/></g><path class="g" d="M294.35,130.417l-3.243-7.619,1.881-1.458,3.207,7.723Z" transform="translate(7.071 22.756)"/><path class="h" d="M295.777,137.893l3.157,16.064c7.82,2.028,14.083,1.7,22.413-.2l3.847-15.862A46.042,46.042,0,0,0,295.777,137.893Z" transform="translate(9.719 30.771)"/><path class="i" d="M295.777,137.936s11.208,7.587,29.417,0C325.194,137.936,310.815,132.238,295.777,137.936Z" transform="translate(9.719 30.728)"/><path class="j" d="M299.1,149.19a5.867,5.867,0,0,1-2.6-1.305c-.523-.526-.5-1.612.2-1.855a1.679,1.679,0,0,1,1.167.183l5.588,2.344a31.171,31.171,0,0,1-1.52-4.166c-.15-.523-.191-1.254.32-1.445.426-.16.848.221,1.144.566l4.251,4.945a23.4,23.4,0,0,0,.968-2.567c.409-.82,1.529-1.456,2.22-.852s.266,1.717.434,2.614a2.632,2.632,0,0,0,1.951,1.869,5.25,5.25,0,0,0,4.293-.877c1.249-.848,1.62-4.171,3.015-3.858,1.007-.564.279,1.918.392,2.593,1.161-.978,2.772-4.195,3.485-2.932.317,2.139-1.286,4.2-3.253,5.1a14.1,14.1,0,0,1-6.376.823c-5.237-.179-10.456-.677-15.674-1.177" transform="translate(9.919 34.983)"/><g transform="translate(166.642 170.432)"><g transform="translate(0 1.663)"><g class="k"><path class="l" d="M211.448,139.7s-4.788,1.232-4.243,5.119,5.324,5.041,7.668,4.665,5.257-3.707,4.193-6.637A5.781,5.781,0,0,0,211.448,139.7Z" transform="translate(-207.161 -139.209)"/><g class="m" transform="translate(-2.878 4.327)"><path class="n" d="M223.843,141.981c.323.063.6.456.641,1.192a4.066,4.066,0,0,1-.175,1.307,6.1,6.1,0,0,1-.738,1.572,9.328,9.328,0,0,1-3.217,2.94,11.647,11.647,0,0,1-5.06,1.536l-.367.024c-.122,0-.246,0-.368,0-.244-.008-.486-.009-.727-.027a10.824,10.824,0,0,1-1.409-.223l-.337-.078c-.056-.014-.113-.027-.168-.044l-.163-.052c-.218-.069-.431-.141-.641-.213s-.406-.169-.6-.254a5.844,5.844,0,0,1-.572-.277,10.2,10.2,0,0,1-3.251-2.717,7.048,7.048,0,0,1-1.279-2.43c-.157-.657-.1-1.1.172-1.307.552-.423,1.75.268,3.389,1.138a16.78,16.78,0,0,0,2.775,1.188,3.661,3.661,0,0,0,.384.1c.13.031.257.075.389.1s.265.049.4.075l.1.022.1.013c.067.008.136.016.2.025.27.047.547.045.824.074.139,0,.282,0,.425,0,.072,0,.141,0,.215,0l.218-.019c.144-.013.288-.011.434-.031s.288-.041.434-.058.293-.044.439-.069.295-.06.442-.092a15.537,15.537,0,0,0,1.667-.472,13.315,13.315,0,0,0,2.62-1.221,17.281,17.281,0,0,0,1.669-1.2C223.143,142.16,223.506,141.915,223.843,141.981Z" transform="translate(-205.325 -141.97)"/></g><g class="o" transform="translate(0.418 1.554)"><path class="p" d="M210.612,140.538c-.013.174-.285.288-.575.5a4.006,4.006,0,0,0-.957,1c-.332.47-.6.962-.819,1.321s-.4.6-.572.572-.284-.331-.255-.818a3.563,3.563,0,0,1,.65-1.782,3,3,0,0,1,.8-.782,2.053,2.053,0,0,1,.9-.331,1.211,1.211,0,0,1,.636.088C210.554,140.369,210.618,140.455,210.612,140.538Z" transform="translate(-207.428 -140.201)"/></g></g></g><path class="q" d="M211.557,141.059c-.462-.027-.666-.243-1.119-.327-.26-.045-.888-.161-.979-.5-.2-.749,1.65.058,1.932.111-.1-.259-1.97-1.066-1.255-1.644.379-.306,1.7.865,1.943,1.174a5.064,5.064,0,0,1-.075-.837c.028-.213.219-.909.536-.893.583.03.248,1.465.3,1.752a1.676,1.676,0,0,1,1.17-.733c.812.013.3.614-.05.859-.506.353-1.742,1.517-2.38,1" transform="translate(-205.868 -138.148)"/></g><g transform="translate(173.082 172.184)"><g transform="translate(0 1.453)"><g class="r"><path class="s" d="M215.016,140.624s-4.184,1.076-3.707,4.472,4.652,4.4,6.7,4.076,4.594-3.239,3.663-5.8A5.05,5.05,0,0,0,215.016,140.624Z" transform="translate(-211.271 -140.193)"/><g class="m" transform="translate(-2.514 3.78)"><path class="n" d="M225.843,142.614c.284.055.525.4.563,1.042a3.584,3.584,0,0,1-.154,1.141,5.288,5.288,0,0,1-.646,1.374,8.135,8.135,0,0,1-2.809,2.568,10.185,10.185,0,0,1-4.422,1.341l-.32.022c-.107,0-.215,0-.321,0-.213-.006-.426-.008-.636-.023a9.493,9.493,0,0,1-1.23-.193c-.1-.024-.2-.047-.295-.069-.049-.013-.1-.024-.146-.038l-.143-.045c-.19-.061-.378-.124-.559-.186s-.356-.147-.528-.223a4.921,4.921,0,0,1-.5-.243,8.867,8.867,0,0,1-2.839-2.374,6.145,6.145,0,0,1-1.117-2.122c-.138-.573-.083-.965.15-1.142.483-.37,1.529.233,2.961.995a14.727,14.727,0,0,0,2.424,1.037c.11.039.223.064.335.092s.224.064.338.086.232.042.348.066l.086.019c.03,0,.06.006.088.011.06.006.119.014.177.022.235.042.478.039.721.064.122,0,.246,0,.37,0,.063,0,.124,0,.186,0s.127-.009.191-.016c.127-.013.252-.009.379-.027s.252-.038.379-.052.257-.038.385-.061.257-.052.384-.078a13.457,13.457,0,0,0,1.456-.414,11.685,11.685,0,0,0,2.289-1.066,14.938,14.938,0,0,0,1.459-1.051C225.232,142.771,225.55,142.558,225.843,142.614Z" transform="translate(-209.666 -142.605)"/></g><g class="o" transform="translate(0.365 1.358)"><path class="p" d="M214.287,141.355c-.014.15-.251.251-.5.432a3.476,3.476,0,0,0-.835.868c-.29.41-.522.841-.716,1.153s-.353.523-.5.5-.249-.288-.224-.715a3.111,3.111,0,0,1,.569-1.557,2.605,2.605,0,0,1,.7-.683,1.79,1.79,0,0,1,.782-.288,1.048,1.048,0,0,1,.556.077C214.235,141.206,214.29,141.281,214.287,141.355Z" transform="translate(-211.504 -141.06)"/></g></g></g><path class="t" d="M215.11,141.811c-.4-.025-.58-.215-.976-.287-.227-.041-.777-.141-.856-.432-.177-.653,1.442.049,1.688.1-.086-.227-1.72-.931-1.1-1.437.329-.266,1.484.757,1.7,1.026a4.335,4.335,0,0,1-.067-.732c.025-.186.193-.794.47-.78.508.027.215,1.28.26,1.531a1.464,1.464,0,0,1,1.023-.641c.708.009.26.536-.044.751-.443.307-1.523,1.326-2.079.876" transform="translate(-210.141 -139.266)"/></g><g transform="translate(150.803 175.338)"><g transform="translate(0 1.124)"><g class="u"><path class="s" d="M199.949,142.33s-3.236.832-2.867,3.458,3.6,3.406,5.18,3.153,3.554-2.505,2.835-4.486A3.906,3.906,0,0,0,199.949,142.33Z" transform="translate(-197.052 -141.996)"/><g class="m" transform="translate(-1.944 2.923)"><path class="n" d="M208.322,143.869c.219.042.406.309.434.805a2.756,2.756,0,0,1-.118.882,4.116,4.116,0,0,1-.5,1.064,6.315,6.315,0,0,1-2.173,1.985,7.861,7.861,0,0,1-3.419,1.037c-.083.006-.166.013-.248.016s-.166,0-.249,0c-.165,0-.329-.006-.492-.019a7.177,7.177,0,0,1-.95-.149l-.229-.055c-.038-.008-.077-.017-.113-.028l-.111-.034c-.146-.047-.291-.1-.432-.144s-.274-.114-.407-.172a3.648,3.648,0,0,1-.385-.186,6.885,6.885,0,0,1-2.2-1.836,4.749,4.749,0,0,1-.865-1.642c-.105-.443-.064-.746.117-.882.373-.287,1.183.18,2.289.768a11.2,11.2,0,0,0,1.876.8,2.426,2.426,0,0,0,.259.072c.088.02.174.05.263.067s.179.033.268.052l.066.014.069.008c.045,0,.091.011.136.017.182.031.37.03.558.05l.287,0c.047,0,.1,0,.144,0l.147-.013c.1-.009.194-.008.293-.02s.2-.028.293-.041.2-.028.3-.047.2-.039.3-.061a10.684,10.684,0,0,0,1.127-.318,8.973,8.973,0,0,0,1.769-.826,11.69,11.69,0,0,0,1.13-.812C207.849,143.989,208.1,143.825,208.322,143.869Z" transform="translate(-195.812 -143.861)"/></g><g class="o" transform="translate(0.282 1.05)"><path class="p" d="M199.385,142.893c-.009.118-.194.2-.39.335a2.724,2.724,0,0,0-.646.672c-.224.317-.4.65-.553.893s-.274.4-.387.385-.193-.223-.174-.553a2.416,2.416,0,0,1,.44-1.2,2.011,2.011,0,0,1,.541-.528,1.373,1.373,0,0,1,.6-.223.805.805,0,0,1,.429.058C199.346,142.78,199.388,142.838,199.385,142.893Z" transform="translate(-197.232 -142.666)"/></g></g></g><path class="v" d="M200.021,143.247c-.312-.019-.448-.165-.755-.221-.175-.033-.6-.11-.661-.335-.136-.506,1.114.038,1.305.075-.067-.175-1.332-.721-.848-1.111.255-.207,1.147.584,1.313.793a3.243,3.243,0,0,1-.052-.566c.019-.144.147-.614.362-.6.393.02.168.99.2,1.185a1.118,1.118,0,0,1,.79-.5c.548.006.2.414-.034.578-.342.24-1.177,1.026-1.608.678" transform="translate(-196.178 -141.279)"/></g><g transform="translate(348.05)"><rect class="w" width="196.012" height="140.119" transform="translate(3.446 3.851)"/><path class="x" d="M323.656,58.3l73.732,13.841V102.3h18.562V79.355h15.469v37.922h76.051V96.825h15.349v61.641H323.656Z" transform="translate(-322.526 -12.985)"/><path class="y" d="M322.935,103.931l65.31-73.041h34.837l-99.017,107.9Z" transform="translate(-322.935 -28.523)"/><path class="z" d="M325.134,175.251l138.56-143.99,57.453.9-116.025,141.6Z" transform="translate(-321.688 -28.312)"/><rect class="aa" width="2.633" height="143.087" transform="translate(65.31 2.367)"/><rect class="aa" width="2.632" height="143.087" transform="translate(131.435 2.393)"/><rect class="aa" width="200.292" height="2.632" transform="translate(0 75.409)"/><path class="aa" d="M322.935,29.379V177.252H525.893V29.379Zm199.458,143.97H326.381V33.23H522.393Z" transform="translate(-322.934 -29.379)"/></g><path class="ab" d="M264.224,146.479l107.687,1.634-.368,123.779L259.916,269.38Z" transform="translate(-10.612 37.007)"/><path class="ac" d="M269.233,168.721v58.2h84.8V166.714Z" transform="translate(-5.329 48.479)"/><g transform="translate(249.443 289.903)"><path class="ad" d="M260.634,215.7H371.385a.651.651,0,0,0,0-1.3H260.634a.651.651,0,0,0,0,1.3Z" transform="translate(-260.004 -214.394)"/></g><g transform="translate(252.091 207.56)"><path class="ad" d="M262.322,163.408l107.182-.263a.651.651,0,0,0,0-1.3q-53.591.132-107.182.262a.652.652,0,0,0,0,1.3Z" transform="translate(-261.694 -161.843)"/></g><path class="ac" d="M275.96,156.291a3.855,3.855,0,1,1-3.856-3.855A3.855,3.855,0,0,1,275.96,156.291Z" transform="translate(-5.887 40.384)"/><path class="ac" d="M284.815,156.291a3.855,3.855,0,1,1-3.855-3.855A3.855,3.855,0,0,1,284.815,156.291Z" transform="translate(-0.867 40.384)"/><path class="ac" d="M313.092,156.291a3.855,3.855,0,1,1-3.856-3.855A3.854,3.854,0,0,1,313.092,156.291Z" transform="translate(15.164 40.384)"/><path class="ac" d="M322,156.291a3.855,3.855,0,1,1-3.856-3.855A3.855,3.855,0,0,1,322,156.291Z" transform="translate(20.215 40.384)"/><path class="ac" d="M330.556,156.291a3.855,3.855,0,1,1-3.855-3.855A3.854,3.854,0,0,1,330.556,156.291Z" transform="translate(25.064 40.384)"/><g transform="translate(265.366 195.328)"><path class="ad" d="M270.166,154.666v6.066a.651.651,0,0,0,1.3,0v-6.066a.651.651,0,0,0-1.3,0Z" transform="translate(-270.166 -154.036)"/></g><g transform="translate(279.441 195.328)"><path class="ad" d="M279.149,154.666v6.066a.651.651,0,0,0,1.3,0v-6.066a.651.651,0,0,0-1.3,0Z" transform="translate(-279.149 -154.036)"/></g><g transform="translate(323.749 195.328)"><path class="ad" d="M307.426,154.666v6.066a.651.651,0,0,0,1.3,0v-6.066a.651.651,0,0,0-1.3,0Z" transform="translate(-307.426 -154.036)"/></g><g transform="translate(337.71 195.328)"><path class="ad" d="M316.336,154.666v6.066a.652.652,0,0,0,1.3,0v-6.066a.652.652,0,0,0-1.3,0Z" transform="translate(-316.336 -154.036)"/></g><g transform="translate(351.114 195.328)"><path class="ad" d="M324.89,154.666v6.066a.652.652,0,0,0,1.3,0v-6.066a.652.652,0,0,0-1.3,0Z" transform="translate(-324.89 -154.036)"/></g><g transform="translate(263.653 227.297)"><path class="ab" d="M269.7,175.741h84.241a.651.651,0,0,0,0-1.3H269.7a.651.651,0,0,0,0,1.3Z" transform="translate(-269.073 -174.439)"/></g><g transform="translate(262.835 233.841)"><path class="ab" d="M269.181,179.917h83.968a.651.651,0,0,0,0-1.3H269.181a.651.651,0,0,0,0,1.3Z" transform="translate(-268.551 -178.615)"/></g><path class="ae" d="M265.867,162.479l-.89,6.666,96.81-1.151v-5.568Z" transform="translate(-7.742 46.048)"/><g transform="translate(403.433 156.924)"><g class="e" transform="translate(3.126 3.128)"><path d="M360.745,134.96v21.622l2.62,2.292h13.1l2.621-2.949V134.96l-2.292-1.639H362.71Z" transform="translate(-360.009 -130.504)"/><path d="M376.835,149.151H364.724v-9.6l12.111-1.581Z" transform="translate(-357.753 -127.87)"/><path d="M360.275,134.34h19.287v-2.067l-19.287-.751Z" transform="translate(-360.275 -131.523)"/></g><path class="af" d="M358.749,132.963v21.622l2.621,2.292h13.1l2.62-2.949V132.963l-2.292-1.637H360.715Z" transform="translate(-358.014 -128.507)"/><path class="ag" d="M374.839,147.156H362.728v-9.605l12.111-1.58Z" transform="translate(-355.758 -125.874)"/><path class="ah" d="M358.28,132.346h19.286v-2.068l-19.286-.751Z" transform="translate(-358.28 -129.527)"/></g><g transform="translate(163.648 29.146)"><rect class="ai" width="47.342" height="70.461" transform="translate(0.549 0.549)"/><path class="aj" d="M253.69,119.538H205.25V47.98h48.44Zm-47.343-1.1h46.244V49.077H206.347Z" transform="translate(-205.25 -47.98)"/><rect class="ak" width="37.891" height="61.721" transform="translate(5.316 4.895)"/><g transform="translate(13.02 17.573)"><path class="al" d="M543.608,141.1a7.072,7.072,0,0,1,7.2,4.556c1.906,5.11,3.7,6.782,3.925,9.467.909,10.856,5.979,8.4,4.553,14.658s-2.414,7.206-2.414,7.206l-12.12-2.377-12.28.039s4.8-2.4,3.735-7.508-3.735-13.484-2.23-19.189S540.446,141.541,543.608,141.1Z" transform="translate(-532.47 -141.086)"/></g><path class="am" d="M33.845,21.712c-.941-2.271-1.927-4.446-1.927-4.446a21.872,21.872,0,0,1-.449,4.446H5.777A22.9,22.9,0,0,1,5.3,17.33S4.727,19.4,4.087,21.712H0V13.733A25.366,25.366,0,0,1,1.984,8.267c1.193-1.244,8.081-6.008,13-7.563S22.7.653,22.7.653s10.2,3.575,14.088,7.77a7.218,7.218,0,0,1,1.1,2.068V21.712Z" transform="translate(5.316 44.905)"/><g transform="translate(18.988 45.036)"><path class="an" d="M551.607,178.432s-3.469,7.159-6.367,9.257c0,0-5.216-7.816-4.949-9.618C540.291,178.07,546.069,175.508,551.607,178.432Z" transform="translate(-540.281 -177.031)"/></g><g transform="translate(16.507 20.522)"><path class="an" d="M545.382,145s7.008,1.012,5.982,11.355-7.21,9.524-7.624,9.515-6.2.215-6.705-12.407C537.035,153.466,536.8,144.132,545.382,145Z" transform="translate(-537.034 -144.946)"/></g><g transform="translate(19.991 39.145)"><path class="an" d="M549.571,169.79s-.432,5.382.6,6.993-.885,3.8-4.848,3.052-3.729-2.993-3.729-2.993a16.432,16.432,0,0,0,.784-5.979C542.055,168.2,549.571,169.79,549.571,169.79Z" transform="translate(-541.594 -169.32)"/></g><g transform="translate(15.812 18.887)"><path class="al" d="M544.365,148.248s3.275,3.442,4.8,5.185,1.694,5.109,1.694,5.109,2.563-3.129,1.491-6.773-3.606-10.734-10.023-8.556-6.654,11.764-5.9,16.518C536.423,159.73,539.3,149.237,544.365,148.248Z" transform="translate(-536.123 -142.805)"/></g><g transform="translate(21.294 40.308)"><path class="ao" d="M543.3,171.516a6.12,6.12,0,0,0,5.891-.674,3.79,3.79,0,0,1-2.946,1.9A2.9,2.9,0,0,1,543.3,171.516Z" transform="translate(-543.298 -170.842)"/></g><g transform="translate(12.722 42.858)"><path class="al" d="M539.633,174.18s-9.641,8.577-7.139,13.929c2.135,4.567,9.707,1.766,8.458-3.019A53.847,53.847,0,0,1,539.633,174.18Z" transform="translate(-532.08 -174.18)"/></g><path class="ap" d="M205.971,103.812c.622,0,27.8-13.533,27.8-13.533l.226-41.6H205.971Z" transform="translate(-204.841 -47.582)"/></g><g transform="translate(438.667 133.271)"><g class="e" transform="translate(3.128 3.127)"><rect width="4.038" height="6.344" transform="translate(5.96)"/><path d="M388,119.642v14.722l-5.241,5.488v27.695h15.47V139.852l-4.242-4.492-.5-15.718Z" transform="translate(-382.762 -114.606)"/><rect width="10.479" height="16.466" transform="translate(1.588 28.99)"/></g><rect class="aq" width="4.04" height="6.344" transform="translate(5.96)"/><path class="ar" d="M386.007,117.646v14.721l-5.241,5.489v27.695h15.47V137.857l-4.242-4.492-.5-15.718Z" transform="translate(-380.766 -112.61)"/><rect class="as" width="10.48" height="16.466" transform="translate(1.588 28.99)"/></g><g transform="translate(429.15 128.977)"><g class="e" transform="translate(3.127 3.127)"><rect width="3.409" height="5.358" transform="translate(5.03)"/><path d="M381.11,117.106V127.2l-4.422,17.061v23.38h13.059v-23.38L386.115,127.2l-.4-10.095Z" transform="translate(-376.688 -111.748)"/><rect width="8.846" height="13.901" transform="translate(4.243 35.672)"/></g><rect class="aq" width="3.409" height="5.357" transform="translate(5.031)"/><path class="ad" d="M379.115,115.11v10.1l-4.423,17.061v23.379H387.75V142.267l-3.63-17.061-.4-10.1Z" transform="translate(-374.692 -109.753)"/><rect class="aq" width="8.848" height="13.901" transform="translate(4.242 35.672)"/></g><g transform="translate(277.761 103.744)"><path class="at" d="M278.246,95.941a.176.176,0,0,0,0-.353.176.176,0,0,0,0,.353Z" transform="translate(-278.077 -95.588)"/></g><g transform="translate(161.504 172.81)"><g transform="translate(0 0.72)"><g class="au"><path class="s" d="M205.632,142.1s-3.115,2.991-1.033,5.716,6.214,1.551,7.836.26,2.412-5.077.343-6.851A5.05,5.05,0,0,0,205.632,142.1Z" transform="translate(-203.882 -140.125)"/><g class="m" transform="translate(-1.491 0.003)"><path class="n" d="M216.46,140.15c.274-.092.652.088,1,.631a3.519,3.519,0,0,1,.426,1.069,5.311,5.311,0,0,1,.113,1.514,8.134,8.134,0,0,1-1.186,3.616,10.186,10.186,0,0,1-3.193,3.341l-.268.175c-.091.055-.188.1-.282.155-.188.1-.373.2-.566.291a9.3,9.3,0,0,1-1.166.436c-.1.027-.194.056-.291.085-.047.013-.1.028-.144.039l-.147.03c-.194.041-.389.078-.578.113s-.382.045-.569.066a5.173,5.173,0,0,1-.555.035,8.9,8.9,0,0,1-3.64-.674,6.191,6.191,0,0,1-2.017-1.3c-.4-.432-.545-.8-.428-1.069.238-.558,1.446-.547,3.068-.588a14.689,14.689,0,0,0,2.62-.287c.116-.019.226-.055.338-.085s.227-.053.338-.091.223-.077.334-.113l.085-.027c.028-.009.055-.022.081-.033l.166-.069c.224-.078.436-.2.658-.3l.321-.183c.055-.03.111-.058.165-.091l.157-.107c.1-.074.216-.135.318-.212s.2-.155.306-.23.2-.157.3-.241.2-.172.3-.259a13.512,13.512,0,0,0,1.067-1.075,11.616,11.616,0,0,0,1.47-2.053,15.17,15.17,0,0,0,.755-1.631C216,140.586,216.176,140.244,216.46,140.15Z" transform="translate(-202.931 -140.127)"/></g><g class="o" transform="translate(0.224 3.229)"><path class="p" d="M205.631,142.285c.063.139-.1.343-.226.625a3.5,3.5,0,0,0-.3,1.167c-.05.5-.041.989-.056,1.357s-.052.627-.19.68-.359-.129-.547-.512a3.107,3.107,0,0,1-.268-1.636,2.592,2.592,0,0,1,.271-.937,1.808,1.808,0,0,1,.541-.636,1.056,1.056,0,0,1,.522-.207C205.513,142.181,205.6,142.219,205.631,142.285Z" transform="translate(-204.025 -142.186)"/></g></g></g><path class="av" d="M206.656,142.332a7.189,7.189,0,0,1-.992.23c-.218.075-.746.259-.957.042-.475-.483,1.28-.664,1.517-.743-.185-.157-1.955.033-1.659-.715.157-.395,1.664-.071,1.982.06a4.4,4.4,0,0,1-.417-.6c-.071-.176-.223-.787.025-.91.456-.226.816,1.009.979,1.2a1.46,1.46,0,0,1,.577-1.059c.622-.34.49.338.329.674-.233.486-.675,1.9-1.38,1.785" transform="translate(-203.515 -139.666)"/></g><g transform="translate(141.699 171.635)"><g transform="translate(0 1.588)"><g class="aw"><path class="l" d="M195.338,140.4s-4.575,1.177-4.054,4.892,5.086,4.815,7.325,4.456,5.024-3.541,4.005-6.341A5.521,5.521,0,0,0,195.338,140.4Z" transform="translate(-191.243 -139.929)"/><g class="m" transform="translate(-2.751 4.134)"><path class="n" d="M207.179,142.578c.31.06.574.436.614,1.139a3.9,3.9,0,0,1-.168,1.249,5.906,5.906,0,0,1-.705,1.5,8.908,8.908,0,0,1-3.074,2.806,11.11,11.11,0,0,1-4.835,1.468c-.116.009-.234.016-.349.024s-.235,0-.351,0c-.233-.006-.465-.008-.7-.025a10.147,10.147,0,0,1-1.344-.212c-.107-.027-.216-.052-.324-.075-.052-.014-.107-.025-.16-.041l-.155-.05c-.207-.066-.412-.135-.611-.2s-.389-.161-.577-.244a5.343,5.343,0,0,1-.547-.263,9.754,9.754,0,0,1-3.106-2.6,6.722,6.722,0,0,1-1.222-2.322c-.15-.628-.091-1.055.166-1.249.525-.4,1.672.255,3.237,1.087a15.909,15.909,0,0,0,2.651,1.134,3.618,3.618,0,0,0,.367.1c.124.028.244.071.371.094s.252.047.379.072l.094.02c.031.006.064.008.1.013l.193.024c.257.047.522.044.788.071l.406,0c.067,0,.135,0,.2,0l.208-.017c.138-.013.276-.011.415-.028s.276-.041.415-.058.279-.039.42-.066.28-.056.42-.086a14.986,14.986,0,0,0,1.594-.451,12.812,12.812,0,0,0,2.5-1.166,16.358,16.358,0,0,0,1.6-1.15C206.512,142.749,206.858,142.515,207.179,142.578Z" transform="translate(-189.487 -142.568)"/></g><g class="o" transform="translate(0.398 1.485)"><path class="p" d="M194.539,141.2c-.013.166-.273.274-.55.473a3.833,3.833,0,0,0-.914.95c-.317.448-.569.92-.783,1.261s-.385.57-.547.547-.273-.315-.244-.782a3.414,3.414,0,0,1,.622-1.7,2.884,2.884,0,0,1,.765-.747,1.965,1.965,0,0,1,.856-.315,1.133,1.133,0,0,1,.608.085C194.484,141.037,194.545,141.12,194.539,141.2Z" transform="translate(-191.496 -140.877)"/></g></g></g><path class="ax" d="M195.44,141.7c-.442-.025-.635-.233-1.067-.312-.249-.045-.851-.155-.935-.475-.194-.714,1.576.055,1.844.107-.094-.248-1.882-1.019-1.2-1.57.36-.291,1.622.827,1.855,1.122a4.979,4.979,0,0,1-.074-.8c.028-.205.212-.87.514-.854.556.028.235,1.4.287,1.673a1.6,1.6,0,0,1,1.117-.7c.776.011.285.586-.049.819-.483.337-1.664,1.449-2.274.959" transform="translate(-190.007 -138.916)"/></g><g transform="translate(366.67 168.08)"><path class="ay" d="M335.466,145.917l4.876-.4-4.833-2.032.933-3.2,11.513,4.291,2.761,3.652-14.382.965Z" transform="translate(-334.45 -134.584)"/><path class="az" d="M335.308,152.828l17.521-2.273,1.982-1.913L339.19,136.925l-2.045,2.74,11.668,9.407-14,1.167Z" transform="translate(-334.818 -136.489)"/><path class="ba" d="M355.123,150.2l-14.906-13.554-2.044,2.74,12.863,10.646Z" transform="translate(-332.916 -136.647)"/><path class="bb" d="M337.063,153.134l16.211-5.414,11.888,2.4.6-3.739s-11.171-1.655-13.273-1.156-16.884,4.817-16.884,4.817Z" transform="translate(-334.371 -131.838)"/></g><path class="g" d="M294.453,130.273l5.448,13.351,2.493.783-6.507-16.2Z" transform="translate(8.968 26.65)"/><path class="x" d="M297.93,138.44s11.111-2.441,21.243,0C319.173,138.44,309.951,142.5,297.93,138.44Z" transform="translate(10.939 31.834)"/><g transform="translate(360.513 185.12)"><g transform="translate(0.419)"><path class="bc" d="M331.156,150.748V269.472l126.683.016,3.809-116.742Z" transform="translate(-331.156 -145.693)"/><path class="bc" d="M331.156,152.576l130.991,2.645v-6.806l-130.623-.894Z" transform="translate(-331.156 -147.522)"/></g><g transform="translate(0 37.965)"><path class="bd" d="M331.519,173.053H461.736a.651.651,0,0,0,0-1.3H331.519a.651.651,0,0,0,0,1.3Z" transform="translate(-330.889 -171.751)"/></g><g transform="translate(64.99 37.987)"><path class="bd" d="M372.365,172.395l1.039,85.178a.651.651,0,0,0,1.3,0q-.517-42.589-1.037-85.178a.652.652,0,0,0-1.3,0Z" transform="translate(-372.365 -171.765)"/></g><path class="be" d="M383.338,181.142a2.754,2.754,0,1,1-2.755-2.753A2.754,2.754,0,0,1,383.338,181.142Z" transform="translate(-304.277 -130.023)"/><circle class="be" cx="2.754" cy="2.754" r="2.754" transform="translate(49.809 48.366)"/><path class="be" d="M364.434,159.979h26.158S379.237,171.942,364.434,159.979Z" transform="translate(-311.871 -140.46)"/><path class="d" d="M461.648,152.746l-.063,7.342-130.429-9.34Z" transform="translate(-330.737 -145.693)"/></g><g transform="translate(122.37 182.592)"><g transform="translate(0)"><path class="bc" d="M179.067,149.135V267.859l126.683.016,3.809-116.742Z" transform="translate(-178.816 -144.08)"/><g transform="translate(0 43.208)"><path class="bd" d="M179.537,174.788H307.38a.652.652,0,0,0,0-1.3H179.537a.652.652,0,0,0,0,1.3Z" transform="translate(-178.907 -173.484)"/></g><g transform="translate(0 83.871)"><path class="bd" d="M179.537,200.739H307.38a.652.652,0,0,0,0-1.3H179.537a.652.652,0,0,0,0,1.3Z" transform="translate(-178.907 -199.435)"/></g><path class="be" d="M208.423,160.763h26.16S223.227,172.726,208.423,160.763Z" transform="translate(-162.173 -137.488)"/><path class="be" d="M208.423,185.971h26.16S223.227,197.934,208.423,185.971Z" transform="translate(-162.173 -123.197)"/><path class="be" d="M209.043,211.385H235.2S223.847,223.348,209.043,211.385Z" transform="translate(-161.822 -108.789)"/><path class="bf" d="M179.067,150.964l130.991,2.645V146.8l-130.623-.894Z" transform="translate(-178.816 -145.909)"/></g><path class="d" d="M179.067,149.135l118.1,10.623L296.2,151.5Z" transform="translate(-178.816 -144.08)"/></g><g transform="translate(0 26.945)"><path class="ab" d="M68.02,46.575,65.906,327.138H191.125l4.887-280.563Z" transform="translate(-65.906 -46.575)"/><path class="bg" d="M107.055,103.133l2.383,113.748h8.933l-5.657-113.748Z" transform="translate(-97.271 -14.512)"/><path class="bh" d="M132.247,122.088v23.569l34.225-1.61-3.053-21.958Z" transform="translate(-82.989 -3.765)"/><path class="bi" d="M139.727,117.929v8.765h5.392l-.891-8.765Z" transform="translate(-78.749 -6.123)"/><path class="bi" d="M153.284,83.7v8.765h5.392l-.891-8.765Z" transform="translate(-71.063 -25.527)"/><g transform="translate(51.763 126.478)"><path class="ad" d="M134.476,128.728q12.706-.066,25.414-.133a.651.651,0,0,0,0-1.3l-25.414.132a.652.652,0,0,0,0,1.3Z" transform="translate(-133.846 -127.293)"/></g><g transform="translate(52.576 130.833)"><path class="ad" d="M134.993,131.656q12.441-.141,24.878-.28a.652.652,0,0,0,0-1.3q-12.438.141-24.878.281a.652.652,0,0,0,0,1.3Z" transform="translate(-134.365 -130.072)"/></g><g transform="translate(53.211 135)"><path class="ad" d="M135.4,134.42q6.654-.193,13.309-.384c.837-.025.84-1.329,0-1.3l-13.309.384a.652.652,0,0,0,0,1.3Z" transform="translate(-134.77 -132.732)"/></g><path class="bh" d="M146.881,86.793v27.254l31.385-1.65-6.159-25.6Z" transform="translate(-74.693 -23.775)"/><g transform="translate(74.146 69.196)"><path class="ad" d="M148.759,92.515l18.985-.475a.652.652,0,0,0,0-1.3l-18.985.475a.652.652,0,0,0,0,1.3Z" transform="translate(-148.131 -90.736)"/></g><g transform="translate(75.716 72.737)"><path class="ad" d="M149.762,94.8q9.662-.249,19.328-.5a.651.651,0,0,0,0-1.3q-9.665.249-19.328.5a.651.651,0,0,0,0,1.3Z" transform="translate(-149.132 -92.996)"/></g><g transform="translate(79.654 75.495)"><path class="ad" d="M157.7,97.879c-.733-3.1-5.324-3.6-6-.161-.382,1.948,1.127,3.6,2.459,4.793,1.41,1.258,3.547,3.173,5.5,3.344,1.449.125,2.081-.943,2.487-2.155.627-1.874,1.517-4.527,1.144-6.52a2.75,2.75,0,0,0-2.809-2.419c-1.86.113-2.878,1.822-3.612,3.306-.371.749.752,1.409,1.125.657a5.283,5.283,0,0,1,1.282-1.934q1.241-1.673,2.773,1.277a11.805,11.805,0,0,1-.24,1.59c-.2,1.059-.458,3.668-1.236,4.5-1.125,1.2-4.217-1.5-4.961-2.112a13.382,13.382,0,0,1-1.495-1.379,4.526,4.526,0,0,1-1.116-1.84q2.334-3.925,3.438-.6c.193.815,1.449.47,1.257-.346Z" transform="translate(-151.645 -94.756)"/></g></g><g transform="translate(209.738 70.219)"><path class="bj" d="M271.948,129.206a9.717,9.717,0,0,0,11.534-15.63,8.32,8.32,0,0,0,4.931-5.588,11.189,11.189,0,0,0-.747-7.545,13.471,13.471,0,0,0-19.43-5.826c-3.772,2.369-6.138,6.459-7.675,10.641-2.029,5.519-2.824,11.794-.545,17.214s8.272,9.517,14.007,8.212" transform="translate(-221.076 -63.775)"/><g class="e" transform="translate(3.127 3.127)"><path d="M269.326,156.434s16.941,39.609,17.286,51.06-16.683,60.818-16.659,59.284-14.116-15.748-14.116-15.748,16.587-37.368,15.39-43.537-21.037-48.028-21.037-48.028Z" transform="translate(-228.991 -30.695)"/><path d="M258.747,125.1c.318.227,15.517,27.161,24.818,27.872s34.256-15.111,34.256-15.111l-4.991-6.634s-21.869,8.839-24.546,7.822-16.063-18.712-16.063-18.712Z" transform="translate(-224.139 -51.158)"/><path d="M275.083,157.229s-2.686,49.181-2.878,55.025-.959,56.492-.959,56.492H258.393s-3.645-52.429-3.261-55.759-7.291-55.759-7.291-55.759Z" transform="translate(-230.322 -30.244)"/><path d="M245.353,187.843s2.676-30.486,4.762-33.1c1.164-1.456-5.834-29.6-2.672-35.849,7.485-14.8,10.1-15.669,10.1-15.669l14.452,8.53,8.182,12.187v63.9Z" transform="translate(-231.733 -60.858)"/><path d="M270.426,130.765s-.349,20.259-12.769,19.8l-1.15,9.959L252.7,214.832l32.487-3.562-5.832-42.427-3.347-34.267Z" transform="translate(-227.567 -45.247)"/><path d="M298.619,92.234s-11.923,28.2-17.238,26.813l-8.927-2.448-6.045,11.5-14.452-8.532S276.1,80.3,275.755,80.13,298.619,92.234,298.619,92.234Z" transform="translate(-227.988 -73.954)"/><path d="M267.428,228.4s8.616,3.463,6.857,4.229c-3.212,1.4-15.39-1.652-19.71-4.229Z" transform="translate(-226.505 10.103)"/><path d="M293.074,145.177l-15.248,8.853L254.58,129.711s-4.145-8.532,2.715-14.1,12.408-5.436,14.376-2.09C273.659,116.9,293.074,145.177,293.074,145.177Z" transform="translate(-227.205 -56.351)"/><path d="M280.026,95.811c-.6,2.438-1.594,4.878-2.2,7.316a4.3,4.3,0,0,1-.832,1.926,1.553,1.553,0,0,1-1.932.389l-.652-.34Z" transform="translate(-215.258 -65.063)"/><path d="M266.528,90.009c-.075.849-.067,1.709-.083,2.562l.675-.091a2.389,2.389,0,0,0-1.163-1.968,1.227,1.227,0,0,0-1.578.533c-.68,1.139-.4,3.579,1.263,3.565.357,0,.465-.586.088-.649-.99-.161-1.086-1.33-.929-2.133.119-.61.616-1.123,1.217-.512a2.525,2.525,0,0,1,.439,1.346c.066.387.68.29.675-.091-.009-.852.008-1.711-.061-2.562a.272.272,0,0,0-.544,0Z" transform="translate(-221.141 -68.501)"/><path d="M262.894,143.981c-6.2-.185-12.255-.932-18.411-1.636-.548-.063-.644.815-.128.951a61.4,61.4,0,0,0,18.54,1.584.45.45,0,0,0,0-.9Z" transform="translate(-232.491 -38.684)"/><path d="M247.275,144.877c-2.092-.342-4.723-1.352-5.531-3.554-.255-.7.263-.5.832-.36a4.366,4.366,0,0,1,1.652.794,4.772,4.772,0,0,1,1.669,3.772.919.919,0,0,0,1.836,0,6.005,6.005,0,0,0-2.493-5.273c-1.222-.9-3.9-2.023-5.092-.5-1.136,1.459.531,3.532,1.6,4.491a7.032,7.032,0,0,0,5.356,1.9c.657-.075.964-1.147.174-1.277Z" transform="translate(-234.9 -40.575)"/><path d="M248.213,143.187a14.134,14.134,0,0,1-4.262,6.127c-2,1.658-4.353,2.169-6.749,2.966a.766.766,0,0,0,.2,1.5c6,.606,10.763-4.961,11.929-10.281a.582.582,0,0,0-1.122-.309Z" transform="translate(-236.661 -38.437)"/><path d="M274.407,118.394c-2.961-3.212-7.012-5.589-10.674-7.918-3.684-2.343-7.537-4.98-11.608-6.575-.823-.323-1.247.924-.575,1.366,3.642,2.394,7.7,4.195,11.4,6.54,3.668,2.325,7.09,5.254,10.931,7.261a.432.432,0,0,0,.522-.675Z" transform="translate(-228.408 -60.506)"/><path d="M252.845,128.694a15.327,15.327,0,0,1,.008-29.859c3.725-.865,8.139-.519,10.752-3.311,2.093-2.236,2.158-5.649,3.352-8.471a11.317,11.317,0,0,1,13.413-6.144,10.734,10.734,0,0,1,19.649,5.984,14.45,14.45,0,0,1,6.438,1.971c1.871,1.28,3.167,3.665,2.512,5.835-.7,2.31-3.234,3.53-5.6,3.989a18.215,18.215,0,0,1-17.236-6.277q-2,1.568-4,3.137a4.618,4.618,0,1,0-4.43,8.082c-.935,3.2-3.834,5.395-6.744,7.014s-6.083,2.951-8.353,5.387a23.29,23.29,0,0,0-2.131,2.811c-2.393,3.508-5.234,6.343-7.625,9.851" transform="translate(-234.206 -76.188)"/><path d="M272.721,93.288a3.342,3.342,0,0,0,2.611,3.342c1.263.208,2.9-.531,3.087-1.9.041-.307-.389-.346-.528-.144-.658.95-1.539,1.7-2.78,1.31a3.247,3.247,0,0,1-2.029-2.654c-.036-.2-.367-.155-.36.049Z" transform="translate(-216.217 -66.595)"/><path d="M264.888,92.9c.125.749.691,2.183-.475,2.418a.844.844,0,0,1-.976-.567.886.886,0,0,1,.548-1.053c.423-.226.13-.968-.334-.79a1.664,1.664,0,0,0,.291,3.2,1.63,1.63,0,0,0,1.7-.943,2.554,2.554,0,0,0-.431-2.4.179.179,0,0,0-.326.138Z" transform="translate(-221.974 -66.836)"/><path d="M293.263,128.8s6.04-5.644,6.872-3.817a9.993,9.993,0,0,1-1.882,10.451Z" transform="translate(-204.572 -48.73)"/><path d="M257.631,123.563c-.53,2.545-1.086,5.086-1.578,7.639-.063.327.436.47.5.139.536-2.545,1.009-5.1,1.507-7.658.055-.282-.374-.4-.434-.121Z" transform="translate(-225.67 -49.421)"/><path d="M252.754,133.281q.754.893,1.5,1.786a12.658,12.658,0,0,0,1.539,1.753c.221.18.594-.045.421-.326a12.269,12.269,0,0,0-1.489-1.7q-.832-.91-1.664-1.821c-.193-.21-.49.1-.312.312Z" transform="translate(-227.568 -44.037)"/><path d="M257.681,135.856c.541-.6,1.086-1.2,1.616-1.818a6.266,6.266,0,0,0,1.252-1.655c.089-.232-.218-.439-.414-.317a6.819,6.819,0,0,0-1.489,1.683c-.462.594-.915,1.2-1.371,1.793-.179.233.212.531.406.313Z" transform="translate(-224.999 -44.529)"/><path d="M258.572,139.462a34.989,34.989,0,0,0,2.8-2.314c.252-.26-.08-.735-.4-.519a35.557,35.557,0,0,0-2.83,2.407c-.3.251.13.671.426.426Z" transform="translate(-224.537 -41.954)"/><path d="M250.722,139.872c1.247.707,2.48,1.482,3.779,2.09a.347.347,0,0,0,.349-.6c-1.222-.752-2.549-1.355-3.825-2.01-.342-.176-.642.327-.3.519Z" transform="translate(-228.773 -40.399)"/><path d="M248.127,147.965a44.648,44.648,0,0,0,4.624,2.2c.356.124.558-.409.251-.594a43.67,43.67,0,0,0-4.566-2.129c-.354-.161-.666.354-.309.528Z" transform="translate(-230.25 -35.813)"/><path d="M253.887,151.52c-.912.874-1.81,1.753-2.65,2.7a9.431,9.431,0,0,0-1.926,2.562.263.263,0,0,0,.384.295,16.494,16.494,0,0,0,2.15-2.5c.783-.912,1.6-1.8,2.463-2.631.276-.266-.146-.688-.421-.421Z" transform="translate(-229.496 -33.529)"/><path d="M254.414,146.962l-.132-.052c-.638-.251-.641,1.02,0,.768l.132-.052a.348.348,0,0,0,0-.664Z" transform="translate(-226.942 -36.113)"/><path d="M256.77,141.142l-.053-.116a.339.339,0,0,0-.581,0l-.053.116c-.343.751,1.031.751.688,0Z" transform="translate(-225.682 -39.523)"/><path d="M250.733,135.943l.006-.146c.027-.5-.8-.5-.771,0l.008.146a.379.379,0,0,0,.757,0Z" transform="translate(-229.117 -42.606)"/><path d="M255.943,132.9a.369.369,0,0,0,0-.738.369.369,0,0,0,0,.738Z" transform="translate(-225.931 -44.456)"/><path d="M250.626,133.085a41.4,41.4,0,0,0,4.152-4.154c.191-.257-.19-.641-.448-.448a41.26,41.26,0,0,0-4.143,4.165.31.31,0,0,0,.439.437Z" transform="translate(-229.044 -46.57)"/><path d="M252.577,127.734a.347.347,0,0,0,0-.693.347.347,0,0,0,0,.693Z" transform="translate(-227.828 -47.358)"/><path d="M248.419,124.008c.91,1.691,1.669,3.551,2.717,5.155a.3.3,0,0,0,.523-.306c-.774-1.753-1.919-3.4-2.839-5.085-.144-.262-.544-.028-.4.235Z" transform="translate(-230.012 -49.276)"/><path d="M252.678,122.168a.372.372,0,0,0,0-.744.372.372,0,0,0,0,.744Z" transform="translate(-227.784 -50.543)"/><path d="M247.653,118.994a27.568,27.568,0,0,0,3.032,2.114c.32.163.711-.268.406-.526a27.64,27.64,0,0,0-3.178-2.034c-.285-.18-.53.257-.26.447Z" transform="translate(-230.495 -52.198)"/><path d="M251.022,119.4c.79-.52,1.561-1.075,2.3-1.666a7.518,7.518,0,0,0,2.035-1.981.338.338,0,0,0-.459-.459,13.758,13.758,0,0,0-1.851,1.755,20.171,20.171,0,0,1-2.327,1.832c-.318.215-.022.732.3.519Z" transform="translate(-228.768 -54.046)"/><path d="M251.086,114.306a.357.357,0,0,0,0-.713.357.357,0,0,0,0,.713Z" transform="translate(-228.678 -54.982)"/><path d="M254.19,110.309l2,1.217a8.027,8.027,0,0,0,1.86,1.017.278.278,0,0,0,.27-.461,8.092,8.092,0,0,0-1.813-1.1l-2.056-1.12a.259.259,0,0,0-.262.447Z" transform="translate(-226.794 -57.117)"/><path d="M261.256,114.853a.347.347,0,0,0,0-.694.347.347,0,0,0,0,.694Z" transform="translate(-222.907 -54.661)"/><path d="M258.42,116.268a40.255,40.255,0,0,0-.563,4.826.312.312,0,0,0,.61.083,40.758,40.758,0,0,0,.617-4.909c.05-.425-.613-.418-.664,0Z" transform="translate(-224.644 -53.645)"/><path d="M254.063,119.777a.33.33,0,0,0,0-.66.33.33,0,0,0,0,.66Z" transform="translate(-226.975 -51.85)"/><path d="M261.436,120.877l-.075-.1a.314.314,0,0,0-.531,0l-.077.1a.4.4,0,1,0,.683,0Z" transform="translate(-223.038 -50.994)"/><path d="M259.693,125.786a43.071,43.071,0,0,0,4.517,2.8c.339.157.783-.295.436-.566a43.049,43.049,0,0,0-4.622-2.8.328.328,0,0,0-.331.566Z" transform="translate(-223.691 -48.418)"/><path d="M267.343,120.85c-.313,1.667-.749,3.363-.907,5.053-.035.368.547.434.638.086.422-1.614.586-3.331.859-4.978.063-.382-.516-.552-.589-.161Z" transform="translate(-219.782 -50.994)"/><path d="M263.679,119.317a.335.335,0,0,0,0-.669.335.335,0,0,0,0,.669Z" transform="translate(-221.527 -52.116)"/><path d="M265.678,128.991a.448.448,0,0,0,0-.895.448.448,0,0,0,0,.895Z" transform="translate(-220.455 -46.76)"/><path d="M267.614,133.932a26.847,26.847,0,0,0,2.27-3.728c.147-.356-.411-.669-.649-.378a26.486,26.486,0,0,0-2.223,3.753.349.349,0,0,0,.6.353Z" transform="translate(-219.482 -45.844)"/><path d="M268.054,124.758c1.5,1.29,2.905,2.969,4.632,3.952.307.174.553-.212.356-.461-1.222-1.534-3.074-2.648-4.561-3.917-.293-.249-.719.172-.426.426Z" transform="translate(-218.919 -48.937)"/><path d="M275.153,131.934l.132-.052a.441.441,0,0,0,0-.843l-.132-.052c-.785-.309-.79,1.257,0,.946Z" transform="translate(-215.174 -45.144)"/><path d="M271.243,133.6l-.146,0a.463.463,0,0,0,0,.924c.049,0,.1,0,.146-.006a.457.457,0,0,0,0-.913Z" transform="translate(-217.391 -43.643)"/><path d="M253.511,122.35c7.869,8.718,15.276,17.758,23.958,25.71.367.335.915-.212.547-.547-8.662-7.875-16.393-16.743-24.377-25.292-.08-.085-.205.042-.128.128Z" transform="translate(-227.122 -50.106)"/><path d="M268.738,142c2.4-.092,4.478-1.866,6.446-3.077,3.171-1.951,6.36-3.884,9.485-5.912.343-.222.033-.766-.324-.552-2.659,1.6-5.273,3.278-7.9,4.934-2.462,1.553-4.92,3.582-7.73,4.448a.081.081,0,0,0,.022.158Z" transform="translate(-218.52 -44.312)"/><path d="M248.207,136.285c.619.472,1.216.971,1.833,1.449a8.6,8.6,0,0,0,1.592,1.133.292.292,0,0,0,.353-.456,9.189,9.189,0,0,0-1.658-1.269c-.619-.436-1.254-.846-1.868-1.288-.265-.19-.5.24-.252.431Z" transform="translate(-230.175 -42.389)"/><path d="M248.364,136.078c1.451.5,3.529,1.186,5.066.758a.234.234,0,0,0,0-.447,13.667,13.667,0,0,0-2.211-.2,15.849,15.849,0,0,1-2.737-.542.223.223,0,0,0-.118.429Z" transform="translate(-230.114 -42.484)"/><path d="M271.972,98.866c-1.059,1.683.2,4.472,2.391,4.094.284-.05.244-.464,0-.537a2.892,2.892,0,0,1-1.778-1.017,2.378,2.378,0,0,1-.116-2.332c.122-.291-.338-.458-.5-.208Z" transform="translate(-216.858 -63.4)"/><path d="M271.2,100.272a2.034,2.034,0,0,1,2.025-.694.3.3,0,0,0,.161-.584,2.1,2.1,0,0,0-2.537,1.073.2.2,0,0,0,.351.205Z" transform="translate(-217.294 -63.325)"/><path d="M270.767,96.611a.8.8,0,0,0-.942.631,1.194,1.194,0,0,0,.479,1.119,2.5,2.5,0,0,0,1.186.443c.787.114,1.788-.08,2.013-.843a1.363,1.363,0,0,0-1.048-1.539,3.951,3.951,0,0,0-2.043.165" transform="translate(-217.869 -64.761)"/></g><path class="bk" d="M267.329,154.438s16.941,39.609,17.286,51.06-16.683,60.82-16.659,59.284-14.116-15.746-14.116-15.746,16.589-37.369,15.392-43.538-21.037-48.026-21.037-48.026Z" transform="translate(-226.995 -28.7)"/><path class="bl" d="M256.751,123.108c.318.227,15.517,27.159,24.818,27.872s34.258-15.113,34.258-15.113l-4.991-6.634s-21.871,8.839-24.547,7.822-16.062-18.712-16.062-18.712Z" transform="translate(-222.144 -49.162)"/><path class="bm" d="M273.087,155.233s-2.686,49.182-2.877,55.025-.96,56.492-.96,56.492H256.4s-3.645-52.427-3.261-55.759-7.291-55.759-7.291-55.759Z" transform="translate(-228.327 -28.249)"/><path class="bn" d="M243.357,185.847s2.676-30.486,4.762-33.095c1.166-1.457-5.832-29.6-2.672-35.851,7.487-14.8,10.1-15.669,10.1-15.669L270,109.762l8.182,12.189v63.9Z" transform="translate(-229.737 -58.863)"/><path class="bo" d="M268.432,128.769s-.351,20.259-12.77,19.8l-1.149,9.959-3.808,54.3,32.487-3.563-5.832-42.424-3.347-34.267Z" transform="translate(-225.571 -43.252)"/><path class="bl" d="M296.623,90.238s-11.921,28.2-17.236,26.813l-8.928-2.448-6.045,11.5-14.452-8.532s24.146-39.264,23.8-39.438S296.623,90.238,296.623,90.238Z" transform="translate(-225.992 -71.958)"/><path class="bp" d="M265.432,226.4s8.616,3.463,6.858,4.231c-3.214,1.4-15.392-1.653-19.712-4.231Z" transform="translate(-224.509 12.099)"/><path class="bn" d="M291.08,143.18l-15.249,8.855-23.247-24.32s-4.144-8.532,2.715-14.1,12.41-5.436,14.377-2.09C271.664,114.9,291.08,143.18,291.08,143.18Z" transform="translate(-225.21 -54.355)"/><g transform="translate(59.155 30.747)"><path class="bl" d="M278.03,93.815c-.6,2.438-1.6,4.879-2.2,7.316a4.316,4.316,0,0,1-.834,1.927,1.554,1.554,0,0,1-1.932.387l-.652-.34Z" transform="translate(-272.417 -93.815)"/></g><g transform="translate(42.894 21.246)"><path class="bq" d="M264.533,88.013c-.077.851-.067,1.71-.085,2.562.226-.03.451-.06.677-.091a2.392,2.392,0,0,0-1.164-1.966,1.225,1.225,0,0,0-1.578.533c-.68,1.139-.4,3.577,1.263,3.563.357,0,.467-.586.088-.649-.989-.16-1.086-1.329-.929-2.131.119-.611.617-1.125,1.219-.514a2.538,2.538,0,0,1,.437,1.348c.066.387.68.288.677-.092-.009-.852.006-1.711-.063-2.562a.271.271,0,0,0-.542,0Z" transform="translate(-262.039 -87.751)"/></g><g transform="translate(11.525 103.659)"><path class="bo" d="M260.9,141.986c-6.2-.186-12.256-.934-18.411-1.636-.548-.063-.646.815-.128.95a61.391,61.391,0,0,0,18.54,1.584.449.449,0,0,0,0-.9Z" transform="translate(-242.02 -140.347)"/></g><g transform="translate(4.866 98.431)"><path class="bo" d="M245.278,142.882c-2.092-.343-4.723-1.354-5.53-3.555-.257-.7.262-.494.831-.359a4.347,4.347,0,0,1,1.653.793,4.773,4.773,0,0,1,1.667,3.772.919.919,0,0,0,1.836,0,6.011,6.011,0,0,0-2.491-5.273c-1.224-.9-3.906-2.023-5.094-.494-1.134,1.457.531,3.53,1.6,4.489a7.034,7.034,0,0,0,5.357,1.9c.655-.075.962-1.147.172-1.275Z" transform="translate(-237.77 -137.011)"/></g><g transform="translate(0 104.342)"><path class="bo" d="M246.216,141.191a14.125,14.125,0,0,1-4.262,6.127c-2,1.658-4.353,2.169-6.747,2.966a.767.767,0,0,0,.2,1.5c6,.6,10.763-4.961,11.927-10.281a.582.582,0,0,0-1.12-.31Z" transform="translate(-234.665 -140.783)"/></g><g transform="translate(22.809 43.344)"><path class="bo" d="M272.411,116.4c-2.961-3.212-7.01-5.589-10.674-7.918-3.684-2.343-7.537-4.978-11.606-6.573-.824-.324-1.249.924-.577,1.365,3.643,2.4,7.7,4.195,11.4,6.54,3.668,2.325,7.09,5.255,10.931,7.261a.432.432,0,0,0,.522-.675Z" transform="translate(-249.222 -101.854)"/></g><g transform="translate(6.785)"><path class="bj" d="M250.849,126.7a15.328,15.328,0,0,1,.008-29.859c3.726-.863,8.14-.519,10.752-3.309,2.095-2.238,2.158-5.649,3.35-8.472a11.322,11.322,0,0,1,13.414-6.144A10.735,10.735,0,0,1,298.022,84.9a14.469,14.469,0,0,1,6.438,1.971c1.871,1.28,3.168,3.667,2.513,5.835-.7,2.31-3.236,3.53-5.6,3.989a18.211,18.211,0,0,1-17.236-6.277q-2,1.57-4,3.137a4.619,4.619,0,1,0-4.43,8.084c-.934,3.195-3.834,5.393-6.744,7.012s-6.083,2.952-8.352,5.387a23.141,23.141,0,0,0-2.133,2.811c-2.391,3.508-5.234,6.343-7.625,9.851" transform="translate(-238.995 -74.192)"/></g><g transform="translate(56.505 26.513)"><path class="bj" d="M270.726,91.293a3.341,3.341,0,0,0,2.61,3.342c1.261.208,2.9-.533,3.085-1.9.041-.306-.387-.346-.528-.143-.658.95-1.539,1.7-2.78,1.308a3.252,3.252,0,0,1-2.029-2.653c-.034-.205-.367-.157-.359.049Z" transform="translate(-270.726 -91.113)"/></g><g transform="translate(40.593 25.846)"><path class="br" d="M262.892,90.908c.125.749.691,2.183-.475,2.419a.847.847,0,0,1-.976-.569.884.884,0,0,1,.548-1.051c.423-.226.132-.97-.332-.791a1.664,1.664,0,0,0,.29,3.2,1.628,1.628,0,0,0,1.7-.943,2.56,2.56,0,0,0-.432-2.4.179.179,0,0,0-.326.138Z" transform="translate(-260.571 -90.687)"/></g><path class="bl" d="M291.268,126.806s6.039-5.644,6.871-3.819a10,10,0,0,1-1.88,10.453Z" transform="translate(-202.575 -46.735)"/><g transform="translate(30.379 73.98)"><path class="bs" d="M255.634,121.569c-.53,2.545-1.084,5.086-1.576,7.639-.064.327.434.47.5.139.536-2.546,1.009-5.107,1.507-7.659.055-.282-.373-.4-.434-.119Z" transform="translate(-254.052 -121.406)"/></g><g transform="translate(25.131 88.862)"><path class="bs" d="M250.759,131.285l1.5,1.788a12.624,12.624,0,0,0,1.537,1.752c.223.18.594-.047.422-.324a12,12,0,0,0-1.489-1.706l-1.664-1.819c-.193-.212-.49.1-.31.31Z" transform="translate(-250.703 -130.904)"/></g><g transform="translate(32.23 87.501)"><path class="bs" d="M255.685,133.861c.541-.6,1.086-1.2,1.616-1.819a6.26,6.26,0,0,0,1.252-1.653c.091-.233-.216-.44-.412-.318a6.787,6.787,0,0,0-1.489,1.683c-.464.594-.915,1.2-1.373,1.793-.179.233.212.533.406.315Z" transform="translate(-255.234 -130.035)"/></g><g transform="translate(33.51 94.621)"><path class="bs" d="M256.576,137.465a34.066,34.066,0,0,0,2.8-2.314c.252-.26-.08-.733-.4-.517a35.183,35.183,0,0,0-2.828,2.407c-.3.251.13.671.425.425Z" transform="translate(-256.051 -134.579)"/></g><g transform="translate(21.801 98.918)"><path class="bs" d="M248.727,137.877c1.247.705,2.48,1.481,3.778,2.089a.348.348,0,0,0,.351-.6c-1.222-.749-2.549-1.354-3.826-2.007-.342-.177-.641.326-.3.519Z" transform="translate(-248.578 -137.321)"/></g><g transform="translate(17.72 111.593)"><path class="bs" d="M246.131,145.969a44.967,44.967,0,0,0,4.624,2.2c.356.124.558-.407.251-.594a43.832,43.832,0,0,0-4.566-2.129c-.354-.16-.664.354-.309.528Z" transform="translate(-245.974 -145.411)"/></g><g transform="translate(19.802 117.905)"><path class="bs" d="M251.891,149.524c-.912.874-1.81,1.753-2.648,2.7a9.406,9.406,0,0,0-1.927,2.562c-.078.2.207.432.384.3a16.6,16.6,0,0,0,2.151-2.5c.782-.91,1.6-1.8,2.462-2.631.277-.266-.144-.688-.421-.422Z" transform="translate(-247.302 -149.439)"/></g><g transform="translate(26.861 110.764)"><path class="bs" d="M252.418,144.965l-.132-.052c-.636-.249-.641,1.02,0,.768l.132-.052a.348.348,0,0,0,0-.664Z" transform="translate(-251.807 -144.881)"/></g><g transform="translate(30.345 101.339)"><path class="bs" d="M254.774,139.146l-.052-.114a.339.339,0,0,0-.583,0c-.017.038-.036.075-.053.114-.343.751,1.031.751.688,0Z" transform="translate(-254.031 -138.866)"/></g><g transform="translate(20.851 92.819)"><path class="bs" d="M248.737,133.948l.008-.146c.025-.5-.8-.5-.773,0l.008.146a.379.379,0,0,0,.757,0Z" transform="translate(-247.972 -133.429)"/></g><g transform="translate(29.657 87.703)"><path class="bs" d="M253.948,130.9a.369.369,0,0,0,0-.738.369.369,0,0,0,0,.738Z" transform="translate(-253.592 -130.164)"/></g><g transform="translate(21.052 81.86)"><path class="bs" d="M248.63,131.09a41.577,41.577,0,0,0,4.152-4.155c.191-.257-.19-.641-.447-.448a41.6,41.6,0,0,0-4.144,4.165.31.31,0,0,0,.439.439Z" transform="translate(-248.1 -126.435)"/></g><g transform="translate(24.413 79.68)"><path class="bs" d="M250.58,125.738a.347.347,0,0,0,0-.694.347.347,0,0,0,0,.694Z" transform="translate(-250.245 -125.044)"/></g><g transform="translate(18.377 74.383)"><path class="bs" d="M246.423,122.012c.912,1.691,1.669,3.551,2.717,5.155a.3.3,0,0,0,.523-.306c-.774-1.753-1.919-3.4-2.839-5.083-.144-.263-.542-.03-.4.233Z" transform="translate(-246.393 -121.663)"/></g><g transform="translate(24.536 70.882)"><path class="bs" d="M250.682,120.17a.371.371,0,0,0,0-.741.371.371,0,0,0,0,.741Z" transform="translate(-250.323 -119.429)"/></g><g transform="translate(17.042 66.307)"><path class="bs" d="M245.657,117a27.225,27.225,0,0,0,3.034,2.114c.318.165.711-.268.406-.526a27.99,27.99,0,0,0-3.178-2.034c-.287-.18-.53.259-.262.447Z" transform="translate(-245.541 -116.509)"/></g><g transform="translate(21.815 61.198)"><path class="bs" d="M249.027,117.4c.79-.52,1.559-1.073,2.3-1.666a7.473,7.473,0,0,0,2.035-1.981.337.337,0,0,0-.458-.458,13.572,13.572,0,0,0-1.852,1.753,20.036,20.036,0,0,1-2.327,1.832c-.318.215-.022.733.3.519Z" transform="translate(-248.587 -113.248)"/></g><g transform="translate(22.063 58.61)"><path class="bs" d="M249.09,112.312a.357.357,0,0,0,0-.715.357.357,0,0,0,0,.715Z" transform="translate(-248.745 -111.597)"/></g><g transform="translate(27.272 52.71)"><path class="bs" d="M252.194,108.315q1,.609,2,1.216a8,8,0,0,0,1.862,1.017.278.278,0,0,0,.268-.461,8.054,8.054,0,0,0-1.811-1.1q-1.029-.559-2.057-1.122a.26.26,0,0,0-.262.448Z" transform="translate(-252.069 -107.832)"/></g><g transform="translate(38.014 59.499)"><path class="bs" d="M259.26,112.857a.346.346,0,0,0,0-.693.346.346,0,0,0,0,.693Z" transform="translate(-258.925 -112.164)"/></g><g transform="translate(33.213 62.308)"><path class="bs" d="M256.423,114.274a40.193,40.193,0,0,0-.562,4.826.312.312,0,0,0,.609.083,41.115,41.115,0,0,0,.619-4.909c.05-.425-.614-.42-.666,0Z" transform="translate(-255.861 -113.957)"/></g><g transform="translate(26.769 67.267)"><path class="bs" d="M252.067,117.78a.329.329,0,0,0,0-.658.329.329,0,0,0,0,.658Z" transform="translate(-251.749 -117.122)"/></g><g transform="translate(37.651 69.634)"><path class="bs" d="M259.44,118.882c-.024-.034-.05-.069-.075-.1a.312.312,0,0,0-.531,0l-.077.1c-.185.248.067.594.343.594s.526-.346.34-.594Z" transform="translate(-258.694 -118.632)"/></g><g transform="translate(35.848 76.753)"><path class="bs" d="M257.7,123.79a42.391,42.391,0,0,0,4.519,2.8c.338.158.78-.295.436-.563a43.235,43.235,0,0,0-4.624-2.806.328.328,0,0,0-.331.566Z" transform="translate(-257.543 -123.176)"/></g><g transform="translate(46.652 69.634)"><path class="bs" d="M265.348,118.854c-.315,1.667-.749,3.363-.909,5.053-.034.37.547.434.638.086.423-1.614.588-3.331.859-4.978.064-.382-.516-.552-.588-.161Z" transform="translate(-264.438 -118.632)"/></g><g transform="translate(41.829 66.531)"><path class="bs" d="M261.683,117.321a.335.335,0,0,0,0-.669.335.335,0,0,0,0,.669Z" transform="translate(-261.36 -116.652)"/></g><g transform="translate(44.792 81.337)"><path class="bs" d="M263.682,126.994a.447.447,0,0,0,0-.893.447.447,0,0,0,0,.893Z" transform="translate(-263.251 -126.101)"/></g><g transform="translate(47.479 83.867)"><path class="bs" d="M265.62,131.936a26.8,26.8,0,0,0,2.269-3.728c.147-.356-.41-.668-.649-.378a26.638,26.638,0,0,0-2.223,3.753.35.35,0,0,0,.6.353Z" transform="translate(-264.966 -127.716)"/></g><g transform="translate(49.036 75.318)"><path class="bs" d="M266.058,122.761c1.5,1.29,2.905,2.971,4.632,3.952.307.174.555-.212.356-.461-1.222-1.534-3.074-2.648-4.563-3.916-.291-.251-.718.171-.425.425Z" transform="translate(-265.959 -122.26)"/></g><g transform="translate(59.388 85.803)"><path class="bs" d="M273.157,129.94l.133-.052a.443.443,0,0,0,0-.845l-.133-.052c-.785-.309-.79,1.258,0,.948Z" transform="translate(-272.566 -128.951)"/></g><g transform="translate(53.26 89.95)"><path class="bs" d="M269.247,131.6l-.146-.006a.463.463,0,0,0,0,.924l.146,0a.457.457,0,0,0,0-.913Z" transform="translate(-268.655 -131.598)"/></g><g transform="translate(26.366 72.086)"><path class="at" d="M251.516,120.354c7.869,8.718,15.276,17.758,23.958,25.71.365.334.913-.212.545-.547-8.66-7.875-16.393-16.743-24.377-25.292-.078-.085-.2.042-.127.128Z" transform="translate(-251.492 -120.197)"/></g><g transform="translate(50.14 88.103)"><path class="at" d="M266.742,140.009c2.4-.094,4.478-1.866,6.446-3.076,3.173-1.951,6.362-3.884,9.485-5.912.345-.222.033-.766-.323-.553-2.661,1.6-5.274,3.278-7.9,4.934-2.463,1.554-4.922,3.582-7.731,4.448a.081.081,0,0,0,.022.158Z" transform="translate(-266.664 -130.419)"/></g><g transform="translate(17.927 93.418)"><path class="at" d="M246.211,134.289c.62.472,1.217.973,1.833,1.449a8.79,8.79,0,0,0,1.592,1.134.293.293,0,0,0,.353-.458,9.109,9.109,0,0,0-1.658-1.268c-.617-.437-1.254-.848-1.868-1.29-.263-.188-.5.241-.252.431Z" transform="translate(-246.106 -133.811)"/></g><g transform="translate(18.096 93.156)"><path class="at" d="M246.368,134.081c1.453.5,3.529,1.188,5.066.76a.235.235,0,0,0,0-.448,13.449,13.449,0,0,0-2.209-.2,16.109,16.109,0,0,1-2.739-.542.222.222,0,0,0-.117.428Z" transform="translate(-246.214 -133.644)"/></g><g transform="translate(54.734 35.344)"><path class="bq" d="M269.977,96.87c-1.059,1.683.2,4.474,2.39,4.094.285-.05.244-.464,0-.537a2.9,2.9,0,0,1-1.778-1.015,2.385,2.385,0,0,1-.116-2.333c.122-.291-.34-.458-.5-.208Z" transform="translate(-269.596 -96.748)"/></g><g transform="translate(53.529 35.552)"><path class="bq" d="M269.2,98.276a2.037,2.037,0,0,1,2.024-.693.3.3,0,0,0,.161-.584,2.1,2.1,0,0,0-2.535,1.073.2.2,0,0,0,.349.2Z" transform="translate(-268.827 -96.881)"/></g><g class="bt" transform="translate(51.94 31.581)"><path class="bq" d="M268.772,94.615a.8.8,0,0,0-.943.633,1.193,1.193,0,0,0,.481,1.117,2.469,2.469,0,0,0,1.186.442c.787.116,1.788-.078,2.012-.841a1.36,1.36,0,0,0-1.048-1.539,3.945,3.945,0,0,0-2.042.165" transform="translate(-267.812 -94.347)"/></g></g></g><g transform="translate(635.354 213.758)"><path class="bu" d="M690.823,177.5c-.951,0-35.748,18.444-39.552,31.566a70.019,70.019,0,0,0-2.471,24.718" transform="translate(-640.249 -127.583)"/><path class="bv" d="M650.166,199.451s11.307,2.068,21.03-3.012C671.2,196.439,655.837,193.609,650.166,199.451Z" transform="translate(-639.347 -117.237)"/><path class="bv" d="M653.307,193.454s.2.042.561.108c2.415.453,12.045,2.048,17.724-.108,0,0-9.76-3.676-18.085.042" transform="translate(-637.566 -119.46)"/><path class="bv" d="M657.131,189.568s9.522,4.386,19.27,0C676.4,189.568,664.577,187.547,657.131,189.568Z" transform="translate(-635.398 -121.253)"/><path class="bv" d="M661.72,186.041s7.838,2.831,14.969-.508C676.689,185.533,665.886,184.476,661.72,186.041Z" transform="translate(-632.797 -123.229)"/><path class="bv" d="M667.126,182.16s6.318,2.921,11.733,1.567C678.859,183.727,675.431,182.127,667.126,182.16Z" transform="translate(-629.732 -124.943)"/><path class="bv" d="M659.864,178.505s-6.554,8.339-3.278,18.339C656.586,196.844,660.135,184.1,659.864,178.505Z" transform="translate(-636.227 -127.015)"/><path class="bv" d="M668.743,177.173c-.009-.285-8.485,6.153-7.491,14.629C661.251,191.8,668.833,179.7,668.743,177.173Z" transform="translate(-633.108 -127.775)"/><path class="bv" d="M671.868,175.1c.058-.32-6.086,4.356-5.6,11.069C666.271,186.17,671.146,179.072,671.868,175.1Z" transform="translate(-630.232 -128.953)"/><path class="bv" d="M653.321,181.836s-5.5,10.508,0,18.386C653.321,200.222,654.315,186.167,653.321,181.836Z" transform="translate(-638.945 -125.127)"/><path class="bv" d="M646.344,185.184s-.542,13.1,2.527,16.562l3.068,3.463-1.534-3.463S649.143,186.911,646.344,185.184Z" transform="translate(-641.534 -123.229)"/><path class="bv" d="M650.033,198.6" transform="translate(-639.422 -115.622)"/><g transform="translate(5.475)"><path class="ad" d="M648.084,253.608a173.707,173.707,0,0,1,9.629-60.5c3.33-9.485,8.449-17.335,14.364-25.373,5.609-7.628,11.9-15.169,19.554-20.838.666-.494.017-1.625-.658-1.125-7.024,5.2-12.911,11.924-18.193,18.848-5.837,7.651-11.573,15.52-15.023,24.569a172.967,172.967,0,0,0-10.973,64.421.651.651,0,0,0,1.3,0Z" transform="translate(-646.755 -145.644)"/></g><path class="ad" d="M659.694,167.388s6.641,1.393,17.5-10.749C677.2,156.639,662.314,164.34,659.694,167.388Z" transform="translate(-633.945 -139.411)"/><path class="ad" d="M665.118,159.264s6.622.237,12.932-7.255C678.05,152.009,669.692,155.951,665.118,159.264Z" transform="translate(-630.87 -142.036)"/><path class="ad" d="M670.2,147.33s-7.029,9.605-5.837,14.586C664.362,161.916,670.674,150.563,670.2,147.33Z" transform="translate(-631.376 -144.689)"/><path class="ad" d="M666.18,152.261s-9.812,9.861-7.429,20.069C658.751,172.33,666.73,156.282,666.18,152.261Z" transform="translate(-634.692 -141.893)"/><path class="ad" d="M674.939,161.872s-14.85,6.467-19.029,13.4C655.91,175.275,670.395,168.969,674.939,161.872Z" transform="translate(-636.091 -136.445)"/><path class="ad" d="M656.938,159.2s-6.849,14.138-2.2,22.562C654.737,181.767,658.122,163.7,656.938,159.2Z" transform="translate(-637.672 -137.957)"/><path class="ad" d="M653.12,180.6s14.3-6.385,15.92-10.722C669.04,169.873,660.339,171.214,653.12,180.6Z" transform="translate(-637.672 -131.909)"/><path class="ad" d="M649.469,163.654s-3.529,21.511,1.822,26.78,0-.509,0-.509S652.86,166.692,649.469,163.654Z" transform="translate(-640.389 -135.434)"/><path class="ad" d="M643.272,168.943c-.169-.124,1.658,22.573,10.807,26.437v-.989s-2.61-.284-3.228-2.521S648.709,172.922,643.272,168.943Z" transform="translate(-643.261 -132.436)"/><path class="ae" d="M643.816,204.191l2.311,32.344,13.051.477-1.888-27.993Z" transform="translate(-642.947 -112.453)"/></g><g class="bw" transform="translate(354.924 102.465)"><rect class="ca" width="54" height="54"/><rect class="a" x="1" y="1" width="52" height="52"/></g><g class="bw" transform="translate(536.924 159.465)"><rect class="ca" width="54" height="54"/><rect class="a" x="1" y="1" width="52" height="52"/></g><g class="bx" transform="translate(352.924 324.465)"><rect class="ca" width="34" height="34"/><rect class="a" x="1" y="1" width="32" height="32"/></g><g class="bw" transform="translate(280.924 68.465)"><rect class="ca" width="54" height="54"/><rect class="a" x="1" y="1" width="52" height="52"/></g><g class="bw" transform="translate(184.924 113.465)"><rect class="ca" width="43" height="43"/><rect class="a" x="1" y="1" width="41" height="41"/></g><g class="bw" transform="translate(164.924 165.465)"><rect class="ca" width="43" height="43"/><rect class="a" x="1" y="1" width="41" height="41"/></g><g transform="translate(-324.076 -251.535)"><rect class="bc" width="50" height="21" transform="translate(727 319)"/><text class="by" transform="translate(752 333)"><tspan x="-14.706" y="0">Woman</tspan></text></g><g transform="translate(-150.582 -194.535)"><rect class="bc" width="68" height="21" transform="translate(726.507 319)"/><text class="by" transform="translate(760.507 333)"><tspan x="-27.797" y="0">2 Wine Bottles</tspan></text></g><g transform="translate(-424.178 54.465)"><rect class="bz" width="70" height="21" transform="translate(727.103 319)"/><text class="by" transform="translate(762.103 333)"><tspan x="-25.672" y="0">Liberty Shoes</tspan></text></g><g transform="translate(-398.076 -285.535)"><rect class="bc" width="114" height="21" transform="translate(695 319)"/><text class="by" transform="translate(752 333)"><tspan x="-46.413" y="0">Celebrity: Emma Watson</tspan></text></g><g transform="translate(-594.076 -262.252)"><rect class="bc" width="114" height="32" transform="translate(685 329.717)"/><text class="by" transform="translate(742 342.717)"><tspan x="-32.845" y="0">I&apos;m at work today</tspan><tspan x="-16.87" y="13">Love dad</tspan></text></g><g transform="translate(-612.076 -104.252)"><rect class="bc" width="114" height="32" transform="translate(685 329.717)"/><text class="by" transform="translate(742 342.717)"><tspan x="-41.121" y="0">Remember to buy the</tspan><tspan x="-17.285" y="13">groceries</tspan></text></g><path class="bw" d="M-15538.395,10044l17.324-17.324" transform="translate(15944.995 -9939.535)"/><path class="bw" d="M-15538.395,10044l17.324-17.324" transform="translate(16126.995 -9882.535)"/><path class="bx" d="M-15538.395,10044l17.324-17.324" transform="translate(15875.995 -9669.535)"/><path class="bw" d="M-15538.395,10044l17.324-17.324" transform="translate(15870.995 -9973.535)"/><path class="bw" d="M-15521.07,10044l-17.324-17.324" transform="translate(15707.995 -9928.535)"/><path class="bw" d="M-15521.07,10026.676l-17.324,17.324" transform="translate(15685.995 -9818.535)"/></g></svg>