<svg xmlns="http://www.w3.org/2000/svg" width="507" height="439.27" viewBox="0 0 507 439.27"><defs><style>.a{fill:#c6e3f1;}.a,.ab,.ac,.ad,.b,.c,.d,.e,.f,.g,.h,.i,.j,.k,.o,.p,.q,.r,.t,.v,.w,.x,.y,.z{fill-rule:evenodd;}.b,.s{fill:#fff;}.c{fill:#000618;}.d{fill:#01020e;}.e{fill:#ef8871;}.f{fill:#f4ad85;}.g{fill:#d84f50;}.h{fill:#c23e3e;}.i{fill:#b23539;}.j{fill:#ea745d;}.k{fill:#0f1630;}.l{fill:#be865e;}.m{fill:#915e40;}.n{fill:#d49d80;}.o{fill:#d5eaf5;}.p{fill:#ecf6fc;}.q,.u{fill:#a6cae4;}.r{fill:#dc5645;}.t{fill:#29abe2;}.v{fill:#63a9ba;}.w{fill:#80b9c9;}.x{fill:#b8b8c1;}.y{fill:#3a7f80;}.z{fill:#51a5a5;}.aa,.ab{fill:#2f365c;}.ac{fill:#121c39;}.ad{fill:#a62a34;}.ae{fill:#de7272;}</style></defs><g transform="translate(-37.452 -62.877)"><path class="a" d="M501.095,368.71a38.32,38.32,0,0,0-38.208,38.208h0a69.918,69.918,0,0,1-69.713,69.713H129.019c-49.81,0-90.562-40.752-90.562-90.562h0c0-49.808,40.752-90.562,90.562-90.562h0a18.228,18.228,0,0,0,18.175-18.174h0a18.229,18.229,0,0,0-18.175-18.175H81.632a44.31,44.31,0,0,1-44.18-44.18h0a44.311,44.311,0,0,1,44.1-44.18h43.109a38.32,38.32,0,0,0,38.207-38.208h0a69.919,69.919,0,0,1,69.714-69.713H453.707c49.81,0,90.562,40.754,90.562,90.562h0c0,49.808-40.752,90.562-90.562,90.562h0a18.228,18.228,0,0,0-18.174,18.175h0a18.228,18.228,0,0,0,18.174,18.174h47.387C558.9,280.35,558.9,368.71,501.095,368.71Z"/><path class="b" d="M199.989,124.265a1.271,1.271,0,0,0-1.016-2.205,1.254,1.254,0,0,0-.674.309q-.961.859-1.9,1.742a1.269,1.269,0,1,0,1.742,1.846q.909-.859,1.844-1.692ZM314.891,414.9a1.27,1.27,0,0,0-.729,2.289,1.256,1.256,0,0,0,.782.249l1.054-.017,1.325-.035.187-.007a1.27,1.27,0,1,0-.11-2.537l-1.456.039-1.054.018Zm10.028-.55a1.27,1.27,0,0,0,.275,2.525l1.156-.119,1.4-.162a1.27,1.27,0,0,0-.334-2.519l-1.339.156-1.156.119Zm9.931-1.45a1.27,1.27,0,0,0,.506,2.489l.753-.148,1.177-.247.586-.13a1.27,1.27,0,1,0-.563-2.476l-.557.123-1.149.241-.753.148Zm9.721-2.418a1.269,1.269,0,1,0,.768,2.42l1.028-.318,1.094-.355.327-.111a1.27,1.27,0,0,0-.828-2.4l-.3.1-1.064.345-1.027.32Zm9.4-3.446a1.269,1.269,0,1,0,1.03,2.32l.858-.373,1.007-.456.482-.224a1.27,1.27,0,1,0-1.089-2.295l-.453.211-.978.442-.856.375Zm8.941-4.5a1.271,1.271,0,0,0,.747,2.36,1.251,1.251,0,0,0,.538-.172l.378-.217.921-.547.906-.556a1.271,1.271,0,0,0-.766-2.345,1.258,1.258,0,0,0-.574.188l-.88.538-.892.531-.378.219Zm8.327-5.524a1.269,1.269,0,0,0,1.547,2.013l.553-.419.823-.64.651-.521a1.27,1.27,0,1,0-1.6-1.974l-.626.5-.8.62-.553.42Zm7.59-6.5a1.269,1.269,0,1,0,1.783,1.807l.513-.5.725-.723.58-.594a1.269,1.269,0,1,0-1.826-1.764l-.559.573-.7.7-.513.5Zm6.739-7.387a1.269,1.269,0,1,0,1.988,1.579l.369-.459.626-.8.588-.768a1.27,1.27,0,1,0-2.025-1.531l-.57.743-.607.774-.369.459Zm5.8-8.151a1.27,1.27,0,1,0,2.16,1.337l.205-.326.525-.86.608-1.023a1.27,1.27,0,0,0-2.205-1.262l-.577.973-.51.835-.205.326Zm4.805-8.779a1.27,1.27,0,1,0,2.3,1.085l.491-1.053.416-.917.166-.378a1.27,1.27,0,1,0-2.33-1.008l-.155.353-.4.892-.481,1.026Zm3.775-9.26a1.27,1.27,0,1,0,2.409.8l.3-.884.314-.96.188-.6a1.27,1.27,0,0,0-2.427-.75l-.18.569-.305.934-.3.884Zm2.744-9.636a1.27,1.27,0,1,0,2.481.544l.167-.739.214-.992.156-.775a1.269,1.269,0,1,0-2.49-.494l-.153.75-.208.966-.167.741Zm1.714-9.875a1.269,1.269,0,1,0,2.522.287l.075-.638.111-1.015.088-.9a1.27,1.27,0,1,0-2.528-.235l-.086.873-.107.989-.075.637Zm.689-10a1.271,1.271,0,0,0,2.446.5,1.3,1.3,0,0,0,.093-.465l.011-.593.007-1.027,0-.945a1.269,1.269,0,1,0-2.538.02l0,.918-.007,1-.011.593Zm-.318-10.021a1.27,1.27,0,0,0,2.53-.223l-.051-.613-.1-1.03-.094-.909a1.27,1.27,0,1,0-2.525.272l.092.884.093,1.005.051.614Zm-1.311-9.94a1.269,1.269,0,1,0,2.494-.475l-.13-.7-.2-1.025-.163-.788a1.269,1.269,0,1,0-2.484.522l.156.764.2,1,.131.7Zm-2.286-9.762a1.269,1.269,0,1,0,2.434-.722l-.252-.867-.305-1.008-.181-.582a1.27,1.27,0,1,0-2.42.772l.175.557.3.984.252.866Zm-3.244-9.5a1.269,1.269,0,1,0,2.357-.942l-.448-1.112-.409-.982-.125-.29a1.27,1.27,0,0,0-2.328,1.015l.115.266.4.957.44,1.088Zm-4.166-9.114a1.27,1.27,0,0,0,2.248-1.182l-.243-.465-.5-.949-.463-.848a1.269,1.269,0,1,0-2.222,1.228l.451.825.491.924.242.466Zm-5.053-8.652a1.27,1.27,0,0,0,2.111-1.412l-.582-.88-.612-.905-.238-.343a1.27,1.27,0,1,0-2.08,1.456l.223.322.6.883.582.88Zm-5.9-8.109a1.27,1.27,0,0,0,1.966-1.61l-.423-.521-.708-.855-.506-.6a1.271,1.271,0,0,0-2.23.719,1.257,1.257,0,0,0,.3.931l.489.577.691.834.422.524Zm-6.684-7.478a1.27,1.27,0,0,0,2.133-1.2,1.256,1.256,0,0,0-.335-.6l-.333-.338-.805-.8-.688-.668a1.271,1.271,0,0,0-2.116,1.207,1.257,1.257,0,0,0,.358.625l.669.65.785.778.333.336Zm-7.392-6.774a1.27,1.27,0,0,0,1.613-1.962l-.389-.323-.9-.733-.7-.559a1.27,1.27,0,1,0-1.568,2l.682.541.88.716.389.323Zm-8.015-6.027a1.268,1.268,0,1,0,1.409-2.11l-.681-.462-1-.661-.459-.3a1.27,1.27,0,1,0-1.363,2.142l.434.28.978.645.682.46Zm-8.562-5.25a1.269,1.269,0,1,0,1.221-2.226l-.235-.131-1.087-.589-.94-.495a1.269,1.269,0,0,0-1.172,2.252l.915.483,1.063.575.235.131Zm-9-4.458a1.269,1.269,0,1,0,1.026-2.322l-1.211-.527-1.147-.485a1.27,1.27,0,0,0-1.584,1.813,1.256,1.256,0,0,0,.608.531l1.122.476,1.185.515Zm-9.353-3.67a1.269,1.269,0,1,0,.827-2.4l-.184-.064q-1.12-.381-2.243-.751a1.271,1.271,0,0,0-1.529,1.776,1.255,1.255,0,0,0,.742.638c.738.242,1.471.49,2.205.738l.182.063Zm-9.627-3.013a1.27,1.27,0,0,0,.7-2.443q-1.229-.349-2.461-.687a1.27,1.27,0,0,0-.668,2.451c.812.222,1.621.448,2.432.679ZM314.4,223.1a1.271,1.271,0,0,0,1.143-2.18,1.251,1.251,0,0,0-.553-.29c-.793-.144-1.684-.4-2.486-.58a1.269,1.269,0,1,0-.564,2.475c.791.181,1.676.432,2.46.575Zm-9.874-2.156a1.27,1.27,0,0,0,.494-2.491q-1.252-.249-2.5-.485a1.269,1.269,0,0,0-.475,2.494q1.243.236,2.484.483Zm-9.954-1.807a1.271,1.271,0,0,0,1.077-2.177,1.257,1.257,0,0,0-.664-.328q-1.259-.209-2.517-.406a1.269,1.269,0,1,0-.394,2.508q1.249.2,2.5.4Zm-10.008-1.5a1.27,1.27,0,0,0,.338-2.517q-1.261-.17-2.525-.333a1.27,1.27,0,0,0-.323,2.519c.837.109,1.673.217,2.511.33Zm-10.052-1.228a1.269,1.269,0,1,0,.277-2.524c-.844-.092-1.688-.185-2.532-.271a1.271,1.271,0,0,0-.951,2.231,1.24,1.24,0,0,0,.689.293l2.517.27Zm-10.08-.991a1.272,1.272,0,0,0,.916-2.248,1.251,1.251,0,0,0-.694-.281c-.846-.075-1.691-.146-2.537-.216a1.27,1.27,0,0,0-.209,2.531q1.263.1,2.524.215Zm-10.145-.905a1.269,1.269,0,1,0,.277-2.524q-1.256-.134-2.511-.281a1.27,1.27,0,1,0-.3,2.521c.844.1,1.69.193,2.536.284Zm-10.132-1.324a1.27,1.27,0,0,0,.4-2.508c-.828-.13-1.666-.256-2.488-.407a1.27,1.27,0,1,0-.438,2.5c.836.15,1.684.28,2.525.414ZM234.1,211.314a1.271,1.271,0,0,0,1.249-2.054,1.254,1.254,0,0,0-.7-.426q-1.231-.27-2.456-.559a1.27,1.27,0,1,0-.587,2.471q1.247.292,2.5.568Zm-9.928-2.542a1.269,1.269,0,1,0,.725-2.433c-.8-.237-1.6-.484-2.4-.739a1.27,1.27,0,1,0-.782,2.416q1.224.394,2.456.756Zm-9.71-3.349a1.269,1.269,0,1,0,.946-2.356q-1.165-.465-2.315-.959a1.271,1.271,0,0,0-1.443,2.02,1.31,1.31,0,0,0,.435.31q1.181.508,2.377.984Zm-9.34-4.338a1.27,1.27,0,1,0,1.211-2.233q-1.1-.59-2.174-1.219a1.27,1.27,0,1,0-1.29,2.187c.742.434,1.5.856,2.254,1.264Zm-8.727-5.542a1.272,1.272,0,0,0,1.969-1.419,1.252,1.252,0,0,0-.439-.607c-.664-.5-1.314-1.01-1.958-1.534a1.269,1.269,0,0,0-1.611,1.962c.671.546,1.348,1.078,2.039,1.6Zm-7.706-6.956a1.27,1.27,0,1,0,1.883-1.7c-.557-.612-1.092-1.234-1.616-1.872a1.27,1.27,0,1,0-1.969,1.6c.552.671,1.115,1.329,1.7,1.973Zm-6.109-8.456a1.27,1.27,0,0,0,2.227-1.22c-.4-.72-.772-1.446-1.126-2.189a1.27,1.27,0,1,0-2.3,1.082c.374.788.773,1.561,1.2,2.327Zm-3.855-9.721a1.27,1.27,0,1,0,2.466-.607q-.3-1.191-.518-2.4a1.27,1.27,0,0,0-2.472-.123,1.248,1.248,0,0,0-.029.563c.155.861.341,1.716.552,2.565Zm-1.171-10.4a1.269,1.269,0,1,0,2.538.064c.019-.819.06-1.636.13-2.453a1.269,1.269,0,1,0-2.528-.229c-.079.867-.12,1.747-.14,2.618Zm1.675-10.339a1.27,1.27,0,1,0,2.425.756c.227-.741.5-1.617.8-2.325a1.27,1.27,0,1,0-2.372-.909c-.312.809-.6,1.651-.852,2.477Zm4.217-9.526a1.27,1.27,0,1,0,2.2,1.271q.619-1.077,1.287-2.122a1.27,1.27,0,0,0-2.138-1.37q-.7,1.1-1.346,2.221Zm5.912-8.5a1.271,1.271,0,0,0,1.071,2.07,1.253,1.253,0,0,0,.895-.463c.527-.645,1.066-1.274,1.613-1.9a1.27,1.27,0,1,0-1.908-1.677C190.463,130.322,189.907,130.984,189.362,131.649Z" transform="translate(26.994 11.4)"/><g transform="translate(187.491 151.155)"><path class="c" d="M209.065,212.232a.805.805,0,0,1,1.36.862c-.091.144-31.985,49.7-6.793,78.591a.8.8,0,0,1-1.209,1.058C176.429,262.936,208.972,212.379,209.065,212.232Z" transform="translate(-157.645 -122.45)"/><path class="c" d="M284.508,206.583a.8.8,0,1,1,1.358-.856c.052.081,18.271,28.359-.945,50.084a.8.8,0,1,1-1.2-1.064C302.126,233.936,284.557,206.662,284.508,206.583Z" transform="translate(-140.081 -123.704)"/><path class="c" d="M214.211,184.228,200.776,199a53.91,53.91,0,0,1,5.793,26.314c-.639,14.929-50.972,97.679,42.014,97.253s41.252-48.4,41.252-48.4,30.673-9.933,15.184-54.345S214.211,184.228,214.211,184.228Z" transform="translate(-157.637 -127.911)"/><path class="d" d="M288.1,271.235c-.54-.541-.856-.835-.856-.835a20,20,0,0,0,2.784-1.239,83.782,83.782,0,0,0,7.944-10.492c12.682-19.714-.815-46.817-.815-46.817l-7.176-2.143s-14.291-5.118-18.129-6.4-48.2,1.492-60.782,25.165,1.434,57.992,1.434,57.992,52.311-1.689,55.3-1.9C270.025,284.408,278.625,281.059,288.1,271.235Z" transform="translate(-155.049 -124.147)"/><path class="e" d="M302.643,271.046c14.939,6.523,16.878,20.181,18.819,35.381,1.721,13.48,2.26,33.819-1.289,64.718s-60.021-40.761-60.021-40.761Z" transform="translate(-144.583 -111.046)"/><path class="f" d="M233.463,271.905l-14.5-7.418s-15.321,3.813-23.16,13.666-31.577,94.064-32.473,104.365,6.083,49.548,18.849,49.548,19.116-85.8,19.116-85.8l10.426-32.16Z" transform="translate(-163.253 -112.31)"/><path class="e" d="M232.948,271.905l-14.5-7.418a57.39,57.39,0,0,0-10.587,4.067c1.878.908,3.347,3.227,3.175,8.369-.447,13.439-20.941,64.724-25.419,79.057s-8.062,22.843-8.062,22.843l-9.334-19.575c-.843,3.163-1.611,6.127-2.291,8.827,3.492,18.816,7.835,44.609,8.425,59.354,2.165,2.872,4.606,4.636,7.31,4.636,12.765,0,19.116-85.8,19.116-85.8l10.426-32.16Z" transform="translate(-162.737 -112.31)"/><path class="g" d="M265.207,255.194s38.533,13.734,49.415,18.906c-.019.02-2.08,2.173-4.42,13.985-2.351,11.871,0,29.115-2.462,46.136-1.781,12.3-10.108,74.518-14.592,108.1l-94.987-7.663c-.029-1.5-.089-3.3-.177-5.335,7.8,6.074,15.278,6.345,10.651-11.4-8.064-30.907-6.5-84.657-3.808-100.782s6.691-33.1,2.884-49.445C210.266,265.4,265.207,255.194,265.207,255.194Z" transform="translate(-156.561 -114.101)"/><path class="h" d="M289.759,262.958c9.64,3.616,19.43,7.422,24.107,9.646-.019.02-2.08,2.173-4.42,13.985-2.351,11.871,0,29.115-2.462,46.136-.357,2.463-.977,6.929-1.775,12.762-21.461,3.344-84.851,10.605-100.063,9.258a27.083,27.083,0,0,1-3.248-.49c0-16.771.974-31.423,2.172-38.607.068-.413.138-.827.209-1.239,5.369,15.847,72.969,24.705,72.969,24.705s11.21-24.793,8.3-33.976-16.354-8.926-16.354-8.926l.341-8.207s13.44-18.2,16.669-23.735C286.608,263.573,287.864,263.155,289.759,262.958Z" transform="translate(-155.806 -112.605)"/><path class="i" d="M294.975,265.151l.794.3c-1.711,6.906-4.005,15.006-7.207,19.779-2.887,4.3-6.259,8.266-11.156,11.1s-11.29,4.538-20.223,4.311a29.911,29.911,0,0,1-18.885-7.142,39.3,39.3,0,0,1-11.966-18.783c-2.46-8.585-4.778-11.446-5.567-12.221l.94-.208c1.1,1.29,3.258,4.582,5.441,12.2a38.439,38.439,0,0,0,11.7,18.371,29.086,29.086,0,0,0,18.362,6.943c8.759.222,15.013-1.436,19.779-4.2s8.053-6.636,10.878-10.844c3.145-4.688,5.418-12.752,7.114-19.612Zm15.828,6.312c.241.1.475.206.7.307-1.853,3.283-4.464,10.179-6.866,24.608-2.877,17.294.42,25.093,2.943,28.375-.027.395-.056.79-.088,1.184-2.706-3.071-6.8-11.012-3.688-29.7,2.358-14.175,5.025-21.253,7-24.775Zm-107.622,49.1q.089-.814.182-1.566c2.166-4.261,10.407-23.01,5.709-53.619.256-.08.525-.159.818-.242,5.4,35.006-6.025,54.751-6.293,55.206a.429.429,0,0,1-.092.117A.424.424,0,0,1,203.181,320.567Z" transform="translate(-155.56 -112.733)"/><path class="e" d="M257.976,220.633l.29,0a15.231,15.231,0,0,1,15.387,15.035l.193,30.851c5.594,2.044,12.286,4.523,18.553,6.916-9.862,21.3-21.492,35.367-40.08,31.336-25.461-5.522-24.555-26.9-32.309-34.783,7.243-1.57,15.741-3.276,23.115-4.718l-.184-29.248A15.284,15.284,0,0,1,257.976,220.633Z" transform="translate(-152.317 -120.76)"/><path class="j" d="M269.441,229.952a14.905,14.905,0,0,1,.945,5.137l.193,30.851c5.594,2.044,12.286,4.523,18.553,6.916-7.253,15.662-15.464,27.417-26.7,30.936,17.86-12.045,12.37-26.922,8.563-28.491s-34.033-10.043-34.033-10.043l2.891-.567-.184-29.248a15.318,15.318,0,0,1,5.464-11.821C253.192,223.547,261.214,226.045,269.441,229.952Z" transform="translate(-149.05 -120.184)"/><path class="j" d="M282.609,196.13c.3,0,.592.011.884.031l.008,0h0a11.893,11.893,0,1,1-9.52,3.679c.163,3.518,1.289,7.751,5.787,7.591l-1.033-6.777C278.317,197.912,280.714,196.305,282.609,196.13Z" transform="translate(-142.547 -125.481)"/><path class="j" d="M210.879,207.376c-.286.079-.568.165-.844.262l-.008,0h0a11.892,11.892,0,1,0,10.152,1.06c.762,3.44.782,7.819-3.6,8.842l-.776-6.813C215.49,207.972,212.757,207.049,210.879,207.376Z" transform="translate(-155.768 -123.326)"/><path class="f" d="M245.955,152.425h0A40.827,40.827,0,0,1,291.676,187.4l4.884,36.7a40.826,40.826,0,0,1-34.98,45.72h0a40.824,40.824,0,0,1-45.716-34.979l-4.885-36.7A40.824,40.824,0,0,1,245.955,152.425Z" transform="translate(-154.126 -133.97)"/><path class="e" d="M245.955,152.425h0a40.842,40.842,0,0,1,45.122,31.6A16.956,16.956,0,0,1,289.219,190l-18.807-1.1s-12.379,23.665-37.8,29.415c-6.835,1.546-8.98,8.435-7.583,14.979,3.4,15.939,17.083,38.78,50.779,31.842a40.353,40.353,0,0,1-14.224,4.688h0a40.825,40.825,0,0,1-45.716-34.979l-4.885-36.7A40.824,40.824,0,0,1,245.955,152.425Z" transform="translate(-154.126 -133.97)"/><path class="j" d="M234.795,220.192a5.354,5.354,0,1,1-4.486,6.1A5.354,5.354,0,0,1,234.795,220.192Z" transform="translate(-150.345 -120.856)"/><path class="j" d="M271.584,214.371a5.354,5.354,0,1,1-4.486,6.1A5.356,5.356,0,0,1,271.584,214.371Z" transform="translate(-143.256 -121.978)"/><path class="d" d="M229.085,202.948a1.529,1.529,0,0,0-.379,3.034,15.506,15.506,0,0,0,4.383-.124,12.278,12.278,0,0,0,7.655-4.205,1.53,1.53,0,0,0-2.359-1.948C236.153,202.414,232.444,203.3,229.085,202.948Z" transform="translate(-150.899 -124.898)"/><path class="c" d="M287.694,278.027s1.554-.224,1.9.994-4.8,7.769-5.138,7.993-10.553-1.064-10.553-1.064-.539-.5-.425-.892a1.9,1.9,0,0,1,.494-.728Z" transform="translate(-142.017 -109.705)"/><path class="d" d="M273.514,192.923c-3.341-.6-7.083-.06-9.544,2.475a1.53,1.53,0,1,1-2.193-2.132,12.273,12.273,0,0,1,7.972-3.571,15.519,15.519,0,0,1,4.375.233,1.529,1.529,0,0,1-.609,3Z" transform="translate(-144.353 -126.732)"/><path class="c" d="M224.014,219.445s.359,2.7.692,5.2-4.473,9.206-6.393,9.46l-1.217-9.141s-1.373-4.084-6.548-3.393c-18.312-16.146-20.075-45.407-5.123-62.692s51.237-23.093,57.876-21.82,14.625,11.187,14.625,11.187,4.754-5.534,10.1-3.7,26.308,31.2,27.36,39.1-12.156,25.586-12.156,25.586c-5.176.688-5.433,4.988-5.433,4.988l.756,5.683c-1.92.256-3.337-2.174-3.67-4.679s-.693-5.2-.693-5.2c-16.889-4.959-26.049-25.578-26.049-25.578S250.539,219.794,224.014,219.445Z" transform="translate(-157.063 -136.894)"/><path class="k" d="M195.381,187.061A44.614,44.614,0,0,1,200.6,165.68c16.559,12.828,43.307,21.418,65.586-27.793a24.249,24.249,0,0,1,4.222,2.738C261.783,165.651,239.739,209.354,195.381,187.061Z" transform="translate(-157.062 -136.702)"/><path class="d" d="M223.807,212.582s.359,2.7.692,5.2-4.473,9.206-6.393,9.46l-1.217-9.141s-1.373-4.084-6.548-3.393a44.942,44.942,0,0,1-13.886-23.479c.024.017,31.368,21.788,69.956-18.719,0,0,17.655,27.534,43.485,19.332a118.7,118.7,0,0,1-6.877,10.53c-5.176.688-5.433,4.988-5.433,4.988l.757,5.683c-1.921.256-3.338-2.174-3.671-4.679s-.693-5.2-.693-5.2c-16.889-4.959-26.049-25.578-26.049-25.578S250.332,212.931,223.807,212.582Z" transform="translate(-156.855 -130.031)"/><path class="e" d="M285.29,256.745l2.642.72s1.547-13.786,1.534-15.122a15.978,15.978,0,0,0-1.716-5.508c-1.019-2.252-4.755-10.763-4.956-11.035s-2.617,1.825-1.528,5.553,2.934,8.776,2.917,9.855-2.484,10.629-2.484,10.629Z" transform="translate(-140.569 -119.768)"/><path class="f" d="M291.57,253.872a5.873,5.873,0,0,0-3.078-5.118c-2.648-1.607-8.9-6.559-10.234-7.138a4.662,4.662,0,0,0-4.444.693,78.463,78.463,0,0,0-7.64,5.544c-1.053,1.095-3.679,7.841-4,8.549s2.32,1.35,4.427-.246c0,0-1.1,2.214-1.457,2.964s-.842,6.454-.885,7.61,3.153.578,4.238-2.08c0,0-.174,1.914-.175,2.509s1.828.371,1.828.371,2.109,11.439,2.582,12.867,18.633,66.729,18.633,66.729l26.27-1.586s-28.657-64.091-28.847-65.033C287.16,272.442,291.6,260.65,291.57,253.872Z" transform="translate(-144.199 -116.775)"/><path class="e" d="M268.854,264.952l.112.6h0l.041.219,0,.021,0,.01.006.031.006.032.006.032.006.027v0l.007.033.011.067.007.035v0l.02.1.007.037c.562,3.013,1.971,10.472,2.347,11.607.349,1.059,10.426,37.24,15.611,55.871a75.331,75.331,0,0,0,10.032-4.938s-20.324-47.31-20.8-49.174.643-3.343.25-3.846-1.961-1.232-2.352-2.576-1.344-6.1-.728-8.006c.475-1.469,2.018-1.289,2.7-1.131a17.871,17.871,0,0,0,1.993.5c1.019.135.942-.488.942-.488.224-2.106,2.27-5.106,2.27-5.106-1.114-.606-2.84-3.477-2.84-3.477-1.138-.491-2.031-1.124-2.92-.5a22,22,0,0,0-3.369,3.422,33.3,33.3,0,0,1-.683,4.428C271.119,264.489,268.854,264.952,268.854,264.952Z" transform="translate(-142.906 -114.198)"/><g transform="translate(0.39 209.821)"><path class="c" d="M171.187,416.439H361.634a5.547,5.547,0,0,0,5.319-5.722h0a5.547,5.547,0,0,0-5.319-5.721H171.187a5.548,5.548,0,0,0-5.319,5.721h0A5.548,5.548,0,0,0,171.187,416.439Z" transform="translate(-163.139 -295.06)"/><path class="c" d="M365.529,312.819H168.173a4.491,4.491,0,0,0-4.533,5.336l15.084,100.182a6.451,6.451,0,0,0,6.14,5.337H348.838a6.453,6.453,0,0,0,6.141-5.337l15.084-100.182A4.491,4.491,0,0,0,365.529,312.819Z" transform="translate(-163.58 -312.819)"/><path class="k" d="M360.4,316.789H171.82a4.292,4.292,0,0,0-4.332,5.1L181.9,417.613a6.164,6.164,0,0,0,5.867,5.1h156.68a6.164,6.164,0,0,0,5.868-5.1l14.413-95.725A4.291,4.291,0,0,0,360.4,316.789Z" transform="translate(-162.838 -312.054)"/><path class="c" d="M176.465,393.021l3.7,24.551a6.164,6.164,0,0,0,5.867,5.1h156.68a6.164,6.164,0,0,0,5.868-5.1l14.413-95.725A4.285,4.285,0,0,0,360.2,317C338.616,354.237,285.572,415.228,176.465,393.021Z" transform="translate(-161.097 -312.013)"/><path class="c" d="M253.556,389.922c11.553,0,20.976-7.866,20.976-17.51S265.11,354.9,253.556,354.9s-20.974,7.866-20.974,17.508S242,389.922,253.556,389.922Z" transform="translate(-150.285 -304.71)"/><path class="b" d="M252.743,358.429c5.868,0,10.994,2.647,13.76,6.588l-24.385,16.631a12.437,12.437,0,0,1-5.312-9.915c0-7.347,7.136-13.3,15.938-13.3Zm12.948,21.063-7.323-4.031-12.213,8.39a18.546,18.546,0,0,0,6.588,1.187A17.054,17.054,0,0,0,265.69,379.492Z" transform="translate(-149.471 -304.031)"/></g><path class="d" d="M268.424,201.641h0a3.41,3.41,0,0,0-2.825,3.893l.7,4.383a3.411,3.411,0,0,0,3.894,2.825h0a3.411,3.411,0,0,0,2.825-3.9l-.7-4.382A3.412,3.412,0,0,0,268.424,201.641Z" transform="translate(-143.542 -124.427)"/><path class="d" d="M234.241,206.82h0a3.41,3.41,0,0,0-2.825,3.894l.7,4.382a3.412,3.412,0,0,0,3.9,2.825h0a3.41,3.41,0,0,0,2.823-3.9l-.7-4.382A3.41,3.41,0,0,0,234.241,206.82Z" transform="translate(-150.128 -123.429)"/><path class="e" d="M267.358,227.188a1.238,1.238,0,0,1,.241,1.706,1.18,1.18,0,0,1-1.686.1c-.012-.011-4.078-3.558-11.324,3.115a1.26,1.26,0,0,1-1.711-1.839C261.625,222.217,267.341,227.175,267.358,227.188Z" transform="translate(-146.052 -119.79)"/><path class="k" d="M288.693,278.264a.767.767,0,0,1,.612.735c.083.671-3.978,5.949-15.342,6.349,0,0-.272-.085-.314-.259s.137-.37.137-.37l-.058-.212s-.409.293-.409.644,1.68,7.37,2.017,9.133,3.789,1.356,6.71.649,9.882-3.144,11.711-6.919a3.651,3.651,0,0,0-.056-1.765c-.28-.812-3.807-7.348-3.989-7.74a1.091,1.091,0,0,0-1.133-.509Z" transform="translate(-142.046 -109.71)"/><path class="c" d="M279.358,283.668a32.088,32.088,0,0,1-5.4.625s-.272-.085-.314-.259.137-.37.137-.37l-.058-.212s-.409.293-.409.644,1.68,7.37,2.017,9.133,3.789,1.356,6.71.649c.414-.1.912-.235,1.466-.405l-4.153-9.8Z" transform="translate(-142.046 -108.656)"/></g><g transform="translate(109.205 476.631)"><path class="c" d="M119.282,419.136h314.59a7.206,7.206,0,0,1,7.183,7.185h0a7.206,7.206,0,0,1-7.183,7.185H119.282a7.205,7.205,0,0,1-7.185-7.185h0A7.206,7.206,0,0,1,119.282,419.136Z" transform="translate(-94.823 -407.99)"/><path class="l" d="M7.684,0H355.822a7.684,7.684,0,0,1,7.684,7.684v2.963a7.684,7.684,0,0,1-7.684,7.684H7.685A7.685,7.685,0,0,1,0,10.646V7.684A7.684,7.684,0,0,1,7.684,0Z"/><rect class="m" width="19.069" height="18.33" transform="translate(218.383)"/><rect class="m" width="9.906" height="18.33" transform="translate(247.358)"/><rect class="m" width="4.954" height="18.33" transform="translate(267.666)"/><rect class="m" width="21.331" height="18.33" transform="translate(289.582)"/><rect class="m" width="10.665" height="18.33" transform="translate(326.994)"/><rect class="n" width="178.657" height="10.896" rx="4.567" transform="translate(4.457 2.976)"/></g><g transform="translate(216.334 86.896)"><path class="o" d="M199.184,101.375l3.922,22.573L254,83.016,200.857,96.083Z" transform="translate(-185.173 -83.016)"/><path class="p" d="M202.472,120.533,222.1,104.748a31.561,31.561,0,0,1,.917-4l-16.489,4.431Z" transform="translate(-184.539 -79.6)"/><path class="b" d="M256.259,83.016l-68.823,12.73,14.011,5.629Z" transform="translate(-187.436 -83.016)"/><path class="b" d="M252.707,83.016l-30.928,41.091-15.908-15.515Z" transform="translate(-183.884 -83.016)"/></g><g transform="translate(105.558 272.163)"><path class="q" d="M97.07,264.051a89.932,89.932,0,0,1,20.855-2.445h0A18.228,18.228,0,0,0,136.1,243.432h0a18,18,0,0,0-.182-2.564h28.741a7.908,7.908,0,0,1,7.885,7.885v55.618a.881.881,0,0,1-1.5.624L157.6,291.558H104.955a7.907,7.907,0,0,1-7.885-7.885Z" transform="translate(-94.072 -237.87)"/><path class="r" d="M102.441,238.354h59.7a7.907,7.907,0,0,1,7.885,7.884v55.619a.88.88,0,0,1-1.5.623L155.09,289.043H102.441a7.907,7.907,0,0,1-7.885-7.884V246.238A7.907,7.907,0,0,1,102.441,238.354Z" transform="translate(-94.556 -238.354)"/><g transform="translate(21.894 7.714)"><path class="s" d="M32.239,13.661s-2.559-4.3-4.107-6.88a6.266,6.266,0,0,0-3.39-2.465L20.221,3.025a.349.349,0,0,0-.088-.008A.548.548,0,0,0,20.044,3H12.285a.548.548,0,0,0-.088.018.349.349,0,0,0-.088.008L7.587,4.316A6.266,6.266,0,0,0,4.2,6.781C2.649,9.36.091,13.661.091,13.661a.646.646,0,0,0,.222.884L4.6,17.132a.645.645,0,0,0,.881-.21l1.634-2.614V30.8a.648.648,0,0,0,.647.647H24.571a.648.648,0,0,0,.647-.647v-16.5l1.634,2.614a.647.647,0,0,0,.548.3.641.641,0,0,0,.333-.093l4.284-2.586A.646.646,0,0,0,32.239,13.661ZM19.865,4.293a3.72,3.72,0,0,1-3.7,2.586,3.72,3.72,0,0,1-3.7-2.586Z" transform="translate(0)"/></g></g><g transform="translate(372.136 130.033)"><path class="q" d="M391.377,119.184H329.261a8.225,8.225,0,0,0-8.2,8.2v57.865a.915.915,0,0,0,1.562.648L336.6,171.92h54.776a8.226,8.226,0,0,0,8.2-8.2V127.386A8.226,8.226,0,0,0,391.377,119.184Z" transform="translate(-317.493 -119.184)"/><path class="t" d="M388.385,119.184H326.272a8.226,8.226,0,0,0-8.2,8.2v57.865a.916.916,0,0,0,1.564.648l13.978-13.978h54.775a8.226,8.226,0,0,0,8.2-8.2V127.386A8.225,8.225,0,0,0,388.385,119.184Z" transform="translate(-318.069 -119.184)"/><g transform="translate(25.326 8.863)"><path class="s" d="M17.684,2a6.527,6.527,0,0,0-6.518,6.518v1.3a.652.652,0,1,0,1.3,0v-1.3a5.214,5.214,0,1,1,10.428,0v1.3a.652.652,0,1,0,1.3,0v-1.3A6.527,6.527,0,0,0,17.684,2Zm-5.866,9.125a1.3,1.3,0,0,0-1.3,1.3H7.255a.648.648,0,0,0-.631.509L4.954,20.29a.743.743,0,0,0,.53.9,50.693,50.693,0,0,0,12.2,1.67,50.631,50.631,0,0,0,12.2-1.67.743.743,0,0,0,.53-.9l-1.67-7.353a.646.646,0,0,0-.631-.509H24.853a1.3,1.3,0,1,0-2.607,0H13.121A1.3,1.3,0,0,0,11.818,11.125ZM5.2,22.47,4,30.576a.677.677,0,0,0,.163.53.647.647,0,0,0,.489.224H6.6v.652H8.559V31.33h18.25v.652h1.955V31.33h1.955a.647.647,0,0,0,.489-.224.677.677,0,0,0,.163-.53l-1.2-8.106a52.726,52.726,0,0,1-10.632,1.65,1.95,1.95,0,0,1-3.707,0A52.725,52.725,0,0,1,5.2,22.47Z"/></g></g><path class="b" d="M426.834,264.583a21.105,21.105,0,1,1-14.923,6.182,21.042,21.042,0,0,1,14.923-6.182Zm18.818,22.23H437.04a41.8,41.8,0,0,1-.718,6.84,25.7,25.7,0,0,1,6.32,2.311,18.748,18.748,0,0,0,3.01-9.151Zm-10.864,0H427.96v5.8a42.114,42.114,0,0,1,6.158.593,39.51,39.51,0,0,0,.67-6.39Zm-9.08,0h-6.827a39.246,39.246,0,0,0,.669,6.39,42.13,42.13,0,0,1,6.158-.593v-5.8Zm-9.08,0h-8.613a18.761,18.761,0,0,0,3.012,9.151,25.662,25.662,0,0,1,6.32-2.311,41.792,41.792,0,0,1-.718-6.84Zm-8.613-2.253h8.613a42.5,42.5,0,0,1,.534-5.81,24.956,24.956,0,0,1-6.628-2.542,18.75,18.75,0,0,0-2.52,8.351Zm11.353-5.348a40.188,40.188,0,0,0-.487,5.348h6.827v-4.723a42.152,42.152,0,0,1-6.34-.625Zm14.932,0a42.152,42.152,0,0,1-6.34.625v4.723h6.828a39.982,39.982,0,0,0-.488-5.348Zm2.738,5.348h8.614a18.748,18.748,0,0,0-2.518-8.351,25,25,0,0,1-6.63,2.542,42.306,42.306,0,0,1,.534,5.81Zm-9.079-17.52v10.546a40.3,40.3,0,0,0,5.913-.582,25.861,25.861,0,0,0-1.632-4.977c-.8-1.758-2.278-4.26-4.282-4.987Zm0,27.824v9.47c2-.728,3.48-3.229,4.282-4.988a24.692,24.692,0,0,0,1.379-3.945,40.2,40.2,0,0,0-5.66-.537Zm-2.252,9.47v-9.47a40.232,40.232,0,0,0-5.662.537,24.466,24.466,0,0,0,1.381,3.945c.8,1.76,2.278,4.261,4.28,4.988Zm0-26.748V267.04c-2,.726-3.481,3.229-4.282,4.987A25.866,25.866,0,0,0,419.794,277a40.3,40.3,0,0,0,5.914.582Zm-13.923-3.254a22.939,22.939,0,0,0,5.808,2.208,28.161,28.161,0,0,1,1.789-5.446,16.634,16.634,0,0,1,2.084-3.484,18.922,18.922,0,0,0-9.681,6.722Zm24.29,2.208a22.939,22.939,0,0,0,5.808-2.208,19.054,19.054,0,0,0-1.719-1.975,18.854,18.854,0,0,0-7.961-4.747,16.741,16.741,0,0,1,2.085,3.484,28.4,28.4,0,0,1,1.787,5.446Zm5.211,21.253a23.7,23.7,0,0,0-5.458-1.945,27.313,27.313,0,0,1-1.54,4.431,16.641,16.641,0,0,1-2.086,3.485,18.855,18.855,0,0,0,7.962-4.746q.587-.589,1.121-1.225Zm-23.446-1.945a23.527,23.527,0,0,0-5.458,1.945q.533.635,1.122,1.225a18.83,18.83,0,0,0,7.961,4.746,16.691,16.691,0,0,1-2.085-3.484A27.26,27.26,0,0,1,417.84,295.848Z" transform="translate(70.957 38.863)"/><path class="b" d="M77.781,185.684a7.675,7.675,0,0,1,3.032-3.159,4.688,4.688,0,0,0,2.294-3.077,19.869,19.869,0,0,0,.468-5.156,1.182,1.182,0,0,1,1.182-1.182h2.023a2.1,2.1,0,0,1,.608.1,4.371,4.371,0,0,1,2.195,2.045A7.672,7.672,0,0,1,90.538,179a8.576,8.576,0,0,1-.4,2.558,6.8,6.8,0,0,0-.446,2.828.926.926,0,0,0,.345.048h5.075a6.656,6.656,0,0,1,1.722.213,4.061,4.061,0,0,1,2.039,1.213,3.925,3.925,0,0,1,.923,2.667,6.918,6.918,0,0,1-.184,1.524c.732,1.884.879,4.227-.607,5.77A4.69,4.69,0,0,1,97.4,200.03a4.977,4.977,0,0,1-4.878,3.622h-9.3a7.825,7.825,0,0,1-4.468-1.818,2.681,2.681,0,0,1-.7,1.183l-.042.038a2.617,2.617,0,0,1-1.8.719H71.981a2.635,2.635,0,0,1-2.632-2.632V187.791a2.633,2.633,0,0,1,.79-1.875l.038-.036a2.625,2.625,0,0,1,1.8-.719h4.228a2.624,2.624,0,0,1,1.572.524ZM78.84,198.8c1.066,1.076,2.854,2.486,4.376,2.486h9.3a2.726,2.726,0,0,0,2.711-2.257,1.181,1.181,0,0,1,.629-.817c.858-.429.884-1.841.761-2.63a1.171,1.171,0,0,1,.456-1.194c1.122-.825.742-2.62.262-3.687a1.16,1.16,0,0,1-.1-.862,5.165,5.165,0,0,0,.2-1.313,1.678,1.678,0,0,0-.333-1.112,1.786,1.786,0,0,0-.878-.487,4.3,4.3,0,0,0-1.11-.13H90.041a2.429,2.429,0,0,1-2.511-1.485c-.53-1.28-.035-3.2.357-4.458a6.238,6.238,0,0,0,.29-1.856,5.27,5.27,0,0,0-.648-2.585,2.678,2.678,0,0,0-.812-.942h-.788a18.487,18.487,0,0,1-.549,4.611,6.959,6.959,0,0,1-3.447,4.519c-1.75.942-2.793,3.231-3.093,5.133V198.8Zm-2.631-11.278H71.981a.247.247,0,0,0-.162.051l-.026.03a.261.261,0,0,0-.08.186v13.352a.269.269,0,0,0,.08.19.265.265,0,0,0,.188.079h4.228a.24.24,0,0,0,.159-.049l.029-.03a.271.271,0,0,0,.08-.19V187.791a.268.268,0,0,0-.081-.188A.265.265,0,0,0,76.209,187.523Z" transform="translate(6.146 21.239)"/><g transform="translate(418.944 95.699)"><rect class="s" width="6.719" height="6.719" rx="1.314" transform="translate(0 13.549)"/><rect class="u" width="6.719" height="6.719" rx="1.314" transform="translate(12.429 13.549)"/><path class="s" d="M1.314,0H5.4A1.314,1.314,0,0,1,6.718,1.314V5.4A1.314,1.314,0,0,1,5.4,6.719H1.313A1.313,1.313,0,0,1,0,5.406V1.314A1.314,1.314,0,0,1,1.314,0Z" transform="translate(24.859 13.549)"/><rect class="u" width="6.719" height="6.719" rx="1.314" transform="translate(37.287 13.549)"/><rect class="s" width="6.718" height="6.719" rx="1.314" transform="translate(49.717 13.549)"/><rect class="s" width="6.719" height="6.719" rx="1.314" transform="translate(62.146 13.549)"/><rect class="s" width="6.719" height="6.719" rx="1.314" transform="translate(74.575 13.549)"/><rect class="s" width="6.719" height="6.718" rx="1.314" transform="translate(37.737)"/><rect class="u" width="6.719" height="6.718" rx="1.314" transform="translate(50.167)"/><rect class="s" width="6.719" height="6.718" rx="1.314" transform="translate(62.595)"/><path class="s" d="M1.314,0H5.4A1.314,1.314,0,0,1,6.718,1.314V5.4A1.314,1.314,0,0,1,5.4,6.718H1.313A1.313,1.313,0,0,1,0,5.4V1.314A1.314,1.314,0,0,1,1.314,0Z" transform="translate(49.717 28.107)"/><path class="u" d="M1.313,0H5.4A1.314,1.314,0,0,1,6.718,1.314V5.4A1.313,1.313,0,0,1,5.4,6.718H1.314A1.314,1.314,0,0,1,0,5.4V1.313A1.313,1.313,0,0,1,1.313,0Z" transform="translate(62.146 28.107)"/></g><path class="b" d="M147.866,193.768h0a9.234,9.234,0,0,1,13.024,0l.885.884.884-.884a9.236,9.236,0,0,1,13.025,0h0a9.236,9.236,0,0,1,0,13.025l-.884.884L161.775,220.7,148.75,207.677l-.884-.884A9.236,9.236,0,0,1,147.866,193.768Z" transform="translate(20.756 24.701)"/><g transform="translate(117.032 367.968)"><g transform="translate(0)"><g transform="translate(18.248)"><path class="v" d="M135.236,322.18c-9.553-9.726-16.659,2.629-15.667,15.032.94,11.759,11.076,52.105,9.2,69.081h3.88C142.141,384.527,147.466,334.633,135.236,322.18Z" transform="translate(-119.476 -318.681)"/><path class="w" d="M129.9,405.437c9.241-34.307-2.458-81.73-2.5-81.891a.549.549,0,0,0-1.066.259c.039.161,11.753,47.638,2.441,81.632Z" transform="translate(-118.157 -317.825)"/></g><g transform="translate(0 23.593)"><path class="b" d="M114.615,339.806c-10.066-5.334-12.605,6.3-8.68,15.932,3.252,7.979,17.622,31.581,23.054,46.744h5.117C134.541,381.526,126.5,346.1,114.615,339.806Z" transform="translate(-104.176 -338.463)"/><path class="x" d="M131.435,401.749c-3.33-28.343-22.179-59.149-22.247-59.261a.458.458,0,1,0-.784.476c.067.111,18.8,30.718,22.12,58.786Z" transform="translate(-103.375 -337.73)"/></g><g transform="translate(31.213 37.441)"><path class="y" d="M152.122,351.02c9.757-4.261,11.3,6.761,6.969,15.458-2.933,5.885-13.5,20.951-20.62,33.767h-8.123C133.125,380.856,142.036,355.426,152.122,351.02Z" transform="translate(-130.347 -350.074)"/><path class="z" d="M132.779,399.554c6.927-23.491,22.88-45.627,22.945-45.716a.429.429,0,0,1,.7.5c-.064.088-15.849,21.994-22.76,45.218Z" transform="translate(-129.878 -349.383)"/></g></g><g transform="translate(12.376 78.46)"><path class="aa" d="M1.538,0H35.864A1.538,1.538,0,0,1,37.4,1.538v8.921A1.539,1.539,0,0,1,35.863,12H1.538A1.538,1.538,0,0,1,0,10.46V1.538A1.538,1.538,0,0,1,1.538,0Z"/><path class="ab" d="M121.877,390.147h22.161l5.786,5.223L145.1,413.576h-24.28l-4.726-18.207Z" transform="translate(-114.257 -383.372)"/><path class="ac" d="M149.824,394.525l-.972,3.742H117.063l-.972-3.742Z" transform="translate(-114.257 -382.529)"/></g></g><circle class="u" cx="3.135" cy="3.135" r="3.135" transform="translate(322.308 106.224)"/><circle class="u" cx="3.135" cy="3.135" r="3.135" transform="translate(373.371 285.838)"/><circle class="u" cx="3.135" cy="3.135" r="3.135" transform="translate(436.975 416.63)"/><circle class="u" cx="3.135" cy="3.135" r="3.135" transform="translate(71.477 391.546)"/><path class="q" d="M384.582,185.486a3.136,3.136,0,1,0-3.136-3.136A3.142,3.142,0,0,0,384.582,185.486Z" transform="translate(66.278 22.415)"/><circle class="u" cx="3.135" cy="3.135" r="3.135" transform="translate(165.539 181.026)"/><circle class="s" cx="3.135" cy="3.135" r="3.135" transform="translate(157.924 361.088)"/><circle class="s" cx="3.135" cy="3.135" r="3.135" transform="translate(457.579 345.411)"/><path class="b" d="M340.268,194.874a3.135,3.135,0,1,0-3.137-3.136A3.142,3.142,0,0,0,340.268,194.874Z" transform="translate(57.74 24.224)"/><circle class="s" cx="3.135" cy="3.135" r="3.135" transform="translate(369.34 96.818)"/><circle class="s" cx="3.135" cy="3.135" r="3.135" transform="translate(495.652 175.651)"/><g transform="translate(410.052 410.495)"><path class="ad" d="M383.962,384.49a10.249,10.249,0,1,1-7.249,3,10.223,10.223,0,0,1,7.249-3Zm4.42,5.832a6.251,6.251,0,1,0,1.83,4.419A6.236,6.236,0,0,0,388.382,390.322Z" transform="translate(-345.264 -348.53)"/><path class="g" d="M371.218,415.45h0A16.123,16.123,0,0,0,387.3,399.371V382.616a1.426,1.426,0,0,0-1.424-1.422H356.565a1.425,1.425,0,0,0-1.423,1.422v16.756A16.122,16.122,0,0,0,371.218,415.45Z" transform="translate(-348.842 -349.165)"/><path class="ad" d="M380.509,397.363a15.947,15.947,0,0,1-.776,4.928,15.777,15.777,0,0,1-1.07,2.53,16.23,16.23,0,0,1-8.085,7.392,16.03,16.03,0,0,1-8.78,1.01,15.994,15.994,0,0,0,17.788-1.01,16.27,16.27,0,0,0,4.323-4.909,15.943,15.943,0,0,0,2.106-7.932V382.616a1.426,1.426,0,0,0-1.424-1.422h-4.081v16.169Z" transform="translate(-347.56 -349.165)"/><path class="g" d="M357.284,410.609h27.869a2.149,2.149,0,0,0,2.143-2.143h0a2.15,2.15,0,0,0-2.143-2.144H357.284a2.149,2.149,0,0,0-2.142,2.144h0A2.149,2.149,0,0,0,357.284,410.609Z" transform="translate(-348.842 -344.324)"/><path class="ae" d="M2.271,0h.876a2.27,2.27,0,0,1,2.27,2.27V12.845a2.27,2.27,0,0,1-2.27,2.27H2.271A2.271,2.271,0,0,1,0,12.845V2.271A2.271,2.271,0,0,1,2.271,0Z" transform="translate(8.74 35.085)"/><path class="b" d="M358.5,366.545h12.257a1.7,1.7,0,0,0,1.69-1.69h0a1.7,1.7,0,0,0-1.69-1.689H354.274a4.428,4.428,0,0,1-4.414-4.414h0a4.426,4.426,0,0,1,4.414-4.413h42.874a4.426,4.426,0,0,1,4.413,4.413h0a4.427,4.427,0,0,1-4.413,4.414H382.195a1.694,1.694,0,0,0-1.69,1.689h0a1.7,1.7,0,0,0,1.69,1.69h5.753a3.416,3.416,0,0,1,3.406,3.406h0a3.416,3.416,0,0,1-3.406,3.405h-9.516a6.792,6.792,0,0,0-6.771,6.772v3.1a1.6,1.6,0,0,1-1.6,1.6h0a1.6,1.6,0,0,1-1.6-1.6v-5.906a3.982,3.982,0,0,0-3.969-3.97H358.5a3.415,3.415,0,0,1-3.405-3.405h0A3.416,3.416,0,0,1,358.5,366.545Z" transform="translate(-349.86 -354.339)"/></g></g></svg>