<svg xmlns="http://www.w3.org/2000/svg" width="66.601" height="74" viewBox="0 0 66.601 74"><defs><style>.a{fill:#29abe2;}.b{fill:#7f7a97;}.c{fill:#90218a;}.d{fill:#11044c;}</style></defs><g transform="translate(-40 -16)"><path class="a" d="M156.359,67.934a11.532,11.532,0,0,1,3.708,8.5,1.233,1.233,0,0,0,1.233,1.233h4.933a1.233,1.233,0,0,0,1.233-1.233V55.466a1.233,1.233,0,0,0-.247-.74l-7.253-9.671q.1-1.546.1-3.1a34.333,34.333,0,0,0-11.514-25.64,1.234,1.234,0,0,0-1.639,0A34.333,34.333,0,0,0,135.4,41.951q0,1.558.1,3.1l-7.253,9.671a1.233,1.233,0,0,0-.247.74V76.433a1.233,1.233,0,0,0,1.233,1.233h4.933a1.233,1.233,0,0,0,1.233-1.233,11.532,11.532,0,0,1,3.708-8.5,1.233,1.233,0,0,0,1.226,1.1h.887l-.85,3.4a1.233,1.233,0,0,0,1.2,1.532h.624a13.66,13.66,0,0,0,2.591,13.251l2.016,2.352a1.233,1.233,0,0,0,1.873,0l2.016-2.352a13.66,13.66,0,0,0,2.591-13.251h.624a1.233,1.233,0,0,0,1.2-1.532l-.85-3.4h.887a1.233,1.233,0,0,0,1.226-1.1ZM153.9,66.566H141.567V61.633H153.9Zm-6.167-29.6a3.7,3.7,0,1,1-3.7,3.7A3.7,3.7,0,0,1,147.734,36.966ZM165,55.878V75.2h-2.52a13.986,13.986,0,0,0-5.225-9.749l-.889-.711V60.624L156.975,59A48.441,48.441,0,0,0,159.6,48.676Zm-10.335,2.258-.387,1.031h-5.312V46.709a6.167,6.167,0,0,0,0-12.085V30.8h6.613A31.817,31.817,0,0,1,157.6,41.951a45.937,45.937,0,0,1-2.935,16.184Zm-6.932-39.226a31.836,31.836,0,0,1,6.8,9.424h-13.6a31.836,31.836,0,0,1,6.8-9.424ZM139.887,30.8H146.5v3.824a6.167,6.167,0,0,0,0,12.085V59.166h-5.312l-.387-1.031a45.939,45.939,0,0,1-2.935-16.185,31.809,31.809,0,0,1,2.018-11.145Zm-1.676,34.651a13.986,13.986,0,0,0-5.225,9.749h-2.52V55.878l5.4-7.2A48.442,48.442,0,0,0,138.492,59l.608,1.622v4.117Zm7.326,3.582.617,2.467h-3.007l.617-2.467Zm3.276,16.579-1.079,1.259-1.079-1.259a11.2,11.2,0,0,1-1.829-11.646h5.817a11.2,11.2,0,0,1-1.829,11.646ZM152.321,71.5h-3.007l.617-2.467H151.7Z" transform="translate(-74.433)"/><path class="b" d="M48,336h2.467v16.033H48Z" transform="translate(-6.767 -270.667)"/><path class="b" d="M48,456h2.467v3.7H48Z" transform="translate(-6.767 -372.167)"/><path class="b" d="M80,288h2.467v12.333H80Z" transform="translate(-33.833 -230.067)"/><path class="b" d="M80,384h2.467v3.7H80Z" transform="translate(-33.833 -311.267)"/><path class="b" d="M448,336h2.467v16.033H448Z" transform="translate(-345.1 -270.667)"/><path class="b" d="M448,456h2.467v3.7H448Z" transform="translate(-345.1 -372.167)"/><path class="b" d="M416,288h2.467v12.333H416Z" transform="translate(-318.033 -230.067)"/><path class="b" d="M416,384h2.467v3.7H416Z" transform="translate(-318.033 -311.267)"/><path class="c" d="M40,196.933h2.467V199.4h2.467v-2.467H47.4v-2.467H44.933V192H42.467v2.467H40Z" transform="translate(0 -148.867)"/><path class="c" d="M364.933,60.933H367.4V58.467h-2.467V56h-2.467v2.467H360v2.467h2.467V63.4h2.467Z" transform="translate(-270.667 -33.834)"/><path class="d" d="M112,152h3.7v2.467H112Z" transform="translate(-60.9 -115.034)"/><path class="d" d="M48,128h3.7v2.467H48Z" transform="translate(-6.767 -94.734)"/><path class="c" d="M88,88h3.7v2.467H88Z" transform="translate(-40.6 -60.9)"/><path class="d" d="M368,152h3.7v2.467H368Z" transform="translate(-277.433 -115.034)"/><path class="c" d="M408,200h3.7v2.467H408Z" transform="translate(-311.267 -155.634)"/><path class="d" d="M448,136h3.7v2.467H448Z" transform="translate(-345.1 -101.5)"/></g></svg>