<svg xmlns="http://www.w3.org/2000/svg" width="740.141" height="439.64" viewBox="0 0 740.141 439.64"><defs><style>.a{opacity:0.07;}.b,.c,.f{fill:none;}.c{stroke:#11044c;}.d,.e{stroke:none;}.e{fill:#11044c;}</style></defs><g class="a" transform="translate(-421 165.238)"><g class="b" transform="translate(684.098 121.667) rotate(-45)"><path class="d" d="M124.5,0,249,216H0Z"/><path class="e" d="M 124.5 2.002487182617188 L 1.7305908203125 215 L 247.2694091796875 215 L 124.5 2.002487182617188 M 124.5 0 L 249 216 L 0 216 L 124.5 0 Z"/></g><g class="b" transform="matrix(0.719, 0.695, -0.695, 0.719, 525.955, 78.088)"><path class="d" d="M47,0,94,82H0Z"/><path class="e" d="M 47 2.010940551757813 L 1.725784301757813 81 L 92.27421569824219 81 L 47 2.010940551757813 M 47 0 L 94 82 L 0 82 L 47 0 Z"/></g><g class="b" transform="matrix(0.94, 0.342, -0.342, 0.94, 544.779, 54.579)"><path class="d" d="M15.5,0,31,27H0Z"/><path class="e" d="M 15.50000095367432 2.008563995361328 L 1.727138519287109 26 L 29.27286338806152 26 L 15.50000095367432 2.008563995361328 M 15.50000095367432 0 L 31 27 L 1.9073486328125e-06 27 L 15.50000095367432 0 Z"/></g><g class="b" transform="matrix(0.966, -0.259, 0.259, 0.966, 996.04, 137.919)"><path class="d" d="M20.5,0,41,36H0Z"/><path class="e" d="M 20.5 2.020854949951172 L 1.720207214355469 35 L 39.27979278564453 35 L 20.5 2.020854949951172 M 20.5 0 L 41 36 L 0 36 L 20.5 0 Z"/></g><path class="c" d="M10354.5,75.4l232.284-232.284" transform="translate(-9426 132)"/><path class="c" d="M10354.5,75.4l232.284-232.284" transform="translate(-9857 -8)"/><path class="c" d="M10354.5,75.4l232.284-232.284" transform="translate(-9917 28)"/><g class="c" transform="translate(1064 40)"><circle class="d" cx="14.5" cy="14.5" r="14.5"/><circle class="f" cx="14.5" cy="14.5" r="14"/></g><g class="c" transform="translate(1123 165)"><circle class="d" cx="7.5" cy="7.5" r="7.5"/><circle class="f" cx="7.5" cy="7.5" r="7"/></g><g class="c" transform="translate(421 85)"><circle class="d" cx="6" cy="6" r="6"/><circle class="f" cx="6" cy="6" r="5.5"/></g></g></svg>