<svg xmlns="http://www.w3.org/2000/svg" width="83.58" height="437.159" viewBox="0 0 83.58 437.159">
  <g id="Group_1274" data-name="Group 1274" transform="translate(13398.769 8825.572)">
    <path id="Path_4938" data-name="Path 4938" d="M325.495,586.594l68.168-31.252c1.356-.623,2.454-4.279,2.452-8.165l-.164-355.716c0-3.887-1.1-7.587-2.454-8.264l-68.34-33.584c-2.476-.33-7.291-.412-7.291,4.262l-.032,422.542C317.834,581.091,324.138,587.216,325.495,586.594Z" transform="translate(-13716.603 -8975.051)" fill="#a7adaf"/>
    <path id="Path_1419" data-name="Path 1419" d="M320.351,580.747l73.34-33.226c1.356-.615,2.454-4.224,2.452-8.061l-.164-351.175c0-3.837-1.1-7.49-2.454-8.158l-73.18-36.1c-1.353-.667-2.45,2.533-2.45,7.148V573.5C317.895,578.118,318.995,581.362,320.351,580.747Z" transform="translate(-13711.332 -8969.441)" fill="#d9d9d9"/>
    <path id="Path_4940" data-name="Path 4940" d="M2.12,0A2.447,2.447,0,0,1,4.24,2.675,2.447,2.447,0,0,1,2.12,5.35,2.447,2.447,0,0,1,0,2.675,2.447,2.447,0,0,1,2.12,0Z" transform="translate(-13352.049 -8794.576)" fill="#2488b2"/>
    <ellipse id="Ellipse_344" data-name="Ellipse 344" cx="1.87" cy="2.618" rx="1.87" ry="2.618" transform="translate(-13352.438 -8794.525)" fill="#29abe2"/>
  </g>
</svg>
