<svg xmlns="http://www.w3.org/2000/svg" width="45.729" height="174.266" viewBox="0 0 45.729 174.266">
  <g id="Group_214" data-name="Group 214" opacity="0.9">
    <g id="Group_211" data-name="Group 211">
      <g id="Group_210" data-name="Group 210">
        <g id="Group_207" data-name="Group 207" transform="translate(0 0.996)">
          <path id="Path_1421" data-name="Path 1421" d="M337.795,275.636l-.011,2.283,5.08.331.01-2.283Z" transform="translate(-297.145 -189.79)" fill="#eef3f6"/>
          <path id="Path_1422" data-name="Path 1422" d="M338.068,284.226l-.087,2.26,5.029,2.747.087-2.26Z" transform="translate(-297.562 -189.913)" fill="#eef3f6"/>
          <path id="Path_1423" data-name="Path 1423" d="M338.708,292.678l-.162,2.2,4.9,5.119.162-2.2Z" transform="translate(-298.627 -190.034)" fill="#eef3f6"/>
          <path id="Path_1424" data-name="Path 1424" d="M339.7,300.858l-.234,2.106,4.686,7.409.234-2.106Z" transform="translate(-300.323 -190.152)" fill="#eef3f6"/>
          <path id="Path_1425" data-name="Path 1425" d="M341.041,308.634l-.3,1.977,4.4,9.58.3-1.977Z" transform="translate(-302.624 -190.263)" fill="#eef3f6"/>
          <path id="Path_1426" data-name="Path 1426" d="M342.7,315.882l-.366,1.818,4.045,11.6.366-1.818Z" transform="translate(-305.493 -190.367)" fill="#eef3f6"/>
          <path id="Path_1427" data-name="Path 1427" d="M344.645,322.486l-.424,1.629,3.625,13.431.424-1.629Z" transform="translate(-308.884 -190.461)" fill="#eef3f6"/>
          <path id="Path_1428" data-name="Path 1428" d="M346.854,328.341l-.475,1.414,3.146,15.049L350,343.39Z" transform="translate(-312.742 -190.545)" fill="#eef3f6"/>
          <path id="Path_1429" data-name="Path 1429" d="M349.289,333.353l-.519,1.176,2.618,16.427.519-1.176Z" transform="translate(-317.006 -190.617)" fill="#eef3f6"/>
          <path id="Path_1430" data-name="Path 1430" d="M351.911,337.441l-.554.92L353.4,355.9l.554-.92Z" transform="translate(-321.607 -190.675)" fill="#eef3f6"/>
          <path id="Path_1431" data-name="Path 1431" d="M354.678,340.542l-.58.649,1.444,18.375.58-.649Z" transform="translate(-326.473 -190.72)" fill="#eef3f6"/>
          <path id="Path_1432" data-name="Path 1432" d="M357.546,342.6l-.6.367.818,18.916.6-.367Z" transform="translate(-331.525 -190.749)" fill="#eef3f6"/>
          <path id="Path_1433" data-name="Path 1433" d="M360.469,343.594l-.6.08.178,19.154.6-.08Z" transform="translate(-336.682 -190.763)" fill="#eef3f6"/>
          <path id="Path_1434" data-name="Path 1434" d="M363.394,343.495l-.6-.209-.464,19.086.6.208Z" transform="translate(-341.856 -190.759)" fill="#eef3f6"/>
          <path id="Path_1435" data-name="Path 1435" d="M366.278,342.309l-.591-.494-1.1,18.712.591.494Z" transform="translate(-346.968 -190.738)" fill="#eef3f6"/>
          <path id="Path_1436" data-name="Path 1436" d="M369.077,340.057l-.57-.771-1.716,18.039.57.771Z" transform="translate(-351.938 -190.702)" fill="#eef3f6"/>
          <path id="Path_1437" data-name="Path 1437" d="M371.746,336.774l-.539-1.036L368.9,352.816l.539,1.036Z" transform="translate(-356.687 -190.651)" fill="#eef3f6"/>
          <path id="Path_1438" data-name="Path 1438" d="M374.243,332.514l-.5-1.285-2.859,15.844.5,1.285Z" transform="translate(-361.14 -190.586)" fill="#eef3f6"/>
          <path id="Path_1439" data-name="Path 1439" d="M376.529,327.344l-.453-1.513-3.366,14.356.453,1.513Z" transform="translate(-365.224 -190.509)" fill="#eef3f6"/>
          <path id="Path_1440" data-name="Path 1440" d="M378.566,321.346l-.4-1.716-3.82,12.639.4,1.716Z" transform="translate(-368.875 -190.42)" fill="#eef3f6"/>
          <path id="Path_1441" data-name="Path 1441" d="M380.322,314.617l-.338-1.892-4.212,10.72.339,1.893Z" transform="translate(-372.034 -190.322)" fill="#eef3f6"/>
          <path id="Path_1442" data-name="Path 1442" d="M381.768,307.265l-.273-2.039-4.537,8.629.272,2.039Z" transform="translate(-374.651 -190.214)" fill="#eef3f6"/>
          <path id="Path_1443" data-name="Path 1443" d="M382.882,299.407l-.2-2.152-4.789,6.4.2,2.152Z" transform="translate(-376.685 -190.1)" fill="#eef3f6"/>
          <path id="Path_1444" data-name="Path 1444" d="M383.646,291.168l-.129-2.231-4.965,4.07.129,2.231Z" transform="translate(-378.101 -189.981)" fill="#eef3f6"/>
          <path id="Path_1445" data-name="Path 1445" d="M384.048,282.681,384,280.406l-5.062,1.673.053,2.275Z" transform="translate(-378.878 -189.859)" fill="#eef3f6"/>
          <path id="Path_1446" data-name="Path 1446" d="M384.081,274.07l.024-2.282-5.077-.749L379,273.32Z" transform="translate(-379.003 -189.725)" fill="#eef3f6"/>
          <path id="Path_1447" data-name="Path 1447" d="M358.058,207.586l.6.258.574-19.043-.6-.258Z" transform="translate(-333.487 -188.543)" fill="#eef3f6"/>
          <path id="Path_1448" data-name="Path 1448" d="M355.177,208.96l.588.542,1.207-18.617-.588-.542Z" transform="translate(-328.385 -188.569)" fill="#eef3f6"/>
          <path id="Path_1449" data-name="Path 1449" d="M352.388,211.4l.565.818,1.82-17.894-.565-.818Z" transform="translate(-323.438 -188.614)" fill="#eef3f6"/>
          <path id="Path_1450" data-name="Path 1450" d="M349.737,214.865l.533,1.08,2.4-16.884-.533-1.08Z" transform="translate(-318.727 -188.678)" fill="#eef3f6"/>
          <path id="Path_1451" data-name="Path 1451" d="M347.266,219.3l.493,1.326,2.95-15.6-.493-1.326Z" transform="translate(-314.326 -188.76)" fill="#eef3f6"/>
          <path id="Path_1452" data-name="Path 1452" d="M345.015,224.641l.445,1.549,3.448-14.076-.445-1.55Z" transform="translate(-310.305 -188.859)" fill="#eef3f6"/>
          <path id="Path_1453" data-name="Path 1453" d="M343.019,230.794l.389,1.749,3.892-12.322-.389-1.749Z" transform="translate(-306.729 -188.972)" fill="#eef3f6"/>
          <path id="Path_1454" data-name="Path 1454" d="M341.31,237.664l.327,1.92,4.273-10.371-.327-1.92Z" transform="translate(-303.655 -189.098)" fill="#eef3f6"/>
          <path id="Path_1455" data-name="Path 1455" d="M339.915,245.141l.261,2.061,4.586-8.254-.261-2.061Z" transform="translate(-301.133 -189.236)" fill="#eef3f6"/>
          <path id="Path_1456" data-name="Path 1456" d="M338.858,253.105l.19,2.168,4.825-6-.19-2.168Z" transform="translate(-299.201 -189.382)" fill="#eef3f6"/>
          <path id="Path_1457" data-name="Path 1457" d="M338.154,261.43l.116,2.241,4.988-3.66-.116-2.241Z" transform="translate(-297.892 -189.535)" fill="#eef3f6"/>
          <path id="Path_1458" data-name="Path 1458" d="M337.816,269.98l.04,2.278,5.07-1.257-.04-2.278Z" transform="translate(-297.227 -189.691)" fill="#eef3f6"/>
        </g>
        <g id="Group_208" data-name="Group 208" transform="translate(0 2.201)">
          <path id="Path_1459" data-name="Path 1459" d="M337.795,276.857l-.011,2.283,5.081.331.01-2.283Z" transform="translate(-297.145 -191.012)" fill="#eef3f6"/>
          <path id="Path_1460" data-name="Path 1460" d="M338.068,285.448l-.087,2.26,5.029,2.747.087-2.26Z" transform="translate(-297.562 -191.135)" fill="#eef3f6"/>
          <path id="Path_1461" data-name="Path 1461" d="M338.709,293.9l-.162,2.2,4.9,5.119.162-2.2Z" transform="translate(-298.627 -191.256)" fill="#eef3f6"/>
          <path id="Path_1462" data-name="Path 1462" d="M339.7,302.08l-.234,2.106,4.686,7.409.234-2.106Z" transform="translate(-300.323 -191.373)" fill="#eef3f6"/>
          <path id="Path_1463" data-name="Path 1463" d="M341.041,309.856l-.3,1.977,4.4,9.58.3-1.977Z" transform="translate(-302.624 -191.485)" fill="#eef3f6"/>
          <path id="Path_1464" data-name="Path 1464" d="M342.7,317.1l-.366,1.818,4.045,11.6.366-1.818Z" transform="translate(-305.493 -191.589)" fill="#eef3f6"/>
          <path id="Path_1465" data-name="Path 1465" d="M344.645,323.708l-.424,1.629,3.625,13.431.424-1.629Z" transform="translate(-308.884 -191.683)" fill="#eef3f6"/>
          <path id="Path_1466" data-name="Path 1466" d="M346.854,329.563l-.475,1.414,3.146,15.049.475-1.414Z" transform="translate(-312.742 -191.767)" fill="#eef3f6"/>
          <path id="Path_1467" data-name="Path 1467" d="M349.289,334.575l-.519,1.176,2.618,16.426.519-1.176Z" transform="translate(-317.006 -191.839)" fill="#eef3f6"/>
          <path id="Path_1468" data-name="Path 1468" d="M351.911,338.663l-.554.92,2.047,17.541.554-.92Z" transform="translate(-321.607 -191.897)" fill="#eef3f6"/>
          <path id="Path_1469" data-name="Path 1469" d="M354.678,341.763l-.58.649,1.444,18.375.58-.649Z" transform="translate(-326.473 -191.942)" fill="#eef3f6"/>
          <path id="Path_1470" data-name="Path 1470" d="M357.547,343.825l-.6.367.818,18.916.6-.367Z" transform="translate(-331.525 -191.971)" fill="#eef3f6"/>
          <path id="Path_1471" data-name="Path 1471" d="M360.47,344.816l-.605.08.178,19.154.6-.08Z" transform="translate(-336.682 -191.985)" fill="#eef3f6"/>
          <path id="Path_1472" data-name="Path 1472" d="M363.394,344.717l-.6-.209-.464,19.085.6.208Z" transform="translate(-341.856 -191.981)" fill="#eef3f6"/>
          <path id="Path_1473" data-name="Path 1473" d="M366.278,343.531l-.591-.494-1.1,18.712.591.494Z" transform="translate(-346.968 -191.96)" fill="#eef3f6"/>
          <path id="Path_1474" data-name="Path 1474" d="M369.077,341.279l-.57-.771-1.716,18.039.57.771Z" transform="translate(-351.938 -191.924)" fill="#eef3f6"/>
          <path id="Path_1475" data-name="Path 1475" d="M371.746,338l-.539-1.036L368.9,354.038l.539,1.036Z" transform="translate(-356.687 -191.873)" fill="#eef3f6"/>
          <path id="Path_1476" data-name="Path 1476" d="M374.244,333.736l-.5-1.285-2.859,15.844.5,1.285Z" transform="translate(-361.14 -191.808)" fill="#eef3f6"/>
          <path id="Path_1477" data-name="Path 1477" d="M376.529,328.565l-.453-1.513-3.366,14.356.453,1.513Z" transform="translate(-365.224 -191.731)" fill="#eef3f6"/>
          <path id="Path_1478" data-name="Path 1478" d="M378.566,322.568l-.4-1.716-3.82,12.639.4,1.716Z" transform="translate(-368.875 -191.642)" fill="#eef3f6"/>
          <path id="Path_1479" data-name="Path 1479" d="M380.322,315.839l-.339-1.892-4.212,10.72.339,1.893Z" transform="translate(-372.034 -191.543)" fill="#eef3f6"/>
          <path id="Path_1480" data-name="Path 1480" d="M381.768,308.487l-.273-2.039-4.537,8.629.273,2.039Z" transform="translate(-374.652 -191.436)" fill="#eef3f6"/>
          <path id="Path_1481" data-name="Path 1481" d="M382.882,300.629l-.2-2.152-4.789,6.4.2,2.152Z" transform="translate(-376.685 -191.322)" fill="#eef3f6"/>
          <path id="Path_1482" data-name="Path 1482" d="M383.646,292.39l-.129-2.231-4.965,4.07.128,2.231Z" transform="translate(-378.101 -191.203)" fill="#eef3f6"/>
          <path id="Path_1483" data-name="Path 1483" d="M384.048,283.9,384,281.628l-5.062,1.674.053,2.274Z" transform="translate(-378.878 -191.081)" fill="#eef3f6"/>
          <path id="Path_1484" data-name="Path 1484" d="M384.081,275.291l.024-2.281-5.077-.749L379,274.542Z" transform="translate(-379.003 -190.946)" fill="#eef3f6"/>
          <path id="Path_1485" data-name="Path 1485" d="M358.058,208.808l.6.258.574-19.043-.6-.258Z" transform="translate(-333.487 -189.765)" fill="#eef3f6"/>
          <path id="Path_1486" data-name="Path 1486" d="M355.176,210.182l.588.542,1.207-18.617-.588-.542Z" transform="translate(-328.385 -189.791)" fill="#eef3f6"/>
          <path id="Path_1487" data-name="Path 1487" d="M352.388,212.621l.565.818,1.82-17.894-.565-.818Z" transform="translate(-323.438 -189.836)" fill="#eef3f6"/>
          <path id="Path_1488" data-name="Path 1488" d="M349.737,216.087l.533,1.08,2.4-16.884-.533-1.08Z" transform="translate(-318.727 -189.9)" fill="#eef3f6"/>
          <path id="Path_1489" data-name="Path 1489" d="M347.266,220.525l.493,1.326,2.95-15.6-.493-1.326Z" transform="translate(-314.326 -189.982)" fill="#eef3f6"/>
          <path id="Path_1490" data-name="Path 1490" d="M345.015,225.863l.445,1.549,3.448-14.076-.445-1.55Z" transform="translate(-310.305 -190.081)" fill="#eef3f6"/>
          <path id="Path_1491" data-name="Path 1491" d="M343.019,232.016l.389,1.749,3.892-12.322-.389-1.749Z" transform="translate(-306.729 -190.194)" fill="#eef3f6"/>
          <path id="Path_1492" data-name="Path 1492" d="M341.31,238.886l.328,1.92,4.273-10.371-.327-1.92Z" transform="translate(-303.655 -190.32)" fill="#eef3f6"/>
          <path id="Path_1493" data-name="Path 1493" d="M339.915,246.363l.261,2.061,4.586-8.254-.261-2.061Z" transform="translate(-301.133 -190.457)" fill="#eef3f6"/>
          <path id="Path_1494" data-name="Path 1494" d="M338.858,254.327l.19,2.168,4.825-6.005-.19-2.168Z" transform="translate(-299.201 -190.604)" fill="#eef3f6"/>
          <path id="Path_1495" data-name="Path 1495" d="M338.154,262.651l.116,2.241,4.988-3.66-.115-2.241Z" transform="translate(-297.893 -190.756)" fill="#eef3f6"/>
          <path id="Path_1496" data-name="Path 1496" d="M337.816,271.2l.04,2.278,5.07-1.257-.04-2.278Z" transform="translate(-297.227 -190.913)" fill="#eef3f6"/>
        </g>
        <g id="Group_209" data-name="Group 209">
          <path id="Path_1497" data-name="Path 1497" d="M337.795,274.625l-.011,2.283,5.08.331.01-2.283Z" transform="translate(-297.145 -188.78)" fill="#eef3f6"/>
          <path id="Path_1498" data-name="Path 1498" d="M338.068,283.215l-.087,2.26,5.029,2.747.087-2.26Z" transform="translate(-297.562 -188.903)" fill="#eef3f6"/>
          <path id="Path_1499" data-name="Path 1499" d="M338.708,291.667l-.162,2.2,4.9,5.119.162-2.2Z" transform="translate(-298.627 -189.024)" fill="#eef3f6"/>
          <path id="Path_1500" data-name="Path 1500" d="M339.7,299.847l-.234,2.106,4.686,7.409.234-2.106Z" transform="translate(-300.323 -189.141)" fill="#eef3f6"/>
          <path id="Path_1501" data-name="Path 1501" d="M341.041,307.623l-.3,1.978,4.4,9.58.3-1.978Z" transform="translate(-302.624 -189.252)" fill="#eef3f6"/>
          <path id="Path_1502" data-name="Path 1502" d="M342.7,314.871l-.366,1.818,4.045,11.6.366-1.818Z" transform="translate(-305.493 -189.356)" fill="#eef3f6"/>
          <path id="Path_1503" data-name="Path 1503" d="M344.645,321.475l-.424,1.629,3.625,13.431.424-1.629Z" transform="translate(-308.884 -189.45)" fill="#eef3f6"/>
          <path id="Path_1504" data-name="Path 1504" d="M346.854,327.33l-.475,1.414,3.146,15.049.475-1.414Z" transform="translate(-312.742 -189.534)" fill="#eef3f6"/>
          <path id="Path_1505" data-name="Path 1505" d="M349.289,332.342l-.519,1.176,2.618,16.427.519-1.176Z" transform="translate(-317.006 -189.606)" fill="#eef3f6"/>
          <path id="Path_1506" data-name="Path 1506" d="M351.911,336.431l-.554.92,2.047,17.541.554-.92Z" transform="translate(-321.607 -189.665)" fill="#eef3f6"/>
          <path id="Path_1507" data-name="Path 1507" d="M354.678,339.531l-.58.649,1.444,18.375.58-.649Z" transform="translate(-326.473 -189.709)" fill="#eef3f6"/>
          <path id="Path_1508" data-name="Path 1508" d="M357.547,341.592l-.6.367.818,18.916.6-.367Z" transform="translate(-331.525 -189.739)" fill="#eef3f6"/>
          <path id="Path_1509" data-name="Path 1509" d="M360.47,342.583l-.6.08.178,19.154.605-.08Z" transform="translate(-336.682 -189.753)" fill="#eef3f6"/>
          <path id="Path_1510" data-name="Path 1510" d="M363.394,342.484l-.6-.208-.464,19.085.6.209Z" transform="translate(-341.856 -189.748)" fill="#eef3f6"/>
          <path id="Path_1511" data-name="Path 1511" d="M366.278,341.3l-.591-.494-1.1,18.712.591.494Z" transform="translate(-346.968 -189.727)" fill="#eef3f6"/>
          <path id="Path_1512" data-name="Path 1512" d="M369.077,339.046l-.57-.771-1.716,18.039.57.771Z" transform="translate(-351.938 -189.691)" fill="#eef3f6"/>
          <path id="Path_1513" data-name="Path 1513" d="M371.746,335.763l-.539-1.036L368.9,351.805l.539,1.036Z" transform="translate(-356.687 -189.64)" fill="#eef3f6"/>
          <path id="Path_1514" data-name="Path 1514" d="M374.243,331.5l-.5-1.285-2.859,15.844.5,1.285Z" transform="translate(-361.139 -189.576)" fill="#eef3f6"/>
          <path id="Path_1515" data-name="Path 1515" d="M376.529,326.333l-.454-1.513-3.366,14.356.454,1.513Z" transform="translate(-365.224 -189.498)" fill="#eef3f6"/>
          <path id="Path_1516" data-name="Path 1516" d="M378.566,320.335l-.4-1.716-3.82,12.639.4,1.716Z" transform="translate(-368.875 -189.41)" fill="#eef3f6"/>
          <path id="Path_1517" data-name="Path 1517" d="M380.322,313.606l-.339-1.893-4.212,10.72.339,1.893Z" transform="translate(-372.034 -189.311)" fill="#eef3f6"/>
          <path id="Path_1518" data-name="Path 1518" d="M381.768,306.254l-.273-2.039-4.537,8.629.273,2.039Z" transform="translate(-374.652 -189.203)" fill="#eef3f6"/>
          <path id="Path_1519" data-name="Path 1519" d="M382.882,298.4l-.2-2.152-4.789,6.4.2,2.152Z" transform="translate(-376.685 -189.089)" fill="#eef3f6"/>
          <path id="Path_1520" data-name="Path 1520" d="M383.646,290.157l-.129-2.231L378.552,292l.129,2.231Z" transform="translate(-378.101 -188.97)" fill="#eef3f6"/>
          <path id="Path_1521" data-name="Path 1521" d="M384.048,281.67,384,279.4l-5.062,1.674.053,2.274Z" transform="translate(-378.878 -188.848)" fill="#eef3f6"/>
          <path id="Path_1522" data-name="Path 1522" d="M384.081,273.059l.024-2.281-5.077-.749L379,272.31Z" transform="translate(-379.003 -188.714)" fill="#eef3f6"/>
          <path id="Path_1523" data-name="Path 1523" d="M358.058,206.575l.6.258.574-19.043-.6-.258Z" transform="translate(-333.487 -187.533)" fill="#eef3f6"/>
          <path id="Path_1524" data-name="Path 1524" d="M355.177,207.949l.588.542,1.207-18.617-.588-.542Z" transform="translate(-328.385 -187.558)" fill="#eef3f6"/>
          <path id="Path_1525" data-name="Path 1525" d="M352.388,210.388l.565.818,1.82-17.894-.565-.818Z" transform="translate(-323.438 -187.604)" fill="#eef3f6"/>
          <path id="Path_1526" data-name="Path 1526" d="M349.737,213.854l.533,1.08,2.4-16.884-.533-1.08Z" transform="translate(-318.727 -187.668)" fill="#eef3f6"/>
          <path id="Path_1527" data-name="Path 1527" d="M347.266,218.292l.493,1.326,2.95-15.6-.493-1.326Z" transform="translate(-314.326 -187.749)" fill="#eef3f6"/>
          <path id="Path_1528" data-name="Path 1528" d="M345.015,223.63l.445,1.549,3.448-14.076-.445-1.549Z" transform="translate(-310.305 -187.848)" fill="#eef3f6"/>
          <path id="Path_1529" data-name="Path 1529" d="M343.019,229.784l.389,1.749L347.3,219.21l-.389-1.749Z" transform="translate(-306.729 -187.961)" fill="#eef3f6"/>
          <path id="Path_1530" data-name="Path 1530" d="M341.31,236.654l.328,1.92L345.91,228.2l-.327-1.92Z" transform="translate(-303.655 -188.087)" fill="#eef3f6"/>
          <path id="Path_1531" data-name="Path 1531" d="M339.915,244.13l.261,2.061,4.586-8.254-.261-2.061Z" transform="translate(-301.133 -188.225)" fill="#eef3f6"/>
          <path id="Path_1532" data-name="Path 1532" d="M338.858,252.094l.19,2.168,4.825-6.005-.19-2.168Z" transform="translate(-299.201 -188.371)" fill="#eef3f6"/>
          <path id="Path_1533" data-name="Path 1533" d="M338.154,260.419l.116,2.241,4.987-3.66-.115-2.241Z" transform="translate(-297.893 -188.524)" fill="#eef3f6"/>
          <path id="Path_1534" data-name="Path 1534" d="M337.816,268.97l.04,2.278,5.07-1.257-.04-2.278Z" transform="translate(-297.227 -188.681)" fill="#eef3f6"/>
        </g>
      </g>
    </g>
  </g>
</svg>
