<svg xmlns="http://www.w3.org/2000/svg" width="29.708" height="31.624" viewBox="0 0 29.708 31.624">
  <g id="surface1" transform="translate(-3.296 -2)">
    <path id="Path_4943" data-name="Path 4943" d="M19.184,30.226a4.47,4.47,0,0,0,.07-1,4.8,4.8,0,0,0-.07-1l1.992-1.425a.467.467,0,0,0,.145-.643L19.4,22.892a.473.473,0,0,0-.568-.214l-2.209,1.068a6.759,6.759,0,0,0-1.708-1L14.7,20.327a.461.461,0,0,0-.429-.429H10.492a.46.46,0,0,0-.426.429L9.779,22.82a6.028,6.028,0,0,0-1.708,1l-2.209-1a.445.445,0,0,0-.568.214L3.369,26.309a.466.466,0,0,0,.145.643l1.992,1.425a4.467,4.467,0,0,0-.07,1,4.829,4.829,0,0,0,.07,1L3.513,31.8a.463.463,0,0,0-.145.64l1.925,3.278a.475.475,0,0,0,.568.211l2.209-1a6.668,6.668,0,0,0,1.708,1l.214,2.423a.458.458,0,0,0,.429.426H14.2a.458.458,0,0,0,.426-.426l.214-2.423a5.859,5.859,0,0,0,1.708-1l2.209,1a.45.45,0,0,0,.57-.211l1.923-3.278a.462.462,0,0,0-.142-.64Zm-6.839,2.565a3.561,3.561,0,1,1,3.561-3.561A3.526,3.526,0,0,1,12.345,32.792Z" transform="translate(0 -5.15)" fill="#57c6f2"/>
    <path id="Path_4944" data-name="Path 4944" d="M35.942,11.474a4.324,4.324,0,0,0,.072-.927,4.324,4.324,0,0,0-.072-.927l1.781-1.283a.446.446,0,0,0,.145-.568L36.087,4.707a.384.384,0,0,0-.57-.142l-2.067.924a11.144,11.144,0,0,0-1.566-.924l-.214-2.209C31.741,2.142,31.6,2,31.385,2H27.9a.4.4,0,0,0-.429.356l-.214,2.209a5.021,5.021,0,0,0-1.566.924l-2.064-.924a.553.553,0,0,0-.57.142L21.271,7.771a.383.383,0,0,0,.142.568l1.781,1.283v.927a4.324,4.324,0,0,0,.072.927l-1.781,1.283a.446.446,0,0,0-.145.568l1.781,3.063a.384.384,0,0,0,.57.142l2.067-.924a11.141,11.141,0,0,0,1.566.924l.214,2.209a.4.4,0,0,0,.426.356h3.492a.4.4,0,0,0,.426-.356l.214-2.209a5.02,5.02,0,0,0,1.566-.924l2.067.924a.55.55,0,0,0,.568-.142l1.781-3.063a.381.381,0,0,0-.142-.568ZM29.6,14.109a3.561,3.561,0,1,1,3.561-3.561A3.526,3.526,0,0,1,29.6,14.109Z" transform="translate(-5.151)" fill="#e65100"/>
  </g>
</svg>
