<svg id="Group_1250" data-name="Group 1250" xmlns="http://www.w3.org/2000/svg" width="164.183" height="362.46" viewBox="0 0 164.183 362.46">
  <path id="Path_4062" data-name="Path 4062" d="M327.217,383.98c0,2.216,23.122,4.013,51.647,4.013s51.644-1.8,51.644-4.013-23.122-4.011-51.644-4.011S327.217,381.764,327.217,383.98Z" transform="translate(-289.76 -25.533)" fill="#bdeeff" opacity="0.35"/>
  <path id="Path_4063" data-name="Path 4063" d="M396.527,298.838s-5.718,6.637-6.769,7.026c-.646.24-5.021,1.069-6.464,1.328a5.671,5.671,0,0,0-1.568.445,5.041,5.041,0,0,0-1.3,1.054,40.879,40.879,0,0,0-2.976,3.6,6.457,6.457,0,0,0-.69,1.035,6.189,6.189,0,0,0-.443,1.44q-.932,4.211-1.6,8.479a.759.759,0,0,0,.02.45c.159.325.658.245.932.01s.479-.577.819-.687l.012.724a1.7,1.7,0,0,0,1.585-.227,13.066,13.066,0,0,0,4.986-4.825,5.577,5.577,0,0,1,.79-1.154c.88-.871,2.257-.856,3.448-1.162a19.669,19.669,0,0,0,3.235-1.049c1.854-.851,2.084-3.079,2.26-3.5a1.7,1.7,0,0,1,.479-.577c1.216-1.1,6.053-4.747,6.053-4.747" transform="translate(-374.694 -142.809)" fill="#ffbe9d"/>
  <path id="Path_4064" data-name="Path 4064" d="M7.244,0C4.552.778,3.126,4.255,2.211,6.635A37.037,37.037,0,0,0,.2,15.588a12.291,12.291,0,0,0,.44,6.3,13.248,13.248,0,0,0,1.756,2.739,5.783,5.783,0,0,0,1.269,1.335,1.958,1.958,0,0,0,1.751.3c.841-.323,1.179-1.308,1.416-2.177,1.553-5.654,3.25-11.372,6.442-16.29" transform="translate(71.709 23.07) rotate(-21)" fill="#170d54"/>
  <path id="Path_4065" data-name="Path 4065" d="M5.391,2.054C5.337.255,3.441-.919,1.8.944.441,2.487.081,5.417,0,7.581c-.093,2.592,1.917,3.1,3.57,3.465" transform="translate(76.329 38.273) rotate(-21)" fill="#f2a181"/>
  <g id="Group_719" data-name="Group 719" transform="translate(49.361 336.009)">
    <path id="Path_4066" data-name="Path 4066" d="M354.468,374.985a60.044,60.044,0,0,0,.34,7.483c.391,1.961,6.71,1.328,7.317.213s-.149-10.247-.149-10.247" transform="translate(-337.609 -372.434)" fill="#ffccb0"/>
    <path id="Path_4067" data-name="Path 4067" d="M380.093,379.686c.171,2.071.161,5.982.161,5.982l-6.478,1.563-.824-1.1a11.355,11.355,0,0,1-3.808,2.074,25.4,25.4,0,0,1-6.109.589c-5.353-.359-9.046-2.027-9.229-2.81-.768-3.272,6.346-2.861,7.794-2.981a9.384,9.384,0,0,0,7.767-5.453c.587-1.541.242-1.89,1.125-1.685a2.154,2.154,0,0,1,1.379.971,3.861,3.861,0,0,0,4.1,1.746,4.6,4.6,0,0,0,2.445-1.4A2.666,2.666,0,0,1,380.093,379.686Z" transform="translate(-353.748 -367.554)" fill="#1b227a"/>
  </g>
  <path id="Path_4068" data-name="Path 4068" d="M368.212,368.18c-.614-9.706,7.226-22.7,7.226-22.7s-21.168-11.628-21.486-15.248c0,0-2.9,19.973-3.937,27.021-1.807,12.24,4.3,82.059,4.3,82.059a25.189,25.189,0,0,0,10.315.142s1.1-26.969,5.51-45.237C372.227,385.558,368.943,370.58,368.212,368.18Z" transform="translate(-289.623 -97.423)" fill="#90218a"/>
  <path id="Path_4069" data-name="Path 4069" d="M354.827,302.093c-7.948,17.735-16.578,74.957-18.647,94.712-.878,8.376,6.1,18.192,14.223,10.619,9.7-9.041,23.338-50.461,28.214-57.773s23.113-14.015,10.655-51.111" transform="translate(-274.536 -143.24)" fill="#90218a"/>
  <g id="Group_720" data-name="Group 720" transform="translate(100.458 338.904)">
    <path id="Path_4070" data-name="Path 4070" d="M333.768,373.618s.714,7.789,1,9.767,6.627,1.7,7.293.621.423-10.239.423-10.239" transform="translate(-318.253 -373.618)" fill="#ffccb0"/>
    <path id="Path_4071" data-name="Path 4071" d="M358.808,380.933a42.4,42.4,0,0,1-.21,5.49l-7.3.492-.44-1.2a11.5,11.5,0,0,1-4.145,1.5l-6.163.413c-4.51.3-7.109-.1-7.275-.885-.7-3.284,4.7-3.5,6.1-3.59,4.028-.271,8.263-2.45,9.075-4.558.592-1.531.262-1.886,1.113-1.663a2.086,2.086,0,0,1,1.323,1,3.71,3.71,0,0,0,3.947,1.819,4.4,4.4,0,0,0,2.387-1.355A2.67,2.67,0,0,1,358.808,380.933Z" transform="translate(-333.213 -368.904)" fill="#1b227a"/>
  </g>
  <path id="Path_4072" data-name="Path 4072" d="M338.49,411.736c1.345,6.9,19.374,4.324,18.985-1.788-.553-8.689,5.537-19.919,7.87-61.277.267-4.725,5-5.419,6.865-18.268,1.842-12.873-5.784-27.121-5.784-27.121l-27.737-3.971s-10.66,24.054-8.457,48.035S336.9,403.61,338.49,411.736Z" transform="translate(-238.386 -142.125)" fill="#90218a"/>
  <path id="Path_4073" data-name="Path 4073" d="M353.323,349.462s6.307,12.492,7.046,21.521c1.083,13.213-.254,56.7-.254,56.7s-6.823,1.479-10.464.408c0,0-16.011-77.156-16.6-85.451S353.323,349.462,353.323,349.462Z" transform="translate(-234.283 -83.089)" fill="#90218a"/>
  <path id="Path_4074" data-name="Path 4074" d="M330.892,271.192c3.135-3.6,13.088-9.525,26.39-9.1,9.163.288,34.12,1.8,36.91,7.933,1.426,3.133,2.957,35.225.868,46.291-1.57,8.32-5.583,28.933-5.583,33.907s2.671,7.106,1.423,8.552c-2.793,3.236-21.887,4.593-30.853,4.593-7.982,0-21.564-2.128-22.252-4.683-1.025-3.8,1.555-3.654,1.905-7.632s2.23-30.212-.105-34.024c-3.71-6.053-7.393-21.995-7.676-26.556S327.757,274.79,330.892,271.192Z" transform="translate(-261.345 -195.963)" fill="#57c6f2"/>
  <path id="Path_4075" data-name="Path 4075" d="M336.854,276.534c.951,1.978,7.41,12.364,7.41,12.364l.262,1.242a51.653,51.653,0,0,1-.658,5.551c-1.57,8.32-5.583,28.933-5.583,33.907s2.671,7.107,1.423,8.552c-1.115,1.291-4.852,2.279-9.489,3.008a12.013,12.013,0,0,0,2.145-3.086c.372-1.46-2.069-1.088-2.516-2.316s5.544-25.274,7.006-36.827S335.9,274.556,336.854,276.534Z" transform="translate(-210.153 -175.343)" fill="#5ab5e2" opacity="0.45"/>
  <path id="Path_4076" data-name="Path 4076" d="M344.086,261.572s-.088,11.068-.536,11.513a17.286,17.286,0,0,1-2.631,1.479s1.558,9.621,3.969,8.907,18.327-8.752,18.327-8.752-2.257-.92-2.257-1.812,2.142-18.3,2.142-18.3" transform="translate(-255.974 -206.741)" fill="#ffbe9d"/>
  <path id="Path_4090" data-name="Path 4090" d="M346.028,257.517l7.116-.368s-2.56,4.183-7.2,4.183" transform="translate(-257.907 -197.5)" fill="#f2a181"/>
  <path id="Path_4077" data-name="Path 4077" d="M18.392,0C16.074.633,9.958-.633,8.273,1.9s-3.164,8.645-3.8,10.332c-1.259,3.358-2.081,6.945-3,10.408C.291,27.15-1.676,35.413,2.739,39.187a5.869,5.869,0,0,0,3.4,1.727c2.088.379,4.17.807,6.258,1.181,3.238.582,6.825,1.259,10.041.215,4.3-1.4,6.654-7.3,7.757-11.315L36.526,8.011Z" transform="translate(71.408 24.466) rotate(-21)" fill="#ffbe9d"/>
  <path id="Path_4078" data-name="Path 4078" d="M347.992,267.492s-.878,40.735-2.536,65.515l5.989,8.261,4.118-10.344a315.069,315.069,0,0,0-3.9-63.148Z" transform="translate(-259.673 -188.12)" fill="#1b227a"/>
  <path id="Path_4079" data-name="Path 4079" d="M345.989,267.547l.139.56a11.416,11.416,0,0,0,1.24,3.018h0l3.676.284s2.5-1.308,2.829-2.717-4.1-3.712-4.1-3.712l-.538.213a7.994,7.994,0,0,0-3.2,2.3Z" transform="translate(-259.049 -191.753)" fill="#1b227a"/>
  <path id="Path_4080" data-name="Path 4080" d="M354.293,260.518a22.867,22.867,0,0,1,5.013,5.06c-1.89,4.326-7.513,11.677-12.218,15.177a21.247,21.247,0,0,0-7.461-9.327S352.977,268.664,354.293,260.518Z" transform="translate(-248.906 -198.201)" fill="#eaeaea"/>
  <path id="Path_4081" data-name="Path 4081" d="M355.189,271a15.811,15.811,0,0,0-7.31,6.948,35.011,35.011,0,0,1,.993-12.9s2.472-4.152,3.514-4.231C351.956,265.725,355.189,271,355.189,271Z" transform="translate(-264.468 -197.769)" fill="#eaeaea"/>
  <path id="Path_4082" data-name="Path 4082" d="M408.492,265.114c-8.107,4.507-21.975,50.832-23.519,51.339s-32.958,37.507-32.958,37.507L357,360.7s31.713-23.061,40.818-33.159c6.412-7.107,18.537-38.849,18.537-38.849S416.6,260.609,408.492,265.114Z" transform="translate(-336.246 -192.264)" fill="#57c6f2"/>
  <path id="Path_4083" data-name="Path 4083" d="M394.257,308.624c3.137-2.776,13.091-32.21,13.091-32.21l2.394,10.075c-3.974,9.293-9.061,20.2-12.5,24.015-9.1,10.1-40.818,33.159-40.818,33.159l-1.939-2.624S391.119,311.4,394.257,308.624Z" transform="translate(-335.673 -175.223)" fill="#5ab5e2" opacity="0.45"/>
  <g id="Group_723" data-name="Group 723" transform="translate(124.506 70.111)">
    <path id="Path_4086" data-name="Path 4086" d="M338.055,306.265s-1.905,3.883-2.925,5.857c-.665,1.286-5.723,5.6-7.75,9.026a8.773,8.773,0,0,0-1.59,5.434c.249,1.908,2.042,3.715,3.923,3.311.536-.115,1.147-.377,1.58-.042a2.084,2.084,0,0,1,.452.692,2.137,2.137,0,0,0,3.945-.543,3.613,3.613,0,0,0,4.81-.051,2.876,2.876,0,0,1-1.162-2.546,5.765,5.765,0,0,1,1.47-2.37,7.348,7.348,0,0,0,1.511-4.639c-.032-1.181-.352-2.336-.482-3.512a11.17,11.17,0,0,1,1.55-6.977" transform="translate(-323.551 -202.184)" fill="#ffbe9d"/>
    <path id="Path_4087" data-name="Path 4087" d="M317.635,290c1.455,5.187,23.617,39.3,23.617,39.3l-11.863,43.242,6.764,4.233s21.093-35.049,21.159-44.946-15.431-46.179-26.759-61.013c-3.6-4.722-10.834-7.107-10.834-7.107" transform="translate(-317.635 -263.705)" fill="#57c6f2"/>
  </g>
  <path id="Path_4088" data-name="Path 4088" d="M30.547,35.795c-1.46-.851-2.578-1.751-3.526-.355-.5.741-.807,1.763-1.665,2.017A1.722,1.722,0,0,1,23.4,36.076a4.983,4.983,0,0,1,.323-2.622Q24.6,30.626,25.48,27.8c.575-1.846,1.142-3.874.411-5.661a6.238,6.238,0,0,0-1.785-2.289,18.946,18.946,0,0,0-8.682-3.712A93.3,93.3,0,0,1,6.08,14.218a10.135,10.135,0,0,1-3.558-1.793A7.678,7.678,0,0,1,0,6.674,11.915,11.915,0,0,1,1.825.541a10.257,10.257,0,0,0,.934,2.13A7.876,7.876,0,0,1,4.461,0c.907,5.062,22.225,3.372,27.206,5.605,3.451,1.546,6.307,2.558,6.2,8.153a2.025,2.025,0,0,0,.675.888c3.059,2.812,4.385,6.231,4.769,11.306.469,6.209-3.147,12.934-6.691,18.053a11.587,11.587,0,0,1-2.631,3.15,6.994,6.994,0,0,1-4.955,1.118c-1.538-.294-4.566-.161-4.6-1.727-.022-1.12,2.372-3.118,3.035-4.02" transform="translate(70.151 15.537) rotate(-21)" fill="#1b227a"/>
  <path id="Path_4089" data-name="Path 4089" d="M.047,7.786a2.364,2.364,0,0,0,.4,1.861A2.353,2.353,0,0,0,2.969,10,6.739,6.739,0,0,0,7.225,4.785c.5-2.685-.941-5.37-3.4-4.673A3.627,3.627,0,0,0,1.5,3.648" transform="translate(105.553 38.233) rotate(-21)" fill="#ffbe9d"/>
  <path id="Path_4091" data-name="Path 4091" d="M347.285,379.548c-1.238-4.057,2.245-10.352,3.959-15.042s14.6-42.224,14.6-42.224l2.844,15.14c-2.675,6.49-5.6,13.433-8.525,19.562h0l0,0c-1.13,2.362-2.257,4.6-3.375,6.64-2.037,4.6-4.182,10.8-3.849,16.052.731,2.4,4.016,17.378,1.927,26.04-4.409,18.268-5.51,45.237-5.51,45.237a26.335,26.335,0,0,1-3.162.374c.372-6.659,1.02-18.415,1.091-20.743.1-3.282,4.255-22.186,3.959-29.664S348.525,383.6,347.285,379.548Z" transform="translate(-274.35 -108.922)" fill="#700d6a"/>
  <path id="Path_4151" data-name="Path 4151" d="M371.5,257.523c-.214.383-1.418.288-1.649.341-.5.118-.3.213-2.69,2.784-1.765,1.9-4.439,2.206-9.163.053-3.609-1.643-2.808-4.415-2.939-5.812s-.427-1.669-1.011-1.844-.916-.1-1.8.987-2.568,3.864-6.438,2.953c-3.046-.717-4.069-2.206-4.244-4.145-.317-3.469-.332-3.434-.679-3.81s-.113-1.752.2-2.47,2.559-.216,4.84.48,5.792,1.767,6.969,2.758.987,1.468,1.637,1.675.83-.291,2.361-.457,7.61,1.687,9.893,2.384,5.385,1.927,5.243,2.7A5.227,5.227,0,0,1,371.5,257.523ZM351.512,251.4c-.015-.961-.89-1.272-3.52-2.2s-3.734-1.4-4.312-1.1-1.183,1.61-1.029,3.627c.178,2.313.736,3.472,2.9,4.131,2.322.709,3.974-.169,4.786-1.533A7.948,7.948,0,0,0,351.512,251.4Zm16.314,4.059c-.305-.569-3.864-1.524-6.539-2.212s-3.571-.916-4.113-.133a7.9,7.9,0,0,0-.65,3.051c-.086,1.572.125,2.986,4.276,4.27,2.927.907,4.442.377,5.869-1.429C367.909,257.437,368.134,256.026,367.826,255.459Z" transform="matrix(0.951, -0.309, 0.309, 0.951, -328.658, -92.377)" fill="#170d54"/>
</svg>
