<svg id="Group_489" data-name="Group 489" xmlns="http://www.w3.org/2000/svg" width="140.636" height="147.151" viewBox="0 0 140.636 147.151">
  <path id="Path_2265" data-name="Path 2265" d="M424.616,344.486c-.341,2.388-14.691,12.438-17.517,14.447-2.269,1.612-4.24,2.351-7.669,3.639h0c-7.792,2.049-56.681,16.637-56.681,16.637a6.262,6.262,0,0,0-.485-1.485c-1.826.728-3.7,1.2-4.9,1.573-1.819.567-16.267,1.022-19.225,1.592s-8.873,1.478-11.262-.8,1.48-7.165,4.779-8.418,15.357-1.592,17.518-1.819,5.005-1.024,6.371-.57c.43.144,2.336-.415,4.743-1.247-.058-.886-.072-1.444-.072-1.444l12.835-3.7-2.376-22.73s5.585-21.046,27.9-4.99c0,0,4.978,1.463,6.685,1.918a1.88,1.88,0,0,0,.57.017c3.4-.256,18.032-4.68,23.318-4.68,5.689,0,7.508-.342,9.556.683S424.958,342.1,424.616,344.486Z" transform="translate(-284 -234.406)" fill="#faa146"/>
  <path id="Path_2266" data-name="Path 2266" d="M403.942,380.037c-2.391,2.275-8.306,1.366-11.262.8s-17.4-1.025-19.225-1.592-5.233-1.366-7.621-2.96a7.772,7.772,0,0,0-1.277-.559l0,0-3.613,2.6-50.231-15.989a17.984,17.984,0,0,1-6.988-3.462C301.1,356.6,286.542,346.82,286.2,344.431s3.866-10.353,5.914-11.375,3.868-.683,9.556-.683,22.183,5.12,23.889,4.664a25.126,25.126,0,0,0,3.9-1.855c1.824-1,3.527-2.012,3.527-2.012,24.432-10.906,27.152,6.939,27.152,6.939L358.7,362.139s2.037,1.011,4.686,2.269l12.109,3.422-1.585,1.144a3.1,3.1,0,0,0,1.368.255c1.365-.454,4.209.343,6.37.57s14.219.569,17.519,1.819S406.33,377.762,403.942,380.037Z" transform="translate(-286.182 -234.351)" fill="#faa146"/>
  <path id="Path_2267" data-name="Path 2267" d="M325.584,334.635c1.684.116,13.068,6.711,15.77,8.286-4.106-2.143-19.675-6.431-19.675-6.431A25.124,25.124,0,0,0,325.584,334.635Z" transform="translate(-282.3 -233.805)" fill="#5478b3"/>
  <path id="Path_2268" data-name="Path 2268" d="M380.259,336.532s-19.613,4.758-23.2,6.752c.163-.119,10.336-7.849,15.675-8.879,0,0,5.246,1.656,6.954,2.111a1.88,1.88,0,0,0,.57.017Z" transform="translate(-278.431 -233.83)" fill="#5478b3"/>
  <path id="Path_2269" data-name="Path 2269" d="M396.215,376.159c-2.391,2.275-8.306,1.366-11.262.8s-17.4-1.025-19.225-1.592c-.525-.165-1.177-.347-1.9-.561h0a21.714,21.714,0,0,1-5.718-2.4,7.765,7.765,0,0,0-1.277-.559l9.09-6.561.261-.189a3.094,3.094,0,0,0,1.368.255c1.365-.454,4.209.343,6.37.57s14.219.569,17.519,1.819S398.6,373.884,396.215,376.159Z" transform="translate(-278.456 -230.473)" fill="#eea886"/>
  <path id="Path_2270" data-name="Path 2270" d="M395.526,376.159c-2.391,2.275-8.306,1.366-11.262.8s-17.4-1.025-19.225-1.592c-.525-.165-1.177-.347-1.9-.561h0l0,0a9.608,9.608,0,0,0,2.1-9.516l.261-.189a3.094,3.094,0,0,0,1.368.255c1.365-.454,4.209.343,6.37.57s14.219.569,17.519,1.819S397.914,373.884,395.526,376.159Z" transform="translate(-277.766 -230.473)" fill="#fff"/>
  <path id="Path_2271" data-name="Path 2271" d="M329.711,339.16c.026.061.02.107-.019.134C329.466,339.465,329.5,339.392,329.711,339.16Z" transform="translate(-281.441 -233.31)" fill="#e55353"/>
  <path id="Path_2272" data-name="Path 2272" d="M398.255,319.162c-.19-.384-10.552-16.685-13.359-24.118s-9.556-10.845-12.741-11.906c-1.136-.379-3.161-1.04-5.3-1.731-3.847-1.244-8.05-2.593-8.05-2.593H345.536s-4.6,1.54-9.482,3.252l0,0c-4.5,1.58-9.238,3.3-10.839,4.1-3.337,1.666-8.949,13.574-10.086,14.939s-9.886,17.58-11.148,23.814c-.981,4.84,27.749,19.019,28.533,20.835.91-1.01,5.094-5.02,5.094-5.02s-1.34-.843-3.227-2.085c7.7.353,26.5-.312,29.2-.175a14.017,14.017,0,0,0,1.737-.038h0c.834.608,6.22,5.364,6.22,5.364S384.8,338.3,390.906,332.13C399.574,323.371,399.21,321.1,398.255,319.162Zm-75.462,10.785c-2.844-3.412-6.759-5.477-5.774-6.993s9.329-15.927,9.329-15.927,4.323,9.48,5.537,14.41,1.118,7.188.606,8.722a22.967,22.967,0,0,0-1.24,6.405C327.85,334.239,324.1,331.511,322.794,329.947Zm58.679-1.629c-1.116,1.267-5.528,4.07-9.5,6.379-.3-2.75-.759-7.079-.808-8.635-.075-2.351.91-9.1,2.123-11.678s2.048-9.633,2.048-9.633,10.048,13.652,11.641,15.093S385.241,324.038,381.473,328.318Z" transform="translate(-284.239 -239.91)" fill="#5779d4"/>
  <g id="Group_485" data-name="Group 485" transform="translate(57.095 2.33)">
    <path id="Path_2273" data-name="Path 2273" d="M350.067,245.944s10.38,1.633,8.8,17.873-10.741,14.908-11.353,14.892-9.2.3-9.865-19.532C337.649,259.177,337.355,244.517,350.067,245.944Z" transform="translate(-337.648 -245.846)" fill="#eea886"/>
  </g>
  <g id="Group_486" data-name="Group 486" transform="translate(77.87 15.179)">
    <path id="Path_2274" data-name="Path 2274" d="M356.979,257.963s1.137-1.214,1.554.016-1.551,6.711-1.622,6.967c0,0-.207.477-.48.214S356.979,257.963,356.979,257.963Z" transform="translate(-356.375 -257.428)" fill="#eea886"/>
  </g>
  <g id="Group_487" data-name="Group 487" transform="translate(55.752 14.955)">
    <path id="Path_2275" data-name="Path 2275" d="M338.06,257.781s-1.113-1.237-1.554-.016,1.4,6.737,1.487,7c0,0,.2.479.477.224S338.06,257.781,338.06,257.781Z" transform="translate(-336.438 -257.226)" fill="#eea886"/>
  </g>
  <g id="Group_488" data-name="Group 488" transform="translate(55.895 0)">
    <path id="Path_2276" data-name="Path 2276" d="M359.14,261.951l-1.485,1.985a39.82,39.82,0,0,0-.2-5.037c-.24-.682-.6-2.769-.8-3.26s-8.913-2.935-16.608.712c0,0,.337,3.133-.4,3.41s-.375,5.1-.375,5.1l-1.221-1.378s-1.87-12.494-1.409-13.8,1.935-9.131,17.724-4.484c0,0,4.922-1.043,5.911,2.356S359.14,261.951,359.14,261.951Z" transform="translate(-336.567 -243.745)" fill="#434343"/>
  </g>
  <path id="Path_2277" data-name="Path 2277" d="M338.211,355.228s-15.888-9.522-22.828-11.018c-6.559-1.417-8.949-3.869-8.949-3.869s10.428,0,17.367,4.93C328.513,348.617,338.211,355.228,338.211,355.228Z" transform="translate(-283.967 -233.181)" fill="#b57433"/>
  <path id="Path_2278" data-name="Path 2278" d="M347.8,361.866s27.634-14.511,38.918-17.657c6.462-1.8,8.949-3.869,8.949-3.869s-17.085,1.67-27.475,7.925C363.241,351.247,347.8,361.866,347.8,361.866Z" transform="translate(-279.443 -233.181)" fill="#b57433"/>
  <path id="Path_2279" data-name="Path 2279" d="M342.262,373.889c-1.826.728-3.7,1.2-4.9,1.573-1.819.567-16.267,1.022-19.225,1.592s-8.873,1.478-11.262-.8,1.48-7.165,4.779-8.418,15.357-1.592,17.518-1.819,5.005-1.024,6.371-.57c.43.144,2.336-.415,4.743-1.247C340.362,365.646,342.262,373.889,342.262,373.889Z" transform="translate(-284 -230.571)" fill="#eea886"/>
  <path id="Path_2280" data-name="Path 2280" d="M347.8,372.647l27.167-8.038-5.372-1.64S347.885,370.839,347.8,372.647Z" transform="translate(-279.443 -230.706)" fill="#faa146"/>
  <path id="Path_2281" data-name="Path 2281" d="M347.8,372.076l12.713-3.877-8.814,5.119Z" transform="translate(-279.443 -230.134)" fill="#b57433"/>
  <path id="Path_2282" data-name="Path 2282" d="M339.985,342.441l-.571-.337A5.714,5.714,0,0,1,339.985,342.441Z" transform="translate(-280.36 -232.988)" fill="#525252"/>
  <path id="Path_2283" data-name="Path 2283" d="M337.365,375.353c-1.819.567-16.267,1.022-19.225,1.592s-8.873,1.478-11.262-.8,1.48-7.165,4.779-8.418,15.357-1.592,17.518-1.819,5.005-1.024,6.371-.57A7.494,7.494,0,0,0,337.365,375.353Z" transform="translate(-284 -230.462)" fill="#fff"/>
  <path id="Path_2284" data-name="Path 2284" d="M326.6,342.811,322.417,319l54.127-1.25-3.487,23.433s-17.276,6.322-23.14,10.013C349.917,351.194,335.1,345.105,326.6,342.811Z" transform="translate(-282.219 -235.652)" fill="#525252"/>
  <path id="Path_2285" data-name="Path 2285" d="M350.677,332.171a3.073,3.073,0,1,1-3.035-3.564A3.332,3.332,0,0,1,350.677,332.171Z" transform="translate(-279.792 -234.464)" fill="#6e6e6e"/>
  <path id="Path_2286" data-name="Path 2286" d="M355.6,279.869c0-.014-.009-.029-.014-.043-.648-1.445-.331-8.5-.331-8.5s-13.22-3.365-12.842-.792-1.139,9.6-1.139,9.6l-6.78,2.32s7.224,19.4,15.53,16.9,11.439-17.6,11.439-17.6Z" transform="translate(-280.898 -240.921)" fill="#eea886"/>
  <path id="Path_2287" data-name="Path 2287" d="M341.858,273.1a7.7,7.7,0,0,0,5.769,2.688c2.431,0,4.091-.6,6.513-2.96,0,0-.963,4.4-6.5,4.819C347.643,277.649,343.687,278.222,341.858,273.1Z" transform="translate(-280.093 -240.564)" fill="#a77860"/>
</svg>
