<svg id="Group_425" data-name="Group 425" xmlns="http://www.w3.org/2000/svg" xmlns:xlink="http://www.w3.org/1999/xlink" width="112.218" height="200.709" viewBox="0 0 112.218 200.709">
  <defs>
    <linearGradient id="linear-gradient" y1="0.5" x2="1" y2="0.5" gradientUnits="objectBoundingBox">
      <stop offset="0" stop-color="#40d5e6"/>
      <stop offset="1" stop-color="#57f"/>
    </linearGradient>
    <linearGradient id="linear-gradient-5" y1="0.5" x2="1" y2="0.5" gradientUnits="objectBoundingBox">
      <stop offset="0" stop-color="#ff9340"/>
      <stop offset="1" stop-color="#ffce45"/>
    </linearGradient>
    <linearGradient id="linear-gradient-6" y1="0.5" x2="1" y2="0.5" gradientUnits="objectBoundingBox">
      <stop offset="0" stop-color="#c97332"/>
      <stop offset="1" stop-color="#ffce45"/>
    </linearGradient>
  </defs>
  <path id="Path_2202" data-name="Path 2202" d="M214.826,178.415c5.907-2.824,11.787,15.982,11.787,15.982,10.042,13.268,24.074-4.382,22.7,15.452-2.4,34.707,39.948,10.914,20.41,47.148s17.252,20.489,5.111,49.706,3.594,64.065-14.674,49.744c0,0-16.087-35.275-32.676-46.189s9.939-23.865,4.749-38.689c-7.539-21.531-25.7-20.684-12.607-43.823S194.743,188.018,214.826,178.415Z" transform="translate(-208.84 -178.125)" fill="url(#linear-gradient)"/>
  <g id="Group_421" data-name="Group 421" transform="translate(23.781 36.795)">
    <path id="Path_2203" data-name="Path 2203" d="M263.6,339.544c-7.92-5.568-17.186-44.378-17.74-67.5-.284-11.841-3.783-16.775-6.873-21.128-2.951-4.16-5.5-7.753-4.017-16,2.84-15.769-4.623-22.575-4.7-22.639l.863-.986c.333.291,8.1,7.311,5.125,23.857-1.389,7.708.9,10.932,3.8,15.013,3.037,4.282,6.822,9.613,7.112,21.852.595,24.81,10.07,61.454,17.185,66.458Z" transform="translate(-230.276 -211.293)" fill="#fff"/>
  </g>
  <g id="Group_422" data-name="Group 422" transform="translate(50.26 90.182)">
    <path id="Path_2204" data-name="Path 2204" d="M263.955,337.158a16.815,16.815,0,0,1-3.348-.364c-3.052-.616-5.053-2.227-5.947-4.786-2.135-6.1,2.811-16.022,6.825-20.8a30.524,30.524,0,0,0,6.069-19.675c-.121-1.907-.317-3.674-.493-5.231-.5-4.505-.871-7.76,1.065-9.933,1.705-1.916,5-2.746,11-2.775,10.539-.05,14.707-4.413,18.055-7.919a19.12,19.12,0,0,1,4.4-3.786h0c5.252-2.868,10.815-3.288,13.228-1,1.146,1.087,2.113,3.215.215,7.183a27.711,27.711,0,0,1-5.793,7.766c-2.432,2.483-4.038,4.122-3.2,7.391.194.767.422,1.541.649,2.319,1.625,5.558,3.467,11.856-6.045,16.131-2.018.905-3.855,1.629-5.478,2.265-6.64,2.6-10.647,4.178-15.171,13.727-.875,1.848-1.649,3.6-2.4,5.294C274.025,331.043,271.326,337.157,263.955,337.158Zm38.257-74.121a17.936,17.936,0,0,0-4.078,3.541c-3.52,3.685-7.9,8.271-19,8.326-5.525.026-8.619.746-10.033,2.333-1.545,1.738-1.209,4.749-.743,8.917.177,1.572.377,3.356.5,5.3a31.279,31.279,0,0,1-6.372,20.6c-3.976,4.733-8.476,14.15-6.594,19.532a6.079,6.079,0,0,0,4.972,3.935c8.956,1.809,11.428-3.794,15.526-13.079.751-1.7,1.529-3.462,2.411-5.327,4.746-10.019,9.173-11.757,15.876-14.385,1.609-.632,3.431-1.348,5.42-2.241,8.47-3.807,6.942-9.035,5.325-14.568-.232-.791-.461-1.582-.662-2.362-1.021-3.983.992-6.035,3.534-8.632a26.206,26.206,0,0,0,5.547-7.415c.861-1.8,1.57-4.24.067-5.666-1.979-1.877-7.009-1.361-11.7,1.2Z" transform="translate(-254.145 -259.417)" fill="url(#linear-gradient)"/>
  </g>
  <g id="Group_423" data-name="Group 423" transform="translate(55.555 100.64)">
    <path id="Path_2205" data-name="Path 2205" d="M260.226,343.688l-1.308-.068c.065-1.228,1.715-30.194,13.345-38.669,12.758-9.3,16.78-19.3,18.7-26,2.258-7.9,13.747-10.017,14.235-10.1l.227,1.291c-.11.019-11.171,2.058-13.2,9.172-1.968,6.894-6.1,17.162-19.184,26.7C261.9,314.121,260.241,343.394,260.226,343.688Z" transform="translate(-258.918 -268.844)" fill="url(#linear-gradient)"/>
  </g>
  <path id="Path_2206" data-name="Path 2206" d="M288.471,204.767c-8.265-2.834-6.547,13.1-10.041,24.883s-38.855,5.143-24.01,34.659-18.773,9.872-8.733,35.63.874,53.3,11.789,46.3,6.132-39.444,17.48-43.3,13.2-8.348,1.966-18.826,29.448-20.882,19.406-42.037S298.02,208.04,288.471,204.767Z" transform="translate(-205.018 -175.248)" fill="url(#linear-gradient)"/>
  <g id="Group_424" data-name="Group 424" transform="translate(52.386 66.466)">
    <path id="Path_2207" data-name="Path 2207" d="M261.2,341.328c-1.041-4.411-9.917-43.216-1.635-47.906,7.3-4.135,7.122-20.215,5.983-35.4-1.007-13.441,16.254-19.723,16.99-19.985l.438,1.235c-.17.061-17.055,6.21-16.121,18.653,1.169,15.593,1.295,32.141-6.643,36.634-6.291,3.563-.5,34.749,2.263,46.466Z" transform="translate(-256.061 -238.039)" fill="#fff"/>
  </g>
  <path id="Path_2208" data-name="Path 2208" d="M282.553,318.689l-11.8,44.772H244.38l-11.8-44.772Z" transform="translate(-206.243 -162.752)" fill="url(#linear-gradient-5)"/>
  <path id="Path_2209" data-name="Path 2209" d="M282.554,318.689s-25.98,4.878-25.98,44.772H244.379l-11.8-44.772Z" transform="translate(-206.243 -162.752)" fill="url(#linear-gradient-6)"/>
</svg>
