<svg xmlns="http://www.w3.org/2000/svg" width="130.562" height="216.336" viewBox="0 0 130.562 216.336">
  <g id="Group_1263" data-name="Group 1263" transform="translate(14549.176 9575.686)">
    <g id="Group_455" data-name="Group 455" transform="translate(-14474.125 -9385.889)">
      <path id="Path_2239" data-name="Path 2239" d="M667.5,356.535a43.575,43.575,0,0,0,1.341,6.786c.767,2.078,4.922,6.873,3.166,11.48-1.9,5-10.211.182-13.6-1.343s-2.617-4.289-2.977-7.677-2.016-3.478-1.4-5.861,4.315-6.941,4.315-6.941Z" transform="translate(-653.891 -352.978)" fill="#b7ceff"/>
    </g>
    <g id="Group_457" data-name="Group 457" transform="translate(-14470.144 -9388.353)">
      <g id="Group_456" data-name="Group 456">
        <path id="Path_2240" data-name="Path 2240" d="M659.549,350.757s-2.128,2.976-2.068,3.059,9.11,5.592,9.74,3.8a18.436,18.436,0,0,0,.711-3.477Z" transform="translate(-657.48 -350.757)" fill="#eea886"/>
      </g>
    </g>
    <g id="Group_458" data-name="Group 458" transform="translate(-14513.351 -9379.153)">
      <path id="Path_2241" data-name="Path 2241" d="M633.124,359.2a34.235,34.235,0,0,0-5.241,6.14c-2.479,3.719-9.064,3.916-9.344,8.995s8.949,5.233,13.8,3.58,5.579-6.611,8.51-7.852,4.454-2.243,4.228-4.664a29.479,29.479,0,0,0-1.847-6.35,20.3,20.3,0,0,1-2.891.7A24.021,24.021,0,0,1,633.124,359.2Z" transform="translate(-618.532 -359.049)" fill="#b7ceff"/>
    </g>
    <g id="Group_459" data-name="Group 459" transform="translate(-14499.818 -9531.385)">
      <path id="Path_2242" data-name="Path 2242" d="M665.013,236.641s-1.857,11.047-3.355,18.343h0a43.828,43.828,0,0,1-1.5,6.038c-.429.929-3.916,4.672-8.182,9.067C644.493,277.8,634.6,287.5,634.6,287.5l-3.87-7.342s8.787-10.3,14.745-17.174c2.758-3.179,4.909-5.627,5.3-5.979,1.245-1.114,2.691-12.092,4.724-21.137s6.1-14.045,6.1-14.045Z" transform="translate(-630.731 -221.826)" fill="#e8e8e8"/>
    </g>
    <g id="Group_460" data-name="Group 460" transform="translate(-14499.818 -9490.224)">
      <path id="Path_2243" data-name="Path 2243" d="M651.981,266.031c-7.488,7.707-17.38,17.414-17.38,17.414l-3.87-7.342s8.787-10.3,14.745-17.174A12.5,12.5,0,0,1,651.981,266.031Z" transform="translate(-630.731 -258.929)" fill="#eea886"/>
    </g>
    <g id="Group_461" data-name="Group 461" transform="translate(-14498.76 -9382.386)">
      <path id="Path_2244" data-name="Path 2244" d="M632.12,356.135l-.435,3.384a16.684,16.684,0,0,0,10.1-.151l.109-3.008Z" transform="translate(-631.685 -356.135)" fill="#eea886"/>
    </g>
    <g id="Group_462" data-name="Group 462" transform="translate(-14481.004 -9537.677)">
      <path id="Path_2245" data-name="Path 2245" d="M698.592,286.63c.277.983-50.9,0-50.9,0s14.157-10.3,15.074-13.057-3.605-19.271-4.195-24.645c-.471-4.3-1.654-23.542,1.179-26.482,2.963-3.072,13.633-6.292,13.633-6.292l15.558.579a24.322,24.322,0,0,1,4.4,1.388c1.835.852,12.331,4.591,14.035,9.833s-10.472,22.1-10.472,22.1-.023.758-.06,2h0c-.047,1.655-.116,4.171-.181,6.9-.081,3.536-.152,7.427-.152,10.269A101.777,101.777,0,0,0,698.592,286.63Z" transform="translate(-647.69 -216.154)" fill="#e8e8e8"/>
    </g>
    <g id="Group_463" data-name="Group 463" transform="translate(-14517.033 -9469.85)">
      <path id="Path_2246" data-name="Path 2246" d="M702.147,279.945s6.962,10.224,7.06,17.2-12.355,30.361-14.239,33.7c-5.666,10.055-21.2,31.742-21.2,31.742s-2.678-.068-11.034-3.313c0,0,10.335-28.647,11.644-31.621,5.556-12.614,8.657-21.56,6.79-23.724s-6.961-4.332-8.437-5.61-27.165,4.856-29.856,5.554c-6.971,1.807-3.793,13.936-2.252,19.375,2.58,9.1,4.837,41.947,4.837,41.947s-4.966,2.117-13.284.33c0,0-16.33-59.32-16.852-65.219s-.783-15.627,39.459-23.021Z" transform="translate(-615.213 -277.294)" fill="#303669"/>
    </g>
    <g id="Group_464" data-name="Group 464" transform="translate(-14461.92 -9571.687)">
      <path id="Path_2247" data-name="Path 2247" d="M675.769,185.709s-13.5-3.046-10.418,13.948,6.333,18.329,14.477,14.812,7.419-14.4,7.828-19.743S680.078,185.894,675.769,185.709Z" transform="translate(-664.893 -185.497)" fill="#eea886"/>
    </g>
    <g id="Group_465" data-name="Group 465" transform="translate(-14454.615 -9554.725)">
      <path id="Path_2248" data-name="Path 2248" d="M671.477,222.2s5.981,6.34,15.431.577c0,0-2.115-13.741-1-20.431s-12.332,10.368-12.332,10.368c.175.093.293.732.319,1.642a17.87,17.87,0,0,1-.14,2.722C673.478,219.3,672.786,221.651,671.477,222.2Z" transform="translate(-671.477 -200.787)" fill="#eea886"/>
    </g>
    <g id="Group_466" data-name="Group 466" transform="translate(-14462.705 -9575.686)">
      <path id="Path_2249" data-name="Path 2249" d="M687.076,203.841s-.347-5.355-2.3-5.522-2.255,1.989-2.255,1.989l-1.975.373s.623-4.693-1.33-5.512-12.652,2.584-14.219,1.2-.831-10.9,2.006-12.2,10.663-4.221,16.4-.338c0,0,4.473-.51,5.135,3.1S688.292,201.157,687.076,203.841Z" transform="translate(-664.185 -181.892)" fill="#3a3f47"/>
    </g>
    <g id="Group_467" data-name="Group 467" transform="translate(-14452.337 -9547.405)">
      <path id="Path_2250" data-name="Path 2250" d="M673.531,216.354c9.75-3.006,10.485-8.878,10.5-8.969-3.21,5.516-10.356,6.247-10.356,6.247A17.87,17.87,0,0,1,673.531,216.354Z" transform="translate(-673.531 -207.385)" fill="#a77860"/>
    </g>
    <g id="Group_468" data-name="Group 468" transform="translate(-14459.534 -9538.592)">
      <path id="Path_2251" data-name="Path 2251" d="M691.385,218.285s-7.141,14.214-18.677,13.3-1.966-15.206-1.442-15.338C671.842,216.1,683.1,213.3,691.385,218.285Z" transform="translate(-667.044 -215.329)" fill="#eea886"/>
    </g>
    <g id="Group_469" data-name="Group 469" transform="translate(-14486.86 -9472.313)">
      <path id="Path_2252" data-name="Path 2252" d="M642.411,279.466s35.346,4.358,56.761.722l-40.917-5.114S658.012,276.118,642.411,279.466Z" transform="translate(-642.411 -275.074)" fill="#e8e8e8"/>
    </g>
    <g id="Group_470" data-name="Group 470" transform="translate(-14463.056 -9473.922)">
      <path id="Path_2253" data-name="Path 2253" d="M666.5,273.623l-2.633,1.335s.6,4.182,2.041,5.449l2.955-.753S668.249,275.066,666.5,273.623Z" transform="translate(-663.869 -273.623)" fill="#eea886"/>
    </g>
    <g id="Group_471" data-name="Group 471" transform="translate(-14460.423 -9527.223)">
      <path id="Path_2254" data-name="Path 2254" d="M707.142,270.312c-.526.61-7.475,3.406-15.326,6.429h0c-10.723,4.131-22.82,8.04-22.82,8.04l-2.753-5.9s12.667-6.884,21.228-11.712c4.044-2.279,7.17-4.1,7.612-4.522,1.377-1.31,1.734-3.412.722-7.079s-3.346-20.517-3.607-22.482.653-7.21,5.57-7.473,7.419,1.127,7.419,1.127,1.234.513,2.151,12.442S708.386,268.871,707.142,270.312Z" transform="translate(-666.242 -225.577)" fill="#e8e8e8"/>
    </g>
    <g id="Group_472" data-name="Group 472" transform="translate(-14434.848 -9516.176)">
      <path id="Path_2255" data-name="Path 2255" d="M692.294,249.938h0c-.047,1.655-.116,4.171-.181,6.9-4.8-11.759-2.025-21.146-1.978-21.3C689.617,238.727,692.257,249.782,692.294,249.938Z" transform="translate(-689.296 -235.535)" fill="#b0b0b0"/>
    </g>
    <g id="Group_473" data-name="Group 473" transform="translate(-14471.16 -9510.271)">
      <path id="Path_2256" data-name="Path 2256" d="M658.833,252.9h0a43.828,43.828,0,0,1-1.5,6.038c-1.639-7.93-.164-18.084-.164-18.084A102.144,102.144,0,0,0,658.833,252.9Z" transform="translate(-656.564 -240.857)" fill="#b0b0b0"/>
    </g>
    <g id="Group_474" data-name="Group 474" transform="translate(-14460.423 -9485.634)">
      <path id="Path_2257" data-name="Path 2257" d="M691.816,272.641h0c-10.723,4.131-23.209,8.166-23.209,8.166l-2.364-6.031s12.667-6.884,21.228-11.712C687.47,263.066,690.585,264.585,691.816,272.641Z" transform="translate(-666.242 -263.066)" fill="#eea886"/>
    </g>
    <g id="Group_475" data-name="Group 475" transform="translate(-14511.425 -9468.281)">
      <path id="Path_2258" data-name="Path 2258" d="M670.508,279.448l-50.239-.74,25.364,12.878Z" transform="translate(-620.269 -278.708)" fill="#444c94"/>
    </g>
    <g id="Group_476" data-name="Group 476" transform="translate(-14488.026 -9467.541)">
      <path id="Path_2259" data-name="Path 2259" d="M643.326,291.513l24.875-9.634v-2.5l-26.84,9.681Z" transform="translate(-641.36 -279.375)" fill="#303669"/>
    </g>
    <g id="Group_478" data-name="Group 478" transform="translate(-14479.998 -9473.617)">
      <g id="Group_477" data-name="Group 477">
        <path id="Path_2260" data-name="Path 2260" d="M666.107,275.018s-3.138-.488-5.306-.993c-1.68-.392-5.853.148-6.916,1.224s-4.445,8.583-5.084,9.041.328,1.519,1.451.985c0,0,1.032,3.285,3.574,2.056s4.272-3.915,5.606-4.386,9.092-2.858,9.092-2.858S668.106,274.22,666.107,275.018Z" transform="translate(-648.597 -273.898)" fill="#eea886"/>
      </g>
    </g>
    <g id="Group_480" data-name="Group 480" transform="translate(-14479.771 -9472.758)">
      <g id="Group_479" data-name="Group 479">
        <path id="Path_2261" data-name="Path 2261" d="M654.63,274.673a21.868,21.868,0,0,0-2.542,1.407c-.527.435-2.662,2.031-3.178,2.407s.781,1.443,4.594-.207S654.63,274.673,654.63,274.673Z" transform="translate(-648.802 -274.673)" fill="#eea886"/>
      </g>
    </g>
    <g id="Group_481" data-name="Group 481" transform="translate(-14549.176 -9496.203)">
      <path id="Path_2262" data-name="Path 2262" d="M649.354,294.339l-14.941-40.8-48.174.786,14.24,37.6Z" transform="translate(-586.239 -253.539)" fill="#303669"/>
    </g>
    <g id="Group_482" data-name="Group 482" transform="translate(-14524.592 -9481.953)">
      <path id="Path_2263" data-name="Path 2263" d="M616.575,270.185c1.469,2.939,1.024,6.139-.993,7.149s-4.845-.556-6.316-3.5-1.025-6.138.992-7.148S615.1,267.245,616.575,270.185Z" transform="translate(-608.4 -266.384)" fill="#518afa"/>
    </g>
    <g id="Group_483" data-name="Group 483" transform="translate(-14444.456 -9560.848)">
      <path id="Path_2264" data-name="Path 2264" d="M680.759,196.576c.176-1.5,3.14-2.049,3.379.2s-1.346,6.194-2.472,5.805S680.514,198.643,680.759,196.576Z" transform="translate(-680.635 -195.267)" fill="#eea886"/>
    </g>
  </g>
</svg>
