<svg id="Group_542" data-name="Group 542" xmlns="http://www.w3.org/2000/svg" width="133.439" height="215.911" viewBox="0 0 133.439 215.911">
  <g id="Group_537" data-name="Group 537" transform="translate(90.275 131.329)">
    <path id="Path_2313" data-name="Path 2313" d="M205.142,368.379,194.928,300.45l1.966-.3,10.214,67.927Z" transform="translate(-194.928 -300.148)" fill="#5c5049"/>
  </g>
  <g id="Group_538" data-name="Group 538" transform="translate(77.802 131.329)">
    <path id="Path_2314" data-name="Path 2314" d="M193.9,368.379,183.685,300.45l1.968-.3,10.213,67.927Z" transform="translate(-183.685 -300.148)" fill="#5c5049"/>
  </g>
  <g id="Group_539" data-name="Group 539" transform="translate(24.616 131.329)">
    <path id="Path_2315" data-name="Path 2315" d="M137.71,368.379l-1.967-.3,10.214-67.927,1.966.3Z" transform="translate(-135.743 -300.148)" fill="#5c5049"/>
  </g>
  <path id="Path_2316" data-name="Path 2316" d="M200.486,309.487l8-84.178s-13.992-1.829-22.448-1.379L173.33,309.487Z" transform="translate(-107.015 -177.163)" fill="#fab46c"/>
  <rect id="Rectangle_231" data-name="Rectangle 231" width="27.157" height="4.279" transform="translate(66.314 128.044)" fill="#fab46c"/>
  <path id="Path_2317" data-name="Path 2317" d="M157.734,306.047l-4.246-80.216s35.417-3.846,57.169-.531Z" transform="translate(-109.186 -177.153)" fill="#fab46c"/>
  <path id="Path_2318" data-name="Path 2318" d="M186.2,204.468s5.469-16.037-4.967-21.008-19.3,2.215-20.97,6.1-1.231,10.959.2,15.891,1.22,12.439-1.881,14.949-6.946,6.68-6.756,15.168c.118,5.265,20.72-13.47,20.72-13.47Z" transform="translate(-109.369 -181.767)" fill="#fccca2"/>
  <path id="Path_2319" data-name="Path 2319" d="M170.666,359.572s-.325,11.334,1.294,12.014,7.743-3.258,10.445-7.157-3.385-12.969-4.384-17.971c-.418-2.1-5.177-5.865-7.5-4.787a11.348,11.348,0,0,0-4.016,3.848S172.413,349.569,170.666,359.572Z" transform="translate(-107.762 -164.299)" fill="#d4c3bd"/>
  <g id="Group_540" data-name="Group 540" transform="translate(58.745 177.374)">
    <path id="Path_2320" data-name="Path 2320" d="M166.507,345.5a62.583,62.583,0,0,1,3.044,6.869c1.033,3,1.226,11.311,1.877,11.888s5.784-2.012,6.469-5.12-1.4-9.319-3.378-12.585a20.335,20.335,0,0,0-4-4.9S167.022,342.335,166.507,345.5Z" transform="translate(-166.507 -341.654)" fill="#de9673"/>
  </g>
  <path id="Path_2321" data-name="Path 2321" d="M176.885,345.969l5.516,8.049-1.045.715-4.263-6.222Z" transform="translate(-106.627 -163.808)" fill="#d4c3bd"/>
  <path id="Path_2322" data-name="Path 2322" d="M161.03,266.037s2.7,4.554,0,7.87-20.832,12.425-20.7,17.686,3.455,13.5,4.648,15.586,5.6,10.759,7.885,15.833,15.519,29.344,18.106,34.814.994-21.882.994-21.882l-13.23-38.8,30.914-30.115S185.905,258.7,161.03,266.037Z" transform="translate(-110.625 -172.881)" fill="#de9673"/>
  <path id="Path_2323" data-name="Path 2323" d="M171.851,219.47s-8.577,1.9-11.98,3.892-10.965,11.143-10.965,15.076,33.063,7.612,33.063,7.612l6.268,22.881s16.712-4.08,18.7-7.463-6.581-27.455-7.776-32.529-7.445-8.493-14.407-9.47A47.905,47.905,0,0,0,171.851,219.47Z" transform="translate(-109.687 -177.691)" fill="#2f4563"/>
  <path id="Path_2324" data-name="Path 2324" d="M191.551,266.417s-.6,3.912.994,5.57,8.924,11.327,5.041,20.825c-3.566,8.722-10.479,8.555-10.479,8.555h-10.7s3.106,15.7,2.1,26.044-5.723,33.972-5.822,35.165-4.524,4.927-5.818,3.036c0,0-.12-14.225-.818-19.6s-3.659-26.859-4.555-30.042-6.167-12.833-6.167-13.828-5.15-16.568,6.093-20.547S176.638,266.5,191.551,266.417Z" transform="translate(-109.113 -172.509)" fill="#eea886"/>
  <path id="Path_2325" data-name="Path 2325" d="M161.468,367.123s-7.38,8.606-6.55,10.155,8.07,2.335,12.622,1,5.522-12.213,7.893-16.732c.993-1.89-.338-7.816-2.821-8.436a11.339,11.339,0,0,0-5.541.468S169.117,360.442,161.468,367.123Z" transform="translate(-109.036 -163.047)" fill="#e6d3cc"/>
  <g id="Group_541" data-name="Group 541" transform="translate(50.063 189.446)">
    <path id="Path_2326" data-name="Path 2326" d="M166.653,353.625a62.528,62.528,0,0,1-1.955,7.254c-1.084,2.983-6.158,9.565-6.015,10.423s5.762,2.072,8.249.088,4.774-8.123,5.287-11.909a20.363,20.363,0,0,0-.026-6.323S169.045,351.487,166.653,353.625Z" transform="translate(-158.68 -352.536)" fill="#eea886"/>
  </g>
  <path id="Path_2327" data-name="Path 2327" d="M173.605,360.7l-.774,9.728-1.262-.1.6-7.517Z" transform="translate(-107.208 -162.197)" fill="#e6d3cc"/>
  <path id="Path_2328" data-name="Path 2328" d="M199.1,293.184c-3.366,8.837-10.479,8.555-10.479,8.555h-10.7s-4.464-7.072-15.394-8.288a32.39,32.39,0,0,0-8.242.2c-.037.006-.074.01-.112.017-14.522,2.151-11.716,7.482-11.673,7.62-1.206-2.948-2.474-7.634-2.169-10.157,1.392-11.494,18-13.9,20.7-17.221s0-7.87,0-7.87c24.877-7.334,28.618.994,28.618.994,1.089-.151,3.885-1.761,5.073-1.768,0,0,1.245,2.719,2.121,5.174C197.62,272.6,202.754,283.595,199.1,293.184Z" transform="translate(-110.629 -172.881)" fill="#2f4563"/>
  <path id="Path_2329" data-name="Path 2329" d="M188.777,233.164l3.68,34.221H144.012l-3.681-34.221Z" transform="translate(-110.625 -176.146)" fill="#ded1c5"/>
  <rect id="Rectangle_232" data-name="Rectangle 232" width="8.092" height="3.079" transform="translate(77.596 88.161)" fill="#ded1c5"/>
  <rect id="Rectangle_233" data-name="Rectangle 233" width="133.44" height="4.657" transform="translate(0 91.24)" fill="#bc8551"/>
  <path id="Path_2330" data-name="Path 2330" d="M175.612,185.779s10.854,3.211,9.3,18.274-8.64,14.288-9.3,14.4-9.081.666-11.74-17.609S175.612,185.779,175.612,185.779Z" transform="translate(-108.086 -181.352)" fill="#eea886"/>
  <path id="Path_2331" data-name="Path 2331" d="M180.292,213.049s-.574,4.987.386,8.088-12.642,3.186-12.635.636c.008-2.9,1.391-5.317.089-10.281S180.292,213.049,180.292,213.049Z" transform="translate(-107.594 -178.72)" fill="#eea886"/>
  <path id="Path_2332" data-name="Path 2332" d="M172.887,192.588s5.9,9.382,12.105,11.556c0,0,3.389-15.741-10.609-19.041s-11.807,15.9-10.762,21.021A41.577,41.577,0,0,1,172.887,192.588Z" transform="translate(-108.163 -181.443)" fill="#fccca2"/>
  <path id="Path_2333" data-name="Path 2333" d="M169.574,213.285a7.344,7.344,0,0,0,9.787.466s-.454,2.86-4.4,3.23S169.574,213.285,169.574,213.285Z" transform="translate(-107.426 -178.32)" fill="#a77860"/>
  <path id="Path_2334" data-name="Path 2334" d="M164.766,191.24s3.105-6.012,8.347-6.28,8.359,4.279,8.359,4.279a8.913,8.913,0,0,0-8.354-5.12C166.813,184.119,164.766,191.24,164.766,191.24Z" transform="translate(-107.952 -181.51)" fill="#23344a"/>
  <path id="Path_2335" data-name="Path 2335" d="M182.178,219.415s-.193,10.427-8.46,10.736-6.547-10-6.547-10S173.219,217.7,182.178,219.415Z" transform="translate(-107.705 -177.716)" fill="#eea886"/>
  <rect id="Rectangle_234" data-name="Rectangle 234" width="3.428" height="106.997" transform="translate(130.012 95.897)" fill="#807066"/>
  <rect id="Rectangle_235" data-name="Rectangle 235" width="3.427" height="106.997" transform="translate(0 95.897)" fill="#807066"/>
</svg>
