<svg id="Group_454" data-name="Group 454" xmlns="http://www.w3.org/2000/svg" width="182.203" height="201.182" viewBox="0 0 182.203 201.182">
  <path id="Path_2238" data-name="Path 2238" d="M768.627,267.964c-.028,70.265-2,84.019-19.64,99.762-6.91,6.166-19.618,18.972-56.285,25.349a274.693,274.693,0,0,1-39.983,3.653,133.249,133.249,0,0,1-17.79-.66,92.766,92.766,0,0,1-12.575-2.2c-40.3-10.1-43.31-44.626-25.684-73.671a167.4,167.4,0,0,1,15.594-21.355c8.632-10.182,17.886-19.225,26.267-27.667,7.724-7.779,14.708-15.047,19.785-22.223a55.917,55.917,0,0,0,5.318-9.052c.325-.714.656-1.423.986-2.123,1.086-2.283,2.2-4.479,3.327-6.579,2.117-3.943,4.272-7.547,6.352-10.773,1.657-2.576,3.267-4.909,4.765-6.98a114.991,114.991,0,0,1,8.968-11.106s.476-.224,1.358-.589c.467-.2,1.054-.433,1.743-.7.277-.106.568-.217.879-.331s.628-.23.966-.351c.31-.108.632-.222.963-.334.391-.135.8-.27,1.22-.408.249-.08.5-.162.761-.242l.464-.145.179-.054a79.982,79.982,0,0,1,20.218-3.553C739.941,194.813,768.655,206.232,768.627,267.964Z" transform="translate(-586.424 -195.599)" fill="#eb4747"/>
</svg>
