<svg id="Group_1248" data-name="Group 1248" xmlns="http://www.w3.org/2000/svg" width="171.319" height="65.204" viewBox="0 0 171.319 65.204">
  <g id="Group_1246" data-name="Group 1246" transform="translate(88.089 3.234)">
    <path id="Path_4933" data-name="Path 4933" d="M204.711,191.448s2.814-1.79,4.478-1.279A72.718,72.718,0,0,0,218.4,191.7c1.792.128,5.372-3.07,6.012-3.582s1.023-1.663,1.792-2.43,1.151-.639,1.151-2.047,1.406-2.686,2.047-3.326,3.2-2.174,2.941-3.326-1.535-.512-2.3-.257-3.71,2.943-4.988,3.71a15.925,15.925,0,0,1-5.884,1.919,12.639,12.639,0,0,1-2.943-.384s-.383,0,1.151-.512,2.431-.128,3.71-.384,1.919-1.022,1.792-1.663-1.792-.639-2.431-.639a50.441,50.441,0,0,1-6.012-.128c-1.535-.255-4.092,2.3-4.6,2.814s-3.2,1.279-4.606,1.408S204.711,191.448,204.711,191.448Z" transform="translate(-149.128 -176.33)" fill="#ff9f75"/>
    <path id="Path_4934" data-name="Path 4934" d="M165.088,189.244s2.677,8.833,13.871,8.493,39.034-5.5,41.863-5.679c0,0,4.274-5.488.681-11.728,0,0-17.763.205-26.274-.537S160.494,174.267,165.088,189.244Z" transform="translate(-164.553 -175.497)" fill="#e1e8f2"/>
  </g>
  <g id="Group_1247" data-name="Group 1247">
    <path id="Path_4935" data-name="Path 4935" d="M130.405,208.665s-4.679-27.185-7.691-30.308c-3.671-3.681-9.727-6.554-15.793-2.075a13.558,13.558,0,0,0-5.167,15.434c1.566,4.159,16.959,38.736,21.567,42.647s10.924,2.474,12.151-4.979S130.405,208.665,130.405,208.665Z" transform="translate(-101.033 -173.998)" fill="#e1e8f2"/>
    <path id="Path_4936" data-name="Path 4936" d="M156.414,209.616s3.671.216,4.965.216,11.226-.864,12.953-.864,1.727,1.943,1.727,1.943,1.728,2.805,1.728,3.886a10.7,10.7,0,0,0,.431,3.669c.431,1.079-.216,1.943-.648,2.807s-1.512,1.3-2.591,1.943a3.487,3.487,0,0,1-3.238.215c-.863-.431-.863-.648.216-1.3a11.481,11.481,0,0,0,1.943-1.51,5.925,5.925,0,0,1-3.238,1.51c-1.943.216-4.965.216-6.693-.648l-4.748-2.374-3.454-.431Z" transform="translate(-79.862 -160.471)" fill="#ff9f75"/>
    <path id="Path_4937" data-name="Path 4937" d="M116.729,217.886s2.677,8.832,13.871,8.493,39.034-5.5,41.863-5.68c0,0,4.274-5.488.681-11.728,0,0-17.763.205-26.274-.535S112.135,202.909,116.729,217.886Z" transform="translate(-95.169 -161.184)" fill="#e1e8f2"/>
  </g>
</svg>
