<svg id="Group_1137" data-name="Group 1137" xmlns="http://www.w3.org/2000/svg" width="92.706" height="53.73" viewBox="0 0 92.706 53.73">
  <g id="Group_1128" data-name="Group 1128">
    <path id="Path_4838" data-name="Path 4838" d="M151.493,227.332l54.423,31.627,38.283-22.1L189.776,205.23Z" transform="translate(-151.493 -205.23)" fill="#fff"/>
  </g>
  <g id="Group_1131" data-name="Group 1131" transform="translate(23.128 12.169)">
    <g id="Group_1129" data-name="Group 1129" transform="translate(3.723)">
      <path id="Path_4839" data-name="Path 4839" d="M190.259,216.067l-8.562,4.976-10.842-3.2c3.026-3.461,10.334-4.839,16.323-3.075A13.47,13.47,0,0,1,190.259,216.067Z" transform="translate(-170.855 -214.005)" fill="#b391ff"/>
    </g>
    <g id="Group_1130" data-name="Group 1130" transform="translate(0 2.71)">
      <path id="Path_4840" data-name="Path 4840" d="M193.261,215.959c5.755,3.323,5.784,8.709.067,12.032s-15.016,3.323-20.771,0c-4.6-2.658-5.686-6.529-2.757-9.88l13.108,3.864Z" transform="translate(-168.17 -215.959)" fill="#05ccff"/>
    </g>
  </g>
  <g id="Group_1136" data-name="Group 1136" transform="translate(39.986 24.294)">
    <g id="Group_1133" data-name="Group 1133">
      <g id="Group_1132" data-name="Group 1132">
        <path id="Path_4841" data-name="Path 4841" d="M180.686,236.981c-.477.276-.48.714-.006.99a1.872,1.872,0,0,0,1.707,0l24.3-14.027c.477-.275.48-.713.006-.989a1.866,1.866,0,0,0-1.708,0Z" transform="translate(-180.327 -222.748)" fill="#adcdfc"/>
      </g>
    </g>
    <g id="Group_1134" data-name="Group 1134" transform="translate(16.791 1.629)">
      <path id="Path_4842" data-name="Path 4842" d="M192.787,230.079a.525.525,0,0,0-.006.99,1.9,1.9,0,0,0,1.717.006l10.309-5.954c.477-.275.472-.718,0-.994a1.887,1.887,0,0,0-1.709,0Z" transform="translate(-192.435 -223.923)" fill="#d4d9df"/>
    </g>
    <g id="Group_1135" data-name="Group 1135" transform="translate(13.582 3.152)">
      <path id="Path_4843" data-name="Path 4843" d="M190.484,234.541c-.477.275-.488.718-.014.994a1.883,1.883,0,0,0,1.717-.006l16.131-9.314c.477-.275.48-.713.006-.989a1.863,1.863,0,0,0-1.707,0Z" transform="translate(-190.121 -225.021)" fill="#05ccff"/>
    </g>
  </g>
</svg>
