<svg id="Group_1206" data-name="Group 1206" xmlns="http://www.w3.org/2000/svg" xmlns:xlink="http://www.w3.org/1999/xlink" width="207.827" height="257.64" viewBox="0 0 207.827 257.64">
  <defs>
    <linearGradient id="linear-gradient" x1="-2.333" y1="2.414" x2="-2.125" y2="-0.334" gradientUnits="objectBoundingBox">
      <stop offset="0" stop-color="#1ae5ff"/>
      <stop offset="0.259" stop-color="#63e8f8"/>
      <stop offset="0.704" stop-color="#eaeeee"/>
    </linearGradient>
    <linearGradient id="linear-gradient-2" x1="-44.413" y1="0.5" x2="-43.413" y2="0.5" gradientUnits="objectBoundingBox">
      <stop offset="0" stop-color="#5155d4"/>
      <stop offset="1" stop-color="#45f7ff"/>
    </linearGradient>
  </defs>
  <g id="Group_1190" data-name="Group 1190">
    <path id="Path_4883" data-name="Path 4883" d="M278,53.528l-.312-.175c-.135-.072-.269-.141-.4-.208s-.266-.129-.4-.187-.262-.114-.391-.166-.265-.1-.4-.148c-.025-.01-.05-.017-.075-.025l-.029-.01c-.1-.032-.193-.065-.288-.094-.136-.042-.27-.078-.4-.111s-.269-.064-.4-.09-.287-.051-.429-.071c-.1-.012-.193-.019-.289-.029l-.043,0-.105-.011c-.155-.01-.308-.015-.459-.015-.172,0-.341.01-.509.025a4.962,4.962,0,0,0-.563.082l-.014,0-.018.006a5.093,5.093,0,0,0-.653.179,4.671,4.671,0,0,0-.792.367l-6.493,3.773a4.808,4.808,0,0,1,1.444-.546l.019,0a5.814,5.814,0,0,1,1.649-.085l.044,0a7.955,7.955,0,0,1,1.81.4l.029.01a11.374,11.374,0,0,1,1.975.91L452.9,162.028l6.493-3.773Z" transform="translate(-261.326 -52.183)" fill="url(#linear-gradient)"/>
    <path id="Path_4884" data-name="Path 4884" d="M416.611,145.138c-.006-.158-.013-.316-.022-.474s-.022-.318-.037-.477-.033-.32-.054-.481-.044-.327-.069-.491l0-.014v-.011c-.025-.157-.053-.313-.082-.471s-.067-.34-.1-.51-.078-.343-.119-.513-.089-.347-.137-.52c-.037-.135-.076-.269-.118-.4l-.008-.032-.025-.082q-.077-.254-.162-.508c-.056-.166-.114-.333-.173-.5s-.118-.319-.18-.477-.125-.318-.191-.476c-.05-.122-.1-.243-.155-.365l-.01-.022-.036-.082q-.1-.239-.216-.474c-.081-.173-.164-.344-.248-.514-.1-.2-.2-.391-.3-.587s-.232-.415-.35-.62c-.021-.037-.039-.073-.061-.11s-.047-.087-.072-.13c-.232-.392-.474-.779-.727-1.157-.2-.3-.406-.595-.62-.883-.143-.193-.287-.384-.435-.571-.123-.157-.25-.313-.377-.466s-.251-.3-.379-.442-.252-.284-.38-.423c-.026-.028-.053-.053-.078-.08l-.028-.029c-.1-.1-.2-.208-.3-.309q-.2-.208-.412-.408c-.143-.137-.286-.27-.431-.4s-.288-.257-.435-.38c-.073-.062-.147-.121-.222-.18l-.05-.042c-.054-.044-.11-.092-.165-.135-.141-.112-.286-.222-.43-.329s-.283-.205-.426-.3-.277-.187-.417-.276-.276-.172-.415-.254l-.1-.057-6.493,3.773a15.077,15.077,0,0,1,1.95,1.354l.049.039a18.672,18.672,0,0,1,1.8,1.679l.028.029a22.859,22.859,0,0,1,3.069,4.153c.021.036.04.074.061.11a23.467,23.467,0,0,1,1.15,2.276l.012.028a21.565,21.565,0,0,1,.886,2.4l.01.032a18.638,18.638,0,0,1,.559,2.419v.01a15.075,15.075,0,0,1,.193,2.38l-.352,123.938a10.988,10.988,0,0,1-.2,2.111l-.012.06a7.793,7.793,0,0,1-.552,1.725l-.014.033a5.794,5.794,0,0,1-.735,1.137c-.09.112-.176.233-.272.337a4.828,4.828,0,0,1-1.071.882l6.493-3.773a4.8,4.8,0,0,0,1.071-.883c.1-.1.182-.222.272-.336a5.515,5.515,0,0,0,.354-.437,6.331,6.331,0,0,0,.369-.671l.014-.031.013-.03c.073-.16.144-.323.209-.5s.118-.338.171-.516c.047-.162.092-.329.13-.5.015-.069.029-.143.043-.215l.012-.06c.014-.069.029-.136.042-.205.026-.153.049-.309.069-.469s.036-.311.049-.472.022-.306.029-.463.01-.313.011-.473v-.029l.351-123.938C416.617,145.434,416.615,145.287,416.611,145.138Z" transform="translate(-208.79 -22.598)" fill="url(#linear-gradient-2)"/>
    <g id="Group_1189" data-name="Group 1189" transform="translate(0 3.774)">
      <g id="Group_1188" data-name="Group 1188">
        <path id="Path_4885" data-name="Path 4885" d="M453.791,160.977c5.411,3.124,9.78,10.691,9.763,16.909L463.2,301.824c-.017,6.22-4.414,8.726-9.827,5.6L271.983,202.7c-5.411-3.124-9.78-10.691-9.762-16.909l.351-123.939c.018-6.218,4.414-8.724,9.827-5.6Z" transform="translate(-262.221 -54.904)" fill="#343996"/>
      </g>
    </g>
  </g>
  <g id="Group_1191" data-name="Group 1191" transform="translate(78.792 25.687)">
    <path id="Path_4886" data-name="Path 4886" d="M379.252,104.046a6.759,6.759,0,0,1,3.069,5.316l-.11,38.956c-.006,1.954-1.388,2.742-3.09,1.76L322.106,117.16a6.758,6.758,0,0,1-3.069-5.314l.111-38.958c.006-1.954,1.387-2.742,3.088-1.76Z" transform="translate(-319.037 -70.705)" fill="#2689fd"/>
  </g>
  <g id="Group_1194" data-name="Group 1194" transform="translate(19.991 35.54)">
    <g id="Group_1192" data-name="Group 1192" transform="translate(0.025)">
      <path id="Path_4887" data-name="Path 4887" d="M287.71,84.011l0,1.768a1.355,1.355,0,0,1-2.034,1.168l-8.342-4.84a1.354,1.354,0,0,1-.675-1.176l.006-1.768A1.355,1.355,0,0,1,278.694,78l8.342,4.84A1.353,1.353,0,0,1,287.71,84.011Z" transform="translate(-276.654 -77.811)" fill="#fff"/>
    </g>
    <g id="Group_1193" data-name="Group 1193" transform="translate(0 8.799)">
      <path id="Path_4888" data-name="Path 4888" d="M314.1,105.581l-.006,1.772a1.354,1.354,0,0,1-2.032,1.169L277.314,88.457a1.352,1.352,0,0,1-.678-1.176l.006-1.772a1.354,1.354,0,0,1,2.032-1.169L313.428,104.4A1.356,1.356,0,0,1,314.1,105.581Z" transform="translate(-276.636 -84.156)" fill="#1ae5ff"/>
    </g>
  </g>
  <path id="Path_4889" data-name="Path 4889" d="M273.1,143.333l13.836-7.057,9.05,14.619,10.094,10.268,10.094-6.091,21.581-6.962,9.746,13.923,9.746,8.006,8.876,13.053,12.009-25.235,14.619,6.961,7.658-6.265,15.837,4.177,23.5-2.088" transform="translate(-258.015 -19.656)" fill="none" stroke="#16c5dc" stroke-miterlimit="10" stroke-width="1"/>
  <g id="Group_1197" data-name="Group 1197" transform="translate(83.682 42.226)">
    <g id="Group_1195" data-name="Group 1195">
      <path id="Path_4890" data-name="Path 4890" d="M335.775,84.431c-5.253-3.032-10.225-2.258-12.279,2.521-2.571,5.974.352,16.038,6.54,23l1.437-3.342c-4.192-4.891-6.145-11.8-4.367-15.936,1.451-3.369,4.954-3.912,8.656-1.775a15.018,15.018,0,0,1,2.715,2.04l1.435-3.342A21.639,21.639,0,0,0,335.775,84.431Z" transform="translate(-322.563 -82.632)" fill="#f1f1f1"/>
    </g>
    <g id="Group_1196" data-name="Group 1196" transform="translate(7.473 4.965)">
      <path id="Path_4891" data-name="Path 4891" d="M337.829,86.212l-1.434,3.339c.226.211.452.431.675.663,4.765,4.909,7.092,12.451,5.2,16.851-.071.157-.143.308-.222.458-.026.053-.057.1-.087.157-1.378,2.426-4.019,3.018-6.946,1.844a10.767,10.767,0,0,1-1.391-.68c-.125-.072-.25-.148-.376-.226-.229-.143-.4-.261-.574-.377l-.079-.055c-.376-.266-.749-.553-1.125-.875l-.141-.123c-.139-.121-.276-.245-.415-.374-.051-.047-.1-.093-.154-.144-.18-.169-.361-.347-.538-.528-.288-.3-.564-.6-.835-.915l-1.437,3.342c.275.306.551.612.836.906.255.261.51.513.77.756.072.069.144.139.219.207.2.182.394.359.592.533.067.058.133.118.2.173.533.452,1.069.87,1.6,1.243.042.031.083.058.126.086.243.172.487.33.728.484l.085.051c.165.1.331.2.5.3q.591.341,1.177.62c.294.139.571.258.849.369,4.465,1.771,8.464.653,10.251-3.507,2.683-6.239-.621-16.944-7.376-23.906Q338.169,86.534,337.829,86.212Z" transform="translate(-327.952 -86.212)" fill="#fdb913"/>
    </g>
  </g>
  <g id="Group_1202" data-name="Group 1202" transform="translate(115.135 62.027)">
    <g id="Group_1198" data-name="Group 1198" transform="translate(0.044)">
      <path id="Path_4892" data-name="Path 4892" d="M351.664,100.492l0,1.022a.783.783,0,0,1-1.176.675l-4.82-2.8a.78.78,0,0,1-.39-.68l0-1.022a.783.783,0,0,1,1.176-.674l4.821,2.8A.783.783,0,0,1,351.664,100.492Z" transform="translate(-345.275 -96.91)" fill="#fff"/>
    </g>
    <g id="Group_1199" data-name="Group 1199" transform="translate(0.029 5.085)">
      <path id="Path_4893" data-name="Path 4893" d="M366.92,112.96l0,1.025a.783.783,0,0,1-1.175.675l-20.086-11.6a.784.784,0,0,1-.392-.681l0-1.023a.784.784,0,0,1,1.175-.677l20.088,11.6A.781.781,0,0,1,366.92,112.96Z" transform="translate(-345.264 -100.577)" fill="#fff"/>
    </g>
    <g id="Group_1200" data-name="Group 1200" transform="translate(0 15.263)" opacity="0.53">
      <path id="Path_4894" data-name="Path 4894" d="M358.617,115.519l0,1.023a.782.782,0,0,1-1.173.675L345.635,110.4a.784.784,0,0,1-.392-.681l0-1.023a.783.783,0,0,1,1.173-.677l11.806,6.816A.781.781,0,0,1,358.617,115.519Z" transform="translate(-345.243 -107.916)" fill="#fff"/>
    </g>
    <g id="Group_1201" data-name="Group 1201" transform="translate(0.015 10.174)">
      <path id="Path_4895" data-name="Path 4895" d="M363.794,114.831l0,1.025a.782.782,0,0,1-1.173.675l-16.973-9.8a.781.781,0,0,1-.391-.68l0-1.025a.783.783,0,0,1,1.175-.675l16.972,9.8A.781.781,0,0,1,363.794,114.831Z" transform="translate(-345.254 -104.246)" fill="#58affb"/>
    </g>
  </g>
  <g id="Group_1205" data-name="Group 1205" transform="translate(171.124 126.682)">
    <g id="Group_1203" data-name="Group 1203">
      <path id="Path_4896" data-name="Path 4896" d="M396.261,144.983c-5.851-3.378-10.626-.657-10.645,6.067s4.725,14.911,10.576,18.289,10.6.671,10.62-6.052S402.113,148.362,396.261,144.983Z" transform="translate(-385.616 -143.531)" fill="#ff4272"/>
    </g>
    <g id="Group_1204" data-name="Group 1204" transform="translate(5.807 7.469)">
      <path id="Path_4897" data-name="Path 4897" d="M394.615,149.573c-2.645-1.527-4.8-.3-4.812,2.743a10.526,10.526,0,0,0,4.782,8.268c2.646,1.527,4.793.3,4.8-2.736A10.529,10.529,0,0,0,394.615,149.573Z" transform="translate(-389.803 -148.917)" fill="#212973"/>
    </g>
  </g>
</svg>
