<svg id="Group_1123" data-name="Group 1123" xmlns="http://www.w3.org/2000/svg" width="92.706" height="53.729" viewBox="0 0 92.706 53.729">
  <g id="Group_1114" data-name="Group 1114">
    <path id="Path_4829" data-name="Path 4829" d="M238.664,287.107l54.423,31.627,38.283-22.1L276.947,265Z" transform="translate(-238.664 -265.004)" fill="#fff"/>
  </g>
  <g id="Group_1117" data-name="Group 1117" transform="translate(23.127 12.17)">
    <g id="Group_1115" data-name="Group 1115" transform="translate(3.722)">
      <path id="Path_4830" data-name="Path 4830" d="M277.43,275.841l-8.562,4.976-10.843-3.194c3.027-3.463,10.334-4.84,16.324-3.074A13.434,13.434,0,0,1,277.43,275.841Z" transform="translate(-258.025 -273.779)" fill="#ff5668"/>
    </g>
    <g id="Group_1116" data-name="Group 1116" transform="translate(0 2.709)">
      <path id="Path_4831" data-name="Path 4831" d="M280.432,275.733c5.754,3.323,5.783,8.709.067,12.032s-15.018,3.323-20.773,0c-4.6-2.658-5.684-6.529-2.757-9.878l13.109,3.862Z" transform="translate(-255.341 -275.733)" fill="#b391ff"/>
    </g>
  </g>
  <g id="Group_1122" data-name="Group 1122" transform="translate(39.986 24.293)">
    <g id="Group_1119" data-name="Group 1119">
      <g id="Group_1118" data-name="Group 1118">
        <path id="Path_4832" data-name="Path 4832" d="M267.856,296.755c-.477.276-.478.714-.006.99a1.867,1.867,0,0,0,1.709,0l24.3-14.026c.477-.276.48-.714.006-.99a1.866,1.866,0,0,0-1.709,0Z" transform="translate(-267.497 -282.522)" fill="#adcdfc"/>
      </g>
    </g>
    <g id="Group_1120" data-name="Group 1120" transform="translate(16.791 1.629)">
      <path id="Path_4833" data-name="Path 4833" d="M279.959,289.855a.524.524,0,0,0-.006.989,1.9,1.9,0,0,0,1.717.006l10.31-5.952a.526.526,0,0,0,0-1,1.887,1.887,0,0,0-1.709,0Z" transform="translate(-279.605 -283.697)" fill="#d4d9df"/>
    </g>
    <g id="Group_1121" data-name="Group 1121" transform="translate(13.583 3.153)">
      <path id="Path_4834" data-name="Path 4834" d="M277.655,294.315c-.477.276-.488.72-.014.994a1.888,1.888,0,0,0,1.717,0l16.131-9.314c.477-.276.48-.714.006-.99a1.875,1.875,0,0,0-1.709,0Z" transform="translate(-277.292 -284.795)" fill="#d4d9df"/>
    </g>
  </g>
</svg>
