<svg id="Group_1216" data-name="Group 1216" xmlns="http://www.w3.org/2000/svg" width="37.222" height="66.062" viewBox="0 0 37.222 66.062">
  <g id="Group_1215" data-name="Group 1215">
    <g id="Group_1214" data-name="Group 1214">
      <g id="Group_1212" data-name="Group 1212" transform="translate(27.131 29.974)">
        <path id="Path_4902" data-name="Path 4902" d="M374.528,211.014l4.9-2.845-.094,33.242-4.9,2.845Z" transform="translate(-374.433 -208.169)" fill="#00a935"/>
      </g>
      <path id="Path_4903" data-name="Path 4903" d="M387.737,218.487v-.08l0-.04,0-.04-.007-.042-.007-.043-.008-.043,0-.01v0l-.008-.032-.011-.043-.012-.046-.015-.044-.014-.042-.017-.043-.017-.043-.019-.043-.019-.044-.022-.044h0L372.3,187.416l-.019-.036c-.012-.025-.026-.05-.04-.075l-.075-.118-.05-.069-.036-.047-.033-.04-.032-.039-.018-.019v0l-.014-.015-.036-.036-.036-.036-.039-.036-.039-.035-.039-.032-.037-.028-.037-.028-.037-.024-.036-.022-.008,0-.028-.017-.035-.018-.035-.017-.036-.014-.035-.014-.035-.011-.036-.01-.036-.008-.037-.006-.014,0h-.108l-.049.007a.369.369,0,0,0-.06.017.478.478,0,0,0-.072.032l-4.9,2.846a.467.467,0,0,1,.287-.054h0a.854.854,0,0,1,.326.115,1.516,1.516,0,0,1,.359.3v0a2.017,2.017,0,0,1,.3.444l15.242,30.344a1.923,1.923,0,0,1,.155.426h0a1.263,1.263,0,0,1,.032.372h0a.748.748,0,0,1-.078.288l0,.006a.458.458,0,0,1-.171.184l4.9-2.846a.438.438,0,0,0,.147-.143c.008-.012.015-.028.024-.042l0-.006.008-.014c.008-.018.015-.035.022-.054l.015-.044.012-.046.008-.042.006-.043,0-.039v-.007h0v-.072Z" transform="translate(-350.514 -186.555)" fill="#61e041"/>
      <g id="Group_1213" data-name="Group 1213" transform="translate(0 2.845)">
        <path id="Path_4904" data-name="Path 4904" d="M371.1,188.725a1.805,1.805,0,0,1,.664.743l15.242,30.344c.451.9.048,1.631-.67,1.216l-4.241-2.448L382,251.823l-22.266-12.856.094-33.243-4.1-2.366c-.728-.42-1.125-1.609-.661-1.985L370.433,188.7A.582.582,0,0,1,371.1,188.725Z" transform="translate(-354.869 -188.607)" fill="#00cc41"/>
      </g>
    </g>
  </g>
</svg>
