<svg id="Group_1127" data-name="Group 1127" xmlns="http://www.w3.org/2000/svg" xmlns:xlink="http://www.w3.org/1999/xlink" width="72.721" height="43.674" viewBox="0 0 72.721 43.674">
  <defs>
    <linearGradient id="linear-gradient" x1="0.849" y1="-3.15" x2="0.723" y2="-0.46" gradientUnits="objectBoundingBox">
      <stop offset="0" stop-color="#c6e6ff"/>
      <stop offset="1" stop-color="#8d9fff"/>
    </linearGradient>
    <linearGradient id="linear-gradient-2" x1="3.851" y1="1.526" x2="4.26" y2="-0.056" gradientUnits="objectBoundingBox">
      <stop offset="0" stop-color="#1ae5ff"/>
      <stop offset="1" stop-color="#eaeeee"/>
    </linearGradient>
  </defs>
  <g id="Group_1124" data-name="Group 1124" transform="translate(0.01)">
    <path id="Path_4835" data-name="Path 4835" d="M304.872,317.95c1.323.764,1.329,2,.015,2.764l-38.847,22.555a5.245,5.245,0,0,1-4.772,0l-27.115-15.654c-1.322-.763-1.331-2-.015-2.764L272.986,302.3a5.254,5.254,0,0,1,4.772,0Z" transform="translate(-233.157 -301.723)" fill="#f2f8fd"/>
  </g>
  <g id="Group_1126" data-name="Group 1126" transform="translate(0 2.433)">
    <path id="Path_4836" data-name="Path 4836" d="M305.862,314.527c0,.035-.006.071-.011.105s-.015.058-.022.086-.018.068-.029.1-.022.054-.035.082a1.033,1.033,0,0,1-.05.105c-.012.025-.029.05-.044.075-.025.04-.05.079-.079.118-.018.024-.036.046-.055.068a1.629,1.629,0,0,1-.143.154c-.018.018-.036.037-.055.055s-.068.057-.1.085-.061.05-.094.075-.08.054-.122.082-.082.056-.128.082l-38.847,22.555a3.6,3.6,0,0,1-.471.225l-.132.05c-.1.036-.209.067-.318.1s-.222.06-.337.083c-.135.028-.27.054-.409.071-.033,0-.067.011-.1.014a5.475,5.475,0,0,1-.566.032h-.09c-.187,0-.374-.011-.56-.03l-.083-.01a5.327,5.327,0,0,1-.542-.093c-.032-.007-.064-.017-.1-.024a4.851,4.851,0,0,1-.467-.143l-.083-.028a3.749,3.749,0,0,1-.514-.244L234.157,322.7a1.947,1.947,0,0,1-.935-1.017,1.174,1.174,0,0,1-.062-.376l-.01,1.556a1.225,1.225,0,0,0,.015.189,1.809,1.809,0,0,0,.982,1.2l27.115,15.654a3.594,3.594,0,0,0,.488.234l.026.01.083.028c.1.036.2.072.3.1.055.015.112.028.168.042l.1.024c.03.007.058.015.089.021.11.024.222.043.334.058l.119.014.083.01.125.014c.11.008.22.014.331.017.035,0,.069,0,.1,0h.09c.05,0,.1,0,.151,0,.125,0,.25-.012.373-.024l.043-.007.1-.014c.1-.012.193-.024.287-.04.042-.007.08-.022.122-.03.115-.024.227-.053.338-.083.058-.017.121-.026.177-.044s.092-.036.139-.053l.132-.05a3.607,3.607,0,0,0,.471-.225l38.847-22.555.042-.025c.031-.018.058-.039.087-.058s.083-.053.121-.08.064-.05.094-.075.072-.057.1-.085l.021-.018c.014-.012.022-.025.036-.037.051-.05.1-.1.143-.154.008-.011.022-.022.031-.033s.015-.024.024-.035c.029-.039.056-.079.079-.118.01-.017.024-.033.033-.05l.013-.025c.018-.035.033-.069.049-.105.01-.019.021-.04.029-.061l.006-.021a.9.9,0,0,0,.029-.1.539.539,0,0,0,.019-.068l0-.018c.006-.035.008-.071.011-.105a.644.644,0,0,0,.008-.069v-.031l.008-1.556C305.871,314.46,305.865,314.494,305.862,314.527Z" transform="translate(-233.15 -299.242)" fill="url(#linear-gradient)"/>
    <g id="Group_1125" data-name="Group 1125" transform="translate(4.57)">
      <path id="Path_4837" data-name="Path 4837" d="M299.6,317.764a.47.47,0,0,1,0,.889L262.726,340.08a1.694,1.694,0,0,1-1.534,0l-24.426-14.1a.47.47,0,0,1-.006-.89l36.872-21.426a1.687,1.687,0,0,1,1.537,0Z" transform="translate(-236.445 -303.478)" fill="url(#linear-gradient-2)"/>
    </g>
  </g>
</svg>
