<svg id="Group_1103" data-name="Group 1103" xmlns="http://www.w3.org/2000/svg" width="185.981" height="303.799" viewBox="0 0 185.981 303.799">
  <g id="Group_1102" data-name="Group 1102">
    <g id="Group_1090" data-name="Group 1090" transform="translate(16.741 204.383)">
      <g id="Group_1084" data-name="Group 1084" transform="translate(0 15.556)">
        <g id="Group_1083" data-name="Group 1083">
          <path id="Path_4802" data-name="Path 4802" d="M187.9,297.477c-.784,8.71-8.982,14.626-16.378,17.815a62.9,62.9,0,0,1-25.652,4.759,61.043,61.043,0,0,1-26.07-5.779c-7.019-3.455-14.468-9.719-14.445-18.239-.017,6.2.417,11.332,4.888,16.176,5.757,6.236,14.423,9.594,22.574,11.277,15.905,3.284,37.56,1.7,49.642-10.547,4.861-4.926,5.525-10.119,5.543-16.671Q187.976,296.876,187.9,297.477Z" transform="translate(-105.353 -272.204)" fill="#adcdfc"/>
          <g id="Group_1082" data-name="Group 1082" transform="translate(0)">
            <path id="Path_4803" data-name="Path 4803" d="M175.792,285.86c16.189,9.347,16.293,24.5.209,33.852s-42.271,9.347-58.46,0-16.256-24.5-.172-33.85S159.6,276.513,175.792,285.86Z" transform="translate(-105.353 -278.85)" fill="#e2edff"/>
          </g>
        </g>
      </g>
      <g id="Group_1089" data-name="Group 1089" transform="translate(35.904)">
        <g id="Group_1088" data-name="Group 1088">
          <g id="Group_1085" data-name="Group 1085" transform="translate(6.361 3.672)">
            <path id="Path_4804" data-name="Path 4804" d="M142.251,270.281l-.1,36.123-6.32,3.672.1-36.122Z" transform="translate(-135.829 -270.281)" fill="#c7d8f2"/>
          </g>
          <g id="Group_1086" data-name="Group 1086" transform="translate(0 3.673)">
            <path id="Path_4805" data-name="Path 4805" d="M137.706,273.954l-.1,36.122-6.361-3.672.1-36.123Z" transform="translate(-131.243 -270.281)" fill="#7baeff"/>
          </g>
          <g id="Group_1087" data-name="Group 1087" transform="translate(0.102)">
            <path id="Path_4806" data-name="Path 4806" d="M144,271.305l-6.319,3.673-6.361-3.672,6.32-3.673Z" transform="translate(-131.317 -267.633)" fill="#4da5dc"/>
          </g>
        </g>
      </g>
    </g>
    <path id="Path_4807" data-name="Path 4807" d="M111.289,189.349S98.336,192.8,94.883,200.575s-2.591,66.487,15.542,90.666,51.809,27.63,59.581,24.177,52.672-25.905,56.126-37.13-13.815-19.86-23.315-24.177-15.542-10.362-20.723-25.905-7.772-42.31-13.815-46.628S147.555,170.353,111.289,189.349Z" transform="translate(-93.281 -98.416)" fill="#3aaeef"/>
    <g id="Group_1101" data-name="Group 1101" transform="translate(16.795)">
      <path id="Path_4808" data-name="Path 4808" d="M173.056,179.595s-21.248-17.589-25.568-18c-5.184-.4-11.65,1.356-13.338,8.7a13.554,13.554,0,0,0,6.124,15.079c3.9,2.138,38.09,18.364,44.135,18.332s9.9-5.232,5.983-11.688S173.056,179.595,173.056,179.595Z" transform="translate(-94.424 -104.286)" fill="#e1e8f2"/>
      <g id="Group_1100" data-name="Group 1100" transform="translate(0 3.461)">
        <g id="Group_1097" data-name="Group 1097">
          <g id="Group_1096" data-name="Group 1096" transform="translate(5.452)">
            <g id="Group_1095" data-name="Group 1095">
              <g id="Group_1094" data-name="Group 1094">
                <g id="Group_1093" data-name="Group 1093">
                  <path id="Path_4809" data-name="Path 4809" d="M141.317,161.259a2.174,2.174,0,0,0,.043.7c.316,1.577,1.308,5.6,1.539,7.293.221,1.62-1.487,4.529-5.884,4.657s-11.942-1.342-14.681-6.456a121.5,121.5,0,0,0-1.494-15.423Z" transform="translate(-104.868 -111.426)" fill="#e16b40"/>
                  <g id="Group_1092" data-name="Group 1092">
                    <g id="Group_1091" data-name="Group 1091">
                      <path id="Path_4810" data-name="Path 4810" d="M155.22,140.606c-3.177-13.313-14.2-20.416-26.1-17.006,0,0-12.987,1.95-18.221,13.7s3.758,20.97,9.512,26.779c2.423,2.383,4.255,4.223,5.411,5.4.42.442.833.893,1.269,1.294l.123.126.012-.012a27.324,27.324,0,0,0,11.49,6.224c5.328,1.3,11.494.1,14.668-3.636S158.4,153.919,155.22,140.606Z" transform="translate(-109.323 -122.751)" fill="#ff8654"/>
                    </g>
                  </g>
                </g>
              </g>
            </g>
          </g>
          <path id="Path_4811" data-name="Path 4811" d="M129.291,159.6s-20.918,16.561-22.809,21.818-1.642,19.625,3.3,28.965,5.041,44.6,6.989,51.4,20.612,8.057,31.985,5.271,29.439-12.308,25.808-25.219c-5.363-19.067-4.088-38.274-3.657-44.341S169.8,176.32,166.5,166.3c-.7-2.113-8.147-5.066-8.147-5.066S150.621,157.643,129.291,159.6Z" transform="translate(-105.391 -108.723)" fill="#0046a6"/>
        </g>
        <path id="Path_4812" data-name="Path 4812" d="M133.084,233.73c-8.634-10.938,4.03-48.355-10.938-58.717-4.564-3.161-8.482-3.958-11.73-3.549-2.007,2.105-3.493,3.952-3.934,5.18-1.89,5.26-1.642,19.625,3.3,28.965s5.041,44.6,6.989,51.4c1.774,6.191,17.383,7.776,28.751,5.911l16.346-17.1S141.719,244.668,133.084,233.73Z" transform="translate(-105.391 -103.947)" fill="#003783"/>
        <path id="Path_4813" data-name="Path 4813" d="M124.341,161.6c18.186-1.671,26.557,1.458,28.636,2.419a53.822,53.822,0,0,1-.265,12.917c-1.423,8.6-4.847,32.207-4.847,32.207s-11.221-19.4-18.608-27.384c-5.2-5.618-10.318-10.913-12.9-13.563C120.716,164.471,124.341,161.6,124.341,161.6Z" transform="translate(-101.15 -107.912)" fill="#e1e8f2"/>
        <path id="Path_4814" data-name="Path 4814" d="M141.317,161.259a2.174,2.174,0,0,0,.043.7c.316,1.577,1.308,5.6,1.539,7.293.221,1.62-1.487,4.529-5.884,4.657s-11.942-1.342-14.681-6.456a121.5,121.5,0,0,0-1.494-15.423Z" transform="translate(-99.415 -111.426)" fill="#ff8654"/>
        <g id="Group_1099" data-name="Group 1099" transform="translate(5.452)">
          <g id="Group_1098" data-name="Group 1098">
            <path id="Path_4815" data-name="Path 4815" d="M155.22,140.606c-3.177-13.313-14.2-20.416-26.1-17.006,0,0-12.987,1.95-18.221,13.7s3.758,20.97,9.512,26.779c2.423,2.383,4.255,4.223,5.411,5.4.42.442.833.893,1.269,1.294l.123.126.012-.012a27.324,27.324,0,0,0,11.49,6.224c5.328,1.3,11.494.1,14.668-3.636S158.4,153.919,155.22,140.606Z" transform="translate(-109.323 -122.751)" fill="#ff9f75"/>
          </g>
        </g>
        <path id="Path_4816" data-name="Path 4816" d="M146.8,177.985l-8.106-7.179-6.485,11.348-6.539-4.128c7.387,7.995,18.591,27.364,18.591,27.364s2.855-19.7,4.435-29.658Z" transform="translate(-97.547 -104.163)" fill="#cfdae4"/>
        <path id="Path_4817" data-name="Path 4817" d="M143.488,191.892l-3.611-12.749.546-4.367-4.484-3.97-3.147,5.506,3.61,3.295.98,18.928c2.462,3.983,4.124,6.855,4.124,6.855S142.415,199.134,143.488,191.892Z" transform="translate(-94.792 -104.163)" fill="#00a5ff"/>
      </g>
      <path id="Path_4818" data-name="Path 4818" d="M109.926,136.93a19.8,19.8,0,0,0,1.3,19.428c6.476,9.931,13.417,14.349,15.127,14.083s2.574-.7,2.143-1.994-2.591-5.612-2.591-5.612-7.339-.864-7.339-5.612,2.589-5.612,5.612-4.318,3.453,3.455,5.181,5.181,2.158,6.045,3.453,5.614,2.159-1.728,2.159-3.886,0-4.75-2.59-7.34.431-6.908-2.159-10.362a25.4,25.4,0,0,0-4.317-4.748s1.727,2.591,10.362.863,12.52-1.294,15.975-3.453,2.591-6.908.431-8.636-7.339-2.591-13.384-4.748-9.5-.864-16.838.864S108.2,131.749,109.926,136.93Z" transform="translate(-104.396 -120.255)" fill="#e16b40"/>
    </g>
  </g>
  <path id="Path_4819" data-name="Path 4819" d="M201.619,319.7s-.287,4.318,4.318,7.485,5.468,5.18,9.21,6.619,7.2,6.332,5.469,9.787-9.787,4.03-14.968,2.591-6.045-6.045-10.938-7.772a18.078,18.078,0,0,1-8.059-5.181c-1.44-1.44-.864-7.2-.864-7.2l17.558-5.755" transform="translate(-57.543 -43.113)" fill="#382747"/>
  <path id="Path_4820" data-name="Path 4820" d="M217.808,307.657s-.287,4.318,4.317,7.484,5.47,5.181,9.211,6.619,7.2,6.334,5.468,9.787-9.785,4.03-14.966,2.591-6.045-6.044-10.938-7.772a18.069,18.069,0,0,1-8.059-5.181c-1.439-1.438-.864-7.195-.864-7.195l17.557-5.757" transform="translate(-51.282 -47.769)" fill="#382747"/>
  <path id="Path_4821" data-name="Path 4821" d="M114.568,235.205a31.543,31.543,0,0,1,.863,6.476c0,3.022-2.158,11.657,2.159,22.019s33.244,12.52,42.742,16.837a94.594,94.594,0,0,1,16.838,9.5c1.727,1.3,4.173,19.573,11.656,30.511s20.149,32.812,23.026,42.023a21.778,21.778,0,0,0,15.543-2.879c3.85-2.518,3.455-4.029,3.455-4.029s-14.968-32.813-18.422-46.63-7.483-29.934-13.815-33.963-26.479-18.421-31.085-21.3-17.015-11.978-19.446-17.5S122.051,221.821,114.568,235.205Z" transform="translate(-85.047 -78.503)" fill="#94a3c0"/>
  <path id="Path_4822" data-name="Path 4822" d="M131.691,224.931a31.543,31.543,0,0,1,.863,6.476c0,3.023-2.158,11.657,2.159,22.02s33.244,12.52,42.742,16.837a94.648,94.648,0,0,1,16.838,9.5c1.727,1.3,4.173,19.572,11.656,30.509S226.1,343.085,228.976,352.3a21.781,21.781,0,0,0,15.543-2.878c3.85-2.52,3.453-4.03,3.453-4.03s-14.966-32.813-18.421-46.628-7.483-29.934-13.815-33.964-26.481-18.421-31.085-21.3-17.016-11.978-19.446-17.5S139.174,211.547,131.691,224.931Z" transform="translate(-78.424 -82.477)" fill="#94a3c0"/>
</svg>
