<svg id="Group_1211" data-name="Group 1211" xmlns="http://www.w3.org/2000/svg" width="38.708" height="43.965" viewBox="0 0 38.708 43.965">
  <g id="Group_1207" data-name="Group 1207">
    <path id="Path_4898" data-name="Path 4898" d="M288.336,100.571v1.824a1.4,1.4,0,0,1-2.094,1.212l-8.619-4.966a1.4,1.4,0,0,1-.7-1.211V95.606a1.4,1.4,0,0,1,2.094-1.211l8.62,4.965A1.4,1.4,0,0,1,288.336,100.571Z" transform="translate(-276.923 -94.207)" fill="#1ce5ff"/>
  </g>
  <g id="Group_1208" data-name="Group 1208" transform="translate(0.001 9.075)">
    <path id="Path_4899" data-name="Path 4899" d="M315.631,122.737v1.828a1.4,1.4,0,0,1-2.093,1.212L277.627,105.19a1.4,1.4,0,0,1-.7-1.211V102.15a1.4,1.4,0,0,1,2.093-1.212l35.911,20.587A1.4,1.4,0,0,1,315.631,122.737Z" transform="translate(-276.924 -100.751)" fill="#1ce5ff"/>
  </g>
  <g id="Group_1209" data-name="Group 1209" transform="translate(0.007 27.239)" opacity="0.53">
    <path id="Path_4900" data-name="Path 4900" d="M300.827,127.347v1.828a1.4,1.4,0,0,1-2.093,1.212l-21.106-12.1a1.4,1.4,0,0,1-.7-1.212v-1.828a1.4,1.4,0,0,1,2.091-1.212l21.106,12.1A1.4,1.4,0,0,1,300.827,127.347Z" transform="translate(-276.928 -113.849)" fill="#1ce5ff"/>
  </g>
  <g id="Group_1210" data-name="Group 1210" transform="translate(0.004 18.157)">
    <path id="Path_4901" data-name="Path 4901" d="M310.063,126.092v1.829a1.4,1.4,0,0,1-2.093,1.212l-30.343-17.395a1.4,1.4,0,0,1-.7-1.212V108.7a1.4,1.4,0,0,1,2.091-1.212l30.343,17.395A1.4,1.4,0,0,1,310.063,126.092Z" transform="translate(-276.926 -107.3)" fill="#1ce5ff"/>
  </g>
</svg>
