<svg id="Group_1175" data-name="Group 1175" xmlns="http://www.w3.org/2000/svg" width="44.107" height="81.563" viewBox="0 0 44.107 81.563">
  <g id="Group_1168" data-name="Group 1168">
    <g id="Group_1164" data-name="Group 1164">
      <path id="Path_4860" data-name="Path 4860" d="M238.657,134.2a11.149,11.149,0,0,1,5.053,8.753l-.055,48.941c-.008,3.212-2.291,4.513-5.087,2.9l-13.647-7.88-.664.925-2.663,3.75-2.642-6.812-.656-1.688-13.647-7.88a11.135,11.135,0,0,1-5.045-8.748l.054-48.941c.01-3.213,2.283-4.518,5.078-2.9Z" transform="translate(-199.603 -113.92)" fill="#58affb"/>
    </g>
    <g id="Group_1167" data-name="Group 1167" transform="translate(6.763 15.974)">
      <g id="Group_1165" data-name="Group 1165" transform="translate(0.019)">
        <path id="Path_4861" data-name="Path 4861" d="M213.1,130.267l0,1.377a1.055,1.055,0,0,1-1.584.91l-6.5-3.769a1.054,1.054,0,0,1-.524-.915l0-1.377a1.055,1.055,0,0,1,1.585-.91l6.5,3.769A1.054,1.054,0,0,1,213.1,130.267Z" transform="translate(-204.494 -125.438)" fill="#fff"/>
      </g>
      <g id="Group_1166" data-name="Group 1166" transform="translate(0 6.852)">
        <path id="Path_4862" data-name="Path 4862" d="M233.658,147.065l0,1.38a1.055,1.055,0,0,1-1.582.911l-27.065-15.626a1.056,1.056,0,0,1-.527-.917l0-1.38a1.055,1.055,0,0,1,1.582-.911l27.066,15.626A1.053,1.053,0,0,1,233.658,147.065Z" transform="translate(-204.48 -130.379)" fill="#adcdfc"/>
      </g>
    </g>
  </g>
  <g id="Group_1174" data-name="Group 1174" transform="translate(7.376 35.294)">
    <g id="Group_1169" data-name="Group 1169">
      <path id="Path_4863" data-name="Path 4863" d="M211.3,143.047l0,1.579-3.665,12.514-1.57-.906,3.649-12.488-4.786-2.763,0-1.613Z" transform="translate(-204.922 -139.369)" fill="#fff"/>
    </g>
    <g id="Group_1170" data-name="Group 1170" transform="translate(7.79 4.777)">
      <path id="Path_4864" data-name="Path 4864" d="M216.567,146.012l-.006,1.613-4.135-2.388-.241,4.848c.456-.623,1.151-.673,2.1-.125,1.811,1.047,2.607,3.036,2.6,5.342l-.008,3.158c-.007,2.481-1.039,3.5-3.181,2.263a6.5,6.5,0,0,1-3.159-5.924l0-1.075,1.48.854,0,1.2a3.533,3.533,0,0,0,1.639,3.291c1.118.645,1.649.065,1.653-1.391l.008-3.14a3.55,3.55,0,0,0-1.639-3.292c-.86-.5-1.451-.282-1.589.82v.365l-1.48-.854.419-8.759Z" transform="translate(-210.539 -142.814)" fill="#fff"/>
    </g>
    <g id="Group_1171" data-name="Group 1171" transform="translate(22.475 19.794)">
      <path id="Path_4865" data-name="Path 4865" d="M223.172,153.979a4.1,4.1,0,0,1,2,3.744l-.014,5.083c-.006,1.578-.627,2.262-2.016,1.46a4.169,4.169,0,0,1-2.015-3.787l.014-5.083C221.147,153.852,221.8,153.185,223.172,153.979Zm.975,8.347.015-5.256a2.189,2.189,0,0,0-.993-2.033c-.709-.409-1.012-.011-1.015.874l-.015,5.256a2.235,2.235,0,0,0,1.008,2.058c.693.4,1-.032,1-.9" transform="translate(-221.128 -153.643)" fill="#fff"/>
    </g>
    <g id="Group_1172" data-name="Group 1172" transform="translate(15.578 9.749)">
      <path id="Path_4866" data-name="Path 4866" d="M220.185,155.614c0,1.56-.656,2.227-2.03,1.434a4.15,4.15,0,0,1-2-3.762l.014-5.117c0-1.544.656-2.227,2.015-1.442A4.176,4.176,0,0,1,220.2,150.5Zm-1.011-.5.014-5.274a2.237,2.237,0,0,0-1.007-2.058c-.725-.419-1,.032-1,.9l-.015,5.273a2.148,2.148,0,0,0,.992,2.033c.71.409,1.014.011,1.017-.874" transform="translate(-216.155 -146.399)" fill="#fff"/>
    </g>
    <g id="Group_1173" data-name="Group 1173" transform="translate(17.727 13.466)">
      <path id="Path_4867" data-name="Path 4867" d="M223.306,149.08l.936.54-5.586,12.986-.951-.549Z" transform="translate(-217.705 -149.08)" fill="#fff"/>
    </g>
  </g>
</svg>
