<svg id="Group_1245" data-name="Group 1245" xmlns="http://www.w3.org/2000/svg" width="216.501" height="292.987" viewBox="0 0 216.501 292.987">
  <g id="Group_1225" data-name="Group 1225" transform="translate(0 18.647)">
    <g id="Group_1218" data-name="Group 1218">
      <path id="Path_4905" data-name="Path 4905" d="M252.612,242.9l44.05,44.964,42.782-11.123-44.05-44.964Z" transform="translate(-252.612 -231.776)" fill="#fff"/>
    </g>
    <g id="Group_1224" data-name="Group 1224" transform="translate(21.989 9.553)">
      <g id="Group_1222" data-name="Group 1222" transform="translate(3.705)">
        <g id="Group_1219" data-name="Group 1219" transform="translate(1.272)">
          <path id="Path_4906" data-name="Path 4906" d="M292.387,242.989l-4.217,1.6a14.07,14.07,0,0,0-12.39-1.958c-.076.029-.148.06-.223.09l-3.5-2.879c.075-.031.15-.061.227-.089C278.336,237.46,287.283,238.915,292.387,242.989Z" transform="translate(-272.057 -238.665)" fill="#e2edff"/>
        </g>
        <g id="Group_1220" data-name="Group 1220" transform="translate(17.913 4.773)">
          <path id="Path_4907" data-name="Path 4907" d="M288.281,242.107c4.092,3.621,3.855,7.962-.3,10.492l-3.607-2.968c1.907-1.567,1.862-3.914-.313-5.929Z" transform="translate(-284.057 -242.107)" fill="#e2edff"/>
        </g>
        <g id="Group_1221" data-name="Group 1221" transform="translate(0 11.548)">
          <path id="Path_4908" data-name="Path 4908" d="M292.409,251.03a12.626,12.626,0,0,1-1.39.623c-5.966,2.255-14.74.876-19.88-3.065l4.223-1.6a14.124,14.124,0,0,0,12.159,1.783,7.03,7.03,0,0,0,1.337-.666Z" transform="translate(-271.14 -246.992)" fill="#3eabff"/>
        </g>
      </g>
      <g id="Group_1223" data-name="Group 1223" transform="translate(0 1.441)">
        <path id="Path_4909" data-name="Path 4909" d="M276.335,242.6c-2.957,1.542-3.22,4.411-.494,6.77l-4.217,1.6c-4.657-3.951-4.079-8.823,1.194-11.261Z" transform="translate(-268.468 -239.704)" fill="#3eabff"/>
      </g>
    </g>
  </g>
  <g id="Group_1229" data-name="Group 1229" transform="translate(41.324 153.474)">
    <g id="Group_1226" data-name="Group 1226" transform="translate(0 95.165)">
      <path id="Path_4910" data-name="Path 4910" d="M284.012,400.173s-3.454,2.374-.216,7.987,6.045,2.159,13.384,7.772,9.929,6.691,13.815,6.26,6.261-2.374,6.909-4.533-1.3-5.829-1.3-5.829Z" transform="translate(-282.41 -396.634)" fill="#94a3c0"/>
      <path id="Path_4911" data-name="Path 4911" d="M314.829,401.375s1.512,7.34,2.374,12.953c.216,2.591-3.238,6.116-8.2,5.9s-7.772-1.728-9.5-3.886-12.52-6.332-14.463-8.06-2.376-6.908-1.512-8.2a6.517,6.517,0,0,1,7.555-1.943c3.454,1.512,6.26,4.317,13.169,4.75S314.829,401.375,314.829,401.375Z" transform="translate(-282.142 -397.621)" fill="#382747"/>
    </g>
    <g id="Group_1228" data-name="Group 1228" transform="translate(34.251 0.956)">
      <g id="Group_1227" data-name="Group 1227" transform="translate(0 75.5)">
        <path id="Path_4912" data-name="Path 4912" d="M308.71,386.682s-3.455,2.374-.216,7.987,6.045,2.159,13.384,7.772,9.931,6.693,13.817,6.26,6.26-2.374,6.908-4.533-1.3-5.827-1.3-5.827Z" transform="translate(-307.108 -383.143)" fill="#94a3c0"/>
        <path id="Path_4913" data-name="Path 4913" d="M339.526,387.884s1.512,7.34,2.376,12.953c.215,2.591-3.238,6.117-8.2,5.9s-7.77-1.727-9.5-3.886-12.52-6.332-14.463-8.059-2.374-6.909-1.512-8.2a6.517,6.517,0,0,1,7.557-1.943c3.453,1.51,6.26,4.317,13.168,4.748S339.526,387.884,339.526,387.884Z" transform="translate(-306.84 -384.13)" fill="#382747"/>
      </g>
      <path id="Path_4914" data-name="Path 4914" d="M311.564,349.218c1.728,13.815,8.636,50.083,9.787,62.747,0,0,2.879,4.606,11.513,3.453l4.1-1.707a3.972,3.972,0,0,0,2.421-4.159c-.868-6.984-2.822-24.57-1.914-35.006,1.151-13.24-2.3-21.3-2.3-21.3.289-4.317.864-19.285-7.77-23.315,0,0-21.156-3.886-15.832,19.285" transform="translate(-305.717 -329.688)" fill="#14347c"/>
    </g>
    <path id="Path_4915" data-name="Path 4915" d="M338.518,336.532l-2.3,4.606s-35.4,1.727-44.9,12.089c0,0-6.332,1.151-4.606,14.968s8.634,50.081,9.787,62.746c0,0,2.878,4.606,11.513,3.454l4.1-1.707a3.972,3.972,0,0,0,2.421-4.159c-.868-6.984-2.822-24.57-1.915-35.006,1.152-13.24-2.3-21.3-2.3-21.3a180.953,180.953,0,0,1,32.237,9.787c16.693,6.908,31.085-1.151,37.417-4.605s8.634-5.757,8.634-5.757a26.326,26.326,0,0,0,15.543-6.332c7.483-6.332,8.636-23.026.576-32.812S338.518,336.532,338.518,336.532Z" transform="translate(-280.863 -328.999)" fill="#18388f"/>
  </g>
  <g id="Group_1231" data-name="Group 1231" transform="translate(97.465 50.195)">
    <path id="Path_4916" data-name="Path 4916" d="M333.117,277.838s5.721-2.12,5.345-9.762c-1.736-7.525-3.836-8.032-3.836-8.032s8-7.394,17.657-5.065c0,0,5.962,12.1,12.706,17.279C364.988,272.259,359.6,286.474,333.117,277.838Z" transform="translate(-318.938 -254.526)" fill="#ce7c56"/>
    <g id="Group_1230" data-name="Group 1230" transform="translate(0 9.209)">
      <path id="Path_4917" data-name="Path 4917" d="M347.4,279.525s21.156-17.7,25.474-18.134c5.18-.431,11.656,1.3,13.384,8.636a13.556,13.556,0,0,1-6.045,15.111c-3.886,2.159-37.993,18.565-44.038,18.565s-9.929-5.181-6.045-11.657S347.4,279.525,347.4,279.525Z" transform="translate(-320.698 -261.103)" fill="#e2a029"/>
      <path id="Path_4918" data-name="Path 4918" d="M356.068,266.819s-22.451,7.483-28.783,17.845-5.181,21.875-.576,37.994-4.606,30.509-2.3,39.144,18.421,16.694,42.023,12.666,25.328-13.241,27.056-18.422-4.606-29.934,1.151-50.081S388.881,272,384.275,268.545,370.46,260.487,356.068,266.819Z" transform="translate(-322.893 -260.198)" fill="#ffbe3d"/>
      <path id="Path_4919" data-name="Path 4919" d="M383.98,268.545c-4.606-3.453-13.815-8.059-28.207-1.727,0,0-22.451,7.483-28.783,17.845a29.077,29.077,0,0,0-3.334,7.787c9.09-11.815,21.992-17,30.39,3.151,7.838,18.811-12.1,74.1-29.525,56.716-.734,3.626-1.118,6.83-.409,9.484,2.3,8.635,18.421,16.694,42.023,12.666s25.328-13.241,27.056-18.422-4.605-29.934,1.151-50.081S388.586,272,383.98,268.545Z" transform="translate(-322.598 -260.198)" fill="#e2a029"/>
      <path id="Path_4920" data-name="Path 4920" d="M331.353,277.573s6.044,3.886,21.156,1.727,15.974-12.953,14.679-13.815-3.886-4.319-3.886-4.319-15.974,7.34-21.587,9.5-8.636,3.453-8.636,3.453Z" transform="translate(-319.62 -261.166)" fill="#fff"/>
    </g>
  </g>
  <g id="Group_1232" data-name="Group 1232" transform="translate(96.931)">
    <path id="Path_4921" data-name="Path 4921" d="M324.213,245.491s-1.3,15.542,6.909,25.9,16.406,4.317,21.587,1.727,7.339-6.908,9.067-19.428,1.727-24.61-7.34-28.5-19-4.748-24.609,4.75S324.213,245.491,324.213,245.491Z" transform="translate(-321.877 -216.739)" fill="#ffaa83"/>
    <path id="Path_4922" data-name="Path 4922" d="M330.888,228.517s-7.34,5.612-6.908,13.815-2.159,9.5-1.3,13.815,7.772,5.614,8.2,11.657,9.5,8.2,14.248,9.929,12.52-3.884,14.679-6.908,1.727-10.793,4.317-17.7,1.3-15.543-.864-21.587-6.476-7.34-6.476-7.34a10.527,10.527,0,0,0-7.339-5.612C344.272,217.722,328.3,218.586,330.888,228.517Z" transform="translate(-322.508 -218.331)" fill="#4d2c63"/>
  </g>
  <g id="Group_1243" data-name="Group 1243" transform="translate(65.788 97.824)">
    <g id="Group_1242" data-name="Group 1242">
      <g id="Group_1241" data-name="Group 1241" transform="translate(26.169 126.839)">
        <g id="Group_1235" data-name="Group 1235" transform="translate(0 15.556)">
          <g id="Group_1234" data-name="Group 1234">
            <path id="Path_4923" data-name="Path 4923" d="M401.466,410.176c-.784,8.712-8.982,14.628-16.378,17.815a62.874,62.874,0,0,1-25.652,4.76,61.044,61.044,0,0,1-26.07-5.779c-7.019-3.453-14.468-9.719-14.445-18.239-.017,6.2.417,11.332,4.888,16.176,5.757,6.236,14.423,9.6,22.574,11.277,15.905,3.284,37.56,1.7,49.642-10.547,4.861-4.926,5.525-10.118,5.543-16.671Q401.544,409.575,401.466,410.176Z" transform="translate(-318.921 -384.904)" fill="#adcdfc"/>
            <g id="Group_1233" data-name="Group 1233" transform="translate(0)">
              <path id="Path_4924" data-name="Path 4924" d="M389.36,398.559c16.189,9.347,16.294,24.5.209,33.852s-42.271,9.347-58.46,0-16.256-24.5-.171-33.85S373.171,389.213,389.36,398.559Z" transform="translate(-318.921 -391.55)" fill="#e2edff"/>
            </g>
          </g>
        </g>
        <g id="Group_1240" data-name="Group 1240" transform="translate(35.904)">
          <g id="Group_1239" data-name="Group 1239">
            <g id="Group_1236" data-name="Group 1236" transform="translate(6.361 3.672)">
              <path id="Path_4925" data-name="Path 4925" d="M355.819,382.98l-.1,36.123-6.319,3.672.1-36.122Z" transform="translate(-349.397 -382.98)" fill="#c7d8f2"/>
            </g>
            <g id="Group_1237" data-name="Group 1237" transform="translate(0 3.673)">
              <path id="Path_4926" data-name="Path 4926" d="M351.274,386.653l-.1,36.122-6.361-3.672.1-36.123Z" transform="translate(-344.811 -382.98)" fill="#7baeff"/>
            </g>
            <g id="Group_1238" data-name="Group 1238" transform="translate(0.102)">
              <path id="Path_4927" data-name="Path 4927" d="M357.565,384l-6.32,3.673L344.885,384l6.32-3.672Z" transform="translate(-344.885 -380.332)" fill="#4da5dc"/>
            </g>
          </g>
        </g>
      </g>
      <path id="Path_4928" data-name="Path 4928" d="M448.578,296.047a7.429,7.429,0,0,0-9.879-6.752c-20.651,7.245-67.979,24.4-71.021,30.479-2.9,5.8-12.261,38.169-16.87,54.386a7.428,7.428,0,0,1-10.928,4.357l-28.607-16.87a7.438,7.438,0,0,0-11.115,7.63l4.593,27.557a7.442,7.442,0,0,0,3.632,5.227l30.608,17.583a58.853,58.853,0,0,0,55.64,1.607l23.6-11.8a58.857,58.857,0,0,0,32.5-54.8Z" transform="translate(-300.051 -288.87)" fill="#3278cc"/>
    </g>
    <path id="Path_4929" data-name="Path 4929" d="M367.678,311.528c-2.9,5.8-12.261,38.169-16.87,54.386a7.428,7.428,0,0,1-10.928,4.357L311.273,353.4a7.438,7.438,0,0,0-11.115,7.63l4.593,27.557a7.362,7.362,0,0,0,.582,1.831q.547.861,1.105,1.717a7.372,7.372,0,0,0,1.944,1.679L338.991,411.4a58.784,58.784,0,0,0,20.7,7.181c24.828-19.264,21.7-99.679,12.695-106.431a12.435,12.435,0,0,0-3.546-1.96A4.86,4.86,0,0,0,367.678,311.528Z" transform="translate(-300.051 -280.624)" fill="#3aaeef"/>
  </g>
  <g id="Group_1244" data-name="Group 1244" transform="translate(21.704 53.265)">
    <path id="Path_4930" data-name="Path 4930" d="M314.19,298.619s21.154-17.7,25.473-18.132c5.181-.433,11.656,1.3,13.384,8.634A13.554,13.554,0,0,1,347,304.231c-3.886,2.159-37.993,18.565-44.038,18.565s-9.929-5.181-6.044-11.656S314.19,298.619,314.19,298.619Z" transform="translate(-257.781 -247.578)" fill="#ffbe3d"/>
    <path id="Path_4931" data-name="Path 4931" d="M294.88,279.717a15.535,15.535,0,0,1-1.3-3.669c-.215-1.512.648-3.454-.215-6.908s-2.376-6.476-3.023-8.851c-1.727-2.159-3.238,1.727-1.943,4.965s.864,5.181-.431,5.4-6.691-3.022-8.2-4.748-10.146-10.146-11.01-9.067-.864,2.159,2.159,5.4,4.1,4.748,4.317,5.612a14.3,14.3,0,0,0,1.079,4.317c1.08,2.591.216,4.317,2.159,6.691s5.612,2.807,7.339,4.319l1.728,1.51Z" transform="translate(-268.263 -256.739)" fill="#ffaa83"/>
    <path id="Path_4932" data-name="Path 4932" d="M308.75,326.073s-9.067,1.728-13.959-8.347-13.24-37.13-14.391-39.719c0,0,2.878-6.332,10.074-6.045,0,0,8.059,15.83,12.664,23.026S324.149,323.2,308.75,326.073Z" transform="translate(-263.568 -250.855)" fill="#ffbe3d"/>
  </g>
</svg>
