<svg id="Group_1113" data-name="Group 1113" xmlns="http://www.w3.org/2000/svg" width="445.092" height="286.001" viewBox="0 0 445.092 286.001">
  <g id="Group_1109" data-name="Group 1109" transform="translate(161.373 180.341)">
    <g id="Group_1108" data-name="Group 1108">
      <g id="Group_1104" data-name="Group 1104" transform="translate(15.462 8.927)">
        <path id="Path_4823" data-name="Path 4823" d="M220.1,301.7l-.249,87.807-15.361,8.927.249-87.807Z" transform="translate(-204.487 -301.697)" fill="#c7d8f2"/>
      </g>
      <g id="Group_1106" data-name="Group 1106" transform="translate(0 8.927)">
        <g id="Group_1105" data-name="Group 1105">
          <path id="Path_4824" data-name="Path 4824" d="M209.048,310.624l-.249,87.807L193.338,389.5l.249-87.807Z" transform="translate(-193.338 -301.697)" fill="#7baeff"/>
        </g>
      </g>
      <g id="Group_1107" data-name="Group 1107" transform="translate(0.249)">
        <path id="Path_4825" data-name="Path 4825" d="M224.34,304.187l-15.361,8.927-15.462-8.927,15.361-8.927Z" transform="translate(-193.517 -295.26)" fill="#4da5dc"/>
      </g>
    </g>
  </g>
  <g id="Group_1112" data-name="Group 1112">
    <path id="Path_4826" data-name="Path 4826" d="M460.7,258.526c-.022.255-.04.51-.087.766-.039.209-.1.416-.157.625-.064.243-.122.485-.208.725-.071.2-.165.4-.251.595-.111.255-.22.509-.355.759-.1.183-.216.362-.327.542-.176.286-.363.57-.573.85s-.41.539-.643.8c-.054.062-.1.126-.159.187-.315.343-.66.678-1.026,1.008-.234.211-.5.415-.75.618-.225.18-.44.363-.681.538-.276.2-.58.392-.878.585s-.6.4-.925.595L256.17,382.5a27.572,27.572,0,0,1-5.341,2.348,35.328,35.328,0,0,1-4.614,1.15q-1.533.275-3.108.433c-.9.089-1.8.148-2.7.18q-1.246.042-2.5.011-1.2-.029-2.4-.129l-.04,14.077q1.2.1,2.4.129,1.248.031,2.5-.011,1.358-.046,2.7-.18c1.048-.1,2.087-.248,3.108-.433a35.263,35.263,0,0,0,4.614-1.15,27.494,27.494,0,0,0,5.341-2.348L453.639,281.8c.1-.058.2-.117.3-.176.222-.133.412-.277.623-.415.3-.2.606-.388.883-.589.24-.175.455-.356.678-.537.257-.205.517-.409.752-.62.047-.043.1-.082.15-.125.313-.288.6-.584.875-.882.058-.062.107-.126.162-.19.162-.183.327-.366.474-.553.065-.08.107-.166.168-.248.209-.28.4-.564.573-.85.075-.121.172-.236.241-.358.033-.06.053-.123.086-.184.134-.25.244-.5.355-.757.065-.148.151-.294.208-.444.018-.05.025-.1.043-.151.086-.243.146-.485.209-.729.043-.164.108-.326.141-.491.008-.043.007-.087.014-.13.047-.257.065-.512.089-.768.014-.166.051-.333.057-.5,0-.072,0-.143,0-.215l.04-14.077C460.761,258.049,460.722,258.287,460.7,258.526Z" transform="translate(-15.669 -129.405)" fill="#adcdfc"/>
    <path id="Path_4827" data-name="Path 4827" d="M294.443,386.268c-.814-.115-1.621-.255-2.416-.42q-1.294-.268-2.542-.623c-1.017-.29-2.005-.623-2.959-1a26.525,26.525,0,0,1-3.516-1.686L84.209,267.762c-4.805-2.774-7.2-6.415-7.195-10.051l-.04,14.077c-.01,3.636,2.389,7.278,7.195,10.053l198.8,114.777a26.533,26.533,0,0,0,3.516,1.686c.954.376,1.943.709,2.959,1q1.246.356,2.542.624,1.192.245,2.417.42c.782.111,1.574.2,2.369.263l.04-14.077Q295.619,386.435,294.443,386.268Z" transform="translate(-76.974 -129.443)" fill="#adcdfc"/>
    <g id="Group_1111" data-name="Group 1111" transform="translate(0.04)">
      <g id="Group_1110" data-name="Group 1110">
        <path id="Path_4828" data-name="Path 4828" d="M514.86,284.13c9.549,5.514,9.6,14.452.112,19.964L317.463,418.874c-9.486,5.512-24.917,5.512-34.465,0L84.2,304.1c-9.548-5.513-9.6-14.45-.112-19.963L281.594,169.353c9.487-5.513,24.917-5.513,34.466,0Z" transform="translate(-77.003 -165.219)" fill="#e2edff"/>
      </g>
    </g>
  </g>
</svg>
