<svg id="Group_1162" data-name="Group 1162" xmlns="http://www.w3.org/2000/svg" width="140.683" height="74.476" viewBox="0 0 140.683 74.476">
  <g id="Group_1150" data-name="Group 1150" transform="translate(39.53 29.18)">
    <g id="Group_1141" data-name="Group 1141" transform="translate(29.486)">
      <g id="Group_1138" data-name="Group 1138" transform="translate(64.116 37.017)">
        <path id="Path_4844" data-name="Path 4844" d="M216.712,291.463l-.009,3.27-7.541,4.382.009-3.269Z" transform="translate(-209.162 -291.463)" fill="#540cc7"/>
      </g>
      <g id="Group_1139" data-name="Group 1139" transform="translate(0 4.382)">
        <path id="Path_4845" data-name="Path 4845" d="M227.054,304.947l-.009,3.269L162.929,271.2l.009-3.269Z" transform="translate(-162.929 -267.93)" fill="#3f0995"/>
      </g>
      <g id="Group_1140" data-name="Group 1140" transform="translate(0.009)">
        <path id="Path_4846" data-name="Path 4846" d="M234.592,301.787l-7.541,4.382-64.116-37.017,7.541-4.382Z" transform="translate(-162.936 -264.77)" fill="#7974f5"/>
      </g>
    </g>
    <g id="Group_1145" data-name="Group 1145" transform="translate(14.746 8.569)">
      <g id="Group_1142" data-name="Group 1142" transform="translate(50.364 29.078)">
        <path id="Path_4847" data-name="Path 4847" d="M196.162,291.917l-.009,3.269-7.536,4.379.009-3.269Z" transform="translate(-188.617 -291.917)" fill="#2689fd"/>
      </g>
      <g id="Group_1143" data-name="Group 1143" transform="translate(0 4.379)">
        <path id="Path_4848" data-name="Path 4848" d="M202.674,303.185l-.009,3.269L152.3,277.377l.009-3.269Z" transform="translate(-152.3 -274.107)" fill="#3548db"/>
      </g>
      <g id="Group_1144" data-name="Group 1144" transform="translate(0.009)">
        <path id="Path_4849" data-name="Path 4849" d="M210.207,300.027l-7.536,4.379-50.364-29.078,7.536-4.379Z" transform="translate(-152.307 -270.949)" fill="#58affb"/>
      </g>
    </g>
    <g id="Group_1149" data-name="Group 1149" transform="translate(0 17.138)">
      <g id="Group_1146" data-name="Group 1146" transform="translate(23.047 13.306)">
        <path id="Path_4850" data-name="Path 4850" d="M165.831,286.723l-.009,3.27-7.536,4.379.009-3.27Z" transform="translate(-158.286 -286.723)" fill="#ee2c6a"/>
      </g>
      <g id="Group_1147" data-name="Group 1147" transform="translate(0 4.379)">
        <path id="Path_4851" data-name="Path 4851" d="M164.723,293.592l-.009,3.27-23.047-13.306.009-3.269Z" transform="translate(-141.667 -280.286)" fill="#ee428c"/>
      </g>
      <g id="Group_1148" data-name="Group 1148" transform="translate(0.009)">
        <path id="Path_4852" data-name="Path 4852" d="M172.256,290.434l-7.536,4.379-23.047-13.306,7.536-4.379Z" transform="translate(-141.674 -277.129)" fill="#ff3d9d"/>
      </g>
    </g>
  </g>
  <g id="Group_1155" data-name="Group 1155" transform="translate(18.689 19.131)">
    <g id="Group_1154" data-name="Group 1154">
      <g id="Group_1151" data-name="Group 1151">
        <path id="Path_4853" data-name="Path 4853" d="M127.206,279.958c-.752.434-.756,1.126-.008,1.56a2.945,2.945,0,0,0,2.692,0l38.294-22.11c.753-.434.756-1.125.01-1.559a2.948,2.948,0,0,0-2.693,0Z" transform="translate(-126.64 -257.524)" fill="#adcdfc"/>
      </g>
      <g id="Group_1152" data-name="Group 1152" transform="translate(26.466 2.567)">
        <path id="Path_4854" data-name="Path 4854" d="M146.28,269.081a.826.826,0,0,0-.008,1.559,3,3,0,0,0,2.707.008l16.25-9.382a.828.828,0,0,0-.006-1.568,2.973,2.973,0,0,0-2.693,0Z" transform="translate(-145.724 -259.375)" fill="#adcdfc"/>
      </g>
      <g id="Group_1153" data-name="Group 1153" transform="translate(21.409 4.969)">
        <path id="Path_4855" data-name="Path 4855" d="M142.651,276.112c-.752.434-.77,1.134-.022,1.568a2.974,2.974,0,0,0,2.706-.008l25.428-14.681c.752-.434.754-1.125.008-1.559a2.947,2.947,0,0,0-2.693,0Z" transform="translate(-142.078 -261.107)" fill="#adcdfc"/>
      </g>
    </g>
  </g>
  <g id="Group_1161" data-name="Group 1161">
    <g id="Group_1159" data-name="Group 1159" transform="translate(6.263)">
      <g id="Group_1156" data-name="Group 1156">
        <path id="Path_4856" data-name="Path 4856" d="M149.79,247.415l-6.085,3.536c-5.524-3.015-14.2-2.964-19.577.159-.111.065-.215.132-.322.2l-6.127-3.538c.108-.065.215-.13.326-.2C126.739,242.5,140.886,242.448,149.79,247.415Z" transform="translate(-117.679 -243.729)" fill="#7cccff"/>
      </g>
      <g id="Group_1157" data-name="Group 1157" transform="translate(26.957 4.24)">
        <path id="Path_4857" data-name="Path 4857" d="M143.211,246.786c7.229,4.527,7.977,11.27,2.223,16.234l-6.315-3.646c2.534-2.9,1.865-6.5-2-9.047Z" transform="translate(-137.117 -246.786)" fill="#7cccff"/>
      </g>
      <g id="Group_1158" data-name="Group 1158" transform="translate(1.109 17.524)">
        <path id="Path_4858" data-name="Path 4858" d="M151.855,259.953a19.694,19.694,0,0,1-1.98,1.315c-8.608,5-22.47,5.126-31.4.374l6.092-3.539c5.535,2.8,13.935,2.679,19.182-.37a10.972,10.972,0,0,0,1.887-1.367Z" transform="translate(-118.479 -256.365)" fill="#3eabff"/>
      </g>
    </g>
    <g id="Group_1160" data-name="Group 1160" transform="translate(0 4.617)">
      <path id="Path_4859" data-name="Path 4859" d="M124.686,250.612c-4.158,3.131-3.828,7.619.976,10.552l-6.087,3.536c-8.181-4.89-8.54-12.539-1.046-17.643Z" transform="translate(-113.163 -247.058)" fill="#3eabff"/>
    </g>
  </g>
</svg>
