<svg id="Group_1187" data-name="Group 1187" xmlns="http://www.w3.org/2000/svg" width="82.647" height="57.522" viewBox="0 0 82.647 57.522">
  <g id="Group_1177" data-name="Group 1177" transform="translate(0 9.651)">
    <g id="Group_1176" data-name="Group 1176">
      <path id="Path_4868" data-name="Path 4868" d="M292.02,203.671c16.189,9.347,16.293,24.5.209,33.852s-42.271,9.347-58.46,0-16.256-24.5-.172-33.852S275.831,194.324,292.02,203.671Z" transform="translate(-221.581 -196.661)" fill="#adcdfc"/>
    </g>
  </g>
  <g id="Group_1186" data-name="Group 1186" transform="translate(4.009)">
    <g id="Group_1178" data-name="Group 1178" transform="translate(56.504 6.648)">
      <path id="Path_4869" data-name="Path 4869" d="M275.523,194.5l-.017,5.951-10.29,5.98.017-5.951Z" transform="translate(-265.217 -194.495)" fill="#cc096a"/>
    </g>
    <path id="Path_4870" data-name="Path 4870" d="M245.825,204.439c.072-.028.14-.058.211-.086.576-.219,1.166-.416,1.765-.6.413-.13.839-.245,1.262-.361.323-.087.642-.182.969-.261.447-.108.9-.2,1.355-.29.333-.067.66-.143,1-.2.137-.024.276-.043.413-.065q.847-.139,1.7-.241c.166-.019.331-.042.5-.06.661-.071,1.327-.128,2-.166l.37-.019c.449-.022.9-.029,1.348-.037s.9-.011,1.348-.006c.376,0,.752.017,1.126.031q.624.025,1.247.067.568.042,1.134.1.618.058,1.229.137c.368.046.734.1,1.1.155.438.068.871.144,1.3.226.452.086.906.172,1.351.273l.32.072c.627.15,1.244.318,1.851.5.175.051.345.107.519.161q.757.239,1.492.51c.143.053.288.1.43.157.444.172.874.363,1.3.553.212.094.43.179.638.277.62.294,1.223.606,1.8.942l.017-6.941c-.58-.336-1.183-.648-1.8-.942-.205-.1-.422-.183-.632-.276-.367-.164-.729-.333-1.109-.483-.065-.026-.133-.047-.2-.073-.14-.054-.284-.1-.427-.155q-.734-.273-1.494-.51c-.173-.054-.344-.11-.519-.161-.116-.035-.229-.075-.347-.108-.5-.141-1-.268-1.5-.39-.105-.025-.214-.047-.32-.072-.245-.055-.491-.115-.739-.166-.2-.042-.409-.068-.612-.107-.433-.082-.865-.158-1.3-.226-.175-.028-.345-.067-.521-.092-.191-.026-.386-.04-.577-.064-.408-.053-.817-.1-1.227-.137-.2-.019-.39-.05-.587-.065-.182-.015-.366-.018-.549-.031-.415-.028-.829-.05-1.247-.067-.208-.008-.416-.028-.625-.033-.166,0-.333.006-.5,0-.449-.006-.9,0-1.347.006-.223,0-.447,0-.67,0s-.453.022-.68.033c-.123.007-.247.011-.37.019-.56.033-1.12.073-1.677.129-.107.01-.212.026-.319.037-.166.018-.331.04-.5.06q-.857.1-1.7.241c-.139.022-.279.042-.416.067-.067.011-.135.019-.2.032-.268.047-.526.115-.79.168-.456.093-.913.183-1.359.291-.327.079-.645.172-.965.259-.426.117-.851.232-1.268.362-.089.028-.182.049-.27.078-.506.164-1,.341-1.494.527-.071.028-.139.058-.211.086-.537.209-1.059.435-1.573.671-.151.071-.3.141-.451.214-.569.275-1.126.56-1.659.871-.1.058-.2.118-.3.176s-.179.115-.269.171c-.151.094-.3.189-.448.284s-.262.175-.39.263-.282.194-.417.293-.244.183-.365.275-.259.2-.386.3-.227.187-.338.281-.239.207-.355.311c-.047.042-.1.083-.146.126s-.079.082-.122.122c-.194.183-.379.367-.556.555-.061.062-.123.125-.182.187-.225.245-.438.494-.637.743l-.028.032c-.046.058-.083.118-.128.175-.119.158-.237.316-.347.476-.06.087-.115.176-.172.265-.094.144-.184.288-.269.434-.024.04-.051.079-.073.119-.033.06-.061.119-.093.179-.065.123-.13.247-.19.37-.05.1-.1.205-.144.309-.055.123-.108.248-.158.373-.022.055-.049.111-.069.166s-.032.1-.05.15c-.043.119-.082.239-.118.358s-.065.215-.1.323-.06.24-.087.359c-.014.065-.033.129-.047.194-.008.043-.012.087-.019.132-.024.122-.042.244-.058.368-.015.108-.031.215-.042.323-.012.123-.019.247-.026.372,0,.072-.012.144-.015.216s0,1.133,0,1.205L235,216.192c0-.144.01-.288.018-.433.007-.125.014-.248.026-.372.011-.108.026-.216.042-.323.017-.123.035-.245.057-.368s.044-.218.068-.326.055-.24.087-.359.062-.216.1-.324.075-.237.116-.355.079-.212.121-.319c.05-.123.1-.248.157-.372.047-.1.094-.207.146-.311.06-.123.123-.245.19-.369.054-.1.108-.2.166-.3.085-.146.176-.29.269-.434.057-.089.112-.178.172-.265.11-.16.226-.318.347-.474.051-.069.1-.139.155-.208.2-.25.412-.5.637-.743.058-.062.121-.125.18-.187.179-.187.363-.372.558-.555.087-.083.176-.166.268-.248.115-.1.234-.207.354-.309s.225-.19.341-.283.254-.2.384-.3.24-.183.365-.275.275-.194.416-.291.258-.179.392-.266.3-.189.447-.283c.187-.117.373-.233.569-.347.533-.311,1.09-.6,1.659-.871.148-.072.3-.143.449-.212C244.765,204.875,245.288,204.649,245.825,204.439Z" transform="translate(-220.399 -187.616)" fill="#cc096a"/>
    <g id="Group_1179" data-name="Group 1179" transform="translate(11.567 32.763)">
      <path id="Path_4871" data-name="Path 4871" d="M243.119,213.327l-.017,5.951-10.29,5.98.017-5.951Z" transform="translate(-232.813 -213.327)" fill="#cc096a"/>
    </g>
    <path id="Path_4872" data-name="Path 4872" d="M224.472,211.938l.017-5.951c-.017,5.844,3.841,11.7,11.567,16.158l-.017,5.952C228.313,223.635,224.455,217.782,224.472,211.938Z" transform="translate(-224.472 -183.403)" fill="none"/>
    <g id="Group_1180" data-name="Group 1180" transform="translate(0 22.584)">
      <path id="Path_4873" data-name="Path 4873" d="M236.056,222.145l-.017,5.952c-7.726-4.461-11.584-10.315-11.567-16.159l.017-5.951c-.017,5.844,3.841,11.7,11.567,16.158" transform="translate(-224.472 -205.987)" fill="#cc096a"/>
    </g>
    <g id="Group_1181" data-name="Group 1181" transform="translate(0.018)">
      <path id="Path_4874" data-name="Path 4874" d="M291.277,196.349l-10.289,5.98c-9.63-5.56-25.194-5.56-34.761,0s-9.516,14.575.114,20.136l-10.29,5.978c-15.353-8.864-15.429-23.232-.18-32.093S275.924,187.485,291.277,196.349Z" transform="translate(-224.485 -189.702)" fill="#ff5668"/>
    </g>
    <path id="Path_4875" data-name="Path 4875" d="M265.234,200.121l-.017,4.13c4.843,2.8,7.261,6.467,7.252,10.133l.017-5.951C272.495,204.767,270.076,202.917,265.234,200.121Z" transform="translate(-208.712 -185.672)" fill="#3278cc"/>
    <g id="Group_1182" data-name="Group 1182" transform="translate(56.308 34.754)">
      <path id="Path_4876" data-name="Path 4876" d="M275.448,220.742l-.017,4.129-10.357-5.98.017-4.129Z" transform="translate(-265.075 -214.762)" fill="#3278cc"/>
    </g>
    <path id="Path_4877" data-name="Path 4877" d="M284.221,206.834c-.01.2-.022.4-.042.592-.018.172-.042.343-.065.513-.028.2-.056.392-.092.588-.032.173-.069.345-.108.517-.043.191-.089.383-.14.573-.046.173-.1.345-.151.517-.058.189-.121.379-.187.567-.061.169-.125.338-.191.506-.079.2-.162.4-.251.594-.074.165-.15.33-.23.5q-.146.3-.3.588c-.086.158-.173.318-.265.474-.135.233-.28.465-.43.7-.09.139-.178.28-.272.419-.175.255-.363.508-.555.759-.083.11-.159.22-.247.329-.316.4-.656.795-1.015,1.186-.093.1-.193.2-.288.3q-.424.445-.888.883c-.14.133-.282.265-.427.4-.184.166-.373.33-.566.494-.178.151-.355.3-.539.449-.2.162-.406.322-.614.481-.191.146-.384.293-.582.435-.215.158-.438.312-.663.467-.205.141-.412.283-.624.422-.232.153-.471.3-.711.451-.3.187-.595.373-.908.555-.1.06-.2.114-.305.173l-.017,5.951c.1-.06.2-.114.305-.173.161-.093.32-.187.478-.282s.283-.182.427-.27c.241-.151.481-.3.714-.453.212-.139.417-.28.623-.42.225-.155.448-.311.666-.469.2-.144.39-.29.581-.435.208-.159.415-.319.614-.481.183-.148.362-.3.539-.448.191-.165.381-.329.566-.5.075-.068.158-.133.232-.2s.128-.13.2-.194q.464-.437.888-.883c.1-.1.2-.2.287-.3.359-.391.7-.786,1.017-1.187.014-.017.03-.033.044-.05.072-.092.132-.186.2-.279.191-.251.379-.5.553-.759.1-.139.183-.28.273-.42.15-.23.294-.462.43-.693.038-.064.082-.126.118-.19.053-.094.1-.191.147-.286.105-.2.207-.39.3-.587.08-.165.158-.331.232-.5.089-.2.172-.4.25-.594.036-.089.079-.176.112-.266s.051-.16.08-.24c.067-.189.128-.377.187-.566.053-.173.105-.345.151-.519.051-.19.1-.381.139-.571.024-.1.055-.207.076-.309.014-.069.019-.14.032-.209.036-.194.065-.391.093-.587.024-.172.047-.343.065-.514.019-.2.031-.394.042-.591.007-.115.022-.232.025-.347s.006-.229.006-.344l.017-5.951C284.252,206.374,284.234,206.6,284.221,206.834Z" transform="translate(-205.878 -183.342)" fill="#3278cc"/>
    <g id="Group_1183" data-name="Group 1183" transform="translate(56.325 8.469)">
      <path id="Path_4878" data-name="Path 4878" d="M275.573,195.809c15.35,8.862,15.427,23.23.176,32.092-.1.06-.2.114-.305.172l-10.357-5.98c.1-.058.2-.112.305-.172,9.567-5.56,9.516-14.575-.108-20.132Z" transform="translate(-265.087 -195.809)" fill="#58affb"/>
    </g>
    <path id="Path_4879" data-name="Path 4879" d="M270.929,225.136c.429-.164.85-.336,1.27-.51.251-.105.5-.209.749-.318.445-.2.881-.4,1.313-.607.207-.1.416-.2.62-.3.628-.315,1.247-.641,1.849-.982l.017-1.327c-.6.341-1.219.667-1.847.982-.205.1-.416.2-.624.3-.431.208-.867.412-1.31.607-.247.108-.5.212-.749.318-.419.175-.843.347-1.27.51q-.393.152-.792.3-.657.239-1.329.46c-.281.093-.56.189-.845.279-.214.067-.43.13-.646.2q-.591.177-1.19.341c-.222.061-.444.122-.667.18-.422.11-.847.214-1.273.315-.2.047-.392.1-.591.14-.623.141-1.266.275-1.9.4v1.327c.632-.121,1.258-.254,1.882-.4.2-.044.391-.093.587-.139q.641-.152,1.276-.316c.223-.058.445-.119.667-.18.4-.11.795-.223,1.188-.341.216-.065.433-.129.648-.2.111-.036.225-.067.334-.1.172-.054.338-.119.51-.176q.67-.223,1.329-.46Q270.535,225.287,270.929,225.136Z" transform="translate(-210.066 -177.559)" fill="#e2a029"/>
    <g id="Group_1184" data-name="Group 1184" transform="translate(46.879 37.556)">
      <path id="Path_4880" data-name="Path 4880" d="M278.078,222.763a49.3,49.3,0,0,1-15.013,5.317l-4.789-8a31.114,31.114,0,0,0,9.445-3.3Z" transform="translate(-258.276 -216.783)" fill="#ffbe3d"/>
    </g>
    <path id="Path_4881" data-name="Path 4881" d="M271.224,225.917c-.392.065-.783.132-1.179.189-.46.067-.924.121-1.387.178-.394.049-.788.1-1.184.141-.731.075-1.466.14-2.2.191-.067.006-.132.012-.2.017-.815.055-1.635.092-2.455.117-.208.007-.417.008-.625.012q-.907.019-1.815.015c-.251,0-.5,0-.752-.008-.668-.011-1.337-.031-2.005-.062-.126-.006-.254-.008-.381-.015-.788-.04-1.574-.1-2.356-.165-.207-.018-.413-.04-.619-.06q-.911-.089-1.814-.2c-.218-.028-.437-.054-.655-.083-.781-.105-1.557-.22-2.328-.355l-.015,0c-.765-.132-1.523-.284-2.276-.444-.268-.058-.534-.121-.8-.182-.517-.118-1.03-.24-1.538-.372q-.418-.106-.833-.219c-.44-.121-.875-.25-1.309-.38-.4-.121-.8-.241-1.188-.37s-.8-.269-1.191-.408-.772-.276-1.152-.42c-.578-.222-1.152-.448-1.714-.688l-.169-.069c-.657-.286-1.3-.588-1.932-.9-.153-.075-.305-.151-.456-.229-.634-.322-1.258-.652-1.862-1l-.017,2.48c.6.348,1.229.68,1.862,1,.151.078.3.154.456.23.632.311,1.274.613,1.932.9l.168.069c.415.178.833.354,1.258.52.15.06.305.11.456.166.381.147.768.286,1.157.423s.786.276,1.186.406.793.251,1.193.37c.244.074.481.155.725.226.191.054.388.1.581.154q.416.112.836.221c.508.13,1.019.252,1.535.37.266.061.533.123.8.182.118.025.232.054.349.079q.955.2,1.925.365l.024,0q.955.166,1.919.3c.133.019.269.033.4.051.218.029.435.055.655.083q.9.112,1.813.2c.207.019.412.042.62.06.105.008.211.022.318.031q1.015.083,2.037.135c.129.007.258.01.388.015.476.022.953.044,1.43.057.19,0,.38,0,.569.006q.377.006.753.008.907,0,1.814-.015c.209,0,.417-.006.627-.012.083,0,.168,0,.251,0q1.1-.037,2.2-.112c.067,0,.132-.011.2-.017.649-.044,1.3-.1,1.941-.161.089-.008.175-.021.262-.031.4-.042.79-.093,1.184-.141.463-.057.926-.111,1.385-.178.4-.057.788-.123,1.18-.187.338-.055.68-.1,1.016-.162l.673-.126.017-2.478C272.355,225.736,271.789,225.825,271.224,225.917Z" transform="translate(-221.246 -177.928)" fill="#7974f5"/>
    <g id="Group_1185" data-name="Group 1185" transform="translate(11.584 36.229)">
      <path id="Path_4882" data-name="Path 4882" d="M268.12,219.292l4.789,8c-13.6,2.614-29.214.789-40.084-5.486l10.29-5.98C249.9,219.741,259.622,220.893,268.12,219.292Z" transform="translate(-232.825 -215.826)" fill="#b391ff"/>
    </g>
  </g>
</svg>
