<svg xmlns="http://www.w3.org/2000/svg" width="445.052" height="274.79" viewBox="0 0 445.052 274.79">
  <path id="Path_4801" data-name="Path 4801" d="M498.708,444.488c-19.19-11.08-46.114-14.9-70.588-11.472l86.852-50.472c9.487-5.514,9.437-14.452-.112-19.964L316.06,247.8c-9.549-5.513-24.979-5.513-34.466,0l-67.935,39.478C184.266,274.3,142.2,275.568,115.48,291.1s-28.8,39.915-6.3,56.9L84.085,362.582c-9.487,5.514-9.436,14.452.112,19.964L283,497.324c9.548,5.512,24.979,5.512,34.465,0L373.251,464.9c-5.855,14.194.817,29.784,20.009,40.865,29.307,16.92,76.711,16.92,105.828,0S528.015,461.409,498.708,444.488Z" transform="translate(-77.003 -243.668)" fill="#87aedd" opacity="0.25"/>
</svg>
