<svg xmlns="http://www.w3.org/2000/svg" width="196.674" height="67.45" viewBox="0 0 196.674 67.45">
  <path id="Path_4020" data-name="Path 4020" d="M475.346,330.8a40.389,40.389,0,0,0-31.2-10.537c-7.627.772-15.943,4.846-17.621,12.326-.8,3.563-.519,8.289-3.892,9.688-3.3,1.369-6.487-2.031-9.874-3.167-5.64-1.892-12.074,4.556-10.173,10.192.866,2.562,3.035,4.794,2.853,7.494-.245,3.674-4.787,5.591-8.426,5.02s-6.851-2.7-10.419-3.6-8.193,0-9.446,3.465c-1.124,3.1.815,7.276-1.623,9.5a6.655,6.655,0,0,1-3.964,1.284c-30.906,2.935-64.942,8.479-61.484,13.969.946,1.5,3.362,1.024,5.136,1,65.782-1.03,125.535-2.01,191.294.006" transform="translate(-309.827 -320.07)" fill="#c3ecfe"/>
</svg>
