<svg xmlns="http://www.w3.org/2000/svg" width="581.975" height="330.915" viewBox="0 0 581.975 330.915">
  <path id="Path_3980" data-name="Path 3980" d="M812.509,386.941c-8.145-29.214,17.745-30.342,18.313-67.987.233-15.4-8.2-31.077-28.5-38.27-9.974-3.535-19.916-5.963-28.791-11.584-20.222-12.809-19.857-37.18-25.375-57.958-12.117-45.633-58.745-81.885-105.945-80.705-34.026.849-64.788,1.892-95.81,30.772-21.225,19.763-35.02,44.079-54.727,64.452-20.868,21.576-46.3,31.926-74.852,38.856-27.005,6.557-56.382,14.356-77.053,34.014C320.35,317,323.182,336.326,331.51,359.009c9.184,25.012-10.73,42.03-31.495,51.769-17.484,8.2-40.757,7.486-48.874,27.105-8.8,21.27,17.342,21.635,41.65,21.635s339.054-1.87,427.025.731c23.676.7,99.221,7.15,109.905-22.366C836.995,417.793,818.2,407.343,812.509,386.941Z" transform="translate(-249.396 -130.408)" fill="#c3ecfe" opacity="0.35"/>
</svg>
