<svg xmlns="http://www.w3.org/2000/svg" width="385.341" height="151.576" viewBox="0 0 385.341 151.576">
  <g id="Group_374" data-name="Group 374" opacity="0.5">
    <g id="Group_373" data-name="Group 373">
      <path id="Path_2186" data-name="Path 2186" d="M359.284,222.535c-1.4,11.224-7.217,17.9-13.337,9.542-7.846-10.722-8.608-21.2-9.063-27.466V143.463c0,9.566,3.175,18.8,9.063,27.466,12.933,21.392,14.469,42.5,13.337,51.606Z" transform="translate(-336.884 -143.463)" fill="#79d6fe"/>
      <path id="Path_2187" data-name="Path 2187" d="M518.477,205.6q-7.238.2-14.611.136c-38.445-.315-74.064-5.895-103.791-15.25-29.7-7.933-31.489,23.138-21.126,42.329,7.38,13.664,17.366,17.408,21.126,18.818,29.727,9.356,65.346,14.936,103.791,15.25q7.367.061,14.611-.136c34.891-2.573,44.028-36.082,27.722-51.722-4.551-4.365-13.054-9.545-27.722-9.425Z" transform="translate(-314.543 -115.324)" fill="#79d6fe"/>
      <path id="Path_2188" data-name="Path 2188" d="M609.757,179.847c-.17,26.442-1.722,31.257-3.687,37.35-8.172,19.281-29.367,36.315-59.037,49.04-25.974,7.663-33.148-19.327-22.584-39.338a51.933,51.933,0,0,1,22.584-21.809c29.669-12.723,50.865-29.758,59.037-49.04a32.1,32.1,0,0,1,2.245-4.141l.666-.087c.5,1.415.711,2,.777,9.217v18.808Z" transform="translate(-224.416 -138.322)" fill="#79d6fe"/>
    </g>
  </g>
</svg>
