<svg xmlns="http://www.w3.org/2000/svg" xmlns:xlink="http://www.w3.org/1999/xlink" width="514.616" height="308.493" viewBox="0 0 514.616 308.493">
  <defs>
    <linearGradient id="linear-gradient" x1="-8.652" y1="15.276" x2="-7.446" y2="14.297" gradientUnits="objectBoundingBox">
      <stop offset="0" stop-color="#5786d7"/>
      <stop offset="0.178" stop-color="#5b91d8"/>
      <stop offset="0.388" stop-color="#6aa4de"/>
      <stop offset="0.613" stop-color="#81b8e8"/>
      <stop offset="0.849" stop-color="#a2ccf5"/>
      <stop offset="1" stop-color="#bcceff"/>
    </linearGradient>
    <linearGradient id="linear-gradient-2" x1="548.69" y1="74.561" x2="548.69" y2="73.983" gradientUnits="objectBoundingBox">
      <stop offset="0" stop-color="#c0bff6"/>
      <stop offset="0.294" stop-color="#c4c3f6"/>
      <stop offset="0.64" stop-color="#d2d2f9"/>
      <stop offset="1" stop-color="#e9e9fd"/>
    </linearGradient>
  </defs>
  <g id="Group_1273" data-name="Group 1273" transform="translate(11849.616 9489.922)">
    <g id="Group_350" data-name="Group 350" transform="translate(-11849.616 -9489.922)">
      <g id="Group_349" data-name="Group 349">
        <g id="Group_348" data-name="Group 348">
          <g id="Group_347" data-name="Group 347">
            <path id="Path_2150" data-name="Path 2150" d="M292.831,339.918l.052,11.253.029-.015a2.8,2.8,0,0,0,1.6,2.266l160.5,92.41c2.413,1.389,6.626,1.21,9.409-.4L805.15,248.169c1.534-.888,2.283-2.024,2.269-3.1l.028.016-.05-11.24-17.76,9.81-144.32-83.093c-2.413-1.389-6.626-1.21-9.409.4L309.645,349.85c.837-.917,1.441-1.6,1.444-1.646C311.1,348.039,292.831,339.918,292.831,339.918Z" transform="translate(-292.83 -138.275)" fill="url(#linear-gradient)"/>
            <path id="Path_2151" data-name="Path 2151" d="M401.138,355.97l-.068-45.724-7.324-4.217.073,50.162A10.88,10.88,0,0,0,401.138,355.97Z" transform="translate(-230.767 -48.237)" fill="url(#linear-gradient-2)"/>
            <path id="Path_2152" data-name="Path 2152" d="M645.268,147.341l160.5,92.41c2.413,1.389,2.114,3.823-.669,5.433L464.372,442.447c-2.783,1.61-7,1.791-9.409.4l-160.5-92.41c-2.413-1.389-2.114-3.823.67-5.433L635.859,147.742C638.642,146.132,642.856,145.951,645.268,147.341Z" transform="translate(-292.83 -146.406)" fill="#eef3f6"/>
            <path id="Path_2153" data-name="Path 2153" d="M454.956,406.616l-160.5-92.41c-1.436-.827-1.89-2.022-1.453-3.194a3.054,3.054,0,0,0,1.542,1.8l160.5,92.412c2.414,1.389,6.626,1.21,9.411-.4L805.182,207.56a4.6,4.6,0,0,0,2.122-2.24c.328,1.221-.418,2.6-2.209,3.632L464.365,406.215C461.583,407.825,457.369,408.006,454.956,406.616Z" transform="translate(-292.823 -110.173)" fill="#fff"/>
            <path id="Path_2154" data-name="Path 2154" d="M611.121,153.428l169.242,97.443L474.2,428.123,304.956,330.68Z" transform="translate(-285.373 -142.087)" fill="#24126a"/>
            <path id="Path_2155" data-name="Path 2155" d="M611.121,153.428l169.242,97.443L474.2,428.123,304.956,330.68Z" transform="translate(-285.373 -142.087)" fill="#24126a"/>
            <path id="Path_2156" data-name="Path 2156" d="M611.121,153.428l169.242,97.443L474.2,428.123,304.956,330.68Z" transform="translate(-285.373 -142.087)" fill="#555993" opacity="0.5"/>
            <path id="Path_2157" data-name="Path 2157" d="M346.175,291.722l30.669,17.6c.893.514,1.408,1.095.846,1.8a2.85,2.85,0,0,1-.806.665h0a5.177,5.177,0,0,1-4.658.2l-30.938-17.813c-.092-.053-.231-.076-.255-.17-.252-.98-.169-1.214,1.1-1.949l.426-.087A3.245,3.245,0,0,1,346.175,291.722Z" transform="translate(-263.256 -57.309)" fill="#29abe2"/>
            <path id="Path_2158" data-name="Path 2158" d="M341.2,294.164a2.841,2.841,0,0,1,.8-.662,5.176,5.176,0,0,1,4.658-.2L377.6,311.117a2.016,2.016,0,0,1,.249.181,1.259,1.259,0,0,0-.472-2.028L346.44,291.457a5.176,5.176,0,0,0-4.658.2C340.516,292.389,340.3,293.461,341.2,294.164Z" transform="translate(-263.419 -57.483)" fill="#79d6fe"/>
          </g>
        </g>
      </g>
    </g>
    <g id="Group_353" data-name="Group 353" transform="translate(-11738.929 -9323.715)">
      <g id="Group_352" data-name="Group 352">
        <g id="Group_351" data-name="Group 351">
          <path id="Path_2159" data-name="Path 2159" d="M373.786,260.169l-11.1-6.407c-1.76-1.016-1.76-2.663,0-3.679h0a7.034,7.034,0,0,1,6.373,0l11.1,6.407c1.76,1.016,1.76,2.663,0,3.681h0A7.039,7.039,0,0,1,373.786,260.169Z" transform="translate(-361.367 -249.32)" fill="#79d6fe" opacity="0.2"/>
          <path id="Path_2160" data-name="Path 2160" d="M388.006,268.379l-11.1-6.407c-1.76-1.016-1.76-2.663,0-3.679h0a7.035,7.035,0,0,1,6.373,0l11.1,6.407c1.76,1.016,1.76,2.663,0,3.681h0A7.039,7.039,0,0,1,388.006,268.379Z" transform="translate(-352.622 -244.271)" fill="#79d6fe" opacity="0.6"/>
          <path id="Path_2161" data-name="Path 2161" d="M402.226,276.589l-11.1-6.407c-1.759-1.016-1.759-2.663,0-3.679h0a7.042,7.042,0,0,1,6.374,0l11.1,6.407c1.76,1.016,1.76,2.663,0,3.681h0A7.043,7.043,0,0,1,402.226,276.589Z" transform="translate(-343.876 -239.222)" fill="#79d6fe"/>
          <path id="Path_2162" data-name="Path 2162" d="M416.446,284.8l-11.1-6.407c-1.76-1.016-1.76-2.663,0-3.679h0a7.037,7.037,0,0,1,6.374,0l11.1,6.407c1.759,1.016,1.759,2.663,0,3.679h0A7.038,7.038,0,0,1,416.446,284.8Z" transform="translate(-335.131 -234.173)" fill="#79d6fe" opacity="0.6"/>
          <path id="Path_2163" data-name="Path 2163" d="M430.667,293.01l-11.1-6.408c-1.76-1.016-1.76-2.663,0-3.679h0a7.045,7.045,0,0,1,6.373,0l11.1,6.407c1.76,1.016,1.76,2.663,0,3.681h0A7.044,7.044,0,0,1,430.667,293.01Z" transform="translate(-326.386 -229.123)" fill="#79d6fe" opacity="0.2"/>
        </g>
      </g>
    </g>
  </g>
</svg>
