<svg xmlns="http://www.w3.org/2000/svg" width="385.37" height="151.639" viewBox="0 0 385.37 151.639">
  <g id="Group_355" data-name="Group 355" opacity="0.3">
    <path id="Path_2164" data-name="Path 2164" d="M523.816,130.688c1.163,6.576,6.042,23.106,26.167,34.538,28.648,13.23,48.492,30.62,55.141,50.038a44.752,44.752,0,0,0,1.728,4.183c.714-1.177.714-1.177.717-4.025v-32.6c-.013-19.143-1.085-23.361-2.445-28.705-6.649-19.417-26.492-36.808-55.141-50.038C527.129,96.7,521.6,118.13,523.816,130.688Z" transform="translate(-222.198 -78.12)" fill="#79d6fe"/>
    <path id="Path_2165" data-name="Path 2165" d="M404.1,100.884c30.331-8.8,66.212-13.752,104.508-13.438q7.58.063,15.007.394c33.628,3.072,45.588,38.586,25.313,54.122-9.306,7.132-20.523,7.056-25.313,7.025q-7.422-.332-15.007-.394c-38.3-.315-74.177,4.638-104.508,13.438-30.625,7.46-32.434-23.663-21.723-42.7,3.6-6.4,10.294-14.8,21.723-18.447Z" transform="translate(-312.562 -87.431)" fill="#79d6fe"/>
    <path id="Path_2166" data-name="Path 2166" d="M336.884,217.686c.835-9.692,1.5-17.348,11.363-30.708,20.8-30.695,16.6-66.37,5.11-64.723-1.852.266-3.778,2.263-5.11,3.576-6.985,9.1-10.953,18.887-11.332,29.1-.021.538-.031,1.076-.031,1.61v61.147Z" transform="translate(-336.884 -66.048)" fill="#79d6fe"/>
  </g>
</svg>
