<svg id="Group_599" data-name="Group 599" xmlns="http://www.w3.org/2000/svg" width="283.268" height="130.482" viewBox="0 0 283.268 130.482">
  <g id="Group_589" data-name="Group 589" transform="translate(0 2.711)" opacity="0.2">
    <path id="Path_2716" data-name="Path 2716" d="M347.37,226.25l-78.123,15.884s-24.96,23.015-32.416,30.147-25.285,39.548-13.615,50.569,55.107,2.917,58.349,6.159-2.593,26.257,18.477,24.96,48.3-22.043,57.376-22.043,24.636,8.1,42.789,8.428,30.8-22.043,37.278-25.609,43.437,2.593,56.4-10.049,13.291-43.762-11.346-48.948-60.294-20.422-82.337-23.34S347.37,226.25,347.37,226.25Z" transform="translate(-219.359 -226.25)" fill="#fff" opacity="0"/>
    <path id="Path_2717" data-name="Path 2717" d="M347.3,226.654c-.149-.019-53.8,11.374-54.038,11.483-.14.064-23.293,4.756-23.448,4.75-.385-.016-25.112,22.278-32.458,29.3-7.374,7.055-24.575,38.63-13.453,49.808,10.085,10.137,45.424,4.27,55.429,5.183a4.845,4.845,0,0,1,2.6.714c2.783,2.632-.555,17.23,8.113,22.722,2.425,1.538,5.754,2.361,10.346,2.034,9.556-.718,20.382-5.43,30.022-10.128,11.722-5.708,22.084-11.308,27.188-11.3,7.067,0,17.677,4.291,30.363,6.543a81.178,81.178,0,0,0,11.974,1.256c18,.4,30.78-21.244,37.24-24.853,6.421-3.574,42.316,2.255,54.76-10.245,12.482-12.469,12.6-42.955-11.561-48.074-24.217-5.149-59.288-20.128-81.056-23.062C377.637,229.88,347.423,226.671,347.3,226.654Z" transform="translate(-219.092 -226.13)" fill="#f9f9f9" opacity="0.018"/>
    <path id="Path_2718" data-name="Path 2718" d="M347.235,227.059c-.3-.04-53.048,11.657-53.528,11.873-.28.127-23.014,4.717-23.323,4.707-.773-.031-25.264,21.542-32.5,28.464-7.294,6.976-23.872,37.731-13.292,49.045,9.851,10.535,45.287,4.014,55.1,4.917a5,5,0,0,1,2.6.718c3.034,2.729-.637,17.321,8.092,22.66,2.438,1.5,5.777,2.279,10.347,1.892,9.6-.814,20.486-5.725,29.977-10.3,11.553-5.565,21.842-10.524,27.067-10.514,7.142.008,17.516,3.8,29.977,5.917a86.009,86.009,0,0,0,11.912,1.253c17.839.519,30.764-20.445,37.2-24.1,6.359-3.58,41.162,1.885,53.117-10.439s11.9-42.149-11.777-47.2c-23.8-5.111-58.28-19.835-79.773-22.786C377.108,230.268,347.475,227.09,347.235,227.059Z" transform="translate(-218.825 -226.01)" fill="#f3f3f3" opacity="0.037"/>
    <path id="Path_2719" data-name="Path 2719" d="M347.168,227.463c-.449-.06-52.295,11.939-53.014,12.265-.419.188-22.735,4.681-23.2,4.663-1.162-.047-25.418,20.807-32.544,27.622-7.212,6.9-23.174,36.86-13.13,48.286,9.63,10.951,45.153,3.737,54.779,4.652a5.152,5.152,0,0,1,2.6.721c3.288,2.825-.718,17.414,8.066,22.6,2.452,1.452,5.8,2.186,10.352,1.748,9.648-.928,20.587-6.018,29.932-10.481,11.386-5.421,21.6-9.74,26.946-9.726,7.216.012,17.356,3.288,29.591,5.292a93.483,93.483,0,0,0,11.849,1.247c17.684.611,30.74-19.662,37.158-23.34,6.289-3.6,40.022,1.53,51.475-10.635s11.207-41.341-11.994-46.326c-23.376-5.072-57.274-19.54-78.492-22.51C376.581,230.657,347.529,227.511,347.168,227.463Z" transform="translate(-218.559 -225.89)" fill="#eeecec" opacity="0.055"/>
    <path id="Path_2720" data-name="Path 2720" d="M347.1,227.867c-.6-.078-51.544,12.223-52.5,12.656-.559.252-22.455,4.645-23.072,4.619-1.547-.061-25.57,20.072-32.586,26.782-7.13,6.82-22.485,36.009-12.968,47.523,9.415,11.388,45.017,3.47,54.454,4.389a5.269,5.269,0,0,1,2.608.724c3.545,2.923-.8,17.506,8.044,22.536,2.466,1.409,5.822,2.1,10.355,1.608,9.695-1.045,20.69-6.313,29.886-10.658,11.219-5.279,21.354-8.956,26.826-8.939,7.29.018,17.195,2.78,29.2,4.667a102.486,102.486,0,0,0,11.784,1.243c17.527.7,30.721-18.869,37.119-22.585,6.223-3.615,38.882,1.179,49.831-10.828s10.513-40.533-12.208-45.452c-22.957-5.035-56.27-19.247-77.212-22.233C376.054,231.044,347.585,227.932,347.1,227.867Z" transform="translate(-218.294 -225.77)" fill="#e8e6e6" opacity="0.073"/>
    <path id="Path_2721" data-name="Path 2721" d="M347.037,228.272c-.748-.1-50.791,12.5-51.99,13.047-.7.315-22.178,4.607-22.948,4.576-1.935-.077-25.722,19.334-32.629,25.941-7.049,6.743-21.808,35.183-12.8,46.762,9.207,11.841,44.878,3.213,54.127,4.125a5.417,5.417,0,0,1,2.61.725c3.81,3.016-.879,17.6,8.024,22.476,2.479,1.365,5.845,2,10.358,1.464,9.74-1.162,20.79-6.605,29.841-10.835,11.05-5.136,21.109-8.173,26.7-8.151,7.365.022,17.035,2.273,28.819,4.04a113.337,113.337,0,0,0,11.72,1.24c17.369.8,30.7-18.074,37.077-21.829,6.159-3.625,37.743.826,48.188-11.023s9.819-39.727-12.423-44.579c-22.538-5-55.264-18.956-75.931-21.956C375.529,231.433,347.641,228.351,347.037,228.272Z" transform="translate(-218.03 -225.65)" fill="#e2e0e0" opacity="0.091"/>
    <path id="Path_2722" data-name="Path 2722" d="M346.976,228.676c-.9-.119-50.041,12.787-51.479,13.438-.84.379-21.9,4.571-22.825,4.533-2.32-.093-25.873,18.6-32.669,25.1-6.968,6.663-21.143,34.378-12.645,46,9.005,12.316,44.744,2.949,53.8,3.861a5.592,5.592,0,0,1,2.615.726c4.074,3.108-.962,17.694,8,22.415,2.492,1.324,5.867,1.909,10.361,1.321,9.787-1.28,20.893-6.9,29.794-11.01,10.884-4.995,20.867-7.391,26.585-7.364,7.439.026,16.876,1.762,28.431,3.415,3.5.5,7.452,1.019,11.657,1.236,17.212.887,30.684-17.279,37.039-21.073,6.093-3.637,36.6.476,46.544-11.216s9.114-38.879-12.64-43.707c-22.127-4.913-54.25-18.708-74.648-21.679C375.012,231.775,347.7,228.772,346.976,228.676Z" transform="translate(-217.768 -225.531)" fill="#dcdada" opacity="0.11"/>
    <path id="Path_2723" data-name="Path 2723" d="M346.913,229.081c-1.048-.139-49.289,13.07-50.968,13.829-.976.442-21.618,4.533-22.7,4.489-2.706-.108-26.026,17.863-32.712,24.258-6.885,6.587-20.491,33.6-12.483,45.24,8.807,12.807,44.607,2.687,53.476,3.6a5.725,5.725,0,0,1,2.619.73c4.341,3.195-1.044,17.785,7.977,22.353,2.506,1.28,5.889,1.813,10.364,1.176,9.834-1.4,21-7.191,29.75-11.185,10.714-4.851,20.622-6.608,26.464-6.575,7.511.03,16.715,1.255,28.045,2.789,3.44.467,7.379.992,11.593,1.232,17.055.976,30.666-16.486,37-20.317,6.029-3.647,35.463.124,44.9-11.41s8.419-38.065-12.855-42.833c-21.71-4.869-53.243-18.423-73.368-21.4C374.491,232.157,347.757,229.193,346.913,229.081Z" transform="translate(-217.507 -225.41)" fill="#d6d3d3" opacity="0.128"/>
    <path id="Path_2724" data-name="Path 2724" d="M346.853,229.485c-1.2-.16-48.537,13.353-50.456,14.22-1.118.5-21.34,4.5-22.575,4.446-3.094-.124-26.177,17.127-32.753,23.416-6.8,6.509-19.852,32.832-12.322,44.477,8.611,13.316,44.471,2.426,53.152,3.334a5.846,5.846,0,0,1,2.622.731c4.607,3.287-1.124,17.878,7.955,22.292,2.519,1.237,5.911,1.719,10.368,1.033,9.88-1.518,21.1-7.484,29.7-11.361a65.594,65.594,0,0,1,26.344-5.787,229.951,229.951,0,0,1,27.66,2.164c3.383.432,7.308.962,11.529,1.228,16.9,1.063,30.646-15.692,36.957-19.561,5.966-3.658,34.321-.226,43.258-11.606s7.725-37.251-13.07-41.961c-21.291-4.821-52.236-18.134-72.085-21.125C373.97,232.539,347.819,229.612,346.853,229.485Z" transform="translate(-217.247 -225.291)" fill="#d0cdcd" opacity="0.146"/>
    <path id="Path_2725" data-name="Path 2725" d="M346.795,229.89c-1.347-.179-47.786,13.635-49.945,14.611-1.258.568-21.06,4.459-22.447,4.4-3.481-.14-26.331,16.39-32.8,22.575-6.723,6.431-19.227,32.087-12.159,43.716,8.411,13.84,44.332,2.165,52.825,3.069A6.019,6.019,0,0,1,284.9,319c4.879,3.371-1.194,17.953,7.933,22.232,2.536,1.189,5.936,1.623,10.372.89,9.926-1.639,21.2-7.779,29.658-11.536a63.231,63.231,0,0,1,26.222-5,228.109,228.109,0,0,1,27.274,1.538c3.326.4,7.239.934,11.465,1.223,16.74,1.148,30.629-14.893,36.918-18.8,5.9-3.668,33.177-.573,41.616-11.8s7.028-36.437-13.285-41.087c-20.875-4.777-51.229-17.847-70.807-20.849C373.452,232.921,347.881,230.033,346.795,229.89Z" transform="translate(-216.989 -225.171)" fill="#cbc7c7" opacity="0.165"/>
    <path id="Path_2726" data-name="Path 2726" d="M346.738,230.294c-1.5-.2-47.034,13.918-49.433,15-1.4.631-20.781,4.422-22.324,4.361-3.867-.157-26.483,15.653-32.839,21.732-6.641,6.355-18.618,31.359-12,42.955,8.212,14.382,44.2,1.9,52.5,2.8a6.215,6.215,0,0,1,2.63.737c5.152,3.454-1.276,18.044,7.91,22.17,2.549,1.145,5.959,1.527,10.374.748,9.974-1.762,21.293-8.09,29.613-11.714,10.2-4.444,19.892-4.257,26.1-4.213,7.734.044,16.235-.275,26.886.913,3.269.366,7.168.905,11.4,1.22,16.58,1.233,30.611-14.1,36.878-18.048,5.835-3.679,32.034-.921,39.972-12,7.922-11.055,6.331-35.624-13.5-40.213-20.456-4.731-50.221-17.56-69.523-20.571C372.936,233.3,347.944,230.454,346.738,230.294Z" transform="translate(-216.733 -225.051)" fill="#c5c1c1" opacity="0.183"/>
    <path id="Path_2727" data-name="Path 2727" d="M346.682,230.7c-1.647-.218-46.282,14.2-48.92,15.392-1.538.7-20.505,4.385-22.2,4.318-4.254-.17-26.634,14.918-32.882,20.893-6.56,6.276-18.023,30.646-11.836,42.193,8.005,14.937,44.06,1.645,52.176,2.541a6.333,6.333,0,0,1,2.631.738c5.421,3.544-1.356,18.135,7.887,22.108,2.565,1.1,5.981,1.431,10.38.606,10.019-1.883,21.393-8.384,29.566-11.889,10.035-4.3,19.647-3.475,25.982-3.427,7.807.049,16.077-.783,26.5.289,3.212.331,7.1.875,11.338,1.215,16.423,1.319,30.593-13.3,36.839-17.293,5.771-3.686,30.889-1.266,38.327-12.19,7.415-10.889,5.636-34.811-13.717-39.339-20.038-4.687-49.214-17.271-68.242-20.294C372.42,233.686,348.01,230.875,346.682,230.7Z" transform="translate(-216.478 -224.931)" fill="#bfbbbb" opacity="0.201"/>
    <path id="Path_2728" data-name="Path 2728" d="M346.63,231.1c-1.8-.239-45.533,14.483-48.41,15.783-1.677.759-20.225,4.349-22.075,4.274-4.639-.185-26.786,14.183-32.922,20.051-6.479,6.2-17.446,29.947-11.675,41.432,7.793,15.51,43.924,1.384,51.849,2.277a6.558,6.558,0,0,1,2.636.74c5.7,3.618-1.439,18.228,7.864,22.047,2.578,1.059,6,1.336,10.384.463,10.066-2.007,21.494-8.68,29.519-12.065,9.866-4.162,19.4-2.691,25.862-2.639,7.884.053,15.92-1.3,26.114-.337,3.153.3,7.024.847,11.273,1.212,16.266,1.4,30.575-12.509,36.8-16.537,5.709-3.7,29.746-1.609,36.686-12.386,6.907-10.723,4.941-34-13.932-38.465-19.621-4.643-48.207-16.985-66.961-20.018C371.906,234.069,348.077,231.294,346.63,231.1Z" transform="translate(-216.225 -224.811)" fill="#b9b4b4" opacity="0.22"/>
    <path id="Path_2729" data-name="Path 2729" d="M346.75,231.508c-1.946-.258-44.78,14.767-47.9,16.174-1.818.821-19.946,4.313-21.951,4.231-5.027-.2-26.939,13.446-32.964,19.21-6.4,6.12-18.836,30.406-11.513,40.67,4.569,17.19,43.786,1.125,51.522,2.014a6.675,6.675,0,0,1,2.641.742c5.972,3.7-1.52,18.319,7.841,21.986,2.591,1.014,6.028,1.237,10.386.319,10.114-2.132,21.6-8.974,29.475-12.243,9.7-4.021,19.159-1.906,25.74-1.849,7.957.057,15.762-1.806,25.729-.962,3.1.262,6.953.816,11.209,1.207,16.108,1.485,30.558-11.71,36.757-15.781,5.646-3.706,28.6-1.951,35.042-12.58,6.4-10.556,4.245-33.186-14.149-37.591-19.2-4.6-47.2-16.7-65.679-19.741C371.569,234.452,348.319,231.715,346.75,231.508Z" transform="translate(-216.147 -224.691)" fill="#b3aeae" opacity="0.238"/>
    <path id="Path_2730" data-name="Path 2730" d="M346.7,231.912c-2.1-.277-44.027,15.051-47.384,16.567-1.957.883-19.667,4.272-21.826,4.187-5.412-.217-27.089,12.71-33.006,18.368-6.317,6.042-18.34,29.7-11.352,39.908,4.128,17.763,43.65.866,51.2,1.749a6.874,6.874,0,0,1,2.643.744c6.251,3.772-1.6,18.411,7.819,21.925,2.6.971,6.05,1.14,10.39.176,10.159-2.256,21.7-9.27,29.429-12.418,9.53-3.881,18.915-1.123,25.62-1.062,8.03.061,15.6-2.318,25.342-1.588,3.041.228,6.881.787,11.146,1.2,15.95,1.565,30.54-10.914,36.718-15.025,5.581-3.714,27.454-2.294,33.4-12.776,5.891-10.387,3.548-32.375-14.364-36.717-18.784-4.555-46.192-16.408-64.4-19.464C371.062,234.837,348.392,232.136,346.7,231.912Z" transform="translate(-215.901 -224.572)" fill="#ada8a8" opacity="0.256"/>
    <path id="Path_2731" data-name="Path 2731" d="M346.657,232.316c-2.247-.3-43.277,15.334-46.875,16.959-2.1.947-19.387,4.236-21.7,4.144-5.8-.233-27.244,11.973-33.05,17.525-6.236,5.966-17.844,29-11.189,39.148,3.682,18.332,43.511.609,50.871,1.485a7.049,7.049,0,0,1,2.646.748c6.525,3.854-1.682,18.5,7.8,21.863,2.618.928,6.072,1.041,10.393.032,10.207-2.382,21.8-9.564,29.385-12.594,9.362-3.74,18.672-.34,25.5-.275,8.105.066,15.446-2.828,24.955-2.213,2.982.193,6.811.756,11.082,1.2,15.792,1.642,30.523-10.116,36.677-14.268,5.517-3.723,26.31-2.632,31.756-12.97,5.381-10.215,2.853-31.562-14.579-35.843-18.366-4.511-45.185-16.121-63.118-19.188C370.555,235.22,348.465,232.556,346.657,232.316Z" transform="translate(-215.654 -224.452)" fill="#a8a2a2" opacity="0.274"/>
    <path id="Path_2732" data-name="Path 2732" d="M346.609,232.721c-2.4-.316-42.525,15.617-46.361,17.349-2.237,1.01-19.109,4.2-21.576,4.1-6.186-.249-27.4,11.237-33.092,16.684-6.154,5.887-17.348,28.3-11.028,38.386,3.242,18.906,43.377.351,50.547,1.223a7.225,7.225,0,0,1,2.65.748c6.809,3.916-1.763,18.6,7.773,21.8,2.632.886,6.1.944,10.4-.11,10.254-2.51,21.9-9.858,29.338-12.769,9.193-3.6,18.428.443,25.379.512,8.179.071,15.287-3.341,24.569-2.838,2.925.158,6.741.724,11.02,1.2,15.634,1.719,30.5-9.319,36.635-13.512,5.454-3.73,25.165-2.967,30.113-13.164,4.874-10.044,2.158-30.752-14.795-34.972-17.949-4.468-44.177-15.832-61.837-18.91C370.048,235.6,348.539,232.977,346.609,232.721Z" transform="translate(-215.408 -224.332)" fill="#a29b9b" opacity="0.293"/>
    <path id="Path_2733" data-name="Path 2733" d="M346.562,233.125c-2.547-.337-41.774,15.9-45.851,17.741-2.375,1.074-18.83,4.162-21.45,4.057-6.573-.264-27.547,10.5-33.134,15.844-6.072,5.809-16.852,27.594-10.866,37.625,2.8,19.476,43.24.093,50.222.957a7.419,7.419,0,0,1,2.654.751c7.09,3.985-1.845,18.687,7.75,21.741,2.645.841,6.119.844,10.4-.253,10.3-2.639,22-10.154,29.291-12.946,9.026-3.457,18.185,1.227,25.26,1.3,8.252.075,15.129-3.856,24.181-3.465,2.87.124,6.671.694,10.957,1.192,15.477,1.8,30.488-8.52,36.6-12.756,5.39-3.738,24.018-3.3,28.469-13.359,4.367-9.866,1.461-29.939-15.011-34.1-17.529-4.424-43.169-15.544-60.554-18.634C369.541,235.989,348.612,233.4,346.562,233.125Z" transform="translate(-215.162 -224.212)" fill="#9c9595" opacity="0.311"/>
    <path id="Path_2734" data-name="Path 2734" d="M346.516,233.529c-2.7-.357-41.022,16.182-45.338,18.132-2.517,1.137-18.551,4.125-21.327,4.013-6.96-.277-27.7,9.766-33.176,15-5.992,5.731-16.356,26.89-10.7,36.862,2.355,20.049,43.1-.162,49.895.7a7.616,7.616,0,0,1,2.658.752c7.369,4.057-1.926,18.779,7.729,21.679,2.659.8,6.14.746,10.4-.394C317,327.5,328.759,319.822,335.9,317.15c8.859-3.317,17.94,2.008,25.138,2.088,8.328.079,14.974-4.368,23.8-4.09,2.812.088,6.6.661,10.893,1.188,15.319,1.872,30.47-7.724,36.555-12,5.327-3.746,22.874-3.631,26.826-13.552,3.86-9.689.766-29.129-15.227-33.224-17.112-4.381-42.162-15.254-59.273-18.358C369.036,236.375,348.686,233.817,346.516,233.529Z" transform="translate(-214.916 -224.092)" fill="#968f8f" opacity="0.329"/>
    <path id="Path_2735" data-name="Path 2735" d="M346.469,233.934c-2.846-.376-40.271,16.465-44.826,18.523-2.656,1.2-18.272,4.088-21.2,3.97-7.347-.294-27.852,9.029-33.217,14.161-5.911,5.653-15.862,26.187-10.543,36.1,1.913,20.619,42.966-.419,49.569.429a7.806,7.806,0,0,1,2.661.756c7.649,4.127-2.007,18.873,7.707,21.618,2.672.756,6.162.646,10.406-.538,10.394-2.9,22.206-10.743,29.2-13.3,8.691-3.174,17.7,2.792,25.017,2.876,8.4.083,14.817-4.516,23.411-4.716,2.754-.065,6.527.631,10.828,1.184,15.16,1.948,30.454-6.925,36.516-11.246,5.264-3.751,21.728-3.956,25.183-13.747,3.354-9.5.07-28.319-15.443-32.351-16.694-4.337-41.154-14.962-57.991-18.079C368.529,236.76,348.761,234.238,346.469,233.934Z" transform="translate(-214.67 -223.972)" fill="#908989" opacity="0.348"/>
    <path id="Path_2736" data-name="Path 2736" d="M346.422,234.339c-2.994-.4-39.516,16.747-44.315,18.914-2.794,1.262-17.992,4.051-21.077,3.928-7.732-.31-28,8.293-33.259,13.32-5.83,5.574-15.365,25.483-10.382,35.339,1.469,21.192,42.829-.673,49.245.166a8.057,8.057,0,0,1,2.663.757c7.93,4.2-2.089,18.966,7.684,21.557,2.688.713,6.186.545,10.411-.681,10.438-3.03,22.309-11.038,29.155-13.475,8.523-3.033,17.453,3.576,24.9,3.664,8.475.087,14.666-5.031,23.024-5.343,2.7-.1,6.455.6,10.763,1.182,15,2.021,30.437-6.127,36.477-10.49,5.2-3.759,20.586-4.28,23.539-13.943,2.85-9.32-.625-27.508-15.657-31.477-16.277-4.3-40.148-14.673-56.712-17.8C368.022,237.146,348.835,234.659,346.422,234.339Z" transform="translate(-214.424 -223.853)" fill="#8a8383" opacity="0.366"/>
    <path id="Path_2737" data-name="Path 2737" d="M346.376,234.744c-3.144-.416-38.766,17.03-43.8,19.3-2.934,1.325-17.713,4.014-20.951,3.883-8.121-.325-28.158,7.557-33.3,12.479-5.745,5.5-14.867,24.779-10.218,34.578,1.026,21.764,42.691-.932,48.918-.1a8.309,8.309,0,0,1,2.668.76c8.214,4.252-2.171,19.058,7.661,21.5,2.7.67,6.207.443,10.412-.826,10.483-3.163,22.409-11.331,29.108-13.65,8.356-2.893,17.212,4.359,24.779,4.451,8.55.093,14.513-5.535,22.637-5.967,2.639-.14,6.386.568,10.7,1.176,14.847,2.09,30.422-5.327,36.434-9.733,5.14-3.765,19.446-4.6,21.9-14.137,2.348-9.132-1.321-26.7-15.873-30.6-15.858-4.253-39.14-14.382-55.429-17.525C367.515,237.534,348.91,235.078,346.376,234.744Z" transform="translate(-214.178 -223.733)" fill="#857c7c" opacity="0.384"/>
    <path id="Path_2738" data-name="Path 2738" d="M346.331,235.149c-3.295-.437-38.015,17.311-43.292,19.695-3.074,1.389-17.433,3.977-20.825,3.841-8.507-.341-28.31,6.822-33.346,11.637-5.665,5.42-14.372,24.076-10.058,33.816.582,22.336,42.554-1.184,48.593-.362a8.517,8.517,0,0,1,2.672.761c8.5,4.319-2.252,19.153,7.638,21.435,2.711.628,6.228.344,10.416-.969,10.527-3.3,22.512-11.626,29.063-13.826,8.188-2.75,16.967,5.144,24.657,5.24,8.624.1,14.366-6.049,22.252-6.593,2.58-.178,6.315.536,10.636,1.173,14.69,2.161,30.406-4.529,36.4-8.977,5.078-3.772,18.306-4.919,20.254-14.333,1.85-8.94-2.015-25.89-16.089-29.729-15.44-4.211-38.134-14.092-54.149-17.249C367.009,237.92,348.985,235.5,346.331,235.149Z" transform="translate(-213.933 -223.613)" fill="#7f7676" opacity="0.402"/>
    <path id="Path_2739" data-name="Path 2739" d="M346.285,235.553c-3.445-.456-37.263,17.6-42.78,20.086-3.214,1.452-17.156,3.939-20.7,3.8-8.892-.358-28.461,6.084-33.387,10.8-5.585,5.342-13.877,23.372-9.9,33.054.14,22.908,42.417-1.441,48.269-.625a8.7,8.7,0,0,1,2.674.765c8.78,4.381-2.334,19.243,7.615,21.373,2.727.583,6.252.24,10.42-1.113,10.574-3.431,22.615-11.919,29.018-14,8.021-2.609,16.724,5.926,24.538,6.027,8.7.1,14.19-6.953,21.865-7.218a67.351,67.351,0,0,1,10.572,1.168c14.533,2.234,30.391-3.728,36.357-8.221,5.017-3.777,17.17-5.233,18.609-14.528,1.355-8.746-2.71-25.082-16.3-28.855-15.023-4.171-37.127-13.8-52.867-16.973C366.5,238.308,349.06,235.92,346.285,235.553Z" transform="translate(-213.688 -223.493)" fill="#797070" opacity="0.421"/>
    <path id="Path_2740" data-name="Path 2740" d="M346.239,235.957c-3.593-.476-36.511,17.878-42.267,20.478-3.354,1.514-16.877,3.9-20.578,3.755-9.281-.373-28.614,5.349-33.43,9.953-5.5,5.266-13.38,22.67-9.734,32.294-.3,23.48,42.28-1.695,47.942-.89a9.04,9.04,0,0,1,2.679.766c9.06,4.446-2.417,19.337,7.593,21.31,2.74.541,6.273.141,10.422-1.253,10.618-3.567,22.717-12.213,28.972-14.179,7.852-2.466,16.479,6.71,24.416,6.815,8.773.105,14.036-7.47,21.479-7.845,2.474-.124,6.172.469,10.509,1.166,14.375,2.3,30.374-2.93,36.315-7.466,4.954-3.784,16.041-5.544,16.968-14.722.864-8.549-3.406-24.272-16.521-27.982-14.6-4.13-36.119-13.507-51.586-16.7C366,238.7,349.136,236.34,346.239,235.957Z" transform="translate(-213.444 -223.373)" fill="#736a6a" opacity="0.439"/>
    <path id="Path_2741" data-name="Path 2741" d="M346.2,236.361c-3.745-.5-35.76,18.161-41.757,20.869-3.494,1.578-16.6,3.865-20.453,3.711-9.666-.388-28.765,4.612-33.47,9.114-5.423,5.187-12.886,21.965-9.573,31.53-.747,24.051,42.142-1.948,47.615-1.154a9.331,9.331,0,0,1,2.683.769c9.346,4.5-2.5,19.433,7.571,21.251,2.754.5,6.294.038,10.426-1.4,10.66-3.7,22.817-12.509,28.925-14.355,7.686-2.322,16.237,7.493,24.3,7.6,8.846.109,13.879-7.99,21.091-8.47,2.417-.161,6.1.436,10.446,1.161,14.219,2.37,30.36-2.129,36.275-6.71,4.894-3.789,14.914-5.853,15.325-14.917.377-8.35-4.1-23.464-16.736-27.108-14.185-4.09-35.113-13.214-50.3-16.419C365.492,239.085,349.21,236.761,346.2,236.361Z" transform="translate(-213.199 -223.253)" fill="#6d6464" opacity="0.457"/>
    <path id="Path_2742" data-name="Path 2742" d="M346.151,236.766c-3.894-.516-35.008,18.443-41.245,21.26-3.633,1.642-16.318,3.828-20.327,3.667-10.053-.4-28.918,3.877-33.513,8.273-5.341,5.109-12.389,21.264-9.412,30.771-1.189,24.623,42.007-2.2,47.292-1.417a9.616,9.616,0,0,1,2.685.77c9.637,4.543-2.579,19.525,7.548,21.188,2.767.455,6.316-.064,10.429-1.539,10.705-3.841,22.921-12.8,28.881-14.53,7.519-2.181,15.991,8.276,24.175,8.391,8.92.113,13.724-8.511,20.706-9.1,2.36-.2,6.031.4,10.382,1.158,14.062,2.436,30.343-1.329,36.235-5.954,4.833-3.794,13.794-6.162,13.681-15.111-.1-8.152-4.8-22.659-16.951-26.235-13.766-4.051-34.106-12.92-49.023-16.142C364.988,239.475,349.287,237.181,346.151,236.766Z" transform="translate(-212.956 -223.133)" fill="#675d5d" opacity="0.476"/>
    <path id="Path_2743" data-name="Path 2743" d="M346,237.17c-4.044-.535-34.257,18.726-40.734,21.651-3.772,1.705-16.038,3.791-20.2,3.624-10.441-.419-29.071,3.141-33.557,7.431-5.258,5.031-10.267,20.25-9.249,30.008,2.622,25.111,41.87-2.455,46.966-1.682a9.891,9.891,0,0,1,2.689.774c9.917,4.612-2.659,19.618,7.526,21.128,2.781.411,6.338-.167,10.433-1.683,10.748-3.977,23.023-13.095,28.835-14.706,7.352-2.038,15.749,9.06,24.055,9.178,8.995.118,13.568-9.031,20.32-9.721,2.3-.235,5.961.368,10.317,1.153,13.908,2.5,30.33-.526,36.194-5.2,4.772-3.8,12.68-6.469,12.038-15.306-.578-7.95-5.491-21.852-17.166-25.361-13.349-4.012-33.1-12.627-47.742-15.866C364.376,239.864,349.257,237.6,346,237.17Z" transform="translate(-212.605 -223.014)" fill="#625757" opacity="0.494"/>
    <path id="Path_2744" data-name="Path 2744" d="M345.97,237.575c-4.195-.554-33.505,19.01-40.222,22.043-3.913,1.767-15.759,3.754-20.077,3.581-10.827-.434-29.222,2.4-33.6,6.59-5.179,4.952-9.865,19.608-9.088,29.247,2.073,25.767,41.731-2.7,46.64-1.945a10.224,10.224,0,0,1,2.693.774c10.2,4.661-2.742,19.713,7.5,21.067,2.794.371,6.357-.27,10.437-1.826,10.791-4.117,23.126-13.388,28.789-14.882,7.185-1.9,15.5,9.843,23.935,9.965,9.067.123,13.411-9.556,19.932-10.346,2.248-.272,5.891.335,10.254,1.148,13.751,2.566,30.315.275,36.156-4.44,4.709-3.8,11.573-6.779,10.394-15.5C438.67,275.3,433.53,262,422.333,258.562c-12.93-3.974-32.092-12.331-46.46-15.59C363.886,240.256,349.347,238.022,345.97,237.575Z" transform="translate(-212.376 -222.894)" fill="#5c5151" opacity="0.512"/>
    <path id="Path_2745" data-name="Path 2745" d="M345.941,237.98c-4.342-.576-32.753,19.291-39.708,22.433-4.053,1.831-15.482,3.717-19.954,3.539-11.213-.45-29.374,1.667-33.64,5.748-5.1,4.874-9.465,18.962-8.926,28.485,1.5,26.417,41.594-2.955,46.315-2.208a10.6,10.6,0,0,1,2.7.777c10.489,4.717-2.824,19.807,7.48,21.006,2.809.327,6.379-.373,10.439-1.97,10.833-4.256,23.228-13.681,28.744-15.059,7.017-1.753,15.26,10.626,23.813,10.754,9.143.127,13.259-10.08,19.548-10.972,2.193-.311,5.819.3,10.19,1.145,13.594,2.628,30.3,1.076,36.115-3.685,4.648-3.807,10.472-7.09,8.751-15.695-1.511-7.554-6.881-20.243-17.6-23.614-12.51-3.935-31.086-12.035-45.178-15.312C363.4,240.647,349.439,238.443,345.941,237.98Z" transform="translate(-212.148 -222.774)" fill="#564b4b" opacity="0.53"/>
    <path id="Path_2746" data-name="Path 2746" d="M345.916,238.384c-4.493-.6-32,19.575-39.2,22.825-4.193,1.893-15.2,3.68-19.828,3.494-11.6-.465-29.527.931-33.683,4.907-5.015,4.8-9.073,18.311-8.765,27.725.886,27.058,41.458-3.208,45.989-2.473a11,11,0,0,1,2.7.778c10.778,4.763-2.906,19.9,7.457,20.945,2.82.284,6.4-.477,10.443-2.111,10.874-4.4,23.33-13.975,28.7-15.236,6.851-1.61,15.016,11.409,23.692,11.541,9.218.131,13.1-10.607,19.162-11.6,2.136-.35,5.748.265,10.125,1.14,13.44,2.693,30.287,1.879,36.074-2.928,4.589-3.813,9.38-7.4,7.109-15.89-1.968-7.36-7.575-19.438-17.813-22.74-12.092-3.9-30.081-11.74-43.9-15.036C362.911,241.039,349.535,238.862,345.916,238.384Z" transform="translate(-211.923 -222.654)" fill="#504444" opacity="0.549"/>
    <path id="Path_2747" data-name="Path 2747" d="M345.893,238.788c-4.643-.615-31.25,19.859-38.685,23.216-4.332,1.957-14.924,3.642-19.705,3.452-11.986-.481-29.678.2-33.724,4.065-4.934,4.72-8.684,17.655-8.6,26.962.24,27.691,41.317-3.456,45.664-2.736a11.365,11.365,0,0,1,2.7.781c11.059,4.825-2.987,20,7.435,20.882,2.834.241,6.421-.58,10.448-2.254,10.914-4.537,23.432-14.267,28.651-15.412,6.683-1.467,14.773,12.192,23.573,12.328,9.29.136,12.946-11.134,18.774-12.222,2.081-.389,5.678.228,10.062,1.137,13.285,2.754,30.274,2.679,36.035-2.174,4.529-3.815,8.291-7.721,5.465-16.084-2.421-7.169-8.269-18.635-18.029-21.867-11.672-3.865-29.075-11.442-42.617-14.758C362.426,241.432,349.632,239.283,345.893,238.788Z" transform="translate(-211.701 -222.535)" fill="#4a3e3e" opacity="0.567"/>
    <path id="Path_2748" data-name="Path 2748" d="M345.875,239.193c-4.792-.635-30.5,20.141-38.174,23.607-4.472,2.02-14.646,3.606-19.579,3.408-12.373-.5-29.831-.541-33.766,3.225-4.853,4.642-8.3,16.992-8.442,26.2-.434,28.313,41.181-3.708,45.338-3a11.968,11.968,0,0,1,2.707.784c11.347,4.869-3.07,20.111,7.413,20.82,2.847.2,6.44-.683,10.45-2.4,10.954-4.681,23.535-14.56,28.606-15.588,6.517-1.321,14.529,12.977,23.452,13.116,9.363.141,12.789-11.662,18.386-12.847,2.025-.428,5.609.193,10,1.133,13.13,2.814,30.26,3.483,35.995-1.417,4.468-3.82,7.207-8.046,3.821-16.279-2.871-6.984-8.964-17.834-18.245-20.993-11.252-3.832-28.07-11.142-41.334-14.481C361.945,241.825,349.734,239.7,345.875,239.193Z" transform="translate(-211.483 -222.415)" fill="#443838" opacity="0.585"/>
    <path id="Path_2749" data-name="Path 2749" d="M345.859,239.6c-4.942-.654-29.746,20.425-37.662,24-4.611,2.084-14.366,3.568-19.453,3.365-12.759-.511-29.984-1.277-33.81,2.382-4.772,4.565-7.919,16.326-8.279,25.44-1.141,28.923,41.044-3.956,45.013-3.264a12.5,12.5,0,0,1,2.71.784c11.636,4.913-3.151,20.2,7.39,20.76,2.862.161,6.462-.788,10.455-2.54,10.994-4.824,23.636-14.852,28.56-15.763,6.351-1.177,14.285,13.759,23.332,13.9,9.438.146,12.632-12.194,18-13.472,1.967-.469,5.539.156,9.935,1.128,12.977,2.872,30.249,4.288,35.956-.661,4.409-3.822,6.127-8.376,2.177-16.474-3.317-6.8-9.656-17.034-18.46-20.12-10.832-3.8-27.062-10.841-40.055-14.2C361.469,242.219,349.84,240.125,345.859,239.6Z" transform="translate(-211.269 -222.295)" fill="#3f3232" opacity="0.604"/>
    <path id="Path_2750" data-name="Path 2750" d="M345.849,240c-5.091-.674-29,20.707-37.15,24.39-4.752,2.146-14.087,3.531-19.329,3.322-13.148-.528-30.135-2.014-33.853,1.542-4.69,4.486-7.543,15.649-8.117,24.678-1.881,29.518,40.905-4.205,44.687-3.529a12.992,12.992,0,0,1,2.713.788c11.921,4.965-3.231,20.3,7.367,20.7,2.876.118,6.482-.892,10.457-2.683,11.034-4.966,23.742-15.143,28.516-15.94,6.184-1.032,14.041,14.543,23.21,14.691,9.513.149,12.476-12.727,17.616-14.1,1.91-.508,5.469.119,9.87,1.124,12.823,2.93,30.238,5.089,35.914.1,4.35-3.828,5.052-8.715.537-16.67-3.764-6.627-10.35-16.233-18.677-19.246-10.411-3.767-26.057-10.54-38.772-13.927A246.035,246.035,0,0,0,345.849,240Z" transform="translate(-211.059 -222.175)" fill="#392c2c" opacity="0.622"/>
    <path id="Path_2751" data-name="Path 2751" d="M345.843,240.407c-5.241-.694-28.243,20.99-36.639,24.78-4.891,2.209-13.808,3.494-19.2,3.278-13.533-.542-30.287-2.749-33.893.7-4.608,4.409-7.168,14.968-7.956,23.917-2.652,30.1,40.765-4.453,44.362-3.791a13.709,13.709,0,0,1,2.718.79c12.207,5.01-3.314,20.388,7.344,20.637,2.888.074,6.5-1,10.46-2.828,11.072-5.113,23.843-15.433,28.469-16.113,6.018-.887,13.8,15.325,23.091,15.478,9.586.154,12.317-13.261,17.23-14.723,1.853-.552,5.4.08,9.807,1.12,12.669,2.989,30.225,5.892,35.874.851,4.292-3.829,3.977-9.06-1.107-16.864-4.208-6.459-11.041-15.435-18.892-18.372-9.989-3.737-25.054-10.238-37.492-13.651A222.646,222.646,0,0,0,345.843,240.407Z" transform="translate(-210.853 -222.055)" fill="#332525" opacity="0.64"/>
    <path id="Path_2752" data-name="Path 2752" d="M345.841,240.812c-5.391-.714-27.493,21.271-36.127,25.17-5.031,2.273-13.529,3.458-19.08,3.235-13.919-.559-30.44-3.485-33.936-.143-4.527,4.331-6.8,14.28-7.8,23.157-3.452,30.663,40.63-4.7,44.037-4.057a14.344,14.344,0,0,1,2.722.792c12.494,5.057-3.395,20.483,7.321,20.576,2.9.032,6.521-1.1,10.465-2.971,11.11-5.258,23.945-15.724,28.424-16.29,5.849-.74,13.554,16.109,22.969,16.266,9.661.158,12.157-13.8,16.843-15.35,1.795-.594,5.331.043,9.743,1.116,12.518,3.046,30.214,6.7,35.835,1.608,4.232-3.832,2.9-9.411-2.752-17.059-4.654-6.3-11.733-14.64-19.107-17.5-9.567-3.71-24.049-9.934-36.21-13.374A200.935,200.935,0,0,0,345.841,240.812Z" transform="translate(-210.652 -221.935)" fill="#2d1f1f" opacity="0.659"/>
    <path id="Path_2753" data-name="Path 2753" d="M345.843,241.216c-5.541-.734-26.741,21.554-35.614,25.562-5.172,2.337-13.25,3.421-18.957,3.192-14.306-.574-30.59-4.222-33.977-.983-4.445,4.252-6.425,13.581-7.632,22.393-4.279,31.21,40.489-4.947,43.71-4.32a15.19,15.19,0,0,1,2.724.795c12.785,5.1-3.476,20.575,7.3,20.515,2.915-.012,6.54-1.21,10.466-3.113,11.147-5.4,24.048-16.016,28.378-16.469,5.684-.594,13.31,16.894,22.849,17.056,9.735.162,12-14.336,16.457-15.976,1.736-.638,5.26.005,9.679,1.114,12.363,3.1,30.2,7.5,35.794,2.363,4.174-3.835,1.823-9.769-4.394-17.253-5.1-6.14-12.423-13.844-19.323-16.626-9.144-3.685-23.048-9.629-34.929-13.1A181.305,181.305,0,0,0,345.843,241.216Z" transform="translate(-210.455 -221.816)" fill="#271919" opacity="0.677"/>
    <path id="Path_2754" data-name="Path 2754" d="M345.852,241.62c-5.692-.753-25.99,21.838-35.105,25.954-5.31,2.4-12.969,3.383-18.83,3.148-14.692-.59-30.743-4.957-34.019-1.824-4.366,4.175-6.057,12.878-7.473,21.633-5.133,31.738,40.353-5.2,43.386-4.585a16.07,16.07,0,0,1,2.727.8c13.071,5.145-3.557,20.668,7.278,20.454,2.93-.056,6.558-1.313,10.47-3.256,11.182-5.552,24.151-16.305,28.333-16.644,5.516-.447,13.066,17.677,22.729,17.842,9.808.167,11.833-14.876,16.069-16.6,1.678-.683,5.192-.035,9.616,1.109,12.21,3.157,30.191,8.3,35.755,3.117,4.114-3.835.744-10.131-6.038-17.446-5.55-5.987-13.113-13.052-19.538-15.752-8.72-3.663-22.045-9.32-33.648-12.821A162.875,162.875,0,0,0,345.852,241.62Z" transform="translate(-210.263 -221.696)" fill="#211313" opacity="0.695"/>
    <path id="Path_2755" data-name="Path 2755" d="M345.862,242.025c-5.84-.774-25.238,22.119-34.592,26.344-5.45,2.461-12.692,3.347-18.705,3.1-15.08-.6-30.9-5.692-34.063-2.665-4.283,4.1-5.686,12.165-7.309,20.871-6.011,32.245,40.213-5.441,43.059-4.848a17.226,17.226,0,0,1,2.733.8c13.355,5.187-3.638,20.762,7.252,20.392,2.945-.1,6.579-1.42,10.476-3.4,11.219-5.7,24.254-16.594,28.286-16.82,5.35-.3,12.823,18.46,22.608,18.63,9.883.171,11.669-15.418,15.684-17.226,1.617-.727,5.123-.074,9.551,1.1,12.061,3.207,30.183,9.11,35.715,3.874,4.057-3.839-.336-10.5-7.68-17.641-6-5.837-13.8-12.261-19.754-14.879a333.4,333.4,0,0,0-32.367-12.544A145.511,145.511,0,0,0,345.862,242.025Z" transform="translate(-210.075 -221.576)" fill="#1c0c0c" opacity="0.713"/>
    <path id="Path_2756" data-name="Path 2756" d="M345.879,242.43c-5.99-.792-24.486,22.4-34.081,26.735-5.589,2.525-12.411,3.309-18.58,3.061-15.468-.62-31.048-6.429-34.106-3.506-4.2,4.02-5.316,11.443-7.147,20.11-6.914,32.732,40.074-5.687,42.735-5.113a18.462,18.462,0,0,1,2.735.8c13.642,5.233-3.719,20.854,7.231,20.331,2.956-.141,6.593-1.531,10.477-3.542,11.246-5.865,24.356-16.878,28.241-17,5.184-.144,12.58,19.242,22.488,19.417,9.958.176,11.5-15.962,15.3-17.851,1.557-.775,5.057-.122,9.489,1.1,11.916,3.24,30.178,9.923,35.673,4.63,4-3.835-1.421-10.87-9.323-17.835-6.459-5.692-14.489-11.473-19.971-14.005A307.673,307.673,0,0,0,365.953,247.5,131.4,131.4,0,0,0,345.879,242.43Z" transform="translate(-209.892 -221.456)" fill="#160606" opacity="0.732"/>
    <path id="Path_2757" data-name="Path 2757" d="M312.331,269.961c-20.1,9.076-48.483-5.271-52.6-1.329s-4.949,10.714-6.986,19.348c-7.837,33.2,39.934-5.932,42.408-5.377,18.814,4.211-1.7,21.79,9.948,21.073s33.66-20.857,38.676-20.857,12.335,20.025,22.367,20.206,11.329-16.506,14.911-18.477c5.452-3,37.521,13.83,45.058,6.483,7.164-6.988-20.011-25.728-31.152-31.162-12.506-6.1-36.878-15.424-49.06-17.035C339.759,242.021,322.165,265.52,312.331,269.961Z" transform="translate(-209.713 -221.337)" fill="#100000" opacity="0.75"/>
  </g>
  <g id="Group_598" data-name="Group 598" transform="translate(25.817 0)">
    <g id="Group_597" data-name="Group 597">
      <g id="Group_590" data-name="Group 590" transform="translate(0 34.605)">
        <path id="Path_2758" data-name="Path 2758" d="M255,263.765c-9.583,5.581-18.2,15.87-14.84,27.994,1.459,5.262,6.7,8.658,11.627,9.375,6.663.965,8.5-.717,12.589-5.436,6.363-7.352,13.721-13.982,20.215-21.179,3.568-3.956,7.485-9.4,7.29-14.836-.127-3.558-1.635-4.786-4.562-6.024-5.953-2.515-10.5-4.266-16.619-1.116C264.932,255.517,260.57,260.524,255,263.765Z" transform="translate(-239.226 -250.848)" fill="#a22e00"/>
        <path id="Path_2759" data-name="Path 2759" d="M282.077,253.061c2.553-.175-.607,10.472-1.613,12.178-2,3.4-4.41,7.15-6.648,10.6-4.209,6.5-10.642,16.277-17.712,20.123-1.977,1.075-6.4,1.078-7.425,2.653,2.273,1.024,3.3,2.951,6.134,2.176,2.021-.555,4-2.375,5.684-3.545,3.746-2.6,6.374-6.2,9.477-9.464,6.691-7.033,14.957-13.327,18.187-22.549,1.352-3.861,1.848-14.908-5.443-12.173Z" transform="translate(-236.479 -250.319)" fill="#3d0000" opacity="0.32"/>
        <path id="Path_2760" data-name="Path 2760" d="M287.462,265.712a90.1,90.1,0,0,1-7.618,11.237,67.935,67.935,0,0,1-10.006,9.854c-3.93,3.205-7.147,7.327-11.226,10.272-4.342,3.138-10.863,4.079-13.681-1.439,1.82-.812,4.951-.1,7.077-.652a25.164,25.164,0,0,0,7.3-3.513c3.4-2.274,9.613-6.727,8.931-11.259-2.757-1.394-5.975,3.763-8.881,4.066,4.4-6.858,13.961-10.683,20.234-15.9,3.085-2.567,7.868-8.6,5.3-11.876-.928-1.184-4.349-2.276-5.766-2.574a8.4,8.4,0,0,0-6.665,1.124c-2.541,1.42-6.311,5.754-9.251,5.493.2-1.6,1.958-1.984,2.475-3.423-4.161-.475-8.16,4.812-11.2,7.25-3.247,2.6-6.661,6.2-10.181,8.057.045-3.467,6.147-6.683,8.672-8.549,3.063-2.261,5.712-4.969,8.912-7.056,3.586-2.344,7.282-4.821,11.544-5.525C282.563,249.785,293.813,254.941,287.462,265.712Z" transform="translate(-237.775 -250.792)" fill="#3d0000" opacity="0.32"/>
        <path id="Path_2761" data-name="Path 2761" d="M266.263,255.684c-3.1,2.372-10.866,7.764-9.359,12.133a29,29,0,0,1-3.1.985c.147-.624-.226-1.538-.1-2.165-3.544-.838-9.5,5.659-10.936,8.532-.829,1.657-1.875,5.59-1.2,7.456,1.39,3.87,2.158-1.881,4.761-1.553.586,3.086-2.32,5.757-2.518,8.931-.1,1.671-.274,3.966.713,5.384,1.116,1.595,3.1,1.253,3.736,2.583-4.46.9-7.648-6.361-8.54-9.9-1.2-4.755.1-8.713,2.729-12.579,3.133-4.612,5.041-7.915,9.694-11.067,3.448-2.341,7.08-4.83,10.273-7.137Z" transform="translate(-239.27 -249.413)" fill="#3d0000" opacity="0.32"/>
        <path id="Path_2762" data-name="Path 2762" d="M275.911,255.44c.5.336.961.215.594,1.228-5.228,1.644-6.265,5.38-7.578,10.071-1.452,5.179-4.079,8.844-7.041,13.392-2.076,3.19-5.516,10.079-9.07,11.554-6.737,2.8.528-6.627,1.839-8.426,2.181-3,3.961-5.439,5.132-8.981.454-1.381,2.038-3.12.647-4.643-1.531-1.678-3.548.153-5.323.189-.59-3.233,6.268-7.719,8.05-10.142a19.269,19.269,0,0,1,9.848-6.818c1.857-.577,4.664-1,6.5-.381,3.087,1.033,2.106,1.64,1.531,4.223-.792,3.563-1.8,10.045-7.329,9.593-.314-3.156,3.681-5.152,3.432-8.564a9.822,9.822,0,0,0-2.838.593Z" transform="translate(-236.089 -250.453)" fill="#f77505" opacity="0.32"/>
        <path id="Path_2763" data-name="Path 2763" d="M286.534,257.373c1.988,4.005-2.282,10.25-4.339,13.541-5.021,8.035-11.674,18.031-20.305,22.622-5.539,2.951-18.152,7.925-19.83-2.444,4.786,1.31,7.221,2.709,11.595-.6a31.546,31.546,0,0,0,8-9.3c2.355-3.856,5.393-7.808,6.986-11.93.788-2.031,1.9-4.637-.713-5.718-2.1-.869-4.34,1.521-6.3,1.81-.13-2.12,3.387-4.511,4.69-6.123C270.314,254.3,282.677,249.593,286.534,257.373Z" transform="translate(-238.442 -250.138)" fill="#f77505" opacity="0.32"/>
        <path id="Path_2764" data-name="Path 2764" d="M246.539,273.394c.513.236.842.864,1.577,1.017a2.17,2.17,0,0,1-1.866,2.225c-1.81-3.291-3.847-.652-4.226,1.836-3.007-.157.331-3.239.617-4.523.37-1.662-.739-3.855,1.814-3.96a11.426,11.426,0,0,0-1.094,3.45c1.632-1.734,2.837-4.446,5.35-5.017C249.169,270.439,247.749,271.942,246.539,273.394Z" transform="translate(-238.823 -245.634)" fill="#fff" opacity="0.32"/>
        <path id="Path_2765" data-name="Path 2765" d="M258.144,267.144c-.418.548-.836,1.846-1.194,2.469,3.143.248,3.889-3.781,6.654-3.742-.486,2.126-1.653,2.751-3.247,4.033-1.717,1.376-3.089,3.911-4.721,4.927-1.011-.823-.708-2.221-.052-3.187-4.836.157-4.126,9.393-8.569,9.834.217-2.819,2.7-5.647,4.272-7.829a34.846,34.846,0,0,1,3.195-4.227C255.311,268.588,257.642,267.806,258.144,267.144Z" transform="translate(-236.973 -246.392)" fill="#fff" opacity="0.32"/>
        <path id="Path_2766" data-name="Path 2766" d="M258.963,278.686c4.425.682,6.162-3.653,7.738-6.637,3.822,2.512-8.256,14.179-10.063,12.127a6.6,6.6,0,0,0,.943-2.193c-2.729.351-11.339,12.549-14.328,5.154.2-.153.459-.229.642-.375-2.041-1.307-4.414-6-.432-3.848,1.12.6.694,1.909,1.98,2.562,1.009.516,3,0,4.136.371-.324.316-.628,1.155-1.216,1.483,1.831.267,4.834-.674,4.737-2.777-1.608-.511-3.456-.095-5.043-.757,2.55,1.065,10.9-6.806,13-8.047A5.354,5.354,0,0,0,258.963,278.686Z" transform="translate(-238.666 -244.559)" fill="#fff" opacity="0.32"/>
        <path id="Path_2767" data-name="Path 2767" d="M257.693,283.858c-1.754,2.5-3.531,4.034-7.017,4.113-.026-.276.292-.236.258-.511-3.047-.022-4.093.232-6.591-1.677,2.693-.757,5.8-.083,8.547-.564.626-.11,3.181-.377,3.479-1.1.646-1.561-1.039-2.391-2.348-2.315,1.04-.818,7.884-6.132,9.117-5.35C265.387,277.883,258.425,282.81,257.693,283.858Z" transform="translate(-237.765 -243.274)" fill="#fff" opacity="0.32"/>
      </g>
      <g id="Group_591" data-name="Group 591" transform="translate(43.246 35.83)">
        <path id="Path_2768" data-name="Path 2768" d="M315.682,255.938c-5.279,1.849-9.742,3.889-13.558,8.034-4.057,4.406-9.1,7.029-13.722,10.568a48.733,48.733,0,0,0-11.537,13.241c-5.836,9.324-7.295,22.419,6.422,23.745,11.36,1.1,19.237-1.767,28.146-8.759,7.36-5.775,12.577-12.264,17.962-19.887,2.833-4.012,5.211-8.436,8.1-12.43,2.818-3.9,5.657-7.323,7.047-11.879,1.385-4.533,1.285-6.535-3.839-6.726C331.235,251.495,324.514,252.843,315.682,255.938Z" transform="translate(-272.622 -251.793)" fill="#a22e00"/>
        <path id="Path_2769" data-name="Path 2769" d="M305.539,257.539c3.768-1,11.477-2.5,14.691.97,3.334,3.6.206,9.315-1.308,12.734-1.784,4.031-4.2,7.727-5.764,11.955-1.8,4.856-1.219,9.564-4.73,13.8-3.121,3.756-15.088,7.741-15.669,12.138,4.289.3,9.821-4.6,12.54-7.57,3.043-3.327,6.385-5.955,9.622-8.971,6.567-6.12,11.167-15.322,15.726-22.774,1.842-3.012,5.054-6.035,6-9.392.354-1.24.738-5.533-.227-6.5-1.313-1.32-5.347-.555-7.15-.555-8.863,0-15.871.7-23.736,4.17Z" transform="translate(-266.649 -251.39)" fill="#3d0000" opacity="0.32"/>
        <path id="Path_2770" data-name="Path 2770" d="M340.574,258.733c-4.368,7.064-9.594,17.267-16.855,21.842-.893-3.163,15.9-20.521,9.806-22.667-2.407-.849-4.514,4.1-5.316.31-.148-.7,2.034-1.149,1.155-2.565-.536-.857-2.87-.346-3.714-.314-5.091.194-10.2.685-14.824,2.9-6.123,2.934-8.623,7.4-11.63,12.724-2.976,5.266-8.4,13.322-15.587,12.156-.425-2.666,7.6-7.744,9.486-9.905,2.488-2.857,3.832-6.478,6.424-9.3,5.971-6.5,15.22-9.866,23.793-10.962C326.858,252.507,346.237,249.579,340.574,258.733Z" transform="translate(-269.368 -251.685)" fill="#3d0000" opacity="0.32"/>
        <path id="Path_2771" data-name="Path 2771" d="M293.219,300.3c-1.758-.113-3.41-.2-4.8-1.364-2.015-1.679-1.11-1.76-1.342-4.362-2.914-.8-3.662,3.966-7.648,3.8-4.794-.2-3.441-2.84-1.573-5.773-4.7-2.562,4.988-8.327,6.785-3.58,3.45-1.835-.932-2.824-2-3.8-2.184-1.98-1.537-2.994-.713-5.522a14.392,14.392,0,0,1,2.715-5.624c1.3-1.455,3.265-2.172,4.292-3.952-6.836-.306-14.059,14.245-15.684,19.59-3.331,10.962,8.273,18.516,17.729,16.61,4.53-.913,12.177-2.063,14.487-6.676C302.259,298.849,296.881,300.538,293.219,300.3Z" transform="translate(-272.611 -246.356)" fill="#3d0000" opacity="0.32"/>
        <path id="Path_2772" data-name="Path 2772" d="M322.4,260.453a6.455,6.455,0,0,1,1.8-.987c-8.769,5.128-15.265,12.411-20.961,20.864-2.851,4.234-5.637,8.828-7.065,13.56-1.5,4.98-.447,8.463-4.311,12.349-4.294,4.323-8.787,3.413-12.765-.56-3.917-3.913-3.586-9.2-2.174-14.041,2.711-9.294,12.1-16.028,18.931-22.446,5.184-4.871,10.1-9.249,16.922-11.547,5.614-1.892,15.408-5.1,21.45-2.574-2.391,2.7-12.242,2.735-13.433,6.343Z" transform="translate(-271.636 -251.096)" fill="#f77505" opacity="0.32"/>
        <path id="Path_2773" data-name="Path 2773" d="M299.149,278.078c-1.179,2.093-1.534,4.336-2.576,6.329-1.065,2.031-2.523,3.633-3.358,5.764a26.45,26.45,0,0,0-1.853,7.067c-.239,2.553.781,5.19-1.2,7.134-2.548,2.51-2.783-.069-4.809-.485-1.721-.354-2.556.209-4.188,1.32-1.609-2.134-3.032-4.074-5.2-1.193-4.757-6.01,3.854-17.033,7.386-21.86.7-.956,8.35-9.064,8.69-5.748.106,1.014-3.341,3.839-3.965,4.721-1.192,1.686-2.5,3.61-2.1,5.789,3.362,1.354,6.892-6.864,8.684-9.165,2.928-3.764,5.52-7.85,8.917-11.243a39.278,39.278,0,0,1,11.212-7.7c3.242-1.569,9.441-5.97,13-3.655C316.527,261.4,305.823,266.25,299.149,278.078Z" transform="translate(-272.046 -250.992)" fill="#f77505" opacity="0.32"/>
        <path id="Path_2774" data-name="Path 2774" d="M333.536,255.795c-3.2,2.33-4.249,6.731-7.12,9.541-3.375,3.3-7.956,4.782-11.4,8.179a91.813,91.813,0,0,0-9.7,11.461c-2.877,4.033-3.593,9-5.847,13.158-2.6,4.808-7.465,6.338-12.767,6.1-2.146-.095-4.861-1.774-7.03-.65-3.188,1.658.379,3.347,2.469,4.252,8.7,3.75,23.037-4.315,28.617-10.977,3.3-3.94,5.819-8.739,9.561-12.2a65.526,65.526,0,0,0,9.941-11.55c2.164-3.266,6.415-6.958,7.7-10.653,2.261-6.505-2.989-4.612-6.986-3.78Z" transform="translate(-270.909 -250.606)" fill="#f77505" opacity="0.32"/>
        <path id="Path_2775" data-name="Path 2775" d="M291.621,283.525c-3.137,4.34-5.9,9.923-4.475,14.716-.874.335-2.42,2.13-1.5,3.2,1,1.159,2.911-.96,3.719-1.489a4.453,4.453,0,0,1-.188,2.788c2.552.524,2.587-2.362,2.8-4.055-.542.056-1.3-.22-1.844-.113.28-1.094.91-2.023,1.185-3.12-1.208.294-2.224,1.229-3.431,1.524-.341-2.324,1.713-3.457,2.806-5.026-4.77.281-2.757-1.9-.852-4.154.875-1.036,1.09-1.839,1.775-2.72.947-1.216,1.642-1.351,2.958-2.573,2.4-2.225,9.4-7.238,6.558-11.029-1.59,1.189-2.3,3.356-3.457,5C295.883,279,293.435,281.012,291.621,283.525Z" transform="translate(-268.842 -245.956)" fill="#fff" opacity="0.32"/>
        <path id="Path_2776" data-name="Path 2776" d="M291.939,288.036c1.233-1.2,1.634-3.3,3.471-4.1.214,1.546-.786,2.58-.847,4.088,2.68.316.97-3.445,3.749-3.111-.284,1.241-.976,2.391-.854,3.745,2.355.521,2.395,6.566-.386,6.156-1.063-.156-1.609-7.637-4.1-3.781-.762,1.18,1.22,3.509.029,4.512-2.121,1.782-1.3-3-1.386-3.317-1.32-4.978-1.045,1.92-3.791,1.572-.485-2.5,1.552-3.943,1.188-6.321-.3-.091-.564,0-.867-.1-.6-3.545,5.03-9.089,8.156-9.561.436,1.71-.7,2.767-1.721,4.033-.829,1.027-2.125,1.531-2.639,2.875A12.793,12.793,0,0,0,291.939,288.036Z" transform="translate(-268.134 -244.072)" fill="#fff" opacity="0.32"/>
        <path id="Path_2777" data-name="Path 2777" d="M301.4,299.344c3.388-3.474,9.122-7.535,9.953-12.513.345-2.068-1.919-6.177-.995-7.712,1.294-2.142,5.183-.04,7.081-.708,5.46-1.915,3.352-10.042,2.155-14.028-1.988-6.635,2.763-8.4,8.751-8.982,5.166-.5,10.875-1.931,10.266,5.773-.414,5.159-5.281,11.093-8.592,14.738-4.021,4.42-8.262,8.735-12.026,13.48-2.553,3.218-4.572,6.316-7.93,8.75-3.781,2.736-8.227,4.844-12.19,7.3-3.873,2.395-17.9,8.356-20.384,1.7,3.546-1.657,7.585,1.595,11.753.191A32.192,32.192,0,0,0,301.4,299.344Z" transform="translate(-271.177 -250.853)" fill="#3d0000" opacity="0.32"/>
      </g>
      <g id="Group_592" data-name="Group 592" transform="translate(107.716 32.683)">
        <path id="Path_2778" data-name="Path 2778" d="M369.186,284.27c-1.321-12.481-14.018-21.375-22.975-27.664-3.864-2.714-8.966-7.6-13.72-7.094-5.647.605-7.325,6.4-8.741,11.142-3.265,10.918-.521,20.322,4.868,29.53,5.014,8.566,13.2,13.86,21.391,18.892,6.138,3.776,17.525,4.116,21.24-3.2a18.6,18.6,0,0,0,1.284-12.536c-.612-2.8-1.677-7.8-3.077-10.074-.17.331-.124.681-.27,1Z" transform="translate(-322.343 -249.333)" fill="#a22e00"/>
        <path id="Path_2779" data-name="Path 2779" d="M370.486,291.932c.126.473-.141.768.319,1.2-1.839-5-7.025-9.895-10.181-14.21-3-4.091-6.278-8.11-10.431-11.019-3.589-2.513-11.473-5.683-12.481,1.437-.528,3.741,7.23,9.724,4.4,12.947-.157.179-.323.715-.521.96-1.566-2.08-3.046-3.819-5.749-4.392-2.574-.545-5.438.373-7.793-1.158-3.794-2.469-4.3-9.637-4.584-13.7-.337-4.818,1.317-10.77,5.543-13.447,5.124-3.245,10.363.83,14.014,4.248,6.376,5.961,14.876,10.2,20.2,17.153,3.928,5.135,10.517,15.424,8.14,22.3-.834-.218-.809-.761-1.014-1.618Z" transform="translate(-322.022 -249.365)" fill="#3d0000" opacity="0.32"/>
        <path id="Path_2780" data-name="Path 2780" d="M367.318,285.125c-2.836-2.033-4.542-7.355-7-10.249-2.96-3.482-6.715-7.745-10.465-10.487-3.312-2.422-9.442-5.311-13.6-5.159-8.479.307-.547,8.449-3.33,10.027a12.106,12.106,0,0,0,.973,3.054c-3.1-.174-3.235-3.987-4.9-5.831-3.443-3.815-3.666.589-3.038,3.877.624,3.255.982,6.016,2.609,8.829,1.772,3.061,4.621,3.352,6.294,6.181-4.416,5,3.524,8.476,6.208,11.084,3.441,3.344,8.7,8.431,13.3,10.146,1.227.459,8.069.831,5.673,3.506-1.5,1.679-6.076-1.21-7.356-1.94-4.665-2.667-7.825-6.2-11.579-10.241-3.548-3.822-7.768-5.041-10.977-9.485a44.02,44.02,0,0,1-6.37-13.118c-2.194-8.24,1.942-28.731,13.77-24.243,3.08,1.168,6.823,4.857,9.42,6.993,3.179,2.614,6.223,5.81,9.5,8.173,3.515,2.538,6.442,5.144,8.5,9.368,1.42,2.929,4.059,8.758,4.108,11.32Z" transform="translate(-322.091 -249.047)" fill="#3d0000" opacity="0.32"/>
        <path id="Path_2781" data-name="Path 2781" d="M360,298.35c-4.895-1.807-9.922-.122-14.773-3.109-8.623-5.315-16.877-13.258-17.394-24.385,5.067-1.323,6.71,12.208,13.448,9.258,5.128-2.243-2.119-11.327,4.288-12.952,8-2.031,15.661,7.151,19.29,13.319a25.519,25.519,0,0,1,3.663,11.471C369,299.037,365.855,300.517,360,298.35Z" transform="translate(-320.715 -244.172)" fill="#f77505" opacity="0.32"/>
        <path id="Path_2782" data-name="Path 2782" d="M358.2,291.088c-3.209-2.068-3.387-1.591-7.085-1.12a14.7,14.7,0,0,1-8-1.784c-1.918-.948-4.888-2.589-5.952-4.643-2.115-4.066.825-2.27,3.3-1.358,10.481,3.87,2.043-7,6.342-10.452,1.77-1.421,4.554.521,6.2,1.234.993.432,1.928,1.472,3.293,1.312,1.307-.153,1.779-1.695,2.9-1.9C367.083,270.939,368.1,297.468,358.2,291.088Z" transform="translate(-318.161 -242.882)" fill="#f77505" opacity="0.32"/>
        <path id="Path_2783" data-name="Path 2783" d="M356.585,301.65c-4.406.057-16.111-7.579-14.081-12.969,3.091.373,4.414,5.642,8.32,3.876,3.864-1.743,1.682-6.3.738-9.08-.761-2.246-3.226-8.313.437-7.868,2.959.357,3.541,6.239,6.7,6.294.748.016,1.294-6.107,1.543-6.779C369.323,275.244,365.4,301.529,356.585,301.65Z" transform="translate(-316.432 -241.725)" fill="#f77505" opacity="0.32"/>
        <path id="Path_2784" data-name="Path 2784" d="M338.171,278.64c-4.563,2.177,2.668,3.828,3.759,4.126,2.956.808,5.3,3.472,8.38.3.919-.949,2.16-2.729,1.35-4.136-1.279-2.225-2.662,1-4.72.11-2.172-.935-1.494-5.053-4.633-4.6.832.5,1.037,1.251,1.517,1.787-5.976,2.65-8.57-5.939-11.993-8.433C332.033,269.006,337.537,278.945,338.171,278.64Z" transform="translate(-319.528 -243.9)" fill="#fff" opacity="0.32"/>
        <path id="Path_2785" data-name="Path 2785" d="M348.239,280.754c-.442-.451-1.241.209-.825-.839,1.726.982,1.177,3.282-1.023,3.048-.753-.079-1.114-1.749-1.945-1.953-1.36-.332-1.1.283-2.16.4-3.579.4-7.476,1.088-9.095-3.565,1.8.2,4.822,2.464,6.544,1.962,2.011-.59,2.222-2.916.089-3.708a2.122,2.122,0,0,0-.162-.975c2.232-.567,2.8,3.274,5.533,3.142.442-1.98-.8-3.476-1.286-5.244a2.721,2.721,0,0,1,1.3-.114c1.264,3.668,1.194,3.587,4.665,4.886,1.046.393,2.615,1.651,3.8,1.852,1.411.232,2.64-.851,3.975-1-.714,8.891-7.65-4.737-8.93,1.072-1.7-2.8-4.276-.407-1.507,1.2-.276.624-.39.025-.79.21Z" transform="translate(-319.125 -242.388)" fill="#fff" opacity="0.32"/>
      </g>
      <g id="Group_594" data-name="Group 594" transform="translate(3.844)">
        <g id="Group_593" data-name="Group 593">
          <path id="Path_2786" data-name="Path 2786" d="M301.143,230.407c15.289-2.347,29.8-6.993,45.708-6.146,14.1.749,28.063,16.957,14.072,28.027a63.19,63.19,0,0,1-16.588,9.862c-6.538,2.525-13.766,3.082-20.206,5.293-7.747,2.663-13.573,3.689-21.567,4.907-7.2,1.1-13.777-.873-21.625-.481-7.157.354-16.661,3.037-23.578,1.948-4.221-.665-4.384-2.853-6.854-6.133-1.914-2.545-5.227-4.422-6.989-6.99-6.267-9.13,12.134-20.309,18.783-23.443C274.337,231.577,288.274,232.386,301.143,230.407Z" transform="translate(-242.235 -224.16)" fill="#a22e00"/>
          <path id="Path_2787" data-name="Path 2787" d="M263.967,245.769c6.972-.958,15.617-2.93,22.105-.935,2.579.794,7.916,2.662,6.412,6.359-1.307,3.213-8.082,2.409-10.715,2.274-7.379-.372-15.724-1.271-22.586,1.47-3.828,1.531-5.622,3.5-.484,4.76,2.971.727,6.473-.851,9.589-1.429,7.845-1.459,13.643,1.289,21.66.491,15.433-1.536,29.278-5.3,44.263-8.07,6.07-1.123,9.886-3.041,15.278-5.52,3.233-1.487,13.157-6.495,15.573-3.234-3.389,3.625-12.345,7.649-17.018,9.969-6.208,3.085-12.659,4.769-19.124,6.737-15.26,4.647-30.4,6.372-46.67,6.372-4.721,0-9.36.27-13.952.482-3.982.187-10.321,1.727-13.6-.377-1.568-1-2.112-3.178-3.587-4.552-1.408-1.311-3.374-1.774-4.836-2.872-4.795-3.611-4.995-8.585.58-11.062C252.04,244.329,258.527,246.518,263.967,245.769Z" transform="translate(-242.105 -219.207)" fill="#3d0000" opacity="0.32"/>
          <path id="Path_2788" data-name="Path 2788" d="M333.77,237.208c2.028.079,9-.388,9.191,2.889.132,2.377-5.835,3.825-7.227,4.7,2.431-.069,4.957-.316,6.264,2.033-3.315,5.447-13.934,4.97-19.294,6.359-5.39,1.4-16.291,2.565-20.155,6.535,3.819.379,11.123-2.432,13.479.59-1.347,1.221-3.035,1.61-4.337,2.779,9.377,1.71,24.287-6.879,31.088-13.027a12.858,12.858,0,0,0-10.39-22.4c1.548,3.7,10.787,1.854,9.97,7.54-4.416.861-7.383-2.886-11.885-1.3,0,.564-.149,1.22-.143,1.78-4.017.083-12.185-1.512-14.225,2.962C321.782,239.751,327.941,236.984,333.77,237.208Z" transform="translate(-224.343 -223.154)" fill="#3d0000" opacity="0.32"/>
          <path id="Path_2789" data-name="Path 2789" d="M280.785,232.82a7.358,7.358,0,0,1,0,1.779c-5.624,1.472-23.626,1-24.379,9.154,2.606-.088,4.753-1.223,7.562-.807-1.338,3.736-8.755,2-11.015,5.688-4.42,7.212,5.854,2.132,8.175,1.91,2.57-.242,2.728,1.1,5.307,1.456,2.274.318,5.014-.691,7.218-.962,4.134-.51,10.456-2.482,13.914.389-5.29,1.77-32.451.2-32.123,7.239,2.327.115,4.753.019,7.08.156-1.023,1.229-2.964,2.631-2.741,4.643,6.842,2.7,15.982-4.211,22.935-.757-3.612,4.681,7.987,2.75,10.177,2.391,4.829-.794,9.609-2.544,14.373-2.91-.181.453-.214,1.282-.358,1.757,10.9,2.311,21.653-5.786,33.1-5.113-10.835,6.976-28.474,9.36-41.231,9.9-7.143.3-15.179.108-22.721.108-5.189,0-17.886,3.589-21.226-.974,5.443-6.827-7.415-6.367-5.187-11.534-1.76-1.894-4.807-1.487-7.18-2.492a10.769,10.769,0,0,0,0-1.277l4.642-1.609c-.879-4.033,1.691-4.665,4.811-5.3C249.887,234.21,280.948,234.8,280.785,232.82Z" transform="translate(-242.166 -221.59)" fill="#3d0000" opacity="0.32"/>
          <path id="Path_2790" data-name="Path 2790" d="M309.32,232.069c4.069.6,10.8-3.02,14.345-.275-2.86,4.764-12.122,4.2-15.626,9.222,3.5,1.95-1.511,2.894-2.936,3.61-1.878.94-4.131,2.091-4.17,4.492-.1,6.409,9.005,4.459,12.524,4.792,2.42.231,4.441,1.142,7.121.738,2.387-.362,4.895-1.024,7.3-1.346,4.54-.608,11.13-2.626,15.732-.995,5.936,2.1-4.726,5.684-7.323,6.5-4.913,1.547-10.289,3.269-15.473,4.42a100.307,100.307,0,0,1-31.106,2.246c-7.173-.63-14.071-1.945-21.489-1.925-3.459.009-20.508-.618-18.869-6.359,2.082-1.071,5.638.215,7.963.336a41.745,41.745,0,0,0,8.018-.375c3.948-.554,13.049-.5,15.437-4.178-2.56-3.706-10.826-2.019-14.546-1.683-4.7.424-10.891,1.785-15.4.148-6.443-2.34-1.049-6.836,2.237-9.7,4.125-3.592,9.774-5.351,14.835-7.129a99.064,99.064,0,0,1,14.419-4.116c5.513-1.028,9.781.355,15.038.63,2.609.137,5.255-.812,7.9-.644C306.862,230.581,308.445,231.94,309.32,232.069Z" transform="translate(-240.581 -222.392)" fill="#f77505" opacity="0.32"/>
          <path id="Path_2791" data-name="Path 2791" d="M307.873,229.575c-.153.23-.03.6-.095.867-.5.032-1.036-.031-1.516-.009.237-.233.5-.866.888-1.148a18.731,18.731,0,0,1-2.561-1.036c.926.314,1.514-.941,2.525.586a3.723,3.723,0,0,1,3.9-.454C310.8,230.236,309.347,229.9,307.873,229.575Z" transform="translate(-223.737 -223.011)" fill="#fff" opacity="0.32"/>
          <path id="Path_2792" data-name="Path 2792" d="M310.557,230.033c-.154.23-.03.6-.1.866-.494.034-1.033-.029-1.514-.008.239-.233.5-.865.889-1.148a19.09,19.09,0,0,1-2.562-1.036c.926.314,1.513-.941,2.525.585a3.729,3.729,0,0,1,3.9-.454C313.481,230.694,312.031,230.355,310.557,230.033Z" transform="translate(-222.941 -222.875)" fill="#fff" opacity="0.32"/>
          <path id="Path_2793" data-name="Path 2793" d="M311.547,228.053c-.154.232-.031.6-.095.869-.5.032-1.036-.03-1.516-.009.236-.232.494-.866.888-1.148a18.629,18.629,0,0,1-2.561-1.036c.924.314,1.514-.943,2.525.587a3.724,3.724,0,0,1,3.9-.456C314.47,228.715,313.021,228.374,311.547,228.053Z" transform="translate(-222.647 -223.462)" fill="#fff" opacity="0.32"/>
          <path id="Path_2794" data-name="Path 2794" d="M314.02,229.787c-.154.231-.031.6-.1.867-.5.031-1.035-.031-1.514-.01.237-.232.5-.866.889-1.148a18.492,18.492,0,0,1-2.562-1.037c.925.314,1.516-.941,2.525.587a3.732,3.732,0,0,1,3.9-.455C316.944,230.446,315.494,230.107,314.02,229.787Z" transform="translate(-221.914 -222.948)" fill="#fff" opacity="0.32"/>
          <path id="Path_2795" data-name="Path 2795" d="M315.505,228.548c-.154.232-.032.6-.1.867-.5.034-1.035-.029-1.516-.008.237-.232.5-.866.889-1.148a18.5,18.5,0,0,1-2.561-1.036c.925.314,1.516-.943,2.523.587a3.726,3.726,0,0,1,3.905-.456C318.428,229.21,316.979,228.869,315.505,228.548Z" transform="translate(-221.473 -223.315)" fill="#fff" opacity="0.32"/>
          <path id="Path_2796" data-name="Path 2796" d="M311.052,233.991c-.153.231-.031.6-.1.867-.494.031-1.033-.03-1.514-.008.237-.235.5-.867.888-1.148a18.789,18.789,0,0,1-2.561-1.039c.924.314,1.513-.941,2.525.587a3.729,3.729,0,0,1,3.9-.455C313.975,234.651,312.525,234.311,311.052,233.991Z" transform="translate(-222.794 -221.701)" fill="#fff" opacity="0.32"/>
          <path id="Path_2797" data-name="Path 2797" d="M315.01,232.258c-.153.232-.031.6-.1.869-.5.034-1.033-.03-1.514-.009.236-.232.5-.866.888-1.146a18.969,18.969,0,0,1-2.561-1.036c.925.314,1.514-.945,2.525.586a3.726,3.726,0,0,1,3.9-.456C317.934,232.92,316.483,232.579,315.01,232.258Z" transform="translate(-221.62 -222.214)" fill="#fff" opacity="0.32"/>
          <path id="Path_2798" data-name="Path 2798" d="M311.052,232.506c-.154.232-.031.6-.1.867-.5.035-1.035-.029-1.514-.008.237-.233.5-.867.888-1.146a19.31,19.31,0,0,1-2.561-1.036c.924.314,1.513-.945,2.525.585a3.726,3.726,0,0,1,3.9-.455C313.975,233.167,312.525,232.826,311.052,232.506Z" transform="translate(-222.794 -222.141)" fill="#fff" opacity="0.32"/>
          <path id="Path_2799" data-name="Path 2799" d="M305.61,236.465c-.156.229-.031.6-.1.867-.494.032-1.033-.031-1.513-.01.237-.232.5-.865.889-1.145a18.892,18.892,0,0,1-2.561-1.037c.923.314,1.513-.943,2.522.587a3.732,3.732,0,0,1,3.905-.458C308.531,237.125,307.084,236.785,305.61,236.465Z" transform="translate(-224.408 -220.967)" fill="#fff" opacity="0.32"/>
          <path id="Path_2800" data-name="Path 2800" d="M308.576,235.723c-.153.23-.03.6-.093.867-.5.032-1.036-.03-1.516-.009.239-.232.5-.866.888-1.148a18.951,18.951,0,0,1-2.56-1.036c.925.314,1.514-.943,2.522.585a3.734,3.734,0,0,1,3.905-.454C311.5,236.383,310.052,236.043,308.576,235.723Z" transform="translate(-223.528 -221.187)" fill="#fff" opacity="0.32"/>
          <path id="Path_2801" data-name="Path 2801" d="M316.246,237.948c-.153.231-.029.6-.093.869-.5.032-1.036-.031-1.517-.009.239-.233.5-.865.889-1.148a18.571,18.571,0,0,1-2.561-1.036c.926.314,1.516-.941,2.525.586a3.726,3.726,0,0,1,3.9-.454C319.171,238.609,317.721,238.27,316.246,237.948Z" transform="translate(-221.253 -220.527)" fill="#fff" opacity="0.32"/>
          <path id="Path_2802" data-name="Path 2802" d="M313.772,239.186c-.153.232-.03.6-.095.867-.5.032-1.036-.03-1.514-.009.237-.233.5-.867.888-1.146a18.933,18.933,0,0,1-2.561-1.037c.925.315,1.514-.944,2.522.587a3.727,3.727,0,0,1,3.905-.456C316.7,239.847,315.246,239.506,313.772,239.186Z" transform="translate(-221.987 -220.16)" fill="#fff" opacity="0.32"/>
          <path id="Path_2803" data-name="Path 2803" d="M321.619,241.133c.1-.528-.169-1.29-.112-1.826-1.988-1.081-2.661.777-3.146,2.229-1.526-.984-.332-2-1.531-3.2-.469.713-1.136,1-1.417,1.818-.532-.329-1.31-.231-1.872-.939-.913,1.535-2.042.161-3.185.521-.184.058-3.609,1.282-3.194,1.417-3.638-1.189,1.371-2.994,2.453-3.456,3.085,7.029,16.262,8.582,15.321-1.2a.888.888,0,0,1,.957-.044c.332,1.605.93,3.8-.368,4.894C325.766,238.449,321.887,239.657,321.619,241.133Z" transform="translate(-223.361 -220.547)" fill="#fff" opacity="0.32"/>
          <path id="Path_2804" data-name="Path 2804" d="M320.376,244.249c-.21-.73.051-1.779-.215-2.462,2.128-1.1,2.4,1.844,4.384,2.15-.393-1.066-.928-2.006-.615-3.125,1.394.379,2.186,1.887,3.822,1.835a4.037,4.037,0,0,0-2.142-2.894,6.169,6.169,0,0,1-.333-1.494,8.691,8.691,0,0,0,3.846-1.017c-1.419-1.446-6.724-.175-5.859,2.163-1.457,1.11-3.815,1.69-3.85-.834-2.343-.631-2.452,1.284-2.246,3.111-3.043.427-.873-4.154-4.21-2.6-1.752.816-2.936,3.659-1.636,5.069-.113-3.7,4.357-3.81,4.8-.162a3.518,3.518,0,0,1,.56-.017C316.534,240.94,319.952,242.79,320.376,244.249Z" transform="translate(-221.904 -220.46)" fill="#fff" opacity="0.32"/>
          <path id="Path_2805" data-name="Path 2805" d="M329.28,237.5c1.2-.311,1.572,1.419,1.227,2.847-.9-.536-1.149-1.1-.961-2.47-4.078-1.891.154,5.713-3.418,5.341-.9-1.9,1.32-3.784-1.657-4.467-.171.472-1.093,1.464-1.2,1.926a8.349,8.349,0,0,1-.048-1.892c-1.382-1.477-1.9.624-3.31.887-1.237.231-2.908-.66-4.387-.631,1.75-2.1,6.964-3.308,9.563-3.52-1.345-1.433-3.271-.918-4.83-1.227a9.115,9.115,0,0,1,3.9-.642,14.174,14.174,0,0,1,2.261-.016c.717.171.454,1.345.852,1.393,2.324.279,4.227-1.749,6.774-1a6.272,6.272,0,0,0,0,.854,10.787,10.787,0,0,0-3.191,1.346,3.1,3.1,0,0,1,1.914,2.829c-1.94.054-3.108-3.153-5.084-1.234Z" transform="translate(-220.495 -221.365)" fill="#fff" opacity="0.32"/>
          <path id="Path_2806" data-name="Path 2806" d="M333.672,247.485a31.748,31.748,0,0,1,.865-4.393,7.6,7.6,0,0,0-1.179.008,33.163,33.163,0,0,1-3.262,6.567c-.552-1.7.115-3.686-.962-5.058-1.784,1.394-1.058,4.183-2.9,5.355-.454-1.29,2.036-6.972-.873-5.555-2.259,1.1-.38,5.592-3.883,5-.095-1.871,0-3.806-.095-5.675-3.963-.222-1.505,5.972-5.358,5.035-.073-1.444-.023-2.95-.095-4.4-1.586.113-7.261,8.243-6.416.642-1.926-.016-2.973,2.26-4.763,2.2-2.121-.067-2.993-1.923-1.639-3.472-2.381-.442-6.772,2.53-8.376.342-1.879-2.562,4.24-4.221,6.125-4.2-.6,1.111-2.033,1.636-2.823,2.775,2.873.473,4.114-1.491,6.64-1.617,3.838-.193,1.1,1.289,1.075,3.87,2.637.357,3.561-2.834,6-2.464a6,6,0,0,1-.207,3.432c1.171-.139,5.508-6.338,4.481-1.29,2.617.2,3.382-3.12,5.681-3.43.169.134.026.655.092.864a11.275,11.275,0,0,1,1.186-.154c-.338.538-.547,1.822-.862,2.416,1.259-.311,5.4-5.76,4.47-1.62a3.445,3.445,0,0,0,3.1-1.522,13.812,13.812,0,0,1,.771,2.484c3.1.757,1.813-2.7,4.066-2.781-.006.816.449,1.249.117,2.151,1.679-1.371,1.166-5.857,4.546-3.778,2.853,1.757-.007,4.821-1.074,1.3-1.206,1.106-1.262,2.635-1.993,4.062C335.995,244.86,333.652,247.922,333.672,247.485Z" transform="translate(-226.764 -219.849)" fill="#fff" opacity="0.32"/>
          <path id="Path_2807" data-name="Path 2807" d="M342.115,242.26c-1.865-.779-.192-5.471-3.568-2.28-.423.4-3.351,5.783-2.519.766-2.593-.292-1.5,3.19-3.159,4.475-.3-.533-1.08-.926-1.364-1.586-.782.624-1.408,1.951-2.245,2.435-.976.565-2.521-.048-3.777.6-1.271-3.338-2.963,0-4.49.431-1.662.468-3.15-1.82-5.052.3-.4-4-3.247-.987-5.132-.651-.762-2.9-2.736-.368-4.58-.263-1.78.1-4-1.113-6.05-1.049,2.535-1.4,4.833-.788,7.014-.9,1.466-.074,2.737-.893,4.193-.958,1.271-.057,3.116.969,4.234.9,1.5-.086,3.151-.949,4.676-1.153.3-.041.752.88,1.341.84.795-.056,1.517-1.163,2.243-1.25,1.035-.124,2.523.183,3.858.022a31.34,31.34,0,0,1,4.442-.368c-.27-2.222,2.265-3.1,3.9-2.484.889-1.718,3.9-2.269,5.5-3.223A22.191,22.191,0,0,1,342.115,242.26Z" transform="translate(-225.046 -220.39)" fill="#fff" opacity="0.32"/>
          <path id="Path_2808" data-name="Path 2808" d="M329.68,225.876c.459-.074.73.166.939-.248-2.849-.634-4.28.722-6.321.816-1.56.074-5.126-2.858-5.569.043-1.949-.654-7.893-.049-9.294,1.321.329.17.991.727,1.3.883-2.272.167-7.544-1.014-9,.392.242.156.605.432.9.659-3.514.629-10.772-1.068-13.327,1.524,3.019.3,6.591-.219,9.8-.274a11.469,11.469,0,0,0-1.465,1.245,6.3,6.3,0,0,0,2.493.007c-.056-3.367,3.741-.481,5.131-.319a4.074,4.074,0,0,0-.007-.86,8.889,8.889,0,0,1-1.114-.712c2.649-.248,5.114,1.448,7.454.656a15.262,15.262,0,0,1-2.082-.9,11.83,11.83,0,0,1,4.1-.445c-.478-.128-1.683-.976-2.161-1.14,2.049-1.018,9.058,1.52,9.051-1.067a47.464,47.464,0,0,0,6.57.94c.1-.3-.007-.567.093-.867,2.884.152,10.99-.441,12.829,1.885-1.994,1.979-5.834-.6-7.078,1.868,1.822.109,3.528-.506,5.386-.218-.346.261-.734.96-1.5,1.282.263,1.189.484,1.417,1.82,1.5-.08-.543.184-1.288.1-1.82,1.441-.582,2.972.722,4.379,1.186a3.1,3.1,0,0,0-1.176-2.444c2.493-1.7,3.472,2.671,4.761,3.8.314-.147.589-.261.905-.408.363-3.322-6.976-7.321-6.068-4.429-1.579.486-1.013-2.739-3.178-3.55-1.928-.726-4.34.642-6.39.263.437-.2,1.225-.967,1.553-1.154-1.666-.156-2.987.654-4.464,1.228Z" transform="translate(-228.273 -223.85)" fill="#fff" opacity="0.32"/>
          <path id="Path_2809" data-name="Path 2809" d="M330.652,226.315c-.556.122-1.22.571-1.761.738,2.132,1.911,5.822-2.125,7.373.589-.594.143-1.555.924-2.241,1.015,2.09,1.677,7.974-1.052,8.24,3.4a8.39,8.39,0,0,1-3.111-.546c.648,2.987,3.995,3.654,3.433,7.6-2.187-.2-2.44-6.962-5.076-3.934a5.436,5.436,0,0,0-3.807-1.421c.342,1.845,3.1,1.791,2.466,4.394-2.466.472-4.75-3.615-6.4-1.234.613.456,1.291,1.5,1.922,1.861-2.248.424-3.316-1.613-5.371-1.491.2.749-.053,1.766.222,2.469a6.136,6.136,0,0,0-5.017,2.268,1.917,1.917,0,0,1,.791-2.8,4.989,4.989,0,0,0-3.044.31c.1.517-.2,1.3-.105,1.822a5.012,5.012,0,0,1-2.155-.007c.342-.436.749-1.665,1.208-2.143-2.325-.346-4.909,2.535-6.092.594.931-.857,2.273-.819,3.5-1.339-.074-.98.187-2.115.112-3.1a7.586,7.586,0,0,1,4.73-.97c-.677,1.068-2.007,1.717-2.5,2.783.94-.223,1.592.069,2.46-.555-.229.568-.019,1.559-.207,2.167,3.4,1.045,2.037-2.585,3.723-3.417.826-.407,5.21,1.63,2.687-2.252,2.268-.508,2.482,2.12,4.728,1.179a5.27,5.27,0,0,0-1.858-2.134c1.245-.08,7.843.76,8.249-.126.932-2.047-6.449-1.184-7.357-1.854a9.769,9.769,0,0,1,1.288-.712c-.739-2-3.533-.183-5.043.354.137-.432.079-1.1.232-1.518-3.95-.558-1.2,3.051-2.207,4.433-.5.683-2.509,1.2-3.227.346-.644-.761.46-2.554.615-3.5-2.6-1.142-4.822,4.346-6.1.641a3.11,3.11,0,0,0-3.152,1.417c-1.66-3.479-3.357-1.113-5.782-.5-2.44.613-5.131-.229-7.321-1.372,1.648-1.649,6.05-2.927,8.243-1.763-.327.227-.858.9-1.185,1.122,1.664,1.043,3.448-1.325,5.674-.834a6.4,6.4,0,0,1,.1,1.185c3.524.262.061-2.582-1.057-3.157,2.8-1.425,4.237.39,2.993,2.828-.665,1.3,4.661-1.526,4.471-1.434a8.041,8.041,0,0,1,3.427-.76C325.065,226.72,327.937,226.36,330.652,226.315Z" transform="translate(-225.188 -223.664)" fill="#fff" opacity="0.32"/>
          <path id="Path_2810" data-name="Path 2810" d="M338.845,243.606c-.593,1.258-2.337,2.211-1.652,3.767-1.25.751-2.475,1.451-3.681,2.337a.749.749,0,0,1,.484.038c-2.282,3.526-7.583,6.4-11.783,6.96a10.793,10.793,0,0,1,.009-1.177c1.575-.692,3.418-1.225,4.17-2.888a5.731,5.731,0,0,0,2.556-1.017c-1.819-1.46-3.708-.047-5.5.993-.17-.172-.5-.5-.681-.665,1.14-1.548,5.494-3.817,6.508-1.658,1.522.29,4.387-1.247,5.429-2.2-.319-.267-.663-.969-.953-1.214.669-.156,1.153-.641,1.827-.768,0-.006.016-.883,0-.852-1.77-.639-3.38-1.871-3.421-3.855,2.081-.078,3.042,4.147,5.439,1.875-.648-.442-1.294-1.46-1.92-1.853,3.183-.105,2.736-2.461.335-3.654a6.888,6.888,0,0,1-1.29-2.465c.659.01,1.188-.4,1.827-.423-.214-2.482-3.987-.611-5.307-.386a4.262,4.262,0,0,1,4.247-1.967c2.312.515,1.683,1.431,2.528,3.2C339.139,238.073,340.2,240.732,338.845,243.606Z" transform="translate(-218.513 -221.693)" fill="#fff" opacity="0.32"/>
          <path id="Path_2811" data-name="Path 2811" d="M331.859,250.859c-.38-2.106.995-3.673,3.078-2.582.539-1.076-.156-2.033-1.167-2.774a7.936,7.936,0,0,0,2.9-.385c-.848-.516-.533-.931-.96-1.557.94-.214.909-.661,1.514-1.009-.541-.22-1.123-1.014-1.53-1.2,1.928-.729,2.361-3.762.873-4.906-2.88-2.217-2.748,2.242-5.023.9a14.35,14.35,0,0,0,2.444-1.83c-1.036-1.17-7.323-2.987-2.483-4.731,2.309-.831,5.841,1.658,6.945,3.479C341.764,239.714,338.145,249.184,331.859,250.859Z" transform="translate(-216.29 -222.244)" fill="#fff" opacity="0.32"/>
          <path id="Path_2812" data-name="Path 2812" d="M328.306,250.256c-2.792.2-.1-5.145-1.035-6.437-2.862-3.952-2.368,2.425-2.5,3.536-.226,1.863-1.271,4.768-3.234,5.42-.854-2.44,1.342-6.85-1.267-8.346-1.948,2.015,1.193,5.6-2.823,6.413-.348-2.05.558-3.95.21-6a5.02,5.02,0,0,1-.819-.327c-2.062,1.459.1,5.106-2.989,5.363-.663-1.814.412-4.41-1.253-5.771-1.7,1.268-.456,3.7-2.582,4.881-.914-1.692-3.261-2.829-2.951.257-.306-.423-1.225-.9-1.548-1.288-.873,1.2-2.261,3.192-3.6,1.371-2.3,1.106-2.84,3.619-2.421,6.02.644-1.09,2.024-3.843,3.769-3.839,3.148,0,.7,3.789,3.5,3.813-.089-1.719-.209-4.212,1.916-4.4.28,1.289.411,2.531.753,3.75,2.955.389.927-4.125,4.707-3.1-.041,1.255-.058,3.642,1.588,3.414,1.137-.156.45-2.631,1.988-3.174.386.59,3.128,5.849,2.614,1.363,1.4.124,1.421.045,1.6,1.508,2.235.62,3.515-.709,2.567-2.783a3.965,3.965,0,0,1,1.179-.336c-.1.529.166,1.289.11,1.824-.13,1.282,3.147-.406,3.474-1.1,4.055,7.122,1.833-5.459.934-7.465C328.36,246.021,330.932,250.061,328.306,250.256Z" transform="translate(-225.287 -218.707)" fill="#fff" opacity="0.32"/>
          <path id="Path_2813" data-name="Path 2813" d="M314.614,251.8c1.618-.218,3.057-1.412,4.7-1.505,1.678,4.874,3.771-2.361,5.515-1.027,1.21.924-.608,3.17,1.918,3.213,1.63.027,1.329-1.907,2.484-2.834.377,2.364,2.5,4.293,3.209.944.11.441.318.765.458,1.194,2.324.521,1.241-1.49,2.25-1.8,2.025-.63.94.542,2.746.657,4.782.3,1.3-2.372,2.059-5.477.32-.143.59-.266.905-.408.965,1.026.51,2.429,1.019,3.834,2.973.287.966-5.1,1.282-6.967,1.662.4,1.6,5.845,3.392,4.062,2.151-2.142-2.536-4.617,1.053-6.389.551.91.713,2.06,1.273,2.972.608-1.516.137-3.432.048-5.129a7.1,7.1,0,0,0,.861.008c.38,1.473.016,3.484,1.6,4.169a9.456,9.456,0,0,1-.328,3.76c-.167-.394-1.01-1.177-1.21-1.61-1.627,1.055-.95,2.847-2.575,3.929-.272-.253-.676-.48-.962-.713-.538,1.088-1.027,2.219-2.163,2-.551,1.19-1.336,2.479-2.595,2.8-.134-.285-.026-.578-.11-.882-1.041.787-.987,2.593-2.758,3.129-.717-1.4-2.1-.992-2.973.248a11.506,11.506,0,0,1-.034-1.441c-2.015.106-1.015,2.7-3.111,2.786.169-1.155-.4-1.538-.7-2.234a12.705,12.705,0,0,0-2.478,2.554c-.143-.987-.838-1.483-1.36-2.228-2.273,3.077-2.95,2.881-3.9-1.211a4.111,4.111,0,0,0-1.173.337c-.008.574-.332,2.595-1.083,2.767-2.147.5-.937-1.491-2.172-2.187-3.363-1.9-1.981.625-3.6,2.851-1.372-.995-1.15-4.625-3.738-1.61a14.805,14.805,0,0,0,.875-1.5c-2.89.292-4.1,4.52-7.611,5.034-.232-2.185,2.268-2.674,2.148-4.722-2.278-.355-5.168,1.556-7.247,2.149-.577-.736-1.32-.908-1.743-1.749-3.056.869-12.262,3.5-14.729.513,1.2-3.93,6.641-1.043,9.239-1.289a19.579,19.579,0,0,0-3.159.97c2.464,1.426,7.588-2.091,10.9-1.556-.1,3.052,2.74.506,4.2.257,2.159-.371,3.133.756,4.493,2.117.952-1.85,2.532-3.663,4.691-3.869C314.45,250.765,314.8,251.778,314.614,251.8Z" transform="translate(-229.829 -220.309)" fill="#fff" opacity="0.32"/>
          <path id="Path_2814" data-name="Path 2814" d="M268.584,236.683a6.2,6.2,0,0,1,1.857.643,23.474,23.474,0,0,0-3.134.752c.106.523-.2,1.3-.1,1.822-2.868.694-7.553.472-8.643,3.9,1.354,1.256,4.023-.62,6.077-.274-.148,1.319-1.531,1.771-2.155,2.784a15.123,15.123,0,0,0,3.76-.537c.29,2.6-4.537,2.461-5.757,1.233a24.413,24.413,0,0,1,2.164-1.938c-2.194-.051-5.66,1.635-7.3.016,2.591-4.633,6.479-4.145,10.568-6.495a19,19,0,0,0-2.173-1.131c.908.018,1.584-.385,2.493-.442-.222-.359-.283-1.461-.552-1.83,2.2-.345,4.406-1,6.622-.425.115-.114.233-.224.353-.336.764-.7-7.616-.993-7.8-1.133,2.289-.67,11.855-.773,11.941,2.668C275.057,236.224,269.244,234.042,268.584,236.683Z" transform="translate(-238.341 -221.562)" fill="#fff" opacity="0.32"/>
          <path id="Path_2815" data-name="Path 2815" d="M305,243.761c-1.845-.009-4.582-1.023-6.335-1.044-.41-.005-.74-.953-1.373-.905s-.947.856-1.361.913c-1,.139-1.835.834-3.118.784-1.45-.054-4.809-2.483-3.9,1.486-1.984.284-3.788-1.46-4.817.954-3.755.8-7.785.689-11.059,2.637,3.166-.388,6.413-.631,9.511-.978,3.266-.367,4.848-1.784,8.3-.673a5.093,5.093,0,0,0-.648-1.259c1.324-1.107,2.761.318,4.489.279-.064-1.452.808-2.134,2.246-1.828-.167,3.354,3.833.691,5.5.6,1.621-.093,5.67.488,7.01,1.233-2.5-3.575,4.471-.585,6.093-.32-.3-.615-.042-1.167-.552-1.8,1.652-.692,2,.616,3.763.521.281-2.781,3.009-.91,4.53-1.227a5.876,5.876,0,0,0,4.135-3.16,5.941,5.941,0,0,0-2.477-.329c-.174,3.4-5.985,3.264-4.266-.945-2.984-1.47-1.561,4.039-5.356,3.1.027-.714-.416-1.188-.428-1.819-1.716.123-2.924,5.686-4.787,1.961A10.374,10.374,0,0,1,305,243.761Z" transform="translate(-233.098 -219.923)" fill="#fff" opacity="0.32"/>
        </g>
        <path id="Path_2816" data-name="Path 2816" d="M291.451,231.947c3.418-.171,8.1-1.032,11.2.376-.773.922-1.994,1.246-3.148,1.94,1.858,2.422,7.635,2.121,2.452,6.359-2.692,2.2-7.526,2.655-10.826,3.335a56.9,56.9,0,0,1-12.172,1.212c-1.8-.019-4.991.381-3.551-1.844.856-1.323,3.751-1.243,4.856-2.64-3.877-4.734-30.526,3.743-30.772.368,7.187-2.47,14.015-5.954,21.374-7.939C277.772,231.251,284.4,232.3,291.451,231.947Z" transform="translate(-240.082 -221.973)" fill="#f77505" opacity="0.32"/>
        <path id="Path_2817" data-name="Path 2817" d="M294.664,234.135a58.2,58.2,0,0,0,15.4-.248c4.148-.622,12.23-3.33,16.085-1.6-3.448,2.75-9.924,3.207-14.161,3.848-2.672.4-5.461.176-7.946,1.373-1.719.826-3.2,2.276-4.893,3.108-4.6,2.263-9.18,2.395-14.1,3.146-5.119.779-10.125,1.555-15.147,2.246-4.352.6-17.948-.108-20.391,4.249-1.911,3.408,2.477,5.338,5.066,5.443,2.871.119,7.325-2.311,9.67-.319-2.147,1.229-5.129,2.308-5.876,5.075-5.5,1.914-15.438-4.4-12.764-10.841,2.954-7.124,12.633-10.085,19.188-12.942C274.224,232.552,284.669,232.727,294.664,234.135Z" transform="translate(-241.369 -221.918)" fill="#f77505" opacity="0.32"/>
        <path id="Path_2818" data-name="Path 2818" d="M248.5,245.884a2.4,2.4,0,0,0-.912,1.876c2.846.459,4.868-.674,7.015.681.463.292,1,1.511,1.916,2,1.24.664,2.792.433,4.169.569a79.98,79.98,0,0,0,8.02.322c2.117,0,6.647-.976,5.708,1.844-.622,1.876-4.831,2.784.37,3.947,2.356.526,5.494-.123,7.707-.345,4.93-.494,12.233-.167,15.635-4.563,2.248-2.9.485-2.618-1.875-4.081,2.825-2.854,12.826-5.115,14.826-.012-.9,1.358-4.03,2.692-3.894,4.485.21,2.8,5.161,2.578,7.139,2.574,3.211-.01,15.028.542,15.606-3.786-2.1-1.25-6.079-1.328-2.526-3.592,1.906-1.214,5.451-.617,7.7-.641,5.257-.06,10.148-1.931,15.075-3.288,2.269-.625,5.053-1.238,6.985-2.558,1.643-1.124,2.587-4.315,3.826-5.146,2.456-1.649,4.5.6,4.59,2.981.071,1.852-1.585,4.562-2.571,6.086-5.148,7.957-17.269,11.881-25.41,14.044a288.235,288.235,0,0,1-35.782,6.8c-13.562,1.765-27.795-.109-41.464-.642-5.718-.223-9.393-.543-12.494-5.132-2.818-4.17-5.937-7.374-2.012-11.955.708-.826,1.364-.879,1.748-2.1.613-.3.624.157.906.266Z" transform="translate(-241.712 -220.763)" fill="#3d0000" opacity="0.32"/>
      </g>
      <g id="Group_596" data-name="Group 596" transform="translate(101.081 3.531)">
        <g id="Group_595" data-name="Group 595" transform="translate(0 0.411)">
          <path id="Path_2819" data-name="Path 2819" d="M381.656,245.495c13.752,7.08,28.227,11.843,40.6,21.872,10.973,8.89,12.753,30.208-5.071,30.948a63.1,63.1,0,0,1-19.217-1.762c-6.776-1.8-12.951-5.591-19.463-7.583-7.834-2.4-13.152-4.99-20.337-8.7-6.474-3.341-10.638-8.8-17.221-13.092-6-3.915-15.264-7.326-20.224-12.273-3.024-3.016-1.875-4.882-1.944-8.988-.056-3.182-1.634-6.647-1.553-9.762.293-11.071,21.75-9.309,28.973-7.939C359.276,230.695,370.08,239.535,381.656,245.495Z" transform="translate(-317.226 -227.199)" fill="#a22e00"/>
          <path id="Path_2820" data-name="Path 2820" d="M339.59,239.4c6.2,3.321,14.359,6.8,18.438,12.23,1.619,2.154,4.844,6.8,1.455,8.911-2.947,1.835-7.955-2.8-10.007-4.453-5.754-4.637-11.98-10.266-19.144-12.076-4-1.013-6.608-.469-3.186,3.568,1.975,2.331,5.736,3.112,8.6,4.473,7.207,3.427,10.285,9.06,17.243,13.122,13.392,7.821,26.809,12.907,40.563,19.466,5.573,2.657,9.787,3.347,15.609,4.507,3.489.7,14.46,2.471,14.5,6.53-4.873.945-14.484-1.063-19.627-1.927-6.836-1.149-13.048-3.576-19.435-5.783-15.081-5.2-28.35-12.7-41.515-22.253-3.82-2.775-7.733-5.281-11.574-7.807-3.331-2.187-9.367-4.665-10.787-8.293-.679-1.732.158-3.812-.229-5.792-.367-1.888-1.687-3.418-2.224-5.165-1.761-5.74,1-9.883,6.966-8.612C330.785,231.226,334.747,236.807,339.59,239.4Z" transform="translate(-317.072 -226.424)" fill="#3d0000" opacity="0.32"/>
          <path id="Path_2821" data-name="Path 2821" d="M403.718,271.3c1.6,1.255,7.517,4.975,5.743,7.733-1.289,2-6.968-.332-8.614-.44,2.011,1.371,4.2,2.658,3.877,5.327-5.884,2.464-14.2-4.161-19.351-6.186-5.181-2.034-14.69-7.495-20.148-6.551,2.868,2.548,10.43,4.564,10.56,8.394-1.807.2-3.4-.481-5.142-.3,6.586,6.894,23.7,8.7,32.814,7.719a12.86,12.86,0,0,0,4.747-24.229c-.924,3.907,7.638,7.837,3.638,11.96-4.081-1.9-4.279-6.675-8.855-8.033-.329.458-.838.9-1.163,1.356-3.3-2.292-8.974-8.38-13.252-5.959C392.523,266.315,399.132,267.693,403.718,271.3Z" transform="translate(-302.987 -217.014)" fill="#3d0000" opacity="0.32"/>
          <path id="Path_2822" data-name="Path 2822" d="M361.917,237.457a7.435,7.435,0,0,1-1.044,1.441c-5.419-2.111-19.71-13.066-25.109-6.912,2.163,1.459,4.567,1.8,6.595,3.789-3.277,2.238-8.258-3.526-12.257-1.866-7.811,3.24,3.487,5.163,5.5,6.35,2.222,1.312,1.565,2.487,3.443,4.294,1.653,1.594,4.463,2.387,6.4,3.459,3.646,2.016,9.919,4.136,11.033,8.489-5.32-1.674-26.381-18.9-30.249-13.01,1.817,1.464,3.837,2.81,5.638,4.287-1.551.394-3.944.388-4.945,2.147,3.953,6.2,15.409,5.98,19.007,12.857-5.673,1.667,4.848,6.92,6.833,7.915,4.372,2.2,9.268,3.585,13.34,6.086-.415.261-.926.912-1.323,1.214,7.465,8.271,20.921,8.034,29.79,15.3-12.867-.717-28.543-9.15-39.186-16.2-5.961-3.951-12.345-8.829-18.45-13.258-4.2-3.05-16.587-7.6-16.607-13.258,8.414-2.325-2.261-9.506,2.576-12.379-.314-2.566-3.016-4.029-4.348-6.234a10.4,10.4,0,0,0,.751-1.035c1.631.494,3.072.932,4.7,1.425,1.656-3.778,4.108-2.781,7-1.459C336.1,220.435,360.888,239.153,361.917,237.457Z" transform="translate(-316.832 -227.051)" fill="#3d0000" opacity="0.32"/>
          <path id="Path_2823" data-name="Path 2823" d="M386.206,253.687c2.942,2.876,10.512,3.9,11.77,8.206-5.114,2.174-12.28-3.72-18.062-1.717,1.683,3.632-2.923,1.455-4.5,1.2-2.072-.341-4.569-.731-6.009,1.188-3.851,5.127,4.665,8.9,7.318,11.235,1.822,1.607,2.921,3.533,5.328,4.779,2.145,1.109,4.563,2.046,6.7,3.2,4.029,2.172,10.551,4.412,13.315,8.436,3.568,5.188-7.164,1.824-9.746.959-4.883-1.632-10.246-3.4-15.119-5.512A100.272,100.272,0,0,1,350.711,269.2c-5.435-4.72-10.246-9.838-16.262-14.177-2.8-2.027-16.233-12.548-11.536-16.231,2.316.358,4.437,3.487,6.249,4.949a41.465,41.465,0,0,0,6.71,4.4c3.519,1.872,10.855,7.26,14.945,5.688.108-4.5-7.574-7.994-10.78-9.908-4.052-2.414-9.865-4.949-12.55-8.921-3.837-5.679,3.17-6.15,7.51-6.538,5.448-.485,11.055,1.412,16.191,2.945a98.9,98.9,0,0,1,14.087,5.139c5.067,2.407,7.707,6.032,11.8,9.344,2.029,1.643,4.73,2.43,6.774,4.118C385.092,251.039,385.572,253.07,386.206,253.687Z" transform="translate(-315.832 -226.845)" fill="#f77505" opacity="0.32"/>
          <path id="Path_2824" data-name="Path 2824" d="M382.949,253.618c-.259.1-.377.468-.587.648-.419-.266-.818-.634-1.219-.9a7.321,7.321,0,0,1,1.394-.406,18.894,18.894,0,0,1-1.466-2.343c.564.8,1.78.127,1.7,1.957A3.721,3.721,0,0,1,386.2,254.5C384.926,255.872,383.954,254.746,382.949,253.618Z" transform="translate(-298.287 -220.252)" fill="#fff" opacity="0.32"/>
          <path id="Path_2825" data-name="Path 2825" d="M384.853,255.567c-.259.1-.377.467-.586.646-.42-.263-.821-.631-1.223-.9a7.57,7.57,0,0,1,1.394-.406,18.865,18.865,0,0,1-1.463-2.344c.561.8,1.779.127,1.7,1.957a3.734,3.734,0,0,1,3.43,1.927C386.831,257.819,385.857,256.693,384.853,255.567Z" transform="translate(-297.722 -219.675)" fill="#fff" opacity="0.32"/>
          <path id="Path_2826" data-name="Path 2826" d="M386.817,254.545c-.262.1-.379.468-.587.646-.42-.263-.819-.631-1.221-.895a7.342,7.342,0,0,1,1.394-.407,18.836,18.836,0,0,1-1.465-2.343c.564.8,1.78.127,1.7,1.957a3.73,3.73,0,0,1,3.428,1.926C388.794,256.8,387.819,255.672,386.817,254.545Z" transform="translate(-297.14 -219.977)" fill="#fff" opacity="0.32"/>
          <path id="Path_2827" data-name="Path 2827" d="M387.8,257.4c-.262.1-.379.467-.587.647-.421-.266-.821-.631-1.221-.9a7.437,7.437,0,0,1,1.394-.407,18.832,18.832,0,0,1-1.465-2.343c.563.8,1.78.127,1.7,1.957a3.732,3.732,0,0,1,3.428,1.926C389.778,259.653,388.8,258.526,387.8,257.4Z" transform="translate(-296.848 -219.13)" fill="#fff" opacity="0.32"/>
          <path id="Path_2828" data-name="Path 2828" d="M389.727,257.27c-.258.1-.377.468-.585.647-.421-.263-.822-.631-1.224-.9a7.5,7.5,0,0,1,1.4-.407,18.509,18.509,0,0,1-1.464-2.343c.563.8,1.779.126,1.7,1.957a3.729,3.729,0,0,1,3.427,1.926C391.706,259.524,390.733,258.4,389.727,257.27Z" transform="translate(-296.275 -219.168)" fill="#fff" opacity="0.32"/>
          <path id="Path_2829" data-name="Path 2829" d="M382.926,259.06c-.257.1-.376.467-.585.646-.419-.263-.819-.633-1.221-.9a7.58,7.58,0,0,1,1.4-.408,18.676,18.676,0,0,1-1.465-2.342c.564.8,1.779.126,1.7,1.957a3.726,3.726,0,0,1,3.428,1.926C384.906,261.311,383.932,260.187,382.926,259.06Z" transform="translate(-298.293 -218.638)" fill="#fff" opacity="0.32"/>
          <path id="Path_2830" data-name="Path 2830" d="M387.15,259.983c-.262.1-.379.467-.587.646-.421-.262-.821-.63-1.223-.9a7.511,7.511,0,0,1,1.394-.406,19.086,19.086,0,0,1-1.465-2.343c.564.8,1.782.126,1.7,1.957a3.728,3.728,0,0,1,3.427,1.926C389.126,262.236,388.153,261.108,387.15,259.983Z" transform="translate(-297.041 -218.364)" fill="#fff" opacity="0.32"/>
          <path id="Path_2831" data-name="Path 2831" d="M383.8,257.859c-.258.1-.376.467-.586.646-.418-.264-.819-.631-1.22-.9a7.58,7.58,0,0,1,1.394-.4,18.72,18.72,0,0,1-1.464-2.343c.561.8,1.779.126,1.7,1.957a3.729,3.729,0,0,1,3.43,1.926C385.778,260.11,384.8,258.985,383.8,257.859Z" transform="translate(-298.034 -218.994)" fill="#fff" opacity="0.32"/>
          <path id="Path_2832" data-name="Path 2832" d="M377.072,257.867c-.262.1-.379.467-.589.646-.419-.265-.818-.633-1.22-.9a7.554,7.554,0,0,1,1.393-.407,18.843,18.843,0,0,1-1.464-2.344c.563.8,1.78.128,1.7,1.958a3.732,3.732,0,0,1,3.428,1.926C379.049,260.117,378.074,258.992,377.072,257.867Z" transform="translate(-300.031 -218.993)" fill="#fff" opacity="0.32"/>
          <path id="Path_2833" data-name="Path 2833" d="M379.907,259.008c-.261.1-.376.469-.585.647-.421-.266-.821-.633-1.221-.9a7.424,7.424,0,0,1,1.393-.407,18.726,18.726,0,0,1-1.463-2.342c.563.8,1.778.126,1.7,1.957a3.726,3.726,0,0,1,3.427,1.924C381.886,261.262,380.915,260.134,379.907,259.008Z" transform="translate(-299.188 -218.653)" fill="#fff" opacity="0.32"/>
          <path id="Path_2834" data-name="Path 2834" d="M384.808,265.316c-.261.1-.377.467-.586.644-.42-.263-.821-.63-1.221-.9a7.413,7.413,0,0,1,1.394-.406,18.609,18.609,0,0,1-1.465-2.344c.565.8,1.78.127,1.7,1.958a3.726,3.726,0,0,1,3.427,1.926C386.785,267.565,385.811,266.441,384.808,265.316Z" transform="translate(-297.735 -216.783)" fill="#fff" opacity="0.32"/>
          <path id="Path_2835" data-name="Path 2835" d="M382.079,264.862c-.261.1-.377.469-.587.647-.419-.264-.821-.631-1.22-.9a7.56,7.56,0,0,1,1.393-.4,19.124,19.124,0,0,1-1.464-2.343c.564.8,1.779.127,1.7,1.955a3.728,3.728,0,0,1,3.427,1.925C384.057,267.116,383.084,265.989,382.079,264.862Z" transform="translate(-298.545 -216.916)" fill="#fff" opacity="0.32"/>
          <path id="Path_2836" data-name="Path 2836" d="M387.789,270.463c.389-.37.622-1.142.983-1.542-.974-2.045-2.609-.934-3.855-.044-.656-1.693.906-1.81.641-3.488-.8.3-1.5.14-2.217.641-.236-.58-.922-.958-.962-1.861-1.64.707-1.748-1.071-2.885-1.45-.182-.058-3.673-1.081-3.415-.727-2.246-3.1,2.867-1.617,4.014-1.356-1.634,7.5,8.121,16.5,13.105,8.025a.9.9,0,0,1,.8.529c-.676,1.5-1.478,3.619-3.173,3.742C392.722,270.728,388.875,269.427,387.789,270.463Z" transform="translate(-299.935 -217.453)" fill="#fff" opacity="0.32"/>
          <path id="Path_2837" data-name="Path 2837" d="M385.331,272.143c.257-.712,1.087-1.408,1.273-2.119,2.368.363.86,2.906,2.283,4.315.309-1.093.427-2.165,1.338-2.889.906,1.125.663,2.814,2.016,3.73a4.044,4.044,0,0,0-.031-3.6,6.11,6.11,0,0,1,.6-1.406,8.664,8.664,0,0,0,3.714,1.437c-.3-2-5.34-4.092-6.016-1.692-1.83.043-4.078-.871-2.624-2.934-1.526-1.888-2.738-.4-3.645,1.2-2.714-1.442,1.735-3.876-1.876-4.581-1.9-.367-4.527,1.237-4.3,3.142,2.082-3.063,5.764-.524,3.986,2.692a3.88,3.88,0,0,1,.463.314C384.166,267.211,385.845,270.715,385.331,272.143Z" transform="translate(-299.183 -216.416)" fill="#fff" opacity="0.32"/>
          <path id="Path_2838" data-name="Path 2838" d="M396.321,271.882c1.15.451.44,2.069-.677,3.025-.415-.962-.287-1.562.67-2.565-2.189-3.924-3.233,4.716-5.9,2.317.388-2.069,3.291-2.29,1.281-4.59-.415.283-1.744.543-2.106.851.469-.612.465-1,1.072-1.559-.253-2.007-1.9-.609-3.2-1.227-1.133-.539-1.962-2.241-3.175-3.087,2.649-.672,7.576,1.415,9.807,2.77-.248-1.951-2.11-2.667-3.188-3.834a9.139,9.139,0,0,1,3.527,1.771,13.876,13.876,0,0,1,1.839,1.314c.48.561-.423,1.356-.126,1.629,1.715,1.591,4.448,1.066,6.068,3.168a7.085,7.085,0,0,0-.5.69,10.813,10.813,0,0,0-3.373-.784,3.108,3.108,0,0,1-.111,3.417c-1.6-1.1-.664-4.38-3.389-3.986Z" transform="translate(-297.334 -216.287)" fill="#fff" opacity="0.32"/>
          <path id="Path_2839" data-name="Path 2839" d="M393.939,282.635a32.046,32.046,0,0,1,3.282-3.048,7.707,7.707,0,0,0-.96-.685,33.063,33.063,0,0,1-6.5,3.4c.551-1.7,2.257-2.914,2.191-4.658-2.263.082-3.314,2.764-5.486,2.632.389-1.31,5.74-4.444,2.553-5.006-2.474-.436-3.592,4.3-6.079,1.767,1.022-1.569,2.234-3.081,3.256-4.65-3.077-2.5-4.729,3.951-7.291.927.79-1.212,1.71-2.4,2.5-3.611-1.35-.841-10.715,2.405-5.568-3.249-1.549-1.145-3.733.08-5.149-1.014-1.678-1.3-1.293-3.314.713-3.772-1.667-1.758-6.967-1.932-6.98-4.642-.019-3.179,5.91-.927,7.421.2-1.133.551-2.6.131-3.911.587,2.045,2.071,4.2,1.21,6.324,2.591,3.218,2.1.134,1.691-1.4,3.763,1.924,1.839,4.547-.2,6.3,1.533a6.033,6.033,0,0,1-2.184,2.654c1.03.574,8.179-1.892,4.383,1.588,2,1.7,4.571-.539,6.613.559.058.209-.363.546-.433.756a11.083,11.083,0,0,1,1.052.572c-.59.236-1.513,1.15-2.117,1.448,1.2.489,7.755-1.489,4.571,1.312a3.429,3.429,0,0,0,3.4.589,13.508,13.508,0,0,1-.838,2.465c2.062,2.433,3.056-1.122,4.925.136-.484.66-.368,1.276-1.167,1.809,2.165-.119,4.383-4.053,5.9-.383,1.278,3.1-2.837,3.9-1.631.419-1.626.185-2.571,1.391-4,2.119C397.36,281.872,393.666,282.978,393.939,282.635Z" transform="translate(-303.224 -218.836)" fill="#fff" opacity="0.32"/>
          <path id="Path_2840" data-name="Path 2840" d="M404.333,282.453c-1.05-1.728,3.059-4.541-1.547-3.943-.578.077-6.111,2.715-2.491-.858-1.927-1.762-3.086,1.7-5.184,1.766.069-.607-.331-1.386-.172-2.085-1,.047-2.285.751-3.245.654-1.123-.117-2.011-1.521-3.411-1.732.93-3.446-2.4-1.74-3.889-2.289-1.619-.6-1.482-3.322-4.262-2.727,2.027-3.475-2.05-2.7-3.772-3.541,1.085-2.793-2-1.9-3.551-2.9-1.5-.965-2.587-3.251-4.283-4.4,2.879.354,4.377,2.2,6.207,3.392,1.23.8,2.742.884,3.959,1.688,1.061.7,1.95,2.611,2.894,3.217,1.268.814,3.107,1.08,4.462,1.814.267.143.089,1.154.591,1.464.676.423,1.911-.048,2.549.31.912.506,1.937,1.627,3.108,2.282a31.3,31.3,0,0,1,3.813,2.312c1.088-1.959,3.65-1.175,4.611.276,1.728-.865,4.493.459,6.343.621A22.249,22.249,0,0,1,404.333,282.453Z" transform="translate(-302.008 -217.353)" fill="#fff" opacity="0.32"/>
          <path id="Path_2841" data-name="Path 2841" d="M403.557,262.363c.414.209.493.561.905.349-1.935-2.182-3.889-1.928-5.595-3.05-1.306-.856-2.47-5.327-4.532-3.238-1.2-1.673-6.36-4.673-8.3-4.388.169.329.373,1.168.533,1.476-1.937-1.2-5.511-5.251-7.518-4.97.105.266.236.7.338,1.058-3.212-1.555-8.088-7.194-11.678-6.595,2.265,2.016,5.461,3.692,8.088,5.533a11.731,11.731,0,0,0-1.915.145,6.271,6.271,0,0,0,2.01,1.472c1.935-2.757,3.312,1.806,4.341,2.755.007.089.512-.713.5-.7a8.7,8.7,0,0,1-.484-1.23c2.287,1.356,3.288,4.175,5.648,4.91a15.692,15.692,0,0,1-1.158-1.951,11.757,11.757,0,0,1,3.584,2.049c-.314-.385-.788-1.778-1.081-2.193,2.256.38,6.439,6.552,7.952,4.454a47.729,47.729,0,0,0,4.765,4.619c.258-.187.327-.462.586-.646,2.246,1.817,9.153,6.1,9.272,9.061-2.774.43-4.366-3.912-6.823-2.645,1.409,1.158,3.151,1.662,4.488,2.985a5.545,5.545,0,0,1-1.972.156c-.486,1.118-.441,1.432.591,2.282.255-.485.9-.93,1.154-1.412,1.507.376,1.981,2.33,2.846,3.533a3.1,3.1,0,0,0,.482-2.67c3.016.092,1.243,4.2,1.623,5.874.342.065.63.131.973.2,2.244-2.474-1.346-10.022-2.311-7.151-1.564-.532.79-2.81-.484-4.737-1.138-1.723-3.891-2.032-5.328-3.54.469.095,1.559-.066,1.935-.025-1.256-1.1-2.8-1.225-4.333-1.629Z" transform="translate(-302.25 -222.524)" fill="#fff" opacity="0.32"/>
          <path id="Path_2842" data-name="Path 2842" d="M403.8,263.682c-.521-.228-1.323-.255-1.859-.437.605,2.8,5.962,1.7,5.625,4.807a22.975,22.975,0,0,1-2.412-.494c.708,2.583,7.072,3.834,4.67,7.592a8.358,8.358,0,0,1-2.2-2.268c-1.229,2.8,1.085,5.3-1.686,8.166-1.656-1.443,2.115-7.067-1.8-6.166A5.453,5.453,0,0,0,401.9,271.5c-.805,1.7,1.455,3.269-.585,5.008-2.273-1.067-1.721-5.716-4.451-4.759.228.731.165,1.973.463,2.635-2.069-.979-1.737-3.251-3.471-4.361-.283.724-1.079,1.4-1.271,2.13a6.127,6.127,0,0,0-5.393-1.114,1.914,1.914,0,0,1,2.285-1.8,4.979,4.979,0,0,0-2.652-1.538c-.217.476-.924.928-1.151,1.409a4.983,4.983,0,0,1-1.741-1.272c.533-.148,1.584-.905,2.238-1.023-1.678-1.644-5.463-.83-5.28-3.1,1.256-.148,2.322.672,3.62.975.517-.84,1.394-1.6,1.909-2.442a7.572,7.572,0,0,1,4.4,1.994c-1.176.467-2.635.209-3.658.783.892.371,1.249.991,2.317,1-.52.323-.932,1.249-1.441,1.631,2.136,2.841,3.168-.9,5.017-.58.91.157,3.26,4.379,3.5-.245,2.132.922.764,3.173,3.133,3.732a5.256,5.256,0,0,0-.249-2.819c1.055.666,5.9,5.222,6.749,4.741,1.957-1.1-4.523-4.743-4.864-5.818a9.659,9.659,0,0,1,1.46.179c.578-2.056-2.753-2.224-4.288-2.675.363-.27.708-.844,1.079-1.093-2.868-2.772-2.762,1.766-4.39,2.292-.8.261-2.733-.506-2.816-1.618-.074-.995,1.874-1.8,2.552-2.466-1.434-2.452-6.457.686-5.315-3.067a3.117,3.117,0,0,0-3.383-.7c.7-3.789-2.064-2.871-4.384-3.8-2.335-.937-4.02-3.2-5.119-5.408,2.3-.367,6.615,1.184,7.706,3.413-.4-.007-1.22.224-1.617.213.735,1.818,3.568.952,5.082,2.658a6.439,6.439,0,0,1-.62,1.019c2.7,2.279,1.568-2.055,1-3.179,3.1.493,3.2,2.806.76,4.047-1.3.66,4.669,1.5,4.46,1.467a7.914,7.914,0,0,1,3.222,1.4C399.043,260.727,401.576,262.122,403.8,263.682Z" transform="translate(-299.578 -220.953)" fill="#fff" opacity="0.32"/>
          <path id="Path_2843" data-name="Path 2843" d="M403,281.694c-1.219.672-3.19.416-3.55,2.078-1.451-.126-2.854-.279-4.351-.27a.738.738,0,0,1,.37.313c-3.916,1.513-9.9.729-13.623-1.288a10.99,10.99,0,0,1,.7-.947c1.679.364,3.484,1.014,5.07.11a5.761,5.761,0,0,0,2.666.681c-.616-2.25-2.973-2.216-5.034-2.423-.035-.242-.113-.7-.16-.941,1.83-.582,6.688.137,6.241,2.482,1.063,1.131,4.284,1.566,5.684,1.409-.1-.4.032-1.171-.06-1.542.635.265,1.31.16,1.931.454,0-.007.532-.708.5-.689-1.055-1.56-1.635-3.5-.5-5.133,1.731,1.16.029,5.145,3.3,4.717-.263-.743-.187-1.946-.467-2.631,2.64,1.784,3.664-.383,2.42-2.761a6.887,6.887,0,0,1,.4-2.751c.528.4,1.2.373,1.726.733,1.286-2.137-2.867-2.838-4.066-3.432a4.26,4.26,0,0,1,4.59.9c1.57,1.779.521,2.15.169,4.077C406.488,277.389,405.781,280.163,403,281.694Z" transform="translate(-298.057 -214.645)" fill="#fff" opacity="0.32"/>
          <path id="Path_2844" data-name="Path 2844" d="M392.149,284.761c.93-1.932,2.964-2.391,4.008-.283,1.07-.555,1.071-1.737.685-2.933a7.946,7.946,0,0,0,2.574,1.391c-.384-.917.114-1.066.137-1.823.886.376,1.125,0,1.819.074-.311-.5-.314-1.481-.533-1.876,1.986.546,4.118-1.654,3.589-3.457-1.03-3.487-3.542.2-4.594-2.221a14.214,14.214,0,0,0,3.051-.047c-.152-1.553-4.17-6.717.77-5.288,2.359.685,3.752,4.777,3.579,6.894C406.713,281.558,398.221,287.092,392.149,284.761Z" transform="translate(-295 -215.081)" fill="#fff" opacity="0.32"/>
          <path id="Path_2845" data-name="Path 2845" d="M389.007,280.818c-2.382-1.476,2.941-4.227,2.943-5.819,0-4.878-3.34.572-4.1,1.394-1.277,1.376-3.829,3.113-5.8,2.488.74-2.479,5.106-4.756,3.877-7.5-2.76.485-2.322,5.231-6.053,3.529.922-1.862,2.772-2.868,3.693-4.728a5.18,5.18,0,0,1-.468-.747c-2.527-.032-2.917,4.191-5.572,2.583.532-1.857,2.927-3.327,2.378-5.406-2.119.031-2.547,2.729-4.957,2.435.255-1.907-.975-4.2-2.54-1.527,0-.523-.464-1.444-.494-1.953-1.412.459-3.708,1.255-3.721-1-2.514-.459-4.427,1.26-5.5,3.448,1.162-.5,3.894-1.919,5.306-.892,2.547,1.853-1.66,3.478.589,5.14.939-1.443,2.305-3.529,4.135-2.435-.53,1.211-1.154,2.291-1.594,3.48,2.164,2.05,3.172-2.794,5.633.254-.771.991-2.189,2.911-.721,3.7,1.011.539,1.91-1.866,3.472-1.4-.032.7-.9,6.569,1.316,2.637,1.062.923,1.123.871.412,2.16,1.446,1.814,3.262,1.492,3.712-.744a3.972,3.972,0,0,1,1.15.42c-.389.371-.622,1.142-.98,1.543-.86.961,2.784,1.517,3.459,1.144-.9,8.151,4.69-3.34,5.14-5.491C391.538,277.422,391.245,282.2,389.007,280.818Z" transform="translate(-303.737 -216.137)" fill="#fff" opacity="0.32"/>
          <path id="Path_2846" data-name="Path 2846" d="M377.6,272.614c1.438.775,3.305.652,4.69,1.542-1.5,4.93,4.44.3,5.065,2.409.436,1.455-2.352,2.206-.333,3.725,1.3.982,2.194-.762,3.675-.832-1.083,2.136-.5,4.943,2.042,2.646-.169.424-.193.807-.332,1.238,1.577,1.783,1.879-.481,2.882-.141,2.008.683.441.991,1.835,2.145,3.692,3.056,2.448-1.154,4.884-3.222.344.074.631.132.972.2.179,1.4-1.015,2.265-1.428,3.7,2.238,1.979,3.777-3.558,5.13-4.886,1.113,1.3-2.139,5.673.358,5.28,3-.472.663-5.228,4.607-4.553-.088,1.063-.634,2.089-.716,3.152,1.382-.87,2.126-2.7,3.05-4.121a7.5,7.5,0,0,0,.7.511c-.559,1.416-2.034,2.829-1.153,4.315a9.514,9.514,0,0,1-2.474,2.85c.095-.417-.128-1.548-.035-2.014-1.936-.1-2.442,1.748-4.39,1.667-.075-.364-.266-.784-.362-1.144-1.072.564-2.136,1.192-2.927.353-1.145.641-2.538,1.22-3.742.742.058-.312.316-.488.431-.779-1.306.026-2.325,1.517-4.071.912.242-1.557-1.122-2.038-2.553-1.548a11.673,11.673,0,0,1,.819-1.186c-1.693-1.094-2.408,1.591-4.157.429.816-.835.585-1.479.747-2.219a12.556,12.556,0,0,0-3.5.613,5.122,5.122,0,0,0,.2-2.6c-3.645,1.151-4.077.6-2.447-3.275a4.131,4.131,0,0,0-1.147-.419c-.345.46-1.792,1.907-2.5,1.608-2.029-.861.115-1.761-.473-3.05-1.6-3.516-1.971-.656-4.589.192-.525-1.608,1.787-4.416-2.077-3.5a13.7,13.7,0,0,0,1.586-.7c-2.51-1.461-5.974,1.253-9.114-.4,1.093-1.9,3.4-.831,4.511-2.56-1.636-1.626-5.1-1.776-7.128-2.518-.032-.936-.536-1.511-.381-2.438-2.986-1.093-11.98-4.372-12.222-8.239,3.283-2.473,5.987,3.059,8.232,4.384a19.766,19.766,0,0,0-3.124-1.07c1.155,2.6,7.367,2.764,9.736,5.145-1.872,2.413,1.92,2.019,3.251,2.675,1.964.969,2.09,2.453,2.394,4.355,1.855-.94,4.2-1.478,6.07-.379C378.074,271.678,377.764,272.7,377.6,272.614Z" transform="translate(-307.052 -218.69)" fill="#fff" opacity="0.32"/>
          <path id="Path_2847" data-name="Path 2847" d="M348.581,234.988a6.252,6.252,0,0,1,1.127,1.612,23.384,23.384,0,0,0-2.978-1.232c-.223.484-.926.93-1.149,1.416-2.729-1.123-6.391-4.055-9.283-1.924.357,1.811,3.619,1.861,5.079,3.349-.895.98-2.282.534-3.379.985a15.156,15.156,0,0,0,3.357,1.775c-1.29,2.274-5.115-.673-5.384-2.382a23.88,23.88,0,0,1,2.892-.3c-1.747-1.328-5.541-2-5.914-4.274,4.818-2.225,7.679.453,12.367.952a19.487,19.487,0,0,0-1.093-2.191c.722.548,1.508.621,2.274,1.109.032-.423.631-1.349.629-1.8,1.985,1.014,4.158,1.774,5.609,3.546.161-.025.322-.045.482-.065,1.031-.122-5.581-5.28-5.646-5.5,2.242.8,10.048,6.337,8.1,9.174C354.092,238.419,350.668,233.24,348.581,234.988Z" transform="translate(-312.562 -226.351)" fill="#fff" opacity="0.32"/>
          <path id="Path_2848" data-name="Path 2848" d="M373.623,261.571c-1.489-1.092-3.105-3.518-4.514-4.565-.329-.242-.04-1.206-.58-1.535s-1.272.134-1.639-.064c-.893-.477-1.973-.4-2.984-1.2-1.141-.9-2.434-4.835-4.027-1.088-1.775-.935-2.209-3.406-4.46-2.058-3.511-1.556-6.706-4.013-10.5-4.358,2.788,1.543,5.56,3.255,8.27,4.791,2.858,1.625,4.971,1.406,7.108,4.331a4.95,4.95,0,0,0,.217-1.4c1.723-.118,2.05,1.88,3.471,2.863.8-1.212,1.906-1.253,2.889-.159-2.106,2.615,2.7,2.811,4.1,3.711,1.364.877,4.3,3.727,4.947,5.117.078-4.361,3.965,2.151,5.12,3.318.123-.672.652-.967.613-1.783,1.744.411,1.254,1.67,2.737,2.633,1.865-2.086,2.973,1.031,4.389,1.666a5.877,5.877,0,0,0,5.2-.127,5.906,5.906,0,0,0-1.811-1.722c-2.136,2.649-6.759-.874-2.9-3.273-1.552-2.941-3.636,2.355-6.154-.641.441-.559.36-1.2.721-1.723-1.459-.906-5.705,2.884-5.026-1.225A10.359,10.359,0,0,1,373.623,261.571Z" transform="translate(-309.01 -221.413)" fill="#fff" opacity="0.32"/>
        </g>
        <path id="Path_2849" data-name="Path 2849" d="M333.548,243.059c-2.433-.714-6.217-3.646-8.476-2.505a6.817,6.817,0,0,0,1.342,3.025,13.021,13.021,0,0,1-2.65,1.1,5.119,5.119,0,0,0,2.81,4.167c-3.607,1.389-.136,5.231,2.514,5.48,2.881,6.708,7.15-1.9,11.148,2.453-1.631.722-3.625,1.512-4.886,3.064,3.57,3.5,4.89,1.612,8.457.263,2.417-.914,7.9-1.119,9.373,1.225-1.291,1.092-11.814,1.975-5.805,5.337,2.029,1.137,3.838-.96,5.472-.328,1.984.762,2.037,2.951.134,3.583.971,2.794,2.985,1.94,4.792,2.775,1.867.862,2.208,2.071,4.008,3.612,3.686,3.163,8.671,4.324,11.617,8.5-2.789,1.9-12.21-4.74-15.18-6.319a41.841,41.841,0,0,1-6.416-4.268c-2.02-1.621-2.965-3.769-4.961-5.209-7.207-5.2-19.363-7.522-24.246-14.494-.073-.1.336-.657.4-.752-.953-.782-2.027-1.5-2.971-2.286.007-1.372-.4-3.045,1.141-3.373-2.321-2.125.682-4.258-1.232-5.8a20.3,20.3,0,0,0,2.01-2.386c-2.226-2.387-5.53-7.119-.009-6.407-.694-2.313-.289-2.72,1.4-4.044.333-.262,1.907-.451,2.413-.716.67-.355,1.3-1.31,2.042-1.6,2.606-1.024,8.419,1.026,10.666,2.561.657.45-3.551.455-3.433.441-1.35.17-2.894-.912-3.308,1.223-.162.831,2.046,1.578,1.726,2.514-.834,2.43-3.179-.044-4.532-.6-4.154-1.714-6.971-.1-2.863,3.2C327.7,237.824,334.532,240.073,333.548,243.059Z" transform="translate(-316.726 -226.882)" fill="#3d0000" opacity="0.32"/>
        <path id="Path_2850" data-name="Path 2850" d="M338.116,249.758c-3.422,1.01-1.664,2.3.228,2.958,2.038.713,4.1.027,5.421,2.32a12.427,12.427,0,0,0-3.43,1.03c.755,1.653,2.834,2.365,4.571,2.247-.219.307-.389.73-.616,1.039a8.98,8.98,0,0,0,3.957,2.234c1.448.307,3.445-.506,4.685.52,2.4,1.99-.983,1.626-.717,3.561.275,2.009,2.328,1.914,3.72,2.117,1.778.261,2.691-1.107,4.192.8.53.674-.428,1.815-.009,2.736a19.853,19.853,0,0,0,1.753,1.949c2.386,2.55,7.535,4.371,4.423-.587,2.771,1.1,5.364,2.776,8.026,4.1,2.6-2.774-3.212-4.1-1.691-6.32,1.173-1.714,5.875.971,7.233,2-2.58-3.855,3.319-4.626,4.529-1.308,1.455,4-4.886,2.417-4.887,6.2,0,4.37,5.421,1.162,7.174,3.78,2.615,3.907-3.8,1.068-5.311,1.911,3.323,5.5,10.343,2.154,14.572,6.625,2.923,3.089-1.684,2.047-4.206,1.306a84.182,84.182,0,0,1-8.837-3.539c-1.835-.779-5.468-1.949-6.739-3.4-1.8-2.05-1.547-3.688-4.826-4.709-2.114-.66-3.947.083-6.083-.345-2.493-.5-5.2-2.84-7.41-4.11-4.744-2.728-8.369-6.163-12.878-9.434-4.437-3.222-9.143-5.869-13.427-9.35a27.731,27.731,0,0,1-5.7-5.8c-1.573-2.311-1.249-4.368-2.211-6.788-1.612-4.064-5.166-8.289-.515-11.442,4.195-2.84,7.167-1.469,11.442.1-.983,1.723-2.552.606-4.074,1.342-2.132,1.028-1.744,1.95-2.308,3.873-1.015,3.47-1.072,5.467,2.525,7.312,3.362,1.726,13.884,1.277,14,6.356C342.454,251.568,340.478,249.059,338.116,249.758Z" transform="translate(-316.165 -225.833)" fill="#3d0000" opacity="0.32"/>
        <path id="Path_2851" data-name="Path 2851" d="M385.715,255.742c-5.024.516-9.961-2.99-14.729-4.358-1.889-.542-5.618-1.616-7.382-.2-1.929,1.544-.4,4.214-.323,6.5-4.086.8-9.971-4.516-13.463-6.608-4.76-2.854-9.219-6.15-13.927-9.219-2.137-1.394-13.058-7.353-12.282-10.272.487-1.83,11.811-3.007,13.674-2.982,6.942.086,15.792,3.43,22.1,5.962,6.7,2.687,16,5.372,20.434,11.469a6.83,6.83,0,0,1-1.276,1.363,20.019,20.019,0,0,1-2.133-.533C379.063,249.162,385.623,251.563,385.715,255.742Z" transform="translate(-315.344 -226.373)" fill="#f77505" opacity="0.32"/>
        <path id="Path_2852" data-name="Path 2852" d="M363.784,239.465c-2.41-.048-5.572-2.084-6.944.617-1.04,2.044,1.066,5.1-.8,7.178-5.237-2.64-6.7-7.814-12.068-10.594-5.55-2.875-11.085-3.174-16.865-5.155-.912-.312,5.218-1.875,5.77-1.892a108.054,108.054,0,0,1,11.847.634C349.809,230.691,362.741,233.049,363.784,239.465Z" transform="translate(-314.323 -226.075)" fill="#f77505" opacity="0.32"/>
        <path id="Path_2853" data-name="Path 2853" d="M346.888,232.628c-3.729-.277-10.017.939-5.967,5.493,3.27,3.676,7.327,6.4,10.469,10.15,1.133,1.351,3.147,3.43,3.092,5.428-.083,3.107-2.42,1.749-3.681,3.561-3.032,4.355,7.074,8.05,4.713,10.893-8.7-1.452-20.99-6.123-27.15-13.275-3.143-3.651-4.132-7.7-5.963-11.989-1.673-3.913-4.82-9.019-.644-12.642,3.054-2.648,8.886-1.026,12.625-1.243,3.7-.215,10.312-1.2,12.551,2.471Z" transform="translate(-316.497 -226.341)" fill="#f77505" opacity="0.32"/>
        <path id="Path_2854" data-name="Path 2854" d="M401.37,282.561c5.551.006,9.284.362,12.045-5.13,1.411-2.8,1.168-3.813.389-6.951-.323-1.3-.853-5.994-3.38-4.654-1.949,1.035-.175,4.582-3.264,5.478-1.959.568-5.624-.611-7.679-.915-3.58-.53-13.551-4.454-16.213-1.028,1.859,1.858,13.956,4.068,13.143,6.421-1.017,2.949-13.16-.656-15.426-1.173-5.021-1.137-9.928-2.788-15.019-3.864-1.467-.307-5.277-1.511-6.1.729-.657,1.8,13.411,6.657,15.426,7.323A84.759,84.759,0,0,0,401.37,282.561Z" transform="translate(-304.583 -215.401)" fill="#3d0000" opacity="0.32"/>
        <path id="Path_2855" data-name="Path 2855" d="M389.943,282.024a85.5,85.5,0,0,1-36.01-13.153c-1.609-1.045-3.8-2.325-4.546-4.083,4.464-1.2,13.424,4.468,17.676,6.169,3.273,1.306,13.28,7.068,16.386,3.55-1.2-1.708-5.073-3.507-5.559-5.362-.975-3.71,3.211-2.684,5.264-2.342,4.977.827,9.643,1.849,14.5,2.971,2.1.485,13.344,2.386,11.636-2.364-.707-1.961-6.545-2-6.35-4.272.249-2.9,5.009,1.981,5.91-.01.027-.086.051-.169.075-.254-1.141-1.481-3.515-3.549-3.75-5.177-.1-.7,4.564,1.617,4.8,1.787a20.2,20.2,0,0,1,4.886,5.124c2.269,3.395,4.428,7.515.51,10.055-1.591,1.03-3.642,1.162-5.211,2.339-1.95,1.459-2.547,3.716-4.689,4.883C401.246,284.184,394.44,282.567,389.943,282.024Z" transform="translate(-307.685 -217.781)" fill="#3d0000" opacity="0.32"/>
      </g>
    </g>
  </g>
</svg>
